<svg width="119" height="119" viewBox="0 0 119 119" fill="none" xmlns="http://www.w3.org/2000/svg">
<path d="M17.2165 51.1784C19.2498 38.2837 28.8806 27.3592 39.5285 23.6914C50.1915 20.0386 62.5714 21.8553 76.4159 31.357C90.2604 40.8587 93.851 35.2812 102.813 45.6912C111.776 56.1012 108.924 66.73 100.583 77.7191C92.2414 88.7083 81.0729 95.9957 68.2082 98.0591C55.3436 100.123 40.783 96.962 30.7503 87.9498C20.7025 78.9225 15.1685 64.0877 17.2165 51.1784Z" fill="#02CE9D" fill-opacity="0.3"/>
<path d="M69 40C52.425 40 39 53.425 39 70C39 86.575 52.425 100 69 100C85.575 100 99 86.575 99 70C99 53.425 85.575 40 69 40ZM72 91H66V85H72V91ZM78.195 67.765L75.51 70.525C73.35 72.685 72 74.5 72 79H66V77.5C66 74.185 67.35 71.185 69.51 69.01L73.245 65.23C74.325 64.15 75 62.65 75 61C75 57.685 72.315 55 69 55C65.685 55 63 57.685 63 61H57C57 54.37 62.37 49 69 49C75.63 49 81 54.37 81 61C81 63.64 79.935 66.025 78.195 67.765Z" fill="black"/>
</svg>
