<svg width="100" height="75" fill="none" xmlns="http://www.w3.org/2000/svg"><path fill-rule="evenodd" clip-rule="evenodd" d="M49.546.56c6.957-.453 14.3-1.6 20.417 1.75 6.272 3.433 9.91 10.077 12.986 16.539 3.116 6.546 5.957 13.617 4.778 20.773-1.169 7.098-6.243 12.705-11.159 17.951-4.754 5.074-9.96 10.067-16.694 11.775-6.623 1.679-13.507-.148-19.925-2.49-6.11-2.23-11.307-6.002-15.918-10.593-4.92-4.898-10.22-9.987-11.595-16.797-1.405-6.955.751-14.185 4.072-20.453 3.2-6.043 8.294-10.82 14.26-14.152C36.49 1.665 43.005.987 49.545.56z" fill="#C2C2FF"/><path d="M20 48.401V9.433C20 6.979 21.945 5 24.339 5H75.66C78.063 5 80 6.987 80 9.433v38.765c0 2.559-2.033 4.636-4.538 4.636H24.34C21.945 52.834 20 50.847 20 48.4z" fill="#fff" stroke="#000" stroke-width="3" stroke-miterlimit="10" stroke-linecap="round" stroke-linejoin="round"/><path d="M52.037 24.507h18.158M52.037 29.684h18.158M52.037 19.299h18.158" stroke="#000" stroke-width="3" stroke-miterlimit="10" stroke-linecap="round" stroke-linejoin="round"/><path d="M35.963 37.85c3.922 0 7.1-3.248 7.1-7.255s-3.178-7.255-7.1-7.255c-3.922 0-7.102 3.248-7.102 7.255s3.18 7.255 7.102 7.255z" fill="#FFD29C" stroke="#000" stroke-width="2.374" stroke-miterlimit="10" stroke-linecap="round" stroke-linejoin="round"/><path d="M34.011 30c.61 0 1.105-.505 1.105-1.128 0-.624-.495-1.13-1.105-1.13s-1.105.506-1.105 1.13c0 .623.495 1.129 1.105 1.129zM38.011 30c.61 0 1.105-.505 1.105-1.128 0-.624-.495-1.13-1.105-1.13s-1.105.506-1.105 1.13c0 .623.495 1.129 1.105 1.129z" fill="#000"/><path d="M33.318 32.349c1.466 1.723 3.838 1.7 5.29 0M35.322 17.636c.604.18 1.451.587 1.444 1.67 0 1.174-.913 1.822-1.657 1.8-.42-.016-.848-.355-.796-.942.044-.587 1.06-.812 1.54-.158.515.715.685 2.416.626 3.236M27.801 31.04c.586 0 1.06-.486 1.06-1.085 0-.598-.474-1.083-1.06-1.083-.586 0-1.06.485-1.06 1.083 0 .599.474 1.084 1.06 1.084zM44.133 31.04c.586 0 1.06-.486 1.06-1.085 0-.598-.474-1.083-1.06-1.083-.586 0-1.06.485-1.06 1.083 0 .599.474 1.084 1.06 1.084z" stroke="#000" stroke-width="2.374" stroke-linecap="round" stroke-linejoin="round"/><path d="M67.263 70l-4.958-2.965L57.93 70V54.798h9.333V70z" fill="#fff" stroke="#000" stroke-width="3" stroke-miterlimit="10" stroke-linecap="round" stroke-linejoin="round"/><path d="M62.593 55.806c5.443 0 9.856-4.508 9.856-10.069 0-5.561-4.413-10.07-9.856-10.07-5.444 0-9.857 4.509-9.857 10.07s4.413 10.07 9.857 10.07z" fill="#C6F9EC" stroke="#000" stroke-width="3" stroke-miterlimit="10" stroke-linecap="round" stroke-linejoin="round"/><path d="M62.688 40.439l1.532 3.176 3.425.504-2.482 2.468.59 3.492-3.065-1.648-3.072 1.648.59-3.492-2.483-2.468 3.433-.504 1.532-3.176z" fill="#fff" stroke="#000" stroke-width="2" stroke-miterlimit="10" stroke-linecap="round" stroke-linejoin="round"/><path d="M62.592 55.806v11.229" stroke="#000" stroke-width="3" stroke-miterlimit="10" stroke-linecap="round" stroke-linejoin="round"/></svg>