<svg width="152" height="155" viewBox="0 0 152 155" fill="none" xmlns="http://www.w3.org/2000/svg">
<path d="M127.982 102.904C120.831 118.927 104.506 129.769 89.3989 130.847C74.2778 131.901 58.8414 125.267 44.1925 108.158C29.5435 91.0504 22.9306 97.0442 14.9376 80.4449C6.94454 63.8457 14.365 51.0446 29.0391 39.6731C43.7132 28.3017 60.7624 22.7086 78.1856 24.4772C95.6088 26.2459 113.406 35.3765 123.278 50.5326C133.164 65.7134 135.158 86.8674 127.982 102.904Z" fill="#02CE9D" fill-opacity="0.3"/>
<path d="M89.2273 80.7955C92.0515 80.7955 94.3409 78.506 94.3409 75.6818C94.3409 72.8576 92.0515 70.5682 89.2273 70.5682C86.4031 70.5682 84.1136 72.8576 84.1136 75.6818C84.1136 78.506 86.4031 80.7955 89.2273 80.7955Z" fill="black"/>
<path d="M68.7727 80.7955C71.5969 80.7955 73.8864 78.506 73.8864 75.6818C73.8864 72.8576 71.5969 70.5682 68.7727 70.5682C65.9485 70.5682 63.6591 72.8576 63.6591 75.6818C63.6591 78.506 65.9485 80.7955 68.7727 80.7955Z" fill="black"/>
<path d="M123.755 84.5182C123.918 83.6591 124 82.7591 124 81.8182C124 80.8773 123.918 79.9773 123.755 79.1182C122.732 72.9409 118.191 67.9091 112.259 66.15C110.091 61.5682 107.023 57.5591 103.3 54.2455C96.8364 48.4773 88.3273 45 79 45C69.6727 45 61.1636 48.4773 54.7 54.2455C50.9364 57.5591 47.8682 61.6091 45.7409 66.15C39.8091 67.9091 35.2682 72.9 34.2455 79.1182C34.0818 79.9773 34 80.8773 34 81.8182C34 82.7591 34.0818 83.6591 34.2455 84.5182C35.2682 90.6955 39.8091 95.7273 45.7409 97.4864C47.8682 102.027 50.9364 106.036 54.6182 109.309C61.0818 115.118 69.6318 118.636 79 118.636C88.3682 118.636 96.9182 115.118 103.423 109.309C107.105 106.036 110.173 101.986 112.3 97.4864C118.191 95.7273 122.732 90.7364 123.755 84.5182ZM107.636 90C107.227 90 106.859 89.9182 106.45 89.8773C105.632 92.6182 104.445 95.1545 102.932 97.4864C97.8182 105.3 89.0227 110.455 79 110.455C68.9773 110.455 60.1818 105.3 55.0682 97.4864C53.5545 95.1545 52.3682 92.6182 51.55 89.8773C51.1409 89.9182 50.7727 90 50.3636 90C45.8636 90 42.1818 86.3182 42.1818 81.8182C42.1818 77.3182 45.8636 73.6364 50.3636 73.6364C50.7727 73.6364 51.1409 73.7182 51.55 73.7591C52.3682 71.0182 53.5545 68.4818 55.0682 66.15C60.1818 58.3364 68.9773 53.1818 79 53.1818C89.0227 53.1818 97.8182 58.3364 102.932 66.15C104.445 68.4818 105.632 71.0182 106.45 73.7591C106.859 73.7182 107.227 73.6364 107.636 73.6364C112.136 73.6364 115.818 77.3182 115.818 81.8182C115.818 86.3182 112.136 90 107.636 90ZM60.5909 90C63.7 97.2409 70.7773 102.273 79 102.273C87.2227 102.273 94.3 97.2409 97.4091 90H60.5909Z" fill="black"/>
</svg>
