<svg width="119" height="119" viewBox="0 0 119 119" fill="none" xmlns="http://www.w3.org/2000/svg">
<path d="M101.783 67.8217C99.7501 80.7164 90.1194 91.6409 79.4714 95.3087C68.8084 98.9615 56.4286 97.1448 42.5841 87.6431C28.7396 78.1414 25.149 83.7189 16.1866 73.3089C7.22417 62.899 10.0755 52.2701 18.417 41.281C26.7585 30.2918 37.9271 23.0045 50.7917 20.941C63.6563 18.8776 78.2169 22.0381 88.2497 31.0503C98.2974 40.0776 103.831 54.9125 101.783 67.8217Z" fill="#02CE9D" fill-opacity="0.3"/>
<path d="M52.25 89.43L73.25 68.395L87.25 82.395L117 48.935L112.065 44L87.25 71.895L73.25 57.895L47 84.18L52.25 89.43Z" fill="black"/>
<path d="M49.0747 51.4111C45.7299 50.5589 44.6542 49.6778 44.6542 48.3056C44.6542 46.7311 46.1424 45.6333 48.6326 45.6333C51.2554 45.6333 52.2279 46.8611 52.3163 48.6667H55.5727C55.4695 46.1822 53.9224 43.9 50.8428 43.1633V40H46.4224V43.12C43.5639 43.7267 41.2652 45.5467 41.2652 48.3344C41.2652 51.6711 44.0796 53.3322 48.1906 54.3C51.8743 55.1667 52.611 56.4378 52.611 57.7811C52.611 58.7778 51.889 60.3667 48.6326 60.3667C45.5972 60.3667 44.4037 59.0378 44.2417 57.3333H41C41.1768 60.4967 43.5933 62.2733 46.4224 62.8656V66H50.8428V62.8944C53.7161 62.36 56 60.7278 56 57.7667C56 53.6644 52.4194 52.2633 49.0747 51.4111Z" fill="black"/>
</svg>
