<svg width="129" height="127" viewBox="0 0 129 127" fill="none" xmlns="http://www.w3.org/2000/svg">
<path d="M112.809 60.2464C114.391 74.8535 107.121 89.5115 96.6073 96.5732C86.0726 103.623 72.0583 105.221 54.1866 98.8867C36.315 92.5521 34.0476 99.6529 21.2242 90.9214C8.40085 82.19 8.3761 69.8104 14.2231 55.4542C20.0701 41.098 30.0852 29.9506 43.485 23.9934C56.8847 18.0363 73.6692 17.2695 87.2464 24.1722C100.844 31.087 111.238 45.6192 112.809 60.2464Z" fill="#02CE9D" fill-opacity="0.3"/>
<path d="M78 48V36H48V90H108V48H78ZM60 84H54V78H60V84ZM60 72H54V66H60V72ZM60 60H54V54H60V60ZM60 48H54V42H60V48ZM72 84H66V78H72V84ZM72 72H66V66H72V72ZM72 60H66V54H72V60ZM72 48H66V42H72V48ZM102 84H78V78H84V72H78V66H84V60H78V54H102V84ZM96 60H90V66H96V60ZM96 72H90V78H96V72Z" fill="black"/>
<path d="M41 64L39.0613 62.0613L31.375 69.7337V53H28.625V69.7337L20.9525 62.0475L19 64L30 75L41 64Z" fill="#010101"/>
</svg>
