<svg width="119" height="122" viewBox="0 0 119 122" fill="none" xmlns="http://www.w3.org/2000/svg">
<path d="M98.1891 83.0771C92.8876 95.0061 80.7576 103.066 69.5231 103.853C58.2781 104.621 46.7902 99.6623 35.8767 86.9011C24.9632 74.14 20.0513 78.5981 14.0886 66.2232C8.12594 53.8483 13.631 44.3196 24.5325 35.8638C35.434 27.4081 48.1081 23.2596 61.0684 24.5961C74.0288 25.9326 87.2753 32.754 94.6336 44.0558C102.003 55.3761 103.508 71.1377 98.1891 83.0771Z" fill="#02CE9D" fill-opacity="0.3"/>
<path fill-rule="evenodd" clip-rule="evenodd" d="M74.7774 30.9062L81.0885 30.9062C84.5691 30.9062 87.3996 33.7367 87.3996 37.2173L87.3996 81.3951C87.3996 84.8757 84.5691 87.7062 81.0885 87.7062L36.9107 87.7062C33.4301 87.7062 30.5996 84.8757 30.5996 81.3951L30.5996 37.2173C30.5996 33.7367 33.4301 30.9062 36.9107 30.9062L43.2218 30.9062L43.2218 24.5951L49.5329 24.5951L49.5329 30.9062L68.4663 30.9062L68.4663 24.5951L74.7774 24.5951L74.7774 30.9062ZM36.9107 81.3951L81.0948 81.3951L81.0885 43.5284L36.9107 43.5284L36.9107 81.3951ZM73.8527 55.226L55.8439 73.2348L44.1463 61.5371L48.6082 57.0752L55.8439 64.3109L69.3907 50.7641L73.8527 55.226Z" fill="black"/>
</svg>
