<svg width="101" height="75" fill="none" xmlns="http://www.w3.org/2000/svg"><path fill-rule="evenodd" clip-rule="evenodd" d="M83.861 39.049c-.898 9.702-.402 20.36-7.85 26.655-7.637 6.455-18.494 6.018-28.266 3.873-9.896-2.172-19.175-6.773-24.409-15.435-5.92-9.798-9.456-22.033-4.448-32.325 4.994-10.264 17.096-13.495 28.15-16.389 11.723-3.068 25.613-8.192 34.557-.026 8.74 7.98 3.357 21.87 2.266 33.647z" fill="#FFD29C"/><path d="M33.266 5L21.5 33.08l46.734 19.336L80 24.336 33.266 5z" fill="#C6F9EC" stroke="#000" stroke-width="2" stroke-miterlimit="10" stroke-linecap="round" stroke-linejoin="round"/><path d="M57.16 30.916a6.993 6.993 0 01-3.82 3.788 7.024 7.024 0 01-5.398-.013c-3.588-1.483-5.295-5.598-3.802-9.167a7.04 7.04 0 013.912-3.82 7.066 7.066 0 015.307.045 6.984 6.984 0 013.814 3.8 6.93 6.93 0 01-.013 5.367z" stroke="#000" stroke-width="3" stroke-miterlimit="10"/><path d="M76.334 25.479L38.987 10.027c-.026-.013-.052-.02-.077-.033L35.037 8.39a.483.483 0 00-.633.264l-9.49 22.649a.491.491 0 00.259.636l41.302 17.088a.52.52 0 00.369.007h.007a.492.492 0 00.265-.257l9.49-22.649c.09-.263-.026-.552-.272-.648zM35.102 9.468l3.271 1.355a2.537 2.537 0 01-.071 1.784A2.586 2.586 0 0136.899 14c-.013.007-.02.007-.032.013-1.183.462-2.554 0-3.2-1.091 0-.007-.007-.007-.007-.007l1.442-3.447zm-9.115 21.756l1.46-3.479a2.586 2.586 0 013.149 1.483 2.541 2.541 0 010 1.97 2.597 2.597 0 01-1.358 1.375l-3.252-1.349zM66.39 47.942l-3.277-1.355c-.007-.039-.007-.09-.026-.128a2.542 2.542 0 010-1.971 2.592 2.592 0 013.387-1.387c.621.257 1.1.732 1.371 1.335l-1.455 3.506zm1.933-4.616a3.577 3.577 0 00-4.15-1.15c-.013.007-.032.014-.045.02a3.52 3.52 0 00-1.933 1.913 3.445 3.445 0 00-.213 2.003L30.35 33.028c1.26-.95 1.778-2.657 1.144-4.172a3.566 3.566 0 00-3.607-2.183l5.334-12.724a3.594 3.594 0 003.995.957c.013-.007.032-.013.045-.02a3.551 3.551 0 001.94-1.913c.232-.552.316-1.13.258-1.708L71.35 24.459a3.535 3.535 0 00-1.138 4.167 3.57 3.57 0 003.355 2.189l-5.242 12.512zm5.657-13.507a2.6 2.6 0 01-2.877-1.554 2.572 2.572 0 011.352-3.338l3.044 1.258-1.519 3.634z" fill="#000" stroke="#000" stroke-miterlimit="10"/><path d="M28.256 14.983l-4.965 30.012 49.954 8.166 4.965-30.006-49.954-8.172z" fill="#C6F9EC" stroke="#000" stroke-width="2" stroke-miterlimit="10" stroke-linecap="round" stroke-linejoin="round"/><path d="M57.502 34.769a6.963 6.963 0 01-2.844 4.558 7.039 7.039 0 01-5.256 1.22c-3.84-.63-6.446-4.238-5.819-8.051a6.997 6.997 0 012.922-4.61 7.068 7.068 0 015.179-1.168 7.025 7.025 0 014.59 2.825 6.945 6.945 0 011.228 5.226z" stroke="#000" stroke-width="3" stroke-miterlimit="10"/><path d="M74.899 25.1l-39.927-6.528a.382.382 0 00-.084-.013l-4.137-.68a.487.487 0 00-.556.397l-4.002 24.21a.501.501 0 00.084.359.503.503 0 00.317.199l44.148 7.216a.497.497 0 00.356-.077l.006-.007a.499.499 0 00.2-.314l4.002-24.21a.493.493 0 00-.407-.551zm-43.825-6.182l3.497.572a2.52 2.52 0 01.343 1.752 2.54 2.54 0 01-1.047 1.676c-.007.006-.02.013-.026.02a2.62 2.62 0 01-3.362-.335l-.006-.006.601-3.679zm-3.847 23.253l.615-3.724a2.594 2.594 0 013.407.726c.407.558.568 1.245.452 1.92a2.573 2.573 0 01-1.002 1.643l-3.472-.565zm43.192 7.062l-3.504-.572c-.013-.038-.026-.083-.052-.115a2.519 2.519 0 01-.452-1.92 2.54 2.54 0 011.047-1.675 2.592 2.592 0 011.933-.45 2.56 2.56 0 011.642.989l-.614 3.742zm.814-4.93a3.552 3.552 0 00-1.68-.758 3.558 3.558 0 00-2.625.59c-.013.007-.026.02-.039.026a3.525 3.525 0 00-1.19 4.301l-33.804-5.527a3.543 3.543 0 00.149-4.327 3.574 3.574 0 00-4.015-1.303l2.25-13.598a3.608 3.608 0 004.111.02c.013-.007.026-.02.04-.026a3.525 3.525 0 001.44-2.305 3.513 3.513 0 00-.141-1.72l34.082 5.572a3.524 3.524 0 00-.142 4.314 3.585 3.585 0 003.769 1.368l-2.205 13.372zm2.386-14.439a2.611 2.611 0 01-3.161-.854A2.566 2.566 0 0171 25.454l3.258.532-.64 3.878z" fill="#000" stroke="#000" stroke-miterlimit="10"/><path d="M43.558 72v-8.379c-3.349 0-6.058-2.723-6.058-6.074V40.391A3.387 3.387 0 0140.882 37a3.387 3.387 0 013.381 3.39v10.46" fill="#fff"/><path d="M44.263 49.042l18.305 3.122c0 6.566-1.207 11.457-6.332 11.457V72H43.558" fill="#fff"/><path d="M43.558 72v-8.379c-3.349 0-6.058-2.723-6.058-6.074V40.391A3.387 3.387 0 0140.882 37a3.387 3.387 0 013.381 3.39v10.46" fill="#fff"/><path d="M43.558 72v-8.379c-3.349 0-6.058-2.723-6.058-6.074V40.391A3.387 3.387 0 0140.882 37a3.387 3.387 0 013.381 3.39v10.46m0-1.808l18.305 3.122c0 6.566-1.207 11.457-6.332 11.457V72" stroke="#000" stroke-width="3" stroke-miterlimit="10" stroke-linecap="round" stroke-linejoin="round"/></svg>