<svg width="113" height="115" viewBox="0 0 113 115" fill="none" xmlns="http://www.w3.org/2000/svg">
<path d="M95.0128 76.038C89.7114 87.9671 77.5813 96.0267 66.3469 96.8136C55.1018 97.5821 43.614 92.6232 32.7004 79.8621C21.7869 67.1009 16.8751 71.559 10.9124 59.1841C4.94967 46.8092 10.4548 37.2805 21.3562 28.8248C32.2577 20.369 44.9319 16.2206 57.8922 17.5571C70.8525 18.8935 84.099 25.7149 91.4573 37.0167C98.8263 48.337 100.332 64.0986 95.0128 76.038Z" fill="#02CE9D" fill-opacity="0.3"/>
<path d="M57.1353 58.2784C48.3076 55.9839 45.4687 53.6117 45.4687 49.9173C45.4687 45.6784 49.3964 42.7228 55.9687 42.7228C62.8909 42.7228 65.4576 46.0284 65.6909 50.8895H74.2853C74.0131 44.2006 69.9298 38.0562 61.802 36.0728V27.5562H50.1353V35.9562C42.5909 37.5895 36.5242 42.4895 36.5242 49.995C36.5242 58.9784 43.952 63.4506 54.802 66.0561C64.5242 68.3895 66.4687 71.8117 66.4687 75.4284C66.4687 78.1117 64.5631 82.3895 55.9687 82.3895C47.9576 82.3895 44.8076 78.8117 44.3798 74.2228H35.8242C36.2909 82.7395 42.6687 87.5228 50.1353 89.1173V97.5562H61.802V89.195C69.3853 87.7562 75.4131 83.3617 75.4131 75.3895C75.4131 64.345 65.9631 60.5728 57.1353 58.2784Z" fill="black"/>
</svg>
