<svg width="75" height="68" fill="none" xmlns="http://www.w3.org/2000/svg"><path fill-rule="evenodd" clip-rule="evenodd" d="M49.065 4.68c7.948 3.722 16.293 7.424 20.19 15.338 4.708 9.565 8.242 21.734 2.501 30.753-5.665 8.901-18.338 7.694-28.533 10.144-9.676 2.326-19.686 8.197-28.478 3.56C5.797 59.755 2.813 48.618.927 38.605-.8 29.431-.443 19.607 4.847 11.912 9.818 4.686 18.643 1.75 27.24.342c7.62-1.245 14.84 1.066 21.826 4.338z" fill="#C2C2FF"/><path d="M55.385 55.147H14.5L6 46.016V11.078c0-2.415 1.539-4.364 3.444-4.364h45.941c1.905 0 3.444 1.958 3.444 4.364v39.705c0 2.406-1.548 4.364-3.444 4.364z" fill="#fff"/><path d="M14.843 55.147L6 46.016h8.843v9.131z" fill="#fff"/><path d="M6 46.016l8.5 9.131h40.885c1.896 0 3.444-1.958 3.444-4.364V11.078c0-2.406-1.54-4.364-3.444-4.364H9.444C7.539 6.714 6 8.664 6 11.078v34.938zm0 0l8.843 9.131v-9.131H6z" stroke="#000" stroke-width="3" stroke-miterlimit="10" stroke-linecap="round" stroke-linejoin="round"/><path d="M58.829 17.365H6v-6.26C6 8.69 7.896 6.74 10.226 6.74h44.377c2.338 0 4.226 1.959 4.226 4.364v6.26z" fill="#C6F9EC" stroke="#000" stroke-width="3" stroke-miterlimit="10" stroke-linecap="round" stroke-linejoin="round"/><path d="M17.896 12.053V3m29.48 9.053V3" stroke="#000" stroke-width="3" stroke-miterlimit="10" stroke-linecap="round" stroke-linejoin="round"/><path d="M57.877 66c7.8 0 14.124-6.53 14.124-14.584 0-8.055-6.324-14.585-14.124-14.585-7.8 0-14.123 6.53-14.123 14.585C43.754 59.47 50.077 66 57.877 66z" fill="#FFD29C" stroke="#000" stroke-width="3" stroke-miterlimit="10" stroke-linecap="round" stroke-linejoin="round"/><path d="M49.906 52.34l4.31 4.506L64.905 46.7" stroke="#000" stroke-width="4" stroke-linecap="round" stroke-linejoin="round"/></svg>