<svg width="85" height="75" fill="none" xmlns="http://www.w3.org/2000/svg"><path fill-rule="evenodd" clip-rule="evenodd" d="M55.809 5.301c9.04 4.216 18.532 8.41 22.963 17.374 5.356 10.836 9.375 24.62 2.846 34.837-6.444 10.082-20.858 8.715-32.454 11.49-11.007 2.636-22.392 9.286-32.392 4.033C6.594 67.688 3.199 55.073 1.055 43.73-.91 33.338-.505 22.21 5.514 13.494 11.166 5.309 21.204 1.98 30.983.388c8.667-1.411 16.88 1.207 24.826 4.913z" fill="#FFD29C"/><path d="M68.172 67.07H21.668L12 56.728V17.15c0-2.736 1.75-4.944 3.917-4.944h52.255c2.167 0 3.917 2.218 3.917 4.944v44.977c0 2.725-1.76 4.943-3.917 4.943z" fill="#fff"/><path d="M22.058 67.07L12 56.728h10.058V67.07z" fill="#fff"/><path d="M12 56.727l9.668 10.344h46.504c2.157 0 3.917-2.218 3.917-4.943V17.15c0-2.726-1.75-4.944-3.917-4.944H15.917c-2.167 0-3.917 2.208-3.917 4.944v39.576zm0 0L22.058 67.07V56.727H12z" stroke="#000" stroke-width="3" stroke-miterlimit="10" stroke-linecap="round" stroke-linejoin="round"/><path d="M72.09 24.272H12V17.18c0-2.735 2.157-4.943 4.807-4.943h50.476c2.66 0 4.806 2.218 4.806 4.943v7.092z" fill="#C6F9EC" stroke="#000" stroke-width="3" stroke-miterlimit="10" stroke-linecap="round" stroke-linejoin="round"/><path d="M25.531 18.255V8m33.532 10.255V8" stroke="#000" stroke-width="3" stroke-miterlimit="10" stroke-linecap="round" stroke-linejoin="round"/></svg>