<svg width="136" height="138" viewBox="0 0 136 138" fill="none" xmlns="http://www.w3.org/2000/svg">
<path d="M114.631 91.327C108.179 105.694 93.499 115.437 79.9311 116.432C66.3504 117.404 52.5011 111.49 39.3786 96.1918C26.2561 80.8936 20.3065 86.2754 13.16 71.4204C6.01352 56.5654 12.7011 45.084 25.8998 34.8696C39.0985 24.6551 54.4191 19.6126 70.0618 21.1642C85.7045 22.7159 101.669 30.8617 110.505 44.4204C119.354 58.0011 121.105 76.9476 114.631 91.327Z" fill="#02CE9D" fill-opacity="0.3"/>
<path d="M44.1133 109.137C41.36 109.137 39.7867 107.956 39.3933 105.987C38.2133 102.837 41.36 100.868 42.54 100.081C44.9 98.506 46.08 97.3247 46.4733 96.1435C46.4733 95.356 46.08 94.5685 45.2933 93.3872C45.2933 93.3872 45.2933 92.9935 44.9 92.9935C40.9667 87.8747 39 81.5747 39 75.2747C39 59.131 52.3733 46.1372 68.5 46.1372C84.6267 46.1372 98 59.131 98 75.2747C98 91.4185 84.6267 104.412 68.5 104.412C66.5333 104.412 64.5667 104.018 62.6 103.625C52.3733 108.743 44.9 109.137 44.9 109.137C44.5067 109.137 44.5067 109.137 44.1133 109.137ZM51.98 89.056C53.9467 91.8122 54.7333 94.9622 54.34 97.7185C54.34 98.1122 53.9467 98.8997 53.9467 99.2935C55.9133 98.506 57.88 97.7185 60.24 96.5372C61.0267 96.1435 61.8133 95.7497 62.6 96.1435H62.9933C64.5667 96.5372 66.5333 96.931 68.5 96.931C80.3 96.931 90.1333 87.481 90.1333 75.6685C90.1333 63.856 80.3 54.0122 68.5 54.0122C56.7 54.0122 46.8667 63.4622 46.8667 75.2747C46.8667 79.9997 48.44 84.7247 51.5867 88.2685C51.5867 88.6622 51.98 88.6622 51.98 89.056Z" fill="black"/>
</svg>
