<svg width="100" height="75" fill="none" xmlns="http://www.w3.org/2000/svg"><path fill-rule="evenodd" clip-rule="evenodd" d="M46.951 70.361c-9.702-.898-20.36-.402-26.655-7.85-6.455-7.637-6.018-18.494-3.873-28.266 2.172-9.896 6.773-19.175 15.435-24.409C41.656 3.916 53.891.38 64.183 5.388c10.264 4.994 13.495 17.096 16.389 28.15 3.069 11.723 8.191 25.613.026 34.557-7.98 8.74-21.87 3.357-33.647 2.266z" fill="#C2C2FF"/><path d="M64.736 9.034l-33.692-.028c-2.747 0-4.976 2.233-4.976 4.995L26 61.957c-.007 2.762 2.221 5.008 4.97 5.008l36.986.028c2.747 0 4.976-2.233 4.976-4.995L73 17.47l-8.264-8.437z" fill="#fff"/><path d="M64.736 17.471V9.034l8.196 8.437h-8.196z" fill="#fff"/><path d="M64.736 9.034l-33.692-.028c-2.747 0-4.976 2.233-4.976 4.995L26 61.957c-.007 2.762 2.221 5.008 4.97 5.008l36.986.028c2.747 0 4.976-2.233 4.976-4.995L73 17.47l-8.264-8.437zm0 0v8.437h8.196l-8.196-8.437zM34 45h30M34 51h30M34 57h30M42 38h22" stroke="#000" stroke-width="3" stroke-miterlimit="10" stroke-linecap="round" stroke-linejoin="round"/><path d="M37.61 36H34v3.628h3.61V36z" fill="#fff" stroke="#000" stroke-width="2" stroke-miterlimit="10" stroke-linecap="round" stroke-linejoin="round"/><path d="M46.983 23.556a2.991 2.991 0 00-2.983 3V30h5.963v-3.444c.003-1.656-1.33-3-2.98-3zM46.983 23.556a2.272 2.272 0 002.265-2.278A2.272 2.272 0 0046.983 19a2.272 2.272 0 00-2.265 2.278 2.272 2.272 0 002.265 2.278z" fill="#C6F9EC"/><path d="M46.983 23.556a2.991 2.991 0 00-2.983 3V30h5.963v-3.444c.003-1.656-1.33-3-2.98-3zm0 0a2.272 2.272 0 002.265-2.278A2.272 2.272 0 0046.983 19a2.272 2.272 0 00-2.265 2.278 2.272 2.272 0 002.265 2.278z" stroke="#000" stroke-width="2" stroke-miterlimit="10" stroke-linecap="round" stroke-linejoin="round"/><path d="M53.02 23.556a2.991 2.991 0 00-2.983 3V30H56v-3.444a2.989 2.989 0 00-2.98-3zM53.02 23.556a2.272 2.272 0 002.265-2.278A2.272 2.272 0 0053.02 19a2.272 2.272 0 00-2.265 2.278 2.272 2.272 0 002.265 2.278z" fill="#C6F9EC"/><path d="M53.02 23.556a2.991 2.991 0 00-2.983 3V30H56v-3.444a2.989 2.989 0 00-2.98-3zm0 0a2.272 2.272 0 002.265-2.278A2.272 2.272 0 0053.02 19a2.272 2.272 0 00-2.265 2.278 2.272 2.272 0 002.265 2.278z" stroke="#000" stroke-width="2" stroke-miterlimit="10" stroke-linecap="round" stroke-linejoin="round"/></svg>
