<svg width="74" height="65" fill="none" xmlns="http://www.w3.org/2000/svg"><path fill-rule="evenodd" clip-rule="evenodd" d="M56.503 10.29c6.785 5.7 13.963 11.486 15.715 20.19 2.119 10.519 2.418 23.257-5.508 30.5-7.823 7.149-19.864 2.647-30.434 2.346-10.034-.286-21.308 2.781-28.68-4.03C.094 52.366.063 40.773.812 30.563c.687-9.357 3.574-18.797 10.72-24.873C18.242-.017 27.604-.55 36.348.346c7.75.793 14.19 4.934 20.155 9.944z" fill="#C6F9EC"/><path d="M60.227 8H14.783C10.203 8 6.5 11.813 6.5 16.507v24.59c0 4.705 3.712 8.507 8.283 8.507H43.05V58l8.174-8.396h8.994c4.58 0 8.283-3.813 8.283-8.507v-24.58C68.51 11.813 64.808 8 60.227 8z" fill="#fff" stroke="#000" stroke-width="3" stroke-miterlimit="10" stroke-linecap="round" stroke-linejoin="round"/><path stroke="#8E8EEF" stroke-width="3" stroke-linecap="round" stroke-linejoin="round" d="M17.5 24.5h40M17.5 33.5h40"/></svg>