<svg width="100" height="75" fill="none" xmlns="http://www.w3.org/2000/svg"><g clip-path="url(#clip0)"><path fill-rule="evenodd" clip-rule="evenodd" d="M48.051 1.008c6.227.12 11.883 2.717 17.452 5.483 6.175 3.067 13.97 5.171 16.684 11.47 2.713 6.297-2.149 13.106-3.178 19.877-1.02 6.71.67 13.922-2.847 19.743-3.781 6.262-9.823 11.825-17.05 13.2-7.092 1.35-13.438-3.914-20.32-6.086-6.688-2.112-14.666-1.514-19.563-6.503-4.956-5.05-6.335-12.726-6.223-19.772.103-6.472 3.8-12.043 6.819-17.782 2.86-5.436 5.272-11.305 10.335-14.826C35.323 2.222 41.746.886 48.05 1.008z" fill="#C2C2FF"/><path d="M87 54.877l-7.553-7.736-7.553 7.736V74H87V54.877z" fill="#FFD29C" stroke="#000" stroke-width="3" stroke-miterlimit="10" stroke-linecap="round" stroke-linejoin="round"/><path d="M82.966 64.367c0-1.97-1.403-2.535-2.914-2.853l-.8-.164c-1.188-.236-1.276-.574-1.276-1.026 0-.595.536-.944 1.442-.944 1.072 0 1.345.534 1.453.934l.01.03c.136.35.448.555.837.555a.98.98 0 00.263-.031c.42-.082.712-.41.712-.8a.986.986 0 00-.049-.287c-.214-.688-.818-1.765-2.485-2.011V56.6c0-.974-1.54-.974-1.54 0v1.18c-1.793.277-2.455 1.488-2.455 2.544 0 1.919 1.344 2.452 2.66 2.73l.867.184c1.238.246 1.452.575 1.452 1.149 0 .708-.604 1.129-1.617 1.129-1.316 0-1.579-.585-1.764-1.242-.107-.37-.439-.595-.848-.595a.937.937 0 00-.244.03h-.029c-.419.103-.711.432-.711.822 0 .072.01.133.02.184l.009.062c.195.636.614 2.031 2.71 2.35v1.23c0 .493.389.75.769.75s.77-.257.77-.75v-1.21c1.676-.226 2.758-1.283 2.758-2.78z" fill="#000"/><path d="M72.362 43.489H20.994s0-27.034 25.68-27.034c25.688 0 25.688 27.034 25.688 27.034z" fill="#fff" stroke="#000" stroke-width="3" stroke-miterlimit="10" stroke-linecap="round" stroke-linejoin="round"/><path d="M79.301 16.23L45.651 4 12 16.23l33.65 13.747 33.651-13.748.146 30.03-.146-30.03z" fill="#fff"/><path d="M79.301 16.23L45.651 4 12 16.23l33.65 13.747 33.651-13.748zm0 0l.146 30.028" stroke="#000" stroke-width="3" stroke-miterlimit="10" stroke-linecap="round" stroke-linejoin="round"/></g><defs><clipPath id="clip0"><path fill="#fff" d="M0 0h100v75H0z"/></clipPath></defs></svg>