<svg width="128" height="130" viewBox="0 0 128 130" fill="none" xmlns="http://www.w3.org/2000/svg">
<path d="M107.801 86.5672C101.827 100.011 88.156 109.094 75.4947 109.981C62.8215 110.848 49.8747 105.259 37.5751 90.8769C25.2755 76.495 19.7398 81.5194 13.0199 67.5728C6.29986 53.6262 12.5041 42.8874 24.7901 33.3577C37.0761 23.828 51.3599 19.1527 65.9663 20.6589C80.5726 22.1652 95.5015 29.8529 103.794 42.5901C112.099 55.348 113.796 73.1115 107.801 86.5672Z" fill="#02CE9D" fill-opacity="0.3"/>
<path d="M93.5 44H41.5C37.8925 44 35.0325 46.8925 35.0325 50.5L35 89.5C35 93.1075 37.8925 96 41.5 96H93.5C97.1075 96 100 93.1075 100 89.5V50.5C100 46.8925 97.1075 44 93.5 44ZM93.5 89.5H41.5V70H93.5V89.5ZM93.5 57H41.5V50.5H93.5V57Z" fill="black"/>
<path fill-rule="evenodd" clip-rule="evenodd" d="M106.071 39.4766L37.5477 108L31 101.452L99.5233 32.9288L106.071 39.4766Z" fill="black"/>
</svg>
