<svg width="101" height="75" fill="none" xmlns="http://www.w3.org/2000/svg"><path fill-rule="evenodd" clip-rule="evenodd" d="M70.503 15.29c6.785 5.7 13.963 11.486 15.715 20.19 2.119 10.519 2.418 23.257-5.508 30.5-7.823 7.149-19.864 2.647-30.434 2.346-10.034-.286-21.308 2.781-28.68-4.03-7.502-6.931-7.533-18.523-6.784-28.734.687-9.357 3.574-18.797 10.72-24.873 6.71-5.707 16.072-6.238 24.816-5.343 7.75.793 14.19 4.934 20.155 9.944z" fill="#C2C2FF"/><path d="M73.227 13H27.783c-4.58 0-8.283 3.813-8.283 8.507v24.59c0 4.705 3.712 8.507 8.283 8.507H56.05V63l8.174-8.396h8.994c4.58 0 8.283-3.813 8.283-8.507v-24.58C81.51 16.813 77.808 13 73.227 13z" fill="#fff" stroke="#000" stroke-width="3" stroke-miterlimit="10" stroke-linecap="round" stroke-linejoin="round"/><path d="M34.92 38.41c2.34 0 4.236-1.947 4.236-4.35 0-2.402-1.896-4.35-4.235-4.35-2.34 0-4.235 1.948-4.235 4.35 0 2.403 1.896 4.35 4.235 4.35zM50.697 38.41c2.34 0 4.236-1.947 4.236-4.35 0-2.402-1.897-4.35-4.236-4.35-2.339 0-4.235 1.948-4.235 4.35 0 2.403 1.896 4.35 4.235 4.35zM66.099 38.41c2.339 0 4.235-1.947 4.235-4.35 0-2.402-1.896-4.35-4.235-4.35-2.34 0-4.236 1.948-4.236 4.35 0 2.403 1.897 4.35 4.236 4.35z" fill="#02CEAA"/></svg>