<svg width="157" height="157" viewBox="0 0 157 157" fill="none" xmlns="http://www.w3.org/2000/svg">
<path d="M134.569 89.706C131.929 106.786 119.212 121.222 105.117 126.038C91.0017 130.834 74.5883 128.374 56.2016 115.724C37.8148 103.074 33.0801 110.45 21.1592 96.6171C9.23843 82.7841 12.9722 68.7108 23.9801 54.1831C34.988 39.6554 49.7579 30.0452 66.7974 27.3649C83.8369 24.6846 103.146 28.9343 116.479 40.9196C129.833 52.9248 137.229 72.6073 134.569 89.706Z" fill="#02CE9D" fill-opacity="0.3"/>
<path fill-rule="evenodd" clip-rule="evenodd" d="M108.2 45H45.8C41.4905 45 38.039 48.4905 38.039 52.8L38 123L53.6 107.4H108.2C112.51 107.4 116 103.91 116 99.6V52.8C116 48.4905 112.51 45 108.2 45ZM79.202 77.63V80.942H72.762V73.904C77.362 73.72 80.26 72.524 80.26 69.028V68.384C80.26 65.854 78.558 64.796 76.35 64.796C73.866 64.796 72.21 66.406 71.612 68.706L66 66.36C67.058 62.68 70.232 59 76.58 59C83.112 59 87.436 62.864 87.436 68.43C87.436 73.628 83.618 76.894 79.202 77.63ZM80.628 88.624C80.628 90.602 79.34 92.212 76.074 92.212C72.854 92.212 71.566 90.602 71.566 88.624V87.152C71.566 85.22 72.854 83.61 76.074 83.61C79.34 83.61 80.628 85.22 80.628 87.152V88.624Z" fill="black"/>
</svg>
