<svg width="100" height="75" fill="none" xmlns="http://www.w3.org/2000/svg"><path fill-rule="evenodd" clip-rule="evenodd" d="M63.906 14.89c6.842 5.736 14.08 11.558 15.847 20.316 2.136 10.586 2.437 23.404-5.555 30.692-7.888 7.194-20.03 2.664-30.688 2.361-10.118-.287-21.486 2.799-28.919-4.055-7.565-6.975-7.596-18.64-6.84-28.915.692-9.416 3.603-18.915 10.809-25.03 6.767-5.742 16.206-6.276 25.023-5.376 7.814.798 14.309 4.965 20.323 10.007z" fill="#FFD29C"/><path d="M3.312 25.588l.011 25.733 43.174-.001-.011-25.733H3.312z" fill="#fff" stroke="#000" stroke-width="2" stroke-miterlimit="10" stroke-linecap="round" stroke-linejoin="round"/><path d="M3.29 28.667L3.303 54.4h43.173l-.01-25.734-43.174.001z" fill="#fff" stroke="#000" stroke-width="2" stroke-miterlimit="10" stroke-linecap="round" stroke-linejoin="round"/><path d="M3.27 31.665l.01 25.733h43.174l-.011-25.734H3.269z" fill="#fff" stroke="#000" stroke-width="2" stroke-miterlimit="10" stroke-linecap="round" stroke-linejoin="round"/><path d="M30.642 44.183a5.828 5.828 0 01-1.761 4.191 6.024 6.024 0 01-4.252 1.736c-3.319-.001-6.018-2.66-6.023-5.929.001-1.662.695-3.167 1.817-4.245a6.036 6.036 0 014.196-1.682c1.61 0 3.122.613 4.255 1.734 1.144 1.127 1.773 2.614 1.768 4.195z" stroke="#000" stroke-width="3" stroke-miterlimit="10"/><path d="M43.935 33.743l-34.507.001h-.071l-3.578-.003a.418.418 0 00-.417.41l.014 20.752c-.001.109.048.213.119.29.077.076.181.12.291.12l38.157-.003c.105.001.21-.041.287-.117l.006-.005a.404.404 0 00.123-.287l-.013-20.753a.405.405 0 00-.41-.405zm-37.743.82h3.021c.345.393.534.889.53 1.415a2.15 2.15 0 01-.644 1.544c-.006.005-.012.01-.023.022a2.251 2.251 0 01-2.879.18s-.005 0-.01-.005l.005-3.155zm.013 19.939v-3.194a2.235 2.235 0 012.972.14c.421.41.649.96.65 1.542a2.145 2.145 0 01-.617 1.51l-3.005.002zm37.325-.004l-3.027.001a.334.334 0 00-.06-.092c-.416-.41-.65-.96-.65-1.542a2.15 2.15 0 01.644-1.543 2.231 2.231 0 013.088-.044l.005 3.22zm-.004-4.23a3.008 3.008 0 00-1.518-.402 3.063 3.063 0 00-2.151.876 2.968 2.968 0 00-.402 3.75H10.241a2.978 2.978 0 00-.476-3.632 3.072 3.072 0 00-3.558-.54l-.005-11.661a3.085 3.085 0 003.46-.547l.028-.026a2.97 2.97 0 00.532-3.538l29.457-.003a2.972 2.972 0 00.482 3.626 3.08 3.08 0 003.364.626l.001 11.47zM43.52 37.89a2.237 2.237 0 01-2.776-.286 2.166 2.166 0 01-.04-3.047l2.812-.002.004 3.335z" fill="#000" stroke="#000" stroke-miterlimit="10"/><path d="M28.237 25.608l-6.952-.048-.057 8.13 6.951.049.058-8.13zM28.176 34.085l-6.951-.048-.165 23.332 6.951.048.165-23.332z" fill="#89DDEF" stroke="#000" stroke-width="3" stroke-miterlimit="10" stroke-linecap="round" stroke-linejoin="round"/><path d="M89.293 32.173c0 12.035-9.901 21.79-22.118 21.79-12.217 0-22.118-9.755-22.118-21.79h44.236zM67.175 31.999l-22.118.174c0-12.036 9.901-21.79 22.118-21.79V32zM54.22 58.383c1.911 0 3.461-1.527 3.461-3.41 0-1.884-1.55-3.411-3.462-3.411-1.912 0-3.462 1.527-3.462 3.41 0 1.884 1.55 3.411 3.462 3.411z" fill="#C6F9EC"/><path d="M79.673 58.383c1.912 0 3.462-1.527 3.462-3.41 0-1.884-1.55-3.411-3.462-3.411-1.912 0-3.462 1.527-3.462 3.41 0 1.884 1.55 3.411 3.462 3.411z" fill="#C6F9EC"/><path d="M89.293 32.173c0 12.035-9.901 21.79-22.118 21.79-12.217 0-22.118-9.755-22.118-21.79m44.236 0H45.057m44.236 0l7.796-7.675m-52.032 7.675l22.118-.174V10.383c-12.217 0-22.118 9.754-22.118 21.79zm12.624 22.8c0 1.883-1.55 3.41-3.462 3.41-1.912 0-3.462-1.527-3.462-3.41 0-1.884 1.55-3.411 3.462-3.411 1.912 0 3.462 1.527 3.462 3.41zm25.454 0c0 1.883-1.55 3.41-3.462 3.41-1.912 0-3.462-1.527-3.462-3.41 0-1.884 1.55-3.411 3.462-3.411 1.912 0 3.462 1.527 3.462 3.41z" stroke="#000" stroke-width="3" stroke-miterlimit="10" stroke-linecap="round" stroke-linejoin="round"/></svg>