<svg width="100" height="75" fill="none" xmlns="http://www.w3.org/2000/svg"><path fill-rule="evenodd" clip-rule="evenodd" d="M50.051 2.007c6.227.12 11.883 2.718 17.452 5.484 6.175 3.067 13.97 5.171 16.684 11.47 2.713 6.297-2.149 13.106-3.178 19.877-1.02 6.71.67 13.922-2.847 19.743-3.781 6.262-9.823 11.825-17.05 13.2-7.092 1.35-13.438-3.914-20.32-6.086-6.688-2.112-14.666-1.514-19.563-6.503-4.956-5.05-6.335-12.726-6.223-19.772.103-6.471 3.8-12.043 6.819-17.782 2.86-5.436 5.272-11.305 10.335-14.826 5.163-3.59 11.586-4.926 17.891-4.804Z" fill="#C2C2FF"/><path d="M77.846 32.36v30.737H23.563v-32L50.704 3l27.142 29.36Z" fill="#fff"/><path d="M18 36.856 50.704 3m0 0 31.298 33.856M50.704 3 23.563 31.097v32h54.283V32.36L50.704 3Z" stroke="#000" stroke-width="3" stroke-miterlimit="10" stroke-linecap="round" stroke-linejoin="round"/><path d="M56.748 36.855H43.263v26.25h13.485v-26.25Z" fill="#FFD29C" stroke="#000" stroke-width="3" stroke-miterlimit="10" stroke-linecap="round" stroke-linejoin="round"/><path fill-rule="evenodd" clip-rule="evenodd" d="M69.307 6.838h-6.352v9.41l6.352 6.866V6.838Z" fill="#fff" stroke="#000" stroke-width="3" stroke-miterlimit="10" stroke-linecap="round" stroke-linejoin="round"/><path d="M42.458 53.39c-4.116 0-7.458 3.353-7.458 7.5V72h14.907V60.89c.008-4.139-3.326-7.5-7.45-7.5ZM42.458 53.39c3.127 0 5.662-2.55 5.662-5.695 0-3.145-2.535-5.695-5.662-5.695-3.128 0-5.663 2.55-5.663 5.695 0 3.145 2.535 5.695 5.663 5.695Z" fill="#fff"/><path d="M42.458 53.39c-4.116 0-7.458 3.353-7.458 7.5V72h14.907V60.89c.008-4.139-3.326-7.5-7.45-7.5Zm0 0c3.127 0 5.662-2.55 5.662-5.695 0-3.145-2.535-5.695-5.662-5.695-3.128 0-5.663 2.55-5.663 5.695 0 3.145 2.535 5.695 5.663 5.695Z" stroke="#000" stroke-width="3" stroke-miterlimit="10" stroke-linecap="round" stroke-linejoin="round"/><path d="M57.55 53.39c-4.115 0-7.457 3.353-7.457 7.5V72H65V60.89c.008-4.139-3.334-7.5-7.45-7.5ZM57.55 53.39c3.128 0 5.663-2.55 5.663-5.695 0-3.145-2.535-5.695-5.663-5.695-3.127 0-5.662 2.55-5.662 5.695 0 3.145 2.535 5.695 5.662 5.695Z" fill="#fff"/><path d="M57.55 53.39c-4.115 0-7.457 3.353-7.457 7.5V72H65V60.89c.008-4.139-3.334-7.5-7.45-7.5Zm0 0c3.128 0 5.663-2.55 5.663-5.695 0-3.145-2.535-5.695-5.663-5.695-3.127 0-5.662 2.55-5.662 5.695 0 3.145 2.535 5.695 5.662 5.695Z" stroke="#000" stroke-width="3" stroke-miterlimit="10" stroke-linecap="round" stroke-linejoin="round"/></svg>