<svg width="101" height="75" fill="none" xmlns="http://www.w3.org/2000/svg"><path fill-rule="evenodd" clip-rule="evenodd" d="M85.493 37.051c-.12 6.227-2.718 11.883-5.484 17.452-3.067 6.175-5.171 13.97-11.47 16.684-6.297 2.713-13.106-2.149-19.877-3.178-6.71-1.02-13.922.67-19.743-2.847-6.262-3.781-11.825-9.823-13.2-17.05-1.35-7.092 3.914-13.438 6.086-20.32 2.112-6.688 1.514-14.666 6.503-19.563 5.05-4.956 12.726-6.335 19.772-6.223 6.471.103 12.043 3.8 17.782 6.819 5.436 2.86 11.305 5.272 14.826 10.335 3.59 5.163 4.926 11.586 4.805 17.891z" fill="#C6F9EC"/><path d="M56.734 30.7v22.72H16.612V29.766L36.671 9l20.062 21.7z" fill="#fff"/><path d="M12.5 34.024L36.673 9m0 0l23.133 25.024M36.673 9L16.61 29.767V53.42h40.123V30.701L36.673 9z" stroke="#000" stroke-width="3" stroke-miterlimit="10" stroke-linecap="round" stroke-linejoin="round"/><path d="M41.139 34.024h-9.967v19.402h9.967V34.024z" fill="#89DDEF" stroke="#000" stroke-width="3" stroke-miterlimit="10" stroke-linecap="round" stroke-linejoin="round"/><path fill-rule="evenodd" clip-rule="evenodd" d="M50.422 11.837h-4.695v6.955l4.695 5.075v-12.03z" fill="#fff" stroke="#000" stroke-width="3" stroke-miterlimit="10" stroke-linecap="round" stroke-linejoin="round"/><path d="M30.576 46.245c-3.041 0-5.512 2.478-5.512 5.543V60h11.019v-8.212c.006-3.059-2.459-5.543-5.506-5.543zM30.576 46.245c2.312 0 4.186-1.885 4.186-4.21 0-2.324-1.874-4.209-4.186-4.209-2.311 0-4.185 1.885-4.185 4.21 0 2.324 1.874 4.209 4.186 4.209z" fill="#fff"/><path d="M30.576 46.245c-3.041 0-5.512 2.478-5.512 5.543V60h11.019v-8.212c.006-3.059-2.459-5.543-5.506-5.543zm0 0c2.312 0 4.186-1.885 4.186-4.21 0-2.324-1.874-4.209-4.186-4.209-2.311 0-4.185 1.885-4.185 4.21 0 2.324 1.874 4.209 4.186 4.209z" stroke="#000" stroke-width="3" stroke-miterlimit="10" stroke-linecap="round" stroke-linejoin="round"/><path d="M82.003 50.871a6.5 6.5 0 00-6.503 6.5V67h13v-9.629c.007-3.587-2.908-6.5-6.497-6.5z" fill="#fff"/><path d="M82.003 50.871a4.937 4.937 0 004.939-4.935A4.937 4.937 0 0082.003 41a4.937 4.937 0 00-4.938 4.936 4.937 4.937 0 004.938 4.935z" fill="#fff"/><path d="M82.003 50.871a6.5 6.5 0 00-6.503 6.5V67h13v-9.629c.007-3.587-2.908-6.5-6.497-6.5zm0 0a4.937 4.937 0 004.939-4.935A4.937 4.937 0 0082.003 41a4.937 4.937 0 00-4.938 4.936 4.937 4.937 0 004.938 4.935zM65.5 50.535l7.037-.033m-3.502 3.57l.032-7.04" stroke="#000" stroke-width="3" stroke-miterlimit="10" stroke-linecap="round" stroke-linejoin="round"/></svg>