<svg width="128" height="130" viewBox="0 0 128 130" fill="none" xmlns="http://www.w3.org/2000/svg">
<path d="M107.858 86.8025C101.856 100.308 88.1222 109.433 75.4028 110.324C62.6713 111.194 49.665 105.58 37.3089 91.132C24.9528 76.6841 19.3917 81.7315 12.6408 67.7208C5.88995 53.7102 12.1227 42.922 24.4652 33.3485C36.8076 23.7751 51.1571 19.0783 65.8305 20.5914C80.504 22.1045 95.5014 29.8276 103.832 42.6233C112.175 55.4399 113.88 73.285 107.858 86.8025Z" fill="#02CE9D" fill-opacity="0.3"/>
<path d="M72.9545 72.8409C75.1511 72.8409 76.9318 71.0602 76.9318 68.8636C76.9318 66.667 75.1511 64.8864 72.9545 64.8864C70.758 64.8864 68.9773 66.667 68.9773 68.8636C68.9773 71.0602 70.758 72.8409 72.9545 72.8409Z" fill="black"/>
<path d="M57.0455 72.8409C59.242 72.8409 61.0227 71.0602 61.0227 68.8636C61.0227 66.667 59.242 64.8864 57.0455 64.8864C54.8489 64.8864 53.0682 66.667 53.0682 68.8636C53.0682 71.0602 54.8489 72.8409 57.0455 72.8409Z" fill="black"/>
<path d="M99.8091 75.7364C99.9364 75.0682 100 74.3682 100 73.6364C100 72.9045 99.9364 72.2045 99.8091 71.5364C99.0136 66.7318 95.4818 62.8182 90.8682 61.45C89.1818 57.8864 86.7955 54.7682 83.9 52.1909C78.8727 47.7045 72.2545 45 65 45C57.7455 45 51.1273 47.7045 46.1 52.1909C43.1727 54.7682 40.7864 57.9182 39.1318 61.45C34.5182 62.8182 30.9864 66.7 30.1909 71.5364C30.0636 72.2045 30 72.9045 30 73.6364C30 74.3682 30.0636 75.0682 30.1909 75.7364C30.9864 80.5409 34.5182 84.4545 39.1318 85.8227C40.7864 89.3545 43.1727 92.4727 46.0364 95.0182C51.0636 99.5364 57.7136 102.273 65 102.273C72.2864 102.273 78.9364 99.5364 83.9955 95.0182C86.8591 92.4727 89.2455 89.3227 90.9 85.8227C95.4818 84.4545 99.0136 80.5727 99.8091 75.7364ZM87.2727 80C86.9545 80 86.6682 79.9364 86.35 79.9045C85.7136 82.0364 84.7909 84.0091 83.6136 85.8227C79.6364 91.9 72.7955 95.9091 65 95.9091C57.2045 95.9091 50.3636 91.9 46.3864 85.8227C45.2091 84.0091 44.2864 82.0364 43.65 79.9045C43.3318 79.9364 43.0455 80 42.7273 80C39.2273 80 36.3636 77.1364 36.3636 73.6364C36.3636 70.1364 39.2273 67.2727 42.7273 67.2727C43.0455 67.2727 43.3318 67.3364 43.65 67.3682C44.2864 65.2364 45.2091 63.2636 46.3864 61.45C50.3636 55.3727 57.2045 51.3636 65 51.3636C72.7955 51.3636 79.6364 55.3727 83.6136 61.45C84.7909 63.2636 85.7136 65.2364 86.35 67.3682C86.6682 67.3364 86.9545 67.2727 87.2727 67.2727C90.7727 67.2727 93.6364 70.1364 93.6364 73.6364C93.6364 77.1364 90.7727 80 87.2727 80ZM50.6818 80C53.1 85.6318 58.6045 89.5455 65 89.5455C71.3955 89.5455 76.9 85.6318 79.3182 80H50.6818Z" fill="black"/>
<path d="M65.5218 28.2167C62.8203 27.5283 61.9515 26.8167 61.9515 25.7083C61.9515 24.4367 63.1535 23.55 65.1648 23.55C67.2832 23.55 68.0687 24.5417 68.1401 26H70.7702C70.6869 23.9933 69.4373 22.15 66.95 21.555V19H63.3796V21.52C61.0708 22.01 59.2142 23.48 59.2142 25.7317C59.2142 28.4267 61.4873 29.7683 64.8078 30.55C67.7831 31.25 68.3781 32.2767 68.3781 33.3617C68.3781 34.1667 67.795 35.45 65.1648 35.45C62.7132 35.45 61.7492 34.3767 61.6183 33H59C59.1428 35.555 61.0946 36.99 63.3796 37.4683V40H66.95V37.4917C69.2707 37.06 71.1154 35.7417 71.1154 33.35C71.1154 30.0367 68.2234 28.905 65.5218 28.2167Z" fill="black"/>
</svg>
