<svg width="100" height="75" fill="none" xmlns="http://www.w3.org/2000/svg"><path fill-rule="evenodd" clip-rule="evenodd" d="M74.794 65.823c-6.102 5.008-14.333 5.496-22.146 6.842-7.973 1.373-16.073 3.867-23.675 1.05-8.1-3-15.23-9-18.84-16.802-3.536-7.646-1.98-16.353-.297-24.572 1.61-7.862 3.773-15.96 9.708-21.383 5.813-5.313 14.017-6.584 21.881-7.49 7.577-.872 15.269-.764 22.216 2.41C70.8 9.15 76.615 14.65 80.635 21.383c4.224 7.077 7.216 15.131 6.147 23.264-1.084 8.244-5.548 15.89-11.988 21.176z" fill="#89DDEF"/><path d="M73.844 25.585v18.41H41.331V24.829L57.589 8l16.256 17.585z" fill="#fff"/><path d="M38 28.278L57.588 8m0 0l18.746 20.278M57.588 8L41.332 24.829v19.166h32.512v-18.41L57.588 8z" stroke="#000" stroke-width="3" stroke-miterlimit="10" stroke-linecap="round" stroke-linejoin="round"/><path fill-rule="evenodd" clip-rule="evenodd" d="M68.73 10.299h-3.804v5.636l3.804 4.112V10.3z" fill="#fff" stroke="#000" stroke-width="3" stroke-miterlimit="10" stroke-linecap="round" stroke-linejoin="round"/><path d="M44.117 50.724h-2.818V68h2.818V50.724z" fill="#fff" stroke="#000" stroke-width="2.439" stroke-miterlimit="10" stroke-linecap="round" stroke-linejoin="round"/><path d="M62.443 34.322L45.367 51.34a3.7 3.7 0 01-5.213 0L23.078 34.322a3.669 3.669 0 010-5.195l17.076-17.016a3.7 3.7 0 015.213 0l17.076 17.016a3.669 3.669 0 010 5.195z" fill="#FFD29C" stroke="#000" stroke-width="3" stroke-miterlimit="10" stroke-linecap="round" stroke-linejoin="round"/><path d="M41.59 40.99a1.592 1.592 0 01-.487-1.173c0-.437.163-.826.488-1.141.325-.316.706-.486 1.153-.486.463 0 .852.162 1.177.486.325.323.487.704.487 1.14 0 .462-.162.85-.487 1.174a1.603 1.603 0 01-1.177.485c-.447 0-.828-.162-1.153-.485zm.488-5.17a.8.8 0 01-.276-.583l-.495-9.104v-2.726c0-.405.138-.745.414-1.02a1.392 1.392 0 011.023-.413c.406 0 .739.138 1.007.413.268.275.397.615.397 1.02v2.735l-.495 9.103a.865.865 0 01-.26.582c-.154.146-.373.219-.65.219-.275-.008-.503-.081-.665-.227z" fill="#000" stroke="#000" stroke-width="1.549" stroke-miterlimit="10"/></svg>