<svg width="119" height="119" viewBox="0 0 119 119" fill="none" xmlns="http://www.w3.org/2000/svg">
<path d="M101.784 67.8217C99.7502 80.7164 90.1194 91.6409 79.4715 95.3087C68.8085 98.9615 56.4286 97.1448 42.5841 87.6431C28.7396 78.1414 25.149 83.7189 16.1866 73.3089C7.22423 62.8989 10.0755 52.2701 18.417 41.2809C26.7586 30.2918 37.9271 23.0044 50.7918 20.941C63.6564 18.8775 78.217 22.038 88.2497 31.0503C98.2975 40.0776 103.831 54.9124 101.784 67.8217Z" fill="#02CE9D" fill-opacity="0.3"/>
<path d="M84 68.5V61.5C78.61 61.57 73.185 58.875 69.755 55.095L65.24 50.09C64.645 49.425 63.91 48.9 63.105 48.515C63.07 48.515 63.07 48.48 63.035 48.48H63C61.775 47.78 60.375 47.43 58.835 47.57C55.16 47.885 52.5 51.14 52.5 54.815V75.5C52.5 79.35 55.65 82.5 59.5 82.5H77V100H84V80.75C84 76.9 80.85 73.75 77 73.75H66.5V61.675C71.015 65.42 77.875 68.465 84 68.5ZM62.405 86C60.97 90.06 57.085 93 52.5 93C46.69 93 42 88.31 42 82.5C42 77.915 44.94 74.065 49 72.595V65.35C41.02 66.96 35 74.03 35 82.5C35 92.16 42.84 100 52.5 100C60.97 100 68.04 93.98 69.65 86H62.405Z" fill="black"/>
<path d="M59.5 44C63.366 44 66.5 40.866 66.5 37C66.5 33.134 63.366 30 59.5 30C55.634 30 52.5 33.134 52.5 37C52.5 40.866 55.634 44 59.5 44Z" fill="black"/>
</svg>
