<svg width="135" height="136" viewBox="0 0 135 136" fill="none" xmlns="http://www.w3.org/2000/svg">
<path d="M113.408 90.3259C107.137 104.484 92.7616 114.039 79.4392 114.959C66.1041 115.856 52.4736 109.953 39.5139 94.7846C26.5542 79.6166 20.7349 84.904 13.6471 70.2013C6.55929 55.4985 13.0754 44.1908 25.9929 34.1642C38.9103 24.1376 53.9357 19.2282 69.3077 20.8323C84.6797 22.4365 100.398 30.5542 109.14 43.9845C117.894 57.4367 119.701 76.1553 113.408 90.3259Z" fill="#02CE9D" fill-opacity="0.3"/>
<path d="M69 38C49.68 38 34 53.6625 34 73C34 92.3375 49.68 108 69 108C88.32 108 104 92.3375 104 73C104 53.6625 88.32 38 69 38ZM72.5 90.5H65.5V83.5H72.5V90.5ZM72.5 76.5H65.5V55.5H72.5V76.5Z" fill="black"/>
</svg>
