<svg width="102" height="92" viewBox="0 0 102 92" fill="none" xmlns="http://www.w3.org/2000/svg">
<path d="M10.256 73.0423C1.5607 61.0913 0.524969 44.6353 6.11309 33.1745C11.7253 21.7137 23.0907 13.2571 41.781 9.78033C60.4714 6.30361 58.8807 -1.03614 74.3898 0.122771C89.8988 1.28168 96.1252 12.0735 98.2449 27.5491C100.365 43.0247 97.2573 57.8001 88.6102 69.7511C79.963 81.7021 65.7759 90.8288 50.529 91.6457C35.2581 92.4627 18.9513 85.0167 10.256 73.0423Z" fill="#02CE9D" fill-opacity="0.3"/>
<path d="M60.7074 12.1171L61.4145 11.41L60.7074 10.7029L59.2974 9.29289L58.5902 8.58579L57.8831 9.29289L53.0002 14.1758L48.1174 9.29289L47.4102 8.58579L46.7031 9.29289L45.2931 10.7029L44.586 11.41L45.2931 12.1171L50.176 17L45.2931 21.8829L44.586 22.59L45.2931 23.2971L46.7031 24.7071L47.4102 25.4142L48.1174 24.7071L53.0002 19.8242L57.8831 24.7071L58.5902 25.4142L59.2974 24.7071L60.7074 23.2971L61.4145 22.59L60.7074 21.8829L55.8245 17L60.7074 12.1171Z" fill="black" stroke="black" stroke-width="2"/>
<path d="M81 48C86.8012 48 91.5 43.3012 91.5 37.5C91.5 31.6988 86.8012 27 81 27C75.1988 27 70.5 31.6988 70.5 37.5C70.5 43.3012 75.1988 48 81 48ZM81 53.25C73.9913 53.25 60 56.7675 60 63.75V69H102V63.75C102 56.7675 88.0087 53.25 81 53.25Z" fill="black"/>
<path d="M21 48C26.8012 48 31.5 43.3012 31.5 37.5C31.5 31.6988 26.8012 27 21 27C15.1988 27 10.5 31.6988 10.5 37.5C10.5 43.3012 15.1988 48 21 48ZM21 53.25C13.9913 53.25 0 56.7675 0 63.75V69H42V63.75C42 56.7675 28.0087 53.25 21 53.25Z" fill="black"/>
</svg>
