<svg width="101" height="75" fill="none" xmlns="http://www.w3.org/2000/svg"><path fill-rule="evenodd" clip-rule="evenodd" d="M10.58 38.179c.594-8.154 5.86-14.935 11.16-21.144 4.918-5.762 10.687-10.888 17.957-12.972 7.105-2.036 14.645-.961 21.563 1.645 6.676 2.515 11.717 7.485 16.576 12.722 5.565 5.996 12.714 11.599 13.554 19.749.866 8.404-3.49 16.703-9.152 22.957-5.306 5.862-13.139 8.145-20.784 10.112-7.181 1.847-14.443 2.42-21.68.81-7.895-1.754-16.003-4.225-21.29-10.362-5.529-6.415-8.521-15.06-7.904-23.517z" fill="#FFD29C"/><path d="M66.5 17.7h-51a4 4 0 00-4 4V55a4 4 0 004 4h51a4 4 0 004-4V21.7a4 4 0 00-4-4z" fill="#fff" stroke="#000" stroke-width="3" stroke-miterlimit="10" stroke-linecap="round" stroke-linejoin="round"/><path d="M13.467 18.683L38.33 41.327a4 4 0 005.36.024l25.334-22.668" stroke="#000" stroke-width="3" stroke-miterlimit="10" stroke-linecap="round" stroke-linejoin="round"/><path d="M75.5 73c8.837 0 16-7.163 16-16s-7.163-16-16-16-16 7.163-16 16 7.163 16 16 16z" fill="#C2C2FF" stroke="#000" stroke-width="3" stroke-miterlimit="10" stroke-linecap="round" stroke-linejoin="round"/><path d="M75.5 48.625a8.336 8.336 0 00-8.334 8.333c0 4.6 3.733 8.334 8.333 8.334h4.167v-1.667h-4.167c-3.616 0-6.666-3.05-6.666-6.667 0-3.616 3.05-6.666 6.666-6.666 3.617 0 6.667 3.05 6.667 6.666v1.192c0 .658-.592 1.308-1.25 1.308s-1.25-.65-1.25-1.308v-1.192c0-2.3-1.867-4.166-4.167-4.166a4.168 4.168 0 00-4.166 4.166 4.168 4.168 0 007.116 2.942c.542.742 1.475 1.225 2.467 1.225 1.642 0 2.917-1.333 2.917-2.975v-1.192c0-4.6-3.734-8.333-8.334-8.333zm0 10.833a2.497 2.497 0 01-2.5-2.5c0-1.383 1.116-2.5 2.5-2.5 1.383 0 2.5 1.117 2.5 2.5 0 1.384-1.117 2.5-2.5 2.5z" fill="#000"/></svg>