<svg width="105" height="102" viewBox="0 0 105 102" fill="none" xmlns="http://www.w3.org/2000/svg">
<path d="M24.0774 83.8561C13.8158 75.5341 9.11199 61.5495 11.2735 50.3529C13.4558 39.1508 21.292 29.2168 36.5944 21.8957C51.8967 14.5745 48.8259 8.59773 62.4602 6.01807C76.0944 3.43841 83.9599 11.3285 89.3708 24.2154C94.7817 37.1024 95.5259 50.591 90.8416 62.9177C86.1573 75.2444 76.0445 86.4091 63.0937 90.6361C50.1223 94.8686 34.3444 92.1982 24.0774 83.8561Z" fill="#02CE9D" fill-opacity="0.3"/>
<path d="M82.2203 36.2896L56.5712 23.6171C55.7434 23.2111 54.8337 23 53.9118 23C52.9898 23 52.0801 23.2111 51.2524 23.6171L25.6032 36.2896C24.2221 36.9597 23.0578 38.0054 22.2436 39.3068C21.4294 40.6082 20.9984 42.1127 21 43.6478V70.7721C21 75.3092 24.7349 79 29.3264 79H78.4972C83.0887 79 86.8236 75.3092 86.8236 70.7721V43.6478C86.8251 42.1127 86.3941 40.6082 85.58 39.3068C84.7658 38.0054 83.6014 36.9597 82.2203 36.2896ZM53.3799 27.8222C53.5455 27.741 53.7274 27.6988 53.9118 27.6988C54.0962 27.6988 54.2781 27.741 54.4437 27.8222L79.3303 40.1141L54.0587 52.603C53.8932 52.6842 53.7112 52.7264 53.5268 52.7264C53.3424 52.7264 53.1605 52.6842 52.995 52.603L28.104 40.3096L53.3799 27.8222Z" fill="black"/>
</svg>
