<svg width="114" height="118" viewBox="0 0 114 118" fill="none" xmlns="http://www.w3.org/2000/svg">
  <path d="M20.0209 26.7578C29.3142 15.2656 44.9413 10.0061 57.458 12.4375C69.9808 14.8922 81.0909 23.6816 89.2865 40.8352C97.4822 57.9889 104.16 54.5528 107.055 69.8333C109.949 85.1138 101.137 93.9212 86.7371 99.974C72.3374 106.027 57.2613 106.85 43.4795 101.59C29.6976 96.331 17.2101 84.9894 12.4748 70.4735C7.73323 55.9343 10.7051 38.256 20.0209 26.7578Z" fill="#02CE9D" fill-opacity="0.3"/>
  <path d="M39.913 64.6L48.2086 73V87H64.7997V73L73.0953 64.6V50.6H39.913V64.6ZM53.739 31H59.2693V39.4H53.739V31ZM33 41.85L36.91 37.888L42.7722 43.8296L38.8622 47.7916L33 41.85ZM70.2195 43.838L76.09 37.902L80 41.8612L74.1323 47.8L70.2195 43.838Z" fill="black"/>
</svg>
