<svg width="104" height="101" viewBox="0 0 104 101" fill="none" xmlns="http://www.w3.org/2000/svg">
<path d="M10.7545 64.0546C6.06811 51.8708 8.94634 37.5946 16.3338 29.0942C23.7419 20.5993 35.3715 15.9826 52.112 17.2891C68.8526 18.5956 69.1734 11.97 82.14 16.5041C95.1067 21.0383 97.9518 31.6687 96.2224 45.3564C94.493 59.044 88.4644 70.9394 78.3551 79.1587C68.2457 87.3779 54.0556 91.9212 40.8608 89.1327C27.6456 86.3387 15.4356 76.2584 10.7545 64.0546Z" fill="#FF9214"/>
<path d="M47.8484 43.4299H55.8444V60.9299H47.8484V43.4299ZM47.8444 64.4299H55.8404V71.4299H47.8444V64.4299Z" fill="black"/>
<path d="M58.0894 22.2351C56.86 19.8882 54.4647 18.4299 51.8434 18.4299C49.2221 18.4299 46.8268 19.8882 45.5974 22.2387L19.6738 71.9101C19.0985 73.0009 18.8135 74.2249 18.847 75.4615C18.8805 76.698 19.2312 77.9043 19.8645 78.9615C20.4888 80.0234 21.3753 80.9019 22.4366 81.5101C23.4979 82.1184 24.6972 82.4354 25.9162 82.4299H77.7706C80.2718 82.4299 82.5363 81.1328 83.8258 78.9615C84.4581 77.904 84.8083 76.6978 84.8417 75.4614C84.8752 74.2251 84.5908 73.0012 84.0166 71.9101L58.0894 22.2351ZM25.9162 75.2638L51.8434 25.5924L77.7882 75.2638H25.9162Z" fill="black"/>
</svg>
