<svg width="132" height="133" viewBox="0 0 132 133" fill="none" xmlns="http://www.w3.org/2000/svg">
<path d="M110.992 88.6062C104.824 102.486 90.7097 111.864 77.6378 112.78C64.5535 113.674 51.1868 107.904 38.4883 93.0557C25.7898 78.2074 20.0747 83.3947 13.1367 68.9958C6.1988 54.5969 12.6043 43.5098 25.2887 33.671C37.9732 23.8323 52.7203 19.0054 67.8003 20.5604C82.8803 22.1155 98.2934 30.0526 106.855 43.2028C115.429 56.3746 117.182 74.7141 110.992 88.6062Z" fill="#02CE9D" fill-opacity="0.3"/>
<path d="M63.3111 61.7222C54.4833 59.4278 51.6444 57.0556 51.6444 53.3611C51.6444 49.1222 55.5722 46.1667 62.1444 46.1667C69.0667 46.1667 71.6333 49.4722 71.8667 54.3333H80.4611C80.1889 47.6444 76.1056 41.5 67.9778 39.5167V31H56.3111V39.4C48.7667 41.0333 42.7 45.9333 42.7 53.4389C42.7 62.4222 50.1278 66.8944 60.9778 69.5C70.7 71.8333 72.6444 75.2556 72.6444 78.8722C72.6444 81.5556 70.7389 85.8333 62.1444 85.8333C54.1333 85.8333 50.9833 82.2556 50.5556 77.6667H42C42.4667 86.1833 48.8444 90.9667 56.3111 92.5611V101H67.9778V92.6389C75.5611 91.2 81.5889 86.8056 81.5889 78.8333C81.5889 67.7889 72.1389 64.0167 63.3111 61.7222Z" fill="black"/>
</svg>
