<svg width="132" height="132" viewBox="0 0 132 132" fill="none" xmlns="http://www.w3.org/2000/svg">
<path d="M18.736 56.8085C21.0155 42.3531 31.8119 30.1063 43.7487 25.9945C55.7024 21.8996 69.5807 23.9361 85.101 34.588C100.621 45.2398 104.646 38.9871 114.694 50.6572C124.741 62.3272 121.544 74.2425 112.193 86.5618C102.842 98.8811 90.3216 107.051 75.8999 109.364C61.4781 111.677 45.155 108.134 33.9079 98.0308C22.644 87.9108 16.4402 71.2804 18.736 56.8085Z" fill="#02CE9D" fill-opacity="0.3"/>
<path d="M67 103V85.8571H83V103H108.714V71H115L100.714 47.2857L75 35L49.2857 47.2857L35 71H42.4286V103H67Z" fill="black"/>
</svg>
