<svg width="117" height="114" viewBox="0 0 117 114" fill="none" xmlns="http://www.w3.org/2000/svg">
<path fill-rule="evenodd" clip-rule="evenodd" d="M10.3037 49.7369C14.1412 34.8634 29.4267 27.1503 43.6601 21.2125C57.585 15.4033 73.6019 10.2244 86.6279 17.8962C99.2252 25.3155 103.128 36.0788 105.42 50.4456C107.583 63.998 103.514 78.9836 93.9421 88.8268C84.6681 98.3636 71.3049 102.338 57.9659 101.515C45.2525 100.73 34.9026 99.362 25.7858 90.4898C14.7996 79.7984 6.4925 64.5084 10.3037 49.7369Z" fill="#C6F9EC"/>
<path fill-rule="evenodd" clip-rule="evenodd" d="M41.1143 65.0286C38.842 65.0286 37 63.1865 37 60.9143C37 42.8785 51.136 28 68.8857 28C86.6355 28 100.771 42.8785 100.771 60.9143C100.771 63.1865 98.9294 65.0286 96.6571 65.0286C94.3849 65.0286 92.5429 63.1865 92.5429 60.9143C92.5429 47.1384 81.8114 36.2286 68.8857 36.2286C55.96 36.2286 45.2286 47.1384 45.2286 60.9143C45.2286 63.1865 43.3865 65.0286 41.1143 65.0286Z" fill="black"/>
<path d="M37 59.8405H41.8522C46.8289 59.8405 50.8634 63.875 50.8634 68.8517C50.8634 73.8284 46.8289 77.8629 41.8522 77.8629H38.2603C37.5643 77.8629 37 77.2986 37 76.6026V59.8405Z" fill="black"/>
<path d="M100.771 76.6042C100.771 77.3002 100.207 77.8645 99.5111 77.8645H95.9192C90.9425 77.8645 86.9081 73.83 86.9081 68.8533C86.9081 63.8766 90.9425 59.8421 95.9193 59.8421H99.5111C100.207 59.8421 100.771 60.4064 100.771 61.1024V76.6042Z" fill="black"/>
<path fill-rule="evenodd" clip-rule="evenodd" d="M94.5323 65.7657C96.2365 65.7657 97.618 67.1472 97.618 68.8514V73.9271C97.618 86.9926 87.0264 97.5843 73.9609 97.5843H66.1124C64.4083 97.5843 63.0267 96.2028 63.0267 94.4986C63.0267 92.7944 64.4083 91.4129 66.1124 91.4129H73.9609C83.618 91.4129 91.4466 83.5842 91.4466 73.9271V68.8514C91.4466 67.1472 92.8281 65.7657 94.5323 65.7657Z" fill="black"/>
<path d="M76.0857 91.7714C76.0857 96.3159 72.4017 100 67.8571 100C63.3126 100 59.6286 96.3159 59.6286 91.7714C59.6286 87.2269 63.3126 83.5429 67.8571 83.5429C72.4017 83.5429 76.0857 87.2269 76.0857 91.7714Z" fill="black"/>
</svg>
