<svg width="131" height="136" viewBox="0 0 131 136" fill="none" xmlns="http://www.w3.org/2000/svg">
<path d="M105.189 97.0771C99.8871 109.006 87.7571 117.066 76.5227 117.853C65.2776 118.621 53.7897 113.662 42.8762 100.901C31.9627 88.14 27.0509 92.5981 21.0882 80.2232C15.1255 67.8483 20.6305 58.3196 31.532 49.8638C42.4335 41.4081 55.1076 37.2596 68.068 38.5961C81.0283 39.9326 94.2748 46.754 101.633 58.0558C109.002 69.3761 110.508 85.1377 105.189 97.0771Z" fill="#C6F9EC"/>
<path d="M88.9492 61.1382L43.0508 61.1382C42.4648 61.1382 41.9766 61.3335 41.5859 61.7241C41.1953 62.1147 41 62.603 41 63.189L41 88.189C41 88.84 41.1953 89.3608 41.5859 89.7515C41.9766 90.1421 42.4648 90.3374 43.0508 90.3374L88.9492 90.3374C89.5352 90.3374 90.0234 90.1421 90.4141 89.7515C90.8047 89.3608 91 88.84 91 88.189L91 63.189C91 62.603 90.8047 62.1147 90.4141 61.7241C90.0234 61.3335 89.5352 61.1382 88.9492 61.1382ZM45.1992 65.3374L47.25 65.3374C47.25 65.9233 47.0547 66.4116 46.6641 66.8022C46.2734 67.1929 45.7852 67.3882 45.1992 67.3882L45.1992 65.3374ZM45.1992 86.1382L45.1992 84.0874C46.5664 84.0874 47.25 84.771 47.25 86.1382L45.1992 86.1382ZM58.6758 86.1382L51.4492 86.1382C51.4492 84.3804 50.847 82.8993 49.6426 81.6948C48.4382 80.4904 46.957 79.8882 45.1992 79.8882L45.1992 71.5874C46.957 71.5874 48.4382 70.9852 49.6426 69.7808C50.847 68.5763 51.4492 67.0952 51.4492 65.3374L58.6758 65.3374C56.5924 68.2671 55.5508 71.7176 55.5508 75.689C55.5508 79.5952 56.5924 83.0783 58.6758 86.1382ZM66 86.1382C64.3073 86.1382 62.8424 85.0965 61.6055 83.0132C60.3685 80.9298 59.75 78.4884 59.75 75.689C59.75 72.8895 60.3685 70.4644 61.6055 68.4136C62.8424 66.3628 64.3073 65.3374 66 65.3374C67.6927 65.3374 69.1576 66.3628 70.3945 68.4136C71.6315 70.4644 72.25 72.8895 72.25 75.689C72.25 78.5535 71.6478 81.0112 70.4434 83.062C69.2389 85.1128 67.7578 86.1382 66 86.1382ZM86.8008 86.1382L84.75 86.1382C84.75 84.771 85.4336 84.0874 86.8008 84.0874L86.8008 86.1382ZM86.8008 79.8882C85.043 79.8882 83.5618 80.4904 82.3574 81.6948C81.153 82.8993 80.5508 84.3804 80.5508 86.1382L73.5195 86.1382C75.6029 83.0783 76.6445 79.5952 76.6445 75.689C76.6445 71.7176 75.6029 68.2671 73.5195 65.3374L80.5508 65.3374C80.5508 67.0952 81.153 68.5763 82.3574 69.7808C83.5618 70.9852 85.043 71.5874 86.8008 71.5874L86.8008 79.8882ZM86.8008 67.3882C86.2148 67.3882 85.7266 67.1929 85.3359 66.8022C84.9453 66.4116 84.75 65.9233 84.75 65.3374L86.8008 65.3374L86.8008 67.3882ZM86.8008 96.5874L75.1797 96.5874C76.026 95.4155 76.4492 94.0158 76.4492 92.3882L72.25 92.3882C72.25 92.5184 72.2337 92.6812 72.2012 92.8765C72.1686 93.0718 72.0384 93.4136 71.8105 93.9019C71.5827 94.3901 71.2734 94.8133 70.8828 95.1714C70.4922 95.5295 69.8737 95.855 69.0273 96.1479C68.181 96.4409 67.1719 96.5874 66 96.5874C64.2422 96.5874 62.8424 96.2456 61.8008 95.562C60.7591 94.8784 60.1569 94.2762 59.9941 93.7554C59.8314 93.2345 59.75 92.7788 59.75 92.3882L55.5508 92.3882C55.5508 93.6252 55.974 95.0249 56.8203 96.5874L45.1992 96.5874L45.1992 92.3882L41 92.3882L41 96.5874C41 97.6942 41.4069 98.6545 42.2207 99.4683C43.0345 100.282 44.0273 100.689 45.1992 100.689L86.8008 100.689C87.9727 100.689 88.9655 100.282 89.7793 99.4683C90.5931 98.6545 91 97.6942 91 96.5874L91 92.3882L86.8008 92.3882L86.8008 96.5874ZM86.8008 106.939L75.1797 106.939C76.026 105.767 76.4492 104.4 76.4492 102.837L72.25 102.837C72.25 103.228 72.1849 103.651 72.0547 104.107C71.9245 104.563 71.3548 105.149 70.3457 105.865C69.3366 106.581 67.888 106.939 66 106.939C64.2422 106.939 62.8424 106.613 61.8008 105.962C60.7591 105.311 60.1569 104.725 59.9941 104.205C59.8314 103.684 59.75 103.228 59.75 102.837L55.5508 102.837C55.5508 104.009 55.974 105.376 56.8203 106.939L45.1992 106.939L45.1992 102.837L41 102.837L41 106.939C41 108.111 41.4069 109.104 42.2207 109.917C43.0345 110.731 44.0273 111.138 45.1992 111.138L86.8008 111.138C87.9727 111.138 88.9655 110.731 89.7793 109.917C90.5931 109.104 91 108.111 91 106.939L91 102.837L86.8008 102.837L86.8008 106.939Z" fill="black"/>
<path fill-rule="evenodd" clip-rule="evenodd" d="M53.4316 37.9692C53.5982 37.8044 53.7961 37.6736 54.014 37.5844C54.2318 37.4951 54.4654 37.4492 54.7013 37.4492C54.9372 37.4492 55.1707 37.4951 55.3886 37.5844C55.6065 37.6736 55.8044 37.8044 55.971 37.9692L65.4611 47.3391L74.9513 37.9692C75.288 37.6369 75.7447 37.4501 76.2209 37.4501C76.6971 37.4501 77.1539 37.6369 77.4906 37.9692C77.8273 38.3015 78.0165 38.7523 78.0165 39.2223C78.0165 39.6923 77.8273 40.143 77.4906 40.4754L66.7308 51.0948C66.5642 51.2597 66.3663 51.3904 66.1484 51.4796C65.9306 51.5689 65.697 51.6148 65.4611 51.6148C65.2252 51.6148 64.9917 51.5689 64.7738 51.4796C64.5559 51.3904 64.358 51.2597 64.1915 51.0948L53.4316 40.4754C53.2646 40.311 53.1321 40.1157 53.0417 39.9006C52.9513 39.6856 52.9048 39.4551 52.9048 39.2223C52.9048 38.9895 52.9513 38.759 53.0417 38.5439C53.1321 38.3289 53.2646 38.1336 53.4316 37.9692Z" fill="black"/>
<path fill-rule="evenodd" clip-rule="evenodd" d="M65.4598 21.8525C65.9354 21.8525 66.3916 22.039 66.7279 22.3709C67.0642 22.7029 67.2531 23.153 67.2531 23.6224L67.2531 46.3015C67.2531 46.7709 67.0642 47.2211 66.7279 47.553C66.3916 47.8849 65.9354 48.0714 65.4598 48.0714C64.9842 48.0714 64.5281 47.8849 64.1918 47.553C63.8554 47.2211 63.6665 46.7709 63.6665 46.3015L63.6665 23.6224C63.6665 23.153 63.8554 22.7029 64.1918 22.3709C64.5281 22.039 64.9842 21.8525 65.4598 21.8525Z" fill="black"/>
</svg>
