<svg width="113" height="107" viewBox="0 0 113 107" fill="none" xmlns="http://www.w3.org/2000/svg">
<path d="M104.071 21.777C114.281 35.721 115.497 54.9212 108.935 68.2933C102.345 81.6653 89.0002 91.5322 67.054 95.5887C45.1077 99.6452 46.9754 108.209 28.7647 106.857C10.554 105.505 3.24283 92.9131 0.753949 74.8567C-1.73493 56.8004 1.91354 39.561 12.067 25.617C22.2205 11.673 38.8791 1.02442 56.782 0.0712178C74.7132 -0.881984 93.8607 7.80577 104.071 21.777Z" fill="#02CE9D" fill-opacity="0.3"/>
<path d="M84.0188 59.4445C90.6233 59.4445 95.9357 54.1605 95.9357 47.65C95.9357 41.1394 90.6233 35.8554 84.0188 35.8554C77.4143 35.8554 72.0541 41.1394 72.0541 47.65C72.0541 54.1605 77.4143 59.4445 84.0188 59.4445ZM48.1247 54.7267C56.0693 54.7267 62.4345 48.4048 62.4345 40.5732C62.4345 32.7417 56.0693 26.4198 48.1247 26.4198C40.1801 26.4198 33.7671 32.7417 33.7671 40.5732C33.7671 48.4048 40.1801 54.7267 48.1247 54.7267ZM84.0188 68.8801C75.2607 68.8801 57.6965 73.2205 57.6965 81.8541V92.4692H110.341V81.8541C110.341 73.2205 92.777 68.8801 84.0188 68.8801ZM48.1247 64.1623C36.9736 64.1623 14.6235 69.6821 14.6235 80.6746V92.4692H48.1247V81.8541C48.1247 77.844 49.7041 70.8144 59.4673 65.4833C55.3035 64.6341 51.2834 64.1623 48.1247 64.1623Z" fill="black"/>
</svg>
