<svg width="129" height="129" viewBox="0 0 129 129" fill="none" xmlns="http://www.w3.org/2000/svg">
<path d="M110.998 73.738C108.767 87.8848 98.2009 99.8702 86.5189 103.894C74.8205 107.902 61.2385 105.909 46.0496 95.4841C30.8607 85.0598 26.9214 91.1789 17.0887 79.758C7.25598 68.3371 10.3842 56.6762 19.5357 44.6199C28.6872 32.5637 40.9404 24.5686 55.0542 22.3048C69.1681 20.041 85.1427 23.5084 96.1496 33.3958C107.173 43.2997 113.244 59.5751 110.998 73.738Z" fill="#02CE9D" fill-opacity="0.3"/>
<path d="M96.209 46.5288L91.4853 45.3137L95.6943 75.2732L101.014 54.7059C101.935 51.1406 99.7766 47.4663 96.209 46.5288ZM33.2069 67.9387L55.2522 105.345C56.6311 107.69 59.2712 108.893 61.8177 108.586C62.6998 108.479 63.5727 108.187 64.4035 107.715L87.43 94.1554C89.7751 92.7765 90.964 90.1553 90.6736 87.6064C90.5643 86.7078 90.289 85.8325 89.8003 85.0041L67.7715 47.5958C66.3714 45.2198 63.717 44.0356 61.123 44.3661C60.2599 44.4874 59.4178 44.758 58.6203 45.2255L35.5938 58.7851C32.4202 60.6527 31.3393 64.7652 33.2069 67.9387ZM85.0606 47.7734C84.5476 44.1219 81.1403 41.5539 77.4887 42.0669L72.6587 42.7455L88.0174 68.8198L85.0606 47.7734Z" fill="black"/>
</svg>
