<svg width="100" height="75" fill="none" xmlns="http://www.w3.org/2000/svg"><g clip-path="url(#clip0)"><path fill-rule="evenodd" clip-rule="evenodd" d="M50.902 72.278c-12.812.246-27.346 7.166-36.482-2.06-9.697-9.792-8.31-26.064-4.7-39.528C13.111 18.036 20.892 6.52 32.786 1.715c11.053-4.466 22.785.57 33.327 6.19 10.015 5.34 18.992 12.587 22.531 23.59 4.014 12.48 5.887 27.83-2.93 37.357-8.45 9.13-22.55 3.191-34.813 3.426z" fill="#C2C2FF"/><path d="M70.878 7.865l-3.783-.976 5.384 21.951 2.242-14.464c.18-3.156-.98-5.764-3.843-6.51zM30.926 22.828L48.58 52.633c1.101 1.871 3.223 2.827 5.264 2.588.701-.09 1.402-.318 2.072-.697l18.455-10.8c1.881-1.096 2.832-3.186 2.592-5.217-.09-.717-.3-1.424-.7-2.08L58.607 6.62c-1.12-1.902-3.242-2.837-5.324-2.579-.69.1-1.361.309-2.002.687L32.828 15.54c-2.532 1.474-3.403 4.759-1.902 7.288zM67.556 8.74c-.411-2.907-3.143-4.957-6.066-4.54l-3.873.538L72.67 30.144 67.555 8.742z" fill="#fff" stroke="#000" stroke-width="3" stroke-miterlimit="10" stroke-linecap="round" stroke-linejoin="round"/><path d="M36.862 51.946c8.208 0 14.861-6.619 14.861-14.783 0-8.165-6.653-14.784-14.861-14.784C28.654 22.38 22 29 22 37.163c0 8.164 6.654 14.783 14.862 14.783z" fill="#89DDEF"/><path d="M36.862 48.601c6.395 0 11.579-5.157 11.579-11.518 0-6.361-5.184-11.518-11.58-11.518-6.394 0-11.578 5.157-11.578 11.518 0 6.361 5.184 11.518 11.579 11.518z" fill="#89DDEF"/><path d="M36.812 45.216c4.515 0 8.176-3.641 8.176-8.133 0-4.492-3.66-8.133-8.176-8.133s-8.177 3.641-8.177 8.133c0 4.492 3.66 8.133 8.177 8.133z" fill="#89DDEF"/><path d="M51.724 37.163c0 8.164-6.654 14.783-14.862 14.783S22 45.327 22 37.163c0-8.165 6.654-14.784 14.862-14.784m14.861 14.784c0-8.165-6.653-14.784-14.861-14.784m14.861 14.784h-3.212M36.86 22.379v3.196M25.284 37.083c0 6.361 5.184 11.518 11.579 11.518 6.395 0 11.579-5.157 11.579-11.518 0-6.361-5.184-11.518-11.58-11.518-6.394 0-11.578 5.157-11.578 11.518zm0 0H22m7.276-12.633l1.44 2.449m-6.464 2.439l2.642 1.901m22.748-1.622L47.18 31.04m-2.452-6.42l-1.541 2.12m1.29 22.906l-1.43-2.449m6.455-2.439l-2.132-1.533m-10.478 8.71V48.75m-7.036 1.155l1.411-2.459m-7.215-2.907l2.782-1.602m18.154-5.854c0 4.492-3.66 8.133-8.176 8.133s-8.177-3.641-8.177-8.133c0-4.492 3.66-8.133 8.177-8.133 4.515 0 8.176 3.641 8.176 8.133z" stroke="#000" stroke-width="2.337" stroke-miterlimit="10" stroke-linecap="round" stroke-linejoin="round"/><path d="M59.95 63.205c8.207 0 14.861-6.618 14.861-14.783S68.157 33.639 59.95 33.639c-8.208 0-14.862 6.618-14.862 14.783s6.654 14.783 14.862 14.783z" fill="#C2C2FF"/><path d="M59.95 59.87c6.395 0 11.579-5.157 11.579-11.518 0-6.361-5.184-11.518-11.58-11.518-6.394 0-11.578 5.157-11.578 11.518 0 6.361 5.184 11.518 11.579 11.518z" fill="#C2C2FF"/><path d="M59.9 56.486c4.515 0 8.176-3.642 8.176-8.134 0-4.492-3.66-8.133-8.176-8.133s-8.177 3.641-8.177 8.133c0 4.492 3.66 8.134 8.177 8.134z" fill="#C2C2FF"/><path d="M74.811 48.422c0 8.165-6.654 14.783-14.861 14.783-8.208 0-14.862-6.618-14.862-14.783s6.654-14.783 14.862-14.783M74.81 48.422c0-8.165-6.654-14.783-14.861-14.783M74.81 48.422H71.6m-11.65-14.783v3.195m0 0c-6.394 0-11.578 5.157-11.578 11.518 0 6.361 5.184 11.518 11.579 11.518 6.395 0 11.579-5.157 11.579-11.518 0-6.361-5.184-11.518-11.58-11.518zm-7.575-1.125l1.43 2.45m-6.454 2.438l2.632 1.902m-1.602 5.853h-3.282m27.632-7.476l-2.462 1.434m-2.442-6.431l-1.551 2.12m1.29 22.916l-1.43-2.448m6.455-2.44l-2.132-1.532m-10.478 8.71V60.01m-7.026 1.164l1.401-2.468m-7.205-2.907l2.772-1.603m18.154-5.844c0 4.492-3.66 8.134-8.176 8.134s-8.177-3.642-8.177-8.134c0-4.492 3.66-8.133 8.177-8.133 4.515 0 8.176 3.641 8.176 8.133z" stroke="#000" stroke-width="2.337" stroke-miterlimit="10" stroke-linecap="round" stroke-linejoin="round"/><path d="M44.408 71c9.048 0 16.383-7.296 16.383-16.296s-7.335-16.297-16.383-16.297c-9.048 0-16.383 7.296-16.383 16.297 0 9 7.335 16.296 16.383 16.296z" fill="#FFD29C" stroke="#000" stroke-width="3" stroke-miterlimit="10" stroke-linecap="round" stroke-linejoin="round"/><path d="M44.408 41.931c-7.047 0-12.76 5.683-12.76 12.693s5.713 12.693 12.76 12.693 12.76-5.683 12.76-12.693-5.712-12.693-12.76-12.693zm0 0v-3.514m-8.366 2.28l1.58 2.698m-7.115 2.688l2.913 2.1m-1.782 6.441h-3.613m30.464-8.233l-2.712 1.573m-2.702-7.078l-1.701 2.33m9.407 11.488h-3.533m-4.453 13.768l-1.581-2.698m7.125-2.688l-2.352-1.693M44.438 71v-3.514m-7.756 1.274l1.551-2.718m-7.946-3.205l3.053-1.762" stroke="#000" stroke-width="2.337" stroke-miterlimit="10" stroke-linecap="round" stroke-linejoin="round"/><path d="M49.502 57.222c0-2.698-2.031-3.474-4.223-3.912l-1.161-.22c-1.721-.318-1.852-.786-1.852-1.413 0-.816.781-1.294 2.092-1.294 1.551 0 1.952.727 2.112 1.274l.02.05c.19.478.65.767 1.21.767.15 0 .281-.02.381-.04.61-.11 1.031-.568 1.031-1.105 0-.13-.03-.269-.08-.388-.31-.936-1.181-2.41-3.603-2.748V46.59c0-1.344-2.232-1.344-2.232 0v1.613c-2.602.378-3.553 2.04-3.553 3.484 0 2.628 1.952 3.365 3.864 3.733l1.26.25c1.792.338 2.112.776 2.112 1.572 0 .966-.87 1.553-2.342 1.553-1.901 0-2.291-.806-2.552-1.702-.15-.498-.63-.817-1.23-.817-.13 0-.23.02-.36.04l-.04.01c-.611.14-1.032.588-1.032 1.125 0 .1.02.19.03.259l.02.08c.28.876.891 2.787 3.923 3.215v1.682c0 .668.56 1.026 1.121 1.026.56 0 1.121-.349 1.121-1.026v-1.652c2.402-.319 3.963-1.772 3.963-3.813z" fill="#000"/></g><defs><clipPath id="clip0"><path fill="#fff" d="M0 0h100v75H0z"/></clipPath></defs></svg>
