<svg width="85" height="81" viewBox="0 0 85 81" fill="none" xmlns="http://www.w3.org/2000/svg">
<path d="M78.2833 16.4854C85.9634 27.0411 86.8782 41.5759 81.9425 51.6986C76.9855 61.8214 66.9471 69.2907 50.4388 72.3615C33.9306 75.4323 35.3355 81.9152 21.6372 80.8916C7.93882 79.868 2.4393 70.3361 0.56713 56.6672C-1.30504 42.9984 1.43939 29.9481 9.07697 19.3923C16.7146 8.83661 29.2453 0.775496 42.7121 0.0539126C56.2002 -0.66767 70.6031 5.90904 78.2833 16.4854Z" fill="#02CE9D" fill-opacity="0.3"/>
<path d="M70.4794 39L83.9743 25.4984C85.2967 24.1754 85.2967 22.0382 83.9743 20.7151L69.2588 5.99227C67.9364 4.66924 65.8003 4.66924 64.4779 5.99227L50.983 19.4939L37.4882 5.99227C36.81 5.34772 35.9624 5.00848 35.0808 5.00848C34.2331 5.00848 33.3515 5.34772 32.7073 5.99227L17.9918 20.7151C16.6694 22.0382 16.6694 24.1754 17.9918 25.4984L31.4867 39L17.9918 52.5016C16.6694 53.8246 16.6694 55.9618 17.9918 57.2849L32.7073 72.0077C34.0297 73.3308 36.1658 73.3308 37.4882 72.0077L50.983 58.5061L64.4779 72.0077C65.1561 72.6862 66.0037 72.9915 66.8853 72.9915C67.7669 72.9915 68.6146 72.6523 69.2927 72.0077L84.0082 57.2849C85.3306 55.9618 85.3306 53.8246 84.0082 52.5016L70.4794 39ZM51.0509 28.7551C52.9157 28.7551 54.4415 30.2816 54.4415 32.1474C54.4415 34.0132 52.9157 35.5398 51.0509 35.5398C49.186 35.5398 47.6602 34.0132 47.6602 32.1474C47.6602 30.2816 49.186 28.7551 51.0509 28.7551ZM35.0808 35.4041L22.7726 23.1237L35.0808 10.8094L47.355 23.0898L35.0808 35.4041ZM44.2695 42.3245C42.4046 42.3245 40.8788 40.798 40.8788 38.9322C40.8788 37.0663 42.4046 35.5398 44.2695 35.5398C46.1344 35.5398 47.6602 37.0663 47.6602 38.9322C47.6602 40.798 46.1344 42.3245 44.2695 42.3245ZM51.0509 49.1093C49.186 49.1093 47.6602 47.5827 47.6602 45.7169C47.6602 43.8511 49.186 42.3245 51.0509 42.3245C52.9157 42.3245 54.4415 43.8511 54.4415 45.7169C54.4415 47.5827 52.9157 49.1093 51.0509 49.1093ZM57.8322 35.5398C59.6971 35.5398 61.2229 37.0663 61.2229 38.9322C61.2229 40.798 59.6971 42.3245 57.8322 42.3245C55.9673 42.3245 54.4415 40.798 54.4415 38.9322C54.4415 37.0663 55.9673 35.5398 57.8322 35.5398ZM66.8514 67.2245L54.5433 54.9441L66.8514 42.6298L79.1257 54.9102L66.8514 67.2245Z" fill="black"/>
</svg>
