<svg width="85" height="81" viewBox="0 0 85 81" fill="none" xmlns="http://www.w3.org/2000/svg">
<path d="M78.2833 16.4854C85.9634 27.0411 86.8782 41.5759 81.9425 51.6986C76.9855 61.8214 66.9471 69.2907 50.4388 72.3615C33.9306 75.4323 35.3355 81.9152 21.6372 80.8916C7.93882 79.868 2.4393 70.3361 0.56713 56.6672C-1.30504 42.9984 1.43939 29.9481 9.07697 19.3923C16.7146 8.83661 29.2453 0.775496 42.7121 0.0539126C56.2002 -0.66767 70.6031 5.90904 78.2833 16.4854Z" fill="#02CE9D" fill-opacity="0.3"/>
<path d="M55.6364 41.1389C58.0212 41.1389 59.9545 39.2112 59.9545 36.8333C59.9545 34.4554 58.0212 32.5278 55.6364 32.5278C53.2515 32.5278 51.3182 34.4554 51.3182 36.8333C51.3182 39.2112 53.2515 41.1389 55.6364 41.1389Z" fill="black"/>
<path d="M38.3636 41.1389C40.7485 41.1389 42.6818 39.2112 42.6818 36.8333C42.6818 34.4554 40.7485 32.5278 38.3636 32.5278C35.9788 32.5278 34.0455 34.4554 34.0455 36.8333C34.0455 39.2112 35.9788 41.1389 38.3636 41.1389Z" fill="black"/>
<path d="M84.81 44.2906C84.9309 43.55 85 42.775 85 42C85 41.225 84.9309 40.45 84.81 39.7094C83.9291 34.5083 80.1118 30.2889 75.12 28.7906C73.3064 24.95 70.6982 21.54 67.5373 18.7672C62.0618 13.945 54.8764 11 47 11C39.1236 11 31.9382 13.945 26.4627 18.7672C23.3018 21.5572 20.7109 24.95 18.88 28.7906C13.8882 30.2717 10.0709 34.4911 9.19 39.7094C9.06909 40.45 9 41.225 9 42C9 42.775 9.06909 43.55 9.19 44.2906C10.0709 49.4917 13.8882 53.7111 18.88 55.2094C20.6764 59.0156 23.25 62.3911 26.3764 65.1639C31.8691 70.0206 39.0718 73 47 73C54.9282 73 62.1309 70.0206 67.6236 65.1639C70.75 62.3911 73.3236 59.0156 75.12 55.2094C80.1118 53.7111 83.9291 49.4917 84.81 44.2906ZM71.1818 48.8889C70.8364 48.8889 70.5082 48.8372 70.1973 48.7856C69.5236 51.0761 68.5045 53.2289 67.2264 55.1922C62.8909 61.7539 55.4464 66.1111 47 66.1111C38.5536 66.1111 31.1091 61.7539 26.7909 55.1922C25.4955 53.2289 24.4936 51.0761 23.82 48.7856C23.4918 48.8372 23.1636 48.8889 22.8182 48.8889C19.0182 48.8889 15.9091 45.7889 15.9091 42C15.9091 38.2111 19.0182 35.1111 22.8182 35.1111C23.1636 35.1111 23.4918 35.1628 23.8027 35.2144C24.4764 32.9239 25.4955 30.7711 26.7736 28.8078C31.1091 22.2461 38.5536 17.8889 47 17.8889C55.4464 17.8889 62.8909 22.2461 67.2091 28.8078C68.5045 30.7711 69.5064 32.9239 70.18 35.2144C70.5082 35.1628 70.8364 35.1111 71.1818 35.1111C74.9818 35.1111 78.0909 38.2111 78.0909 42C78.0909 45.7889 74.9818 48.8889 71.1818 48.8889ZM31.4545 48.8889C34.08 54.9683 40.0391 59.2222 47 59.2222C53.9609 59.2222 59.92 54.9683 62.5455 48.8889H31.4545Z" fill="black"/>
</svg>
