<svg width="100" height="75" viewBox="0 0 100 75" fill="none" xmlns="http://www.w3.org/2000/svg">
<path fill-rule="evenodd" clip-rule="evenodd" d="M72.4415 11.7148C80.2493 18.2041 88.5086 24.7914 90.5252 34.6996C92.9627 46.6757 93.3068 61.1771 84.1869 69.423C75.1852 77.5618 61.3298 72.4366 49.1665 72.094C37.6208 71.7687 24.6481 75.2605 16.1656 67.5068C7.53254 59.6155 7.49682 46.4187 8.35949 34.7933C9.14995 24.1409 12.4715 13.3939 20.6943 6.4764C28.4164 -0.0199177 39.1883 -0.624683 49.2497 0.393839C58.1672 1.29656 65.5784 6.01058 72.4415 11.7148Z" fill="#FFD29C"/>
<path d="M21.1697 2L15 39.4943L77.0748 49.6959L83.2445 12.2016L21.1697 2Z" fill="#C6F9EC" stroke="black" stroke-width="3" stroke-miterlimit="10" stroke-linecap="round" stroke-linejoin="round"/>
<path d="M39.0273 23.6784C38.1356 29.1001 41.8311 34.233 47.2537 35.1232C49.8405 35.5483 52.4353 34.9548 54.5722 33.463C54.6123 33.439 54.6445 33.4149 54.6847 33.3828C56.8457 31.8349 58.2755 29.5331 58.7093 26.9106C59.1432 24.288 58.5246 21.6493 56.9661 19.4919C55.4076 17.3265 53.11 15.8989 50.4831 15.4658C45.0605 14.5675 39.919 18.2568 39.0273 23.6784ZM57.5124 26.71C57.1348 29.0199 55.8736 31.0409 53.9777 32.4044C52.0577 33.7678 49.7521 34.3132 47.4465 33.9282C42.6746 33.1422 39.4371 28.6349 40.2163 23.8709C40.618 21.4488 41.9756 19.4197 43.8474 18.1124C45.6549 16.8533 47.9364 16.2678 50.2822 16.6528C52.5959 17.0297 54.6204 18.2889 55.9861 20.1816C57.3518 22.0904 57.898 24.4083 57.5124 26.71Z" fill="black" stroke="black" stroke-miterlimit="10"/>
<path d="M79.1386 14.6397L29.5238 6.48321C29.4916 6.47519 29.4515 6.46717 29.4193 6.46717L24.2779 5.61703C23.9485 5.56891 23.6432 5.78546 23.587 6.11428L18.6143 36.3583C18.5902 36.5187 18.6304 36.6791 18.7187 36.8075C18.8071 36.9358 18.9517 37.024 19.1124 37.0561L73.973 46.0707C74.1257 46.0948 74.2864 46.0627 74.4149 45.9745C74.4149 45.9745 74.4149 45.9745 74.423 45.9665C74.5515 45.8783 74.6399 45.7339 74.672 45.5735L79.6447 15.3295C79.6929 15.0006 79.468 14.6878 79.1386 14.6397ZM24.6795 6.90828L29.0257 7.62207C29.4274 8.27973 29.58 9.04164 29.4515 9.81158C29.3149 10.6617 28.849 11.4076 28.1501 11.9048C28.142 11.9129 28.1259 11.9209 28.1179 11.9289C26.8245 12.8272 25.0331 12.6587 23.9405 11.5119L23.9325 11.5038L24.6795 6.90828ZM19.8996 35.9653L20.6628 31.3136C22.0928 30.4795 23.9244 30.8645 24.8965 32.2199C25.4026 32.9177 25.6035 33.7758 25.4589 34.6179C25.3223 35.444 24.8804 36.1658 24.2136 36.6711L19.8996 35.9653ZM73.5634 44.7875L69.2092 44.0737C69.1932 44.0256 69.1771 43.9695 69.145 43.9294C68.6389 43.2316 68.438 42.3734 68.5826 41.5313C68.7192 40.6812 69.1851 39.9353 69.884 39.4381C70.5829 38.9408 71.4425 38.7323 72.286 38.8767C73.1054 39.013 73.8285 39.4461 74.3266 40.1118L73.5634 44.7875ZM74.5755 38.62C73.9811 38.1308 73.2661 37.802 72.4869 37.6736C71.3381 37.4811 70.1813 37.7458 69.2253 38.4115C69.2092 38.4195 69.1931 38.4355 69.1771 38.4436C68.213 39.1333 67.5784 40.1599 67.3856 41.3228C67.249 42.181 67.3535 43.0391 67.6989 43.8171L25.6918 36.9117C26.937 35.3959 27.0735 33.1743 25.8765 31.5061C24.7197 29.8941 22.6873 29.2845 20.8878 29.878L23.6834 12.8913C25.1776 13.95 27.2422 13.9981 28.7927 12.9154C28.8087 12.9074 28.8249 12.8913 28.8409 12.8833C29.8049 12.1936 30.4396 11.167 30.6324 10.0041C30.7529 9.26621 30.6886 8.53637 30.4557 7.85466L72.8082 14.8162C71.563 16.324 71.4345 18.5455 72.6315 20.2057C73.716 21.7055 75.5958 22.3551 77.315 21.914L74.5755 38.62ZM77.548 20.5827C76.1662 21.1922 74.5194 20.7671 73.6196 19.516C72.5994 18.0964 72.9046 16.1154 74.2944 15.0728L78.3433 15.7385L77.548 20.5827Z" fill="black" stroke="black" stroke-miterlimit="10"/>
<path d="M18.2299 17.3906L18.1816 44.2502L85.9522 44.3464L86.0004 17.4869L18.2299 17.3906Z" fill="white" stroke="black" stroke-width="3" stroke-miterlimit="10" stroke-linecap="round" stroke-linejoin="round"/>
<path d="M25.3145 26.9746H51.9375" stroke="black" stroke-width="3" stroke-miterlimit="10" stroke-linecap="round" stroke-linejoin="round"/>
<path d="M25.3145 33.9604H61.3286" stroke="black" stroke-width="3" stroke-miterlimit="10" stroke-linecap="round" stroke-linejoin="round"/>
<path d="M79.8297 32.6127C79.8297 30.8001 78.4721 30.2788 77.01 29.9901L76.2307 29.8457C75.082 29.6292 74.9936 29.3164 74.9936 28.8994C74.9936 28.354 75.5157 28.0252 76.3914 28.0252C77.4277 28.0252 77.6928 28.5144 77.8053 28.8833L77.8133 28.9154C77.9419 29.2362 78.2471 29.4287 78.6247 29.4287C78.7211 29.4287 78.8095 29.4127 78.8738 29.4046C79.2755 29.3325 79.5647 29.0277 79.5647 28.6668C79.5647 28.5786 79.5486 28.4903 79.5164 28.4021C79.3075 27.7765 78.7211 26.782 77.1064 26.5575V25.4828C77.1064 24.5845 75.6122 24.5845 75.6122 25.4828V26.5655C73.8769 26.8221 73.2343 27.9369 73.2343 28.9074C73.2343 30.6718 74.5357 31.1611 75.813 31.4097L76.6565 31.5781C77.8535 31.8107 78.0624 32.0994 78.0624 32.6368C78.0624 33.2864 77.4759 33.6794 76.4958 33.6794C75.2265 33.6794 74.9614 33.142 74.7927 32.5325C74.6883 32.1957 74.3669 31.9791 73.9733 31.9791C73.8849 31.9791 73.8207 31.9871 73.7323 32.0032L73.7082 32.0112C73.2985 32.0994 73.0254 32.4042 73.0254 32.7651C73.0254 32.8373 73.0415 32.8934 73.0495 32.9415L73.0656 32.9977C73.2504 33.5831 73.66 34.8664 75.6925 35.1551V36.2859C75.6925 36.7351 76.0701 36.9677 76.4396 36.9677C76.8092 36.9677 77.1867 36.7351 77.1867 36.2859V35.1792C78.7853 34.9626 79.8297 33.9922 79.8297 32.6127Z" fill="#3D3DE1"/>
<path d="M41.5288 72.4964V62.084C37.3669 62.084 34 58.6999 34 54.5349V33.2138C34 30.8873 35.8822 29 38.2025 29C40.5228 29 42.405 30.8873 42.405 33.2138V46.2131" fill="white"/>
<path d="M42.405 43.9649L65.1535 47.8451C65.1535 56.0046 63.6535 62.084 57.2841 62.084V72.4964H41.5288" fill="white"/>
<path d="M41.5288 72.4964V62.084C37.3669 62.084 34 58.6999 34 54.5349V33.2138C34 30.8873 35.8822 29 38.2025 29C40.5228 29 42.405 30.8873 42.405 33.2138V46.2131" fill="white"/>
<path d="M41.5288 72.4964V62.084C37.3669 62.084 34 58.6999 34 54.5349V33.2138C34 30.8873 35.8822 29 38.2025 29C40.5228 29 42.405 30.8873 42.405 33.2138V46.2131M42.405 43.9649L65.1535 47.8451C65.1535 56.0046 63.6535 62.084 57.2841 62.084V72.4964" stroke="black" stroke-width="3" stroke-miterlimit="10" stroke-linecap="round" stroke-linejoin="round"/>
</svg>
