<svg width="100" height="75" fill="none" xmlns="http://www.w3.org/2000/svg"><path fill-rule="evenodd" clip-rule="evenodd" d="M67.032 64.016c-6.077 5.024-14.276 5.513-22.059 6.863-7.942 1.378-16.01 3.879-23.582 1.053-8.068-3.01-15.17-9.027-18.766-16.854C-.897 47.41.652 38.675 2.33 30.431c1.603-7.886 3.758-16.008 9.67-21.449C17.788 3.653 25.96 2.38 33.794 1.47 41.34.595 49.003.703 55.923 3.887c7.131 3.281 12.924 8.798 16.927 15.552 4.208 7.1 7.188 15.178 6.124 23.336-1.08 8.27-5.526 15.938-11.942 21.241z" fill="#89DDEF"/><path d="M12.326 2.013l-6.23 38.03L68.785 50.39l6.23-38.03L12.327 2.013z" fill="#C6F9EC" stroke="#000" stroke-width="3" stroke-miterlimit="10" stroke-linecap="round" stroke-linejoin="round"/><path d="M49.03 27.076a8.834 8.834 0 01-3.57 5.775c-1.94 1.383-4.268 1.936-6.596 1.546-4.82-.797-8.089-5.369-7.302-10.201a8.876 8.876 0 013.667-5.84 8.802 8.802 0 016.499-1.481 8.804 8.804 0 015.76 3.579 8.839 8.839 0 011.541 6.622z" stroke="#000" stroke-width="3" stroke-miterlimit="10"/><path d="M70.87 14.833L20.765 6.56a.473.473 0 00-.106-.016l-5.192-.862a.612.612 0 00-.698.504L9.747 36.862a.64.64 0 00.106.456c.089.13.235.22.397.252l55.404 9.143a.619.619 0 00.446-.097l.008-.009a.633.633 0 00.252-.398l5.022-30.676c.04-.334-.179-.651-.512-.7zM15.864 6.991l4.39.724c.405.667.56 1.44.43 2.221a3.222 3.222 0 01-1.315 2.123c-.008.008-.024.017-.032.025a3.266 3.266 0 01-4.219-.423l-.008-.008.754-4.662zm-4.827 29.472l.77-4.718a3.236 3.236 0 014.276.92c.512.707.714 1.578.568 2.432a3.266 3.266 0 01-1.257 2.082l-4.357-.716zm54.203 8.949l-4.397-.724c-.017-.05-.033-.106-.065-.147a3.215 3.215 0 01-.568-2.432 3.222 3.222 0 011.314-2.123 3.228 3.228 0 012.426-.57 3.208 3.208 0 012.06 1.253l-.77 4.743zm1.022-6.256a4.439 4.439 0 00-2.11-.96 4.431 4.431 0 00-3.293.748c-.016.009-.032.025-.049.033a4.471 4.471 0 00-1.809 2.92c-.138.87-.032 1.741.317 2.53l-42.423-7.004c1.257-1.537 1.395-3.79.186-5.483a4.461 4.461 0 00-5.038-1.65l2.824-17.23c1.508 1.074 3.594 1.122 5.16.024.016-.008.032-.024.048-.032a4.472 4.472 0 001.81-2.92 4.492 4.492 0 00-.18-2.18l42.772 7.06a4.5 4.5 0 00-.178 5.467 4.475 4.475 0 004.73 1.732l-2.767 16.945zm2.994-18.295a3.244 3.244 0 01-3.96-1.082 3.273 3.273 0 01.682-4.507l4.09.676-.812 4.913z" fill="#000" stroke="#000" stroke-miterlimit="10"/><path d="M32.472 73.005V62.592c-4.162 0-7.529-3.384-7.529-7.549v-21.32a4.21 4.21 0 014.203-4.215 4.21 4.21 0 014.202 4.214v13" fill="#fff"/><path d="M33.348 44.473l22.749 3.88c0 8.16-1.5 14.24-7.87 14.24v10.412H32.472" fill="#fff"/><path d="M32.472 73.005V62.592c-4.162 0-7.529-3.384-7.529-7.549v-21.32a4.21 4.21 0 014.203-4.215 4.21 4.21 0 014.202 4.214v13" fill="#fff"/><path d="M32.472 73.005V62.592c-4.162 0-7.529-3.384-7.529-7.549v-21.32a4.21 4.21 0 014.203-4.215 4.21 4.21 0 014.202 4.214v13m0-2.249l22.749 3.88c0 8.16-1.5 14.24-7.87 14.24v10.412" stroke="#000" stroke-width="3" stroke-miterlimit="10" stroke-linecap="round" stroke-linejoin="round"/></svg>