<svg width="118" height="115" viewBox="0 0 118 115" fill="none" xmlns="http://www.w3.org/2000/svg">
<path d="M105.225 41.5348C110.531 55.3291 107.272 71.4924 98.9079 81.1164C90.5207 90.7342 77.3538 95.961 58.4005 94.4819C39.4472 93.0027 39.084 100.504 24.4033 95.3706C9.72271 90.2372 6.50153 78.2015 8.45951 62.7046C10.4175 47.2077 17.2429 33.74 28.6886 24.4343C40.1342 15.1285 56.2001 9.98474 71.1389 13.1418C86.101 16.3051 99.9249 27.7179 105.225 41.5348Z" fill="#02CE9D" fill-opacity="0.3"/>
<path d="M78.4794 64L91.9743 50.4984C93.2967 49.1754 93.2967 47.0382 91.9743 45.7151L77.2588 30.9923C75.9364 29.6692 73.8003 29.6692 72.4779 30.9923L58.983 44.4939L45.4882 30.9923C44.81 30.3477 43.9624 30.0085 43.0808 30.0085C42.2331 30.0085 41.3515 30.3477 40.7073 30.9923L25.9918 45.7151C24.6694 47.0382 24.6694 49.1754 25.9918 50.4984L39.4867 64L25.9918 77.5016C24.6694 78.8246 24.6694 80.9618 25.9918 82.2849L40.7073 97.0077C42.0297 98.3308 44.1658 98.3308 45.4882 97.0077L58.983 83.5061L72.4779 97.0077C73.1561 97.6862 74.0037 97.9915 74.8853 97.9915C75.7669 97.9915 76.6146 97.6523 77.2927 97.0077L92.0082 82.2849C93.3306 80.9618 93.3306 78.8246 92.0082 77.5016L78.4794 64ZM59.0509 53.7551C60.9157 53.7551 62.4415 55.2816 62.4415 57.1474C62.4415 59.0132 60.9157 60.5398 59.0509 60.5398C57.186 60.5398 55.6602 59.0132 55.6602 57.1474C55.6602 55.2816 57.186 53.7551 59.0509 53.7551ZM43.0808 60.4041L30.7726 48.1237L43.0808 35.8094L55.355 48.0898L43.0808 60.4041ZM52.2695 67.3245C50.4046 67.3245 48.8788 65.798 48.8788 63.9322C48.8788 62.0663 50.4046 60.5398 52.2695 60.5398C54.1344 60.5398 55.6602 62.0663 55.6602 63.9322C55.6602 65.798 54.1344 67.3245 52.2695 67.3245ZM59.0509 74.1093C57.186 74.1093 55.6602 72.5827 55.6602 70.7169C55.6602 68.8511 57.186 67.3245 59.0509 67.3245C60.9157 67.3245 62.4415 68.8511 62.4415 70.7169C62.4415 72.5827 60.9157 74.1093 59.0509 74.1093ZM65.8322 60.5398C67.6971 60.5398 69.2229 62.0663 69.2229 63.9322C69.2229 65.798 67.6971 67.3245 65.8322 67.3245C63.9673 67.3245 62.4415 65.798 62.4415 63.9322C62.4415 62.0663 63.9673 60.5398 65.8322 60.5398ZM74.8514 92.2245L62.5433 79.9441L74.8514 67.6298L87.1257 79.9102L74.8514 92.2245Z" fill="black"/>
</svg>
