<svg width="100" height="75" fill="none" xmlns="http://www.w3.org/2000/svg"><path fill-rule="evenodd" clip-rule="evenodd" d="M70.003 15.29c6.785 5.7 13.963 11.486 15.715 20.19 2.119 10.519 2.418 23.257-5.508 30.5-7.823 7.149-19.864 2.647-30.434 2.346-10.034-.286-21.308 2.781-28.68-4.03-7.502-6.931-7.533-18.523-6.784-28.734.687-9.357 3.574-18.797 10.72-24.873 6.71-5.707 16.072-6.238 24.816-5.343 7.75.793 14.19 4.934 20.155 9.944z" fill="#FFD29C"/><path d="M52.988 60.77H21.573c-1.977 0-3.573-1.678-3.573-3.744V12.743C18 10.671 19.602 9 21.573 9h26.373l8.61 9.24v38.78c.005 2.072-1.596 3.75-3.568 3.75z" fill="#fff"/><path d="M47.952 18.24V9l8.61 9.24h-8.61z" fill="#fff"/><path d="M52.988 60.77H21.573c-1.977 0-3.573-1.678-3.573-3.744V12.743C18 10.671 19.602 9 21.573 9h26.373l8.61 9.24v38.78c.005 2.072-1.596 3.75-3.568 3.75z" stroke="#000" stroke-width="3" stroke-miterlimit="10" stroke-linecap="round" stroke-linejoin="round"/><path d="M47.952 18.24V9l8.61 9.24h-8.61zM23.951 32.8H50.61m-26.658 6.584H50.61" stroke="#000" stroke-width="3" stroke-miterlimit="10" stroke-linecap="round" stroke-linejoin="round"/><path fill-rule="evenodd" clip-rule="evenodd" d="M30.8 22.646l5.042-5.503 4.559 5.503M38.634 17.773h-.951V19.3l.951 1.117v-2.644z" fill="#fff"/><path d="M39.777 21.893v5.021H31.64V21.75m-.84.897l5.04-5.503 4.56 5.503m-1.767-4.873h-.951V19.3l.951 1.117v-2.644z" stroke="#02CEAA" stroke-width="2" stroke-miterlimit="10" stroke-linecap="round" stroke-linejoin="round"/><path d="M30.82 44.64l-.037 21.284 51.18.076L82 44.716l-51.18-.076z" fill="#fff" stroke="#000" stroke-width="3" stroke-miterlimit="10" stroke-linecap="round" stroke-linejoin="round"/><path d="M36.17 52.235h20.106M36.17 57.764h27.198" stroke="#000" stroke-width="3" stroke-miterlimit="10" stroke-linecap="round" stroke-linejoin="round"/><path d="M77.34 56.702c0-1.436-1.025-1.849-2.13-2.078l-.588-.114c-.868-.172-.934-.42-.934-.75 0-.432.394-.693 1.055-.693.783 0 .983.388 1.068.68l.006.026a.63.63 0 00.613.406c.073 0 .14-.012.188-.019.303-.057.522-.298.522-.584 0-.07-.012-.14-.037-.21-.157-.496-.6-1.284-1.82-1.462v-.851c0-.712-1.128-.712-1.128 0v.858c-1.31.203-1.796 1.086-1.796 1.855 0 1.398.983 1.786 1.948 1.983l.636.134c.904.184 1.062.413 1.062.838 0 .515-.443.827-1.183.827-.958 0-1.159-.426-1.286-.91-.079-.266-.322-.438-.619-.438a.886.886 0 00-.182.02l-.018.006c-.31.07-.516.311-.516.597 0 .057.012.102.018.14l.013.044c.14.464.448 1.481 1.983 1.71v.896c0 .356.285.54.565.54.279 0 .564-.184.564-.54v-.877c1.207-.178 1.996-.947 1.996-2.034z" fill="#3D3DE1"/></svg>