<svg width="136" height="137" viewBox="0 0 136 137" fill="none" xmlns="http://www.w3.org/2000/svg">
<path d="M114.375 91.308C108.036 105.61 93.5111 115.263 80.0515 116.195C66.579 117.105 52.8096 111.145 39.7199 95.8279C26.6302 80.5107 20.7499 85.8525 13.5925 71.0038C6.43504 56.1552 13.0208 44.7326 26.0733 34.6025C39.1259 24.4725 54.3069 19.5105 69.8367 21.1273C85.3666 22.7441 101.245 30.9397 110.074 44.5028C118.915 58.088 120.736 76.9938 114.375 91.308Z" fill="#02CE9D" fill-opacity="0.3"/>
<path d="M58 109.5V88.5H72V109.5H89.5V81.5H100L65 50L30 81.5H40.5V109.5H58Z" fill="black"/>
<path d="M66.0746 28.4111C62.7298 27.5589 61.6542 26.6778 61.6542 25.3056C61.6542 23.7311 63.1424 22.6333 65.6326 22.6333C68.2554 22.6333 69.2279 23.8611 69.3163 25.6667H72.5727C72.4695 23.1822 70.9224 20.9 67.8428 20.1633V17H63.4224V20.12C60.5638 20.7267 58.2652 22.5467 58.2652 25.3344C58.2652 28.6711 61.0795 30.3322 65.1905 31.3C68.8742 32.1667 69.611 33.4378 69.611 34.7811C69.611 35.7778 68.889 37.3667 65.6326 37.3667C62.5972 37.3667 61.4037 36.0378 61.2416 34.3333H58C58.1768 37.4967 60.5933 39.2733 63.4224 39.8656V43H67.8428V39.8944C70.7161 39.36 73 37.7278 73 34.7667C73 30.6644 69.4194 29.2633 66.0746 28.4111Z" fill="black"/>
</svg>
