<svg width="101" height="75" fill="none" xmlns="http://www.w3.org/2000/svg"><path fill-rule="evenodd" clip-rule="evenodd" d="M34.29 66.564c-6.157-3.04-12.985-5.678-16.554-11.547-3.659-6.018-3.49-13.477-2.931-20.503.565-7.12 1.624-14.55 6.154-20.073 4.493-5.479 11.582-7.763 18.359-9.817C45.87 2.638 52.77.942 59.357 2.802c6.476 1.83 11.448 6.778 15.77 11.937 4.112 4.91 6.688 10.688 8.361 16.874 1.785 6.601 3.798 13.553 1.618 20.038-2.227 6.624-7.627 11.73-13.546 15.442-5.706 3.578-12.404 5.145-19.133 5.05-6.457-.093-12.348-2.722-18.137-5.58z" fill="#C2C2FF"/><path d="M51.124 65S22.5 53.387 22.5 17.59c0 0 21.846-2.914 28.624-8.59 7.074 5.926 27.376 8.59 27.376 8.59C78.5 53.91 51.124 65 51.124 65z" fill="#fff" stroke="#000" stroke-width="3" stroke-miterlimit="10" stroke-linecap="round" stroke-linejoin="round"/><path d="M55.132 39.12h6.415c.625 0 1.136-.489 1.136-1.087v-6.698c0-.598-.511-1.088-1.136-1.088h-6.415v-6.143a1.071 1.071 0 00-.34-.772 1.151 1.151 0 00-.796-.316h-7.005c-.625 0-1.136.49-1.136 1.088v6.143H39.44c-.624 0-1.135.49-1.135 1.088v6.709c0 .598.51 1.087 1.135 1.087h6.415v6.144c0 .304.125.565.34.772.205.196.49.315.807.326h7.006c.624 0 1.135-.49 1.135-1.087l-.011-6.166z" fill="#89DDEF" stroke="#000" stroke-width="3" stroke-miterlimit="10" stroke-linecap="round" stroke-linejoin="round"/></svg>
