<svg width="118" height="118" viewBox="0 0 118 118" fill="none" xmlns="http://www.w3.org/2000/svg">
<path d="M16.4064 50.3681C18.4397 37.4734 28.0705 26.5489 38.7184 22.8811C49.3814 19.2283 61.7613 21.045 75.6058 30.5467C89.4503 40.0484 93.0409 34.4709 102.003 44.8809C110.966 55.2909 108.114 65.9197 99.7728 76.9088C91.4313 87.898 80.2627 95.1854 67.3981 97.2488C54.5335 99.3122 39.9729 96.1517 29.9402 87.1395C19.8924 78.1122 14.3584 63.2774 16.4064 50.3681Z" fill="#02CE9D" fill-opacity="0.3"/>
<path fill-rule="evenodd" clip-rule="evenodd" d="M53.0172 87V68.9828H35V50.0172L53.0172 50.0172V32H71.9828V50.0172L90 50.0172V68.9828H71.9828V87H53.0172ZM59.6704 56.0694C59.6704 57.0722 60.4564 57.7161 62.9007 58.3389C65.345 58.9617 67.9615 59.9856 67.9615 62.9833C67.9615 65.1472 66.2925 66.34 64.1928 66.7306V69H60.9625V66.7094C58.8951 66.2767 57.1292 64.9783 57 62.6667H59.3689C59.4873 63.9122 60.3595 64.8833 62.5777 64.8833C64.9573 64.8833 65.485 63.7222 65.485 62.9939C65.485 62.0122 64.9466 61.0833 62.2546 60.45C59.2505 59.7428 57.1938 58.5289 57.1938 56.0906C57.1938 54.0533 58.8736 52.7233 60.9625 52.28V50H64.1928V52.3117C66.4433 52.85 67.5739 54.5178 67.6493 56.3333H65.2696C65.205 55.0139 64.4943 54.1167 62.5777 54.1167C60.7579 54.1167 59.6704 54.9189 59.6704 56.0694Z" fill="black"/>
</svg>
