<svg width="114" height="115" viewBox="0 0 114 115" fill="none" xmlns="http://www.w3.org/2000/svg">
<path d="M96.1606 76.2833C90.7713 88.2838 78.5091 96.4221 67.1762 97.2527C55.8326 98.0647 44.2646 93.1251 33.3036 80.3468C22.3427 67.5685 17.3731 72.0638 11.4038 59.6558C5.43453 47.2478 11.0206 37.6576 22.0451 29.1257C33.0697 20.5939 45.8666 16.3819 58.9326 17.678C71.9985 18.9741 85.3335 25.7781 92.7142 37.1033C100.105 48.447 101.568 64.2725 96.1606 76.2833Z" fill="#02CE9D" fill-opacity="0.3"/>
<path fill-rule="evenodd" clip-rule="evenodd" d="M32.5833 30.0447H88.4167C91.4875 30.0447 94 32.5394 94 35.5884L93.9721 74.3946C93.9721 77.4436 91.4875 79.9383 88.4167 79.9383H32.5833C29.5125 79.9383 27 77.4436 27 74.3946V35.5884C27 32.5394 29.5125 30.0447 32.5833 30.0447ZM52.125 49.4477C52.125 46.3801 49.6311 43.9039 46.5417 43.9039C43.4522 43.9039 40.9583 46.3801 40.9583 49.4477C40.9583 52.5152 43.4522 54.9914 46.5417 54.9914C49.6311 54.9914 52.125 52.5152 52.125 49.4477ZM57.7083 66.0789V64.231C57.7083 60.5351 50.2639 58.5024 46.5417 58.5024C42.8194 58.5024 35.375 60.5351 35.375 64.231V66.0789H57.7083ZM85.625 60.5352H60.5V57.7634H85.625V60.5352ZM85.625 54.9915H60.5V52.2196H85.625V54.9915ZM60.5 49.4478V46.6759H85.625V49.4478H60.5Z" fill="black"/>
</svg>
