<svg width="113" height="108" viewBox="0 0 113 108" fill="none" xmlns="http://www.w3.org/2000/svg">
<path d="M104.071 21.9805C114.281 36.0548 115.497 55.4345 108.935 68.9315C102.345 82.4286 89.0002 92.3876 67.054 96.482C45.1077 100.576 46.9754 109.22 28.7647 107.855C10.554 106.491 3.24283 93.7815 0.753949 75.5563C-1.73493 57.3312 1.91354 39.9308 12.067 25.8564C22.2205 11.7821 38.8791 1.03399 56.782 0.0718834C74.7132 -0.890227 93.8607 7.87872 104.071 21.9805Z" fill="#02CE9D" fill-opacity="0.3"/>
<path d="M62.6842 70.9467L48.7895 84.6667L62.6842 98.6667H21V89.3334C21 76.92 45.6863 70.6667 58.0526 70.6667C59.5347 70.6667 60.8779 70.76 62.6842 70.9467Z" fill="black"/>
<path d="M76.5789 42.6667C76.5789 52.98 68.2884 61.3333 58.0526 61.3333C47.8168 61.3333 39.5263 52.98 39.5263 42.6667C39.5263 32.3533 47.8168 24 58.0526 24C68.2884 24 76.5789 32.3533 76.5789 42.6667Z" fill="black"/>
<path d="M62.6842 84.6667L78.7558 101L109 70.2466L102.516 63.6666L78.7558 87.7933L69.1684 78.0867L62.6842 84.6667Z" fill="black"/>
</svg>
