<svg width="100" height="75" fill="none" xmlns="http://www.w3.org/2000/svg"><g clip-path="url(#clip0)"><path fill-rule="evenodd" clip-rule="evenodd" d="M47.233 72.173c-10.395-.963-21.813-.431-28.558-8.411-6.917-8.182-6.449-19.815-4.15-30.285 2.327-10.603 7.256-20.544 16.538-26.153C41.56.982 54.669-2.807 65.696 2.56c10.997 5.35 14.46 18.317 17.56 30.16 3.287 12.56 8.776 27.443.027 37.026-8.55 9.365-23.432 3.596-36.05 2.428z" fill="#C2C2FF"/><path d="M19 53.24c0 2.906 2.352 5.264 5.251 5.264h52.498c2.9 0 5.251-2.358 5.251-5.264V21.675A5.679 5.679 0 0076.313 16h-51.62a5.679 5.679 0 00-5.687 5.675V53.24H19z" fill="#fff" stroke="#000" stroke-width="3" stroke-linejoin="round"/><path d="M46.17 25.01H26.23v24.036h19.94V25.01z" fill="#02CE9D" fill-opacity=".3"/><path d="M40.14 41.99c-2.55 2.77-5.823 3.024-8.349 0-2.457 0-5.139 2.539-5.139 4.99v1.967h18.696V46.98c0-2.445-2.75-4.99-5.207-4.99z" fill="#fff" stroke="#000" stroke-width="3" stroke-linejoin="round"/><path d="M30.56 37.367c0 4.418 2.427 6.87 5.413 6.87 2.918 0 5.444-2.452 5.444-6.87 0-1.475-.491-2.451-.491-2.451-1.481-1.475-3.44-3.248-3.44-3.248-1.973 1.474-3.441 2.264-6.403 2.756-.006-.006-.522.485-.522 2.943z" fill="#fff" stroke="#000" stroke-width="3" stroke-linejoin="round"/><path d="M41.28 38.848a9.692 9.692 0 00.137-1.643c0-1.48-.491-2.464-.491-2.464-1.481-1.48-3.453-3.26-3.453-3.26-1.973 1.48-3.453 2.277-6.415 2.769 0 0-.522.491-.522 2.955 0 .554 0 1.183.074 1.674-1.524-.354-1.524-2.557-1.524-4.138 0-3.447 1.972-6.894 6.912-6.894 4.94 0 6.912 3.447 6.912 6.894-.012 1.245.044 3.827-1.63 4.107z" fill="#000" stroke="#000" stroke-width="3" stroke-linejoin="round"/><path d="M52.775 29.08H73.77 52.775z" fill="#fff"/><path d="M52.775 29.08H73.77" stroke="#000" stroke-width="3" stroke-linecap="round" stroke-linejoin="round"/><path d="M52.775 36.838H73.77 52.775z" fill="#fff"/><path d="M52.775 36.838H73.77" stroke="#000" stroke-width="3" stroke-linecap="round" stroke-linejoin="round"/><path d="M52.775 44.141H73.77 52.775z" fill="#fff"/><path d="M52.775 44.141H73.77" stroke="#000" stroke-width="3" stroke-linecap="round" stroke-linejoin="round"/></g><defs><clipPath id="clip0"><path fill="#fff" d="M0 0h100v75H0z"/></clipPath></defs></svg>