<svg width="100" height="75" fill="none" xmlns="http://www.w3.org/2000/svg"><path fill-rule="evenodd" clip-rule="evenodd" d="M69.003 15.29c6.785 5.7 13.963 11.486 15.715 20.19 2.119 10.519 2.418 23.257-5.508 30.5-7.823 7.149-19.864 2.647-30.434 2.346-10.034-.286-21.308 2.781-28.68-4.03-7.502-6.931-7.533-18.523-6.784-28.734.687-9.357 3.574-18.797 10.72-24.873 6.71-5.707 16.072-6.238 24.816-5.343 7.75.793 14.19 4.934 20.155 9.944z" fill="#C6F9EC"/><circle cx="49" cy="38" r="26.5" fill="#fff" stroke="#000" stroke-width="3"/><path d="M59.125 31.725a10.125 10.125 0 10-20.25 0 2.025 2.025 0 104.05 0A6.075 6.075 0 1149 37.8a2.025 2.025 0 00-2.025 2.025v4.05a2.025 2.025 0 104.05 0v-2.227a10.125 10.125 0 008.1-9.923zM49 54a2.025 2.025 0 100-4.05A2.025 2.025 0 0049 54z" fill="#FF9214"/></svg>