<svg width="101" height="105" viewBox="0 0 101 105" fill="none" xmlns="http://www.w3.org/2000/svg">
<path d="M18.0423 24.1515C26.2506 14.001 40.0533 9.35551 51.1086 11.5031C62.1694 13.6712 71.9823 21.4344 79.2212 36.5854C86.46 51.7363 92.3583 48.7014 94.915 62.1979C97.4716 75.6944 89.6879 83.4736 76.9694 88.8197C64.2509 94.1658 50.9349 94.8926 38.7621 90.2473C26.5893 85.602 15.5597 75.5846 11.3772 62.7634C7.18921 49.9216 9.81408 34.3073 18.0423 24.1515Z" fill="#02CE9D" fill-opacity="0.3"/>
<path d="M34.25 82.43L55.25 61.395L69.25 75.395L99 41.935L94.065 37L69.25 64.895L55.25 50.895L29 77.18L34.25 82.43Z" fill="black"/>
<path d="M31.0747 44.4111C27.7299 43.5589 26.6542 42.6778 26.6542 41.3056C26.6542 39.7311 28.1424 38.6333 30.6326 38.6333C33.2554 38.6333 34.2279 39.8611 34.3163 41.6667H37.5727C37.4695 39.1822 35.9224 36.9 32.8428 36.1633V33H28.4224V36.12C25.5639 36.7267 23.2652 38.5467 23.2652 41.3344C23.2652 44.6711 26.0796 46.3322 30.1906 47.3C33.8743 48.1667 34.611 49.4378 34.611 50.7811C34.611 51.7778 33.889 53.3667 30.6326 53.3667C27.5972 53.3667 26.4037 52.0378 26.2417 50.3333H23C23.1768 53.4967 25.5933 55.2733 28.4224 55.8656V59H32.8428V55.8944C35.7161 55.36 38 53.7278 38 50.7667C38 46.6644 34.4194 45.2633 31.0747 44.4111Z" fill="black"/>
</svg>
