<svg width="100" height="75" fill="none" xmlns="http://www.w3.org/2000/svg"><path fill-rule="evenodd" clip-rule="evenodd" d="M43.951 72.361c-9.702-.898-20.36-.402-26.655-7.85-6.455-7.637-6.018-18.494-3.873-28.266 2.172-9.896 6.772-19.175 15.435-24.409 9.798-5.92 22.033-9.456 32.325-4.448 10.264 4.994 13.495 17.096 16.389 28.15 3.069 11.723 8.192 25.613.026 34.557-7.98 8.74-21.87 3.357-33.647 2.266z" fill="#FFD29C"/><path d="M66.684 53.123c0-10.748-8.88-19.46-19.835-19.46-8.938 0-16.49 5.804-18.97 13.776L23 50.632v4.975l4.91 3.275a19.452 19.452 0 006.264 9.2V73h5.072v-1.903a20.129 20.129 0 007.61 1.486c2.63 0 5.142-.506 7.436-1.423V73h5.072v-4.78c4.466-3.572 7.32-9.009 7.32-15.097z" fill="#C2C2FF"/><path d="M39.677 40.826h15.466m11.541 12.297c0-10.748-8.88-19.46-19.835-19.46-8.938 0-16.49 5.804-18.97 13.776L23 50.632v4.975l4.91 3.275a19.452 19.452 0 006.264 9.2V73h5.072v-1.903a20.129 20.129 0 007.61 1.486c2.63 0 5.142-.506 7.436-1.423V73h5.072v-4.78c4.466-3.572 7.32-9.009 7.32-15.097z" stroke="#000" stroke-width="3" stroke-miterlimit="10" stroke-linecap="round" stroke-linejoin="round"/><path d="M34.825 49.317c.826 0 1.495-.657 1.495-1.467s-.67-1.467-1.495-1.467c-.826 0-1.495.657-1.495 1.467s.67 1.467 1.495 1.467z" fill="#000"/><path d="M63.766 42.078a4.223 4.223 0 013.563-1.935c2.327 0 4.208 1.846 4.208 4.129 0 1.043-.4 2.004-1.05 2.73M78 22.302L67.799 33.555l-5.755-5.645-10.8 10.602" stroke="#000" stroke-width="3" stroke-miterlimit="10" stroke-linecap="round" stroke-linejoin="round"/><path d="M29.869 32.752c-2.636-2.636-2.34-7.118-2.34-7.118s4.57-.209 7.211 2.427c2.642 2.637 2.346 7.113 2.346 7.113s-4.575.215-7.217-2.422zM33.67 9.689C33.67 5.997 37.08 3 37.08 3s3.409 2.997 3.409 6.689-3.41 6.689-3.41 6.689-3.408-2.997-3.408-6.69zM42.196 23.01c-2.642 0-4.781-2.346-4.781-2.346s2.14-2.345 4.781-2.345c2.642 0 4.782 2.345 4.782 2.345s-2.14 2.346-4.782 2.346z" fill="#C6F9EC"/><path d="M37.08 35.18V16.296m-7.211 16.456c-2.636-2.636-2.34-7.118-2.34-7.118s4.57-.209 7.211 2.427c2.642 2.637 2.346 7.113 2.346 7.113s-4.575.215-7.217-2.422zM33.67 9.69C33.67 5.997 37.08 3 37.08 3s3.409 2.997 3.409 6.689-3.41 6.689-3.41 6.689-3.408-2.997-3.408-6.69zm8.525 13.32c-2.642 0-4.781-2.345-4.781-2.345s2.14-2.345 4.781-2.345c2.642 0 4.782 2.345 4.782 2.345s-2.14 2.346-4.782 2.346z" stroke="#000" stroke-width="3" stroke-miterlimit="10" stroke-linecap="round" stroke-linejoin="round"/><path d="M46.043 40.099c4.271 0 7.733-3.397 7.733-7.587 0-4.19-3.462-7.587-7.733-7.587-4.27 0-7.733 3.397-7.733 7.587 0 4.19 3.463 7.587 7.733 7.587z" fill="#fff" stroke="#000" stroke-width="3" stroke-miterlimit="10" stroke-linecap="round" stroke-linejoin="round"/><path d="M48.402 33.675c0-1.207-.922-1.555-1.914-1.75l-.529-.102c-.78-.139-.837-.354-.837-.632 0-.367.354-.582.947-.582.702 0 .883.329.96.57l.006.018c.09.215.297.342.548.342a.611.611 0 00.168-.02c.277-.05.464-.252.464-.492a.569.569 0 00-.033-.178c-.141-.417-.534-1.08-1.636-1.226v-.72c0-.601-1.012-.601-1.012 0v.72c-1.18.17-1.611.91-1.611 1.562 0 1.176.883 1.504 1.753 1.669l.573.114c.812.151.954.347.954.701 0 .437-.4.696-1.063.696-.864 0-1.038-.36-1.16-.765-.071-.222-.29-.367-.554-.367a.698.698 0 00-.161.019h-.02c-.277.063-.464.265-.464.506a.56.56 0 00.013.113l.007.038c.122.392.4 1.246 1.778 1.436v.752c0 .297.258.455.51.455.25 0 .508-.158.508-.455v-.727c1.096-.133 1.811-.778 1.805-1.694z" fill="#000"/></svg>
