<svg width="130" height="128" viewBox="0 0 130 128" fill="none" xmlns="http://www.w3.org/2000/svg">
<path d="M16.089 67.1432C14.5342 52.4456 21.8652 37.6765 32.435 30.5452C43.0258 23.4259 57.0968 21.7849 75.0215 28.1192C92.9462 34.4534 95.2385 27.3017 108.09 36.0599C120.942 44.818 120.938 57.2772 115.036 71.7393C109.134 86.2014 99.0554 97.4437 85.5913 103.47C72.1272 109.496 55.2774 110.307 41.6648 103.391C28.0312 96.4627 17.6322 81.8609 16.089 67.1432Z" fill="#02CE9D" fill-opacity="0.3"/>
<path d="M92.6 52.5337L89.9334 55.2003C94.7334 60.0003 94.7334 67.467 89.9334 72.5337L92.6 75.2003C99.2667 69.067 99.2667 58.9337 92.6 52.5337ZM87 58.1337L84.3334 60.8003C85.6667 62.667 85.6667 65.067 84.3334 66.9337L87 69.6003C90.2 66.4003 90.2 61.6003 87 58.1337ZM76.3334 34.667H49.6667C46.7334 34.667 44.3334 37.067 44.3334 40.0003V88.0003C44.3334 90.9337 46.7334 93.3337 49.6667 93.3337H76.3334C79.2667 93.3337 81.6667 90.9337 81.6667 88.0003V40.0003C81.6667 37.067 79.2667 34.667 76.3334 34.667ZM76.3334 85.3337H49.6667V42.667H76.3334V85.3337Z" fill="black"/>
</svg>
