<svg width="100" height="75" fill="none" xmlns="http://www.w3.org/2000/svg"><path fill-rule="evenodd" clip-rule="evenodd" d="M33.79 66.564c-6.157-3.04-12.985-5.678-16.554-11.547-3.659-6.018-3.49-13.477-2.931-20.503.565-7.12 1.624-14.55 6.154-20.073 4.493-5.479 11.582-7.763 18.359-9.817C45.37 2.638 52.27.942 58.857 2.802c6.476 1.83 11.448 6.778 15.77 11.937 4.112 4.91 6.688 10.688 8.361 16.874 1.785 6.601 3.798 13.553 1.618 20.038-2.227 6.624-7.627 11.73-13.546 15.442-5.706 3.578-12.404 5.145-19.133 5.05-6.457-.093-12.348-2.722-18.137-5.58z" fill="#FFD29C"/><path d="M70.456 68H30.544C28.034 68 26 65.99 26 63.513V10.487C26 8.01 28.035 6 30.544 6H64.06L75 17.065v46.448C75 65.99 72.965 68 70.456 68z" fill="#fff"/><path d="M64.06 17.065V6L75 17.065H64.06z" fill="#fff"/><path d="M64.06 6H30.543C28.034 6 26 8.01 26 10.487v53.026C26 65.99 28.035 68 30.544 68h39.912C72.966 68 75 65.99 75 63.513V17.065M64.06 6L75 17.065M64.06 6v11.065H75M33.565 40.23h33.87m-33.87 7.884h33.87" stroke="#000" stroke-width="3" stroke-miterlimit="10" stroke-linecap="round" stroke-linejoin="round"/><path d="M42.41 31.509a.478.478 0 01-.353-.143.478.478 0 01-.143-.352v-6.787c0-.14.048-.257.143-.352a.461.461 0 01.352-.154c.14 0 .257.051.352.154a.462.462 0 01.154.352v6.787c0 .14-.051.257-.154.352a.479.479 0 01-.352.143zM45.546 31.509a.478.478 0 01-.352-.143.478.478 0 01-.143-.352v-6.732c0-.14.047-.257.143-.352a.461.461 0 01.352-.154h2.563c.997 0 1.745.205 2.244.616.498.41.748.95.748 1.617 0 .44-.125.843-.374 1.21-.242.36-.598.62-1.067.781.528.14.887.47 1.078.99.198.513.297 1.02.297 1.518v.506c0 .14-.048.257-.143.352a.479.479 0 01-.352.143.53.53 0 01-.374-.132.514.514 0 01-.132-.363v-.33c0-.367-.033-.704-.1-1.012a1.608 1.608 0 00-.472-.836c-.25-.25-.627-.374-1.133-.374h-2.277v2.552c0 .14-.052.257-.154.352a.479.479 0 01-.352.143zm2.497-3.993c.63 0 1.13-.125 1.496-.374.374-.25.56-.601.56-1.056 0-.44-.16-.777-.483-1.012-.316-.235-.858-.352-1.628-.352h-1.936v2.794h1.99zM55.302 31.564a6.525 6.525 0 01-2.618-.528.49.49 0 01-.308-.451c0-.125.04-.231.12-.319a.43.43 0 01.33-.143.51.51 0 01.21.044c.675.3 1.397.451 2.167.451 1.283 0 1.925-.422 1.925-1.265a.699.699 0 00-.253-.55 1.67 1.67 0 00-.605-.341c-.242-.088-.587-.19-1.034-.308-.594-.154-1.075-.3-1.441-.44a2.57 2.57 0 01-.946-.649c-.264-.286-.396-.667-.396-1.144 0-.418.11-.796.33-1.133.22-.345.542-.616.968-.814.433-.205.95-.308 1.55-.308.807 0 1.537.121 2.19.363.205.073.308.22.308.44 0 .117-.04.224-.121.319a.397.397 0 01-.32.143.508.508 0 01-.175-.044 5.376 5.376 0 00-1.771-.297c-.58 0-1.053.11-1.42.33-.358.22-.538.528-.538.924 0 .264.084.48.253.649.176.161.392.29.649.385.264.088.62.183 1.067.286.58.14 1.045.279 1.397.418.36.14.663.356.913.649.257.293.385.69.385 1.188 0 .41-.117.781-.352 1.111-.235.323-.565.576-.99.759-.426.183-.917.275-1.474.275z" fill="#02CEAA"/><path fill-rule="evenodd" clip-rule="evenodd" d="M55.302 24.041c-.56 0-1.02.096-1.39.272l-.003.001c-.37.172-.634.4-.81.676l-.002.003c-.179.274-.27.58-.27.928 0 .405.111.688.297.89.225.243.493.427.807.554.349.132.813.274 1.399.426h.001c.448.118.804.223 1.062.317.28.094.527.23.731.415.247.216.379.5.379.83 0 .533-.212.974-.65 1.262-.411.27-.98.378-1.65.378-.82 0-1.595-.16-2.32-.483a.134.134 0 00-.089-.007.068.068 0 00-.021.017c-.014.015-.022.03-.022.065 0 .012.002.03.02.06a.134.134 0 00.057.045l.005.002a6.15 6.15 0 002.469.497c.516 0 .956-.085 1.325-.244.373-.161.645-.375.834-.634.189-.265.282-.559.282-.892 0-.434-.11-.733-.292-.941l-.004-.004a1.871 1.871 0 00-.763-.542l-.002-.001a10.39 10.39 0 00-1.345-.402c-.452-.104-.82-.202-1.1-.295l-.012-.004a2.328 2.328 0 01-.772-.46l-.006-.006-.005-.006a1.253 1.253 0 01-.363-.914c0-.536.256-.96.718-1.244l.003-.002c.442-.265.988-.383 1.612-.383.65 0 1.282.106 1.894.318l.008.002.008.004c.023.01.04.014.048.017l.01-.002h.004l.008-.008c.027-.032.032-.054.032-.077a.191.191 0 00-.008-.058l-.001-.002-.002-.001-.005-.005a.178.178 0 00-.043-.02l-.005-.002c-.604-.225-1.289-.34-2.058-.34zm-1.71-.406c.493-.234 1.067-.344 1.71-.344.843 0 1.617.127 2.317.386a.832.832 0 01.41.302.84.84 0 01.145.49.856.856 0 01-.21.561.772.772 0 01-.911.209 5.001 5.001 0 00-1.641-.274c-.534 0-.934.102-1.225.276-.255.157-.358.348-.358.603 0 .173.05.289.138.378.133.12.302.223.514.302.247.082.587.174 1.026.274l.004.001c.587.142 1.07.286 1.446.434a2.62 2.62 0 011.06.753c.33.379.476.87.476 1.433 0 .487-.141.934-.422 1.328l-.002.004c-.28.385-.668.677-1.145.882-.48.208-1.024.306-1.622.306a6.9 6.9 0 01-2.765-.558.887.887 0 01-.376-.3l-.005-.007-.004-.006a.864.864 0 01-.151-.483.83.83 0 01.22-.572v-.001a.805.805 0 01.606-.264c.125 0 .246.025.361.076a4.889 4.889 0 002.015.419c.612 0 1.007-.103 1.238-.255.203-.133.312-.325.312-.635 0-.11-.036-.19-.124-.267l-.006-.005a1.297 1.297 0 00-.472-.263l-.01-.003a12.074 12.074 0 00-1-.298c-.6-.156-1.095-.306-1.48-.452l-.005-.003a2.943 2.943 0 01-1.083-.743c-.341-.37-.495-.85-.495-1.398 0-.487.13-.936.39-1.336.263-.413.644-.727 1.123-.95zm-11.183.461c-.034 0-.052.007-.077.034l-.01.01c-.022.023-.033.043-.033.087v6.787c0 .044.01.064.033.087.023.022.043.033.087.033s.065-.01.087-.033l.01-.01c.026-.025.034-.043.034-.077v-6.787c0-.034-.007-.052-.034-.077l-.01-.01-.01-.01c-.025-.026-.042-.034-.077-.034zm-.622-.481a.836.836 0 01.622-.269c.24 0 .453.092.617.264a.835.835 0 01.264.617v6.787a.836.836 0 01-.269.622.853.853 0 01-.612.248.853.853 0 01-.617-.253.853.853 0 01-.253-.617v-6.787c0-.233.083-.445.248-.612zm3.759.536c-.035 0-.053.007-.077.034l-.01.01c-.022.023-.033.043-.033.087v6.732c0 .044.01.064.033.087.022.022.043.033.087.033.043 0 .064-.01.087-.033l.01-.01c.026-.025.034-.043.034-.077v-2.927h2.652c.074 0 .147.002.219.007l-.18-.047 1.17-.402c.404-.139.688-.353.878-.636a1.73 1.73 0 00.31-1c0-.56-.203-.99-.612-1.328-.403-.332-1.05-.53-2.005-.53h-2.563zm3.832 4.162c.127.068.243.153.347.256.297.289.494.632.577 1.025m.13 1.516c.016.012.047.024.108.024.043 0 .064-.01.087-.033.022-.023.033-.043.033-.087v-.506c0-.448-.089-.908-.272-1.383l-.002-.006c-.15-.408-.415-.649-.822-.756l-.186-.05m-4.454-4.643a.836.836 0 01.622-.269h2.563c1.04 0 1.888.212 2.482.701.589.485.885 1.132.885 1.907 0 .516-.148.992-.439 1.42-.15.223-.335.412-.55.567.268.215.47.504.602.862.212.55.32 1.102.32 1.65v.506a.853.853 0 01-.252.617.853.853 0 01-.617.253.903.903 0 01-.629-.231l-.01-.01-.01-.012a.889.889 0 01-.232-.617v-.33c0-.344-.031-.655-.09-.933l-.001-.002a1.233 1.233 0 00-.367-.644l-.004-.004c-.154-.153-.418-.264-.868-.264h-1.902v2.177a.836.836 0 01-.269.622.853.853 0 01-.612.248.853.853 0 01-.617-.253.853.853 0 01-.253-.617v-6.732c0-.233.083-.445.248-.612zm.753.677h2.31c.785 0 1.433.115 1.851.425.43.313.637.769.637 1.314 0 .578-.248 1.047-.727 1.367-.45.305-1.03.438-1.705.438h-2.366v-3.544zm.75.75v2.044h1.616c.586 0 1.002-.116 1.285-.31l.003-.001a.824.824 0 00.394-.744c0-.334-.115-.553-.33-.709l-.003-.002c-.213-.159-.65-.278-1.404-.278h-1.561z" fill="#02CEAA"/></svg>