<svg width="128" height="130" viewBox="0 0 128 130" fill="none" xmlns="http://www.w3.org/2000/svg">
<path d="M107.858 86.8025C101.856 100.308 88.1222 109.433 75.4028 110.324C62.6713 111.194 49.665 105.58 37.3089 91.132C24.9528 76.6841 19.3917 81.7315 12.6408 67.7208C5.88995 53.7102 12.1227 42.922 24.4652 33.3485C36.8076 23.7751 51.1571 19.0783 65.8305 20.5914C80.504 22.1045 95.5014 29.8276 103.832 42.6233C112.175 55.4399 113.88 73.285 107.858 86.8025Z" fill="#02CE9D" fill-opacity="0.3"/>
<path d="M40 47H34V89C34 92.3 36.7 95 40 95H82V89H40V47ZM88 35H52C48.7 35 46 37.7 46 41V77C46 80.3 48.7 83 52 83H88C91.3 83 94 80.3 94 77V41C94 37.7 91.3 35 88 35ZM85 62H55V56H85V62ZM73 74H55V68H73V74ZM85 50H55V44H85V50Z" fill="black"/>
</svg>
