<svg width="128" height="130" viewBox="0 0 128 130" fill="none" xmlns="http://www.w3.org/2000/svg">
<path d="M107.572 86.0889C101.57 99.5948 87.8363 108.72 75.1169 109.611C62.3854 110.481 49.3791 104.866 37.023 90.4184C24.6669 75.9705 19.1058 81.0179 12.3549 67.0072C5.60406 52.9966 11.8368 42.2084 24.1793 32.6349C36.5218 23.0614 50.8712 18.3647 65.5446 19.8778C80.2181 21.3909 95.2155 29.114 103.547 41.9097C111.89 54.7263 113.594 72.5714 107.572 86.0889Z" fill="#02CE9D" fill-opacity="0.3"/>
<path d="M86.6185 46.633C86.3073 46.633 85.9962 46.555 85.7239 46.399C78.2557 42.538 71.7988 40.9 64.0583 40.9C56.3568 40.9 49.0442 42.733 42.3928 46.399C41.4593 46.906 40.2924 46.555 39.7478 45.619C39.2422 44.683 39.5922 43.474 40.5258 42.967C47.7606 39.028 55.6955 37 64.0583 37C72.3434 37 79.5782 38.833 87.5131 42.928C88.4856 43.435 88.8356 44.605 88.33 45.541C87.9799 46.243 87.3187 46.633 86.6185 46.633ZM30.9571 67.108C30.5682 67.108 30.1792 66.991 29.8291 66.757C28.9345 66.133 28.74 64.924 29.3624 64.027C33.2131 58.567 38.1141 54.277 43.9487 51.274C56.1623 44.956 71.7988 44.917 84.0513 51.235C89.8858 54.238 94.7868 58.489 98.6376 63.91C99.26 64.768 99.0655 66.016 98.1709 66.64C97.2763 67.264 96.0704 67.069 95.4481 66.172C91.9474 61.258 87.5131 57.397 82.2621 54.706C71.0987 48.973 56.8235 48.973 45.699 54.745C40.4091 57.475 35.9748 61.375 32.4741 66.289C32.1629 66.835 31.5795 67.108 30.9571 67.108ZM55.2677 114.181C54.762 114.181 54.2563 113.986 53.9063 113.596C50.5222 110.203 48.6941 108.019 46.088 103.3C43.4041 98.503 42.0038 92.653 42.0038 86.374C42.0038 74.791 51.8836 65.353 64.0194 65.353C76.1553 65.353 86.0351 74.791 86.0351 86.374C86.0351 87.466 85.1793 88.324 84.0902 88.324C83.0011 88.324 82.1454 87.466 82.1454 86.374C82.1454 76.936 74.0159 69.253 64.0194 69.253C54.023 69.253 45.8935 76.936 45.8935 86.374C45.8935 91.99 47.1382 97.177 49.5109 101.389C52.0003 105.874 53.7118 107.785 56.7068 110.827C57.4459 111.607 57.4459 112.816 56.7068 113.596C56.279 113.986 55.7733 114.181 55.2677 114.181ZM83.1567 106.966C78.528 106.966 74.4438 105.796 71.0987 103.495C65.303 99.556 61.8412 93.16 61.8412 86.374C61.8412 85.282 62.697 84.424 63.7861 84.424C64.8752 84.424 65.7309 85.282 65.7309 86.374C65.7309 91.873 68.5315 97.06 73.2769 100.258C76.0386 102.13 79.267 103.027 83.1567 103.027C84.0902 103.027 85.6461 102.91 87.202 102.637C88.2522 102.442 89.2635 103.144 89.458 104.236C89.6525 105.289 88.9523 106.303 87.8632 106.498C85.6461 106.927 83.7013 106.966 83.1567 106.966ZM75.3384 115C75.1828 115 74.9884 114.961 74.8328 114.922C68.6482 113.206 64.6029 110.905 60.3631 106.732C54.9176 101.311 51.9225 94.096 51.9225 86.374C51.9225 80.056 57.2903 74.908 63.9028 74.908C70.5152 74.908 75.883 80.056 75.883 86.374C75.883 90.547 79.5004 93.94 83.9735 93.94C88.4467 93.94 92.0641 90.547 92.0641 86.374C92.0641 71.671 79.4226 59.737 63.8639 59.737C52.8172 59.737 42.704 65.899 38.153 75.454C36.6361 78.613 35.8581 82.318 35.8581 86.374C35.8581 89.416 36.1304 94.213 38.4642 100.453C38.8532 101.467 38.3475 102.598 37.3362 102.949C36.3249 103.339 35.1969 102.793 34.8468 101.818C32.9409 96.709 32.0073 91.639 32.0073 86.374C32.0073 81.694 32.902 77.443 34.6523 73.738C39.8256 62.857 51.3002 55.798 63.8639 55.798C81.5619 55.798 95.9538 69.487 95.9538 86.335C95.9538 92.653 90.586 97.801 83.9735 97.801C77.3611 97.801 71.9933 92.653 71.9933 86.335C71.9933 82.162 68.3759 78.769 63.9028 78.769C59.4296 78.769 55.8122 82.162 55.8122 86.335C55.8122 93.004 58.3794 99.244 63.0859 103.924C66.7811 107.59 70.3207 109.618 75.8052 111.139C76.8554 111.412 77.4389 112.504 77.1666 113.518C76.9721 114.415 76.1553 115 75.3384 115Z" fill="black"/>
</svg>
