<svg width="135" height="135" viewBox="0 0 135 135" fill="none" xmlns="http://www.w3.org/2000/svg">
<path d="M19.4721 58.2578C21.7912 43.5507 32.7757 31.0907 44.9202 26.9074C57.082 22.7412 71.2019 24.8132 86.9923 35.6504C102.783 46.4877 106.878 40.1262 117.1 51.9994C127.322 63.8726 124.07 75.9953 114.556 88.529C105.042 101.063 92.3039 109.374 77.6311 111.728C62.9582 114.081 46.351 110.477 34.9081 100.198C23.4481 89.9016 17.1363 72.9816 19.4721 58.2578Z" fill="#02CE9D" fill-opacity="0.3"/>
<path d="M103 61H89V54C89 50.115 85.885 47 82 47H68C64.115 47 61 50.115 61 54V61H47C43.115 61 40.035 64.115 40.035 68L40 106.5C40 110.385 43.115 113.5 47 113.5H103C106.885 113.5 110 110.385 110 106.5V68C110 64.115 106.885 61 103 61ZM82 61H68V54H82V61Z" fill="black"/>
</svg>
