<svg width="86" height="76" viewBox="0 0 86 76" fill="none" xmlns="http://www.w3.org/2000/svg">
<path d="M82.9866 56.1362C77.9235 67.5182 66.31 75.1955 55.5439 75.9301C44.7676 76.647 33.75 71.895 23.271 59.6942C12.7921 47.4934 8.09124 51.7427 2.35785 39.9181C-3.37554 28.0935 1.88629 19.0037 12.3217 10.9463C22.7572 2.88901 34.8981 -1.05299 47.3215 0.242491C59.7449 1.53797 72.4509 8.07092 79.5202 18.873C86.5998 29.6927 88.0668 44.7443 82.9866 56.1362Z" fill="#02CE9D" fill-opacity="0.3"/>
<path d="M52.625 15H28.125C24.7409 15 22.0306 17.7297 22.0306 21.1L22 69.9C22 73.2702 24.7103 76 28.0944 76H64.875C68.2591 76 71 73.2702 71 69.9V33.3L52.625 15ZM58.75 63.8H34.25V57.7H58.75V63.8ZM58.75 51.6H34.25V45.5H58.75V51.6ZM49.5625 36.35V19.575L66.4062 36.35H49.5625Z" fill="black"/>
</svg>
