<svg width="128" height="130" viewBox="0 0 128 130" fill="none" xmlns="http://www.w3.org/2000/svg">
<path d="M107.572 86.0889C101.57 99.5948 87.8363 108.72 75.1169 109.611C62.3854 110.481 49.3791 104.866 37.023 90.4184C24.6669 75.9705 19.1058 81.0179 12.3549 67.0072C5.60406 52.9966 11.8368 42.2084 24.1793 32.6349C36.5218 23.0614 50.8712 18.3647 65.5446 19.8778C80.2181 21.3909 95.2155 29.114 103.547 41.9097C111.89 54.7263 113.594 72.5714 107.572 86.0889Z" fill="#02CE9D" fill-opacity="0.3"/>
<path d="M57 94V73.1765H71V94H88.5V66.2353H99L64 35L29 66.2353H39.5V94H57Z" fill="black"/>
</svg>
