<svg width="100" height="75" fill="none" xmlns="http://www.w3.org/2000/svg"><path fill-rule="evenodd" clip-rule="evenodd" d="M72.532 64.016c-6.077 5.024-14.276 5.513-22.059 6.863-7.942 1.378-16.01 3.879-23.582 1.053-8.068-3.01-15.17-9.027-18.766-16.854-3.522-7.669-1.973-16.403-.296-24.647 1.603-7.886 3.758-16.008 9.67-21.449C23.288 3.653 31.46 2.38 39.294 1.47 46.84.595 54.503.703 61.423 3.887c7.131 3.281 12.924 8.798 16.927 15.552 4.208 7.1 7.188 15.178 6.124 23.336-1.08 8.27-5.526 15.938-11.942 21.241z" fill="#FFD29C"/><path d="M57.735 67.09H18.467c-2.472 0-4.467-2.045-4.467-4.562V8.562C14 6.037 16.002 4 18.467 4h32.966l10.761 11.261v47.26c.015 2.524-1.987 4.569-4.46 4.569z" fill="#fff"/><path d="M51.44 15.261V4l10.77 11.261H51.44z" fill="#fff"/><path d="M57.735 67.09H18.467c-2.472 0-4.467-2.045-4.467-4.562V8.562C14 6.037 16.002 4 18.467 4h32.966l10.761 11.261v47.26c.015 2.524-1.987 4.569-4.46 4.569z" stroke="#000" stroke-width="3" stroke-miterlimit="10" stroke-linecap="round" stroke-linejoin="round"/><path d="M51.44 15.261V4l10.77 11.261H51.44zM21.44 41.028h33.33M21.44 32.888h33.33M21.44 49.044h33.33" stroke="#000" stroke-width="3" stroke-miterlimit="10" stroke-linecap="round" stroke-linejoin="round"/><path d="M32.982 25.864L44.69 13.906m-7.857 1.85c0 1.147-.91 2.076-2.032 2.076-1.123 0-2.032-.929-2.032-2.075 0-1.147.91-2.076 2.032-2.076 1.122 0 2.032.93 2.032 2.076zm7.857 8.024c0 1.147-.91 2.076-2.032 2.076-1.123 0-2.033-.93-2.033-2.076s.91-2.075 2.033-2.075c1.122 0 2.032.93 2.032 2.076z" stroke="#8E8EEF" stroke-width="2" stroke-miterlimit="10" stroke-linecap="round" stroke-linejoin="round"/><path d="M30.024 45.97l-.046 25.937L93.954 72 94 46.062l-63.976-.093z" fill="#fff" stroke="#000" stroke-width="3" stroke-miterlimit="10" stroke-linecap="round" stroke-linejoin="round"/><path d="M36.713 55.225h25.14M36.713 61.97H70.71" stroke="#000" stroke-width="3" stroke-miterlimit="10" stroke-linecap="round" stroke-linejoin="round"/><path d="M88.183 60.67c0-1.751-1.282-2.255-2.662-2.533l-.735-.14c-1.085-.209-1.168-.51-1.168-.914 0-.526.493-.844 1.32-.844.978 0 1.228.473 1.334.829l.008.03c.121.31.41.496.766.496.09 0 .174-.015.235-.023.379-.07.652-.364.652-.712a.759.759 0 00-.046-.256c-.197-.604-.75-1.564-2.275-1.781v-1.046c0-.867-1.41-.867-1.41 0v1.046c-1.638.248-2.245 1.324-2.245 2.261 0 1.704 1.229 2.177 2.434 2.417l.797.162c1.13.225 1.327.504 1.327 1.023 0 .627-.554 1.007-1.48 1.007-1.197 0-1.448-.52-1.607-1.108-.098-.325-.402-.534-.773-.534-.084 0-.144.007-.228.023l-.023.008c-.386.085-.644.38-.644.728 0 .07.015.124.022.17l.016.054c.174.566.56 1.805 2.48 2.084v1.092c0 .433.356.658.705.658s.705-.225.705-.658v-1.07c1.51-.208 2.495-1.145 2.495-2.47z" fill="#02CEAA"/></svg>
