<svg width="114" height="118" viewBox="0 0 114 118" fill="none" xmlns="http://www.w3.org/2000/svg">
<path d="M19.9722 26.7934C29.249 15.3215 44.8487 10.0712 57.3432 12.4983C69.844 14.9487 80.9344 23.7225 89.1156 40.8459C97.2968 57.9693 103.963 54.5393 106.853 69.7928C109.742 85.0464 100.945 93.8383 86.5707 99.8804C72.1964 105.923 57.1469 106.744 43.3894 101.494C29.6319 96.2438 17.1663 84.9222 12.4394 70.4319C7.70619 55.9184 10.6728 38.2713 19.9722 26.7934Z" fill="#02CE9D" fill-opacity="0.3"/>
<path d="M38.6667 52V75.3333H48.6667V52H38.6667ZM58.6667 52V75.3333H68.6667V52H58.6667ZM32 92H95.3333V82H32V92ZM78.6667 52V75.3333H88.6667V52H78.6667ZM63.6667 22L32 38.6667V45.3333H95.3333V38.6667L63.6667 22Z" fill="black"/>
</svg>
