<svg width="85" height="81" viewBox="0 0 85 81" fill="none" xmlns="http://www.w3.org/2000/svg">
<path d="M78.2833 16.4854C85.9634 27.0411 86.8782 41.5759 81.9425 51.6986C76.9855 61.8214 66.9471 69.2907 50.4388 72.3615C33.9306 75.4323 35.3355 81.9152 21.6372 80.8916C7.93882 79.868 2.4393 70.3361 0.56713 56.6672C-1.30504 42.9984 1.43939 29.9481 9.07697 19.3923C16.7146 8.83661 29.2453 0.775496 42.7121 0.0539126C56.2002 -0.66767 70.6031 5.90904 78.2833 16.4854Z" fill="#02CE9D" fill-opacity="0.3"/>
<path d="M35.2 74V53.1765H48.8V74H65.8V46.2353H76L42 15L8 46.2353H18.2V74H35.2Z" fill="black"/>
</svg>
