<svg width="121" height="75" fill="none" xmlns="http://www.w3.org/2000/svg"><path fill-rule="evenodd" clip-rule="evenodd" d="M87.448 63.823c-6.024 5.008-14.151 5.496-21.865 6.842-7.873 1.373-15.87 3.867-23.376 1.05-7.996-3-15.037-9-18.6-16.802-3.492-7.646-1.956-16.353-.294-24.572 1.589-7.862 3.725-15.96 9.585-21.383 5.739-5.313 13.84-6.584 21.604-7.49 7.48-.872 15.075-.764 21.935 2.41 7.068 3.271 12.81 8.771 16.778 15.505 4.171 7.077 7.125 15.131 6.07 23.264-1.07 8.244-5.478 15.89-11.837 21.176z" fill="#89DDEF"/><path d="M91.626 41.283H81.374c-2.14 0-3.874 1.687-3.874 3.767V63h18V45.05c0-2.08-1.735-3.767-3.874-3.767z" fill="#fff"/><path d="M86.5 41.283c3.773 0 6.831-2.973 6.831-6.641 0-3.669-3.058-6.642-6.831-6.642-3.773 0-6.831 2.974-6.831 6.642s3.058 6.641 6.83 6.641z" fill="#fff"/><path d="M91.626 41.283H81.374c-2.14 0-3.874 1.687-3.874 3.767V63h18V45.05c0-2.08-1.735-3.767-3.874-3.767z" stroke="#000" stroke-width="3" stroke-miterlimit="10" stroke-linecap="round" stroke-linejoin="round"/><path d="M86.5 41.283c3.773 0 6.831-2.973 6.831-6.641 0-3.669-3.058-6.642-6.831-6.642-3.773 0-6.831 2.974-6.831 6.642s3.058 6.641 6.83 6.641z" stroke="#000" stroke-width="3" stroke-miterlimit="10" stroke-linecap="round" stroke-linejoin="round"/><path d="M40.626 41.283H30.374c-2.14 0-3.874 1.687-3.874 3.767V63h18V45.05c0-2.08-1.735-3.767-3.874-3.767z" fill="#fff"/><path d="M35.5 41.283c3.773 0 6.831-2.973 6.831-6.641 0-3.669-3.058-6.642-6.831-6.642-3.773 0-6.831 2.974-6.831 6.642s3.058 6.641 6.83 6.641z" fill="#fff"/><path d="M40.626 41.283H30.374c-2.14 0-3.874 1.687-3.874 3.767V63h18V45.05c0-2.08-1.735-3.767-3.874-3.767z" stroke="#000" stroke-width="3" stroke-miterlimit="10" stroke-linecap="round" stroke-linejoin="round"/><path d="M35.5 41.283c3.773 0 6.831-2.973 6.831-6.641 0-3.669-3.058-6.642-6.831-6.642-3.773 0-6.831 2.974-6.831 6.642s3.058 6.641 6.83 6.641z" stroke="#000" stroke-width="3" stroke-miterlimit="10" stroke-linecap="round" stroke-linejoin="round"/><path d="M68.5 19a8 8 0 00-16 0 1.6 1.6 0 003.2 0 4.8 4.8 0 114.8 4.8 1.6 1.6 0 00-1.6 1.6v3.2a1.6 1.6 0 003.2 0v-1.76A8 8 0 0068.5 19zM60.5 36.6a1.6 1.6 0 100-3.2 1.6 1.6 0 000 3.2z" fill="#000"/></svg>