<svg width="100" height="75" fill="none" xmlns="http://www.w3.org/2000/svg"><path fill-rule="evenodd" clip-rule="evenodd" d="M82.361 41.049c-.898 9.702-.402 20.36-7.85 26.655-7.637 6.455-18.494 6.018-28.266 3.873-9.896-2.172-19.175-6.772-24.409-15.435-5.92-9.798-9.456-22.033-4.448-32.325 4.994-10.264 17.096-13.495 28.15-16.389C57.261 4.36 71.151-.764 80.095 7.402c8.74 7.98 3.357 21.87 2.266 33.647z" fill="#FFD29C"/><path d="M64.736 7.77l-33.692-.028c-2.747 0-4.976 2.233-4.976 4.995L26 60.693c-.007 2.761 2.221 5.008 4.97 5.008l36.986.028c2.747 0 4.976-2.233 4.976-4.995L73 16.207 64.736 7.77z" fill="#fff"/><path d="M64.736 16.207V7.77l8.196 8.437h-8.196z" fill="#fff"/><path d="M64.736 7.77l-33.692-.028c-2.747 0-4.976 2.233-4.976 4.995L26 60.693c-.007 2.761 2.221 5.008 4.97 5.008l36.986.028c2.747 0 4.976-2.233 4.976-4.995L73 16.207 64.736 7.77zm0 0v8.437h8.196L64.736 7.77zm-22.7-.034v58" stroke="#000" stroke-width="3" stroke-miterlimit="10" stroke-linecap="round" stroke-linejoin="round"/><path d="M60.928 55.21c0-1.552-1.155-1.999-2.399-2.246l-.663-.124c-.977-.186-1.053-.453-1.053-.81 0-.468.445-.75 1.19-.75.882 0 1.107.42 1.203.736l.007.027c.109.275.369.44.69.44.082 0 .157-.014.212-.02.342-.063.588-.324.588-.633a.662.662 0 00-.041-.227c-.178-.536-.677-1.388-2.05-1.58v-.92c0-.77-1.272-.77-1.272 0v.927c-1.477.22-2.024 1.175-2.024 2.006 0 1.512 1.108 1.93 2.195 2.144l.717.144c1.019.2 1.197.447 1.197.907 0 .556-.5.893-1.333.893-1.08 0-1.306-.46-1.45-.982-.088-.289-.362-.475-.697-.475-.075 0-.13.007-.205.021l-.02.007c-.349.076-.581.337-.581.646 0 .062.013.11.02.151l.014.048c.157.502.506 1.6 2.235 1.848v.969c0 .385.321.584.636.584.314 0 .635-.2.635-.584v-.948c1.36-.192 2.25-1.024 2.25-2.199z" fill="#02CEAA"/><path d="M53.895 39.944h13.903" stroke="#000" stroke-width="3" stroke-miterlimit="10" stroke-linecap="round" stroke-linejoin="round"/><path d="M49.986 37.794h-3.609v3.628h3.61v-3.628z" fill="#fff" stroke="#000" stroke-width="2" stroke-miterlimit="10" stroke-linecap="round" stroke-linejoin="round"/><path d="M53.895 24.788h13.903" stroke="#000" stroke-width="3" stroke-miterlimit="10" stroke-linecap="round" stroke-linejoin="round"/><path d="M49.986 22.638h-3.609v3.627h3.61v-3.627z" fill="#fff" stroke="#000" stroke-width="2" stroke-miterlimit="10" stroke-linecap="round" stroke-linejoin="round"/><path d="M30.143 29.556h7.204M30.143 40.04h7.204m-7.204 10.485h7.204" stroke="#000" stroke-width="3" stroke-miterlimit="10" stroke-linecap="round" stroke-linejoin="round"/><path d="M33.335 16.715v3.78m1.907-1.89h-3.76" stroke="#FF9214" stroke-width="2" stroke-miterlimit="10" stroke-linecap="round" stroke-linejoin="round"/></svg>
