<svg width="103" height="107" viewBox="0 0 103 107" fill="none" xmlns="http://www.w3.org/2000/svg">
<path d="M18.2516 24.4917C26.6649 14.0992 40.8087 9.34001 52.1355 11.5351C63.4679 13.7511 73.5201 21.6948 80.9327 37.2013C88.3453 52.7078 94.3897 49.5995 97.0054 63.4139C99.621 77.2283 91.6435 85.1934 78.6104 90.6694C65.5772 96.1454 51.9333 96.8932 39.4622 92.1418C26.9912 87.3903 15.693 77.1397 11.4113 64.017C7.12394 50.8733 9.81795 34.8896 18.2516 24.4917Z" fill="#02CE9D" fill-opacity="0.3"/>
<path d="M85 39H75.76L79.75 28.01L71.525 25L66.415 39H22V46L29 67L22 88V95H85V88L78 67L85 46V39ZM67.5 70.5H57V81H50V70.5H39.5V63.5H50V53H57V63.5H67.5V70.5Z" fill="black"/>
</svg>
