<svg width="101" height="104" viewBox="0 0 101 104" fill="none" xmlns="http://www.w3.org/2000/svg">
<path d="M82.5775 79.8826C74.3693 90.033 60.5665 94.6785 49.5112 92.531C38.4504 90.3629 28.6375 82.5997 21.3987 67.4487C14.1598 52.2977 8.26151 55.3327 5.70485 41.8362C3.14818 28.3397 10.9319 20.5605 23.6504 15.2144C36.369 9.86824 49.6849 9.14147 61.8577 13.7868C74.0305 18.4321 85.0602 28.4495 89.2426 41.2707C93.4306 54.1124 90.8057 69.7268 82.5775 79.8826Z" fill="#02CE9D" fill-opacity="0.3"/>
<path fill-rule="evenodd" clip-rule="evenodd" d="M51.1286 82.05H45.2H24.45V48.85H18.5L53.5 11.5L87 48.85H82.55V82.05H61.8H54.0929H51.1286ZM44.4341 62.4857L64.1714 42.7484L61.3802 39.9571L41.6429 59.6944L44.4341 62.4857ZM50.7501 45.1169C50.7501 46.861 49.3362 48.2749 47.5921 48.2749C45.848 48.2749 44.4341 46.861 44.4341 45.1169C44.4341 43.3728 45.848 41.9589 47.5921 41.9589C49.3362 41.9589 50.7501 43.3728 50.7501 45.1169ZM62.5924 56.1698C62.5924 57.9139 61.1786 59.3277 59.4345 59.3277C57.6904 59.3277 56.2765 57.9139 56.2765 56.1698C56.2765 54.4257 57.6904 53.0118 59.4345 53.0118C61.1786 53.0118 62.5924 54.4257 62.5924 56.1698Z" fill="black"/>
</svg>
