<svg width="100" height="75" viewBox="0 0 100 75" fill="none" xmlns="http://www.w3.org/2000/svg">
  <path fill-rule="evenodd" clip-rule="evenodd" d="M46.9512 70.3614C37.249 69.463 26.5919 69.9589 20.2964 62.5111C13.8411 54.8742 14.2777 44.0174 16.4228 34.2449C18.5949 24.3488 23.1955 15.0703 31.8584 9.83614C41.6561 3.91634 53.8907 0.380162 64.183 5.38798C74.4466 10.3818 77.6782 22.4839 80.5718 33.5381C83.6405 45.261 88.7636 59.1512 80.5976 68.095C72.6171 76.8358 58.7274 71.4519 46.9512 70.3614Z" fill="#FFD29C"/>
  <path d="M69.9555 5.02748L33.0444 5C30.2966 5 28.0684 7.23288 28.0684 9.99479L28 57.9502C27.9932 60.7122 30.2214 62.9588 32.9693 62.9588L69.9555 62.9863C72.7033 62.9863 74.9317 60.7534 74.9317 57.9915L75 9.99479C75 9.99479 75 5.02748 69.9555 5.02748Z" fill="white" stroke="black" stroke-width="3" stroke-miterlimit="10" stroke-linecap="round" stroke-linejoin="round"/>
  <path d="M54.7896 52.4681C54.7896 50.9154 53.6344 50.4688 52.3904 50.2215L51.7274 50.0978C50.7499 49.9123 50.6747 49.6444 50.6747 49.2871C50.6747 48.8199 51.119 48.5382 51.8641 48.5382C52.7458 48.5382 52.9714 48.9573 53.0671 49.2734L53.0739 49.3009C53.1833 49.5757 53.4431 49.7406 53.7643 49.7406C53.8463 49.7406 53.9215 49.7268 53.9762 49.7199C54.3179 49.6581 54.564 49.397 54.564 49.0879C54.564 49.0123 54.5504 48.9367 54.523 48.8611C54.3453 48.3253 53.8463 47.4733 52.4724 47.2809V46.3603C52.4724 45.5908 51.2011 45.5908 51.2011 46.3603V47.2878C49.7246 47.5077 49.1777 48.4627 49.1777 49.294C49.1777 50.8055 50.2851 51.2246 51.3719 51.4375L52.0896 51.5818C53.1081 51.7811 53.2858 52.0284 53.2858 52.4887C53.2858 53.0452 52.7868 53.3819 51.9529 53.3819C50.8729 53.3819 50.6474 52.9216 50.5038 52.3994C50.415 52.1109 50.1415 51.9253 49.8066 51.9253C49.7314 51.9253 49.6767 51.9322 49.6015 51.946L49.5811 51.9528C49.2325 52.0284 49 52.2895 49 52.5987C49 52.6605 49.0137 52.7086 49.0205 52.7498L49.0342 52.7979C49.1914 53.2994 49.54 54.3987 51.2694 54.646V55.6148C51.2694 55.9995 51.5906 56.1987 51.905 56.1987C52.2195 56.1987 52.5408 55.9995 52.5408 55.6148V54.6666C53.901 54.4743 54.7896 53.643 54.7896 52.4681Z" fill="#02CEAA"/>
  <path d="M44 29.8375H66" stroke="black" stroke-width="3" stroke-miterlimit="10" stroke-linecap="round" stroke-linejoin="round"/>
  <path d="M44 39.8375H66" stroke="black" stroke-width="3" stroke-miterlimit="10" stroke-linecap="round" stroke-linejoin="round"/>
  <path d="M39.6091 27.9937H36V31.6212H39.6091V27.9937Z" fill="white" stroke="black" stroke-width="2" stroke-miterlimit="10" stroke-linecap="round" stroke-linejoin="round"/>
  <path d="M39.6091 37.9937H36V41.6212H39.6091V37.9937Z" fill="white" stroke="black" stroke-width="2" stroke-miterlimit="10" stroke-linecap="round" stroke-linejoin="round"/>
  <path d="M44 19.9937H66" stroke="black" stroke-width="3" stroke-miterlimit="10" stroke-linecap="round" stroke-linejoin="round"/>
  <path d="M39.6091 17.9937H36V21.6212H39.6091V17.9937Z" fill="white" stroke="black" stroke-width="2" stroke-miterlimit="10" stroke-linecap="round" stroke-linejoin="round"/>
  <path d="M64.7361 9.02748L31.0444 9C28.2966 9 26.0684 11.2329 26.0684 13.9948L26 61.9502C25.9932 64.7122 28.2214 66.9588 30.9693 66.9588L67.9555 66.9863C70.7033 66.9863 72.9317 64.7534 72.9317 61.9915L73 17.4643L64.7361 9.02748Z" fill="white"/>
  <path d="M64.736 17.4652L64.7361 9.02748L72.9317 17.4652H64.736Z" fill="white"/>
  <path d="M64.7361 9.02748L31.0444 9C28.2966 9 26.0684 11.2329 26.0684 13.9948L26 61.9502C25.9932 64.7121 28.2214 66.9588 30.9693 66.9588L67.9555 66.9863C70.7033 66.9863 72.9317 64.7534 72.9317 61.9915L73 17.4643L64.7361 9.02748ZM64.7361 9.02748L64.736 17.4652H72.9317L64.7361 9.02748Z" stroke="black" stroke-width="3" stroke-miterlimit="10" stroke-linecap="round" stroke-linejoin="round"/>
  <path d="M49.2105 52.9582C56.8262 52.9582 63 46.5936 63 38.7424C63 30.8912 56.8262 24.5266 49.2105 24.5266C41.5947 24.5266 35.4209 30.8912 35.4209 38.7424C35.4209 46.5936 41.5947 52.9582 49.2105 52.9582Z" stroke="#D73D02" stroke-width="4" stroke-miterlimit="10" stroke-linecap="round" stroke-linejoin="round"/>
  <path d="M39.9792 48.1705L58.2701 29.3144" stroke="#D73D02" stroke-width="4" stroke-miterlimit="10" stroke-linecap="round" stroke-linejoin="round"/>
</svg>