<svg width="100" height="75" viewBox="0 0 100 75" fill="none" xmlns="http://www.w3.org/2000/svg">
  <g clip-path="url(#clip0_10520_3958)">
    <path fill-rule="evenodd" clip-rule="evenodd" d="M42.3206 70.2483C32.2025 69.3114 21.0887 69.8286 14.5234 62.0616C7.79146 54.0974 8.24678 42.7753 10.4837 32.584C12.749 22.2637 17.5467 12.5876 26.5809 7.12912C36.7985 0.955616 49.5575 -2.73211 60.2909 2.49032C70.9943 7.6982 74.3644 20.319 77.382 31.8469C80.5822 44.0722 85.9248 58.5577 77.409 67.8848C69.0864 77.0002 54.6014 71.3855 42.3206 70.2483Z" fill="#C6F9EC"/>
    <path d="M65.0315 66.6616H26.3949C23.9624 66.6616 22 64.6308 22 62.1308V8.53852C22 6.03083 23.9699 4.00775 26.3949 4.00775H58.8308L69.4189 15.1924V62.1308C69.4264 64.6308 67.4566 66.6616 65.0315 66.6616Z" fill="white"/>
    <path d="M58.8383 15.1846V4L69.4264 15.1846H58.8383Z" fill="white"/>
    <path d="M65.0315 66.6616H26.3949C23.9624 66.6616 22 64.6308 22 62.1308V8.53852C22 6.03083 23.9699 4.00775 26.3949 4.00775H58.8308L69.4189 15.1924V62.1308C69.4264 64.6308 67.4566 66.6616 65.0315 66.6616Z" stroke="black" stroke-width="3" stroke-miterlimit="10" stroke-linecap="round" stroke-linejoin="round"/>
    <path d="M58.8383 15.1846V4L69.4264 15.1846H58.8383Z" stroke="black" stroke-width="3" stroke-miterlimit="10" stroke-linecap="round" stroke-linejoin="round"/>
    <path d="M29.3198 29.3848H62.1065" stroke="black" stroke-width="3" stroke-miterlimit="10" stroke-linecap="round" stroke-linejoin="round"/>
    <path d="M29.3198 37.3462H62.1065" stroke="black" stroke-width="3" stroke-miterlimit="10" stroke-linecap="round" stroke-linejoin="round"/>
    <path d="M29.3198 45.2847H62.1065" stroke="black" stroke-width="3" stroke-miterlimit="10" stroke-linecap="round" stroke-linejoin="round"/>
    <path d="M48.4367 18.8538C48.4367 17.1153 47.1758 16.6153 45.8178 16.3384L45.0939 16.1999C44.0269 15.9922 43.9449 15.6922 43.9449 15.2922C43.9449 14.7691 44.4299 14.4538 45.2432 14.4538C46.2057 14.4538 46.452 14.923 46.5565 15.2768L46.5639 15.3076C46.6833 15.6153 46.9668 15.7999 47.3175 15.7999C47.407 15.7999 47.4891 15.7845 47.5488 15.7768C47.9219 15.7076 48.1905 15.4153 48.1905 15.0691C48.1905 14.9845 48.1756 14.8999 48.1458 14.8153C47.9518 14.2153 47.4071 13.2614 45.9073 13.0461V12.0153C45.9073 11.1538 44.5193 11.1538 44.5193 12.0153V13.0538C42.9076 13.2999 42.3107 14.3691 42.3107 15.2999C42.3107 16.9922 43.5195 17.4615 44.7059 17.6999L45.4894 17.8615C46.6012 18.0845 46.7952 18.3615 46.7952 18.8768C46.7952 19.4999 46.2505 19.8768 45.3402 19.8768C44.1613 19.8768 43.915 19.3615 43.7583 18.7768C43.6613 18.4538 43.3628 18.2461 42.9972 18.2461C42.9151 18.2461 42.8554 18.2538 42.7733 18.2691L42.7509 18.2768C42.3704 18.3615 42.1167 18.6538 42.1167 18.9999C42.1167 19.0691 42.1316 19.123 42.1391 19.1691L42.154 19.223C42.3257 19.7845 42.7062 21.0153 44.594 21.2922V22.3768C44.594 22.8076 44.9447 23.0307 45.2879 23.0307C45.6311 23.0307 45.9819 22.8076 45.9819 22.3768V21.3153C47.4668 21.1076 48.4367 20.1768 48.4367 18.8538Z" fill="#02CEAA"/>
    <path d="M66.2105 72.0001C72.1694 72.0001 77 67.0201 77 60.877C77 54.7339 72.1694 49.7539 66.2105 49.7539C60.2515 49.7539 55.4209 54.7339 55.4209 60.877C55.4209 67.0201 60.2515 72.0001 66.2105 72.0001Z" fill="#FFD29C" stroke="black" stroke-width="3" stroke-miterlimit="10" stroke-linecap="round" stroke-linejoin="round"/>
    <path d="M58.9873 68.2539L73.2988 53.5" stroke="black" stroke-width="3" stroke-miterlimit="10" stroke-linecap="round" stroke-linejoin="round"/>
  </g>
  <defs>
    <clipPath id="clip0_10520_3958">
      <rect width="100" height="75" fill="white"/>
    </clipPath>
  </defs>
</svg>
