<svg width="101" height="75" fill="none" xmlns="http://www.w3.org/2000/svg"><path fill-rule="evenodd" clip-rule="evenodd" d="M68.503 15.29c6.785 5.7 13.963 11.486 15.715 20.19 2.119 10.519 2.418 23.257-5.508 30.5-7.823 7.149-19.864 2.647-30.434 2.346-10.034-.286-21.308 2.781-28.68-4.03-7.502-6.931-7.533-18.523-6.784-28.734.687-9.357 3.574-18.797 10.72-24.873 6.71-5.707 16.072-6.238 24.816-5.343 7.75.793 14.19 4.934 20.155 9.944z" fill="#C6F9EC"/><path d="M72.227 13H26.783c-4.58 0-8.283 3.813-8.283 8.507v24.59c0 4.705 3.712 8.507 8.283 8.507H55.05V63l8.174-8.396h8.994c4.58 0 8.283-3.813 8.283-8.507v-24.58C80.51 16.813 76.808 13 72.227 13z" fill="#fff" stroke="#000" stroke-width="3" stroke-miterlimit="10" stroke-linecap="round" stroke-linejoin="round"/><path stroke="#8E8EEF" stroke-width="3" stroke-linecap="round" stroke-linejoin="round" d="M29.5 29.5h40M29.5 38.5h40"/><circle cx="74.5" cy="17" r="8.5" fill="#FFD29C" stroke="#fff" stroke-width="3"/></svg>
