<svg width="116" height="114" viewBox="0 0 116 114" fill="none" xmlns="http://www.w3.org/2000/svg">
<path d="M101.164 54.0029C102.536 67.1435 95.9731 80.3582 86.5274 86.7469C77.0632 93.125 64.4978 94.6083 48.5006 88.9647C32.5034 83.3212 30.4485 89.7188 18.9835 81.902C7.51857 74.0852 7.53602 62.9444 12.8223 50.0059C18.1087 37.0673 27.1204 27.0032 39.1489 21.5992C51.1775 16.1952 66.223 15.4514 78.3695 21.62C90.5346 27.7994 99.8029 40.8443 101.164 54.0029Z" fill="#02CE9D" fill-opacity="0.3"/>
<path d="M86.6457 39.5236H41.6629C38.5703 39.5236 36.0682 42.0538 36.0682 45.1464L36.04 95.752L47.2857 84.5063H86.6457C89.7382 84.5063 92.2685 81.9761 92.2685 78.8835V45.1464C92.2685 42.0538 89.7382 39.5236 86.6457 39.5236ZM47.2857 59.2035H81.0228V64.8264H47.2857V59.2035ZM69.7771 73.2606H47.2857V67.6378H69.7771V73.2606ZM81.0228 56.3921H47.2857V50.7693H81.0228V56.3921Z" fill="black"/>
</svg>
