<svg width="127" height="125" viewBox="0 0 127 125" fill="none" xmlns="http://www.w3.org/2000/svg">
<path d="M110.599 59.2242C112.077 73.4701 104.959 87.8012 94.7208 94.7335C84.4626 101.654 70.8473 103.27 53.5181 97.1611C36.1889 91.0522 33.9586 97.9896 21.5413 89.5218C9.12402 81.0539 9.14968 68.9752 14.8852 54.9443C20.6207 40.9134 30.3907 29.9966 43.4267 24.1305C56.4627 18.2643 72.7647 17.4487 85.9214 24.1292C99.0982 30.8214 109.132 44.9587 110.599 59.2242Z" fill="#02CE9D" fill-opacity="0.3"/>
<path d="M102.3 38.3684H90.75V30.6842C90.75 26.4195 87.3235 23 83.05 23H59.95C55.6765 23 52.25 26.4195 52.25 30.6842V38.3684H40.7C36.4265 38.3684 33 41.7879 33 46.0526V88.3158C33 92.5805 36.4265 96 40.7 96H102.3C106.574 96 110 92.5805 110 88.3158V46.0526C110 41.7879 106.574 38.3684 102.3 38.3684ZM59.95 30.6842H83.05V38.3684H59.95V30.6842ZM102.3 88.3158H40.7V80.6316H102.3V88.3158ZM102.3 69.1053H40.7V46.0526H52.25V53.7368H59.95V46.0526H83.05V53.7368H90.75V46.0526H102.3V69.1053Z" fill="black"/>
</svg>
