<svg width="123" height="123" viewBox="0 0 123 123" fill="none" xmlns="http://www.w3.org/2000/svg">
<path d="M105.204 70.0004C103.105 83.3144 93.1609 94.594 82.1668 98.3811C71.1571 102.153 58.3747 100.277 44.0801 90.4663C29.7855 80.6556 26.0782 86.4145 16.8244 75.666C7.57061 64.9176 10.5146 53.9432 19.1273 42.5968C27.74 31.2504 39.2717 23.726 52.5546 21.5955C65.8375 19.465 80.8715 22.7283 91.2304 32.0335C101.605 41.3543 107.319 56.6715 105.204 70.0004Z" fill="#02CE9D" fill-opacity="0.3"/>
<path d="M62.3111 60.7222C53.4833 58.4278 50.6444 56.0556 50.6444 52.3611C50.6444 48.1222 54.5722 45.1667 61.1444 45.1667C68.0667 45.1667 70.6333 48.4722 70.8667 53.3333H79.4611C79.1889 46.6444 75.1056 40.5 66.9778 38.5167V30H55.3111V38.4C47.7667 40.0333 41.7 44.9333 41.7 52.4389C41.7 61.4222 49.1278 65.8944 59.9778 68.5C69.7 70.8333 71.6444 74.2556 71.6444 77.8722C71.6444 80.5556 69.7389 84.8333 61.1444 84.8333C53.1333 84.8333 49.9833 81.2556 49.5556 76.6667H41C41.4667 85.1833 47.8444 89.9667 55.3111 91.5611V100H66.9778V91.6389C74.5611 90.2 80.5889 85.8056 80.5889 77.8333C80.5889 66.7889 71.1389 63.0167 62.3111 60.7222Z" fill="black"/>
</svg>
