<svg width="100" height="75" fill="none" xmlns="http://www.w3.org/2000/svg"><path fill-rule="evenodd" clip-rule="evenodd" d="M72.442 11.715c7.807 6.49 16.067 13.076 18.083 22.985 2.438 11.976 2.782 26.477-6.338 34.723-9.002 8.139-22.857 3.014-35.02 2.671-11.546-.325-24.519 3.166-33.001-4.587-8.633-7.892-8.67-21.088-7.807-32.714.791-10.652 4.113-21.4 12.335-28.317C28.416-.02 39.188-.624 49.25.394c8.917.903 16.328 5.617 23.192 11.32z" fill="#FFD29C"/><path d="M21.17 2L15 39.494l62.075 10.202 6.17-37.494L21.17 2z" fill="#C6F9EC" stroke="#000" stroke-width="3" stroke-miterlimit="10" stroke-linecap="round" stroke-linejoin="round"/><path d="M39.027 23.678c-.891 5.422 2.804 10.555 8.227 11.445a9.904 9.904 0 007.43-1.74 9.9 9.9 0 004.025-6.472 9.845 9.845 0 00-1.743-7.419 9.92 9.92 0 00-6.483-4.026c-5.422-.898-10.564 2.79-11.456 8.213zm18.485 3.032a8.704 8.704 0 01-3.534 5.694c-1.92 1.364-4.226 1.91-6.532 1.524-4.771-.786-8.009-5.293-7.23-10.057a8.747 8.747 0 013.631-5.758 8.746 8.746 0 016.435-1.46 8.723 8.723 0 015.704 3.529 8.685 8.685 0 011.526 6.528z" fill="#000" stroke="#000" stroke-miterlimit="10"/><path d="M79.139 14.64L29.524 6.483a.471.471 0 00-.105-.016l-5.141-.85a.606.606 0 00-.691.497l-4.973 30.244c-.024.16.016.321.105.45a.624.624 0 00.393.248l54.861 9.015a.615.615 0 00.442-.096l.008-.008a.623.623 0 00.249-.393l4.973-30.244a.607.607 0 00-.506-.69zm-54.46-7.732l4.347.714c.401.658.554 1.42.425 2.19a3.175 3.175 0 01-1.3 2.093c-.009.008-.025.016-.033.024-1.293.898-3.085.73-4.177-.417l-.008-.008.747-4.596zM19.9 35.965l.764-4.651a3.213 3.213 0 014.233.906 3.16 3.16 0 01.563 2.398 3.218 3.218 0 01-1.245 2.053l-4.314-.706zm53.664 8.823l-4.354-.714c-.016-.048-.032-.105-.064-.145a3.16 3.16 0 01-.562-2.398 3.175 3.175 0 011.301-2.093 3.208 3.208 0 012.402-.561c.82.136 1.543.57 2.04 1.235l-.763 4.676zm1.013-6.168a4.402 4.402 0 00-2.09-.946 4.403 4.403 0 00-3.26.737c-.017.009-.033.025-.049.033a4.406 4.406 0 00-1.791 2.879 4.406 4.406 0 00.313 2.494l-42.007-6.905c1.245-1.516 1.381-3.738.184-5.406a4.428 4.428 0 00-4.988-1.628l2.795-16.987c1.495 1.059 3.56 1.107 5.11.024.016-.008.032-.024.048-.032a4.407 4.407 0 001.791-2.879 4.412 4.412 0 00-.176-2.15l42.352 6.962a4.421 4.421 0 00-.177 5.39 4.442 4.442 0 004.684 1.708l-2.74 16.706zm2.972-18.037a3.234 3.234 0 01-3.928-1.067 3.217 3.217 0 01.674-4.443l4.05.665-.796 4.845z" fill="#000" stroke="#000" stroke-miterlimit="10"/><path d="M18.23 17.39l-.048 26.86 67.77.096.048-26.86-67.77-.095z" fill="#fff" stroke="#000" stroke-width="3" stroke-miterlimit="10" stroke-linecap="round" stroke-linejoin="round"/><path d="M25.314 26.975h26.623M25.314 33.96H61.33" stroke="#000" stroke-width="3" stroke-miterlimit="10" stroke-linecap="round" stroke-linejoin="round"/><path d="M79.83 32.613c0-1.813-1.358-2.334-2.82-2.623l-.78-.144c-1.148-.217-1.236-.53-1.236-.946 0-.546.522-.875 1.397-.875 1.037 0 1.302.49 1.414.859l.008.032c.129.32.434.513.812.513.096 0 .184-.016.249-.024.401-.072.69-.377.69-.738a.767.767 0 00-.048-.265c-.209-.625-.795-1.62-2.41-1.844v-1.075c0-.898-1.494-.898-1.494 0v1.083c-1.735.256-2.378 1.371-2.378 2.342 0 1.764 1.302 2.253 2.579 2.502l.843.168c1.197.233 1.406.522 1.406 1.059 0 .65-.586 1.043-1.566 1.043-1.27 0-1.535-.538-1.703-1.147-.105-.337-.426-.554-.82-.554-.088 0-.152.008-.24.024l-.025.008c-.41.089-.683.393-.683.754 0 .072.016.129.024.177l.017.056c.184.585.594 1.869 2.626 2.157v1.131c0 .45.378.682.748.682s.747-.233.747-.682V35.18c1.598-.216 2.643-1.187 2.643-2.566z" fill="#3D3DE1"/><path d="M41.529 72.496V62.084c-4.162 0-7.529-3.384-7.529-7.55v-21.32A4.21 4.21 0 0138.203 29a4.21 4.21 0 014.202 4.214v13" fill="#fff"/><path d="M42.405 43.965l22.748 3.88c0 8.16-1.5 14.239-7.869 14.239v10.412H41.53" fill="#fff"/><path d="M41.529 72.496V62.084c-4.162 0-7.529-3.384-7.529-7.55v-21.32A4.21 4.21 0 0138.203 29a4.21 4.21 0 014.202 4.214v13" fill="#fff"/><path d="M41.529 72.496V62.084c-4.162 0-7.529-3.384-7.529-7.55v-21.32A4.21 4.21 0 0138.203 29a4.21 4.21 0 014.202 4.214v13m0-2.25l22.748 3.881c0 8.16-1.5 14.239-7.869 14.239v10.412" stroke="#000" stroke-width="3" stroke-miterlimit="10" stroke-linecap="round" stroke-linejoin="round"/></svg>