<svg width="135" height="135" viewBox="0 0 135 135" fill="none" xmlns="http://www.w3.org/2000/svg">
<path d="M19.5001 58.2276C21.8188 43.5234 32.801 31.0659 44.9431 26.8834C57.1024 22.718 71.2195 24.7896 87.0068 35.6247C102.794 46.4598 106.889 40.0996 117.109 51.9704C127.329 63.8412 124.077 75.9615 114.565 88.4927C105.053 101.024 92.3173 109.334 77.6474 111.687C62.9775 114.04 46.3736 110.436 34.933 100.159C23.4753 89.865 17.1648 72.9484 19.5001 58.2276Z" fill="#02CE9D" fill-opacity="0.3"/>
<path d="M77 43C57.68 43 42 58.68 42 78C42 97.32 57.68 113 77 113C96.32 113 112 97.32 112 78C112 58.68 96.32 43 77 43ZM81.935 99.315V106H72.59V99.245C66.605 97.985 61.53 94.135 61.145 87.345H68.005C68.355 91.02 70.875 93.89 77.28 93.89C84.14 93.89 85.68 90.46 85.68 88.325C85.68 85.42 84.14 82.69 76.335 80.835C67.655 78.735 61.705 75.165 61.705 67.99C61.705 61.97 66.57 58.05 72.59 56.755V50H81.935V56.825C88.445 58.4 91.7 63.335 91.91 68.69H85.05C84.875 64.805 82.81 62.145 77.28 62.145C72.03 62.145 68.88 64.525 68.88 67.885C68.88 70.825 71.155 72.75 78.225 74.57C85.295 76.39 92.855 79.435 92.855 88.255C92.82 94.66 88.025 98.16 81.935 99.315Z" fill="black"/>
</svg>
