<svg width="100" height="75" fill="none" xmlns="http://www.w3.org/2000/svg"><path fill-rule="evenodd" clip-rule="evenodd" d="M84.881 29.864c1.565 6.324.471 12.742-.816 19.118-1.427 7.071-1.443 15.517-7.073 19.965-5.627 4.446-13.824 1.377-20.944 2.17-7.056.786-13.887 4.446-20.721 2.47-7.351-2.127-14.608-6.725-17.955-13.656-3.285-6.8.317-14.638.649-22.18.322-7.33-2.442-15.23 1.274-21.528 3.76-6.375 11.143-9.847 18.294-11.641 6.567-1.649 13.198.579 19.814 2.075 6.268 1.418 12.85 2.267 17.78 6.429 5.026 4.245 8.114 10.374 9.698 16.778z" fill="#C2C2FF"/><path d="M26.218 41.936C20.58 41.936 16 46.501 16 52.108 16 59.738 26.218 71 26.218 71s10.217-11.263 10.217-18.892c-.007-5.607-4.587-10.172-10.217-10.172z" fill="#C6F9EC" stroke="#000" stroke-width="3" stroke-miterlimit="10" stroke-linecap="round" stroke-linejoin="round"/><path d="M26.217 55.923a3.732 3.732 0 10-3.733-3.731 3.732 3.732 0 003.733 3.73z" fill="#C6F9EC" stroke="#000" stroke-width="3" stroke-miterlimit="10" stroke-linecap="round" stroke-linejoin="round"/><path d="M72.087 4C66.45 4 61.869 8.565 61.869 14.172c0 7.629 10.218 18.892 10.218 18.892S82.305 21.8 82.305 14.172C82.305 8.565 77.724 4 72.087 4z" fill="#FFD29C" stroke="#000" stroke-width="3" stroke-miterlimit="10" stroke-linecap="round" stroke-linejoin="round"/><path d="M72.086 17.986a3.732 3.732 0 10.002-7.463 3.732 3.732 0 00-.002 7.463z" fill="#FFD29C" stroke="#000" stroke-width="3" stroke-miterlimit="10" stroke-linecap="round" stroke-linejoin="round"/><path d="M32.682 71H77.73A6.27 6.27 0 0084 64.733v-6.469a6.27 6.27 0 00-6.27-6.267H52.54a6.27 6.27 0 01-6.27-6.267v-6.392a6.27 6.27 0 016.27-6.267h14.2" stroke="#000" stroke-width="3" stroke-linecap="round" stroke-linejoin="round" stroke-dasharray="3 6"/></svg>