<svg width="115" height="98" viewBox="0 0 115 98" fill="none" xmlns="http://www.w3.org/2000/svg">
<path d="M14.0601 78.0547C4.8439 65.2836 3.74613 47.6983 9.66898 35.451C15.6174 23.2037 27.6635 14.1668 47.4734 10.4515C67.2833 6.73618 65.5974 -1.10724 82.0354 0.131193C98.4734 1.36964 105.073 12.902 107.319 29.4396C109.566 45.9772 106.273 61.7665 97.1076 74.5377C87.9425 87.3088 72.9056 97.0617 56.7454 97.9348C40.5597 98.8078 23.2762 90.8508 14.0601 78.0547Z" fill="#02CE9D" fill-opacity="0.3"/>
<path fill-rule="evenodd" clip-rule="evenodd" d="M4.22222 24H46.4444C48.7667 24 50.6667 25.9 50.6667 28.2222L50.6456 57.7778C50.6456 60.1 48.7667 62 46.4444 62H4.22222C1.9 62 0 60.1 0 57.7778V28.2222C0 25.9 1.9 24 4.22222 24ZM19 38.7777C19 36.4415 17.1141 34.5555 14.7778 34.5555C12.4415 34.5555 10.5556 36.4415 10.5556 38.7777C10.5556 41.114 12.4415 43 14.7778 43C17.1141 43 19 41.114 19 38.7777ZM23.2222 51.4444V50.037C23.2222 47.2222 17.5926 45.674 14.7778 45.674C11.963 45.674 6.33333 47.2222 6.33333 50.037V51.4444H23.2222ZM44.3333 47.2222H25.3333V45.1111H44.3333V47.2222ZM44.3333 43H25.3333V40.8889H44.3333V43ZM25.3333 38.7778V36.6667H44.3333V38.7778H25.3333Z" fill="black"/>
<path d="M94 8H66C62.1325 8 59.035 11.1325 59.035 15L59 71C59 74.8675 62.0975 78 65.965 78H108C111.868 78 115 74.8675 115 71V29L94 8ZM101 64H73V57H101V64ZM101 50H73V43H101V50ZM90.5 32.5V13.25L109.75 32.5H90.5Z" fill="black"/>
</svg>
