<svg width="270" height="250" fill="none" xmlns="http://www.w3.org/2000/svg"><path fill-rule="evenodd" clip-rule="evenodd" d="M145.238.096c35.525-1.282 71.829 10.273 95.932 36.557 23.358 25.471 24.536 61.882 26.087 96.501 1.66 37.038 10.752 81.249-17.028 105.613-27.426 24.053-68.613 2.102-104.991 1.401-35.057-.675-72.775 15.496-101.046-5.368C13.404 212.078-2.12 171.492.233 133.154c2.25-36.616 28.775-65.092 55.719-89.816C81.32 20.058 110.92 1.334 145.238.096z" fill="#C6F9EC"/><path d="M114.792 10.3H56v198.616h58.792V10.3z" fill="#fff" stroke="#000" stroke-width="3" stroke-miterlimit="10" stroke-linecap="round" stroke-linejoin="round"/><path d="M69.805 32.72h29.569M69.805 53.926h29.569M69.805 75.13h20.702M69.805 96.328h29.569M69.805 116.969H81.64M69.805 138.174h29.569M69.805 156.859h11.72M91.97 156.859h7.289" stroke="#000" stroke-width="3" stroke-miterlimit="10" stroke-linecap="round" stroke-linejoin="round"/><path d="M91.103 185.535c0-3.022-2.27-3.885-4.725-4.37l-1.304-.246c-1.924-.353-2.075-.881-2.075-1.577 0-.908.878-1.454 2.341-1.454 1.738 0 2.181.819 2.367 1.427l.018.053c.222.538.727.855 1.357.855.16 0 .31-.027.425-.044.683-.124 1.153-.635 1.153-1.234 0-.149-.027-.299-.089-.44-.346-1.049-1.33-2.696-4.034-3.075v-1.797c0-1.498-2.5-1.498-2.5 0v1.806c-2.908.423-3.981 2.282-3.981 3.894 0 2.942 2.19 3.762 4.327 4.176l1.41.282c2.003.379 2.358.872 2.358 1.762 0 1.083-.976 1.735-2.625 1.735-2.128 0-2.562-.898-2.855-1.912-.168-.555-.709-.916-1.374-.916-.142 0-.257.018-.399.044l-.044.009c-.692.15-1.153.661-1.153 1.26 0 .114.018.211.036.291l.017.088c.31.978.993 3.118 4.398 3.594v1.885c0 .749.63 1.146 1.25 1.146s1.25-.397 1.25-1.146v-1.85c2.704-.343 4.451-1.955 4.451-4.246z" fill="#FF9214"/><path d="M204.688 62.836l-86.151-.064c-6.413 0-11.614 5.212-11.614 11.658l-.159 111.928c-.016 6.446 5.185 11.69 11.598 11.69l86.326.064c6.413 0 11.614-5.212 11.614-11.658l.16-112.024s0-11.594-11.774-11.594z" fill="#fff" stroke="#000" stroke-width="3" stroke-miterlimit="10" stroke-linecap="round" stroke-linejoin="round"/><path d="M169.29 173.563c0-3.624-2.696-4.667-5.599-5.244l-1.548-.289c-2.281-.433-2.457-1.058-2.457-1.892 0-1.09 1.037-1.748 2.776-1.748 2.058 0 2.585.978 2.808 1.716l.016.064c.255.642.861 1.026 1.611 1.026.192 0 .367-.032.495-.048.797-.144 1.372-.753 1.372-1.475 0-.176-.032-.353-.096-.529-.415-1.251-1.579-3.239-4.786-3.688v-2.149c0-1.796-2.967-1.796-2.967 0v2.165c-3.446.513-4.723 2.742-4.723 4.682 0 3.528 2.585 4.506 5.121 5.003l1.675.337c2.378.465 2.792 1.042 2.792 2.117 0 1.299-1.164 2.084-3.111 2.084-2.52 0-3.047-1.074-3.382-2.293-.207-.673-.845-1.106-1.627-1.106-.176 0-.303.016-.479.048l-.047.016c-.814.176-1.357.786-1.357 1.507 0 .145.032.257.048.353l.032.112c.367 1.171 1.181 3.737 5.217 4.314v2.261c0 .898.75 1.363 1.484 1.363s1.483-.465 1.483-1.363v-2.213c3.175-.449 5.249-2.389 5.249-5.131z" fill="#02CEAA"/><path d="M144.105 120.743h51.349M144.105 144.083h51.349" stroke="#000" stroke-width="3" stroke-miterlimit="10" stroke-linecap="round" stroke-linejoin="round"/><path d="M133.859 116.439h-8.423v8.467h8.423v-8.467zM133.859 139.779h-8.423v8.467h8.423v-8.467z" fill="#fff" stroke="#000" stroke-width="3" stroke-miterlimit="10" stroke-linecap="round" stroke-linejoin="round"/><path d="M144.105 97.768h51.349" stroke="#000" stroke-width="3" stroke-miterlimit="10" stroke-linecap="round" stroke-linejoin="round"/><path d="M133.859 93.1h-8.423v8.466h8.423v-8.467z" fill="#fff" stroke="#000" stroke-width="3" stroke-miterlimit="10" stroke-linecap="round" stroke-linejoin="round"/><path d="M190.172 72.187l-78.637-.064c-6.413 0-11.614 5.211-11.614 11.657l-.16 111.929c-.015 6.446 5.186 11.689 11.599 11.689l86.326.065c6.413 0 11.614-5.212 11.614-11.658l.16-103.927-19.288-19.691z" fill="#fff"/><path d="M190.172 91.88V72.187L209.3 91.88h-19.128z" fill="#fff"/><path d="M190.172 72.187l-78.637-.064c-6.413 0-11.614 5.211-11.614 11.657l-.16 111.929c-.015 6.446 5.186 11.689 11.599 11.689l86.326.065c6.413 0 11.614-5.212 11.614-11.658l.16-103.927-19.288-19.691zm0 0V91.88H209.3l-19.128-19.693zM137.105 130.093h51.349M118.436 165.468h70.02M118.436 149.129h70.02M118.436 181.806h70.02" stroke="#000" stroke-width="3" stroke-miterlimit="10" stroke-linecap="round" stroke-linejoin="round"/><path d="M126.859 125.79h-8.423v8.466h8.423v-8.466z" fill="#fff" stroke="#8E8EEF" stroke-width="3" stroke-miterlimit="10" stroke-linecap="round" stroke-linejoin="round"/><path d="M137.105 107.118h51.349" stroke="#000" stroke-width="3" stroke-miterlimit="10" stroke-linecap="round" stroke-linejoin="round"/><path d="M126.859 102.449h-8.423v8.467h8.423v-8.467z" fill="#fff" stroke="#8E8EEF" stroke-width="3" stroke-miterlimit="10" stroke-linecap="round" stroke-linejoin="round"/><path d="M95.273 217.894c0 3.26 2.64 5.907 5.893 5.907h58.909c3.253 0 5.892-2.647 5.892-5.907v-35.42c0-3.519-2.856-6.368-6.381-6.368h-57.925c-3.525 0-6.38 2.849-6.38 6.368v35.42h-.008z" fill="#fff" stroke="#000" stroke-width="3" stroke-linejoin="round"/><path d="M125.762 186.216h-22.375v26.972h22.375v-26.972z" fill="#02CE9D" fill-opacity=".3"/><path d="M118.995 205.27c-2.862 3.107-6.535 3.393-9.369 0-2.758 0-5.767 2.849-5.767 5.6v2.206h20.979v-2.206c0-2.744-3.085-5.6-5.843-5.6z" fill="#fff" stroke="#000" stroke-width="3" stroke-linejoin="round"/><path d="M108.244 200.082c0 4.957 2.723 7.708 6.074 7.708 3.274 0 6.109-2.751 6.109-7.708 0-1.655-.552-2.751-.552-2.751-1.661-1.655-3.861-3.644-3.861-3.644-2.213 1.654-3.86 2.541-7.183 3.093-.007-.007-.587.544-.587 3.302z" fill="#fff" stroke="#000" stroke-width="3" stroke-linejoin="round"/><path d="M120.273 201.744c.098-.593.154-1.159.154-1.843 0-1.662-.552-2.765-.552-2.765-1.661-1.662-3.874-3.659-3.874-3.659-2.213 1.662-3.875 2.556-7.198 3.107 0 0-.586.552-.586 3.317 0 .621 0 1.327.083 1.878-1.71-.398-1.71-2.869-1.71-4.643 0-3.868 2.213-7.736 7.756-7.736s7.756 3.868 7.756 7.736c-.014 1.396.049 4.294-1.829 4.608z" fill="#000" stroke="#000" stroke-width="3" stroke-linejoin="round"/><path d="M133.174 190.783h23.559-23.559z" fill="#fff"/><path d="M133.174 190.783h23.559" stroke="#000" stroke-width="3" stroke-linecap="round" stroke-linejoin="round"/><path d="M133.174 199.489h23.559-23.559z" fill="#fff"/><path d="M133.174 199.489h23.559" stroke="#000" stroke-width="3" stroke-linecap="round" stroke-linejoin="round"/><path d="M133.174 207.684h23.559-23.559z" fill="#fff"/><path d="M133.174 207.684h23.559" stroke="#000" stroke-width="3" stroke-linecap="round" stroke-linejoin="round"/><path d="M217.399 189.571h-68.753a4 4 0 00-4 4V232.7a4 4 0 004 4h68.753a4 4 0 004-4v-39.129a4 4 0 00-4-4z" fill="#fff" stroke="#000" stroke-width="3" stroke-miterlimit="10" stroke-linecap="round" stroke-linejoin="round"/><path d="M159.521 215.864h47.004m-47.004 9.392h47.004" stroke="#000" stroke-width="3" stroke-miterlimit="10" stroke-linecap="round" stroke-linejoin="round"/><path d="M152.549 202.089l3.817 3.782m.027-3.809l-3.817 3.782m7.227-3.755l3.817 3.782m.027-3.809l-3.817 3.782m7.847-3.755l3.817 3.782m.027-3.809l-3.817 3.782m26.82-3.755l3.817 3.782m.027-3.809l-3.817 3.782m7.227-3.755l3.817 3.782m.028-3.809l-3.818 3.782m7.847-3.755l3.817 3.782m.028-3.809l-3.818 3.782m-32.213-3.755l3.817 3.782m.028-3.809l-3.818 3.782m7.847-3.755l3.817 3.782m.028-3.809l-3.818 3.782" stroke="#8E8EEF" stroke-width="2" stroke-miterlimit="10" stroke-linecap="round" stroke-linejoin="round"/></svg>