<svg width="138" height="141" viewBox="0 0 138 141" fill="none" xmlns="http://www.w3.org/2000/svg">
<path d="M116.31 93.7408C109.835 108.329 95.0103 118.181 81.2761 119.137C67.5288 120.071 53.4816 113.999 40.132 98.3831C26.7825 82.7674 20.7801 88.2178 13.4834 73.0774C6.18666 57.937 12.9115 46.2847 26.2343 35.9477C39.5571 25.6108 55.0495 20.5436 70.8949 22.1857C86.7403 23.8278 102.939 32.1793 111.941 46.0078C120.956 59.859 122.806 79.1395 116.31 93.7408Z" fill="#02CE9D" fill-opacity="0.3"/>
<path d="M88.625 76.5C94.49 76.5 99.2075 71.78 99.2075 65.9643C99.2075 60.1486 94.49 55.4286 88.625 55.4286C82.76 55.4286 78 60.1486 78 65.9643C78 71.78 82.76 76.5 88.625 76.5ZM56.75 72.2857C63.805 72.2857 69.4575 66.6386 69.4575 59.6429C69.4575 52.6471 63.805 47 56.75 47C49.695 47 44 52.6471 44 59.6429C44 66.6386 49.695 72.2857 56.75 72.2857ZM88.625 84.9286C80.8475 84.9286 65.25 88.8057 65.25 96.5179V106H112V96.5179C112 88.8057 96.4025 84.9286 88.625 84.9286ZM56.75 80.7143C46.8475 80.7143 27 85.645 27 95.4643V106H56.75V96.5179C56.75 92.9357 58.1525 86.6564 66.8225 81.8943C63.125 81.1357 59.555 80.7143 56.75 80.7143Z" fill="black"/>
<path d="M76.5363 33.5333C73.4145 32.7467 72.4106 31.9333 72.4106 30.6667C72.4106 29.2133 73.7996 28.2 76.1238 28.2C78.5717 28.2 79.4794 29.3333 79.5619 31H82.6012C82.5049 28.7067 81.0609 26.6 78.1866 25.92V23H74.0609V25.88C71.3929 26.44 69.2475 28.12 69.2475 30.6933C69.2475 33.7733 71.8743 35.3067 75.7112 36.2C79.1493 37 79.8369 38.1733 79.8369 39.4133C79.8369 40.3333 79.1631 41.8 76.1238 41.8C73.2908 41.8 72.1768 40.5733 72.0255 39H69C69.165 41.92 71.4204 43.56 74.0609 44.1067V47H78.1866V44.1333C80.8684 43.64 83 42.1333 83 39.4C83 35.6133 79.6582 34.32 76.5363 33.5333Z" fill="black"/>
</svg>
