<svg width="138" height="141" viewBox="0 0 138 141" fill="none" xmlns="http://www.w3.org/2000/svg">
<path d="M116.31 93.7408C109.835 108.329 95.0103 118.181 81.2761 119.137C67.5288 120.071 53.4816 113.999 40.132 98.3831C26.7825 82.7674 20.7801 88.2178 13.4834 73.0774C6.18666 57.937 12.9115 46.2847 26.2343 35.9477C39.5571 25.6108 55.0495 20.5436 70.8949 22.1857C86.7403 23.8278 102.939 32.1793 111.941 46.0078C120.956 59.859 122.806 79.1395 116.31 93.7408Z" fill="#02CE9D" fill-opacity="0.3"/>
<path d="M95.9545 63.8409C98.1511 63.8409 99.9318 62.0602 99.9318 59.8636C99.9318 57.667 98.1511 55.8864 95.9545 55.8864C93.758 55.8864 91.9773 57.667 91.9773 59.8636C91.9773 62.0602 93.758 63.8409 95.9545 63.8409Z" fill="black"/>
<path d="M80.0455 63.8409C82.242 63.8409 84.0227 62.0602 84.0227 59.8636C84.0227 57.667 82.242 55.8864 80.0455 55.8864C77.8489 55.8864 76.0682 57.667 76.0682 59.8636C76.0682 62.0602 77.8489 63.8409 80.0455 63.8409Z" fill="black"/>
<path d="M122.809 66.7364C122.936 66.0682 123 65.3682 123 64.6364C123 63.9045 122.936 63.2045 122.809 62.5364C122.014 57.7318 118.482 53.8182 113.868 52.45C112.182 48.8864 109.795 45.7682 106.9 43.1909C101.873 38.7045 95.2545 36 88 36C80.7455 36 74.1273 38.7045 69.1 43.1909C66.1727 45.7682 63.7864 48.9182 62.1318 52.45C57.5182 53.8182 53.9864 57.7 53.1909 62.5364C53.0636 63.2045 53 63.9045 53 64.6364C53 65.3682 53.0636 66.0682 53.1909 66.7364C53.9864 71.5409 57.5182 75.4545 62.1318 76.8227C63.7864 80.3545 66.1727 83.4727 69.0364 86.0182C74.0636 90.5364 80.7136 93.2727 88 93.2727C95.2864 93.2727 101.936 90.5364 106.995 86.0182C109.859 83.4727 112.245 80.3227 113.9 76.8227C118.482 75.4545 122.014 71.5727 122.809 66.7364ZM110.273 71C109.955 71 109.668 70.9364 109.35 70.9045C108.714 73.0364 107.791 75.0091 106.614 76.8227C102.636 82.9 95.7955 86.9091 88 86.9091C80.2045 86.9091 73.3636 82.9 69.3864 76.8227C68.2091 75.0091 67.2864 73.0364 66.65 70.9045C66.3318 70.9364 66.0455 71 65.7273 71C62.2273 71 59.3636 68.1364 59.3636 64.6364C59.3636 61.1364 62.2273 58.2727 65.7273 58.2727C66.0455 58.2727 66.3318 58.3364 66.65 58.3682C67.2864 56.2364 68.2091 54.2636 69.3864 52.45C73.3636 46.3727 80.2045 42.3636 88 42.3636C95.7955 42.3636 102.636 46.3727 106.614 52.45C107.791 54.2636 108.714 56.2364 109.35 58.3682C109.668 58.3364 109.955 58.2727 110.273 58.2727C113.773 58.2727 116.636 61.1364 116.636 64.6364C116.636 68.1364 113.773 71 110.273 71ZM73.6818 71C76.1 76.6318 81.6045 80.5455 88 80.5455C94.3955 80.5455 99.9 76.6318 102.318 71H73.6818Z" fill="black"/>
<path d="M33.6648 59.3111C28.0044 57.8689 26.1841 56.3778 26.1841 54.0556C26.1841 51.3911 28.7026 49.5333 32.9167 49.5333C37.3553 49.5333 39.0011 51.6111 39.1507 54.6667H44.6615C44.4869 50.4622 41.8687 46.6 36.6571 45.3533V40H29.1764V45.28C24.3388 46.3067 20.4488 49.3867 20.4488 54.1044C20.4488 59.7511 25.2116 62.5622 32.1687 64.2C38.4026 65.6667 39.6494 67.8178 39.6494 70.0911C39.6494 71.7778 38.4275 74.4667 32.9167 74.4667C27.78 74.4667 25.7602 72.2178 25.4859 69.3333H20C20.2992 74.6867 24.3887 77.6933 29.1764 78.6956V84H36.6571V78.7444C41.5196 77.84 45.3846 75.0778 45.3846 70.0667C45.3846 63.1244 39.3252 60.7533 33.6648 59.3111Z" fill="black"/>
</svg>
