<svg width="80" height="73" viewBox="0 0 80 73" fill="none" xmlns="http://www.w3.org/2000/svg">
<path fill-rule="evenodd" clip-rule="evenodd" d="M67.0323 63.0161C60.9547 68.0396 52.7557 68.5292 44.973 69.8791C37.031 71.2566 28.9632 73.7579 21.3906 70.9325C13.3233 67.9224 6.22018 61.9052 2.62522 54.0783C-0.897317 46.4091 0.6522 37.6751 2.3286 29.4309C3.93211 21.5451 6.08724 13.4229 11.9985 7.98227C17.7887 2.65303 25.9612 1.37867 33.7946 0.470024C41.341 -0.40534 49.0031 -0.296868 55.9234 2.88711C63.0542 6.16795 68.8467 11.6848 72.8504 18.4393C77.0582 25.5382 80.0384 33.6172 78.9737 41.7747C77.8944 50.0446 73.4478 57.7131 67.0323 63.0161Z" fill="#C6F9EC"/>
<rect x="29.6289" y="10.7791" width="35.3721" height="35.3721" rx="3.5" fill="#89DDEF" stroke="black" stroke-width="3" stroke-linejoin="round"/>
<path d="M38.2871 28.9085L43.7988 34.6724L57.4732 21.6936" stroke="black" stroke-width="4" stroke-linecap="round" stroke-linejoin="round"/>
<path d="M29.5679 33.9437H16.4551C13.719 33.9437 11.5 36.1011 11.5 38.7612V61.7211H34.5233V38.7612C34.5233 36.1011 32.3039 33.9437 29.5679 33.9437Z" fill="white"/>
<path d="M23.0115 33.9437C27.8372 33.9437 31.7494 30.1403 31.7494 25.4486C31.7494 20.757 27.8372 16.9536 23.0115 16.9536C18.1858 16.9536 14.2738 20.757 14.2738 25.4486C14.2738 30.1403 18.1858 33.9437 23.0115 33.9437Z" fill="white"/>
<path d="M29.5679 33.9437H16.4551C13.719 33.9437 11.5 36.1011 11.5 38.7612V61.7211H34.5233V38.7612C34.5233 36.1011 32.3039 33.9437 29.5679 33.9437Z" stroke="black" stroke-width="3" stroke-miterlimit="10" stroke-linecap="round" stroke-linejoin="round"/>
<path d="M23.0115 33.9437C27.8372 33.9437 31.7494 30.1403 31.7494 25.4486C31.7494 20.757 27.8372 16.9536 23.0115 16.9536C18.1858 16.9536 14.2738 20.757 14.2738 25.4486C14.2738 30.1403 18.1858 33.9437 23.0115 33.9437Z" stroke="black" stroke-width="3" stroke-miterlimit="10" stroke-linecap="round" stroke-linejoin="round"/>
</svg>
