<svg width="116" height="114" viewBox="0 0 116 114" fill="none" xmlns="http://www.w3.org/2000/svg">
<path d="M101.164 54.0029C102.536 67.1435 95.9731 80.3582 86.5274 86.7469C77.0632 93.125 64.4978 94.6083 48.5006 88.9647C32.5034 83.3212 30.4485 89.7188 18.9835 81.902C7.51857 74.0852 7.53602 62.9444 12.8223 50.0059C18.1087 37.0673 27.1204 27.0032 39.1489 21.5992C51.1775 16.1952 66.223 15.4514 78.3695 21.62C90.5346 27.7994 99.8029 40.8443 101.164 54.0029Z" fill="#02CE9D" fill-opacity="0.3"/>
<path d="M71 80H44V38H71V80ZM57.5 92C56.3065 92 55.1619 91.5259 54.318 90.682C53.4741 89.8381 53 88.6935 53 87.5C53 86.3065 53.4741 85.1619 54.318 84.318C55.1619 83.4741 56.3065 83 57.5 83C58.6935 83 59.8381 83.4741 60.682 84.318C61.5259 85.1619 62 86.3065 62 87.5C62 88.6935 61.5259 89.8381 60.682 90.682C59.8381 91.5259 58.6935 92 57.5 92ZM69.5 29H45.5C43.5109 29 41.6032 29.7902 40.1967 31.1967C38.7902 32.6032 38 34.5109 38 36.5V87.5C38 89.4891 38.7902 91.3968 40.1967 92.8033C41.6032 94.2098 43.5109 95 45.5 95H69.5C71.4891 95 73.3968 94.2098 74.8033 92.8033C76.2098 91.3968 77 89.4891 77 87.5V36.5C77 34.5109 76.2098 32.6032 74.8033 31.1967C73.3968 29.7902 71.4891 29 69.5 29Z" fill="black"/>
</svg>
