<svg width="70" height="74" viewBox="0 0 70 74" fill="none" xmlns="http://www.w3.org/2000/svg">
<path fill-rule="evenodd" clip-rule="evenodd" d="M31.9512 71.3614C22.249 70.463 11.5919 70.9589 5.29645 63.5111C-1.15887 55.8742 -0.722265 45.0174 1.42277 35.2449C3.59494 25.3488 8.19549 16.0703 16.8584 10.8361C26.6561 4.91634 38.8907 1.38016 49.183 6.38798C59.4466 11.3818 62.6782 23.4839 65.5718 34.5381C68.6405 46.261 73.7636 60.1512 65.5976 69.095C57.6171 77.8358 43.7274 72.4519 31.9512 71.3614Z" fill="#FFD29C"/>
<path d="M54.6842 52.1229C54.6842 41.375 45.8043 32.663 34.8494 32.663C25.9115 32.663 18.3591 38.4668 15.8781 46.4392L11 49.6319V54.6075L15.9104 57.8824C17.0574 61.5177 19.2613 64.7041 22.174 67.0813V72H27.2455V70.097C29.5911 71.0517 32.1558 71.5828 34.8559 71.5828C37.4851 71.5828 39.9982 71.077 42.2923 70.1603V72H47.3638V67.2204C51.8295 63.6483 54.6842 58.2112 54.6842 52.1229Z" fill="#C2C2FF"/>
<path d="M27.6772 39.8261H43.1429M54.6842 52.1229C54.6842 41.375 45.8043 32.663 34.8494 32.663C25.9115 32.663 18.3591 38.4668 15.8781 46.4392L11 49.6319V54.6075L15.9104 57.8824C17.0574 61.5177 19.2613 64.7041 22.174 67.0813V72H27.2455V70.097C29.5911 71.0517 32.1558 71.5828 34.8559 71.5828C37.4851 71.5828 39.9982 71.077 42.2923 70.1603V72H47.3638V67.2204C51.8295 63.6483 54.6842 58.2112 54.6842 52.1229Z" stroke="black" stroke-width="3" stroke-miterlimit="10" stroke-linecap="round" stroke-linejoin="round"/>
<path d="M22.8246 48.3168C23.6503 48.3168 24.3196 47.6601 24.3196 46.8501C24.3196 46.04 23.6503 45.3833 22.8246 45.3833C21.9989 45.3833 21.3296 46.04 21.3296 46.8501C21.3296 47.6601 21.9989 48.3168 22.8246 48.3168Z" fill="black"/>
<path d="M51.7651 41.0779C52.5126 39.9146 53.8272 39.1433 55.3287 39.1433C57.655 39.1433 59.5367 40.9894 59.5367 43.2717C59.5367 44.3149 59.1371 45.2759 58.4863 46.003" stroke="black" stroke-width="3" stroke-miterlimit="10" stroke-linecap="round" stroke-linejoin="round"/>
<path d="M65.9998 21.3019L55.7989 32.5555L50.0444 26.9097L39.2441 37.5121" stroke="black" stroke-width="3" stroke-miterlimit="10" stroke-linecap="round" stroke-linejoin="round"/>
<path d="M17.8692 31.7525C15.2336 29.1162 15.53 24.6337 15.53 24.6337C15.53 24.6337 20.0988 24.4251 22.7409 27.0614C25.383 29.6978 25.0865 34.174 25.0865 34.174C25.0865 34.174 20.5113 34.3889 17.8692 31.7525Z" fill="#02CEAA"/>
<path d="M21.6712 8.68894C21.6712 4.99675 25.0801 2 25.0801 2C25.0801 2 28.489 4.99675 28.489 8.68894C28.489 12.3811 25.0801 15.3779 25.0801 15.3779C25.0801 15.3779 21.6712 12.3811 21.6712 8.68894Z" fill="#02CEAA"/>
<path d="M30.1967 22.0099C27.5546 22.0099 25.4152 19.6644 25.4152 19.6644C25.4152 19.6644 27.5546 17.3188 30.1967 17.3188C32.8387 17.3188 34.9782 19.6644 34.9782 19.6644C34.9782 19.6644 32.8387 22.0099 30.1967 22.0099Z" fill="#02CEAA"/>
<path d="M25.0801 34.1803V15.2957M17.8692 31.7525C15.2336 29.1162 15.53 24.6337 15.53 24.6337C15.53 24.6337 20.0988 24.4251 22.7409 27.0614C25.383 29.6978 25.0865 34.174 25.0865 34.174C25.0865 34.174 20.5113 34.3889 17.8692 31.7525ZM21.6712 8.68894C21.6712 4.99675 25.0801 2 25.0801 2C25.0801 2 28.489 4.99675 28.489 8.68894C28.489 12.3811 25.0801 15.3779 25.0801 15.3779C25.0801 15.3779 21.6712 12.3811 21.6712 8.68894ZM30.1967 22.0099C27.5546 22.0099 25.4152 19.6644 25.4152 19.6644C25.4152 19.6644 27.5546 17.3188 30.1967 17.3188C32.8387 17.3188 34.9782 19.6644 34.9782 19.6644C34.9782 19.6644 32.8387 22.0099 30.1967 22.0099Z" stroke="black" stroke-width="3" stroke-miterlimit="10" stroke-linecap="round" stroke-linejoin="round"/>
<path d="M34.0439 39.0991C38.3146 39.0991 41.7768 35.7024 41.7768 31.5124C41.7768 27.3223 38.3146 23.9257 34.0439 23.9257C29.7732 23.9257 26.311 27.3223 26.311 31.5124C26.311 35.7024 29.7732 39.0991 34.0439 39.0991Z" fill="white" stroke="black" stroke-width="3" stroke-miterlimit="10" stroke-linecap="round" stroke-linejoin="round"/>
<path d="M36.4026 32.6757C36.4026 31.4681 35.4811 31.1204 34.4887 30.9244L33.9603 30.8232C33.1806 30.6842 33.1226 30.4692 33.1226 30.191C33.1226 29.8243 33.477 29.6094 34.0699 29.6094C34.7723 29.6094 34.9527 29.9381 35.03 30.1784L35.0365 30.1973C35.1267 30.4123 35.3329 30.5387 35.5842 30.5387C35.6487 30.5387 35.7131 30.5324 35.7518 30.5198C36.0289 30.4692 36.2157 30.2669 36.2157 30.0266C36.2157 29.9697 36.2028 29.9065 36.1835 29.8496C36.0417 29.4323 35.6487 28.7685 34.5467 28.6231V27.9024C34.5467 27.3018 33.535 27.3018 33.535 27.9024V28.6231C32.3557 28.7938 31.924 29.5335 31.924 30.1847C31.924 31.3606 32.8068 31.6894 33.6768 31.8538L34.2503 31.9676C35.0623 32.1193 35.204 32.3153 35.204 32.6693C35.204 33.1056 34.8045 33.3648 34.1407 33.3648C33.2772 33.3648 33.1033 33.0044 32.9808 32.5998C32.9099 32.3785 32.6908 32.2331 32.4266 32.2331C32.3686 32.2331 32.3235 32.2394 32.2655 32.2521H32.2462C31.9691 32.3153 31.7822 32.5176 31.7822 32.7579C31.7822 32.8021 31.7887 32.84 31.7951 32.8717L31.8016 32.9096C31.924 33.3016 32.2011 34.1551 33.5801 34.3447V35.0971C33.5801 35.3942 33.8379 35.5523 34.0892 35.5523C34.3405 35.5523 34.5983 35.3942 34.5983 35.0971V34.37C35.6938 34.2373 36.4091 33.5924 36.4026 32.6757Z" fill="black"/>
</svg>
