<svg width="104" height="64" viewBox="0 0 104 64" fill="none" xmlns="http://www.w3.org/2000/svg">
<g clip-path="url(#clip0_7044_6190)">
<path fill-rule="evenodd" clip-rule="evenodd" d="M67.8057 13.5266C73.4494 18.2677 79.4196 23.0804 80.8773 30.3193C82.6392 39.069 82.888 49.6638 76.2957 55.6882C69.7889 61.6344 59.7737 57.89 50.9816 57.6396C42.6359 57.402 33.2588 59.9531 27.1272 54.2882C20.887 48.5229 20.8611 38.8812 21.4847 30.3877C22.0561 22.6051 24.4571 14.7534 30.4008 9.69943C35.9826 4.95322 43.7689 4.51138 51.0417 5.25551C57.4877 5.91504 62.8448 9.3591 67.8057 13.5266Z" fill="#C6F9EC"/>
<circle cx="51.1684" cy="32.4157" r="22.0416" fill="white" stroke="black" stroke-width="2.49528"/>
<path d="M59.59 27.1965C59.59 24.9629 58.7027 22.8209 57.1233 21.2415C55.544 19.6622 53.4019 18.7749 51.1684 18.7749C48.9349 18.7749 46.7928 19.6622 45.2134 21.2415C43.6341 22.8209 42.7468 24.9629 42.7468 27.1965C42.7468 27.6432 42.9243 28.0716 43.2402 28.3875C43.556 28.7033 43.9844 28.8808 44.4311 28.8808C44.8778 28.8808 45.3063 28.7033 45.6221 28.3875C45.938 28.0716 46.1155 27.6432 46.1155 27.1965C46.1155 26.1971 46.4118 25.2202 46.967 24.3892C47.5223 23.5583 48.3114 22.9106 49.2347 22.5282C50.158 22.1457 51.174 22.0457 52.1542 22.2406C53.1344 22.4356 54.0347 22.9168 54.7414 23.6235C55.448 24.3302 55.9293 25.2305 56.1242 26.2107C56.3192 27.1909 56.2192 28.2068 55.8367 29.1302C55.4543 30.0535 54.8066 30.8426 53.9757 31.3978C53.1447 31.9531 52.1678 32.2494 51.1684 32.2494C50.7217 32.2494 50.2933 32.4269 49.9774 32.7427C49.6615 33.0586 49.4841 33.487 49.4841 33.9337V37.3024C49.4841 37.7491 49.6615 38.1775 49.9774 38.4933C50.2933 38.8092 50.7217 38.9867 51.1684 38.9867C51.6151 38.9867 52.0435 38.8092 52.3594 38.4933C52.6753 38.1775 52.8527 37.7491 52.8527 37.3024V35.4496C54.7549 35.0613 56.4645 34.0277 57.6923 32.5238C58.92 31.0198 59.5904 29.1379 59.59 27.1965Z" fill="#FF9214"/>
<path d="M51.1684 45.7239C52.0987 45.7239 52.8528 44.9698 52.8528 44.0395C52.8528 43.1093 52.0987 42.3552 51.1684 42.3552C50.2382 42.3552 49.4841 43.1093 49.4841 44.0395C49.4841 44.9698 50.2382 45.7239 51.1684 45.7239Z" fill="#FF9214"/>
</g>
<defs>
<clipPath id="clip0_7044_6190">
<rect width="103.176" height="62.382" fill="white" transform="translate(0.412109 0.809082)"/>
</clipPath>
</defs>
</svg>
