<svg width="113" height="115" viewBox="0 0 113 115" fill="none" xmlns="http://www.w3.org/2000/svg">
<path d="M95.0129 76.038C89.7115 87.9671 77.5814 96.0267 66.347 96.8136C55.1019 97.5821 43.6141 92.6232 32.7006 79.8621C21.787 67.1009 16.8752 71.559 10.9125 59.1841C4.94979 46.8092 10.4549 37.2805 21.3564 28.8248C32.2578 20.369 44.932 16.2206 57.8923 17.5571C70.8526 18.8935 84.0991 25.7149 91.4574 37.0167C98.8264 48.337 100.332 64.0986 95.0129 76.038Z" fill="#02CE9D" fill-opacity="0.3"/>
<path d="M75 58.625V84C75 87.85 71.8909 91 68.0909 91H55.4818C53.6164 91 51.8545 90.2475 50.5591 88.9175L37 74.9525C37 74.9525 39.1764 72.8 39.2455 72.765C39.6255 72.4325 40.0918 72.2575 40.61 72.2575C40.99 72.2575 41.3355 72.3625 41.6464 72.5375C41.7155 72.555 49.0909 76.8425 49.0909 76.8425L49.0909 56C49.0909 54.5475 50.2482 53.375 51.6818 53.375C53.1155 53.375 54.2727 54.5475 54.2727 56V68.25H56V51.625C56 50.1725 57.1573 49 58.5909 49C60.0245 49 61.1818 50.1725 61.1818 51.625V68.25H62.9091V53.375C62.9091 51.9225 64.0664 50.75 65.5 50.75C66.9336 50.75 68.0909 51.9225 68.0909 53.375V68.25H69.8182V58.625C69.8182 57.1725 70.9755 56 72.4091 56C73.8427 56 75 57.1725 75 58.625Z" fill="black"/>
<path d="M63.7662 19.8C59.3065 18.62 57.8723 17.4 57.8723 15.5C57.8723 13.32 59.8566 11.8 63.1768 11.8C66.6739 11.8 67.9705 13.5 68.0884 16H72.4303C72.2927 12.56 70.2299 9.4 66.1238 8.38V4H60.2299V8.32C56.4185 9.16 53.3536 11.68 53.3536 15.54C53.3536 20.16 57.1061 22.46 62.5874 23.8C67.499 25 68.4813 26.76 68.4813 28.62C68.4813 30 67.5187 32.2 63.1768 32.2C59.1297 32.2 57.5383 30.36 57.3222 28H53C53.2358 32.38 56.4578 34.84 60.2299 35.66V40H66.1238V35.7C69.9548 34.96 73 32.7 73 28.6C73 22.92 68.2259 20.98 63.7662 19.8Z" fill="black"/>
</svg>
