<svg width="113" height="115" viewBox="0 0 113 115" fill="none" xmlns="http://www.w3.org/2000/svg">
<path d="M95.1889 76.482C89.8874 88.411 77.7574 96.4707 66.523 97.2576C55.2779 98.0261 43.7901 93.0672 32.8765 80.306C21.963 67.5449 17.0512 72.003 11.0885 59.6281C5.12576 47.2532 10.6308 37.7245 21.5323 29.2687C32.4338 20.813 45.1079 16.6645 58.0683 18.001C71.0286 19.3375 84.2751 26.1589 91.6334 37.4607C99.0024 48.781 100.508 64.5426 95.1889 76.482Z" fill="#02CE9D" fill-opacity="0.3"/>
<path d="M70.8182 67.8636C72.701 67.8636 74.2273 66.3373 74.2273 64.4545C74.2273 62.5718 72.701 61.0455 70.8182 61.0455C68.9354 61.0455 67.4091 62.5718 67.4091 64.4545C67.4091 66.3373 68.9354 67.8636 70.8182 67.8636Z" fill="black"/>
<path d="M57.1818 67.8636C59.0646 67.8636 60.5909 66.3373 60.5909 64.4545C60.5909 62.5718 59.0646 61.0455 57.1818 61.0455C55.299 61.0455 53.7727 62.5718 53.7727 64.4545C53.7727 66.3373 55.299 67.8636 57.1818 67.8636Z" fill="black"/>
<path d="M93.8364 70.3455C93.9455 69.7727 94 69.1727 94 68.5455C94 67.9182 93.9455 67.3182 93.8364 66.7455C93.1545 62.6273 90.1273 59.2727 86.1727 58.1C84.7273 55.0455 82.6818 52.3727 80.2 50.1636C75.8909 46.3182 70.2182 44 64 44C57.7818 44 52.1091 46.3182 47.8 50.1636C45.2909 52.3727 43.2455 55.0727 41.8273 58.1C37.8727 59.2727 34.8455 62.6 34.1636 66.7455C34.0545 67.3182 34 67.9182 34 68.5455C34 69.1727 34.0545 69.7727 34.1636 70.3455C34.8455 74.4636 37.8727 77.8182 41.8273 78.9909C43.2455 82.0182 45.2909 84.6909 47.7455 86.8727C52.0545 90.7455 57.7545 93.0909 64 93.0909C70.2455 93.0909 75.9455 90.7455 80.2818 86.8727C82.7364 84.6909 84.7818 81.9909 86.2 78.9909C90.1273 77.8182 93.1545 74.4909 93.8364 70.3455ZM83.0909 74C82.8182 74 82.5727 73.9455 82.3 73.9182C81.7545 75.7455 80.9636 77.4364 79.9545 78.9909C76.5455 84.2 70.6818 87.6364 64 87.6364C57.3182 87.6364 51.4545 84.2 48.0455 78.9909C47.0364 77.4364 46.2455 75.7455 45.7 73.9182C45.4273 73.9455 45.1818 74 44.9091 74C41.9091 74 39.4545 71.5455 39.4545 68.5455C39.4545 65.5455 41.9091 63.0909 44.9091 63.0909C45.1818 63.0909 45.4273 63.1455 45.7 63.1727C46.2455 61.3455 47.0364 59.6545 48.0455 58.1C51.4545 52.8909 57.3182 49.4545 64 49.4545C70.6818 49.4545 76.5455 52.8909 79.9545 58.1C80.9636 59.6545 81.7545 61.3455 82.3 63.1727C82.5727 63.1455 82.8182 63.0909 83.0909 63.0909C86.0909 63.0909 88.5455 65.5455 88.5455 68.5455C88.5455 71.5455 86.0909 74 83.0909 74ZM51.7273 74C53.8 78.8273 58.5182 82.1818 64 82.1818C69.4818 82.1818 74.2 78.8273 76.2727 74H51.7273Z" fill="black"/>
<path d="M63.4535 24.5333C60.366 23.7467 59.3731 22.9333 59.3731 21.6667C59.3731 20.2133 60.7469 19.2 63.0455 19.2C65.4665 19.2 66.3642 20.3333 66.4458 22H69.4517C69.3565 19.7067 67.9284 17.6 65.0857 16.92V14H61.0053V16.88C58.3666 17.44 56.2448 19.12 56.2448 21.6933C56.2448 24.7733 58.8427 26.3067 62.6374 27.2C66.0378 28 66.7178 29.1733 66.7178 30.4133C66.7178 31.3333 66.0514 32.8 63.0455 32.8C60.2436 32.8 59.1419 31.5733 58.9923 30H56C56.1632 32.92 58.3938 34.56 61.0053 35.1067V38H65.0857V35.1333C67.7379 34.64 69.8462 33.1333 69.8462 30.4C69.8462 26.6133 66.541 25.32 63.4535 24.5333Z" fill="black"/>
</svg>
