<svg width="139" height="139" viewBox="0 0 139 139" fill="none" xmlns="http://www.w3.org/2000/svg">
<path d="M116.599 92.376C110.08 106.886 95.2492 116.729 81.5441 117.735C67.826 118.719 53.8378 112.75 40.5854 97.302C27.3329 81.8546 21.3222 87.2907 14.1061 72.2898C6.88999 57.289 13.6472 45.6927 26.981 35.3748C40.3148 25.0569 55.7911 19.9618 71.5915 21.5261C87.392 23.0904 103.517 31.3142 112.44 45.0055C121.376 58.7192 123.141 77.853 116.599 92.376Z" fill="#02CE9D" fill-opacity="0.3"/>
<path d="M76 61V49H46V103H106V61H76ZM58 97H52V91H58V97ZM58 85H52V79H58V85ZM58 73H52V67H58V73ZM58 61H52V55H58V61ZM70 97H64V91H70V97ZM70 85H64V79H70V85ZM70 73H64V67H70V73ZM70 61H64V55H70V61ZM100 97H76V91H82V85H76V79H82V73H76V67H100V97ZM94 73H88V79H94V73ZM94 85H88V91H94V85Z" fill="black"/>
<path d="M62.0747 28.4111C58.7299 27.5589 57.6542 26.6778 57.6542 25.3056C57.6542 23.7311 59.1424 22.6333 61.6326 22.6333C64.2554 22.6333 65.2279 23.8611 65.3163 25.6667H68.5727C68.4695 23.1822 66.9224 20.9 63.8428 20.1633V17H59.4224V20.12C56.5639 20.7267 54.2652 22.5467 54.2652 25.3344C54.2652 28.6711 57.0796 30.3322 61.1906 31.3C64.8743 32.1667 65.611 33.4378 65.611 34.7811C65.611 35.7778 64.889 37.3667 61.6326 37.3667C58.5972 37.3667 57.4037 36.0378 57.2417 34.3333H54C54.1768 37.4967 56.5933 39.2733 59.4224 39.8656V43H63.8428V39.8944C66.7161 39.36 69 37.7278 69 34.7667C69 30.6644 65.4194 29.2633 62.0747 28.4111Z" fill="black"/>
</svg>
