<svg width="119" height="119" viewBox="0 0 119 119" fill="none" xmlns="http://www.w3.org/2000/svg">
<path d="M101.783 67.8217C99.7501 80.7164 90.1194 91.6409 79.4714 95.3087C68.8084 98.9615 56.4286 97.1448 42.5841 87.6431C28.7396 78.1414 25.149 83.7189 16.1866 73.3089C7.22417 62.8989 10.0755 52.2701 18.417 41.2809C26.7585 30.2918 37.9271 23.0044 50.7917 20.941C63.6563 18.8775 78.2169 22.038 88.2497 31.0503C98.2974 40.0776 103.831 54.9124 101.783 67.8217Z" fill="#02CE9D" fill-opacity="0.3"/>
<path d="M62.4186 51.0233C66 51.0233 68.9302 48.093 68.9302 44.5116C68.9302 40.9302 66 38 62.4186 38C58.8372 38 55.907 40.9302 55.907 44.5116C55.907 48.093 58.8372 51.0233 62.4186 51.0233ZM50.3721 62.093L41.2558 108H48.093L53.9535 81.9535L60.7907 88.4651V108H67.3023V83.5814L60.4651 77.0698L62.4186 67.3023C66.6512 72.186 73.1628 75.4419 80.3256 75.4419V68.9302C74.1395 68.9302 68.9302 65.6744 66.3256 61.1163L63.0698 55.907C61.7674 53.9535 59.814 52.6512 57.5349 52.6512C56.5581 52.6512 55.907 52.9767 54.9302 52.9767L38 60.1395V75.4419H44.5116V64.3721L50.3721 62.093Z" fill="black"/>
<line x1="81.5" y1="69" x2="81.5" y2="108" stroke="black" stroke-width="3"/>
</svg>
