<svg width="115" height="97" viewBox="0 0 115 97" fill="none" xmlns="http://www.w3.org/2000/svg">
<path d="M85.2833 23.4854C92.9634 34.0411 93.8782 48.5759 88.9425 58.6986C83.9855 68.8214 73.9471 76.2907 57.4388 79.3615C40.9306 82.4323 42.3355 88.9152 28.6372 87.8916C14.9388 86.868 9.4393 77.3361 7.56713 63.6672C5.69496 49.9984 8.43939 36.9481 16.077 26.3923C23.7146 15.8366 36.2453 7.7755 49.7121 7.05391C63.2002 6.33233 77.6031 12.909 85.2833 23.4854Z" fill="#02CE9D" fill-opacity="0.3"/>
<path d="M72.8682 31.2573C77.1922 26.9334 77.1922 19.9526 72.8682 15.6286C69.4559 12.2163 70.6802 7.39748 72.8682 5.20946C67.294 4.42802 61.1727 6.48581 57.2395 10.419C51.4829 16.1756 51.4829 25.5008 57.2395 31.2573C61.5634 35.5813 68.5443 35.5813 72.8682 31.2573ZM61.5634 91.3758L68.5443 91.3758C70.576 91.3758 72.217 89.7348 72.217 87.7031L72.217 41.0253L57.8907 41.0253L57.8907 87.7031C57.8907 89.7348 59.5317 91.3758 61.5634 91.3758Z" fill="black"/>
<path d="M49.5552 22.9088L41.0122 14.3657L32.4692 22.9088L32.4692 73.3012H49.5552L49.5552 22.9088ZM32.4692 86.5144C32.4692 88.2913 33.9044 89.7266 35.6814 89.7266L46.3431 89.7266C48.12 89.7266 49.5552 88.2913 49.5552 86.5144L49.5552 78.1764L32.4692 78.1764V86.5144Z" fill="black"/>
</svg>
