<svg width="110" height="106" viewBox="0 0 110 106" fill="none" xmlns="http://www.w3.org/2000/svg">
<path d="M97.7476 38.3114C102.681 51.1363 99.6509 66.1638 91.8747 75.1114C84.0769 84.0533 71.8353 88.9129 54.2139 87.5377C36.5925 86.1624 36.2549 93.1366 22.6059 88.3639C8.957 83.5912 5.96219 72.4014 7.78257 57.9936C9.60295 43.5857 15.9487 31.0645 26.59 22.4127C37.2313 13.7609 52.1681 8.9786 66.0571 11.9138C79.9678 14.8548 92.8202 25.4656 97.7476 38.3114Z" fill="#02CE9D" fill-opacity="0.3"/>
<path d="M109 54L106.18 51.18L95 62.34V38H91V62.34L79.84 51.16L77 54L93 70L109 54Z" fill="#010101"/>
<path d="M49 31C36.304 31 26 41.304 26 54C26 66.696 36.304 77 49 77C61.696 77 72 66.696 72 54C72 41.304 61.696 31 49 31ZM52.243 68.007V72.4H46.102V67.961C42.169 67.133 38.834 64.603 38.581 60.141H43.089C43.319 62.556 44.975 64.442 49.184 64.442C53.692 64.442 54.704 62.188 54.704 60.785C54.704 58.876 53.692 57.082 48.563 55.863C42.859 54.483 38.949 52.137 38.949 47.422C38.949 43.466 42.146 40.89 46.102 40.039V35.6H52.243V40.085C56.521 41.12 58.66 44.363 58.798 47.882H54.29C54.175 45.329 52.818 43.581 49.184 43.581C45.734 43.581 43.664 45.145 43.664 47.353C43.664 49.285 45.159 50.55 49.805 51.746C54.451 52.942 59.419 54.943 59.419 60.739C59.396 64.948 56.245 67.248 52.243 68.007Z" fill="black"/>
</svg>
