<svg width="131" height="133" viewBox="0 0 131 133" fill="none" xmlns="http://www.w3.org/2000/svg">
<path d="M110.427 88.5272C104.291 102.399 90.2157 111.755 77.1678 112.651C64.1075 113.524 50.7548 107.733 38.055 92.8634C25.3551 77.9939 19.6579 83.1727 12.7094 68.7617C5.76089 54.3507 12.1379 43.2727 24.7851 33.453C37.4322 23.6333 52.1463 18.8291 67.2027 20.408C82.2592 21.9868 97.6581 29.9487 106.226 43.1135C114.806 56.2998 116.584 74.6436 110.427 88.5272Z" fill="#02CE9D" fill-opacity="0.3"/>
<path d="M72 37H44C40.1325 37 37.035 40.1325 37.035 44L37 100C37 103.868 40.0975 107 43.965 107H86C89.8675 107 93 103.868 93 100V58L72 37ZM79 93H51V86H79V93ZM79 79H51V72H79V79ZM68.5 61.5V42.25L87.75 61.5H68.5Z" fill="black"/>
</svg>
