<svg width="97" height="92" viewBox="0 0 97 92" fill="none" xmlns="http://www.w3.org/2000/svg">
<path d="M8.25601 73.0423C-0.439298 61.0913 -1.47503 44.6353 4.1131 33.1745C9.7253 21.7137 21.0907 13.2571 39.781 9.78033C58.4714 6.30361 56.8807 -1.03614 72.3898 0.12277C87.8988 1.28168 94.1252 12.0735 96.2449 27.5491C98.3645 43.0247 95.2573 57.8001 86.6102 69.7511C77.963 81.7021 63.7759 90.8288 48.529 91.6457C33.2581 92.4627 16.9513 85.0167 8.25601 73.0423Z" fill="#02CE9D" fill-opacity="0.3"/>
<path d="M63.6252 51.5C69.4902 51.5 74.2077 46.78 74.2077 40.9643C74.2077 35.1486 69.4902 30.4286 63.6252 30.4286C57.7602 30.4286 53.0002 35.1486 53.0002 40.9643C53.0002 46.78 57.7602 51.5 63.6252 51.5ZM31.7502 47.2857C38.8052 47.2857 44.4577 41.6386 44.4577 34.6429C44.4577 27.6471 38.8052 22 31.7502 22C24.6952 22 19.0002 27.6471 19.0002 34.6429C19.0002 41.6386 24.6952 47.2857 31.7502 47.2857ZM63.6252 59.9286C55.8477 59.9286 40.2502 63.8057 40.2502 71.5179V81H87.0002V71.5179C87.0002 63.8057 71.4027 59.9286 63.6252 59.9286ZM31.7502 55.7143C21.8477 55.7143 2.00024 60.645 2.00024 70.4643V81H31.7502V71.5179C31.7502 67.9357 33.1527 61.6564 41.8227 56.8943C38.1252 56.1357 34.5552 55.7143 31.7502 55.7143Z" fill="black"/>
<path d="M56.7074 5.11711L57.4145 4.41L56.7074 3.70289L55.2974 2.29289L54.5902 1.58579L53.8831 2.29289L49.0002 7.17579L44.1174 2.29289L43.4102 1.58579L42.7031 2.29289L41.2931 3.70289L40.586 4.41L41.2931 5.11711L46.176 10L41.2931 14.8829L40.586 15.59L41.2931 16.2971L42.7031 17.7071L43.4102 18.4142L44.1174 17.7071L49.0002 12.8242L53.8831 17.7071L54.5902 18.4142L55.2974 17.7071L56.7074 16.2971L57.4145 15.59L56.7074 14.8829L51.8245 10L56.7074 5.11711Z" fill="black" stroke="black" stroke-width="2"/>
</svg>
