<svg width="130" height="128" viewBox="0 0 130 128" fill="none" xmlns="http://www.w3.org/2000/svg">
<path d="M43.2781 107.656C29.7722 101.654 20.6472 87.9208 19.7563 75.2014C18.8862 62.4699 24.5006 49.4636 38.9485 37.1075C53.3965 24.7514 48.3491 19.1903 62.3597 12.4394C76.3704 5.68854 87.1586 11.9213 96.732 24.2638C106.306 36.6062 111.002 50.9557 109.489 65.6291C107.976 80.3026 100.253 95.3 87.4572 103.631C74.6407 111.974 56.7956 113.679 43.2781 107.656Z" fill="#02CE9D" fill-opacity="0.3"/>
<path fill-rule="evenodd" clip-rule="evenodd" d="M31.6669 38H98.3336C102 38 105 41 105 44.6667L104.967 91.3333C104.967 95 102 98 98.3336 98H31.6669C28.0002 98 25.0002 95 25.0002 91.3333V44.6667C25.0002 41 28.0002 38 31.6669 38ZM55.0002 61.3333C55.0002 57.6444 52.0225 54.6667 48.3336 54.6667C44.6447 54.6667 41.6669 57.6444 41.6669 61.3333C41.6669 65.0222 44.6447 68 48.3336 68C52.0225 68 55.0002 65.0222 55.0002 61.3333ZM61.6669 81.3333V79.1111C61.6669 74.6667 52.778 72.2222 48.3336 72.2222C43.8891 72.2222 35.0002 74.6667 35.0002 79.1111V81.3333H61.6669ZM95.0002 74.6667H65.0002V71.3333H95.0002V74.6667ZM95.0002 68H65.0002V64.6667H95.0002V68ZM65.0002 61.3333V58H95.0002V61.3333H65.0002Z" fill="black"/>
</svg>
