<svg width="100" height="75" viewBox="0 0 100 75" fill="none" xmlns="http://www.w3.org/2000/svg">
  <path fill-rule="evenodd" clip-rule="evenodd" d="M10.0797 38.1786C10.6742 30.0251 15.9399 23.2444 21.2397 17.0348C26.1575 11.2729 31.927 6.14697 39.1969 4.06332C46.302 2.02692 53.8423 3.10199 60.7601 5.70779C67.4362 8.22256 72.4773 13.193 77.3364 18.4297C82.9007 24.4263 90.0499 30.0289 90.8899 38.1786C91.7561 46.5825 87.3998 54.8823 81.7383 61.1363C76.4316 66.9983 68.5993 69.2812 60.9538 71.2476C53.7727 73.0946 46.511 73.6672 39.2732 72.0584C31.3791 70.3038 23.2712 67.8332 17.9832 61.6963C12.4553 55.281 9.46301 46.6364 10.0797 38.1786Z" fill="#C6F9EC"/>
  <path d="M82.4 17H22C19.7909 17 18 18.7909 18 21V55C18 57.2091 19.7909 59 22 59H82.4C84.6091 59 86.4 57.2091 86.4 55V21C86.4 18.7909 84.6091 17 82.4 17Z" fill="white" stroke="black" stroke-width="3" stroke-miterlimit="10" stroke-linecap="round" stroke-linejoin="round"/>
  <path d="M31.2559 40.4316H73.1443M31.2559 48.8017H73.1442" stroke="black" stroke-width="3" stroke-miterlimit="10" stroke-linecap="round" stroke-linejoin="round"/>
  <path d="M25.043 28.1554L28.4447 31.5258M28.469 28.1313L25.0673 31.5018M31.5075 28.1554L34.9092 31.5258M34.9335 28.1314L31.5318 31.5018M38.5246 28.1554L41.9264 31.5258M41.9507 28.1314L38.5489 31.5018M62.4499 28.1554L65.852 31.5258M65.876 28.1314L62.4742 31.5018M68.9148 28.1554L72.3165 31.5258M72.3408 28.1314L68.9391 31.5018M75.9315 28.1554L79.3336 31.5258M79.3579 28.1314L75.9558 31.5018M47.2487 28.1554L50.6504 31.5258M50.6747 28.1314L47.273 31.5018M54.2655 28.1554L57.6675 31.5258M57.6918 28.1314L54.2898 31.5018" stroke="#8E8EEF" stroke-width="2" stroke-miterlimit="10" stroke-linecap="round" stroke-linejoin="round"/>
</svg>
