<svg width="113" height="115" viewBox="0 0 113 115" fill="none" xmlns="http://www.w3.org/2000/svg">
<path d="M95.1889 76.3061C89.8875 88.2351 77.7574 96.2947 66.523 97.0817C55.2779 97.8502 43.7901 92.8913 32.8765 80.1301C21.963 67.369 17.0512 71.8271 11.0885 59.4522C5.12576 47.0773 10.6308 37.5486 21.5323 29.0928C32.4338 20.6371 45.1079 16.4886 58.0683 17.8251C71.0286 19.1616 84.2751 25.983 91.6334 37.2848C99.0024 48.6051 100.508 64.3667 95.1889 76.3061Z" fill="#02CE9D" fill-opacity="0.3"/>
<path d="M43 86.5V65.5H57V86.5H74.5V58.5H85L50 27L15 58.5H25.5V86.5H43Z" fill="black"/>
</svg>
