<svg width="113" height="108" viewBox="0 0 113 108" fill="none" xmlns="http://www.w3.org/2000/svg">
<path d="M104.071 21.9805C114.281 36.0548 115.497 55.4345 108.935 68.9315C102.345 82.4286 89.0002 92.3876 67.054 96.482C45.1077 100.576 46.9754 109.22 28.7647 107.855C10.554 106.491 3.24283 93.7815 0.753949 75.5563C-1.73493 57.3312 1.91354 39.9308 12.067 25.8564C22.2205 11.7821 38.8791 1.03399 56.782 0.0718834C74.7132 -0.890227 93.8607 7.87872 104.071 21.9805Z" fill="#02CE9D" fill-opacity="0.3"/>
<path d="M76.1579 69.1915L65.1053 80.0606L76.1579 91.1515H43V83.7576C43 73.9236 62.6368 68.9697 72.4737 68.9697C73.6526 68.9697 74.7211 69.0436 76.1579 69.1915Z" fill="black"/>
<path d="M87.2105 46.7879C87.2105 54.9582 80.6158 61.5758 72.4737 61.5758C64.3316 61.5758 57.7368 54.9582 57.7368 46.7879C57.7368 38.6176 64.3316 32 72.4737 32C80.6158 32 87.2105 38.6176 87.2105 46.7879Z" fill="black"/>
<path d="M76.1579 80.0606L88.9421 93L113 68.637L107.842 63.4242L88.9421 82.5376L81.3158 74.8479L76.1579 80.0606Z" fill="black"/>
<path d="M50 50.9286C50 56.9757 45.0741 61.8571 38.9259 61.8571C32.7778 61.8571 27.8148 56.9757 27.8148 50.9286C27.8148 44.8814 32.7778 40 38.9259 40C45.0741 40 50 44.8814 50 50.9286Z" fill="black"/>
<path d="M13 81.8929C13 73.405 30.2963 69.1429 38.9259 69.1429C41.3704 69.1429 44.4815 69.5071 47.7037 70.1629C40.1481 74.2793 38.9259 79.7071 38.9259 82.8036V91H13V81.8929Z" fill="black"/>
</svg>
