<svg width="101" height="75" fill="none" xmlns="http://www.w3.org/2000/svg"><path fill-rule="evenodd" clip-rule="evenodd" d="M60.565 7.68c7.948 3.722 16.293 7.424 20.19 15.338 4.708 9.565 8.242 21.734 2.501 30.753-5.665 8.901-18.338 7.694-28.533 10.144-9.676 2.326-19.686 8.197-28.478 3.56-8.948-4.72-11.932-15.857-13.818-25.87-1.727-9.174-1.37-18.998 3.92-26.693C21.318 7.686 30.143 4.75 38.74 3.342c7.62-1.245 14.84 1.066 21.826 4.338z" fill="#C2C2FF"/><path d="M66.885 58.147H26l-8.5-9.131V14.078c0-2.415 1.539-4.364 3.444-4.364h45.941c1.905 0 3.444 1.958 3.444 4.364v39.705c0 2.406-1.548 4.364-3.444 4.364z" fill="#fff"/><path d="M26.343 58.147L17.5 49.016h8.843v9.131z" fill="#fff"/><path d="M17.5 49.016l8.5 9.131h40.885c1.896 0 3.444-1.958 3.444-4.364V14.078c0-2.406-1.54-4.364-3.444-4.364H20.943c-1.904 0-3.443 1.95-3.443 4.364v34.938zm0 0l8.843 9.131v-9.131H17.5z" stroke="#000" stroke-width="3" stroke-miterlimit="10" stroke-linecap="round" stroke-linejoin="round"/><path d="M70.329 20.365H17.5v-6.26c0-2.415 1.896-4.365 4.226-4.365h44.377c2.338 0 4.226 1.958 4.226 4.364v6.26z" fill="#C6F9EC" stroke="#000" stroke-width="3" stroke-miterlimit="10" stroke-linecap="round" stroke-linejoin="round"/><path d="M29.396 15.053V6m29.48 9.053V6" stroke="#000" stroke-width="3" stroke-miterlimit="10" stroke-linecap="round" stroke-linejoin="round"/><path d="M69.377 69c7.8 0 14.124-6.53 14.124-14.584 0-8.055-6.324-14.585-14.124-14.585-7.8 0-14.123 6.53-14.123 14.585C55.254 62.47 61.577 69 69.377 69z" fill="#FFD29C" stroke="#000" stroke-width="3" stroke-miterlimit="10" stroke-linecap="round" stroke-linejoin="round"/><path d="M61.406 55.34l4.31 4.506L76.405 49.7" stroke="#000" stroke-width="4" stroke-linecap="round" stroke-linejoin="round"/></svg>