<svg width="100" height="75" fill="none" xmlns="http://www.w3.org/2000/svg"><path fill-rule="evenodd" clip-rule="evenodd" d="M49.57 4.529c6.59-.428 13.547-1.51 19.342 1.649C74.854 9.415 78.3 15.68 81.214 21.77c2.953 6.173 5.645 12.84 4.528 19.587-1.108 6.693-5.915 11.979-10.572 16.925-4.504 4.784-9.436 9.492-15.816 11.102-6.274 1.583-12.796-.14-18.877-2.348-5.787-2.102-10.71-5.658-15.08-9.987-4.66-4.618-9.681-9.417-10.984-15.837-1.33-6.558.712-13.375 3.857-19.285 3.033-5.697 7.858-10.202 13.51-13.343C37.201 5.57 43.373 4.93 49.57 4.529z" fill="#C2C2FF"/><path d="M66.265 63.859H21.199c-2.873 0-5.199-2.335-5.199-5.22v-6.703c0-2.884 2.326-5.219 5.199-5.219h45.066v17.142z" fill="#fff"/><path d="M24.688 53.044h24.997m-2.82 4.692h8.597m10.803 6.123H21.199c-2.873 0-5.199-2.335-5.199-5.22v-6.703c0-2.884 2.326-5.219 5.199-5.219h45.066v17.142z" stroke="#000" stroke-width="3" stroke-miterlimit="10" stroke-linecap="round" stroke-linejoin="round"/><path d="M24.155 51h8.793c.638 0 1.163.52 1.163 1.167v14.627c0 .903-.983 1.46-1.756.994l-3.203-1.928a1.168 1.168 0 00-1.193 0l-3.203 1.928A1.157 1.157 0 0123 66.794V52.167A1.15 1.15 0 0124.155 51z" fill="#FF9214"/><path d="M78.839 46.717H31.117c-2.873 0-5.199-2.335-5.199-5.22v-6.702c0-2.885 2.326-5.22 5.199-5.22h47.722v17.142z" fill="#fff"/><path d="M47.217 35.804h20.84m-8.597 4.684h8.598m10.78 6.229H31.118c-2.873 0-5.199-2.335-5.199-5.22v-6.702c0-2.885 2.326-5.22 5.199-5.22h47.722v17.142z" stroke="#000" stroke-width="3" stroke-miterlimit="10" stroke-linecap="round" stroke-linejoin="round"/><path d="M69.522 29.575H35.477s0-17.089 17.022-17.089c17.023 0 17.023 17.09 17.023 17.09z" fill="#C6F9EC" stroke="#000" stroke-width="3" stroke-miterlimit="10" stroke-linecap="round" stroke-linejoin="round"/><path d="M51.816 5l-22.304 7.343 22.304 8.684 22.304-8.684 1.785 12.744L84 21.027l-9.88-8.684L51.816 5z" fill="#C6F9EC" stroke="#000" stroke-width="3" stroke-miterlimit="10" stroke-linecap="round" stroke-linejoin="round"/></svg>
