<svg width="129" height="127" viewBox="0 0 129 127" fill="none" xmlns="http://www.w3.org/2000/svg">
<path d="M112.625 60.1318C114.129 74.6938 106.85 89.3464 96.3863 96.4371C85.9021 103.516 71.99 105.173 54.2865 98.9359C36.5831 92.6984 34.3013 99.791 21.6176 91.1401C8.93377 82.4892 8.96504 70.142 14.8311 55.7968C20.6972 41.4516 30.6843 30.288 44.0063 24.286C57.3282 18.2839 73.985 17.4434 87.425 24.2669C100.886 31.1024 111.132 45.5498 112.625 60.1318Z" fill="#02CE9D" fill-opacity="0.3"/>
<path d="M46 51.36V59.36L60 67L74 59.36V51.36L60 59L46 51.36ZM60 31L38 43L60 55L78 45.18V59H82V43L60 31Z" fill="black"/>
<path d="M56.25 94.43L77.25 73.395L91.25 87.395L121 53.935L116.065 49L91.25 76.895L77.25 62.895L51 89.18L56.25 94.43Z" fill="black"/>
</svg>
