<svg width="100" height="75" fill="none" xmlns="http://www.w3.org/2000/svg"><path fill-rule="evenodd" clip-rule="evenodd" d="M48.846 14.214c10.55-.2 22.52-5.829 30.044 1.675 7.985 7.964 6.844 21.199 3.87 32.15-2.794 10.292-9.202 19.658-18.996 23.566-9.102 3.632-18.765-.463-27.446-5.034-8.248-4.343-15.641-10.238-18.555-19.188C14.457 37.233 12.915 24.75 20.176 17c6.958-7.425 18.57-2.595 28.67-2.786z" fill="#FFD29C"/><path d="M29.257 32.801l.01 29.816 48.9-.005-.011-29.816-48.899.005z" fill="#fff" stroke="#000" stroke-width="2" stroke-miterlimit="10" stroke-linecap="round" stroke-linejoin="round"/><path d="M29.232 36.37l.01 29.815 48.899-.005-.01-29.816-48.899.005z" fill="#fff" stroke="#000" stroke-width="2" stroke-miterlimit="10" stroke-linecap="round" stroke-linejoin="round"/><path d="M29.209 39.843l.01 29.815 48.898-.005-.01-29.815-48.898.005z" fill="#fff" stroke="#000" stroke-width="2" stroke-miterlimit="10" stroke-linecap="round" stroke-linejoin="round"/><path d="M60.21 54.344a6.831 6.831 0 01-1.995 4.857 6.745 6.745 0 01-4.815 2.011c-3.76 0-6.816-3.08-6.821-6.869 0-1.926.787-3.67 2.057-4.919a6.757 6.757 0 014.753-1.949c1.824 0 3.536.71 4.82 2.01a6.87 6.87 0 012.001 4.86z" stroke="#000" stroke-width="3" stroke-miterlimit="10"/><path d="M75.26 42.241l-39.082.004h-.081l-4.053-.004a.48.48 0 00-.471.475l.013 24.045c0 .126.055.246.135.334.087.09.205.14.33.141l43.216-.006a.463.463 0 00.326-.136l.007-.006a.474.474 0 00.14-.333l-.014-24.045a.464.464 0 00-.465-.469zm-42.742.954l3.422-.002c.39.456.605 1.03.6 1.64a2.52 2.52 0 01-.73 1.789l-.025.025c-.88.862-2.273.96-3.26.21 0 0-.007 0-.013-.006l.007-3.656zm.008 23.1v-3.7a2.49 2.49 0 013.365.162 2.51 2.51 0 01.737 1.786 2.516 2.516 0 01-.699 1.751l-3.403.002zm42.28-.006l-3.428.001c-.019-.037-.037-.075-.068-.107a2.537 2.537 0 01-.737-1.786 2.52 2.52 0 01.73-1.788 2.49 2.49 0 013.497-.051l.006 3.731zm-.01-4.896a3.428 3.428 0 00-4.125.519l-.031.031a3.478 3.478 0 00-1.01 2.454c.002.68.197 1.335.555 1.891l-33.088.002a3.51 3.51 0 00-.539-4.208 3.42 3.42 0 00-4.03-.626l-.005-13.51a3.435 3.435 0 003.92-.634l.03-.03a3.498 3.498 0 00.603-4.099l33.364-.006a3.502 3.502 0 00.545 4.2 3.431 3.431 0 003.81.726l.001 13.29zm0-14.341a2.49 2.49 0 01-3.145-.33 2.551 2.551 0 01-.044-3.53l3.185-.004.004 3.864z" fill="#000" stroke="#000" stroke-miterlimit="10"/><path d="M57.481 32.822l-7.874-.055-.065 9.42 7.873.055.066-9.42z" fill="#89DDEF" stroke="#000" stroke-width="2.973" stroke-miterlimit="10" stroke-linecap="round" stroke-linejoin="round"/><path d="M57.413 42.645l-7.874-.055-.188 27.033 7.873.055.189-27.033z" fill="#89DDEF" stroke="#000" stroke-width="3" stroke-miterlimit="10" stroke-linecap="round" stroke-linejoin="round"/><path d="M69.728 30.745c0 9.212-33.113 9.212-33.113 0 0-9.213 7.412-16.682 16.553-16.682 9.148 0 16.56 7.47 16.56 16.682z" fill="#C6F9EC" stroke="#000" stroke-width="3" stroke-miterlimit="10" stroke-linecap="round" stroke-linejoin="round"/><path d="M52.506 2L30.814 13.925l21.692 11.924 21.692-11.924 3.928 15.895L86 25.862 74.198 13.925 52.506 2z" fill="#C6F9EC" stroke="#000" stroke-width="3" stroke-miterlimit="10" stroke-linecap="round" stroke-linejoin="round"/></svg>