<svg width="121" height="123" viewBox="0 0 121 123" fill="none" xmlns="http://www.w3.org/2000/svg">
<path d="M19.3461 41.0305C24.9974 28.3143 37.9278 19.7229 49.9035 18.884C61.8906 18.0648 74.1364 23.3509 85.7701 36.9541C97.4037 50.5573 102.64 45.805 108.996 58.9964C115.352 72.1879 109.484 82.3453 97.8628 91.359C86.242 100.373 72.7316 104.795 58.9161 103.37C45.1006 101.946 30.9801 94.674 23.1362 82.6265C15.281 70.5593 13.6758 53.7576 19.3461 41.0305Z" fill="#02CE9D" fill-opacity="0.3"/>
<path d="M39.7273 73.3909V86.1182L62 98.2727L84.2727 86.1182V73.3909L62 85.5455L39.7273 73.3909ZM62 41L27 60.0909L62 79.1818L90.6364 63.5591V85.5455H97V60.0909L62 41Z" fill="black"/>
</svg>
