<svg width="171" height="134" viewBox="0 0 171 134" fill="none" xmlns="http://www.w3.org/2000/svg">
<path d="M140.937 27.2721C153.587 44.7347 155.094 68.7798 146.964 85.5261C138.8 102.272 122.266 114.629 95.0757 119.709C67.8856 124.789 70.1997 135.514 47.6377 133.821C25.0757 132.127 16.0177 116.358 12.9341 93.7458C9.85053 71.1332 14.3708 49.5437 26.9503 32.0811C39.5299 14.6186 60.1687 1.28292 82.3494 0.0891887C104.565 -1.10454 128.288 9.77545 140.937 27.2721Z" fill="#F7F5F4"/>
<path d="M164.428 96.9276L155.609 90.8072L155.638 80.1155C155.64 79.8229 155.543 79.5376 155.365 79.3044C154.919 78.7185 154.079 78.6017 153.489 79.0425L144.961 85.4909L134.769 82.1192C134.489 82.0256 134.188 82.0288 133.911 82.1235C133.576 82.2395 133.302 82.4836 133.148 82.802C132.994 83.1205 132.974 83.4873 133.091 83.8219L136.638 93.9263L130.31 102.534C130.163 102.734 130.075 102.972 130.056 103.22C130.037 103.468 130.089 103.717 130.204 103.938C130.32 104.159 130.495 104.343 130.71 104.47C130.925 104.597 131.171 104.662 131.421 104.657L142.144 104.455L148.426 113.147C148.596 113.386 148.846 113.561 149.126 113.646C149.833 113.859 150.578 113.463 150.79 112.759L153.868 102.529L164.076 99.2921C164.354 99.2031 164.597 99.0264 164.764 98.7843C165.191 98.183 165.035 97.3516 164.428 96.9276Z" fill="#FFD29C"/>
<path d="M43.9258 20.7087L47.3133 16.4081L52.7548 16.7529C52.9037 16.7625 53.0519 16.7224 53.1761 16.6389C53.4881 16.4297 53.5735 16.0058 53.3673 15.6921L50.3479 11.1521L52.3786 6.06812C52.4349 5.92814 52.4425 5.77484 52.4029 5.63121C52.3541 5.4571 52.2384 5.30982 52.081 5.22174C51.9236 5.13366 51.7375 5.11197 51.5636 5.16145L46.3108 6.65531L42.1242 3.16879C42.0269 3.08753 41.9087 3.03534 41.7831 3.01813C41.6574 3.00092 41.5293 3.01937 41.4132 3.07141C41.2972 3.12344 41.1979 3.20697 41.1265 3.31252C41.0552 3.41807 41.0147 3.54143 41.0096 3.66859L40.7816 9.13299L36.1633 12.0626C36.0364 12.1422 35.9394 12.2636 35.8878 12.4038C35.7573 12.7572 35.9359 13.1486 36.2878 13.2778L41.4004 15.1602L42.7331 20.4563C42.7699 20.6007 42.8523 20.7296 42.9704 20.8224C43.2633 21.058 43.6913 21.0045 43.9258 20.7087Z" fill="#C2C2FF"/>
<path d="M1.95025 108.29L8.78499 110.111L11.1575 116.744C11.2222 116.926 11.3456 117.081 11.5082 117.186C11.9159 117.449 12.4625 117.333 12.7293 116.928L16.5729 111.025L23.6435 110.835C23.8384 110.831 24.0242 110.761 24.1744 110.641C24.356 110.494 24.4716 110.281 24.4957 110.05C24.5198 109.818 24.4504 109.586 24.3027 109.405L19.8449 103.936L21.8418 97.1857C21.8884 97.0288 21.8899 96.8618 21.8461 96.7039C21.8023 96.546 21.7149 96.4034 21.5938 96.2923C21.4728 96.1812 21.3229 96.1061 21.1612 96.0753C20.9994 96.0446 20.8324 96.0596 20.6789 96.1186L14.0784 98.6415L8.24127 94.6591C8.08203 94.5493 7.88839 94.4962 7.69561 94.5067C7.20954 94.5326 6.83641 94.9445 6.86294 95.4281L7.24297 102.457L1.6401 106.746C1.48752 106.863 1.37669 107.027 1.32693 107.214C1.19706 107.682 1.47935 108.163 1.95025 108.29Z" fill="#C6F9EC"/>
<path d="M108.168 68.4237V94.6836H50.2409V36.7567H99.5226L108.152 29.5159H43V101.924H115.409V62.3479L108.168 68.4237Z" fill="black"/>
<path d="M66.1999 59.3378L77.3009 70.4191L126.817 28.5637C128.585 27.0692 131.231 27.2688 132.756 28.9847L132.957 29.2111C134.505 30.9522 134.299 33.515 132.546 34.9915L79.8851 79.3707C78.1713 80.815 75.4043 80.7381 73.7904 79.1271L59.8299 65.1916C58.2071 63.5717 58.2787 61.0054 59.97 59.4399L60.1931 59.2334C61.9092 57.6448 64.5737 57.7146 66.1999 59.3378Z" fill="#02CEAA"/>
</svg>
