<svg width="100" height="75" fill="none" xmlns="http://www.w3.org/2000/svg"><path fill-rule="evenodd" clip-rule="evenodd" d="M82.361 41.049c-.898 9.702-.402 20.36-7.85 26.655-7.637 6.455-18.494 6.018-28.266 3.873-9.896-2.172-19.175-6.772-24.409-15.435-5.92-9.798-9.456-22.033-4.448-32.325 4.994-10.264 17.096-13.495 28.15-16.389C57.261 4.36 71.151-.764 80.095 7.402c8.74 7.98 3.357 21.87 2.266 33.647z" fill="#C2C2FF"/><path d="M66.7 7.027L33.01 7c-2.748 0-4.977 2.233-4.977 4.995l-.068 47.955c-.007 2.762 2.221 5.009 4.97 5.009l36.985.027c2.748 0 4.977-2.233 4.977-4.995l.068-44.527L66.7 7.027z" fill="#fff"/><path d="M66.7 15.465V7.027l8.197 8.438H66.7z" fill="#fff"/><path d="M66.7 7.027L33.01 7c-2.748 0-4.977 2.233-4.977 4.995l-.068 47.955c-.007 2.762 2.221 5.009 4.97 5.009l36.985.027c2.748 0 4.977-2.233 4.977-4.995l.068-44.527L66.7 7.027zm0 0v8.438h8.197L66.7 7.027zM44.965 35.837h22M44.965 45.837h22" stroke="#000" stroke-width="3" stroke-miterlimit="10" stroke-linecap="round" stroke-linejoin="round"/><path d="M40.574 33.994h-3.61v3.627h3.61v-3.627zM40.574 43.994h-3.61v3.627h3.61v-3.627z" fill="#fff" stroke="#000" stroke-width="2" stroke-miterlimit="10" stroke-linecap="round" stroke-linejoin="round"/><path d="M44.965 25.994h22" stroke="#000" stroke-width="3" stroke-miterlimit="10" stroke-linecap="round" stroke-linejoin="round"/><path d="M40.574 23.994h-3.61v3.627h3.61v-3.627z" fill="#fff" stroke="#000" stroke-width="2" stroke-miterlimit="10" stroke-linecap="round" stroke-linejoin="round"/><rect x="58.465" y="40.494" width="27" height="27" rx="3.5" fill="#C6F9EC" stroke="#000" stroke-width="3" stroke-linejoin="round"/><path d="M64.906 54.34l4.31 4.507L79.905 48.7" stroke="#000" stroke-width="4" stroke-linecap="round" stroke-linejoin="round"/><path d="M23.715 28.035l-3.263-2.2-.069-3.832a.501.501 0 00-.792-.386L16.53 23.92l-3.743-1.216a.496.496 0 00-.313 0 .467.467 0 00-.286.609l1.37 3.624-2.244 3.08a.46.46 0 00-.088.246.477.477 0 00.06.258.501.501 0 00.448.258l3.91-.064L18 33.836a.503.503 0 00.259.18.476.476 0 00.6-.317l1.046-3.664 3.7-1.153a.468.468 0 00.246-.181.476.476 0 00-.136-.666z" fill="#FFD29C" stroke="#000" stroke-width="2" stroke-linecap="round" stroke-linejoin="round"/><path d="M88.564 23.046l-2.737 1.106-2.411-1.564a.376.376 0 00-.572.33l.148 2.871-2.326 1.817a.373.373 0 00-.13.195.35.35 0 00.257.433l2.828.669.975 2.687a.344.344 0 00.116.157c.053.04.117.065.185.071a.376.376 0 00.349-.17l1.6-2.459 2.928-.156a.377.377 0 00.22-.086.357.357 0 00.055-.506l-1.84-2.187.835-2.784a.352.352 0 00-.009-.23.357.357 0 00-.471-.194z" fill="#FF9214" stroke="#000" stroke-width="2" stroke-linecap="round" stroke-linejoin="round"/></svg>