<svg width="87" height="87" viewBox="0 0 87 87" fill="none" xmlns="http://www.w3.org/2000/svg">
<path d="M74.1332 49.199C72.6404 58.6661 65.5696 66.6867 57.7521 69.3795C49.9234 72.0613 40.8343 70.7276 30.6699 63.7515C20.5054 56.7755 17.8693 60.8705 11.2892 53.2276C4.70913 45.5847 6.80252 37.7812 12.9267 29.7131C19.051 21.645 27.2508 16.2947 36.6958 14.7798C46.1408 13.2648 56.831 15.5852 64.1969 22.2019C71.5739 28.8296 75.6368 39.7211 74.1332 49.199Z" fill="#02CE9D" fill-opacity="0.3"/>
<path d="M42.6871 53.0597L29.9991 40.4048L25.6936 44.699L42.6871 61.648L79.1995 25.2312L74.8941 20.937L42.6871 53.0597Z" fill="black"/>
</svg>
