<svg width="129" height="131" viewBox="0 0 129 131" fill="none" xmlns="http://www.w3.org/2000/svg">
<path d="M108.273 87.0058C102.256 100.544 88.4902 109.69 75.7406 110.583C62.979 111.456 49.9418 105.828 37.5564 91.3456C25.171 76.8634 19.5968 81.9228 12.8299 67.8789C6.06304 53.835 12.3106 43.0213 24.6823 33.4251C37.054 23.829 51.4375 19.1211 66.1457 20.6378C80.8539 22.1545 95.8869 29.8959 104.238 42.7219C112.6 55.5689 114.309 73.4562 108.273 87.0058Z" fill="#02CE9D" fill-opacity="0.3"/>
<path d="M62.3111 61.7222C53.4833 59.4278 50.6444 57.0556 50.6444 53.3611C50.6444 49.1222 54.5722 46.1667 61.1444 46.1667C68.0667 46.1667 70.6333 49.4722 70.8667 54.3333H79.4611C79.1889 47.6444 75.1056 41.5 66.9778 39.5167V31H55.3111V39.4C47.7667 41.0333 41.7 45.9333 41.7 53.4389C41.7 62.4222 49.1278 66.8944 59.9778 69.5C69.7 71.8333 71.6444 75.2556 71.6444 78.8722C71.6444 81.5556 69.7389 85.8333 61.1444 85.8333C53.1333 85.8333 49.9833 82.2556 49.5556 77.6667H41C41.4667 86.1833 47.8444 90.9667 55.3111 92.5611V101H66.9778V92.6389C74.5611 91.2 80.5889 86.8056 80.5889 78.8333C80.5889 67.7889 71.1389 64.0167 62.3111 61.7222Z" fill="black"/>
</svg>
