<svg width="150" height="148" viewBox="0 0 150 148" fill="none" xmlns="http://www.w3.org/2000/svg">
<path d="M130.746 69.7975C132.525 86.7752 124.049 103.845 111.844 112.095C99.614 120.33 83.3739 122.241 62.695 114.942C42.016 107.643 39.3631 115.908 24.541 105.804C9.71895 95.6993 9.73629 81.3058 16.5628 64.5923C23.3893 47.8787 35.0322 34.8805 50.5766 27.9044C66.121 20.9283 85.5669 19.9743 101.269 27.9496C116.995 35.9388 128.981 52.7965 130.746 69.7975Z" fill="#02CE9D" fill-opacity="0.3"/>
<path d="M116.316 96.2632V99.9474C116.316 104 113 107.316 108.947 107.316H57.3684C53.2789 107.316 50 104 50 99.9474V48.3684C50 44.3158 53.2789 41 57.3684 41H108.947C113 41 116.316 44.3158 116.316 48.3684V52.0526H83.1579C79.0684 52.0526 75.7895 55.3684 75.7895 59.4211V88.8947C75.7895 92.9474 79.0684 96.2632 83.1579 96.2632H116.316ZM83.1579 88.8947H120V59.4211H83.1579V88.8947ZM97.8947 79.6842C94.8368 79.6842 92.3684 77.2158 92.3684 74.1579C92.3684 71.1 94.8368 68.6316 97.8947 68.6316C100.953 68.6316 103.421 71.1 103.421 74.1579C103.421 77.2158 100.953 79.6842 97.8947 79.6842Z" fill="black"/>
</svg>
