<svg width="114" height="111" viewBox="0 0 114 111" fill="none" xmlns="http://www.w3.org/2000/svg">
<path d="M11.8702 70.6992C6.69764 57.2515 9.87443 41.4944 18.0282 32.1122C26.2047 22.7362 39.0407 17.6406 57.5178 19.0826C75.9948 20.5246 76.3489 13.2118 90.6606 18.2162C104.972 23.2207 108.113 34.9538 106.204 50.0613C104.295 65.1688 97.641 78.2981 86.483 87.37C75.325 96.4419 59.6629 101.456 45.0995 98.3787C30.5134 95.2949 17.0368 84.1688 11.8702 70.6992Z" fill="#02CE9D" fill-opacity="0.3"/>
<path d="M103 95.802L98.1357 90.9377L50.3917 43.1937L37.198 30L33 34.198L41.9957 43.1937H39.8634C36.1652 43.1937 33.2332 46.159 33.2332 49.8572L33.1999 86.5064C33.1999 90.2047 36.1652 93.1699 39.8634 93.1699H91.9719L98.802 100L103 95.802ZM99.6683 49.8572C99.8348 46.159 96.8696 43.1937 93.1713 43.3603H79.8444V36.5302C79.8444 32.832 76.8791 29.8667 73.1809 30.0333H59.8539C56.1556 29.8667 53.1904 32.832 53.1904 36.5302V37.5964L99.6683 84.2408V49.8572ZM73.1809 43.3603H59.6873V36.5302H73.1809V43.3603Z" fill="black"/>
</svg>
