<svg width="167" height="125" viewBox="0 0 167 125" fill="none" xmlns="http://www.w3.org/2000/svg">
<path fill-rule="evenodd" clip-rule="evenodd" d="M15.563 62.7765C16.4768 50.158 24.5702 39.6641 32.7163 30.054C40.2751 21.1367 49.1431 13.2037 60.3172 9.97904C71.238 6.82746 82.8276 8.49126 93.4606 12.5241C103.722 16.4159 111.47 24.1083 118.939 32.2127C127.492 41.4932 138.48 50.1639 139.771 62.7765C141.103 75.7825 134.407 88.6274 125.705 98.3063C117.548 107.378 105.51 110.911 93.7583 113.955C82.7207 116.813 71.5592 117.699 60.4344 115.21C48.301 112.494 35.8387 108.67 27.7109 99.1729C19.2143 89.2445 14.6151 75.866 15.563 62.7765Z" fill="#89DDEF"/>
<path d="M18.8563 18.3334L18.7607 71.2123L153.125 71.4018L153.221 18.5228L18.8563 18.3334Z" fill="white" stroke="black" stroke-width="3" stroke-miterlimit="10" stroke-linecap="round" stroke-linejoin="round"/>
<path d="M32.9043 37.2018H85.6881" stroke="black" stroke-width="3" stroke-miterlimit="10" stroke-linecap="round" stroke-linejoin="round"/>
<path d="M32.9043 50.9387H104.307" stroke="black" stroke-width="3" stroke-miterlimit="10" stroke-linecap="round" stroke-linejoin="round"/>
<path d="M140.989 48.3018C140.989 44.7333 138.297 43.707 135.398 43.1386L133.853 42.8544C131.576 42.4281 131.4 41.8123 131.4 40.9912C131.4 39.9175 132.436 39.2702 134.172 39.2702C136.226 39.2702 136.752 40.2333 136.975 40.9596L136.991 41.0228C137.246 41.6544 137.851 42.0333 138.6 42.0333C138.791 42.0333 138.966 42.0018 139.093 41.986C139.89 41.8439 140.463 41.2439 140.463 40.5333C140.463 40.3596 140.431 40.186 140.367 40.0123C139.953 38.7807 138.791 36.8228 135.589 36.3807V34.2649C135.589 32.4965 132.627 32.4965 132.627 34.2649V36.3965C129.186 36.9018 127.912 39.0965 127.912 41.007C127.912 44.4807 130.492 45.4439 133.025 45.9333L134.697 46.2649C137.071 46.7228 137.485 47.2912 137.485 48.3491C137.485 49.6281 136.322 50.4018 134.379 50.4018C131.862 50.4018 131.337 49.3439 131.002 48.1439C130.795 47.4807 130.158 47.0544 129.378 47.0544C129.202 47.0544 129.075 47.0702 128.9 47.1018L128.852 47.086C128.04 47.2596 127.498 47.8596 127.498 48.5702C127.498 48.7123 127.53 48.8228 127.546 48.9175L127.578 49.0281C127.944 50.1807 128.756 52.707 132.786 53.2754V55.5018C132.786 56.386 133.535 56.8439 134.267 56.8439C135 56.8439 135.749 56.386 135.749 55.5018V53.3228C138.918 52.9123 140.989 51.0018 140.989 48.3018Z" fill="#FF9214"/>
<path d="M66.118 117.494V100.14C59.2091 100.14 53.6201 94.4999 53.6201 87.5582V52.023C53.6201 48.1454 56.7446 45 60.5963 45C64.448 45 67.5725 48.1454 67.5725 52.023V73.6885" fill="white"/>
<path d="M67.5725 69.9416L105.335 76.4085C105.335 90.0076 102.845 100.14 92.2718 100.14V117.494H66.118" fill="white"/>
<path d="M66.118 117.494V100.14C59.2091 100.14 53.6201 94.4999 53.6201 87.5582V52.023C53.6201 48.1454 56.7446 45 60.5963 45C64.448 45 67.5725 48.1454 67.5725 52.023V73.6885" fill="white"/>
<path d="M66.118 117.494V100.14C59.2091 100.14 53.6201 94.4999 53.6201 87.5582V52.023C53.6201 48.1454 56.7446 45 60.5963 45C64.448 45 67.5725 48.1454 67.5725 52.023V73.6885M67.5725 71.6667H105.335C105.335 85.2658 102.845 100.14 92.2718 100.14V117.494" stroke="black" stroke-width="3" stroke-miterlimit="10" stroke-linecap="round" stroke-linejoin="round"/>
</svg>
