<svg width="101" height="105" viewBox="0 0 101 105" fill="none" xmlns="http://www.w3.org/2000/svg">
<path d="M18.0423 24.1514C26.2506 14.001 40.0533 9.35547 51.1086 11.503C62.1694 13.6711 71.9823 21.4343 79.2212 36.5853C86.46 51.7363 92.3583 48.7013 94.915 62.1978C97.4716 75.6943 89.6879 83.4735 76.9694 88.8196C64.2509 94.1658 50.9349 94.8925 38.7621 90.2472C26.5893 85.6019 15.5597 75.5845 11.3772 62.7633C7.18921 49.9216 9.81408 34.3072 18.0423 24.1514Z" fill="#02CE9D" fill-opacity="0.3"/>
<path d="M58.6667 31C42 31 27.7667 41.3667 22 56C27.7667 70.6333 42 81 58.6667 81C75.3333 81 89.5667 70.6333 95.3333 56C89.5667 41.3667 75.3333 31 58.6667 31ZM58.6667 72.6667C49.4667 72.6667 42 65.2 42 56C42 46.8 49.4667 39.3333 58.6667 39.3333C67.8667 39.3333 75.3333 46.8 75.3333 56C75.3333 65.2 67.8667 72.6667 58.6667 72.6667ZM58.6667 46C53.1333 46 48.6667 50.4667 48.6667 56C48.6667 61.5333 53.1333 66 58.6667 66C64.2 66 68.6667 61.5333 68.6667 56C68.6667 50.4667 64.2 46 58.6667 46Z" fill="black"/>
</svg>
