<svg width="119" height="119" viewBox="0 0 119 119" fill="none" xmlns="http://www.w3.org/2000/svg">
<path d="M101.784 67.8217C99.7502 80.7164 90.1194 91.6409 79.4715 95.3087C68.8085 98.9615 56.4286 97.1448 42.5841 87.6431C28.7396 78.1414 25.149 83.7189 16.1866 73.3089C7.22423 62.8989 10.0755 52.2701 18.417 41.281C26.7586 30.2918 37.9271 23.0044 50.7918 20.941C63.6564 18.8775 78.217 22.038 88.2497 31.0503C98.2975 40.0776 103.831 54.9124 101.784 67.8217Z" fill="#02CE9D" fill-opacity="0.3"/>
<path d="M80 39H38C34.15 39 31 42.15 31 46V102C31 105.85 34.15 109 38 109H80C83.85 109 87 105.85 87 102V46C87 42.15 83.85 39 80 39ZM38 46H55.5V74L46.75 68.75L38 74V46Z" fill="black"/>
</svg>
