<svg width="273" height="250" fill="none" xmlns="http://www.w3.org/2000/svg"><path fill-rule="evenodd" clip-rule="evenodd" d="M126.971 249.904c-35.525 1.282-71.829-10.273-95.932-36.557-23.358-25.472-24.536-61.882-26.087-96.501C3.292 79.808-5.8 35.597 21.98 11.232c27.425-24.052 68.612-2.1 104.99-1.4 35.057.675 72.775-15.496 101.046 5.368 30.788 22.722 46.313 63.308 43.959 101.646-2.249 36.616-28.775 65.092-55.719 89.816-25.369 23.279-54.969 42.004-89.286 43.242z" fill="#C2C2FF"/><path d="M117.001 10.3H58.209v198.616h58.792V10.3z" fill="#fff" stroke="#000" stroke-width="3" stroke-miterlimit="10" stroke-linecap="round" stroke-linejoin="round"/><path d="M72.014 32.72h29.569M72.014 53.926h29.569M72.014 75.131h20.702M72.014 96.327h29.569M72.014 116.969H83.85M72.014 138.174h29.569M72.014 156.859h11.72M94.18 156.859h7.288" stroke="#000" stroke-width="3" stroke-miterlimit="10" stroke-linecap="round" stroke-linejoin="round"/><path d="M93.312 185.535c0-3.022-2.27-3.885-4.726-4.37l-1.303-.246c-1.924-.353-2.075-.881-2.075-1.577 0-.908.878-1.454 2.341-1.454 1.738 0 2.181.819 2.367 1.427l.018.053c.222.538.727.855 1.357.855.16 0 .31-.027.425-.044.683-.124 1.153-.635 1.153-1.234 0-.149-.027-.299-.089-.44-.346-1.049-1.33-2.696-4.034-3.075v-1.797c0-1.498-2.5-1.498-2.5 0v1.806c-2.908.423-3.981 2.282-3.981 3.894 0 2.942 2.19 3.762 4.326 4.176l1.41.282c2.004.379 2.359.872 2.359 1.762 0 1.083-.976 1.735-2.625 1.735-2.128 0-2.562-.898-2.855-1.912-.168-.555-.709-.916-1.374-.916-.142 0-.257.018-.399.044l-.044.009c-.692.15-1.153.661-1.153 1.26 0 .114.018.211.036.291l.017.088c.31.978.993 3.118 4.398 3.594v1.885c0 .749.63 1.146 1.25 1.146s1.25-.397 1.25-1.146v-1.85c2.704-.343 4.451-1.955 4.451-4.246z" fill="#FF9214"/><path d="M206.897 62.836l-86.151-.064c-6.413 0-11.614 5.212-11.614 11.658l-.159 111.928c-.016 6.446 5.185 11.69 11.598 11.69l86.326.064c6.413 0 11.614-5.212 11.614-11.658l.16-112.024s0-11.594-11.774-11.594z" fill="#fff" stroke="#000" stroke-width="3" stroke-miterlimit="10" stroke-linecap="round" stroke-linejoin="round"/><path d="M171.499 173.563c0-3.624-2.696-4.667-5.599-5.244l-1.548-.288c-2.281-.433-2.457-1.059-2.457-1.893 0-1.09 1.037-1.748 2.776-1.748 2.058 0 2.585.979 2.808 1.716l.016.064c.255.642.861 1.027 1.611 1.027.192 0 .367-.032.495-.048.797-.145 1.372-.754 1.372-1.476 0-.176-.032-.352-.096-.529-.415-1.251-1.579-3.239-4.786-3.688v-2.149c0-1.796-2.967-1.796-2.967 0v2.165c-3.446.513-4.723 2.742-4.723 4.682 0 3.528 2.585 4.506 5.121 5.003l1.675.337c2.378.465 2.792 1.043 2.792 2.117 0 1.299-1.164 2.085-3.111 2.085-2.52 0-3.047-1.075-3.382-2.294-.207-.673-.845-1.106-1.627-1.106-.176 0-.303.016-.479.048l-.047.016c-.814.177-1.357.786-1.357 1.507 0 .145.032.257.048.353l.032.112c.367 1.171 1.181 3.737 5.217 4.314v2.261c0 .898.75 1.363 1.484 1.363s1.483-.465 1.483-1.363v-2.213c3.175-.449 5.249-2.389 5.249-5.131z" fill="#02CEAA"/><path d="M146.314 120.743h51.349M146.314 144.083h51.349" stroke="#000" stroke-width="3" stroke-miterlimit="10" stroke-linecap="round" stroke-linejoin="round"/><path d="M136.068 116.439h-8.423v8.467h8.423v-8.467zM136.068 139.78h-8.423v8.466h8.423v-8.466z" fill="#fff" stroke="#000" stroke-width="3" stroke-miterlimit="10" stroke-linecap="round" stroke-linejoin="round"/><path d="M146.314 97.768h51.349" stroke="#000" stroke-width="3" stroke-miterlimit="10" stroke-linecap="round" stroke-linejoin="round"/><path d="M136.068 93.1h-8.423v8.466h8.423v-8.467z" fill="#fff" stroke="#000" stroke-width="3" stroke-miterlimit="10" stroke-linecap="round" stroke-linejoin="round"/><path d="M192.381 72.187l-78.637-.064c-6.413 0-11.614 5.211-11.614 11.657l-.159 111.929c-.016 6.446 5.185 11.689 11.598 11.689l86.326.065c6.413 0 11.614-5.212 11.614-11.658l.16-103.927-19.288-19.691z" fill="#fff"/><path d="M192.381 91.88V72.187l19.128 19.693h-19.128z" fill="#fff"/><path d="M192.381 72.187l-78.637-.064c-6.413 0-11.614 5.211-11.614 11.657l-.159 111.929c-.016 6.446 5.185 11.689 11.598 11.689l86.326.065c6.413 0 11.614-5.212 11.614-11.658l.16-103.927-19.288-19.691zm0 0V91.88h19.128l-19.128-19.693zM139.314 130.093h51.349M120.645 165.468h70.02M120.645 149.13h70.02M120.645 181.806h70.02" stroke="#000" stroke-width="3" stroke-miterlimit="10" stroke-linecap="round" stroke-linejoin="round"/><path d="M129.068 125.79h-8.423v8.467h8.423v-8.467z" fill="#fff" stroke="#FFAB48" stroke-width="3" stroke-miterlimit="10" stroke-linecap="round" stroke-linejoin="round"/><path d="M139.314 107.118h51.349" stroke="#000" stroke-width="3" stroke-miterlimit="10" stroke-linecap="round" stroke-linejoin="round"/><path d="M129.068 102.449h-8.423v8.467h8.423v-8.467z" fill="#fff" stroke="#FFAB48" stroke-width="3" stroke-miterlimit="10" stroke-linecap="round" stroke-linejoin="round"/><path d="M241.159 220.477h-74.146a1.653 1.653 0 01-1.659-1.649v-81.179c0-.911.742-1.649 1.659-1.649h74.146c.917 0 1.66.738 1.66 1.649v81.179a1.66 1.66 0 01-1.66 1.649z" fill="#fff" stroke="#000" stroke-width="3" stroke-miterlimit="10" stroke-linecap="round" stroke-linejoin="round"/><path d="M233.242 145.79H174.93v13.567h58.312V145.79z" fill="#FFD29C" stroke="#000" stroke-width="3" stroke-miterlimit="10" stroke-linecap="round" stroke-linejoin="round"/><path d="M188.583 169.783H174.93v13.567h13.653v-13.567zM210.913 169.783H197.26v13.567h13.653v-13.567zM233.241 169.783h-13.653v13.567h13.653v-13.567zM188.583 191.208H174.93v13.567h13.653v-13.567zM210.913 191.208H197.26v13.567h13.653v-13.567zM233.241 191.208h-13.653v13.567h13.653v-13.567z" fill="#fff" stroke="#000" stroke-width="3" stroke-miterlimit="10" stroke-linecap="round" stroke-linejoin="round"/><path d="M199.37 14h39.365c3.413 0 6.179 2.748 6.179 6.14v18.873c0 3.392-2.766 6.14-6.179 6.14h-29.14l-8.984 8.927v-8.927h-1.241c-3.413 0-6.179-2.748-6.179-6.14V20.14c.008-3.392 2.774-6.14 6.179-6.14z" fill="#FFD29C" stroke="#000" stroke-width="3" stroke-miterlimit="10" stroke-linecap="round" stroke-linejoin="round"/><path d="M237.565 24.984h-37.026M237.565 32.584h-37.026" stroke="#000" stroke-width="3" stroke-miterlimit="10" stroke-linecap="round" stroke-linejoin="round"/><path d="M1.791 59.31L22.698 90.17l51.343-34.309L53.134 25 1.791 59.31z" fill="#C6F9EC" stroke="#000" stroke-width="3" stroke-miterlimit="10" stroke-linecap="round" stroke-linejoin="round"/><path d="M44.505 52.58a8.454 8.454 0 011.312 6.423 8.526 8.526 0 01-3.65 5.464c-3.943 2.638-9.316 1.594-11.971-2.331a8.467 8.467 0 01-1.28-6.54 8.496 8.496 0 013.627-5.347 8.609 8.609 0 016.47-1.303 8.58 8.58 0 015.492 3.635z" stroke="#000" stroke-width="3" stroke-miterlimit="10"/><path d="M51.838 29.49l-41.04 27.424c-.032.016-.056.04-.087.063L6.452 59.82a.597.597 0 00-.158.825L23.156 85.53a.597.597 0 00.821.165l45.378-30.32a.608.608 0 00.253-.37V55a.576.576 0 00-.087-.44L52.659 29.671a.576.576 0 00-.821-.18zM7.614 60.464l3.595-2.402a3.181 3.181 0 011.785 1.272c.475.698.648 1.538.482 2.363 0 .015-.008.023-.008.039a3.186 3.186 0 01-3.27 2.505h-.017l-2.567-3.777zM23.81 84.37l-2.591-3.832a3.158 3.158 0 013.642-2.19 3.104 3.104 0 012.023 1.335c.458.675.632 1.491.49 2.3l-3.564 2.386zm44.39-29.662l-3.603 2.403c-.047-.024-.094-.055-.142-.063a3.123 3.123 0 01-2.023-1.335 3.095 3.095 0 01-.482-2.363 3.13 3.13 0 011.344-2.01 3.121 3.121 0 012.291-.487l2.615 3.855zm-3.437-5.072a4.357 4.357 0 00-2.133.723 4.29 4.29 0 00-1.833 2.708c0 .016-.008.04-.008.055a4.299 4.299 0 00.663 3.25 4.369 4.369 0 001.913 1.57L28.608 81.167a4.351 4.351 0 00-3.517-3.972 4.366 4.366 0 00-4.67 2.182l-9.473-13.99c1.786-.244 3.295-1.594 3.674-3.408 0-.015.008-.039.016-.055a4.325 4.325 0 00-.664-3.258 4.32 4.32 0 00-1.58-1.413L47.429 33.84a4.35 4.35 0 003.516 3.965 4.379 4.379 0 004.511-1.923l9.308 13.755zm-10.05-14.838a3.18 3.18 0 01-3.532 1.869c-1.691-.33-2.805-1.948-2.513-3.62l3.342-2.237 2.703 3.988z" fill="#000" stroke="#000" stroke-miterlimit="10"/><path d="M50.695 144L25 188.696l74.328 42.239 25.696-44.696L50.695 144z" fill="#C6F9EC" stroke="#000" stroke-width="3" stroke-miterlimit="10" stroke-linecap="round" stroke-linejoin="round"/><path d="M85.303 192.519a11.859 11.859 0 01-7.214 5.559c-3.09.824-6.29.424-9.055-1.146-5.713-3.243-7.696-10.505-4.44-16.181a11.853 11.853 0 017.371-5.59 11.911 11.911 0 018.897 1.185 11.802 11.802 0 015.594 7.176 11.672 11.672 0 01-1.153 8.997z" stroke="#000" stroke-width="3" stroke-miterlimit="10"/><path d="M118.631 187.393l-59.402-33.752c-.04-.031-.08-.047-.127-.071l-6.155-3.501a.829.829 0 00-1.122.306L31.1 186.419a.813.813 0 00.308 1.115l65.684 37.324c.19.102.403.133.617.086h.015a.854.854 0 00.498-.377l20.725-36.044c.214-.408.079-.911-.316-1.13zM52.837 151.89l5.199 2.96a4.266 4.266 0 01-.498 2.976 4.399 4.399 0 01-2.655 2.049c-.016.008-.04.008-.055.015-2.078.534-4.283-.533-5.136-2.496 0-.008-.008-.008-.008-.016l3.153-5.488zm-19.912 34.631l3.192-5.543a4.37 4.37 0 014.97 3.149c.316 1.13.158 2.3-.426 3.313a4.33 4.33 0 01-2.568 2.017l-5.168-2.936zm64.262 36.515l-5.207-2.959c0-.071.008-.15-.016-.22a4.299 4.299 0 01.427-3.313 4.397 4.397 0 015.99-1.626 4.299 4.299 0 012.014 2.528l-3.208 5.59zm4.219-7.348a5.985 5.985 0 00-2.22-2.191 5.974 5.974 0 00-4.504-.596c-.023.008-.055.015-.079.023a5.992 5.992 0 00-3.65 2.811 5.927 5.927 0 00-.782 3.321l-50.3-28.586c2.314-1.334 3.54-4.09 2.804-6.767-.71-2.591-3.01-4.318-5.586-4.42l11.647-20.248a6.086 6.086 0 006.503 2.441c.023-.008.055-.015.079-.023a6.03 6.03 0 003.658-2.811 5.97 5.97 0 00.798-2.811l50.719 28.814c-2.307 1.334-3.532 4.082-2.797 6.76.664 2.418 2.757 4.121 5.167 4.38l-11.457 19.903zm12.366-21.496c-2.054.125-3.951-1.202-4.496-3.211-.624-2.285.703-4.648 2.979-5.323l4.843 2.755-3.326 5.779z" fill="#000" stroke="#000" stroke-miterlimit="10"/><path d="M247.673 113.632c5.237 0 9.482-4.218 9.482-9.421 0-5.204-4.245-9.422-9.482-9.422-5.237 0-9.482 4.218-9.482 9.422 0 5.203 4.245 9.421 9.482 9.421z" fill="#FFD29C" stroke="#000" stroke-width="2" stroke-miterlimit="10" stroke-linecap="round" stroke-linejoin="round"/><path d="M250.566 105.647c0-1.499-1.13-1.931-2.347-2.174l-.648-.126c-.956-.173-1.027-.44-1.027-.785 0-.456.434-.722 1.161-.722.862 0 1.083.408 1.178.706l.008.024c.11.267.363.424.671.424a.732.732 0 00.206-.024c.339-.063.568-.314.568-.612a.708.708 0 00-.039-.22c-.174-.518-.656-1.343-2.007-1.523v-.895c0-.746-1.24-.746-1.24 0v.895c-1.446.212-1.976 1.13-1.976 1.939 0 1.46 1.083 1.869 2.149 2.073l.704.141c.995.188 1.169.432 1.169.871 0 .542-.49.864-1.304.864-1.058 0-1.272-.447-1.422-.95-.087-.275-.356-.455-.679-.455a.885.885 0 00-.198.023h-.024c-.339.079-.569.33-.569.628 0 .055.008.102.016.142l.008.047c.15.487.49 1.546 2.181 1.782v.934c0 .369.316.565.624.565s.624-.196.624-.565v-.918c1.344-.15 2.213-.95 2.213-2.089z" fill="#000"/><path d="M245.863 84.89v4.372M250.479 90.746V82" stroke="#000" stroke-width="2" stroke-miterlimit="10" stroke-linecap="round" stroke-linejoin="round"/></svg>