<svg width="118" height="114" viewBox="0 0 118 114" fill="none" xmlns="http://www.w3.org/2000/svg">
<path d="M104.939 41.0765C110.245 54.8708 106.986 71.0341 98.6219 80.6581C90.2346 90.2759 77.0678 95.5028 58.1144 94.0236C39.1611 92.5445 38.7979 100.046 24.1173 94.9124C9.43664 89.7789 6.21546 77.7433 8.17344 62.2464C10.1314 46.7495 16.9569 33.2818 28.4025 23.976C39.8482 14.6703 55.914 9.52649 70.8528 12.6836C85.8149 15.8468 99.6388 27.2597 104.939 41.0765Z" fill="#02CE9D" fill-opacity="0.3"/>
<path d="M59 57C67.5638 57 74.5 50.0637 74.5 41.5C74.5 32.9362 67.5638 26 59 26C50.4363 26 43.5 32.9362 43.5 41.5C43.5 50.0637 50.4363 57 59 57ZM59 64.75C48.6537 64.75 28 69.9425 28 80.25V88H90V80.25C90 69.9425 69.3462 64.75 59 64.75Z" fill="black"/>
</svg>
