<svg width="113" height="115" viewBox="0 0 113 115" fill="none" xmlns="http://www.w3.org/2000/svg">
<path d="M95.1889 76.4819C89.8874 88.411 77.7574 96.4706 66.523 97.2575C55.2779 98.026 43.7901 93.0671 32.8765 80.306C21.963 67.5448 17.0512 72.0029 11.0885 59.628C5.12576 47.2531 10.6308 37.7244 21.5323 29.2687C32.4338 20.8129 45.1079 16.6645 58.0683 18.001C71.0286 19.3374 84.2751 26.1588 91.6334 37.4607C99.0024 48.7809 100.508 64.5426 95.1889 76.4819Z" fill="#02CE9D" fill-opacity="0.3"/>
<path d="M57.3111 58.7222C48.4833 56.4278 45.6444 54.0556 45.6444 50.3611C45.6444 46.1222 49.5722 43.1667 56.1444 43.1667C63.0667 43.1667 65.6333 46.4722 65.8667 51.3333H74.4611C74.1889 44.6444 70.1056 38.5 61.9778 36.5167V28H50.3111V36.4C42.7667 38.0333 36.7 42.9333 36.7 50.4389C36.7 59.4222 44.1278 63.8944 54.9778 66.5C64.7 68.8333 66.6444 72.2556 66.6444 75.8722C66.6444 78.5556 64.7389 82.8333 56.1444 82.8333C48.1333 82.8333 44.9833 79.2556 44.5556 74.6667H36C36.4667 83.1833 42.8444 87.9667 50.3111 89.5611V98H61.9778V89.6389C69.5611 88.2 75.5889 83.8056 75.5889 75.8333C75.5889 64.7889 66.1389 61.0167 57.3111 58.7222Z" fill="black"/>
</svg>
