<svg width="80" height="80" viewBox="0 0 80 80" fill="none" xmlns="http://www.w3.org/2000/svg">
<path d="M2.84388 21.0058C7.58562 9.00487 18.4131 0.885695 28.4336 0.0800442C38.4635 -0.707096 48.7034 4.26414 58.4223 17.0809C68.1412 29.8978 72.5269 25.409 77.8307 37.8438C83.1346 50.2786 78.214 59.8663 68.4817 68.3822C58.7495 76.8981 47.4412 81.0855 35.8839 79.7583C24.3266 78.4312 12.5203 71.5896 5.97054 60.2355C-0.588684 48.8629 -1.91379 33.0172 2.84388 21.0058Z" fill="#C6F9EC"/>
<path d="M70.8693 33.34L46.8064 21.5946C46.0299 21.2182 45.1765 21.0226 44.3115 21.0226C43.4466 21.0226 42.5931 21.2182 41.8166 21.5946L17.7538 33.34C16.4581 33.9611 15.3657 34.9303 14.6019 36.1365C13.8381 37.3427 13.4337 38.7371 13.4352 40.1599V65.3C13.4352 69.5052 16.9391 72.9261 21.2466 72.9261H67.3764C71.6839 72.9261 75.1878 69.5052 75.1878 65.3V40.1599C75.1893 38.7371 74.785 37.3427 74.0212 36.1365C73.2574 34.9303 72.165 33.9611 70.8693 33.34ZM43.8125 25.492C43.9679 25.4167 44.1385 25.3776 44.3115 25.3776C44.4845 25.3776 44.6552 25.4167 44.8105 25.492L68.158 36.8848L44.4494 48.4601C44.2941 48.5353 44.1234 48.5744 43.9504 48.5744C43.7774 48.5744 43.6067 48.5353 43.4514 48.4601L20.0998 37.0659L43.8125 25.492Z" fill="black"/>
<path d="M21.4093 7.90039C20.3048 7.90039 19.4093 8.79582 19.4093 9.90039V36.3156C19.4093 37.0766 19.8412 37.7717 20.5236 38.1087L43.0393 49.2309C43.5976 49.5067 44.2525 49.5067 44.8108 49.2309L67.3265 38.1087C68.0088 37.7717 68.4407 37.0766 68.4407 36.3156V9.90039C68.4407 9.36996 68.23 8.86125 67.8549 8.48618C67.4799 8.1111 66.9712 7.90039 66.4407 7.90039H21.4093Z" fill="white" stroke="black" stroke-width="4" stroke-linejoin="round"/>
<path d="M37.8273 26.6657L41.5199 30.2911L51.8996 21.0226" stroke="black" stroke-width="4" stroke-linecap="round" stroke-linejoin="round"/>
</svg>
