<svg width="101" height="76" viewBox="0 0 101 76" fill="none" xmlns="http://www.w3.org/2000/svg">
<path fill-rule="evenodd" clip-rule="evenodd" d="M77.4482 64.323C71.424 69.3312 63.2969 69.8192 55.5826 71.165C47.7103 72.5383 39.7133 75.032 32.2072 72.2152C24.2107 69.2143 17.17 63.2155 13.6066 55.4126C10.1149 47.7669 11.6509 39.0597 13.3125 30.8407C14.902 22.9791 17.0382 14.8818 22.8975 9.45782C28.6369 4.1449 36.7377 2.87445 44.5023 1.96858C51.9824 1.0959 59.5773 1.20404 66.4368 4.37827C73.505 7.64906 79.2467 13.149 83.2152 19.8828C87.3861 26.96 90.3402 35.0142 89.2848 43.1467C88.2149 51.3913 83.8074 59.0363 77.4482 64.323Z" fill="#89DDEF"/>
<path d="M81.6258 41.7831H71.374C69.2349 41.7831 67.5 43.4699 67.5 45.5496V63.5H85.5V45.5496C85.5 43.4699 83.7649 41.7831 81.6258 41.7831Z" fill="white"/>
<path d="M76.4999 41.7831C80.2727 41.7831 83.3314 38.8096 83.3314 35.1416C83.3314 31.4735 80.2727 28.5 76.4999 28.5C72.727 28.5 69.6686 31.4735 69.6686 35.1416C69.6686 38.8096 72.727 41.7831 76.4999 41.7831Z" fill="white"/>
<path d="M81.6258 41.7831H71.374C69.2349 41.7831 67.5 43.4699 67.5 45.5496V63.5H85.5V45.5496C85.5 43.4699 83.7649 41.7831 81.6258 41.7831Z" stroke="black" stroke-width="3" stroke-miterlimit="10" stroke-linecap="round" stroke-linejoin="round"/>
<path d="M76.4999 41.7831C80.2727 41.7831 83.3314 38.8096 83.3314 35.1416C83.3314 31.4735 80.2727 28.5 76.4999 28.5C72.727 28.5 69.6686 31.4735 69.6686 35.1416C69.6686 38.8096 72.727 41.7831 76.4999 41.7831Z" stroke="black" stroke-width="3" stroke-miterlimit="10" stroke-linecap="round" stroke-linejoin="round"/>
<path d="M30.6258 41.7831H20.374C18.2349 41.7831 16.5 43.4699 16.5 45.5496V63.5H34.5V45.5496C34.5 43.4699 32.7649 41.7831 30.6258 41.7831Z" fill="white"/>
<path d="M25.4999 41.7831C29.2727 41.7831 32.3314 38.8096 32.3314 35.1416C32.3314 31.4735 29.2727 28.5 25.4999 28.5C21.727 28.5 18.6686 31.4735 18.6686 35.1416C18.6686 38.8096 21.727 41.7831 25.4999 41.7831Z" fill="white"/>
<path d="M30.6258 41.7831H20.374C18.2349 41.7831 16.5 43.4699 16.5 45.5496V63.5H34.5V45.5496C34.5 43.4699 32.7649 41.7831 30.6258 41.7831Z" stroke="black" stroke-width="3" stroke-miterlimit="10" stroke-linecap="round" stroke-linejoin="round"/>
<path d="M25.4999 41.7831C29.2727 41.7831 32.3314 38.8096 32.3314 35.1416C32.3314 31.4735 29.2727 28.5 25.4999 28.5C21.727 28.5 18.6686 31.4735 18.6686 35.1416C18.6686 38.8096 21.727 41.7831 25.4999 41.7831Z" stroke="black" stroke-width="3" stroke-miterlimit="10" stroke-linecap="round" stroke-linejoin="round"/>
<path d="M58.5 19.5C58.5 17.3783 57.6571 15.3434 56.1569 13.8431C54.6566 12.3429 52.6217 11.5 50.5 11.5C48.3783 11.5 46.3434 12.3429 44.8431 13.8431C43.3429 15.3434 42.5 17.3783 42.5 19.5C42.5 19.9243 42.6686 20.3313 42.9686 20.6314C43.2687 20.9314 43.6757 21.1 44.1 21.1C44.5243 21.1 44.9313 20.9314 45.2314 20.6314C45.5314 20.3313 45.7 19.9243 45.7 19.5C45.7 18.5506 45.9815 17.6226 46.5089 16.8333C47.0364 16.0439 47.786 15.4287 48.6631 15.0654C49.5402 14.7021 50.5053 14.607 51.4364 14.7922C52.3675 14.9774 53.2228 15.4346 53.8941 16.1059C54.5654 16.7772 55.0226 17.6325 55.2078 18.5636C55.393 19.4947 55.2979 20.4598 54.9346 21.3369C54.5713 22.214 53.9561 22.9636 53.1667 23.4911C52.3774 24.0185 51.4494 24.3 50.5 24.3C50.0757 24.3 49.6687 24.4686 49.3686 24.7686C49.0686 25.0687 48.9 25.4757 48.9 25.9V29.1C48.9 29.5243 49.0686 29.9313 49.3686 30.2314C49.6687 30.5314 50.0757 30.7 50.5 30.7C50.9243 30.7 51.3313 30.5314 51.6314 30.2314C51.9314 29.9313 52.1 29.5243 52.1 29.1V27.34C53.907 26.9712 55.531 25.9893 56.6973 24.5606C57.8635 23.132 58.5004 21.3442 58.5 19.5Z" fill="black"/>
<path d="M50.5004 37.1004C51.384 37.1004 52.1004 36.384 52.1004 35.5004C52.1004 34.6167 51.384 33.9004 50.5004 33.9004C49.6167 33.9004 48.9004 34.6167 48.9004 35.5004C48.9004 36.384 49.6167 37.1004 50.5004 37.1004Z" fill="black"/>
</svg>
