<svg width="39" height="39" viewBox="0 0 39 39" fill="none" xmlns="http://www.w3.org/2000/svg">
<path d="M19.5 0C8.72782 0 0 8.72782 0 19.5C0 30.2722 8.72782 39 19.5 39C30.2722 39 39 30.2722 39 19.5C39 8.72782 30.2722 0 19.5 0ZM19.5 35.2258C10.8272 35.2258 3.77419 28.1728 3.77419 19.5C3.77419 10.8272 10.8272 3.77419 19.5 3.77419C28.1728 3.77419 35.2258 10.8272 35.2258 19.5C35.2258 28.1728 28.1728 35.2258 19.5 35.2258ZM13.2097 18.2419C14.6014 18.2419 15.7258 17.1175 15.7258 15.7258C15.7258 14.3341 14.6014 13.2097 13.2097 13.2097C11.8179 13.2097 10.6935 14.3341 10.6935 15.7258C10.6935 17.1175 11.8179 18.2419 13.2097 18.2419ZM25.7903 13.2097C24.3986 13.2097 23.2742 14.3341 23.2742 15.7258C23.2742 17.1175 24.3986 18.2419 25.7903 18.2419C27.1821 18.2419 28.3065 17.1175 28.3065 15.7258C28.3065 14.3341 27.1821 13.2097 25.7903 13.2097ZM19.5 23.2742C16.3391 23.2742 13.3669 24.6659 11.3383 27.0956C10.67 27.8976 10.78 29.0849 11.5821 29.7532C12.3841 30.4137 13.5714 30.3115 14.2397 29.5095C15.545 27.9448 17.4635 27.0405 19.5 27.0405C21.5365 27.0405 23.455 27.9369 24.7603 29.5095C25.3972 30.2722 26.5766 30.4452 27.4179 29.7532C28.22 29.0849 28.3222 27.8976 27.6617 27.0956C25.6331 24.6659 22.6609 23.2742 19.5 23.2742Z" fill="black"/>
</svg>
