<svg width="40" height="40" viewBox="0 0 40 40" fill="none" xmlns="http://www.w3.org/2000/svg">
<path d="M12 14C11.4696 14 10.9609 14.2107 10.5858 14.5858C10.2107 14.9609 9.99999 15.4696 9.99999 16C9.99999 16.5305 10.2107 17.0392 10.5858 17.4142C10.9609 17.7893 11.4696 18 12 18H14C14.5304 18 15.0391 17.7893 15.4142 17.4142C15.7893 17.0392 16 16.5305 16 16C16 15.4696 15.7893 14.9609 15.4142 14.5858C15.0391 14.2107 14.5304 14 14 14H12Z" fill="black"/>
<path d="M26 14C25.4696 14 24.9609 14.2107 24.5858 14.5858C24.2107 14.9609 24 15.4696 24 16C24 16.5305 24.2107 17.0392 24.5858 17.4142C24.9609 17.7893 25.4696 18 26 18H28C28.5304 18 29.0391 17.7893 29.4142 17.4142C29.7893 17.0392 30 16.5305 30 16C30 15.4696 29.7893 14.9609 29.4142 14.5858C29.0391 14.2107 28.5304 14 28 14H26Z" fill="black"/>
<path d="M14 26C13.4696 26 12.9609 26.2107 12.5858 26.5858C12.2107 26.9609 12 27.4696 12 28C12 28.5305 12.2107 29.0392 12.5858 29.4142C12.9609 29.7893 13.4696 30 14 30H26C26.5304 30 27.0391 29.7893 27.4142 29.4142C27.7893 29.0392 28 28.5305 28 28C28 27.4696 27.7893 26.9609 27.4142 26.5858C27.0391 26.2107 26.5304 26 26 26H14Z" fill="black"/>
<path fill-rule="evenodd" clip-rule="evenodd" d="M20 40C31.046 40 40 31.046 40 20C40 8.954 31.046 0 20 0C8.954 0 0 8.954 0 20C0 31.046 8.954 40 20 40ZM20 36C24.2435 36 28.3131 34.3143 31.3137 31.3137C34.3143 28.3131 36 24.2435 36 20C36 15.7565 34.3143 11.6869 31.3137 8.68629C28.3131 5.68571 24.2435 4 20 4C15.7565 4 11.6869 5.68571 8.68629 8.68629C5.68571 11.6869 4 15.7565 4 20C4 24.2435 5.68571 28.3131 8.68629 31.3137C11.6869 34.3143 15.7565 36 20 36Z" fill="black"/>
</svg>
