<svg width="40" height="40" viewBox="0 0 40 40" fill="none" xmlns="http://www.w3.org/2000/svg">
<path fill-rule="evenodd" clip-rule="evenodd" d="M20 3.63636C10.9626 3.63636 3.63636 10.9626 3.63636 20C3.63636 29.0374 10.9626 36.3636 20 36.3636C29.0374 36.3636 36.3636 29.0374 36.3636 20C36.3636 10.9626 29.0374 3.63636 20 3.63636ZM0 20C0 8.9543 8.9543 0 20 0C31.0457 0 40 8.9543 40 20C40 31.0457 31.0457 40 20 40C8.9543 40 0 31.0457 0 20Z" fill="black"/>
<path fill-rule="evenodd" clip-rule="evenodd" d="M14.1761 22.5379C13.5721 21.7411 12.4372 21.5812 11.6364 22.1818C10.833 22.7843 10.6702 23.9239 11.2727 24.7273L12.7273 23.6364C11.2727 24.7273 11.2723 24.7267 11.2727 24.7273L11.2746 24.7297L11.2767 24.7325L11.2816 24.7391L11.2947 24.7562L11.3335 24.8058C11.3648 24.8454 11.4073 24.8979 11.4607 24.9615C11.5673 25.0885 11.7182 25.2606 11.9117 25.4626C12.2973 25.8649 12.8608 26.3949 13.5897 26.925C15.0405 27.9801 17.2263 29.0909 20 29.0909C22.7737 29.0909 24.9595 27.9801 26.4103 26.925C27.1392 26.3949 27.7027 25.8649 28.0883 25.4626C28.2818 25.2606 28.4327 25.0885 28.5393 24.9615C28.5927 24.8979 28.6352 24.8454 28.6665 24.8058L28.7053 24.7562L28.7184 24.7391L28.7233 24.7325L28.7254 24.7297C28.7259 24.7291 28.7273 24.7273 27.2727 23.6364L28.7273 24.7273C29.3298 23.9239 29.167 22.7843 28.3636 22.1818C27.5628 21.5812 26.4279 21.7411 25.8239 22.5379L25.8155 22.5487C25.8046 22.5623 25.7841 22.5879 25.754 22.6238C25.6937 22.6956 25.596 22.8076 25.4629 22.9465C25.195 23.226 24.7926 23.6051 24.2715 23.9841C23.2223 24.7472 21.7718 25.4545 20 25.4545C18.2282 25.4545 16.7777 24.7472 15.7285 23.9841C15.2074 23.6051 14.805 23.226 14.5371 22.9465C14.404 22.8076 14.3063 22.6956 14.246 22.6238C14.2159 22.5879 14.1954 22.5623 14.1846 22.5487L14.1761 22.5379Z" fill="black"/>
<path fill-rule="evenodd" clip-rule="evenodd" d="M12.7273 14.5455C12.7273 13.5413 13.5413 12.7273 14.5455 12.7273H14.5636C15.5678 12.7273 16.3818 13.5413 16.3818 14.5455C16.3818 15.5496 15.5678 16.3636 14.5636 16.3636H14.5455C13.5413 16.3636 12.7273 15.5496 12.7273 14.5455Z" fill="black"/>
<path fill-rule="evenodd" clip-rule="evenodd" d="M23.6364 14.5455C23.6364 13.5413 24.4504 12.7273 25.4545 12.7273H25.4727C26.4769 12.7273 27.2909 13.5413 27.2909 14.5455C27.2909 15.5496 26.4769 16.3636 25.4727 16.3636H25.4545C24.4504 16.3636 23.6364 15.5496 23.6364 14.5455Z" fill="black"/>
</svg>
