<svg width="160" height="158" viewBox="0 0 160 158" fill="none" xmlns="http://www.w3.org/2000/svg">
<path d="M121.821 98.0375C116.503 110.03 104.334 118.132 93.0638 118.923C81.7829 119.695 70.2584 114.71 59.3101 101.882C48.3617 89.0532 43.4343 93.5349 37.4525 81.0946C31.4708 68.6544 36.9935 59.0754 47.9297 50.5749C58.866 42.0745 71.5805 37.9042 84.5822 39.2477C97.5838 40.5913 110.873 47.4487 118.254 58.8102C125.647 70.1902 127.157 86.0351 121.821 98.0375Z" fill="#89DDEF"/>
<path fill-rule="evenodd" clip-rule="evenodd" d="M98.7771 45.9062L105.088 45.9062C108.569 45.9062 111.399 48.7367 111.399 52.2173L111.399 96.3951C111.399 99.8757 108.569 102.706 105.088 102.706L60.9105 102.706C57.4299 102.706 54.5994 99.8757 54.5994 96.3951L54.5994 52.2173C54.5994 48.7367 57.4299 45.9062 60.9105 45.9062L67.2216 45.9062L67.2216 39.5951L73.5327 39.5951L73.5327 45.9062L92.466 45.9062L92.466 39.5951L98.7771 39.5951L98.7771 45.9062ZM60.9105 96.3951L105.095 96.3951L105.088 58.5284L60.9105 58.5284L60.9105 96.3951ZM97.8524 70.226L79.8437 88.2348L68.146 76.5371L72.608 72.0752L79.8437 79.3109L93.3905 65.7641L97.8524 70.226Z" fill="black"/>
</svg>
