<svg width="31" height="35" fill="none" xmlns="http://www.w3.org/2000/svg"><path d="M29.729 2H1.27c-.363 0-.666.121-.908.363A1.232 1.232 0 000 3.271v15.5c0 .404.121.727.363.97.242.241.545.363.908.363h28.457c.364 0 .666-.122.909-.364.242-.242.363-.565.363-.968v-15.5c0-.364-.121-.667-.363-.909A1.232 1.232 0 0029.728 2zM2.604 4.604h1.271c0 .363-.121.666-.363.908a1.232 1.232 0 01-.908.363V4.604zm0 12.896v-1.271c.847 0 1.271.423 1.271 1.271H2.604zm8.355 0h-4.48c0-1.09-.374-2.008-1.12-2.755-.747-.747-1.666-1.12-2.755-1.12V8.479c1.09 0 2.008-.374 2.754-1.12.747-.747 1.12-1.666 1.12-2.755h4.481C9.667 6.42 9.021 8.559 9.021 11.02c0 2.422.646 4.582 1.938 6.479zm4.541 0c-1.05 0-1.958-.646-2.725-1.938-.767-1.291-1.15-2.805-1.15-4.54 0-1.736.383-3.24 1.15-4.511.767-1.272 1.675-1.907 2.725-1.907s1.958.635 2.725 1.907c.766 1.271 1.15 2.775 1.15 4.51 0 1.776-.373 3.3-1.12 4.572-.747 1.271-1.665 1.907-2.755 1.907zm12.896 0h-1.271c0-.848.424-1.271 1.271-1.271V17.5zm0-3.875c-1.09 0-2.008.373-2.754 1.12-.747.747-1.12 1.665-1.12 2.755h-4.36c1.292-1.897 1.938-4.057 1.938-6.479 0-2.462-.646-4.601-1.938-6.417h4.36c0 1.09.373 2.008 1.12 2.754.746.747 1.665 1.12 2.755 1.12v5.147zm0-7.75c-.363 0-.666-.121-.908-.363a1.232 1.232 0 01-.363-.908h1.271v1.271zm0 18.104h-7.205c.525-.727.788-1.595.788-2.604h-2.604c0 .08-.01.182-.03.303-.02.12-.101.333-.242.636a2.477 2.477 0 01-.576.787c-.242.222-.625.423-1.15.605-.525.182-1.15.273-1.877.273-1.09 0-1.958-.212-2.604-.636-.645-.424-1.019-.797-1.12-1.12a2.9 2.9 0 01-.151-.848H9.021c0 .767.263 1.635.788 2.604H2.604v-2.604H0v2.604c0 .686.252 1.281.757 1.786.504.504 1.12.756 1.847.756h25.793c.726 0 1.342-.252 1.846-.756.505-.505.757-1.1.757-1.787v-2.603h-2.604v2.604zm0 6.418h-7.205c.525-.727.788-1.575.788-2.543h-2.604c0 .242-.04.504-.121.787-.08.282-.434.646-1.06 1.09-.625.443-1.523.665-2.694.665-1.09 0-1.958-.201-2.604-.605-.645-.404-1.019-.767-1.12-1.09a2.899 2.899 0 01-.151-.848H9.021c0 .727.263 1.575.788 2.543H2.604v-2.543H0v2.543c0 .727.252 1.343.757 1.847A2.51 2.51 0 002.604 33h25.793a2.51 2.51 0 001.846-.757A2.51 2.51 0 0031 30.396v-2.543h-2.604v2.543z" fill="#89DDEF"/></svg>