<svg width="160" height="158" viewBox="0 0 160 158" fill="none" xmlns="http://www.w3.org/2000/svg">
<path d="M121.821 98.0375C116.503 110.03 104.334 118.132 93.0638 118.923C81.7829 119.695 70.2584 114.71 59.3101 101.882C48.3617 89.0532 43.4343 93.5349 37.4525 81.0946C31.4708 68.6544 36.9935 59.0754 47.9297 50.5749C58.866 42.0745 71.5805 37.9042 84.5822 39.2477C97.5838 40.5913 110.873 47.4487 118.254 58.8102C125.647 70.1902 127.157 86.0351 121.821 98.0375Z" fill="#89DDEF"/>
<path d="M61.1699 90.0082L76.8029 89.9556L110.924 56.4762C112.263 55.1497 113 53.388 113 51.514C113 49.64 112.263 47.8783 110.924 46.5517L105.306 40.9859C102.628 38.3328 97.9551 38.3468 95.2982 40.9753L61.1699 74.4617L61.1699 90.0082ZM100.297 45.9481L105.926 51.5034L100.268 57.0553L94.6499 51.4929L100.297 45.9481ZM68.2549 77.3885L89.6161 56.4271L95.2344 61.9929L73.8768 82.9474L68.2549 82.9649L68.2549 77.3885Z" fill="black"/>
<path d="M54.085 104L103.68 104C107.587 104 110.765 100.852 110.765 96.9813L110.765 66.5621L103.68 73.5808L103.68 96.9813L65.2721 96.9813C65.18 96.9813 65.0844 97.0164 64.9923 97.0164C64.8754 97.0164 64.7585 96.9848 64.638 96.9813L54.085 96.9813L54.085 47.8501L78.3403 47.8501L85.4253 40.8314L54.085 40.8314C50.1776 40.8314 47 43.9793 47 47.8501L47 96.9813C47 100.852 50.1776 104 54.085 104Z" fill="black"/>
</svg>
