<svg width="34" height="44" viewBox="0 0 34 44" fill="none" xmlns="http://www.w3.org/2000/svg">
  <path d="M19.3696 0H3.86947C2.84356 0 1.86225 0.389578 1.13742 1.10195C0.412594 1.80319 0 2.7493 0 3.75107V33.7263C0 34.7169 0.412594 35.6742 1.13742 36.3754C1.86225 37.0766 2.85471 37.4774 3.88062 37.4774H20.0945C20.0164 30.5095 22.492 28.7063 22.492 28.7063H14.6527C14.5969 25.0999 14.8088 22.0501 16.4369 19.3453C18.6336 15.6833 25.4693 14.0137 31.0003 16.685V11.2421L19.3696 0ZM17.4293 13.1121V2.80496L28.0787 13.1121H17.4293Z" fill="#8E8EEF"/>
  <path d="M31.1891 20.2259C29.635 18.6395 27.1423 17.8462 24.3166 18.0247C19.7551 18.3321 17.2321 21.1481 17.0202 26.1652L17 26.6808H22.4092L22.4294 26.2049C22.4799 24.6878 23.2771 23.5476 24.4579 23.3195C25.8304 23.0518 26.779 23.8748 27.1827 24.6581C27.4854 25.2431 27.7276 26.1355 26.3753 27.246C24.8615 28.4755 23.812 29.5662 23.0652 30.6767C22.167 32.0153 22.0358 33.7604 21.9854 35.5947L21.9652 36.1103H26.8395L26.8597 35.6344C26.9102 34.4247 26.9909 33.3737 27.4249 32.7391C27.9194 32.0252 28.5753 31.5393 29.2818 31.0237C29.6955 30.7263 30.1194 30.409 30.5332 30.0322C31.6029 29.0506 32.7534 27.8508 32.9552 25.9273C33.1772 23.6071 32.5717 21.6339 31.1891 20.2259Z" fill="#8E8EEF"/>
  <path d="M24.6395 36.6655C23.1459 36.6655 21.9248 37.8653 21.9248 39.3328C21.9248 40.8002 23.1459 42 24.6395 42C26.1331 42 27.3542 40.8002 27.3542 39.3328C27.3441 37.8554 26.1331 36.6655 24.6395 36.6655Z" fill="#8E8EEF"/>
</svg>
