<svg width="32" height="38" viewBox="0 0 32 38" fill="none" xmlns="http://www.w3.org/2000/svg">
  <path d="M20.5276 23.9596L17.412 27.0336L21.3451 30.98L17.4119 34.8606H17.3457L20.4612 38L24.527 33.9885L28.4601 37.9346V38L31.642 34.8606H31.5757L27.5763 30.98L31.5757 27.0339L28.3938 23.9599L28.4601 23.9599L24.527 27.8406L20.5276 23.9596Z" fill="#D73D02"/>
  <path fill-rule="evenodd" clip-rule="evenodd" d="M17.3457 0H3.46913C1.54376 0 0 1.52315 0 3.42282V30.8053C0 31.7131 0.365497 32.5837 1.01608 33.2256C1.66667 33.8675 2.54906 34.2282 3.46913 34.2282H15.2138L15.9886 33.4956L18.6924 30.8279L15.9704 28.097L14.7491 26.892L20.3177 21.3977L21.539 22.6027L24.3069 25.2883L27.0106 22.6206L27.753 21.8563V10.2684L17.3457 0ZM25.1512 11.9799H15.6111V2.56711L25.1512 11.9799Z" fill="#D73D02"/>
</svg>
