<svg width="83" height="72" viewBox="0 0 83 72" fill="none" xmlns="http://www.w3.org/2000/svg">
  <path fill-rule="evenodd" clip-rule="evenodd" d="M0.579721 35.1786C1.17424 27.0251 6.43985 20.2444 11.7397 14.0348C16.6575 8.2729 22.427 3.14697 29.6969 1.06332C36.802 -0.973083 44.3423 0.10199 51.2601 2.70779C57.9362 5.22256 62.9773 10.193 67.8364 15.4297C73.4007 21.4263 80.5499 27.0289 81.3899 35.1786C82.2561 43.5825 77.8998 51.8823 72.2383 58.1363C66.9316 63.9983 59.0993 66.2812 51.4538 68.2476C44.2727 70.0946 37.011 70.6672 29.7732 69.0584C21.8791 67.3038 13.7712 64.8332 8.48317 58.6963C2.9553 52.281 -0.0369874 43.6364 0.579721 35.1786Z" fill="#FFD29C"/>
  <path d="M56.5 14.7H5.5C3.29086 14.7 1.5 16.4908 1.5 18.6999V52C1.5 54.2091 3.29086 56 5.5 56H56.5C58.7091 56 60.5 54.2091 60.5 52V18.7C60.5 16.4908 58.7091 14.7 56.5 14.7Z" fill="white" stroke="black" stroke-width="3" stroke-miterlimit="10" stroke-linecap="round" stroke-linejoin="round"/>
  <path d="M3.4668 15.6833L28.3305 38.3271C29.847 39.7082 32.1624 39.7184 33.691 38.3507L59.0251 15.6833" stroke="black" stroke-width="3" stroke-miterlimit="10" stroke-linecap="round" stroke-linejoin="round"/>
  <path d="M65.5 70C74.3366 70 81.5 62.8366 81.5 54C81.5 45.1634 74.3366 38 65.5 38C56.6634 38 49.5 45.1634 49.5 54C49.5 62.8366 56.6634 70 65.5 70Z" fill="#C2C2FF" stroke="black" stroke-width="3" stroke-miterlimit="10" stroke-linecap="round" stroke-linejoin="round"/>
  <path d="M65.4993 45.625C60.8993 45.625 57.166 49.3583 57.166 53.9583C57.166 58.5583 60.8993 62.2917 65.4993 62.2917H69.666V60.625H65.4993C61.8827 60.625 58.8327 57.575 58.8327 53.9583C58.8327 50.3417 61.8827 47.2917 65.4993 47.2917C69.116 47.2917 72.166 50.3417 72.166 53.9583V55.15C72.166 55.8083 71.5743 56.4583 70.916 56.4583C70.2577 56.4583 69.666 55.8083 69.666 55.15V53.9583C69.666 51.6583 67.7993 49.7917 65.4993 49.7917C63.1993 49.7917 61.3327 51.6583 61.3327 53.9583C61.3327 56.2583 63.1993 58.125 65.4993 58.125C66.6493 58.125 67.6993 57.6583 68.4493 56.9C68.991 57.6417 69.9243 58.125 70.916 58.125C72.5577 58.125 73.8327 56.7917 73.8327 55.15V53.9583C73.8327 49.3583 70.0993 45.625 65.4993 45.625ZM65.4993 56.4583C64.116 56.4583 62.9993 55.3417 62.9993 53.9583C62.9993 52.575 64.116 51.4583 65.4993 51.4583C66.8827 51.4583 67.9993 52.575 67.9993 53.9583C67.9993 55.3417 66.8827 56.4583 65.4993 56.4583Z" fill="black"/>
</svg>
