<svg width="80" height="81" viewBox="0 0 80 81" fill="none" xmlns="http://www.w3.org/2000/svg">
<path fill-rule="evenodd" clip-rule="evenodd" d="M79.2122 24.9804C82.4698 37.5734 75.0405 49.7604 67.6298 60.1915C60.3798 70.3966 51.4454 81.0273 39.4736 80.9159C27.896 80.8081 20.4319 69.2963 13.171 59.6846C6.32162 50.6178 -2.16441 40.6543 0.502898 29.3284C3.08716 18.3552 15.3567 15.2411 24.8312 10.1729C33.8614 5.34233 42.691 -1.12267 52.4569 1.5365C64.2252 4.74093 75.977 12.4739 79.2122 24.9804Z" fill="#C2C2FF"/>
<path fill-rule="evenodd" clip-rule="evenodd" d="M72.0596 25.9559C73.3285 27.2155 73.3111 29.2406 72.0206 30.4792L63.0567 39.0821C61.7816 40.306 59.7365 40.306 58.4613 39.0821L53.9794 34.7806C52.6889 33.5421 52.6715 31.517 53.9404 30.2574C55.2094 28.9978 57.2843 28.9808 58.5748 30.2194L60.759 32.3157L67.4252 25.9179C68.7157 24.6793 70.7906 24.6964 72.0596 25.9559Z" fill="black"/>
<path d="M34.5446 19C29.2311 19 25 23.26 25 28.4207C25 33.5815 29.2311 37.8414 34.5446 37.8414C39.858 37.8414 44.0891 33.5815 44.0891 28.4207C44.0891 23.26 39.858 19 34.5446 19Z" fill="white" stroke="black" stroke-width="6" stroke-linecap="round" stroke-linejoin="round"/>
<path d="M51 63.8416C52.6569 63.8416 54 62.4984 54 60.8416V54.8416C54 47.6619 48.1797 41.8416 41 41.8416H29C21.8203 41.8416 16 47.6619 16 54.8416V60.8416C16 62.4984 17.3431 63.8416 19 63.8416H51Z" fill="white" stroke="black" stroke-width="6" stroke-linecap="round" stroke-linejoin="round"/>
</svg>
