<svg width="40" height="50" viewBox="0 0 40 50" fill="none" xmlns="http://www.w3.org/2000/svg">
  <path d="M30.3208 31.6092H10.8433C9.88385 31.6092 9.10938 30.839 9.10938 29.885C9.10938 28.931 9.88385 28.1609 10.8433 28.1609H30.3208C31.2803 28.1609 32.0548 28.931 32.0548 29.885C32.0548 30.839 31.2803 31.6092 30.3208 31.6092Z" fill="black"/>
  <path d="M30.3208 37.5288H10.8433C9.88385 37.5288 9.10938 36.7587 9.10938 35.8047C9.10938 34.8507 9.88385 34.0806 10.8433 34.0806H30.3208C31.2803 34.0806 32.0548 34.8507 32.0548 35.8047C32.0548 36.7587 31.2803 37.5288 30.3208 37.5288Z" fill="black"/>
  <path d="M39.9723 9.72414C39.9723 9.71264 39.9723 9.71264 39.9723 9.70115C39.9492 9.55172 39.8914 9.41379 39.8336 9.28736C39.8221 9.25287 39.799 9.21839 39.7874 9.1954C39.718 9.06896 39.6256 8.94253 39.5215 8.82759L31.3606 0.517241C31.2566 0.402299 31.1294 0.321839 30.9907 0.241379C30.956 0.218391 30.9213 0.206897 30.8982 0.183908C30.7595 0.114943 30.6208 0.0574713 30.4821 0.0344828C30.3665 0.0114942 30.2509 0 30.1353 0H5.12081C2.30032 0 0 2.28736 0 5.09195V44.908C0 47.7126 2.30032 50 5.12081 50H34.8747C37.6951 50 39.9955 47.7126 39.9955 44.908V10.023C40.007 9.91954 39.9955 9.81609 39.9723 9.72414ZM31.8461 5.94253L32.4125 6.51724L34.1464 8.28736H31.8345V5.94253H31.8461ZM34.8862 46.5402H5.12081C4.20761 46.5402 3.46781 45.8046 3.46781 44.8966V5.08046C3.46781 4.17241 4.20761 3.43678 5.12081 3.43678H28.3783V10.023C28.3783 10.977 29.1528 11.7471 30.1122 11.7471H36.5392V44.8966C36.5392 45.8046 35.7878 46.5402 34.8862 46.5402Z" fill="black"/>
  <path d="M22.8184 9.78184C23.5582 10.1956 24.1824 10.7818 24.6101 11.4945C25.0378 12.2071 25.269 13.0117 25.2805 13.8278C25.2805 14.6439 25.0493 15.4485 24.6216 16.1612C24.1939 16.8738 23.5697 17.46 22.8299 17.8738C22.0901 18.2876 21.2347 18.506 20.3793 18.506C19.9516 18.506 19.5355 18.3336 19.2234 18.0462C18.9229 17.7474 18.7495 17.3566 18.7495 16.9428C18.7495 16.529 18.9113 16.1267 19.2234 15.8393C19.5355 15.552 19.9401 15.391 20.3793 15.391C20.8186 15.391 21.2232 15.2186 21.5353 14.9313C21.8358 14.6324 22.0092 14.2416 22.0092 13.8278C22.0092 13.414 21.8474 13.0117 21.5353 12.7244C21.2232 12.4255 20.8186 12.2646 20.3793 12.2646C20.0904 12.2646 19.8129 12.3336 19.5586 12.4715C19.3043 12.6094 19.0962 12.8048 18.9575 13.0462C18.7495 13.4025 18.3911 13.6669 17.975 13.7703C17.5588 13.8738 17.108 13.8278 16.7381 13.6209C16.5532 13.5175 16.3798 13.3795 16.2526 13.2186C16.1139 13.0577 16.0214 12.8738 15.9637 12.6784C15.9059 12.483 15.8943 12.2761 15.9174 12.0692C15.9521 11.8738 16.0214 11.6784 16.1255 11.4945C16.5532 10.7818 17.1658 10.1956 17.9172 9.78184C18.657 9.36805 19.5124 9.14966 20.3678 9.14966C21.2232 9.14966 22.067 9.36805 22.8184 9.78184Z" fill="#02CEAA"/>
  <path d="M20.3676 20.0807C20.5757 20.0807 20.7953 20.1152 20.9918 20.1956C21.1883 20.2761 21.3733 20.391 21.5236 20.5405C21.8241 20.8278 21.9975 21.2301 21.9975 21.6324C22.0091 21.8393 21.9628 22.0577 21.8703 22.2416C21.7894 22.4255 21.6738 22.5979 21.5236 22.7359C21.3617 22.8738 21.1768 23.0002 20.9803 23.0807C20.6335 23.2186 20.2405 23.2301 19.8821 23.1267C19.5238 23.0232 19.2117 22.8048 19.0036 22.506C18.7955 22.2071 18.7031 21.8393 18.7377 21.483C18.784 21.1267 18.9458 20.7933 19.2117 20.5405C19.362 20.391 19.5469 20.2761 19.7434 20.1956C19.9399 20.1267 20.148 20.0807 20.3676 20.0807Z" fill="#02CEAA"/>
</svg>
