<svg width="71" height="70" viewBox="0 0 71 70" fill="none" xmlns="http://www.w3.org/2000/svg">
  <path fill-rule="evenodd" clip-rule="evenodd" d="M44.5446 69.1369C38.22 70.702 31.802 69.608 25.4259 68.321C18.3549 66.8937 9.909 66.8781 5.46096 61.2478C1.01516 55.6204 4.08394 47.4232 3.29122 40.3035C2.50557 33.2472 -1.15466 26.4163 0.821853 19.5823C2.94781 12.2316 7.54658 4.97428 14.477 1.62732C21.2776 -1.65694 29.1149 1.94477 36.6563 2.27656C43.9872 2.59908 51.8868 -0.165199 58.1852 3.55029C64.5603 7.31103 68.0318 14.694 69.8266 21.8441C71.4751 28.4114 69.2475 35.0424 67.7509 41.6582C66.3329 47.9263 65.4844 54.5095 61.3223 59.4378C57.0773 64.4644 50.9485 67.5522 44.5446 69.1369Z" fill="#C6F9EC"/>
  <path d="M35.5 7C25.4142 7 17.2188 15.1673 17.2188 25.1994C17.2188 38.8489 35.5 59 35.5 59C35.5 59 53.7813 38.8489 53.7813 25.1994C53.7688 15.1673 45.5734 7 35.5 7Z" fill="#C2C2FF" stroke="black" stroke-width="3" stroke-miterlimit="10" stroke-linecap="round" stroke-linejoin="round"/>
  <path d="M35.5007 32.024C39.189 32.024 42.1791 29.0353 42.1791 25.3484C42.1791 21.6616 39.189 18.6729 35.5007 18.6729C31.8124 18.6729 28.8223 21.6616 28.8223 25.3484C28.8223 29.0353 31.8124 32.024 35.5007 32.024Z" fill="white" stroke="black" stroke-width="3" stroke-miterlimit="10" stroke-linecap="round" stroke-linejoin="round"/>
</svg>
