<svg width="40" height="40" viewBox="0 0 40 40" fill="none" xmlns="http://www.w3.org/2000/svg">
  <path d="M20 40C8.97471 40 0 31.0253 0 20C0 8.97471 8.97471 0 20 0C31.0253 0 40 8.97471 40 20C40 31.0253 31.0345 40 20 40ZM20 2.75862C10.492 2.75862 2.75862 10.492 2.75862 20C2.75862 29.508 10.492 37.2414 20 37.2414C29.508 37.2414 37.2414 29.508 37.2414 20C37.2414 10.492 29.508 2.75862 20 2.75862Z" fill="black"/>
  <path d="M26.8323 23.43C26.8323 19.7887 24.1105 18.7496 21.168 18.1611L19.6048 17.8668C17.2967 17.4438 17.122 16.8093 17.122 15.9634C17.122 14.8691 18.1703 14.2162 19.9266 14.2162C22.0047 14.2162 22.5381 15.2001 22.7588 15.9358L22.7772 16.0001C23.0346 16.6438 23.6415 17.03 24.4048 17.03C24.5979 17.03 24.7818 17.0024 24.9105 16.9749C25.7197 16.8185 26.2898 16.2116 26.2898 15.4944C26.2898 15.3197 26.253 15.1358 26.1887 14.9611C25.7749 13.7013 24.5979 11.7151 21.3611 11.2553V9.0944C21.3611 7.2921 18.3634 7.2921 18.3634 9.0944V11.2737C14.8783 11.7887 13.6002 14.0231 13.6002 15.9726C13.6002 19.5128 16.2208 20.5059 18.7772 21.0024L20.4599 21.3427C22.8599 21.8024 23.2829 22.3909 23.2829 23.4668C23.2829 24.7726 22.1151 25.5542 20.1473 25.5542C17.6002 25.5542 17.076 24.4691 16.7266 23.2553C16.5243 22.5841 15.8806 22.1519 15.0806 22.1519C14.9059 22.1519 14.768 22.1703 14.6025 22.1978L14.5473 22.1887C13.7197 22.3726 13.168 22.9795 13.168 23.7059C13.168 23.8438 13.1956 23.9634 13.2139 24.0553L13.2415 24.1657C13.6093 25.3427 14.4277 27.9174 18.5013 28.4967V30.7588C18.5013 31.6599 19.2553 32.1289 20.0002 32.1289C20.745 32.1289 21.499 31.6599 21.499 30.7588V28.5335C24.7358 28.1289 26.8323 26.1795 26.8323 23.43Z" fill="#FF9214"/>
</svg>
