<svg width="73" height="65" viewBox="0 0 73 65" fill="none" xmlns="http://www.w3.org/2000/svg">
<path fill-rule="evenodd" clip-rule="evenodd" d="M56.0027 10.29C62.788 15.9901 69.9658 21.7762 71.7183 30.4793C73.8366 40.9989 74.1357 53.7367 66.21 60.9796C58.3871 68.1286 46.3462 63.6268 35.7756 63.3258C25.7419 63.0401 14.468 66.1072 7.09626 59.2965C-0.406249 52.365 -0.437284 40.7731 0.312412 30.5617C0.999362 21.2048 3.88598 11.7649 11.032 5.68873C17.7428 -0.0174952 27.1041 -0.548708 35.8479 0.34594C43.5977 1.13887 50.0384 5.27956 56.0027 10.29Z" fill="#89DDEF"/>
<path d="M58.7268 8H13.2831C8.70225 8 5 11.8126 5 16.5074V41.0967C5 45.8017 8.71212 49.6041 13.2831 49.6041H41.5486V58L49.7229 49.6041H58.717C63.2979 49.6041 67 45.7915 67 41.0967V16.5175C67.0099 11.8126 63.3077 8 58.7268 8Z" fill="white" stroke="black" stroke-width="3" stroke-miterlimit="10" stroke-linecap="round" stroke-linejoin="round"/>
<path d="M44 24C44 21.8783 43.1571 19.8434 41.6569 18.3431C40.1566 16.8429 38.1217 16 36 16C33.8783 16 31.8434 16.8429 30.3431 18.3431C28.8429 19.8434 28 21.8783 28 24C28 24.4243 28.1686 24.8313 28.4686 25.1314C28.7687 25.4314 29.1757 25.6 29.6 25.6C30.0243 25.6 30.4313 25.4314 30.7314 25.1314C31.0314 24.8313 31.2 24.4243 31.2 24C31.2 23.0506 31.4815 22.1226 32.0089 21.3333C32.5364 20.5439 33.286 19.9287 34.1631 19.5654C35.0402 19.2021 36.0053 19.107 36.9364 19.2922C37.8675 19.4774 38.7228 19.9346 39.3941 20.6059C40.0654 21.2772 40.5226 22.1325 40.7078 23.0636C40.893 23.9947 40.7979 24.9598 40.4346 25.8369C40.0713 26.714 39.4561 27.4636 38.6667 27.9911C37.8774 28.5185 36.9494 28.8 36 28.8C35.5757 28.8 35.1687 28.9686 34.8686 29.2686C34.5686 29.5687 34.4 29.9757 34.4 30.4V33.6C34.4 34.0243 34.5686 34.4313 34.8686 34.7314C35.1687 35.0314 35.5757 35.2 36 35.2C36.4243 35.2 36.8313 35.0314 37.1314 34.7314C37.4314 34.4313 37.6 34.0243 37.6 33.6V31.84C39.407 31.4712 41.031 30.4893 42.1973 29.0606C43.3635 27.632 44.0004 25.8442 44 24Z" fill="#02CEAA"/>
<path d="M36.0004 41.6004C36.884 41.6004 37.6004 40.884 37.6004 40.0004C37.6004 39.1167 36.884 38.4004 36.0004 38.4004C35.1167 38.4004 34.4004 39.1167 34.4004 40.0004C34.4004 40.884 35.1167 41.6004 36.0004 41.6004Z" fill="#02CEAA"/>
</svg>
