<svg width="82" height="82" viewBox="0 0 82 82" fill="none" xmlns="http://www.w3.org/2000/svg">
<path fill-rule="evenodd" clip-rule="evenodd" d="M0 41C0 18.368 18.368 0 41 0C63.632 0 82 18.368 82 41C82 63.632 63.632 82 41 82C18.368 82 0 63.632 0 41ZM8.2 41C8.2 59.081 22.919 73.8 41 73.8C59.081 73.8 73.8 59.081 73.8 41C73.8 22.919 59.081 8.2 41 8.2C22.919 8.2 8.2 22.919 8.2 41Z" fill="black"/>
<path d="M24.6 32.8C24.6 23.739 31.939 16.4 41 16.4C50.061 16.4 57.4 23.739 57.4 32.8C57.4 38.06 54.1609 40.8906 51.0071 43.6467C48.0152 46.2614 45.1 48.809 45.1 53.3H36.9C36.9 45.8328 40.7627 42.872 44.1588 40.2689C46.823 38.2268 49.2 36.4048 49.2 32.8C49.2 28.29 45.51 24.6 41 24.6C36.49 24.6 32.8 28.29 32.8 32.8H24.6Z" fill="black"/>
<path d="M45.1 57.4V65.6H36.9V57.4H45.1Z" fill="black"/>
</svg>
