<svg width="103" height="102" viewBox="0 0 103 102" fill="none" xmlns="http://www.w3.org/2000/svg">
<path fill-rule="evenodd" clip-rule="evenodd" d="M78.1052 77.7121C85.7964 68.8646 88.7703 56.7916 86.365 45.3378C83.963 33.8997 76.6134 23.5734 65.8066 19.1473C55.777 15.0394 45.1691 19.8653 35.315 24.4291C25.4801 28.9839 13.7875 33.6436 11.5911 44.2562C9.43995 54.6507 19.0535 62.7208 25.6798 70.9859C32.0374 78.9157 37.8296 88.2718 47.9173 89.5661C59.1839 91.0116 70.6385 86.3015 78.1052 77.7121Z" fill="#C6F9EC"/>
<path d="M84.4008 60.6579C83.4462 60.6579 82.5307 60.2717 81.8557 59.5843C81.1807 58.8969 80.8015 57.9646 80.8015 56.9925L80.8015 47.4991L58.1622 70.5912C57.8276 70.9348 57.4295 71.2074 56.9909 71.3935C56.5523 71.5796 56.0818 71.6754 55.6067 71.6754C55.1315 71.6754 54.6611 71.5796 54.2225 71.3935C53.7839 71.2074 53.3858 70.9348 53.0512 70.5912L41.2096 58.4953L22.1695 77.922C21.4918 78.6122 20.5725 79 19.6141 79C18.6556 79 17.7363 78.6122 17.0586 77.922C16.3808 77.2318 16.0001 76.2957 16.0001 75.3196C16.0001 74.3435 16.3808 73.4073 17.0586 72.7171L38.6542 50.7246C38.9888 50.3811 39.3868 50.1084 39.8254 49.9223C40.264 49.7362 40.7345 49.6404 41.2096 49.6404C41.6848 49.6404 42.1552 49.7362 42.5938 49.9223C43.0324 50.1084 43.4305 50.3811 43.7651 50.7246L55.6067 62.8205L75.7266 42.3308L66.4045 42.3308C65.4499 42.3308 64.5344 41.9447 63.8594 41.2573C63.1844 40.5699 62.8052 39.6375 62.8052 38.6654C62.8052 37.6933 63.1844 36.761 63.8594 36.0736C64.5344 35.3862 65.4499 35 66.4045 35L84.4008 35C84.8711 35.0058 85.3358 35.1054 85.7685 35.2932C86.648 35.6652 87.3469 36.3769 87.7121 37.2726C87.8966 37.7132 87.9944 38.1864 88.0001 38.6654L88.0001 56.9925C88.0001 57.9646 87.6209 58.8969 86.9459 59.5843C86.2709 60.2717 85.3554 60.6579 84.4008 60.6579Z" fill="black"/>
</svg>
