<svg width="100" height="75" fill="none" xmlns="http://www.w3.org/2000/svg"><path fill-rule="evenodd" clip-rule="evenodd" d="M27.997 59.71c-6.785-5.7-13.963-11.486-15.715-20.19-2.119-10.519-2.418-23.257 5.508-30.5 7.823-7.149 19.864-2.647 30.434-2.346 10.034.286 21.308-2.781 28.68 4.03 7.502 6.931 7.533 18.523 6.784 28.734-.687 9.357-3.574 18.797-10.72 24.873-6.71 5.706-16.072 6.238-24.816 5.343-7.75-.793-14.19-4.934-20.155-9.944z" fill="#C2C2FF"/><circle cx="48" cy="38" r="23.5" fill="#fff" stroke="#000" stroke-width="3"/><path d="M63.3 38.663c-.45 0-.883-.176-1.201-.488a1.65 1.65 0 01-.498-1.178V32.68L50.91 43.178a1.702 1.702 0 01-1.207.493 1.729 1.729 0 01-1.207-.493l-5.592-5.498-8.99 8.83c-.32.314-.755.49-1.207.49-.453 0-.887-.176-1.207-.49-.32-.314-.5-.74-.5-1.183 0-.444.18-.87.5-1.183l10.198-9.996a1.702 1.702 0 011.206-.493 1.73 1.73 0 011.207.493l5.592 5.498 9.501-9.314h-4.402c-.45 0-.883-.175-1.202-.488a1.65 1.65 0 01-.498-1.178c0-.442.18-.866.498-1.178A1.717 1.717 0 0154.802 27H63.3c.223.003.442.048.646.133A1.683 1.683 0 0165 28.666v8.33c0 .442-.18.866-.498 1.179a1.717 1.717 0 01-1.202.488z" fill="#FF9214"/></svg>
