<svg width="54" height="52" viewBox="0 0 54 52" fill="none" xmlns="http://www.w3.org/2000/svg">
  <path fill-rule="evenodd" clip-rule="evenodd" d="M47.25 3.375H6.75C5.85489 3.375 4.99645 3.73058 4.36351 4.36351C3.73058 4.99645 3.375 5.85489 3.375 6.75V33.75C3.375 34.6451 3.73058 35.5036 4.36351 36.1365C4.99645 36.7694 5.85489 37.125 6.75 37.125H15.1875C16.2354 37.125 17.2689 37.369 18.2062 37.8376C19.1435 38.3063 19.9588 38.9867 20.5875 39.825L27 48.3739L33.4125 39.825C34.0412 38.9867 34.8565 38.3063 35.7938 37.8376C36.7311 37.369 37.7646 37.125 38.8125 37.125H47.25C48.1451 37.125 49.0036 36.7694 49.6365 36.1365C50.2694 35.5036 50.625 34.6451 50.625 33.75V6.75C50.625 5.85489 50.2694 4.99645 49.6365 4.36351C49.0036 3.73058 48.1451 3.375 47.25 3.375ZM6.75 0C4.95979 0 3.2429 0.711159 1.97703 1.97703C0.711159 3.2429 0 4.95979 0 6.75V33.75C0 35.5402 0.711159 37.2571 1.97703 38.523C3.2429 39.7888 4.95979 40.5 6.75 40.5H15.1875C15.7115 40.5 16.2282 40.622 16.6968 40.8563C17.1655 41.0906 17.5731 41.4308 17.8875 41.85L24.3 50.3989C24.6144 50.818 25.022 51.1582 25.4907 51.3926C25.9593 51.6269 26.476 51.7489 27 51.7489C27.524 51.7489 28.0407 51.6269 28.5093 51.3926C28.978 51.1582 29.3856 50.818 29.7 50.3989L36.1125 41.85C36.4269 41.4308 36.8345 41.0906 37.3032 40.8563C37.7718 40.622 38.2885 40.5 38.8125 40.5H47.25C49.0402 40.5 50.7571 39.7888 52.023 38.523C53.2888 37.2571 54 35.5402 54 33.75V6.75C54 4.95979 53.2888 3.2429 52.023 1.97703C50.7571 0.711159 49.0402 0 47.25 0H6.75Z" fill="black"/>
  <path fill-rule="evenodd" clip-rule="evenodd" d="M10.125 11.8125C10.125 11.3649 10.3028 10.9357 10.6193 10.6193C10.9357 10.3028 11.3649 10.125 11.8125 10.125H42.1875C42.6351 10.125 43.0643 10.3028 43.3807 10.6193C43.6972 10.9357 43.875 11.3649 43.875 11.8125C43.875 12.2601 43.6972 12.6893 43.3807 13.0057C43.0643 13.3222 42.6351 13.5 42.1875 13.5H11.8125C11.3649 13.5 10.9357 13.3222 10.6193 13.0057C10.3028 12.6893 10.125 12.2601 10.125 11.8125ZM10.125 20.25C10.125 19.8024 10.3028 19.3732 10.6193 19.0568C10.9357 18.7403 11.3649 18.5625 11.8125 18.5625H42.1875C42.6351 18.5625 43.0643 18.7403 43.3807 19.0568C43.6972 19.3732 43.875 19.8024 43.875 20.25C43.875 20.6976 43.6972 21.1268 43.3807 21.4432C43.0643 21.7597 42.6351 21.9375 42.1875 21.9375H11.8125C11.3649 21.9375 10.9357 21.7597 10.6193 21.4432C10.3028 21.1268 10.125 20.6976 10.125 20.25ZM10.125 28.6875C10.125 28.2399 10.3028 27.8107 10.6193 27.4943C10.9357 27.1778 11.3649 27 11.8125 27H28.6875C29.1351 27 29.5643 27.1778 29.8807 27.4943C30.1972 27.8107 30.375 28.2399 30.375 28.6875C30.375 29.1351 30.1972 29.5643 29.8807 29.8807C29.5643 30.1972 29.1351 30.375 28.6875 30.375H11.8125C11.3649 30.375 10.9357 30.1972 10.6193 29.8807C10.3028 29.5643 10.125 29.1351 10.125 28.6875Z" fill="black"/>
</svg>