<svg width="31" height="32" viewBox="0 0 31 32" fill="none" xmlns="http://www.w3.org/2000/svg">
<path d="M3.53916 12.2947C3.2542 12.5705 3.07714 12.9328 3.03806 13.3201C2.99898 13.7074 3.10031 14.0958 3.32481 14.4193C3.54931 14.7428 3.88313 14.9813 4.26955 15.0945C4.65596 15.2077 5.07112 15.1884 5.44446 15.04C5.6569 14.9484 5.85189 14.8232 6.0213 14.6695C6.17853 14.5143 6.30317 14.3313 6.38838 14.1305C6.4883 13.9253 6.53622 13.7002 6.52821 13.4737C6.52628 13.0318 6.34423 12.6084 6.0213 12.2947C5.8588 12.1369 5.66547 12.0116 5.45246 11.9261C5.23946 11.8406 5.01098 11.7965 4.78023 11.7965C4.54948 11.7965 4.321 11.8406 4.108 11.9261C3.89499 12.0116 3.70166 12.1369 3.53916 12.2947ZM4.78023 3.36842C5.24382 3.36842 5.68843 3.54586 6.01624 3.86171C6.34405 4.17756 6.52821 4.60595 6.52821 5.05263C6.52821 5.49931 6.34405 5.9277 6.01624 6.24355C5.68843 6.5594 5.24382 6.73684 4.78023 6.73684C4.31664 6.73684 3.87203 6.91428 3.54422 7.23013C3.21641 7.54599 3.03225 7.97437 3.03225 8.42105C3.03225 8.86773 3.21641 9.29612 3.54422 9.61197C3.87203 9.92782 4.31664 10.1053 4.78023 10.1053C5.70059 10.1047 6.60459 9.87074 7.40139 9.42692C8.19819 8.9831 8.85972 8.34503 9.31952 7.57684C9.77932 6.80865 10.0212 5.93739 10.0208 5.05061C10.0204 4.16382 9.77786 3.29275 9.31742 2.52491C8.85698 1.75708 8.19492 1.11952 7.39775 0.676317C6.60058 0.233109 5.69639 -0.000141969 4.77603 6.48278e-08C3.85566 0.000142099 2.95155 0.233672 2.15453 0.677126C1.35751 1.12058 0.695654 1.75834 0.235472 2.52631C0.119897 2.71854 0.0449323 2.9309 0.0148961 3.15116C-0.0151401 3.37141 0.000345266 3.59522 0.0604604 3.80969C0.120576 4.02416 0.224133 4.22505 0.365168 4.40079C0.506203 4.57653 0.681929 4.72365 0.882226 4.83368C1.28359 5.05326 1.7588 5.11097 2.20416 4.99422C2.64953 4.87748 3.02889 4.59576 3.25948 4.21052C3.41349 3.95351 3.63524 3.74026 3.9023 3.59238C4.16935 3.4445 4.47222 3.36724 4.78023 3.36842ZM25.756 5.05263H15.2681C14.8045 5.05263 14.3599 5.23007 14.0321 5.54592C13.7043 5.86177 13.5201 6.29016 13.5201 6.73684C13.5201 7.18352 13.7043 7.61191 14.0321 7.92776C14.3599 8.24361 14.8045 8.42105 15.2681 8.42105H25.756C26.2196 8.42105 26.6642 8.59849 26.9921 8.91434C27.3199 9.2302 27.504 9.65858 27.504 10.1053V26.4758L24.7597 24.0337C24.4373 23.7429 24.0127 23.5804 23.5711 23.5789H8.2762C7.8126 23.5789 7.368 23.4015 7.04019 23.0857C6.71238 22.7698 6.52821 22.3414 6.52821 21.8947V20.2105C6.52821 19.7638 6.34405 19.3355 6.01624 19.0196C5.68843 18.7038 5.24382 18.5263 4.78023 18.5263C4.31664 18.5263 3.87203 18.7038 3.54422 19.0196C3.21641 19.3355 3.03225 19.7638 3.03225 20.2105V21.8947C3.03225 23.2348 3.58473 24.5199 4.56816 25.4675C5.5516 26.415 6.88542 26.9474 8.2762 26.9474H22.8893L28.1333 31.5453C28.4378 31.8208 28.8347 31.9821 29.252 32C29.4917 31.9975 29.7289 31.9518 29.9512 31.8653C30.2639 31.7338 30.5298 31.517 30.7161 31.2417C30.9025 30.9664 31.0012 30.6445 31 30.3158V10.1053C31 8.76522 30.4475 7.48006 29.4641 6.53251C28.4806 5.58496 27.1468 5.05263 25.756 5.05263Z" fill="#FF9214"/>
</svg>
