<svg width="140" height="111" viewBox="0 0 140 111" fill="none" xmlns="http://www.w3.org/2000/svg">
<path fill-rule="evenodd" clip-rule="evenodd" d="M0.122534 54.4438C1.03633 41.8253 9.12978 31.3313 17.2758 21.7213C24.8347 12.804 33.7027 4.87097 44.8768 1.64628C55.7976 -1.5053 67.3872 0.158497 78.0202 4.1913C88.2816 8.08318 96.0299 15.7755 103.499 23.88C112.051 33.1605 123.04 41.8311 124.331 54.4438C125.662 67.4498 118.966 80.2946 110.264 89.9735C102.108 99.0457 90.0694 102.579 78.3179 105.622C67.2803 108.48 56.1188 109.367 44.994 106.877C32.8605 104.161 20.3983 100.338 12.2704 90.8401C3.77389 80.9118 -0.82537 67.5332 0.122534 54.4438Z" fill="#89DDEF"/>
<path d="M3.41587 10L3.32031 62.8789L137.685 63.0684L137.78 10.1895L3.41587 10Z" fill="white" stroke="black" stroke-width="3" stroke-miterlimit="10" stroke-linecap="round" stroke-linejoin="round"/>
<path d="M17.4648 28.8682H70.2486" stroke="black" stroke-width="3" stroke-miterlimit="10" stroke-linecap="round" stroke-linejoin="round"/>
<path d="M17.4648 42.6055H88.8679" stroke="black" stroke-width="3" stroke-miterlimit="10" stroke-linecap="round" stroke-linejoin="round"/>
<path d="M125.547 39.9686C125.547 36.4002 122.856 35.3739 119.957 34.8055L118.412 34.5213C116.134 34.0949 115.959 33.4792 115.959 32.6581C115.959 31.5844 116.994 30.937 118.73 30.937C120.785 30.937 121.311 31.9002 121.534 32.6265L121.549 32.6897C121.804 33.3213 122.41 33.7002 123.158 33.7002C123.349 33.7002 123.524 33.6686 123.652 33.6528C124.448 33.5107 125.022 32.9107 125.022 32.2002C125.022 32.0265 124.99 31.8528 124.926 31.6792C124.512 30.4476 123.349 28.4897 120.148 28.0476V25.9318C120.148 24.1634 117.185 24.1634 117.185 25.9318V28.0634C113.745 28.5686 112.471 30.7634 112.471 32.6739C112.471 36.1476 115.051 37.1107 117.583 37.6002L119.256 37.9318C121.629 38.3897 122.043 38.9581 122.043 40.016C122.043 41.2949 120.88 42.0686 118.937 42.0686C116.421 42.0686 115.895 41.0107 115.561 39.8107C115.354 39.1476 114.717 38.7213 113.936 38.7213C113.761 38.7213 113.633 38.737 113.458 38.7686L113.41 38.7528C112.598 38.9265 112.057 39.5265 112.057 40.237C112.057 40.3791 112.088 40.4897 112.104 40.5844L112.136 40.6949C112.503 41.8476 113.315 44.3739 117.345 44.9423V47.1686C117.345 48.0528 118.093 48.5107 118.826 48.5107C119.558 48.5107 120.307 48.0528 120.307 47.1686V44.9897C123.477 44.5791 125.547 42.6686 125.547 39.9686Z" fill="#FF9214"/>
<path d="M50.6775 109.161V91.807C43.7687 91.807 38.1797 86.1669 38.1797 79.2252V43.69C38.1797 39.8124 41.3042 36.667 45.1559 36.667C49.0076 36.667 52.1321 39.8124 52.1321 43.69V65.3555" fill="white"/>
<path d="M52.1321 61.6086L89.8946 68.0755C89.8946 81.6746 87.4046 91.8069 76.8314 91.8069V109.161H50.6775" fill="white"/>
<path d="M50.6775 109.161V91.807C43.7687 91.807 38.1797 86.1669 38.1797 79.2252V43.69C38.1797 39.8124 41.3042 36.667 45.1559 36.667C49.0076 36.667 52.1321 39.8124 52.1321 43.69V65.3555" fill="white"/>
<path d="M50.6775 109.161V91.807C43.7687 91.807 38.1797 86.1669 38.1797 79.2252V43.69C38.1797 39.8124 41.3042 36.667 45.1559 36.667C49.0076 36.667 52.1321 39.8124 52.1321 43.69V65.3555M52.1321 63.3337H89.8946C89.8946 76.9328 87.4046 91.8069 76.8314 91.8069V109.161" stroke="black" stroke-width="3" stroke-miterlimit="10" stroke-linecap="round" stroke-linejoin="round"/>
</svg>
