<svg width="80" height="80" viewBox="0 0 80 80" fill="none" xmlns="http://www.w3.org/2000/svg">
<path d="M2.84388 21.0058C7.58562 9.00487 18.4131 0.885695 28.4336 0.0800441C38.4635 -0.707096 48.7034 4.26414 58.4223 17.0809C68.1412 29.8978 72.5269 25.409 77.8307 37.8438C83.1346 50.2786 78.214 59.8663 68.4817 68.3822C58.7495 76.8981 47.4412 81.0855 35.8839 79.7583C24.3266 78.4312 12.5203 71.5896 5.97054 60.2355C-0.588684 48.8629 -1.91379 33.0172 2.84388 21.0058Z" fill="#C2C2FF"/>
<path d="M70.8691 33.3399L46.8063 21.5944C46.0298 21.2181 45.1763 21.0225 44.3114 21.0225C43.4464 21.0225 42.593 21.2181 41.8165 21.5944L17.7536 33.3399C16.4579 33.961 15.3655 34.9302 14.6017 36.1364C13.8379 37.3426 13.4336 38.737 13.4351 40.1598V65.2999C13.4351 69.5051 16.939 72.9259 21.2465 72.9259H67.3763C71.6838 72.9259 75.1877 69.5051 75.1877 65.2999V40.1598C75.1892 38.737 74.7848 37.3426 74.021 36.1364C73.2572 34.9302 72.1648 33.961 70.8691 33.3399V33.3399ZM43.8124 25.4919C43.9677 25.4166 44.1384 25.3775 44.3114 25.3775C44.4844 25.3775 44.655 25.4166 44.8104 25.4919L68.1578 36.8847L44.4492 48.4599C44.2939 48.5352 44.1232 48.5743 43.9502 48.5743C43.7772 48.5743 43.6066 48.5352 43.4512 48.4599L20.0997 37.0658L43.8124 25.4919Z" fill="black"/>
<path d="M21.4092 7.90039C20.3046 7.90039 19.4092 8.79582 19.4092 9.90039V36.3156C19.4092 37.0766 19.8411 37.7717 20.5234 38.1087L43.0391 49.2309C43.5974 49.5067 44.2523 49.5067 44.8106 49.2309L67.3263 38.1087C68.0087 37.7717 68.4406 37.0766 68.4406 36.3156V9.90039C68.4406 9.36996 68.2299 8.86125 67.8548 8.48618C67.4797 8.1111 66.971 7.90039 66.4406 7.90039H21.4092Z" fill="white" stroke="black" stroke-width="4" stroke-linejoin="round"/>
<path d="M37.8271 26.6656L41.5197 30.2909L51.8995 21.0225" stroke="black" stroke-width="4" stroke-linecap="round" stroke-linejoin="round"/>
</svg>
