<svg width="24" height="25" viewBox="0 0 24 25" fill="none" xmlns="http://www.w3.org/2000/svg">
  <path d="M11.99 2.5C6.47 2.5 2 6.98 2 12.5C2 18.02 6.47 22.5 11.99 22.5C17.52 22.5 22 18.02 22 12.5C22 6.98 17.52 2.5 11.99 2.5ZM16 16.5C15.9075 16.5927 15.7976 16.6663 15.6766 16.7164C15.5557 16.7666 15.426 16.7924 15.295 16.7924C15.164 16.7924 15.0343 16.7666 14.9134 16.7164C14.7924 16.6663 14.6825 16.5927 14.59 16.5L11.3 13.21C11.2055 13.1174 11.1303 13.0069 11.0788 12.8851C11.0273 12.7632 11.0005 12.6323 11 12.5V8.5C11 7.95 11.45 7.5 12 7.5C12.55 7.5 13 7.95 13 8.5V12.09L16 15.09C16.39 15.48 16.39 16.11 16 16.5Z" fill="black"/>
</svg>