<svg width="40" height="40" viewBox="0 0 40 40" fill="none" xmlns="http://www.w3.org/2000/svg">
<path d="M36.6667 5H3.33333C1.5 5 0 6.5 0 8.33333V31.6667C0 33.5 1.5 35 3.33333 35H36.6667C38.5 35 39.9833 33.5 39.9833 31.6667L40 8.33333C40 6.5 38.5 5 36.6667 5ZM13.3333 10C16.1 10 18.3333 12.2333 18.3333 15C18.3333 17.7667 16.1 20 13.3333 20C10.5667 20 8.33333 17.7667 8.33333 15C8.33333 12.2333 10.5667 10 13.3333 10ZM23.3333 30H3.33333V28.3333C3.33333 25 10 23.1667 13.3333 23.1667C16.6667 23.1667 23.3333 25 23.3333 28.3333V30ZM29.75 23.3333H32.4833L35 26.6667L31.6833 29.9833C29.5 28.35 27.8833 26.0167 27.1333 23.3333C26.8333 22.2667 26.6667 21.15 26.6667 20C26.6667 18.85 26.8333 17.7333 27.1333 16.6667C27.8833 13.9667 29.5 11.65 31.6833 10.0167L35 13.3333L32.4833 16.6667H29.75C29.3833 17.7167 29.1667 18.8333 29.1667 20C29.1667 21.1667 29.3833 22.2833 29.75 23.3333Z" fill="white"/>
</svg>
