<svg width="17" height="17" viewBox="0 0 17 17" fill="none" xmlns="http://www.w3.org/2000/svg">
<path d="M16.3536 2.86962C16.4473 2.77586 16.5 2.64868 16.5 2.51607C16.5 2.38346 16.4473 2.25629 16.3536 2.16252L14.8375 0.646446C14.6422 0.451184 14.3256 0.451185 14.1304 0.646447L8.5 6.27682L2.86962 0.646447C2.67436 0.451184 2.35778 0.451184 2.16252 0.646447L0.646447 2.16252C0.451184 2.35778 0.451184 2.67436 0.646447 2.86962L6.27682 8.5L0.646447 14.1304C0.451185 14.3256 0.451184 14.6422 0.646446 14.8375L2.16252 16.3536C2.25629 16.4473 2.38346 16.5 2.51607 16.5C2.64868 16.5 2.77586 16.4473 2.86962 16.3536L8.5 10.7232L14.1304 16.3536C14.2241 16.4473 14.3513 16.5 14.4839 16.5C14.6165 16.5 14.7437 16.4473 14.8375 16.3536L16.3536 14.8375C16.4473 14.7437 16.5 14.6165 16.5 14.4839C16.5 14.3513 16.4473 14.2241 16.3536 14.1304L10.7232 8.5L16.3536 2.86962Z" fill="#E93867" stroke="#E93867" stroke-linejoin="round"/>
</svg>
