<svg width="19" height="19" viewBox="0 0 19 19" fill="none" xmlns="http://www.w3.org/2000/svg">
<path d="M17.3536 3.86427L17.7071 3.51071L17.3536 3.15716L15.8428 1.64645L15.4893 1.29289L15.1357 1.64645L9.5 7.28218L3.86427 1.64645L3.51071 1.29289L3.15716 1.64645L1.64645 3.15716L1.29289 3.51071L1.64645 3.86427L7.28218 9.5L1.64645 15.1357L1.29289 15.4893L1.64645 15.8428L3.15716 17.3536L3.51071 17.7071L3.86427 17.3536L9.5 11.7178L15.1357 17.3536L15.4893 17.7071L15.8428 17.3536L17.3536 15.8428L17.7071 15.4893L17.3536 15.1357L11.7178 9.5L17.3536 3.86427Z" fill="black" stroke="black"/>
</svg>
