<svg width="40" height="40" fill="none" xmlns="http://www.w3.org/2000/svg"><path d="M20 40C8.975 40 0 31.025 0 20S8.975 0 20 0s20 8.975 20 20-8.965 20-20 20zm0-37.241C10.492 2.759 2.759 10.492 2.759 20S10.492 37.241 20 37.241 37.241 29.508 37.241 20 29.508 2.759 20 2.759z" fill="#000"/><path d="M26.832 23.43c0-3.642-2.722-4.68-5.664-5.27l-1.563-.293c-2.308-.423-2.483-1.058-2.483-1.904 0-1.094 1.048-1.747 2.805-1.747 2.078 0 2.611.984 2.832 1.72l.018.064c.258.644.864 1.03 1.628 1.03.193 0 .377-.028.505-.055.81-.157 1.38-.764 1.38-1.48 0-.175-.037-.36-.101-.534-.414-1.26-1.591-3.246-4.828-3.706v-2.16c0-1.803-2.998-1.803-2.998 0v2.179c-3.485.515-4.763 2.749-4.763 4.698 0 3.54 2.62 4.534 5.177 5.03l1.683.34c2.4.46 2.823 1.049 2.823 2.125 0 1.305-1.168 2.087-3.136 2.087-2.547 0-3.071-1.085-3.42-2.299-.203-.671-.846-1.103-1.646-1.103-.175 0-.313.018-.479.046l-.055-.01c-.827.184-1.379.791-1.379 1.518 0 .138.028.257.046.35l.027.11c.368 1.177 1.187 3.751 5.26 4.33v2.263c0 .9.754 1.37 1.5 1.37.744 0 1.498-.47 1.498-1.37v-2.226c3.237-.404 5.333-2.354 5.333-5.103z" fill="#FF9214"/></svg>