<svg width="24" height="24" viewBox="0 0 24 24" fill="none" xmlns="http://www.w3.org/2000/svg">
  <path fill-rule="evenodd" clip-rule="evenodd" d="M11.7998 10.9C9.52982 10.31 8.79982 9.7 8.79982 8.75C8.79982 7.66 9.80982 6.9 11.4998 6.9C13.2798 6.9 13.9398 7.75 13.9998 9H16.2098C16.1398 7.28 15.0898 5.7 12.9998 5.19V3H9.99982V5.16C8.05982 5.58 6.49982 6.84 6.49982 8.77C6.49982 11.08 8.40982 12.23 11.1998 12.9C13.6998 13.5 14.1998 14.38 14.1998 15.31C14.1998 16 13.7098 17.1 11.4998 17.1C9.43982 17.1 8.62982 16.18 8.51982 15H6.31982C6.43982 17.19 8.07982 18.42 9.99982 18.83V21H12.9998V18.85C14.9498 18.48 16.4998 17.35 16.4998 15.3C16.4998 12.46 14.0698 11.49 11.7998 10.9Z" fill="black"/>
</svg>
