<svg width="20" height="20" viewBox="0 0 20 20" fill="none" xmlns="http://www.w3.org/2000/svg">
<path d="M5 1.25H11.25V2.5H5C4.66848 2.5 4.35054 2.6317 4.11612 2.86612C3.8817 3.10054 3.75 3.41848 3.75 3.75V16.25C3.75 16.5815 3.8817 16.8995 4.11612 17.1339C4.35054 17.3683 4.66848 17.5 5 17.5H15C15.3315 17.5 15.6495 17.3683 15.8839 17.1339C16.1183 16.8995 16.25 16.5815 16.25 16.25V7.5H17.5V16.25C17.5 16.913 17.2366 17.5489 16.7678 18.0178C16.2989 18.4866 15.663 18.75 15 18.75H5C4.33696 18.75 3.70107 18.4866 3.23223 18.0178C2.76339 17.5489 2.5 16.913 2.5 16.25V3.75C2.5 3.08696 2.76339 2.45107 3.23223 1.98223C3.70107 1.51339 4.33696 1.25 5 1.25Z" fill="black"/>
<path d="M11.25 5.625V1.25L17.5 7.5H13.125C12.6277 7.5 12.1508 7.30246 11.7992 6.95083C11.4475 6.59919 11.25 6.12228 11.25 5.625Z" fill="black"/>
</svg>
