<svg width="283" height="251" fill="none" xmlns="http://www.w3.org/2000/svg"><g clip-path="url(#clip0)"><path fill-rule="evenodd" clip-rule="evenodd" d="M251.055 101.24c7.833 28.887-10.911 56.602-29.568 80.296-18.252 23.175-40.7 47.288-70.47 46.762-28.793-.499-47.106-27.009-64.961-49.179-16.838-20.891-37.73-43.886-30.854-69.737 6.66-25.059 37.246-31.902 60.92-43.287 22.563-10.831 44.661-25.425 68.894-19.107 29.204 7.59 58.26 25.558 66.039 54.252z" fill="#C2C2FF"/><path d="M180.154 59.744h-.667v-.54a.824.824 0 00-.829-.818.823.823 0 00-.828.819v.54h-.667a.823.823 0 00-.828.818c0 .453.37.819.828.819h.667v.54c0 .452.37.818.828.818a.824.824 0 00.829-.819v-.54h.667a.823.823 0 00.828-.818.823.823 0 00-.828-.819zM134.159 213.578h-.667v-.539a.824.824 0 00-.829-.819.823.823 0 00-.828.819v.539h-.667a.823.823 0 00-.828.819c0 .453.37.819.828.819h.667v.539c0 .453.37.819.828.819a.824.824 0 00.829-.819v-.539h.667a.823.823 0 00.828-.819.823.823 0 00-.828-.819zM256.985 158.233h-.667v-.539a.824.824 0 00-.829-.819.823.823 0 00-.828.819v.539h-.667a.823.823 0 00-.828.819c0 .453.37.819.828.819h.667v.539c0 .453.37.819.828.819a.824.824 0 00.829-.819v-.539h.667a.823.823 0 00.828-.819.823.823 0 00-.828-.819z" fill="#231F20"/><path d="M224.242 198.805H56.744c-3.051 0-5.523-2.443-5.523-5.459V87.066c0-3.015 2.472-5.459 5.523-5.459h167.498c3.051 0 5.523 2.444 5.523 5.46v106.279c0 3.016-2.472 5.459-5.523 5.459z" fill="#fff" stroke="#000" stroke-width="3" stroke-linecap="round" stroke-linejoin="round"/><path d="M74.963 135.619h29.204M113.387 135.619h69.002M74.963 144.507h29.204M113.387 144.507h69.002M182.39 162.396h-43.658M128.669 162.396H74.963M182.39 170.351h-43.658M128.669 170.351H74.963M74.95 126.725h107.439M74.95 153.395h107.439M74.95 179.246h107.439M74.95 117.837h107.439" stroke="#000" stroke-width="3" stroke-miterlimit="10" stroke-linecap="round" stroke-linejoin="round"/><path d="M243.161 63.046H198.5V213.14h44.661V63.046z" fill="#fff" stroke="#000" stroke-width="3" stroke-miterlimit="10" stroke-linecap="round" stroke-linejoin="round"/><path d="M208.987 79.99h22.462M208.987 96.014h22.462M208.987 112.039h15.727M208.987 128.056h22.462M208.987 143.655h8.991M208.987 159.679h22.462M208.987 173.8h8.904M225.825 173.8h5.536" stroke="#000" stroke-width="3" stroke-miterlimit="10" stroke-linecap="round" stroke-linejoin="round"/><path d="M225.165 195.47c0-2.283-1.724-2.936-3.59-3.302l-.99-.186c-1.462-.267-1.576-.666-1.576-1.192 0-.686.667-1.099 1.778-1.099 1.32 0 1.657.619 1.798 1.079l.014.04c.168.406.552.646 1.03.646.121 0 .236-.02.324-.034.518-.093.875-.479.875-.932a.823.823 0 00-.067-.333c-.263-.792-1.011-2.037-3.065-2.323v-1.358c0-1.132-1.899-1.132-1.899 0v1.365c-2.209.319-3.024 1.724-3.024 2.942 0 2.224 1.663 2.843 3.287 3.156l1.07.213c1.523.286 1.792.659 1.792 1.331 0 .819-.741 1.312-1.994 1.312-1.616 0-1.946-.679-2.168-1.445-.128-.419-.539-.692-1.044-.692-.108 0-.196.013-.303.033l-.034.007c-.525.113-.876.499-.876.952 0 .086.014.16.027.22l.014.066c.236.739.754 2.357 3.34 2.716v1.425c0 .566.479.866.95.866.472 0 .95-.3.95-.866v-1.398c2.054-.26 3.381-1.478 3.381-3.209z" fill="#000"/><path d="M210.273 221.7H147.07a1.405 1.405 0 01-1.414-1.398v-68.838c0-.772.633-1.398 1.414-1.398h63.203c.782 0 1.415.626 1.415 1.398v68.838a1.41 1.41 0 01-1.415 1.398z" fill="#fff" stroke="#000" stroke-width="3" stroke-miterlimit="10" stroke-linecap="round" stroke-linejoin="round"/><path d="M203.525 158.368h-49.706v11.504h49.706v-11.504z" fill="#FFD29C" stroke="#000" stroke-width="3" stroke-miterlimit="10" stroke-linecap="round" stroke-linejoin="round"/><path d="M165.457 178.713h-11.638v11.504h11.638v-11.504zM184.491 178.713h-11.638v11.504h11.638v-11.504zM203.525 178.713h-11.639v11.504h11.639v-11.504zM165.457 196.881h-11.638v11.505h11.638v-11.505zM184.491 196.881h-11.638v11.505h11.638v-11.505zM203.525 196.881h-11.639v11.505h11.639v-11.505z" fill="#fff" stroke="#000" stroke-width="3" stroke-miterlimit="10" stroke-linecap="round" stroke-linejoin="round"/><path d="M202.662 34.32h-3.031v-2.997a.671.671 0 00-.673-.665h-.674c-.37 0-.673.3-.673.665v2.996h-3.031c-.37 0-.674.3-.674.666v.666c0 .366.304.665.674.665h3.031v2.996c0 .367.303.666.673.666h.674c.37 0 .673-.3.673-.666v-2.995h3.031c.371 0 .674-.3.674-.666v-.666a.667.667 0 00-.674-.666z" fill="#8E8EEF"/><path d="M273.941 98.49h-3.031v-2.995a.671.671 0 00-.673-.666h-.674c-.37 0-.673.3-.673.666v2.996h-3.031c-.371 0-.674.3-.674.665v.666c0 .366.303.666.674.666h3.031v2.996a.67.67 0 00.673.665h.674a.67.67 0 00.673-.665v-2.996h3.031c.371 0 .674-.3.674-.666v-.666a.672.672 0 00-.674-.665z" fill="#C6F9EC"/><path d="M77.37 64.018c1.301 0 2.357-1.043 2.357-2.33 0-1.287-1.056-2.33-2.358-2.33s-2.357 1.043-2.357 2.33c0 1.287 1.055 2.33 2.357 2.33z" fill="#FFD29C"/><path d="M123.564 241.946c1.302 0 2.357-1.043 2.357-2.33 0-1.287-1.055-2.33-2.357-2.33-1.302 0-2.357 1.043-2.357 2.33 0 1.287 1.055 2.33 2.357 2.33z" fill="#8E8EEF"/><path d="M57.734 176.283l-21.903 37.901 63.358 35.817 21.903-37.901-63.358-35.817z" fill="#C6F9EC" stroke="#000" stroke-width="3" stroke-miterlimit="10" stroke-linecap="round" stroke-linejoin="round"/><path d="M87.234 217.426a10.104 10.104 0 01-6.149 4.714c-2.633.699-5.36.359-7.718-.972-4.87-2.75-6.56-8.908-3.785-13.721a10.097 10.097 0 016.284-4.74 10.196 10.196 0 017.583 1.005 10.012 10.012 0 014.769 6.085 9.85 9.85 0 01-.984 7.629z" stroke="#000" stroke-width="3" stroke-miterlimit="10"/><path d="M115.643 213.079l-50.635-28.62c-.034-.027-.067-.04-.108-.06l-5.246-2.97a.71.71 0 00-.957.26l-17.666 30.565a.684.684 0 00.263.945l55.99 31.649a.754.754 0 00.525.074h.013a.731.731 0 00.424-.32l17.667-30.564a.711.711 0 00-.27-.959zm-56.084-30.105l4.432 2.51a3.6 3.6 0 01-.424 2.523 3.747 3.747 0 01-2.263 1.738c-.014.006-.034.006-.047.013-1.772.453-3.65-.453-4.378-2.117 0-.007-.007-.007-.007-.013l2.687-4.654zM42.587 212.34l2.72-4.7a3.726 3.726 0 014.237 2.67 3.6 3.6 0 01-.364 2.809 3.69 3.69 0 01-2.189 1.711l-4.404-2.49zm54.777 30.964l-4.438-2.51c0-.06.006-.126-.014-.186a3.63 3.63 0 01.364-2.81 3.742 3.742 0 012.263-1.737 3.747 3.747 0 012.842.359 3.65 3.65 0 011.718 2.144l-2.735 4.74zm3.597-6.231a5.096 5.096 0 00-1.893-1.858 5.12 5.12 0 00-3.839-.506l-.067.02a5.105 5.105 0 00-3.112 2.384 5.002 5.002 0 00-.667 2.816l-42.876-24.24c1.973-1.132 3.017-3.469 2.39-5.739-.605-2.197-2.565-3.662-4.76-3.748l9.927-17.17a5.201 5.201 0 005.543 2.071l.067-.02a5.137 5.137 0 003.119-2.384 5.04 5.04 0 00.68-2.383l43.233 24.433c-1.967 1.132-3.01 3.462-2.384 5.732.566 2.051 2.35 3.495 4.405 3.715l-9.766 16.877zm10.54-18.229c-1.751.107-3.367-1.018-3.832-2.722-.532-1.938.599-3.942 2.539-4.514l4.129 2.336-2.836 4.9z" fill="#000" stroke="#000" stroke-miterlimit="10"/><path d="M230.499 49.205l-13.484 22.37 37.394 22.042 13.484-22.369-37.394-22.043z" fill="#C6F9EC" stroke="#000" stroke-width="2" stroke-miterlimit="10" stroke-linecap="round" stroke-linejoin="round"/><path d="M247.647 74.058a6.006 6.006 0 01-3.718 2.743c-1.583.386-3.206.16-4.593-.666-2.87-1.691-3.819-5.38-2.109-8.222a6.053 6.053 0 013.799-2.763 6.085 6.085 0 014.513.68 5.963 5.963 0 012.775 3.68 5.91 5.91 0 01-.667 4.548z" stroke="#000" stroke-width="2.476" stroke-miterlimit="10"/><path d="M264.633 71.774l-29.884-17.616a.258.258 0 00-.061-.033l-3.098-1.83a.422.422 0 00-.572.146l-10.871 18.042a.391.391 0 00-.047.313c.027.106.094.2.188.252l33.05 19.48a.42.42 0 00.31.047h.007a.409.409 0 00.256-.187l10.87-18.041a.42.42 0 00-.148-.573zm-33.117-18.56l2.62 1.544a2.188 2.188 0 01-.283 1.504 2.231 2.231 0 01-1.367 1.012c-.007 0-.02.007-.027.007-1.064.253-2.175-.306-2.586-1.312l-.007-.006 1.65-2.75zM221.07 70.542l1.67-2.777a2.221 2.221 0 012.499 1.638c.148.573.06 1.165-.249 1.671a2.23 2.23 0 01-1.32.999l-2.6-1.531zm32.329 19.06l-2.62-1.545c0-.033.006-.073-.007-.113a2.142 2.142 0 01.249-1.67 2.232 2.232 0 011.367-1.013c.58-.14 1.179-.06 1.691.247.498.293.849.752 1.004 1.298l-1.684 2.796zm2.216-3.682a3.07 3.07 0 00-1.105-1.125 3.05 3.05 0 00-2.283-.346c-.014 0-.027.007-.041.007-.794.2-1.461.692-1.885 1.384a2.945 2.945 0 00-.431 1.672l-25.305-14.92c1.186-.652 1.839-2.037 1.489-3.395a3.05 3.05 0 00-2.802-2.284l6.109-10.132a3.104 3.104 0 003.287 1.291c.013 0 .027-.007.04-.007a3.075 3.075 0 001.886-1.384c.263-.44.411-.919.431-1.412l25.513 15.04c-1.186.652-1.832 2.037-1.482 3.395a3.057 3.057 0 002.586 2.263l-6.007 9.953zm6.486-10.758a2.225 2.225 0 01-2.257-1.664 2.204 2.204 0 011.563-2.663l2.438 1.438-1.744 2.889z" fill="#000" stroke="#000" stroke-width=".826" stroke-miterlimit="10"/><path d="M129.673 56.762l15.518 11.597 19.397-25.345-15.518-11.597-19.397 25.345z" fill="#C6F9EC" stroke="#000" stroke-miterlimit="10" stroke-linecap="round" stroke-linejoin="round"/><path d="M149.522 46.336a4.396 4.396 0 011.737 2.923 4.351 4.351 0 01-.862 3.275c-1.488 1.944-4.304 2.33-6.277.859a4.406 4.406 0 01-1.744-2.983 4.364 4.364 0 01.868-3.222 4.47 4.47 0 012.957-1.717 4.538 4.538 0 013.321.865z" fill="#C6F9EC" stroke="#000" stroke-width="1.829" stroke-miterlimit="10"/><path d="M149.198 33.827l-15.504 20.252c-.014.013-.02.026-.034.04l-1.61 2.097a.304.304 0 00.061.426l12.514 9.354a.35.35 0 00.229.06.28.28 0 00.202-.12l17.141-22.396a.322.322 0 00.061-.22v-.007a.278.278 0 00-.121-.2l-12.514-9.353a.313.313 0 00-.425.067zm-16.461 22.522l1.361-1.771c.391-.027.774.086 1.091.326.35.26.579.646.64 1.072v.02a1.636 1.636 0 01-1.186 1.77h-.006l-1.9-1.417zm12.023 8.98l-1.927-1.437a1.626 1.626 0 011.422-1.678c.437-.06.868.053 1.219.313.343.253.565.626.633 1.039l-1.347 1.764zm16.77-21.909l-1.36 1.778c-.027-.007-.054-.007-.081-.007a1.655 1.655 0 01-1.219-.313 1.61 1.61 0 01-.323-2.277 1.634 1.634 0 011.044-.619l1.939 1.438zm-2.552-1.904c-.364.153-.68.393-.93.712a2.24 2.24 0 00-.444 1.631c0 .007 0 .02.007.027a2.246 2.246 0 002.081 1.924l-13.127 17.15a2.287 2.287 0 00-2.405-1.358 2.262 2.262 0 00-1.926 1.844l-7.032-5.253a2.245 2.245 0 001.226-2.277c0-.006 0-.02-.006-.026a2.251 2.251 0 00-1.893-1.905l13.235-17.296a2.276 2.276 0 002.397 1.352 2.275 2.275 0 001.893-1.691l6.924 5.166zm-7.463-5.579a1.645 1.645 0 01-1.421 1.505c-.889.12-1.711-.48-1.852-1.352l1.266-1.65 2.007 1.497z" fill="#000" stroke="#000" stroke-width=".61" stroke-miterlimit="10"/><path d="M32.802 148.931c4.464 0 8.083-3.577 8.083-7.989s-3.62-7.989-8.083-7.989-8.082 3.577-8.082 7.989 3.619 7.989 8.082 7.989z" fill="#FFD29C" stroke="#000" stroke-width="2" stroke-miterlimit="10" stroke-linecap="round" stroke-linejoin="round"/><path d="M35.267 142.16c0-1.271-.963-1.637-2-1.844l-.553-.106c-.814-.147-.875-.373-.875-.666 0-.386.37-.612.99-.612.734 0 .923.346 1.004.599l.006.02c.095.226.31.359.573.359a.644.644 0 00.175-.02c.29-.053.485-.266.485-.519a.609.609 0 00-.034-.187c-.148-.439-.559-1.138-1.71-1.291v-.759c0-.632-1.058-.632-1.058 0v.759c-1.233.18-1.684.959-1.684 1.644 0 1.239.923 1.585 1.832 1.758l.6.12c.848.16.996.366.996.739 0 .459-.417.732-1.11.732-.903 0-1.085-.379-1.213-.806-.074-.233-.303-.386-.58-.386a.745.745 0 00-.168.02h-.02c-.29.067-.485.28-.485.533a.59.59 0 00.014.12l.006.04c.128.412.418 1.311 1.86 1.511v.792c0 .313.269.479.531.479.263 0 .532-.166.532-.479v-.779c1.145-.126 1.886-.805 1.886-1.771z" fill="#000"/><path d="M31.26 124.558v3.708M35.193 129.525v-7.417" stroke="#000" stroke-width="2" stroke-miterlimit="10" stroke-linecap="round" stroke-linejoin="round"/><path d="M77.186 108.803v-5.639c-1.065.806-1.779 1.205-2.142 1.205a.623.623 0 01-.465-.206.673.673 0 01-.202-.48c0-.213.067-.366.202-.466.135-.099.37-.226.707-.386.505-.233.91-.486 1.213-.745.303-.26.572-.553.808-.872.236-.32.384-.52.458-.593.074-.073.202-.113.404-.113a.65.65 0 01.532.253c.135.166.202.399.202.699v7.09c0 .832-.283 1.245-.855 1.245a.799.799 0 01-.613-.253c-.169-.153-.25-.406-.25-.739zM88.204 105.201c0 .679-.04 1.259-.128 1.745a3.87 3.87 0 01-.464 1.324 3.03 3.03 0 01-1.105 1.126c-.451.266-.95.399-1.502.399-.633 0-1.206-.18-1.71-.533-.506-.352-.883-.845-1.139-1.471a5.419 5.419 0 01-.283-1.138 9.352 9.352 0 01-.087-1.345c0-.626.033-1.185.1-1.684.068-.5.17-.932.31-1.292.25-.592.607-1.045 1.078-1.358.472-.313 1.03-.466 1.684-.466.431 0 .822.066 1.172.206.35.14.66.34.923.606.262.266.491.593.673.985.323.686.478 1.651.478 2.896zm-1.71-.126c0-.752-.048-1.372-.142-1.858-.094-.479-.25-.845-.465-1.091-.215-.247-.518-.367-.902-.367-.552 0-.936.273-1.152.826-.215.546-.323 1.398-.323 2.536 0 .779.047 1.412.141 1.911.095.499.25.872.465 1.125.216.253.512.38.882.38.384 0 .687-.133.903-.393.215-.266.37-.639.458-1.132.087-.492.135-1.138.135-1.937zM95.391 105.588a2.853 2.853 0 01-.923.725 2.55 2.55 0 01-1.131.247 2.67 2.67 0 01-1.98-.859 2.877 2.877 0 01-.573-.946 3.215 3.215 0 01-.202-1.138c0-.426.074-.832.222-1.212.148-.379.364-.712.647-.992.283-.279.613-.499.997-.659a3.31 3.31 0 011.28-.233c.538 0 1.016.1 1.44.293.425.193.775.473 1.065.846.29.372.512.832.667 1.398.154.559.229 1.198.229 1.91 0 .793-.081 1.492-.243 2.098-.161.605-.397 1.111-.714 1.524a2.985 2.985 0 01-1.118.919c-.438.2-.93.299-1.482.299-.545 0-1.017-.099-1.414-.306-.404-.206-.707-.459-.916-.759-.209-.306-.31-.592-.31-.879 0-.173.068-.326.196-.466a.669.669 0 01.498-.206c.182 0 .35.053.492.153.148.1.256.253.33.453.094.246.242.446.458.599.215.153.45.226.72.226.236 0 .465-.06.674-.179a1.58 1.58 0 00.545-.506c.303-.453.485-1.232.546-2.35zm-.148-1.898c0-.279-.04-.539-.115-.779a1.943 1.943 0 00-.323-.619 1.537 1.537 0 00-.498-.406 1.36 1.36 0 00-.633-.146c-.398 0-.735.166-1.01.506-.277.339-.412.778-.412 1.331 0 .553.135.985.411 1.312.276.326.627.492 1.044.492a1.525 1.525 0 001.32-.785c.142-.26.216-.56.216-.906zM104.362 105.588a2.85 2.85 0 01-.923.725c-.343.167-.72.247-1.131.247a2.665 2.665 0 01-1.98-.859 2.88 2.88 0 01-.573-.946 3.215 3.215 0 01-.202-1.138c0-.426.074-.832.222-1.212a2.83 2.83 0 01.647-.992 3.1 3.1 0 01.997-.659c.384-.16.815-.233 1.28-.233.538 0 1.017.1 1.441.293.424.193.774.473 1.064.846.29.372.512.832.667 1.398.155.559.229 1.198.229 1.91 0 .793-.081 1.492-.243 2.098-.161.605-.397 1.111-.714 1.524a2.982 2.982 0 01-1.118.919c-.437.2-.929.299-1.481.299-.546 0-1.017-.099-1.415-.306-.404-.206-.707-.459-.916-.759-.209-.306-.31-.592-.31-.879 0-.173.068-.326.196-.466a.668.668 0 01.498-.206c.182 0 .35.053.492.153.148.1.256.253.33.453.094.246.242.446.458.599.215.153.451.226.721.226.235 0 .464-.06.673-.179.216-.12.397-.287.546-.506.303-.453.485-1.232.545-2.35zm-.148-1.898a2.6 2.6 0 00-.115-.779 1.934 1.934 0 00-.323-.619 1.545 1.545 0 00-.498-.406 1.361 1.361 0 00-.633-.146c-.398 0-.734.166-1.011.506-.276.339-.41.778-.41 1.331 0 .553.134.985.41 1.312.277.326.627.492 1.044.492a1.521 1.521 0 001.32-.785c.142-.26.216-.56.216-.906z" fill="#000" stroke="#000" stroke-miterlimit="10"/></g><defs><clipPath id="clip0"><path fill="#fff" d="M0 0h283v251H0z"/></clipPath></defs></svg>