<svg width="222" height="38" viewBox="0 0 222 38" fill="none" xmlns="http://www.w3.org/2000/svg">
<g clip-path="url(#clip0_4162_5442)">
<rect width="222" height="38" fill="white"/>
<path d="M38.62 11.54H48.46L48.45 13.98H41.56V17.61H47.53V20H41.56V26H38.62V11.54ZM53.2356 15.66V26H50.4456V15.66H53.2356ZM53.2656 11.55V14.18H50.4256V11.55H53.2656ZM59.0202 26.18C58.2602 26.18 57.6568 26.09 57.2102 25.91C56.7635 25.73 56.4335 25.4933 56.2202 25.2C56.0068 24.9 55.8702 24.57 55.8102 24.21C55.7502 23.8433 55.7202 23.4733 55.7202 23.1V11.14H58.5802V22.74C58.5802 23.12 58.6602 23.43 58.8202 23.67C58.9868 23.9033 59.2968 24.0467 59.7502 24.1L60.2402 24.13V25.93C60.0402 25.9967 59.8368 26.0533 59.6302 26.1C59.4235 26.1533 59.2202 26.18 59.0202 26.18ZM64.2869 21.5C64.2802 22.0267 64.3635 22.4867 64.5369 22.88C64.7102 23.2667 64.9602 23.5667 65.2869 23.78C65.6202 23.9867 66.0202 24.09 66.4869 24.09C66.9869 24.09 67.4235 23.9833 67.7969 23.77C68.1769 23.5567 68.4402 23.2067 68.5869 22.72H71.2169C71.1035 23.4533 70.8102 24.08 70.3369 24.6C69.8702 25.12 69.3035 25.5167 68.6369 25.79C67.9702 26.0633 67.2769 26.2 66.5569 26.2C65.5369 26.2 64.6369 25.9867 63.8569 25.56C63.0835 25.1267 62.4802 24.5167 62.0469 23.73C61.6135 22.9433 61.3969 22.0167 61.3969 20.95C61.3969 19.9167 61.5935 18.9867 61.9869 18.16C62.3802 17.3267 62.9502 16.67 63.6969 16.19C64.4502 15.7033 65.3535 15.46 66.4069 15.46C67.4602 15.46 68.3435 15.6833 69.0569 16.13C69.7769 16.57 70.3169 17.1867 70.6769 17.98C71.0435 18.7667 71.2269 19.6767 71.2269 20.71V21.5H64.2869ZM64.2769 19.76H68.4969C68.4969 19.3467 68.4202 18.9667 68.2669 18.62C68.1135 18.2733 67.8802 18 67.5669 17.8C67.2602 17.6 66.8735 17.5 66.4069 17.5C65.9535 17.5 65.5669 17.61 65.2469 17.83C64.9335 18.0433 64.6935 18.3233 64.5269 18.67C64.3602 19.0167 64.2769 19.38 64.2769 19.76ZM83.03 11.54L78 19.92V26H75.08V19.91L70.06 11.54H73.22L76.55 17.4L79.84 11.54H83.03ZM86.7853 26.2C85.772 26.2 84.8886 25.9833 84.1353 25.55C83.3886 25.1167 82.8086 24.5033 82.3953 23.71C81.9886 22.9167 81.7853 21.9767 81.7853 20.89C81.7853 19.8033 81.9886 18.8533 82.3953 18.04C82.8086 17.2267 83.3886 16.5933 84.1353 16.14C84.8886 15.6867 85.7753 15.46 86.7953 15.46C87.8153 15.46 88.6986 15.6833 89.4453 16.13C90.192 16.57 90.7686 17.1967 91.1753 18.01C91.582 18.8233 91.7853 19.7833 91.7853 20.89C91.7853 21.93 91.5853 22.85 91.1853 23.65C90.792 24.4433 90.222 25.0667 89.4753 25.52C88.7353 25.9733 87.8386 26.2 86.7853 26.2ZM86.7953 24.03C87.3086 24.03 87.722 23.88 88.0353 23.58C88.3486 23.28 88.5753 22.8867 88.7153 22.4C88.862 21.9067 88.9353 21.37 88.9353 20.79C88.9353 20.2433 88.8686 19.7267 88.7353 19.24C88.6086 18.7533 88.3886 18.36 88.0753 18.06C87.762 17.76 87.3353 17.61 86.7953 17.61C86.282 17.61 85.8653 17.7533 85.5453 18.04C85.232 18.32 85.002 18.7033 84.8553 19.19C84.7086 19.67 84.6353 20.2033 84.6353 20.79C84.6353 21.33 84.702 21.85 84.8353 22.35C84.9686 22.8433 85.192 23.2467 85.5053 23.56C85.8186 23.8733 86.2486 24.03 86.7953 24.03ZM97.2048 26.2C96.7248 26.2 96.2515 26.1267 95.7848 25.98C95.3248 25.8333 94.9048 25.6167 94.5248 25.33C94.1448 25.0433 93.8382 24.69 93.6048 24.27C93.3782 23.85 93.2648 23.3633 93.2648 22.81V15.66H96.1848V22.44C96.1848 22.92 96.3415 23.3133 96.6548 23.62C96.9682 23.9267 97.4282 24.08 98.0348 24.08C98.6082 24.08 99.0615 23.9333 99.3948 23.64C99.7348 23.34 99.9048 22.9233 99.9048 22.39V15.66H102.795V26H100.595L100.255 23.95C100.135 24.5567 99.9082 25.0233 99.5748 25.35C99.2482 25.67 98.8715 25.89 98.4448 26.01C98.0248 26.1367 97.6115 26.2 97.2048 26.2ZM105.011 26V15.66H107.821V18.11C107.987 17.5833 108.221 17.1233 108.521 16.73C108.827 16.33 109.197 16.02 109.631 15.8C110.064 15.5733 110.554 15.46 111.101 15.46C111.194 15.46 111.281 15.4667 111.361 15.48C111.447 15.4867 111.511 15.5 111.551 15.52V18.3C111.491 18.2733 111.417 18.2567 111.331 18.25C111.251 18.2433 111.177 18.2367 111.111 18.23C110.537 18.1833 110.047 18.2 109.641 18.28C109.234 18.36 108.904 18.4967 108.651 18.69C108.397 18.8833 108.214 19.12 108.101 19.4C107.987 19.68 107.931 19.9933 107.931 20.34V26H105.011ZM118.716 26.2C118.002 26.2 117.302 26.11 116.616 25.93C115.929 25.75 115.302 25.48 114.736 25.12C114.169 24.76 113.699 24.31 113.326 23.77C112.959 23.23 112.739 22.5967 112.666 21.87H115.656C115.756 22.31 115.946 22.68 116.226 22.98C116.506 23.28 116.859 23.51 117.286 23.67C117.712 23.83 118.186 23.91 118.706 23.91C119.239 23.91 119.726 23.8433 120.166 23.71C120.606 23.5767 120.959 23.3767 121.226 23.11C121.492 22.8367 121.626 22.4967 121.626 22.09C121.626 21.7233 121.516 21.4233 121.296 21.19C121.082 20.9567 120.792 20.7667 120.426 20.62C120.059 20.4733 119.642 20.3533 119.176 20.26L116.676 19.75C115.582 19.5433 114.716 19.11 114.076 18.45C113.436 17.7833 113.106 16.8967 113.086 15.79C113.079 14.8833 113.319 14.1 113.806 13.44C114.299 12.7733 114.966 12.26 115.806 11.9C116.652 11.54 117.599 11.36 118.646 11.36C119.892 11.36 120.939 11.5567 121.786 11.95C122.639 12.3367 123.286 12.8633 123.726 13.53C124.172 14.19 124.402 14.9267 124.416 15.74H121.486C121.432 15.2333 121.279 14.83 121.026 14.53C120.772 14.23 120.446 14.0133 120.046 13.88C119.652 13.7467 119.202 13.68 118.696 13.68C118.309 13.68 117.956 13.7233 117.636 13.81C117.322 13.8967 117.056 14.02 116.836 14.18C116.616 14.3333 116.446 14.5167 116.326 14.73C116.206 14.9433 116.146 15.1833 116.146 15.45C116.146 15.87 116.286 16.21 116.566 16.47C116.846 16.73 117.369 16.9433 118.136 17.11L120.616 17.62C121.502 17.7933 122.206 18.05 122.726 18.39C123.252 18.73 123.646 19.1133 123.906 19.54C124.172 19.9667 124.346 20.4033 124.426 20.85C124.512 21.29 124.556 21.6967 124.556 22.07C124.556 22.85 124.309 23.5533 123.816 24.18C123.329 24.8 122.649 25.2933 121.776 25.66C120.902 26.02 119.882 26.2 118.716 26.2ZM132.57 17.69H130.27L130.29 23.2C130.29 23.4533 130.32 23.6433 130.38 23.77C130.447 23.89 130.547 23.97 130.68 24.01C130.82 24.0433 130.997 24.06 131.21 24.06H132.6V25.86C132.467 25.92 132.257 25.9767 131.97 26.03C131.69 26.0833 131.297 26.11 130.79 26.11C129.883 26.11 129.18 25.9933 128.68 25.76C128.187 25.5267 127.843 25.2 127.65 24.78C127.457 24.36 127.36 23.8733 127.36 23.32V17.69H125.68V15.66H127.46L128.19 12.54H130.27V15.65H132.57V17.69ZM137.488 26.2C136.828 26.2 136.234 26.0767 135.708 25.83C135.181 25.5833 134.764 25.2267 134.458 24.76C134.151 24.2867 133.998 23.7133 133.998 23.04C133.998 21.9067 134.421 21.0467 135.268 20.46C136.114 19.8667 137.451 19.56 139.278 19.54L140.568 19.52V18.9C140.568 18.4267 140.428 18.0633 140.148 17.81C139.874 17.55 139.448 17.4233 138.868 17.43C138.441 17.4367 138.034 17.5367 137.648 17.73C137.268 17.9233 137.008 18.26 136.868 18.74H134.438C134.478 17.9933 134.694 17.38 135.088 16.9C135.481 16.4133 136.014 16.0533 136.688 15.82C137.368 15.58 138.138 15.46 138.998 15.46C140.058 15.46 140.908 15.5933 141.548 15.86C142.188 16.12 142.651 16.4967 142.938 16.99C143.224 17.4767 143.368 18.0567 143.368 18.73V26H140.928L140.688 24.22C140.334 24.9667 139.891 25.4833 139.358 25.77C138.831 26.0567 138.208 26.2 137.488 26.2ZM138.468 24.28C138.734 24.28 138.991 24.2333 139.238 24.14C139.491 24.04 139.714 23.91 139.908 23.75C140.108 23.5833 140.268 23.3967 140.388 23.19C140.508 22.9833 140.568 22.77 140.568 22.55V21.02L139.518 21.04C139.031 21.0467 138.578 21.1067 138.158 21.22C137.738 21.3267 137.398 21.5033 137.138 21.75C136.884 21.9967 136.758 22.33 136.758 22.75C136.758 23.23 136.924 23.6067 137.258 23.88C137.591 24.1467 137.994 24.28 138.468 24.28ZM151.583 17.69H149.283L149.303 23.2C149.303 23.4533 149.333 23.6433 149.393 23.77C149.46 23.89 149.56 23.97 149.693 24.01C149.833 24.0433 150.01 24.06 150.223 24.06H151.613V25.86C151.48 25.92 151.27 25.9767 150.983 26.03C150.703 26.0833 150.31 26.11 149.803 26.11C148.896 26.11 148.193 25.9933 147.693 25.76C147.2 25.5267 146.856 25.2 146.663 24.78C146.47 24.36 146.373 23.8733 146.373 23.32V17.69H144.693V15.66H146.473L147.203 12.54H149.283V15.65H151.583V17.69ZM155.588 21.5C155.581 22.0267 155.665 22.4867 155.838 22.88C156.011 23.2667 156.261 23.5667 156.588 23.78C156.921 23.9867 157.321 24.09 157.788 24.09C158.288 24.09 158.725 23.9833 159.098 23.77C159.478 23.5567 159.741 23.2067 159.888 22.72H162.518C162.405 23.4533 162.111 24.08 161.638 24.6C161.171 25.12 160.605 25.5167 159.938 25.79C159.271 26.0633 158.578 26.2 157.858 26.2C156.838 26.2 155.938 25.9867 155.158 25.56C154.385 25.1267 153.781 24.5167 153.348 23.73C152.915 22.9433 152.698 22.0167 152.698 20.95C152.698 19.9167 152.895 18.9867 153.288 18.16C153.681 17.3267 154.251 16.67 154.998 16.19C155.751 15.7033 156.655 15.46 157.708 15.46C158.761 15.46 159.645 15.6833 160.358 16.13C161.078 16.57 161.618 17.1867 161.978 17.98C162.345 18.7667 162.528 19.6767 162.528 20.71V21.5H155.588ZM155.578 19.76H159.798C159.798 19.3467 159.721 18.9667 159.568 18.62C159.415 18.2733 159.181 18 158.868 17.8C158.561 17.6 158.175 17.5 157.708 17.5C157.255 17.5 156.868 17.61 156.548 17.83C156.235 18.0433 155.995 18.3233 155.828 18.67C155.661 19.0167 155.578 19.38 155.578 19.76ZM161.727 14.14V11.54H173.297V14.14H169.027V26H166.097V14.14H161.727ZM176.471 26.2C175.811 26.2 175.217 26.0767 174.691 25.83C174.164 25.5833 173.747 25.2267 173.441 24.76C173.134 24.2867 172.981 23.7133 172.981 23.04C172.981 21.9067 173.404 21.0467 174.251 20.46C175.097 19.8667 176.434 19.56 178.261 19.54L179.551 19.52V18.9C179.551 18.4267 179.411 18.0633 179.131 17.81C178.857 17.55 178.431 17.4233 177.851 17.43C177.424 17.4367 177.017 17.5367 176.631 17.73C176.251 17.9233 175.991 18.26 175.851 18.74H173.421C173.461 17.9933 173.677 17.38 174.071 16.9C174.464 16.4133 174.997 16.0533 175.671 15.82C176.351 15.58 177.121 15.46 177.981 15.46C179.041 15.46 179.891 15.5933 180.531 15.86C181.171 16.12 181.634 16.4967 181.921 16.99C182.207 17.4767 182.351 18.0567 182.351 18.73V26H179.911L179.671 24.22C179.317 24.9667 178.874 25.4833 178.341 25.77C177.814 26.0567 177.191 26.2 176.471 26.2ZM177.451 24.28C177.717 24.28 177.974 24.2333 178.221 24.14C178.474 24.04 178.697 23.91 178.891 23.75C179.091 23.5833 179.251 23.3967 179.371 23.19C179.491 22.9833 179.551 22.77 179.551 22.55V21.02L178.501 21.04C178.014 21.0467 177.561 21.1067 177.141 21.22C176.721 21.3267 176.381 21.5033 176.121 21.75C175.867 21.9967 175.741 22.33 175.741 22.75C175.741 23.23 175.907 23.6067 176.241 23.88C176.574 24.1467 176.977 24.28 177.451 24.28ZM194.709 26H191.659L189.189 22.63L186.709 26H183.649L187.629 20.61L183.999 15.66H187.049L189.199 18.56L191.339 15.66H194.399L190.739 20.61L194.709 26ZM197.931 21.5C197.924 22.0267 198.007 22.4867 198.181 22.88C198.354 23.2667 198.604 23.5667 198.931 23.78C199.264 23.9867 199.664 24.09 200.131 24.09C200.631 24.09 201.067 23.9833 201.441 23.77C201.821 23.5567 202.084 23.2067 202.231 22.72H204.861C204.747 23.4533 204.454 24.08 203.981 24.6C203.514 25.12 202.947 25.5167 202.281 25.79C201.614 26.0633 200.921 26.2 200.201 26.2C199.181 26.2 198.281 25.9867 197.501 25.56C196.727 25.1267 196.124 24.5167 195.691 23.73C195.257 22.9433 195.041 22.0167 195.041 20.95C195.041 19.9167 195.237 18.9867 195.631 18.16C196.024 17.3267 196.594 16.67 197.341 16.19C198.094 15.7033 198.997 15.46 200.051 15.46C201.104 15.46 201.987 15.6833 202.701 16.13C203.421 16.57 203.961 17.1867 204.321 17.98C204.687 18.7667 204.871 19.6767 204.871 20.71V21.5H197.931ZM197.921 19.76H202.141C202.141 19.3467 202.064 18.9667 201.911 18.62C201.757 18.2733 201.524 18 201.211 17.8C200.904 17.6 200.517 17.5 200.051 17.5C199.597 17.5 199.211 17.61 198.891 17.83C198.577 18.0433 198.337 18.3233 198.171 18.67C198.004 19.0167 197.921 19.38 197.921 19.76ZM210.748 26.2C210.028 26.2 209.335 26.0833 208.668 25.85C208.002 25.61 207.438 25.2367 206.978 24.73C206.518 24.2167 206.225 23.5533 206.098 22.74H208.628C208.715 23.1067 208.872 23.3967 209.098 23.61C209.332 23.8233 209.595 23.9767 209.888 24.07C210.182 24.1567 210.462 24.2 210.728 24.2C211.288 24.2 211.738 24.1133 212.078 23.94C212.425 23.76 212.598 23.4867 212.598 23.12C212.598 22.84 212.495 22.6167 212.288 22.45C212.088 22.2833 211.755 22.1567 211.288 22.07L209.468 21.69C208.555 21.4967 207.822 21.17 207.268 20.71C206.715 20.2433 206.432 19.5833 206.418 18.73C206.418 18.11 206.582 17.5533 206.908 17.06C207.242 16.5667 207.732 16.1767 208.378 15.89C209.025 15.6033 209.818 15.46 210.758 15.46C212.032 15.46 213.048 15.74 213.808 16.3C214.575 16.86 214.965 17.65 214.978 18.67H212.538C212.465 18.27 212.265 17.9633 211.938 17.75C211.618 17.53 211.215 17.42 210.728 17.42C210.222 17.42 209.805 17.51 209.478 17.69C209.152 17.87 208.988 18.1433 208.988 18.51C208.988 18.7833 209.122 19 209.388 19.16C209.655 19.3133 210.068 19.4467 210.628 19.56L212.308 19.94C212.888 20.08 213.358 20.2733 213.718 20.52C214.085 20.76 214.368 21.0233 214.568 21.31C214.768 21.5967 214.905 21.8867 214.978 22.18C215.058 22.4667 215.098 22.7267 215.098 22.96C215.098 23.6467 214.915 24.2333 214.548 24.72C214.182 25.2 213.672 25.5667 213.018 25.82C212.365 26.0733 211.608 26.2 210.748 26.2Z" fill="#121111"/>
<path fill-rule="evenodd" clip-rule="evenodd" d="M10.5007 4.2915H23.4173C24.8382 4.2915 26.0007 5.454 26.0007 6.87484V30.1248C26.0007 31.5457 24.8382 32.7082 23.4173 32.7082H10.5007C9.07984 32.7082 7.91734 31.5457 7.91734 30.1248V26.2498H10.5007V28.8332H23.4173V8.1665H10.5007V10.7498H7.91734V6.87484C7.91734 5.454 9.07984 4.2915 10.5007 4.2915ZM4.63651 17.1048L7.93026 20.3986L15.564 12.739L17.2044 14.3794L7.91734 23.6665L2.99609 18.7453L4.63651 17.1048Z" fill="#121111"/>
</g>
<defs>
<clipPath id="clip0_4162_5442">
<rect width="222" height="38" fill="white"/>
</clipPath>
</defs>
</svg>
