<svg width="298" height="267" viewBox="0 0 298 267" fill="none" xmlns="http://www.w3.org/2000/svg">
<g clip-path="url(#clip0)">
<path fill-rule="evenodd" clip-rule="evenodd" d="M264.361 107.694C272.61 138.422 252.872 167.904 233.227 193.108C214.007 217.76 190.368 243.41 159.021 242.851C128.702 242.32 109.418 214.12 90.6167 190.537C72.8862 168.314 50.8862 143.854 58.1273 116.355C65.1415 89.6987 97.3472 82.4186 122.276 70.3086C146.035 58.7864 169.305 43.263 194.822 49.9837C225.574 58.057 256.17 77.1709 264.361 107.694Z" fill="#C2C2FF"/>
<path d="M189.702 63.5526H189V62.979C189 62.4974 188.61 62.1079 188.127 62.1079C187.645 62.1079 187.255 62.4974 187.255 62.979V63.5526H186.553C186.071 63.5526 185.681 63.9421 185.681 64.4237C185.681 64.9052 186.071 65.2947 186.553 65.2947H187.255V65.8684C187.255 66.3499 187.645 66.7394 188.127 66.7394C188.61 66.7394 189 66.3499 189 65.8684V65.2947H189.702C190.184 65.2947 190.574 64.9052 190.574 64.4237C190.574 63.9421 190.184 63.5526 189.702 63.5526Z" fill="#231F20"/>
<path d="M141.269 227.193H140.567V226.619C140.567 226.138 140.177 225.748 139.695 225.748C139.213 225.748 138.823 226.138 138.823 226.619V227.193H138.12C137.638 227.193 137.248 227.582 137.248 228.064C137.248 228.546 137.638 228.935 138.12 228.935H138.823V229.509C138.823 229.99 139.213 230.38 139.695 230.38C140.177 230.38 140.567 229.99 140.567 229.509V228.935H141.269C141.752 228.935 142.142 228.546 142.142 228.064C142.142 227.582 141.752 227.193 141.269 227.193Z" fill="#231F20"/>
<path d="M94.8514 7.85376H94.1492V7.28013C94.1492 6.79856 93.7592 6.40906 93.2769 6.40906C92.7946 6.40906 92.4045 6.79856 92.4045 7.28013V7.85376H91.7024C91.2201 7.85376 90.8301 8.24326 90.8301 8.72482C90.8301 9.20639 91.2201 9.59589 91.7024 9.59589H92.4045V10.1695C92.4045 10.6511 92.7946 11.0406 93.2769 11.0406C93.7592 11.0406 94.1492 10.6511 94.1492 10.1695V9.59589H94.8514C95.3336 9.59589 95.7237 9.20639 95.7237 8.72482C95.7237 8.24326 95.3336 7.85376 94.8514 7.85376Z" fill="#231F20"/>
<path d="M297.128 186.401H296.426V185.828C296.426 185.346 296.036 184.957 295.553 184.957C295.071 184.957 294.681 185.346 294.681 185.828V186.401H293.979C293.497 186.401 293.106 186.791 293.106 187.273C293.106 187.754 293.497 188.144 293.979 188.144H294.681V188.717C294.681 189.199 295.071 189.588 295.553 189.588C296.036 189.588 296.426 189.199 296.426 188.717V188.144H297.128C297.61 188.144 298 187.754 298 187.273C298 186.791 297.61 186.401 297.128 186.401Z" fill="#231F20"/>
<path d="M236.128 211.478H59.7521C56.5394 211.478 53.9365 208.879 53.9365 205.671V92.6164C53.9365 89.4084 56.5394 86.8093 59.7521 86.8093H236.128C239.341 86.8093 241.944 89.4084 241.944 92.6164V205.671C241.944 208.879 239.341 211.478 236.128 211.478Z" fill="white" stroke="black" stroke-width="3" stroke-linecap="round" stroke-linejoin="round"/>
<path d="M78.9365 144.264H109.688" stroke="black" stroke-width="3" stroke-miterlimit="10" stroke-linecap="round" stroke-linejoin="round"/>
<path d="M119.397 144.264H192.057" stroke="black" stroke-width="3" stroke-miterlimit="10" stroke-linecap="round" stroke-linejoin="round"/>
<path d="M78.9365 153.719H109.688" stroke="black" stroke-width="3" stroke-miterlimit="10" stroke-linecap="round" stroke-linejoin="round"/>
<path d="M119.397 153.719H192.057" stroke="black" stroke-width="3" stroke-miterlimit="10" stroke-linecap="round" stroke-linejoin="round"/>
<path d="M192.058 172.748H146.086" stroke="black" stroke-width="3" stroke-miterlimit="10" stroke-linecap="round" stroke-linejoin="round"/>
<path d="M135.49 172.748H78.9365" stroke="black" stroke-width="3" stroke-miterlimit="10" stroke-linecap="round" stroke-linejoin="round"/>
<path d="M192.058 181.21H146.086" stroke="black" stroke-width="3" stroke-miterlimit="10" stroke-linecap="round" stroke-linejoin="round"/>
<path d="M135.49 181.21H78.9365" stroke="black" stroke-width="3" stroke-miterlimit="10" stroke-linecap="round" stroke-linejoin="round"/>
<path d="M78.9219 134.803H192.057" stroke="black" stroke-width="3" stroke-miterlimit="10" stroke-linecap="round" stroke-linejoin="round"/>
<path d="M78.9219 163.173H192.057" stroke="black" stroke-width="3" stroke-miterlimit="10" stroke-linecap="round" stroke-linejoin="round"/>
<path d="M78.9219 190.672H192.057" stroke="black" stroke-width="3" stroke-miterlimit="10" stroke-linecap="round" stroke-linejoin="round"/>
<path d="M78.9219 125.349H192.057" stroke="black" stroke-width="3" stroke-miterlimit="10" stroke-linecap="round" stroke-linejoin="round"/>
<path d="M256.05 67.0652H209.021V226.726H256.05V67.0652Z" fill="white" stroke="black" stroke-width="3" stroke-miterlimit="10" stroke-linecap="round" stroke-linejoin="round"/>
<path d="M220.064 85.0885H243.717" stroke="black" stroke-width="3" stroke-miterlimit="10" stroke-linecap="round" stroke-linejoin="round"/>
<path d="M220.064 102.135H243.717" stroke="black" stroke-width="3" stroke-miterlimit="10" stroke-linecap="round" stroke-linejoin="round"/>
<path d="M220.064 119.181H236.625" stroke="black" stroke-width="3" stroke-miterlimit="10" stroke-linecap="round" stroke-linejoin="round"/>
<path d="M220.064 136.219H243.717" stroke="black" stroke-width="3" stroke-miterlimit="10" stroke-linecap="round" stroke-linejoin="round"/>
<path d="M220.064 152.812H229.533" stroke="black" stroke-width="3" stroke-miterlimit="10" stroke-linecap="round" stroke-linejoin="round"/>
<path d="M220.064 169.858H243.717" stroke="black" stroke-width="3" stroke-miterlimit="10" stroke-linecap="round" stroke-linejoin="round"/>
<path d="M220.064 184.879H229.44" stroke="black" stroke-width="3" stroke-miterlimit="10" stroke-linecap="round" stroke-linejoin="round"/>
<path d="M237.795 184.879H243.625" stroke="black" stroke-width="3" stroke-miterlimit="10" stroke-linecap="round" stroke-linejoin="round"/>
<path d="M237.099 207.93C237.099 205.501 235.283 204.807 233.319 204.418L232.276 204.219C230.737 203.936 230.617 203.511 230.617 202.952C230.617 202.222 231.319 201.783 232.489 201.783C233.879 201.783 234.234 202.442 234.383 202.931L234.397 202.973C234.574 203.405 234.979 203.66 235.482 203.66C235.61 203.66 235.73 203.639 235.822 203.625C236.369 203.525 236.744 203.115 236.744 202.633C236.744 202.513 236.723 202.392 236.674 202.279C236.397 201.436 235.61 200.112 233.447 199.807V198.363C233.447 197.159 231.447 197.159 231.447 198.363V199.815C229.12 200.154 228.262 201.649 228.262 202.945C228.262 205.31 230.014 205.969 231.723 206.302L232.851 206.528C234.454 206.833 234.737 207.229 234.737 207.945C234.737 208.816 233.957 209.34 232.638 209.34C230.936 209.34 230.588 208.617 230.354 207.803C230.22 207.357 229.787 207.066 229.255 207.066C229.142 207.066 229.049 207.081 228.936 207.102L228.9 207.109C228.347 207.229 227.979 207.64 227.979 208.122C227.979 208.214 227.993 208.292 228.007 208.355L228.021 208.426C228.269 209.212 228.815 210.933 231.539 211.315V212.831C231.539 213.433 232.042 213.752 232.539 213.752C233.035 213.752 233.539 213.433 233.539 212.831V211.344C235.702 211.068 237.099 209.772 237.099 207.93Z" fill="black"/>
<path d="M221.419 235.833H154.865C154.043 235.833 153.376 235.167 153.376 234.346V161.119C153.376 160.298 154.043 159.632 154.865 159.632H221.419C222.241 159.632 222.908 160.298 222.908 161.119V234.346C222.901 235.167 222.241 235.833 221.419 235.833Z" fill="white" stroke="black" stroke-width="3" stroke-miterlimit="10" stroke-linecap="round" stroke-linejoin="round"/>
<path d="M214.312 168.463H161.972V180.701H214.312V168.463Z" fill="#FFD29C" stroke="black" stroke-width="3" stroke-miterlimit="10" stroke-linecap="round" stroke-linejoin="round"/>
<path d="M174.227 190.105H161.972V202.343H174.227V190.105Z" fill="white" stroke="black" stroke-width="3" stroke-miterlimit="10" stroke-linecap="round" stroke-linejoin="round"/>
<path d="M194.27 190.105H182.015V202.343H194.27V190.105Z" fill="white" stroke="black" stroke-width="3" stroke-miterlimit="10" stroke-linecap="round" stroke-linejoin="round"/>
<path d="M214.312 190.105H202.057V202.343H214.312V190.105Z" fill="white" stroke="black" stroke-width="3" stroke-miterlimit="10" stroke-linecap="round" stroke-linejoin="round"/>
<path d="M174.227 209.432H161.972V221.669H174.227V209.432Z" fill="white" stroke="black" stroke-width="3" stroke-miterlimit="10" stroke-linecap="round" stroke-linejoin="round"/>
<path d="M194.27 209.432H182.015V221.669H194.27V209.432Z" fill="white" stroke="black" stroke-width="3" stroke-miterlimit="10" stroke-linecap="round" stroke-linejoin="round"/>
<path d="M214.312 209.432H202.057V221.669H214.312V209.432Z" fill="white" stroke="black" stroke-width="3" stroke-miterlimit="10" stroke-linecap="round" stroke-linejoin="round"/>
<path d="M80.1131 17.2018H9.57412C4.87199 17.2018 1.06348 21.0047 1.06348 25.7V51.832C1.06348 56.5273 4.87199 60.3303 9.57412 60.3303H66.028L78.4039 72.6881V60.3232H80.1131C84.8153 60.3232 88.6238 56.5202 88.6238 51.825V25.6929C88.6238 21.0047 84.8153 17.2018 80.1131 17.2018Z" fill="#C2C2FF" stroke="black" stroke-width="3" stroke-miterlimit="10" stroke-linecap="round" stroke-linejoin="round"/>
<path d="M11.1768 32.3994H78.503" stroke="black" stroke-width="3" stroke-miterlimit="10" stroke-linecap="round" stroke-linejoin="round"/>
<path d="M11.1768 42.9302H78.503" stroke="black" stroke-width="3" stroke-miterlimit="10" stroke-linecap="round" stroke-linejoin="round"/>
<path d="M248.255 126.241H283.588C286.652 126.241 289.134 128.72 289.134 131.779V148.804C289.134 151.863 286.652 154.342 283.588 154.342H257.432L249.369 162.394V154.342H248.255C245.191 154.342 242.709 151.863 242.709 148.804V131.779C242.716 128.72 245.198 126.241 248.255 126.241Z" fill="#FFD29C" stroke="black" stroke-width="3" stroke-miterlimit="10" stroke-linecap="round" stroke-linejoin="round"/>
<path d="M282.539 136.149H249.305" stroke="black" stroke-width="3" stroke-miterlimit="10" stroke-linecap="round" stroke-linejoin="round"/>
<path d="M282.539 143.004H249.305" stroke="black" stroke-width="3" stroke-miterlimit="10" stroke-linecap="round" stroke-linejoin="round"/>
<path d="M213.404 36.507H210.213V33.3201C210.213 32.9306 209.894 32.6119 209.504 32.6119H208.794C208.404 32.6119 208.085 32.9306 208.085 33.3201V36.507H204.894C204.504 36.507 204.185 36.8256 204.185 37.2151V37.9233C204.185 38.3128 204.504 38.6315 204.894 38.6315H208.085V41.8183C208.085 42.2078 208.404 42.5265 208.794 42.5265H209.504C209.894 42.5265 210.213 42.2078 210.213 41.8183V38.6315H213.404C213.794 38.6315 214.114 38.3128 214.114 37.9233V37.2151C214.114 36.8186 213.794 36.507 213.404 36.507Z" fill="#8E8EEF"/>
<path d="M10.1564 154.795H6.96489V151.608C6.96489 151.219 6.64574 150.9 6.25567 150.9H5.54645C5.15638 150.9 4.83723 151.219 4.83723 151.608V154.795H1.64574C1.25567 154.795 0.936523 155.114 0.936523 155.503V156.212C0.936523 156.601 1.25567 156.92 1.64574 156.92H4.83723V160.107C4.83723 160.496 5.15638 160.815 5.54645 160.815H6.25567C6.64574 160.815 6.96489 160.496 6.96489 160.107V156.92H10.1564C10.5465 156.92 10.8656 156.601 10.8656 156.212V155.503C10.8656 155.114 10.5465 154.795 10.1564 154.795Z" fill="#8E8EEF"/>
<path d="M288.461 104.769H285.27V101.582C285.27 101.193 284.95 100.874 284.56 100.874H283.851C283.461 100.874 283.142 101.193 283.142 101.582V104.769H279.95C279.56 104.769 279.241 105.088 279.241 105.477V106.185C279.241 106.575 279.56 106.893 279.95 106.893H283.142V110.08C283.142 110.47 283.461 110.788 283.851 110.788H284.56C284.95 110.788 285.27 110.47 285.27 110.08V106.893H288.461C288.851 106.893 289.17 106.575 289.17 106.185V105.477C289.17 105.088 288.851 104.769 288.461 104.769Z" fill="#02CEAA"/>
<path d="M116.276 58.3191H114V56.0458C114 55.7696 113.773 55.543 113.496 55.543H112.993C112.709 55.543 112.489 55.7696 112.489 56.0458V58.3191H110.213C109.936 58.3191 109.709 58.5457 109.709 58.8219V59.3247C109.709 59.6009 109.936 59.8275 110.213 59.8275H112.489V62.1008C112.489 62.377 112.716 62.6036 112.993 62.6036H113.496C113.78 62.6036 114 62.377 114 62.1008V59.8417H116.276C116.553 59.8417 116.78 59.615 116.78 59.3388V58.836C116.78 58.5457 116.553 58.3191 116.276 58.3191Z" fill="#FFAB48"/>
<path d="M279.596 169.476C280.966 169.476 282.078 168.366 282.078 166.997C282.078 165.628 280.966 164.519 279.596 164.519C278.225 164.519 277.113 165.628 277.113 166.997C277.113 168.366 278.225 169.476 279.596 169.476Z" fill="#FFAB48"/>
<path d="M26.7372 77.525C28.1081 77.525 29.2194 76.4153 29.2194 75.0464C29.2194 73.6775 28.1081 72.5677 26.7372 72.5677C25.3662 72.5677 24.2549 73.6775 24.2549 75.0464C24.2549 76.4153 25.3662 77.525 26.7372 77.525Z" fill="#02CEAA"/>
<path d="M130.113 257.369C131.484 257.369 132.595 256.259 132.595 254.89C132.595 253.521 131.484 252.411 130.113 252.411C128.742 252.411 127.631 253.521 127.631 254.89C127.631 256.259 128.742 257.369 130.113 257.369Z" fill="#8E8EEF"/>
<path d="M1.94336 118.168L20.7093 146.007L66.7944 115.059L48.0285 87.2201L1.94336 118.168Z" fill="#C6F9EC" stroke="black" stroke-width="3" stroke-miterlimit="10" stroke-linecap="round" stroke-linejoin="round"/>
<path d="M40.2842 112.099C41.4402 113.813 41.8586 115.873 41.4615 117.892C41.0572 119.924 39.9012 121.666 38.1849 122.821C34.6459 125.2 29.8232 124.258 27.4402 120.717C26.2274 118.919 25.8728 116.794 26.2913 114.818C26.6884 112.913 27.8019 111.164 29.5466 109.995C31.2629 108.841 33.3267 108.423 35.3551 108.82C37.3835 109.223 39.1352 110.385 40.2842 112.099Z" stroke="black" stroke-width="3" stroke-miterlimit="10"/>
<path d="M46.8653 91.2709L10.0284 116.008C10.0001 116.022 9.9788 116.043 9.95043 116.064L6.12774 118.628C5.8866 118.791 5.82277 119.124 5.98589 119.372L21.1206 141.821C21.1987 141.942 21.3263 142.019 21.4611 142.048C21.5958 142.076 21.7448 142.048 21.8582 141.97L62.5887 114.62C62.7022 114.542 62.7873 114.421 62.8157 114.287C62.8157 114.28 62.8157 114.28 62.8157 114.28C62.844 114.145 62.8157 113.997 62.7377 113.883L47.6029 91.4338C47.4398 91.1717 47.1065 91.1009 46.8653 91.2709ZM7.17029 119.209L10.3972 117.042C11.0497 117.226 11.6171 117.622 12.0001 118.189C12.4256 118.819 12.5816 119.577 12.4327 120.321C12.4327 120.335 12.4256 120.342 12.4256 120.356C12.1419 121.716 10.8795 122.693 9.48944 122.615C9.48235 122.615 9.48235 122.615 9.47525 122.615L7.17029 119.209ZM21.7093 140.773L19.3831 137.317C19.8015 135.915 21.2057 135.058 22.6526 135.341C23.4043 135.483 24.0497 135.915 24.4682 136.545C24.8795 137.154 25.0355 137.891 24.9079 138.62L21.7093 140.773ZM61.5533 114.018L58.3192 116.185C58.2767 116.164 58.2341 116.135 58.1916 116.128C57.4469 115.987 56.7944 115.555 56.376 114.924C55.9504 114.294 55.7944 113.536 55.9433 112.793C56.0923 112.049 56.5178 111.398 57.149 110.98C57.7589 110.569 58.4894 110.413 59.2057 110.541L61.5533 114.018ZM58.4682 109.443C57.7873 109.485 57.1277 109.712 56.5533 110.094C55.7022 110.668 55.1135 111.532 54.9079 112.538C54.9079 112.552 54.9008 112.573 54.9008 112.587C54.7022 113.614 54.915 114.655 55.4965 115.519C55.9291 116.157 56.5178 116.638 57.2128 116.936L26.0143 137.884C25.9008 136.156 24.6384 134.647 22.8582 134.3C21.1348 133.967 19.4611 134.803 18.6667 136.269L10.1632 123.649C11.766 123.43 13.1206 122.211 13.4611 120.576C13.4611 120.561 13.4682 120.54 13.4753 120.526C13.6738 119.499 13.4611 118.458 12.8795 117.587C12.5107 117.042 12.0284 116.61 11.4611 116.312L42.9079 95.1942C43.0214 96.9151 44.2838 98.4235 46.0639 98.7706C47.6738 99.0822 49.2696 98.3598 50.1136 97.0355L58.4682 109.443ZM49.4469 96.0582C48.9292 97.2834 47.61 98.0057 46.2767 97.7437C44.7589 97.4463 43.7589 95.9874 44.0214 94.479L47.0214 92.4606L49.4469 96.0582Z" fill="black" stroke="black" stroke-miterlimit="10"/>
<path d="M60.7943 187.52L37.7305 227.837L104.447 265.938L127.511 225.621L60.7943 187.52Z" fill="#C6F9EC" stroke="black" stroke-width="3" stroke-miterlimit="10" stroke-linecap="round" stroke-linejoin="round"/>
<path d="M91.8584 231.286C90.4399 233.765 88.135 235.55 85.3832 236.3C82.6101 237.044 79.7378 236.683 77.2555 235.266C72.1279 232.341 70.3477 225.791 73.2697 220.671C74.7591 218.064 77.1846 216.322 79.8867 215.628C82.4967 214.955 85.3548 215.253 87.8726 216.698C90.3548 218.114 92.1421 220.416 92.8938 223.17C93.6456 225.925 93.2839 228.815 91.8584 231.286Z" stroke="black" stroke-width="3" stroke-miterlimit="10"/>
<path d="M121.772 226.662L68.4533 196.217C68.4179 196.189 68.3824 196.174 68.3398 196.153L62.815 192.995C62.4604 192.796 62.0136 192.917 61.8079 193.271L43.2051 225.784C43.1058 225.954 43.0845 226.159 43.1342 226.343C43.1838 226.527 43.3115 226.69 43.4817 226.789L102.439 260.456C102.609 260.549 102.801 260.577 102.992 260.534C102.999 260.534 102.999 260.534 103.007 260.534C103.191 260.485 103.354 260.357 103.453 260.194L122.056 227.682C122.248 227.313 122.127 226.86 121.772 226.662ZM62.7157 194.638L67.3824 197.308C67.5597 198.228 67.4108 199.17 66.9356 199.992C66.4108 200.905 65.5668 201.557 64.5526 201.84C64.5384 201.847 64.5171 201.847 64.503 201.854C62.6377 202.336 60.659 201.373 59.893 199.602C59.893 199.595 59.8859 199.595 59.8859 199.588L62.7157 194.638ZM44.8434 225.876L47.7086 220.876C49.7015 220.529 51.6306 221.747 52.1696 223.716C52.4533 224.736 52.3115 225.791 51.7866 226.704C51.2831 227.597 50.4604 228.234 49.4817 228.524L44.8434 225.876ZM102.524 258.813L97.8505 256.144C97.8505 256.08 97.8576 256.009 97.8363 255.945C97.5597 254.933 97.6945 253.863 98.2193 252.957C98.7441 252.043 99.5881 251.392 100.602 251.108C101.616 250.832 102.68 250.967 103.595 251.491C104.482 251.994 105.113 252.801 105.404 253.771L102.524 258.813ZM106.311 252.185C105.836 251.37 105.163 250.691 104.319 250.209C103.085 249.501 101.652 249.31 100.276 249.671C100.255 249.678 100.226 249.685 100.205 249.692C98.8079 250.074 97.6448 250.974 96.9285 252.227C96.4037 253.148 96.1625 254.182 96.2264 255.223L51.0774 229.438C53.1554 228.234 54.2547 225.748 53.5952 223.333C52.9569 220.996 50.893 219.438 48.581 219.346L59.0349 201.082C60.2973 202.938 62.6377 203.858 64.8718 203.285C64.893 203.278 64.9214 203.27 64.9427 203.263C66.3398 202.881 67.503 201.982 68.2264 200.728C68.6803 199.942 68.9143 199.071 68.9427 198.193L114.468 224.183C112.397 225.387 111.297 227.866 111.957 230.281C112.553 232.462 114.432 233.999 116.595 234.232L106.311 252.185ZM117.411 232.795C115.567 232.908 113.865 231.711 113.375 229.898C112.815 227.837 114.007 225.706 116.049 225.097L120.397 227.582L117.411 232.795Z" fill="black" stroke="black" stroke-miterlimit="10"/>
<path d="M242.716 52.3419L228.518 76.1369L267.893 99.585L282.092 75.7899L242.716 52.3419Z" fill="#C6F9EC" stroke="black" stroke-width="2.4764" stroke-miterlimit="10" stroke-linecap="round" stroke-linejoin="round"/>
<path d="M260.773 78.7785C259.9 80.2444 258.51 81.2784 256.858 81.6962C255.191 82.1069 253.482 81.8661 252.021 80.988C249 79.1892 248 75.2659 249.801 72.2419C250.716 70.7051 252.184 69.6924 253.801 69.3029C255.368 68.9276 257.07 69.1401 258.553 70.0253C260.021 70.8964 261.056 72.2915 261.475 73.9416C261.893 75.6058 261.645 77.3196 260.773 78.7785Z" stroke="black" stroke-width="2.4764" stroke-miterlimit="10"/>
<path d="M278.659 76.3493L247.191 57.6108C247.17 57.5966 247.149 57.5824 247.128 57.5754L243.865 55.6278C243.66 55.5075 243.39 55.5712 243.262 55.7836L231.816 74.9755C231.752 75.0746 231.738 75.195 231.766 75.3083C231.794 75.4216 231.865 75.5208 231.964 75.5774L266.766 96.2989C266.865 96.3556 266.979 96.3768 267.092 96.3485C267.092 96.3485 267.092 96.3485 267.099 96.3485C267.213 96.3202 267.312 96.2494 267.369 96.1502L278.816 76.9584C278.936 76.7388 278.865 76.4697 278.659 76.3493ZM243.787 56.6051L246.546 58.2481C246.638 58.8005 246.539 59.36 246.248 59.8486C245.929 60.3868 245.411 60.7693 244.808 60.9251C244.801 60.9251 244.787 60.9321 244.78 60.9321C243.66 61.2013 242.489 60.6064 242.057 59.537L242.05 59.5299L243.787 56.6051ZM232.787 75.0392L234.546 72.0861C235.738 71.9019 236.879 72.6455 237.177 73.8282C237.333 74.4372 237.241 75.0675 236.915 75.6057C236.603 76.1298 236.106 76.5051 235.525 76.668L232.787 75.0392ZM266.83 95.3145L264.071 93.6716C264.071 93.6361 264.078 93.5937 264.064 93.5512C263.908 92.9421 264 92.3118 264.326 91.7736C264.645 91.2354 265.163 90.853 265.766 90.6972C266.376 90.5485 267.007 90.6334 267.546 90.9592C268.071 91.2708 268.44 91.7595 268.603 92.3402L266.83 95.3145ZM269.163 91.3983C268.886 90.9096 268.489 90.4918 268 90.2014C267.269 89.7624 266.418 89.6349 265.596 89.8332C265.581 89.8332 265.567 89.8403 265.553 89.8403C264.716 90.0527 264.014 90.5768 263.567 91.3133C263.241 91.8586 263.085 92.4676 263.113 93.0908L236.468 77.2204C237.716 76.5264 238.404 75.0534 238.035 73.6087C237.681 72.2065 236.468 71.2575 235.085 71.1796L241.518 60.401C242.248 61.5199 243.638 62.0936 244.979 61.7749C244.993 61.7749 245.007 61.7678 245.021 61.7678C245.858 61.5554 246.56 61.0313 247.007 60.2948C247.284 59.8274 247.44 59.3175 247.461 58.7934L274.326 74.7913C273.078 75.4854 272.397 76.9584 272.766 78.4031C273.099 79.7132 274.198 80.648 275.489 80.8109L269.163 91.3983ZM275.993 79.954C274.894 80.0036 273.894 79.2741 273.617 78.1835C273.305 76.9442 274.042 75.6907 275.262 75.3508L277.83 76.8805L275.993 79.954Z" fill="black" stroke="black" stroke-width="0.8255" stroke-miterlimit="10"/>
<path d="M136.546 60.3799L152.886 72.7165L173.312 45.7559L156.971 33.4193L136.546 60.3799Z" fill="#C6F9EC" stroke="black" stroke-width="1.8286" stroke-miterlimit="10" stroke-linecap="round" stroke-linejoin="round"/>
<path d="M157.446 49.2897C158.453 50.0475 159.099 51.1523 159.276 52.3987C159.446 53.6522 159.127 54.8844 158.368 55.883C156.801 57.9509 153.836 58.3616 151.758 56.7965C150.702 56.0033 150.077 54.8419 149.921 53.6238C149.772 52.4483 150.063 51.216 150.836 50.1962C151.595 49.1906 152.702 48.5462 153.95 48.3691C155.205 48.2062 156.446 48.532 157.446 49.2897Z" fill="#C6F9EC" stroke="black" stroke-width="1.8286" stroke-miterlimit="10"/>
<path d="M157.106 35.9829L140.78 57.5259C140.766 57.5401 140.759 57.5542 140.745 57.5684L139.05 59.7992C138.943 59.9408 138.972 60.1462 139.114 60.2524L152.291 70.2024C152.362 70.252 152.447 70.2732 152.532 70.2662C152.617 70.2591 152.695 70.2095 152.745 70.1387L170.794 46.3153C170.844 46.2445 170.865 46.1666 170.858 46.0816C170.858 46.0816 170.858 46.0816 170.858 46.0745C170.851 45.9896 170.801 45.9117 170.731 45.8621L157.553 35.9121C157.419 35.8129 157.213 35.8413 157.106 35.9829ZM139.773 59.9408L141.206 58.057C141.617 58.0287 142.021 58.1491 142.355 58.4041C142.723 58.6803 142.965 59.091 143.028 59.5442C143.028 59.5513 143.028 59.5584 143.028 59.5655C143.135 60.4082 142.603 61.2156 141.78 61.4493H141.773L139.773 59.9408ZM152.433 69.4942L150.404 67.9646C150.369 67.0722 151.007 66.3003 151.901 66.1799C152.362 66.1162 152.816 66.2366 153.184 66.5128C153.546 66.7819 153.78 67.1785 153.851 67.6176L152.433 69.4942ZM170.092 46.1879L168.66 48.0787C168.631 48.0716 168.603 48.0716 168.575 48.0716C168.114 48.1354 167.66 48.015 167.291 47.7388C166.922 47.4626 166.681 47.0518 166.617 46.5986C166.553 46.1383 166.674 45.685 166.95 45.3168C167.22 44.9627 167.61 44.729 168.05 44.6582L170.092 46.1879ZM167.404 44.1625C167.021 44.3253 166.688 44.5803 166.426 44.9202C166.05 45.4159 165.887 46.0321 165.958 46.6553C165.958 46.6623 165.958 46.6765 165.965 46.6836C166.057 47.3139 166.383 47.8733 166.887 48.2558C167.262 48.539 167.695 48.7019 168.156 48.7302L154.333 66.9731C153.922 66.0029 152.901 65.3797 151.801 65.5284C150.745 65.6771 149.943 66.4915 149.773 67.4901L142.369 61.9025C143.248 61.4563 143.787 60.4861 143.66 59.4805C143.66 59.4734 143.66 59.4593 143.653 59.4522C143.56 58.8219 143.234 58.2624 142.731 57.88C142.411 57.6392 142.043 57.4834 141.66 57.4268L155.596 39.0281C156.007 39.9983 157.028 40.6144 158.121 40.4657C159.106 40.3241 159.887 39.5947 160.114 38.6669L167.404 44.1625ZM159.546 38.2279C159.489 39.0352 158.872 39.715 158.05 39.8284C157.114 39.9558 156.248 39.3185 156.099 38.3907L157.433 36.6344L159.546 38.2279Z" fill="black" stroke="black" stroke-width="0.6095" stroke-miterlimit="10"/>
<path d="M127.511 33.136C132.211 33.136 136.021 29.3312 136.021 24.6377C136.021 19.9443 132.211 16.1395 127.511 16.1395C122.81 16.1395 119 19.9443 119 24.6377C119 29.3312 122.81 33.136 127.511 33.136Z" fill="#FFD29C" stroke="black" stroke-width="2" stroke-miterlimit="10" stroke-linecap="round" stroke-linejoin="round"/>
<path d="M130.107 25.9338C130.107 24.5811 129.092 24.1916 128 23.9721L127.419 23.8588C126.56 23.703 126.497 23.4622 126.497 23.1506C126.497 22.7399 126.887 22.4991 127.539 22.4991C128.312 22.4991 128.511 22.8673 128.596 23.1364L128.603 23.1577C128.702 23.3985 128.929 23.5401 129.206 23.5401C129.277 23.5401 129.348 23.533 129.39 23.5189C129.695 23.4622 129.901 23.2356 129.901 22.9665C129.901 22.9027 129.887 22.8319 129.865 22.7682C129.709 22.3008 129.277 21.5572 128.064 21.3943V20.587C128.064 19.9142 126.951 19.9142 126.951 20.587V21.3943C125.653 21.5855 125.178 22.4141 125.178 23.1435C125.178 24.4608 126.149 24.829 127.107 25.0131L127.738 25.1406C128.631 25.3106 128.787 25.5301 128.787 25.9267C128.787 26.4153 128.348 26.7057 127.617 26.7057C126.667 26.7057 126.475 26.302 126.341 25.8488C126.263 25.6009 126.021 25.438 125.731 25.438C125.667 25.438 125.617 25.4451 125.553 25.4593H125.532C125.227 25.5301 125.021 25.7567 125.021 26.0258C125.021 26.0754 125.029 26.1179 125.036 26.1533L125.043 26.1958C125.178 26.6349 125.482 27.5909 127 27.8034V28.6461C127 28.979 127.284 29.156 127.56 29.156C127.837 29.156 128.121 28.979 128.121 28.6461V27.8317C129.326 27.683 130.114 26.9606 130.107 25.9338Z" fill="black"/>
<path d="M125.887 4.60315V10.4953" stroke="black" stroke-width="2" stroke-miterlimit="10" stroke-linecap="round" stroke-linejoin="round"/>
<path d="M130.028 12.4923V0.70813" stroke="black" stroke-width="2" stroke-miterlimit="10" stroke-linecap="round" stroke-linejoin="round"/>
<path d="M35.2479 188.845C39.9482 188.845 43.7586 185.04 43.7586 180.346C43.7586 175.653 39.9482 171.848 35.2479 171.848C30.5476 171.848 26.7373 175.653 26.7373 180.346C26.7373 185.04 30.5476 188.845 35.2479 188.845Z" fill="#FFD29C" stroke="black" stroke-width="2" stroke-miterlimit="10" stroke-linecap="round" stroke-linejoin="round"/>
<path d="M37.8439 181.649C37.8439 180.297 36.8297 179.907 35.7375 179.688L35.156 179.574C34.2978 179.419 34.234 179.178 34.234 178.866C34.234 178.456 34.624 178.215 35.2765 178.215C36.0496 178.215 36.2482 178.583 36.3333 178.852L36.3404 178.873C36.4396 179.114 36.6666 179.256 36.9432 179.256C37.0141 179.256 37.085 179.249 37.1276 179.235C37.4325 179.178 37.6382 178.951 37.6382 178.682C37.6382 178.618 37.624 178.548 37.6028 178.484C37.4467 178.016 37.0141 177.273 35.8013 177.11V176.303C35.8013 175.63 34.6879 175.63 34.6879 176.303V177.11C33.39 177.301 32.9148 178.13 32.9148 178.859C32.9148 180.176 33.8865 180.545 34.8439 180.729L35.4751 180.856C36.3687 181.026 36.5247 181.246 36.5247 181.642C36.5247 182.131 36.085 182.421 35.3545 182.421C34.4042 182.421 34.2127 182.018 34.0779 181.564C33.9999 181.317 33.7588 181.154 33.468 181.154C33.4042 181.154 33.3545 181.161 33.2907 181.175H33.2694C32.9645 181.246 32.7588 181.472 32.7588 181.742C32.7588 181.791 32.7659 181.834 32.773 181.869L32.7801 181.911C32.9148 182.351 33.2198 183.307 34.7375 183.519V184.362C34.7375 184.695 35.0212 184.872 35.2978 184.872C35.5744 184.872 35.8581 184.695 35.8581 184.362V183.533C37.0638 183.399 37.851 182.669 37.8439 181.649Z" fill="black"/>
<path d="M33.624 162.918V166.863" stroke="black" stroke-width="2" stroke-miterlimit="10" stroke-linecap="round" stroke-linejoin="round"/>
<path d="M37.7656 168.201V160.312" stroke="black" stroke-width="2" stroke-miterlimit="10" stroke-linecap="round" stroke-linejoin="round"/>
<path d="M278.539 215.388C283.239 215.388 287.05 211.583 287.05 206.889C287.05 202.196 283.239 198.391 278.539 198.391C273.839 198.391 270.028 202.196 270.028 206.889C270.028 211.583 273.839 215.388 278.539 215.388Z" fill="#FFD29C" stroke="black" stroke-width="2" stroke-miterlimit="10" stroke-linecap="round" stroke-linejoin="round"/>
<path d="M281.135 208.185C281.135 206.833 280.121 206.443 279.029 206.224L278.447 206.11C277.589 205.955 277.525 205.714 277.525 205.402C277.525 204.991 277.915 204.751 278.568 204.751C279.341 204.751 279.539 205.119 279.624 205.388L279.631 205.409C279.731 205.65 279.958 205.792 280.234 205.792C280.305 205.792 280.376 205.785 280.419 205.77C280.724 205.714 280.929 205.487 280.929 205.218C280.929 205.154 280.915 205.084 280.894 205.02C280.738 204.552 280.305 203.809 279.092 203.646V202.839C279.092 202.166 277.979 202.166 277.979 202.839V203.646C276.681 203.837 276.206 204.666 276.206 205.395C276.206 206.712 277.177 207.081 278.135 207.265L278.766 207.392C279.66 207.562 279.816 207.782 279.816 208.178C279.816 208.667 279.376 208.957 278.646 208.957C277.695 208.957 277.504 208.554 277.369 208.1C277.291 207.853 277.05 207.69 276.759 207.69C276.695 207.69 276.646 207.697 276.582 207.711H276.56C276.255 207.782 276.05 208.008 276.05 208.277C276.05 208.327 276.057 208.369 276.064 208.405L276.071 208.447C276.206 208.886 276.511 209.843 278.029 210.055V210.898C278.029 211.231 278.312 211.408 278.589 211.408C278.865 211.408 279.149 211.231 279.149 210.898V210.069C280.355 209.935 281.135 209.212 281.135 208.185Z" fill="black"/>
<path d="M276.915 189.461V193.405" stroke="black" stroke-width="2" stroke-miterlimit="10" stroke-linecap="round" stroke-linejoin="round"/>
<path d="M281.057 194.744V186.855" stroke="black" stroke-width="2" stroke-miterlimit="10" stroke-linecap="round" stroke-linejoin="round"/>
<path d="M81.2768 115.739V109.74C80.1562 110.597 79.4044 111.022 79.0215 111.022C78.8371 111.022 78.6739 110.951 78.5321 110.803C78.3903 110.654 78.3193 110.484 78.3193 110.293C78.3193 110.066 78.3903 109.903 78.5321 109.797C78.6739 109.691 78.9222 109.556 79.2768 109.386C79.8087 109.139 80.2342 108.869 80.5534 108.593C80.8725 108.317 81.1562 108.005 81.4044 107.665C81.6527 107.326 81.8087 107.113 81.8867 107.035C81.9647 106.957 82.0995 106.915 82.3122 106.915C82.5463 106.915 82.7307 107.007 82.8725 107.184C83.0144 107.361 83.0853 107.609 83.0853 107.927V115.47C83.0853 116.355 82.7874 116.794 82.1846 116.794C81.9151 116.794 81.7023 116.702 81.5392 116.525C81.3619 116.362 81.2768 116.093 81.2768 115.739Z" fill="black" stroke="black" stroke-miterlimit="10"/>
<path d="M92.88 111.908C92.88 112.63 92.8374 113.246 92.7452 113.763C92.6601 114.28 92.497 114.754 92.2559 115.172C91.958 115.689 91.5679 116.093 91.0927 116.369C90.6176 116.652 90.0927 116.794 89.5112 116.794C88.8445 116.794 88.2417 116.603 87.7097 116.227C87.1778 115.852 86.7807 115.328 86.5112 114.662C86.3764 114.301 86.2771 113.897 86.2133 113.451C86.1495 113.012 86.1211 112.531 86.1211 112.021C86.1211 111.355 86.1566 110.76 86.2275 110.229C86.2984 109.698 86.4048 109.238 86.5537 108.855C86.8161 108.225 87.192 107.743 87.6885 107.411C88.1849 107.078 88.7736 106.915 89.4615 106.915C89.9154 106.915 90.3268 106.986 90.6956 107.134C91.0644 107.283 91.3906 107.496 91.6672 107.779C91.9438 108.062 92.1849 108.409 92.3764 108.827C92.7168 109.556 92.88 110.583 92.88 111.908ZM91.0785 111.773C91.0785 110.973 91.0289 110.314 90.9296 109.797C90.8303 109.287 90.6672 108.898 90.4402 108.636C90.2133 108.374 89.8941 108.246 89.4899 108.246C88.9083 108.246 88.5041 108.537 88.2771 109.124C88.0502 109.705 87.9367 110.612 87.9367 111.823C87.9367 112.651 87.9863 113.324 88.0856 113.855C88.1849 114.386 88.348 114.783 88.575 115.052C88.8019 115.321 89.114 115.456 89.5041 115.456C89.9083 115.456 90.2275 115.314 90.4544 115.038C90.6814 114.754 90.8445 114.358 90.9367 113.834C91.0289 113.31 91.0785 112.623 91.0785 111.773Z" fill="black" stroke="black" stroke-miterlimit="10"/>
<path d="M100.448 112.318C100.157 112.658 99.8306 112.92 99.476 113.09C99.1143 113.267 98.7171 113.352 98.2845 113.352C97.8731 113.352 97.4831 113.274 97.1285 113.111C96.7739 112.949 96.4618 112.729 96.1994 112.439C95.937 112.148 95.7384 111.815 95.5965 111.433C95.4547 111.051 95.3838 110.647 95.3838 110.222C95.3838 109.769 95.4618 109.337 95.6178 108.933C95.7739 108.529 96.0008 108.175 96.2987 107.878C96.5965 107.58 96.9441 107.347 97.3483 107.177C97.7526 107.007 98.2065 106.929 98.6958 106.929C99.2632 106.929 99.7668 107.035 100.214 107.241C100.66 107.446 101.029 107.743 101.334 108.14C101.639 108.537 101.873 109.025 102.036 109.627C102.199 110.222 102.277 110.902 102.277 111.66C102.277 112.502 102.192 113.246 102.022 113.89C101.852 114.535 101.604 115.073 101.27 115.512C100.937 115.951 100.547 116.277 100.093 116.489C99.632 116.702 99.1143 116.808 98.5327 116.808C97.9582 116.808 97.4618 116.702 97.0434 116.482C96.6178 116.263 96.2987 115.994 96.0788 115.675C95.859 115.349 95.7526 115.045 95.7526 114.74C95.7526 114.556 95.8235 114.393 95.9583 114.245C96.093 114.103 96.2703 114.025 96.4831 114.025C96.6746 114.025 96.8519 114.082 97.0008 114.188C97.1568 114.294 97.2703 114.457 97.3483 114.669C97.4476 114.931 97.6036 115.144 97.8306 115.307C98.0575 115.47 98.3058 115.548 98.5895 115.548C98.8377 115.548 99.0788 115.484 99.2987 115.356C99.5256 115.229 99.7171 115.052 99.8731 114.818C100.192 114.337 100.384 113.508 100.448 112.318ZM100.292 110.3C100.292 110.002 100.249 109.726 100.171 109.471C100.093 109.216 99.9724 108.997 99.8306 108.813C99.6887 108.629 99.5043 108.487 99.3058 108.381C99.1001 108.274 98.8802 108.225 98.6391 108.225C98.2207 108.225 97.8661 108.402 97.5753 108.763C97.2845 109.124 97.1426 109.592 97.1426 110.18C97.1426 110.767 97.2845 111.228 97.5753 111.575C97.8661 111.922 98.2348 112.099 98.6746 112.099C98.9441 112.099 99.2065 112.028 99.4547 111.886C99.7029 111.745 99.9086 111.539 100.065 111.263C100.214 110.987 100.292 110.668 100.292 110.3Z" fill="black" stroke="black" stroke-miterlimit="10"/>
<path d="M109.894 112.318C109.603 112.658 109.277 112.92 108.922 113.09C108.561 113.267 108.163 113.352 107.731 113.352C107.319 113.352 106.929 113.274 106.575 113.111C106.22 112.949 105.908 112.729 105.646 112.439C105.383 112.148 105.185 111.815 105.043 111.433C104.901 111.051 104.83 110.647 104.83 110.222C104.83 109.769 104.908 109.337 105.064 108.933C105.22 108.529 105.447 108.175 105.745 107.878C106.043 107.58 106.39 107.347 106.795 107.177C107.199 107.007 107.653 106.929 108.142 106.929C108.71 106.929 109.213 107.035 109.66 107.241C110.107 107.446 110.475 107.743 110.78 108.14C111.085 108.537 111.319 109.025 111.483 109.627C111.646 110.222 111.724 110.902 111.724 111.66C111.724 112.502 111.639 113.246 111.468 113.89C111.298 114.535 111.05 115.073 110.717 115.512C110.383 115.951 109.993 116.277 109.539 116.489C109.078 116.702 108.561 116.808 107.979 116.808C107.405 116.808 106.908 116.702 106.49 116.482C106.064 116.263 105.745 115.994 105.525 115.675C105.305 115.349 105.199 115.045 105.199 114.74C105.199 114.556 105.27 114.393 105.405 114.245C105.539 114.103 105.717 114.025 105.929 114.025C106.121 114.025 106.298 114.082 106.447 114.188C106.603 114.294 106.717 114.457 106.795 114.669C106.894 114.931 107.05 115.144 107.277 115.307C107.504 115.47 107.752 115.548 108.036 115.548C108.284 115.548 108.525 115.484 108.745 115.356C108.972 115.229 109.163 115.052 109.319 114.818C109.639 114.337 109.83 113.508 109.894 112.318ZM109.738 110.3C109.738 110.002 109.695 109.726 109.617 109.471C109.539 109.216 109.419 108.997 109.277 108.813C109.135 108.629 108.951 108.487 108.752 108.381C108.546 108.274 108.327 108.225 108.085 108.225C107.667 108.225 107.312 108.402 107.022 108.763C106.731 109.124 106.589 109.592 106.589 110.18C106.589 110.767 106.731 111.228 107.022 111.575C107.312 111.922 107.681 112.099 108.121 112.099C108.39 112.099 108.653 112.028 108.901 111.886C109.149 111.745 109.355 111.539 109.511 111.263C109.66 110.987 109.738 110.668 109.738 110.3Z" fill="black" stroke="black" stroke-miterlimit="10"/>
</g>
<defs>
<clipPath id="clip0">
<rect width="298" height="267" fill="white"/>
</clipPath>
</defs>
</svg>
