<svg width="332" height="296" viewBox="0 0 332 296" fill="none" xmlns="http://www.w3.org/2000/svg">
<g clip-path="url(#clip0)">
<path fill-rule="evenodd" clip-rule="evenodd" d="M294.524 119.391C303.713 153.457 281.724 186.14 259.837 214.082C238.424 241.412 212.089 269.848 177.165 269.228C143.386 268.639 121.902 237.376 100.956 211.232C81.2024 186.596 56.6923 159.478 64.7596 128.993C72.5741 99.4413 108.454 91.3704 136.228 77.9452C162.697 65.1715 188.622 47.962 217.051 55.4127C251.311 64.3629 285.398 85.5528 294.524 119.391Z" fill="#C2C2FF"/>
<path d="M211.346 70.4553H210.564V69.8193C210.564 69.2855 210.13 68.8537 209.592 68.8537C209.055 68.8537 208.62 69.2855 208.62 69.8193V70.4553H207.838C207.301 70.4553 206.866 70.8871 206.866 71.421C206.866 71.9548 207.301 72.3866 207.838 72.3866H208.62V73.0226C208.62 73.5564 209.055 73.9882 209.592 73.9882C210.13 73.9882 210.564 73.5564 210.564 73.0226V72.3866H211.346C211.884 72.3866 212.318 71.9548 212.318 71.421C212.318 70.8871 211.884 70.4553 211.346 70.4553Z" fill="#231F20"/>
<path d="M157.388 251.869H156.606V251.233C156.606 250.699 156.171 250.268 155.634 250.268C155.096 250.268 154.662 250.699 154.662 251.233V251.869H153.88C153.342 251.869 152.908 252.301 152.908 252.835C152.908 253.369 153.342 253.801 153.88 253.801H154.662V254.437C154.662 254.97 155.096 255.402 155.634 255.402C156.171 255.402 156.606 254.97 156.606 254.437V253.801H157.388C157.925 253.801 158.36 253.369 158.36 252.835C158.36 252.301 157.925 251.869 157.388 251.869Z" fill="#231F20"/>
<path d="M105.673 8.70678H104.891V8.07084C104.891 7.53697 104.456 7.10516 103.919 7.10516C103.382 7.10516 102.947 7.53697 102.947 8.07084V8.70678H102.165C101.627 8.70678 101.193 9.13858 101.193 9.67245C101.193 10.2063 101.627 10.6381 102.165 10.6381H102.947V11.2741C102.947 11.8079 103.382 12.2397 103.919 12.2397C104.456 12.2397 104.891 11.8079 104.891 11.2741V10.6381H105.673C106.21 10.6381 106.645 10.2063 106.645 9.67245C106.645 9.13858 106.21 8.70678 105.673 8.70678Z" fill="#231F20"/>
<path d="M331.028 206.647H330.246V206.011C330.246 205.477 329.811 205.046 329.274 205.046C328.737 205.046 328.302 205.477 328.302 206.011V206.647H327.52C326.982 206.647 326.548 207.079 326.548 207.613C326.548 208.147 326.982 208.579 327.52 208.579H328.302V209.215C328.302 209.748 328.737 210.18 329.274 210.18C329.811 210.18 330.246 209.748 330.246 209.215V208.579H331.028C331.565 208.579 332 208.147 332 207.613C332 207.079 331.565 206.647 331.028 206.647Z" fill="#231F20"/>
<path d="M263.068 234.448H66.569C62.9896 234.448 60.0898 231.567 60.0898 228.01V102.676C60.0898 99.1194 62.9896 96.2381 66.569 96.2381H263.068C266.648 96.2381 269.547 99.1194 269.547 102.676V228.01C269.547 231.567 266.648 234.448 263.068 234.448Z" fill="white" stroke="black" stroke-width="3" stroke-linecap="round" stroke-linejoin="round"/>
<path d="M87.9424 159.934H122.203" stroke="black" stroke-width="3" stroke-miterlimit="10" stroke-linecap="round" stroke-linejoin="round"/>
<path d="M133.02 159.934H213.97" stroke="black" stroke-width="3" stroke-miterlimit="10" stroke-linecap="round" stroke-linejoin="round"/>
<path d="M87.9424 170.415H122.203" stroke="black" stroke-width="3" stroke-miterlimit="10" stroke-linecap="round" stroke-linejoin="round"/>
<path d="M133.02 170.415H213.97" stroke="black" stroke-width="3" stroke-miterlimit="10" stroke-linecap="round" stroke-linejoin="round"/>
<path d="M213.97 191.51H162.753" stroke="black" stroke-width="3" stroke-miterlimit="10" stroke-linecap="round" stroke-linejoin="round"/>
<path d="M150.948 191.51H87.9424" stroke="black" stroke-width="3" stroke-miterlimit="10" stroke-linecap="round" stroke-linejoin="round"/>
<path d="M213.97 200.892H162.753" stroke="black" stroke-width="3" stroke-miterlimit="10" stroke-linecap="round" stroke-linejoin="round"/>
<path d="M150.948 200.892H87.9424" stroke="black" stroke-width="3" stroke-miterlimit="10" stroke-linecap="round" stroke-linejoin="round"/>
<path d="M87.9263 149.445H213.969" stroke="black" stroke-width="3" stroke-miterlimit="10" stroke-linecap="round" stroke-linejoin="round"/>
<path d="M87.9263 180.896H213.969" stroke="black" stroke-width="3" stroke-miterlimit="10" stroke-linecap="round" stroke-linejoin="round"/>
<path d="M87.9263 211.381H213.969" stroke="black" stroke-width="3" stroke-miterlimit="10" stroke-linecap="round" stroke-linejoin="round"/>
<path d="M87.9263 138.963H213.969" stroke="black" stroke-width="3" stroke-miterlimit="10" stroke-linecap="round" stroke-linejoin="round"/>
<path d="M285.264 74.3494H232.87V251.351H285.264V74.3494Z" fill="white" stroke="black" stroke-width="3" stroke-miterlimit="10" stroke-linecap="round" stroke-linejoin="round"/>
<path d="M245.172 94.3303H271.523" stroke="black" stroke-width="3" stroke-miterlimit="10" stroke-linecap="round" stroke-linejoin="round"/>
<path d="M245.172 113.228H271.523" stroke="black" stroke-width="3" stroke-miterlimit="10" stroke-linecap="round" stroke-linejoin="round"/>
<path d="M245.172 132.125H263.622" stroke="black" stroke-width="3" stroke-miterlimit="10" stroke-linecap="round" stroke-linejoin="round"/>
<path d="M245.172 151.015H271.523" stroke="black" stroke-width="3" stroke-miterlimit="10" stroke-linecap="round" stroke-linejoin="round"/>
<path d="M245.172 169.41H255.72" stroke="black" stroke-width="3" stroke-miterlimit="10" stroke-linecap="round" stroke-linejoin="round"/>
<path d="M245.172 188.307H271.523" stroke="black" stroke-width="3" stroke-miterlimit="10" stroke-linecap="round" stroke-linejoin="round"/>
<path d="M245.172 204.959H255.617" stroke="black" stroke-width="3" stroke-miterlimit="10" stroke-linecap="round" stroke-linejoin="round"/>
<path d="M264.925 204.959H271.42" stroke="black" stroke-width="3" stroke-miterlimit="10" stroke-linecap="round" stroke-linejoin="round"/>
<path d="M264.151 230.514C264.151 227.822 262.128 227.052 259.939 226.62L258.778 226.401C257.063 226.086 256.929 225.615 256.929 224.995C256.929 224.187 257.711 223.7 259.015 223.7C260.564 223.7 260.959 224.43 261.125 224.972L261.14 225.019C261.338 225.498 261.788 225.78 262.349 225.78C262.492 225.78 262.626 225.757 262.729 225.741C263.337 225.631 263.756 225.176 263.756 224.642C263.756 224.508 263.732 224.375 263.677 224.249C263.369 223.315 262.492 221.847 260.082 221.509V219.908C260.082 218.573 257.854 218.573 257.854 219.908V221.517C255.262 221.894 254.306 223.551 254.306 224.987C254.306 227.61 256.257 228.34 258.162 228.709L259.418 228.96C261.204 229.298 261.52 229.737 261.52 230.53C261.52 231.496 260.651 232.077 259.181 232.077C257.285 232.077 256.897 231.276 256.637 230.373C256.487 229.879 256.005 229.557 255.412 229.557C255.286 229.557 255.183 229.572 255.056 229.596L255.017 229.604C254.401 229.737 253.99 230.193 253.99 230.726C253.99 230.829 254.006 230.915 254.021 230.986L254.037 231.064C254.314 231.936 254.922 233.843 257.956 234.267V235.947C257.956 236.615 258.517 236.968 259.07 236.968C259.623 236.968 260.184 236.615 260.184 235.947V234.299C262.594 233.993 264.151 232.556 264.151 230.514Z" fill="black"/>
<path d="M246.681 261.448H172.534C171.618 261.448 170.875 260.71 170.875 259.799V178.619C170.875 177.708 171.618 176.97 172.534 176.97H246.681C247.597 176.97 248.34 177.708 248.34 178.619V259.799C248.332 260.71 247.597 261.448 246.681 261.448Z" fill="white" stroke="black" stroke-width="3" stroke-miterlimit="10" stroke-linecap="round" stroke-linejoin="round"/>
<path d="M238.764 186.761H180.452V200.327H238.764V186.761Z" fill="#FFD29C" stroke="black" stroke-width="3" stroke-miterlimit="10" stroke-linecap="round" stroke-linejoin="round"/>
<path d="M194.105 210.753H180.452V224.32H194.105V210.753Z" fill="white" stroke="black" stroke-width="3" stroke-miterlimit="10" stroke-linecap="round" stroke-linejoin="round"/>
<path d="M216.434 210.753H202.781V224.32H216.434V210.753Z" fill="white" stroke="black" stroke-width="3" stroke-miterlimit="10" stroke-linecap="round" stroke-linejoin="round"/>
<path d="M238.764 210.753H225.11V224.32H238.764V210.753Z" fill="white" stroke="black" stroke-width="3" stroke-miterlimit="10" stroke-linecap="round" stroke-linejoin="round"/>
<path d="M194.105 232.179H180.452V245.746H194.105V232.179Z" fill="white" stroke="black" stroke-width="3" stroke-miterlimit="10" stroke-linecap="round" stroke-linejoin="round"/>
<path d="M216.434 232.179H202.781V245.746H216.434V232.179Z" fill="white" stroke="black" stroke-width="3" stroke-miterlimit="10" stroke-linecap="round" stroke-linejoin="round"/>
<path d="M238.764 232.179H225.11V245.746H238.764V232.179Z" fill="white" stroke="black" stroke-width="3" stroke-miterlimit="10" stroke-linecap="round" stroke-linejoin="round"/>
<path d="M89.2538 19.0702H10.6667C5.4281 19.0702 1.18506 23.2862 1.18506 28.4914V57.4618C1.18506 62.667 5.4281 66.883 10.6667 66.883H73.5617L87.3496 80.5831V66.8752H89.2538C94.4924 66.8752 98.7355 62.6592 98.7355 57.4539V28.4836C98.7355 23.2862 94.4924 19.0702 89.2538 19.0702Z" fill="#C2C2FF" stroke="black" stroke-width="3" stroke-miterlimit="10" stroke-linecap="round" stroke-linejoin="round"/>
<path d="M12.4526 35.9185H87.4604" stroke="black" stroke-width="3" stroke-miterlimit="10" stroke-linecap="round" stroke-linejoin="round"/>
<path d="M12.4526 47.593H87.4604" stroke="black" stroke-width="3" stroke-miterlimit="10" stroke-linecap="round" stroke-linejoin="round"/>
<path d="M276.58 139.953H315.944C319.358 139.953 322.123 142.701 322.123 146.092V164.966C322.123 168.358 319.358 171.106 315.944 171.106H286.804L277.82 180.032V171.106H276.58C273.166 171.106 270.401 168.358 270.401 164.966V146.092C270.409 142.701 273.174 139.953 276.58 139.953Z" fill="#FFD29C" stroke="black" stroke-width="3" stroke-miterlimit="10" stroke-linecap="round" stroke-linejoin="round"/>
<path d="M314.775 150.936H277.749" stroke="black" stroke-width="3" stroke-miterlimit="10" stroke-linecap="round" stroke-linejoin="round"/>
<path d="M314.775 158.536H277.749" stroke="black" stroke-width="3" stroke-miterlimit="10" stroke-linecap="round" stroke-linejoin="round"/>
<path d="M237.752 40.4721H234.197V36.9392C234.197 36.5073 233.841 36.1541 233.407 36.1541H232.616C232.182 36.1541 231.826 36.5073 231.826 36.9392V40.4721H228.271C227.836 40.4721 227.48 40.8254 227.48 41.2572V42.0423C227.48 42.4741 227.836 42.8274 228.271 42.8274H231.826V46.3604C231.826 46.7922 232.182 47.1455 232.616 47.1455H233.407C233.841 47.1455 234.197 46.7922 234.197 46.3604V42.8274H237.752C238.187 42.8274 238.542 42.4741 238.542 42.0423V41.2572C238.542 40.8176 238.187 40.4721 237.752 40.4721Z" fill="#8E8EEF"/>
<path d="M11.3148 171.608H7.75914V168.075C7.75914 167.643 7.40358 167.29 6.969 167.29H6.17886C5.74429 167.29 5.38873 167.643 5.38873 168.075V171.608H1.83311C1.39853 171.608 1.04297 171.961 1.04297 172.393V173.178C1.04297 173.61 1.39853 173.963 1.83311 173.963H5.38873V177.496C5.38873 177.928 5.74429 178.281 6.17886 178.281H6.969C7.40358 178.281 7.75914 177.928 7.75914 177.496V173.963H11.3148C11.7493 173.963 12.1049 173.61 12.1049 173.178V172.393C12.1049 171.961 11.7493 171.608 11.3148 171.608Z" fill="#8E8EEF"/>
<path d="M321.372 116.148H317.817V112.615C317.817 112.184 317.461 111.83 317.027 111.83H316.236C315.802 111.83 315.446 112.184 315.446 112.615V116.148H311.891C311.456 116.148 311.101 116.502 311.101 116.933V117.719C311.101 118.15 311.456 118.504 311.891 118.504H315.446V122.037C315.446 122.468 315.802 122.822 316.236 122.822H317.027C317.461 122.822 317.817 122.468 317.817 122.037V118.504H321.372C321.807 118.504 322.163 118.15 322.163 117.719V116.933C322.163 116.502 321.807 116.148 321.372 116.148Z" fill="#02CEAA"/>
<path d="M129.543 64.6533H127.006V62.1331C127.006 61.8269 126.754 61.5757 126.445 61.5757H125.884C125.568 61.5757 125.323 61.8269 125.323 62.1331V64.6533H122.787C122.479 64.6533 122.226 64.9045 122.226 65.2107V65.7681C122.226 66.0743 122.479 66.3256 122.787 66.3256H125.323V68.8458C125.323 69.1519 125.576 69.4032 125.884 69.4032H126.445C126.761 69.4032 127.006 69.1519 127.006 68.8458V66.3413H129.543C129.851 66.3413 130.104 66.09 130.104 65.7838V65.2264C130.104 64.9045 129.851 64.6533 129.543 64.6533Z" fill="#FFAB48"/>
<path d="M311.496 187.883C313.023 187.883 314.261 186.653 314.261 185.135C314.261 183.618 313.023 182.388 311.496 182.388C309.969 182.388 308.73 183.618 308.73 185.135C308.73 186.653 309.969 187.883 311.496 187.883Z" fill="#FFAB48"/>
<path d="M29.7879 85.9454C31.3153 85.9454 32.5534 84.7151 32.5534 83.1975C32.5534 81.6799 31.3153 80.4496 29.7879 80.4496C28.2606 80.4496 27.0225 81.6799 27.0225 83.1975C27.0225 84.7151 28.2606 85.9454 29.7879 85.9454Z" fill="#02CEAA"/>
<path d="M144.959 285.323C146.486 285.323 147.724 284.092 147.724 282.575C147.724 281.057 146.486 279.827 144.959 279.827C143.432 279.827 142.193 281.057 142.193 282.575C142.193 284.092 143.432 285.323 144.959 285.323Z" fill="#8E8EEF"/>
<path d="M2.16504 131.002L23.0721 161.865L74.4152 127.556L53.5082 96.6934L2.16504 131.002Z" fill="#C6F9EC" stroke="black" stroke-width="3" stroke-miterlimit="10" stroke-linecap="round" stroke-linejoin="round"/>
<path d="M44.8799 124.274C46.1678 126.174 46.634 128.459 46.1915 130.696C45.7411 132.95 44.4532 134.881 42.5411 136.161C38.5983 138.799 33.2253 137.754 30.5705 133.829C29.2193 131.835 28.8243 129.479 29.2904 127.289C29.7329 125.177 30.9734 123.238 32.9172 121.942C34.8293 120.663 37.1286 120.199 39.3884 120.639C41.6482 121.087 43.5998 122.374 44.8799 124.274Z" stroke="black" stroke-width="3" stroke-miterlimit="10"/>
<path d="M52.2126 101.184L11.1728 128.608C11.1412 128.624 11.1175 128.647 11.0859 128.671L6.82708 131.513C6.55844 131.693 6.48732 132.062 6.66906 132.337L23.5306 157.225C23.6175 157.358 23.7597 157.445 23.9099 157.476C24.06 157.508 24.2259 157.476 24.3523 157.39L69.7299 127.069C69.8563 126.983 69.9512 126.849 69.9828 126.7C69.9828 126.692 69.9828 126.692 69.9828 126.692C70.0144 126.543 69.9828 126.378 69.8958 126.253L53.0343 101.365C52.8526 101.074 52.4812 100.996 52.2126 101.184ZM7.98858 132.157L11.5837 129.754C12.3106 129.958 12.9427 130.398 13.3694 131.026C13.8435 131.725 14.0173 132.565 13.8514 133.389C13.8514 133.405 13.8435 133.413 13.8435 133.428C13.5274 134.936 12.121 136.019 10.5723 135.933C10.5644 135.933 10.5644 135.933 10.5565 135.933L7.98858 132.157ZM24.1864 156.063L21.5948 152.232C22.0609 150.677 23.6254 149.727 25.2373 150.041C26.0748 150.198 26.7939 150.677 27.26 151.376C27.7183 152.051 27.8921 152.868 27.7499 153.676L24.1864 156.063ZM68.5763 126.402L64.9733 128.804C64.9259 128.781 64.8785 128.749 64.8311 128.741C64.0014 128.584 63.2745 128.105 62.8083 127.407C62.3342 126.708 62.1604 125.868 62.3263 125.044C62.4923 124.219 62.9663 123.497 63.6696 123.034C64.3491 122.578 65.1629 122.406 65.961 122.547L68.5763 126.402ZM65.1392 121.33C64.3807 121.377 63.6459 121.628 63.0058 122.052C62.0577 122.688 61.4019 123.646 61.1727 124.761C61.1727 124.777 61.1648 124.8 61.1648 124.816C60.9436 125.954 61.1806 127.108 61.8285 128.066C62.3105 128.773 62.9663 129.307 63.7407 129.636L28.9825 152.86C28.8561 150.944 27.4497 149.272 25.4664 148.887C23.5464 148.518 21.6817 149.445 20.7967 151.07L11.323 137.079C13.1087 136.836 14.6178 135.485 14.9971 133.672C14.9971 133.656 15.005 133.633 15.0129 133.617C15.2341 132.478 14.9971 131.324 14.3492 130.359C13.9383 129.754 13.401 129.275 12.7689 128.945L47.8036 105.534C47.93 107.441 49.3365 109.114 51.3197 109.498C53.1133 109.844 54.8911 109.043 55.8314 107.575L65.1392 121.33ZM55.0887 106.491C54.5119 107.85 53.0422 108.651 51.5568 108.36C49.8659 108.03 48.7518 106.413 49.0441 104.741L52.3864 102.503L55.0887 106.491Z" fill="black" stroke="black" stroke-miterlimit="10"/>
<path d="M67.7304 207.888L42.0352 252.584L116.363 294.822L142.059 250.126L67.7304 207.888Z" fill="#C6F9EC" stroke="black" stroke-width="3" stroke-miterlimit="10" stroke-linecap="round" stroke-linejoin="round"/>
<path d="M102.339 256.407C100.759 259.155 98.1906 261.134 95.1248 261.966C92.0354 262.79 88.8353 262.39 86.0699 260.819C80.3572 257.577 78.3739 250.315 81.6293 244.638C83.2886 241.749 85.9909 239.818 89.0013 239.049C91.909 238.303 95.0932 238.632 97.8982 240.234C100.664 241.804 102.655 244.356 103.492 247.41C104.33 250.464 103.927 253.667 102.339 256.407Z" stroke="black" stroke-width="3" stroke-miterlimit="10"/>
<path d="M135.667 251.28L76.264 217.529C76.2245 217.497 76.185 217.482 76.1375 217.458L69.9824 213.957C69.5873 213.737 69.0895 213.87 68.8604 214.263L48.1351 250.307C48.0244 250.495 48.0007 250.723 48.0561 250.927C48.1114 251.131 48.2536 251.312 48.4432 251.422L114.127 288.746C114.317 288.848 114.53 288.879 114.744 288.832C114.752 288.832 114.752 288.832 114.759 288.832C114.965 288.777 115.147 288.636 115.257 288.455L135.983 252.411C136.196 252.003 136.062 251.5 135.667 251.28ZM69.8718 215.778L75.0709 218.738C75.2684 219.758 75.1025 220.803 74.5731 221.713C73.9884 222.726 73.0481 223.448 71.9182 223.763C71.9024 223.77 71.8787 223.77 71.8629 223.778C69.7848 224.312 67.5804 223.244 66.727 221.282C66.727 221.274 66.7191 221.274 66.7191 221.266L69.8718 215.778ZM49.9603 250.409L53.1524 244.866C55.3727 244.481 57.5219 245.832 58.1224 248.014C58.4385 249.145 58.2804 250.315 57.6957 251.328C57.1347 252.317 56.2182 253.023 55.1278 253.345L49.9603 250.409ZM114.222 286.924L109.015 283.964C109.015 283.894 109.023 283.815 108.999 283.745C108.691 282.622 108.841 281.436 109.426 280.431C110.011 279.419 110.951 278.696 112.081 278.382C113.211 278.076 114.396 278.225 115.415 278.806C116.403 279.364 117.106 280.259 117.43 281.334L114.222 286.924ZM118.442 279.576C117.912 278.673 117.161 277.919 116.221 277.385C114.846 276.6 113.25 276.388 111.717 276.788C111.694 276.796 111.662 276.804 111.638 276.812C110.082 277.236 108.786 278.233 107.988 279.623C107.403 280.643 107.135 281.79 107.206 282.944L56.9056 254.358C59.2207 253.023 60.4454 250.268 59.7106 247.59C58.9995 245 56.7002 243.272 54.1243 243.17L65.7709 222.922C67.1774 224.979 69.7848 226 72.2738 225.364C72.2975 225.356 72.3291 225.348 72.3528 225.341C73.9094 224.917 75.2052 223.92 76.0111 222.53C76.5168 221.658 76.7776 220.693 76.8092 219.719L127.528 248.533C125.221 249.867 123.996 252.615 124.731 255.292C125.395 257.71 127.489 259.414 129.899 259.673L118.442 279.576ZM130.807 258.079C128.753 258.205 126.856 256.878 126.311 254.868C125.687 252.584 127.015 250.221 129.29 249.545L134.134 252.301L130.807 258.079Z" fill="black" stroke="black" stroke-miterlimit="10"/>
<path d="M270.409 58.027L254.59 84.4065L298.459 110.401L314.277 84.0218L270.409 58.027Z" fill="#C6F9EC" stroke="black" stroke-width="2.4764" stroke-miterlimit="10" stroke-linecap="round" stroke-linejoin="round"/>
<path d="M290.526 87.335C289.554 88.9601 288.005 90.1064 286.164 90.5696C284.307 91.025 282.403 90.758 280.775 89.7845C277.409 87.7903 276.295 83.4408 278.302 80.0884C279.321 78.3848 280.957 77.2621 282.759 76.8303C284.505 76.4142 286.401 76.6497 288.052 77.6311C289.688 78.5967 290.842 80.1434 291.308 81.9727C291.774 83.8177 291.497 85.7176 290.526 87.335Z" stroke="black" stroke-width="2.4764" stroke-miterlimit="10"/>
<path d="M310.453 84.6421L275.394 63.8682C275.371 63.8525 275.347 63.8368 275.323 63.829L271.689 61.6699C271.459 61.5365 271.159 61.6071 271.017 61.8426L258.264 83.119C258.193 83.2289 258.177 83.3623 258.209 83.488C258.24 83.6136 258.32 83.7235 258.43 83.7863L297.202 106.758C297.313 106.821 297.439 106.845 297.566 106.813C297.566 106.813 297.566 106.813 297.574 106.813C297.7 106.782 297.811 106.704 297.874 106.594L310.627 85.3173C310.761 85.0739 310.682 84.7755 310.453 84.6421ZM271.602 62.7534L274.675 64.5748C274.778 65.1872 274.667 65.8074 274.343 66.3491C273.988 66.9458 273.411 67.3698 272.74 67.5425C272.732 67.5425 272.716 67.5503 272.708 67.5503C271.459 67.8487 270.156 67.1892 269.674 66.0037L269.666 65.9958L271.602 62.7534ZM259.347 83.1896L261.306 79.9157C262.634 79.7116 263.906 80.536 264.238 81.8471C264.411 82.5223 264.309 83.221 263.945 83.8177C263.598 84.3987 263.045 84.8148 262.397 84.9954L259.347 83.1896ZM297.273 105.667L294.2 103.846C294.2 103.806 294.208 103.759 294.192 103.712C294.018 103.037 294.121 102.338 294.484 101.742C294.84 101.145 295.416 100.721 296.088 100.548C296.768 100.383 297.471 100.478 298.071 100.839C298.656 101.184 299.067 101.726 299.249 102.37L297.273 105.667ZM299.873 101.326C299.565 100.784 299.122 100.321 298.577 99.9987C297.763 99.5119 296.815 99.3706 295.898 99.5905C295.883 99.5905 295.867 99.5983 295.851 99.5983C294.919 99.8338 294.136 100.415 293.639 101.231C293.275 101.836 293.101 102.511 293.133 103.202L263.448 85.6077C264.838 84.8383 265.605 83.2053 265.194 81.6037C264.799 80.0492 263.447 78.9972 261.907 78.9108L269.073 66.9615C269.887 68.202 271.436 68.8379 272.929 68.4846C272.945 68.4846 272.961 68.4768 272.977 68.4768C273.909 68.2412 274.691 67.6603 275.189 66.8438C275.497 66.3256 275.671 65.7603 275.695 65.1793L305.625 82.9148C304.234 83.6842 303.476 85.3173 303.887 86.9189C304.258 88.3713 305.483 89.4077 306.921 89.5882L299.873 101.326ZM307.482 88.6383C306.257 88.6932 305.143 87.8846 304.835 86.6755C304.487 85.3016 305.309 83.9119 306.668 83.5351L309.528 85.2309L307.482 88.6383Z" fill="black" stroke="black" stroke-width="0.8255" stroke-miterlimit="10"/>
<path d="M152.125 66.938L170.33 80.6145L193.086 50.7256L174.881 37.0491L152.125 66.938Z" fill="#C6F9EC" stroke="black" stroke-width="1.8286" stroke-miterlimit="10" stroke-linecap="round" stroke-linejoin="round"/>
<path d="M175.411 54.6433C176.533 55.4833 177.252 56.7081 177.449 58.0899C177.639 59.4795 177.283 60.8456 176.438 61.9526C174.692 64.2451 171.389 64.7005 169.074 62.9654C167.896 62.0861 167.201 60.7985 167.027 59.4481C166.861 58.1449 167.185 56.7788 168.047 55.6482C168.892 54.5334 170.125 53.8189 171.515 53.6226C172.914 53.4421 174.297 53.8032 175.411 54.6433Z" fill="#C6F9EC" stroke="black" stroke-width="1.8286" stroke-miterlimit="10"/>
<path d="M175.031 39.8911L156.842 63.774C156.826 63.7897 156.818 63.8054 156.802 63.8211L154.914 66.2942C154.795 66.4512 154.827 66.6789 154.985 66.7967L169.666 77.8274C169.745 77.8823 169.84 77.9059 169.935 77.898C170.029 77.8902 170.116 77.8352 170.172 77.7567L190.281 51.3458C190.336 51.2673 190.36 51.1809 190.352 51.0867C190.352 51.0867 190.352 51.0867 190.352 51.0789C190.344 50.9847 190.288 50.8983 190.209 50.8433L175.529 39.8126C175.379 39.7027 175.149 39.7341 175.031 39.8911ZM155.72 66.4512L157.316 64.3628C157.774 64.3314 158.225 64.4649 158.596 64.7475C159.007 65.0537 159.276 65.5091 159.347 66.0116C159.347 66.0194 159.347 66.0273 159.347 66.0351C159.465 66.9694 158.873 67.8644 157.956 68.1235H157.948L155.72 66.4512ZM169.824 77.0423L167.564 75.3464C167.525 74.3572 168.236 73.5014 169.231 73.368C169.745 73.2973 170.251 73.4308 170.661 73.737C171.064 74.0353 171.325 74.475 171.404 74.9617L169.824 77.0423ZM189.498 51.2045L187.902 53.3007C187.871 53.2929 187.839 53.2929 187.807 53.2929C187.294 53.3635 186.788 53.2301 186.377 52.9239C185.966 52.6177 185.698 52.1623 185.627 51.6599C185.556 51.1495 185.69 50.6471 185.998 50.2388C186.298 49.8463 186.733 49.5872 187.223 49.5087L189.498 51.2045ZM186.504 48.9591C186.077 49.1397 185.706 49.4223 185.413 49.7992C184.995 50.3487 184.813 51.0318 184.892 51.7227C184.892 51.7305 184.892 51.7462 184.9 51.7541C185.002 52.4528 185.366 53.073 185.927 53.497C186.346 53.811 186.828 53.9916 187.341 54.023L171.941 74.2473C171.483 73.1717 170.345 72.4808 169.121 72.6457C167.943 72.8106 167.051 73.7134 166.861 74.8204L158.612 68.626C159.592 68.1313 160.192 67.0557 160.05 65.9409C160.05 65.933 160.05 65.9173 160.042 65.9095C159.939 65.2107 159.576 64.5905 159.015 64.1666C158.659 63.8996 158.248 63.7269 157.822 63.6641L173.348 43.2671C173.806 44.3427 174.944 45.0257 176.161 44.8608C177.259 44.7038 178.128 43.8952 178.381 42.8667L186.504 48.9591ZM177.749 42.3799C177.686 43.2749 176.998 44.0286 176.082 44.1543C175.039 44.2956 174.075 43.589 173.909 42.5605L175.394 40.6134L177.749 42.3799Z" fill="black" stroke="black" stroke-width="0.6095" stroke-miterlimit="10"/>
<path d="M142.059 36.735C147.295 36.735 151.54 32.517 151.54 27.3138C151.54 22.1106 147.295 17.8925 142.059 17.8925C136.822 17.8925 132.577 22.1106 132.577 27.3138C132.577 32.517 136.822 36.735 142.059 36.735Z" fill="#FFD29C" stroke="black" stroke-width="2" stroke-miterlimit="10" stroke-linecap="round" stroke-linejoin="round"/>
<path d="M144.95 28.7505C144.95 27.2509 143.821 26.8191 142.604 26.5757L141.956 26.4501C141 26.2774 140.929 26.0105 140.929 25.665C140.929 25.2097 141.363 24.9427 142.09 24.9427C142.951 24.9427 143.173 25.351 143.267 25.6493L143.275 25.6729C143.386 25.9398 143.639 26.0968 143.947 26.0968C144.026 26.0968 144.105 26.089 144.152 26.0733C144.492 26.0105 144.721 25.7592 144.721 25.4609C144.721 25.3902 144.706 25.3117 144.682 25.2411C144.508 24.7229 144.026 23.8985 142.675 23.718V22.8229C142.675 22.0771 141.434 22.0771 141.434 22.8229V23.718C139.988 23.9299 139.459 24.8485 139.459 25.6572C139.459 27.1175 140.541 27.5257 141.608 27.7298L142.311 27.8712C143.307 28.0596 143.481 28.303 143.481 28.7426C143.481 29.2843 142.991 29.6062 142.177 29.6062C141.118 29.6062 140.905 29.1587 140.755 28.6563C140.668 28.3815 140.399 28.2009 140.075 28.2009C140.004 28.2009 139.949 28.2087 139.878 28.2245H139.854C139.514 28.303 139.285 28.5542 139.285 28.8525C139.285 28.9075 139.293 28.9546 139.301 28.9939L139.309 29.041C139.459 29.5277 139.799 30.5876 141.49 30.8231V31.7574C141.49 32.1264 141.806 32.3227 142.114 32.3227C142.422 32.3227 142.738 32.1264 142.738 31.7574V30.8545C144.081 30.6897 144.958 29.8889 144.95 28.7505Z" fill="black"/>
<path d="M140.25 5.10315V11.6352" stroke="black" stroke-width="2" stroke-miterlimit="10" stroke-linecap="round" stroke-linejoin="round"/>
<path d="M144.864 13.8492V0.785095" stroke="black" stroke-width="2" stroke-miterlimit="10" stroke-linecap="round" stroke-linejoin="round"/>
<path d="M39.2697 209.356C44.5063 209.356 48.7514 205.138 48.7514 199.935C48.7514 194.731 44.5063 190.513 39.2697 190.513C34.0332 190.513 29.7881 194.731 29.7881 199.935C29.7881 205.138 34.0332 209.356 39.2697 209.356Z" fill="#FFD29C" stroke="black" stroke-width="2" stroke-miterlimit="10" stroke-linecap="round" stroke-linejoin="round"/>
<path d="M42.1614 201.379C42.1614 199.88 41.0315 199.448 39.8147 199.205L39.1668 199.079C38.2107 198.906 38.1396 198.639 38.1396 198.294C38.1396 197.838 38.5742 197.571 39.3011 197.571C40.1623 197.571 40.3836 197.98 40.4784 198.278L40.4863 198.302C40.5969 198.569 40.8498 198.726 41.1579 198.726C41.2369 198.726 41.3159 198.718 41.3633 198.702C41.7031 198.639 41.9322 198.388 41.9322 198.09C41.9322 198.019 41.9164 197.94 41.8927 197.87C41.7189 197.352 41.2369 196.527 39.8858 196.347V195.452C39.8858 194.706 38.6453 194.706 38.6453 195.452V196.347C37.1993 196.559 36.6699 197.477 36.6699 198.286C36.6699 199.746 37.7524 200.154 38.8191 200.359L39.5223 200.5C40.5179 200.688 40.6917 200.932 40.6917 201.371C40.6917 201.913 40.2018 202.235 39.388 202.235C38.3292 202.235 38.1159 201.787 37.9657 201.285C37.8788 201.01 37.6102 200.83 37.2862 200.83C37.2151 200.83 37.1598 200.838 37.0887 200.853H37.065C36.7252 200.932 36.4961 201.183 36.4961 201.481C36.4961 201.536 36.504 201.583 36.5119 201.623L36.5198 201.67C36.6699 202.156 37.0097 203.216 38.7006 203.452V204.386C38.7006 204.755 39.0166 204.951 39.3248 204.951C39.6329 204.951 39.949 204.755 39.949 204.386V203.468C41.2922 203.318 42.1693 202.51 42.1614 201.379Z" fill="black"/>
<path d="M37.4604 180.613V184.986" stroke="black" stroke-width="2" stroke-miterlimit="10" stroke-linecap="round" stroke-linejoin="round"/>
<path d="M42.0747 186.47V177.724" stroke="black" stroke-width="2" stroke-miterlimit="10" stroke-linecap="round" stroke-linejoin="round"/>
<path d="M310.319 238.782C315.555 238.782 319.8 234.564 319.8 229.36C319.8 224.157 315.555 219.939 310.319 219.939C305.082 219.939 300.837 224.157 300.837 229.36C300.837 234.564 305.082 238.782 310.319 238.782Z" fill="#FFD29C" stroke="black" stroke-width="2" stroke-miterlimit="10" stroke-linecap="round" stroke-linejoin="round"/>
<path d="M313.21 230.797C313.21 229.298 312.08 228.866 310.863 228.622L310.216 228.497C309.259 228.324 309.188 228.057 309.188 227.712C309.188 227.256 309.623 226.989 310.35 226.989C311.211 226.989 311.432 227.398 311.527 227.696L311.535 227.719C311.646 227.986 311.899 228.143 312.207 228.143C312.286 228.143 312.365 228.136 312.412 228.12C312.752 228.057 312.981 227.806 312.981 227.508C312.981 227.437 312.965 227.358 312.942 227.288C312.768 226.77 312.286 225.945 310.935 225.765V224.87C310.935 224.124 309.694 224.124 309.694 224.87V225.765C308.248 225.977 307.719 226.895 307.719 227.704C307.719 229.164 308.801 229.572 309.868 229.776L310.571 229.918C311.567 230.106 311.741 230.35 311.741 230.789C311.741 231.331 311.251 231.653 310.437 231.653C309.378 231.653 309.165 231.205 309.015 230.703C308.928 230.428 308.659 230.248 308.335 230.248C308.264 230.248 308.209 230.255 308.138 230.271H308.114C307.774 230.35 307.545 230.601 307.545 230.899C307.545 230.954 307.553 231.001 307.561 231.04L307.569 231.088C307.719 231.574 308.058 232.634 309.749 232.87V233.804C309.749 234.173 310.065 234.369 310.374 234.369C310.682 234.369 310.998 234.173 310.998 233.804V232.885C312.341 232.736 313.21 231.935 313.21 230.797Z" fill="black"/>
<path d="M308.509 210.039V214.412" stroke="black" stroke-width="2" stroke-miterlimit="10" stroke-linecap="round" stroke-linejoin="round"/>
<path d="M313.124 215.896V207.15" stroke="black" stroke-width="2" stroke-miterlimit="10" stroke-linecap="round" stroke-linejoin="round"/>
<path d="M90.5498 128.31V121.66C89.3013 122.61 88.4638 123.081 88.0371 123.081C87.8317 123.081 87.65 123.002 87.4919 122.837C87.3339 122.673 87.2549 122.484 87.2549 122.272C87.2549 122.021 87.3339 121.84 87.4919 121.723C87.65 121.605 87.9265 121.456 88.3216 121.267C88.9142 120.992 89.3883 120.694 89.7438 120.388C90.0994 120.082 90.4154 119.736 90.692 119.359C90.9685 118.983 91.1424 118.747 91.2293 118.661C91.3162 118.574 91.4663 118.527 91.7034 118.527C91.9641 118.527 92.1695 118.629 92.3276 118.826C92.4856 119.022 92.5646 119.297 92.5646 119.65V128.011C92.5646 128.993 92.2328 129.479 91.5611 129.479C91.2609 129.479 91.0238 129.377 90.8421 129.181C90.6446 129 90.5498 128.702 90.5498 128.31Z" fill="black" stroke="black" stroke-miterlimit="10"/>
<path d="M103.476 124.062C103.476 124.863 103.429 125.546 103.326 126.119C103.231 126.692 103.05 127.218 102.781 127.682C102.449 128.255 102.015 128.702 101.485 129.008C100.956 129.322 100.371 129.479 99.7231 129.479C98.9804 129.479 98.3088 129.267 97.7162 128.851C97.1236 128.435 96.6811 127.854 96.3809 127.116C96.2307 126.716 96.1201 126.268 96.049 125.774C95.9779 125.287 95.9463 124.753 95.9463 124.188C95.9463 123.45 95.9858 122.79 96.0648 122.201C96.1438 121.613 96.2623 121.102 96.4283 120.678C96.7206 119.98 97.1394 119.446 97.6925 119.077C98.2456 118.708 98.9014 118.527 99.6678 118.527C100.174 118.527 100.632 118.606 101.043 118.771C101.454 118.935 101.817 119.171 102.125 119.485C102.433 119.799 102.702 120.184 102.915 120.647C103.295 121.456 103.476 122.594 103.476 124.062ZM101.469 123.913C101.469 123.026 101.414 122.296 101.303 121.723C101.193 121.157 101.011 120.726 100.758 120.435C100.505 120.145 100.15 120.003 99.6994 120.003C99.0515 120.003 98.6012 120.325 98.3483 120.977C98.0955 121.621 97.969 122.625 97.969 123.968C97.969 124.887 98.0243 125.632 98.135 126.221C98.2456 126.81 98.4273 127.25 98.6802 127.548C98.933 127.846 99.2807 127.996 99.7152 127.996C100.166 127.996 100.521 127.839 100.774 127.532C101.027 127.218 101.209 126.779 101.311 126.198C101.414 125.617 101.469 124.855 101.469 123.913Z" fill="black" stroke="black" stroke-miterlimit="10"/>
<path d="M111.907 124.518C111.583 124.894 111.22 125.185 110.825 125.373C110.422 125.57 109.979 125.664 109.497 125.664C109.039 125.664 108.604 125.577 108.209 125.397C107.814 125.216 107.467 124.973 107.174 124.651C106.882 124.329 106.661 123.96 106.503 123.536C106.345 123.112 106.266 122.665 106.266 122.194C106.266 121.691 106.353 121.212 106.526 120.765C106.7 120.317 106.953 119.925 107.285 119.595C107.617 119.265 108.004 119.006 108.454 118.818C108.905 118.629 109.41 118.543 109.956 118.543C110.588 118.543 111.149 118.661 111.646 118.888C112.144 119.116 112.555 119.446 112.895 119.885C113.235 120.325 113.495 120.867 113.677 121.534C113.859 122.194 113.946 122.947 113.946 123.787C113.946 124.722 113.851 125.546 113.661 126.261C113.472 126.975 113.195 127.572 112.824 128.058C112.452 128.545 112.018 128.906 111.512 129.142C110.999 129.377 110.422 129.495 109.774 129.495C109.134 129.495 108.581 129.377 108.115 129.134C107.64 128.891 107.285 128.592 107.04 128.239C106.795 127.878 106.676 127.54 106.676 127.203C106.676 126.999 106.756 126.818 106.906 126.653C107.056 126.496 107.253 126.41 107.49 126.41C107.704 126.41 107.901 126.473 108.067 126.59C108.241 126.708 108.367 126.889 108.454 127.124C108.565 127.415 108.739 127.65 108.992 127.831C109.244 128.011 109.521 128.098 109.837 128.098C110.114 128.098 110.382 128.027 110.627 127.886C110.88 127.744 111.093 127.548 111.267 127.289C111.623 126.755 111.836 125.837 111.907 124.518ZM111.733 122.28C111.733 121.95 111.686 121.644 111.599 121.361C111.512 121.079 111.378 120.835 111.22 120.631C111.062 120.427 110.856 120.27 110.635 120.152C110.406 120.035 110.161 119.98 109.892 119.98C109.426 119.98 109.031 120.176 108.707 120.576C108.383 120.977 108.225 121.495 108.225 122.147C108.225 122.798 108.383 123.309 108.707 123.693C109.031 124.078 109.442 124.274 109.932 124.274C110.232 124.274 110.524 124.196 110.801 124.039C111.078 123.882 111.307 123.654 111.481 123.348C111.646 123.042 111.733 122.688 111.733 122.28Z" fill="black" stroke="black" stroke-miterlimit="10"/>
<path d="M122.432 124.518C122.108 124.894 121.744 125.185 121.349 125.373C120.946 125.57 120.504 125.664 120.022 125.664C119.563 125.664 119.129 125.577 118.734 125.397C118.339 125.216 117.991 124.973 117.699 124.651C117.406 124.329 117.185 123.96 117.027 123.536C116.869 123.112 116.79 122.665 116.79 122.194C116.79 121.691 116.877 121.212 117.051 120.765C117.225 120.317 117.477 119.925 117.809 119.595C118.141 119.265 118.528 119.006 118.979 118.818C119.429 118.629 119.935 118.543 120.48 118.543C121.112 118.543 121.673 118.661 122.171 118.888C122.669 119.116 123.08 119.446 123.419 119.885C123.759 120.325 124.02 120.867 124.202 121.534C124.383 122.194 124.47 122.947 124.47 123.787C124.47 124.722 124.375 125.546 124.186 126.261C123.996 126.975 123.72 127.572 123.348 128.058C122.977 128.545 122.542 128.906 122.037 129.142C121.523 129.377 120.946 129.495 120.298 129.495C119.658 129.495 119.105 129.377 118.639 129.134C118.165 128.891 117.809 128.592 117.564 128.239C117.319 127.878 117.201 127.54 117.201 127.203C117.201 126.999 117.28 126.818 117.43 126.653C117.58 126.496 117.778 126.41 118.015 126.41C118.228 126.41 118.426 126.473 118.592 126.59C118.765 126.708 118.892 126.889 118.979 127.124C119.089 127.415 119.263 127.65 119.516 127.831C119.769 128.011 120.045 128.098 120.361 128.098C120.638 128.098 120.907 128.027 121.152 127.886C121.404 127.744 121.618 127.548 121.792 127.289C122.147 126.755 122.361 125.837 122.432 124.518ZM122.258 122.28C122.258 121.95 122.21 121.644 122.123 121.361C122.037 121.079 121.902 120.835 121.744 120.631C121.586 120.427 121.381 120.27 121.159 120.152C120.93 120.035 120.685 119.98 120.417 119.98C119.951 119.98 119.556 120.176 119.232 120.576C118.908 120.977 118.75 121.495 118.75 122.147C118.75 122.798 118.908 123.309 119.232 123.693C119.556 124.078 119.966 124.274 120.456 124.274C120.757 124.274 121.049 124.196 121.325 124.039C121.602 123.882 121.831 123.654 122.005 123.348C122.171 123.042 122.258 122.688 122.258 122.28Z" fill="black" stroke="black" stroke-miterlimit="10"/>
</g>
<defs>
<clipPath id="clip0">
<rect width="332" height="296" fill="white"/>
</clipPath>
</defs>
</svg>
