<svg width="421" height="378" viewBox="0 0 421 378" fill="none" xmlns="http://www.w3.org/2000/svg">
<g clip-path="url(#clip0)">
<path fill-rule="evenodd" clip-rule="evenodd" d="M372.75 152.07C384.38 195.46 356.55 237.09 328.85 272.68C301.75 307.49 268.42 343.71 224.22 342.92C181.47 342.17 154.28 302.35 127.77 269.05C102.77 237.67 71.75 203.13 81.96 164.3C91.85 126.66 137.26 116.38 172.41 99.28C205.91 83.01 238.72 61.09 274.7 70.58C318.06 81.98 361.2 108.97 372.75 152.07Z" fill="#C2C2FF"/>
<path d="M267.48 89.74H266.49V88.93C266.49 88.25 265.94 87.7 265.26 87.7C264.58 87.7 264.03 88.25 264.03 88.93V89.74H263.04C262.36 89.74 261.81 90.29 261.81 90.97C261.81 91.65 262.36 92.2 263.04 92.2H264.03V93.01C264.03 93.69 264.58 94.24 265.26 94.24C265.94 94.24 266.49 93.69 266.49 93.01V92.2H267.48C268.16 92.2 268.71 91.65 268.71 90.97C268.71 90.29 268.16 89.74 267.48 89.74Z" fill="#231F20"/>
<path d="M199.19 320.81H198.2V320C198.2 319.32 197.65 318.77 196.97 318.77C196.29 318.77 195.74 319.32 195.74 320V320.81H194.75C194.07 320.81 193.52 321.36 193.52 322.04C193.52 322.72 194.07 323.27 194.75 323.27H195.74V324.08C195.74 324.76 196.29 325.31 196.97 325.31C197.65 325.31 198.2 324.76 198.2 324.08V323.27H199.19C199.87 323.27 200.42 322.72 200.42 322.04C200.42 321.36 199.87 320.81 199.19 320.81Z" fill="#231F20"/>
<path d="M133.74 11.09H132.75V10.28C132.75 9.59999 132.2 9.04999 131.52 9.04999C130.84 9.04999 130.29 9.59999 130.29 10.28V11.09H129.3C128.62 11.09 128.07 11.64 128.07 12.32C128.07 13 128.62 13.55 129.3 13.55H130.29V14.36C130.29 15.04 130.84 15.59 131.52 15.59C132.2 15.59 132.75 15.04 132.75 14.36V13.55H133.74C134.42 13.55 134.97 13 134.97 12.32C134.97 11.64 134.42 11.09 133.74 11.09Z" fill="#231F20"/>
<path d="M418.95 263.21H417.96V262.4C417.96 261.72 417.41 261.17 416.73 261.17C416.05 261.17 415.5 261.72 415.5 262.4V263.21H414.51C413.83 263.21 413.28 263.76 413.28 264.44C413.28 265.12 413.83 265.67 414.51 265.67H415.5V266.48C415.5 267.16 416.05 267.71 416.73 267.71C417.41 267.71 417.96 267.16 417.96 266.48V265.67H418.95C419.63 265.67 420.18 265.12 420.18 264.44C420.18 263.76 419.63 263.21 418.95 263.21Z" fill="#231F20"/>
<path d="M332.94 298.62H84.2498C79.7198 298.62 76.0498 294.95 76.0498 290.42V130.78C76.0498 126.25 79.7198 122.58 84.2498 122.58H332.94C337.47 122.58 341.14 126.25 341.14 130.78V290.42C341.14 294.95 337.47 298.62 332.94 298.62Z" fill="white" stroke="black" stroke-width="3" stroke-linecap="round" stroke-linejoin="round"/>
<path d="M111.3 203.71H154.66" stroke="black" stroke-width="3" stroke-miterlimit="10" stroke-linecap="round" stroke-linejoin="round"/>
<path d="M168.35 203.71H270.8" stroke="black" stroke-width="3" stroke-miterlimit="10" stroke-linecap="round" stroke-linejoin="round"/>
<path d="M111.3 217.06H154.66" stroke="black" stroke-width="3" stroke-miterlimit="10" stroke-linecap="round" stroke-linejoin="round"/>
<path d="M168.35 217.06H270.8" stroke="black" stroke-width="3" stroke-miterlimit="10" stroke-linecap="round" stroke-linejoin="round"/>
<path d="M270.8 243.93H205.98" stroke="black" stroke-width="3" stroke-miterlimit="10" stroke-linecap="round" stroke-linejoin="round"/>
<path d="M191.04 243.93H111.3" stroke="black" stroke-width="3" stroke-miterlimit="10" stroke-linecap="round" stroke-linejoin="round"/>
<path d="M270.8 255.88H205.98" stroke="black" stroke-width="3" stroke-miterlimit="10" stroke-linecap="round" stroke-linejoin="round"/>
<path d="M191.04 255.88H111.3" stroke="black" stroke-width="3" stroke-miterlimit="10" stroke-linecap="round" stroke-linejoin="round"/>
<path d="M111.28 190.35H270.8" stroke="black" stroke-width="3" stroke-miterlimit="10" stroke-linecap="round" stroke-linejoin="round"/>
<path d="M111.28 230.41H270.8" stroke="black" stroke-width="3" stroke-miterlimit="10" stroke-linecap="round" stroke-linejoin="round"/>
<path d="M111.28 269.24H270.8" stroke="black" stroke-width="3" stroke-miterlimit="10" stroke-linecap="round" stroke-linejoin="round"/>
<path d="M111.28 177H270.8" stroke="black" stroke-width="3" stroke-miterlimit="10" stroke-linecap="round" stroke-linejoin="round"/>
<path d="M361.03 94.7H294.72V320.15H361.03V94.7Z" fill="white" stroke="black" stroke-width="3" stroke-miterlimit="10" stroke-linecap="round" stroke-linejoin="round"/>
<path d="M310.29 120.15H343.64" stroke="black" stroke-width="3" stroke-miterlimit="10" stroke-linecap="round" stroke-linejoin="round"/>
<path d="M310.29 144.22H343.64" stroke="black" stroke-width="3" stroke-miterlimit="10" stroke-linecap="round" stroke-linejoin="round"/>
<path d="M310.29 168.29H333.64" stroke="black" stroke-width="3" stroke-miterlimit="10" stroke-linecap="round" stroke-linejoin="round"/>
<path d="M310.29 192.35H343.64" stroke="black" stroke-width="3" stroke-miterlimit="10" stroke-linecap="round" stroke-linejoin="round"/>
<path d="M310.29 215.78H323.64" stroke="black" stroke-width="3" stroke-miterlimit="10" stroke-linecap="round" stroke-linejoin="round"/>
<path d="M310.29 239.85H343.64" stroke="black" stroke-width="3" stroke-miterlimit="10" stroke-linecap="round" stroke-linejoin="round"/>
<path d="M310.29 261.06H323.51" stroke="black" stroke-width="3" stroke-miterlimit="10" stroke-linecap="round" stroke-linejoin="round"/>
<path d="M335.29 261.06H343.51" stroke="black" stroke-width="3" stroke-miterlimit="10" stroke-linecap="round" stroke-linejoin="round"/>
<path d="M334.31 293.61C334.31 290.18 331.75 289.2 328.98 288.65L327.51 288.37C325.34 287.97 325.17 287.37 325.17 286.58C325.17 285.55 326.16 284.93 327.81 284.93C329.77 284.93 330.27 285.86 330.48 286.55L330.5 286.61C330.75 287.22 331.32 287.58 332.03 287.58C332.21 287.58 332.38 287.55 332.51 287.53C333.28 287.39 333.81 286.81 333.81 286.13C333.81 285.96 333.78 285.79 333.71 285.63C333.32 284.44 332.21 282.57 329.16 282.14V280.1C329.16 278.4 326.34 278.4 326.34 280.1V282.15C323.06 282.63 321.85 284.74 321.85 286.57C321.85 289.91 324.32 290.84 326.73 291.31L328.32 291.63C330.58 292.06 330.98 292.62 330.98 293.63C330.98 294.86 329.88 295.6 328.02 295.6C325.62 295.6 325.13 294.58 324.8 293.43C324.61 292.8 324 292.39 323.25 292.39C323.09 292.39 322.96 292.41 322.8 292.44L322.75 292.45C321.97 292.62 321.45 293.2 321.45 293.88C321.45 294.01 321.47 294.12 321.49 294.21L321.51 294.31C321.86 295.42 322.63 297.85 326.47 298.39V300.53C326.47 301.38 327.18 301.83 327.88 301.83C328.58 301.83 329.29 301.38 329.29 300.53V298.43C332.34 298.04 334.31 296.21 334.31 293.61Z" fill="black"/>
<path d="M312.2 333.01H218.36C217.2 333.01 216.26 332.07 216.26 330.91V227.51C216.26 226.35 217.2 225.41 218.36 225.41H312.2C313.36 225.41 314.3 226.35 314.3 227.51V330.91C314.29 332.07 313.36 333.01 312.2 333.01Z" fill="white" stroke="black" stroke-width="3" stroke-miterlimit="10" stroke-linecap="round" stroke-linejoin="round"/>
<path d="M302.18 237.88H228.38V255.16H302.18V237.88Z" fill="#FFD29C" stroke="black" stroke-width="3" stroke-miterlimit="10" stroke-linecap="round" stroke-linejoin="round"/>
<path d="M245.66 268.44H228.38V285.72H245.66V268.44Z" fill="white" stroke="black" stroke-width="3" stroke-miterlimit="10" stroke-linecap="round" stroke-linejoin="round"/>
<path d="M273.92 268.44H256.64V285.72H273.92V268.44Z" fill="white" stroke="black" stroke-width="3" stroke-miterlimit="10" stroke-linecap="round" stroke-linejoin="round"/>
<path d="M302.18 268.44H284.9V285.72H302.18V268.44Z" fill="white" stroke="black" stroke-width="3" stroke-miterlimit="10" stroke-linecap="round" stroke-linejoin="round"/>
<path d="M245.66 295.73H228.38V313.01H245.66V295.73Z" fill="white" stroke="black" stroke-width="3" stroke-miterlimit="10" stroke-linecap="round" stroke-linejoin="round"/>
<path d="M273.92 295.73H256.64V313.01H273.92V295.73Z" fill="white" stroke="black" stroke-width="3" stroke-miterlimit="10" stroke-linecap="round" stroke-linejoin="round"/>
<path d="M302.18 295.73H284.9V313.01H302.18V295.73Z" fill="white" stroke="black" stroke-width="3" stroke-miterlimit="10" stroke-linecap="round" stroke-linejoin="round"/>
<path d="M112.96 24.29H13.5C6.87 24.29 1.5 29.66 1.5 36.29V73.19C1.5 79.82 6.87 85.19 13.5 85.19H93.1L110.55 102.64V85.18H112.96C119.59 85.18 124.96 79.81 124.96 73.18V36.28C124.96 29.66 119.59 24.29 112.96 24.29Z" fill="#C2C2FF" stroke="black" stroke-width="3" stroke-miterlimit="10" stroke-linecap="round" stroke-linejoin="round"/>
<path d="M15.7598 45.75H110.69" stroke="black" stroke-width="3" stroke-miterlimit="10" stroke-linecap="round" stroke-linejoin="round"/>
<path d="M15.7598 60.62H110.69" stroke="black" stroke-width="3" stroke-miterlimit="10" stroke-linecap="round" stroke-linejoin="round"/>
<path d="M350.04 178.26H399.86C404.18 178.26 407.68 181.76 407.68 186.08V210.12C407.68 214.44 404.18 217.94 399.86 217.94H362.98L351.61 229.31V217.94H350.04C345.72 217.94 342.22 214.44 342.22 210.12V186.08C342.23 181.76 345.73 178.26 350.04 178.26Z" fill="#FFD29C" stroke="black" stroke-width="3" stroke-miterlimit="10" stroke-linecap="round" stroke-linejoin="round"/>
<path d="M398.38 192.25H351.52" stroke="black" stroke-width="3" stroke-miterlimit="10" stroke-linecap="round" stroke-linejoin="round"/>
<path d="M398.38 201.93H351.52" stroke="black" stroke-width="3" stroke-miterlimit="10" stroke-linecap="round" stroke-linejoin="round"/>
<path d="M300.9 51.55H296.4V47.05C296.4 46.5 295.95 46.05 295.4 46.05H294.4C293.85 46.05 293.4 46.5 293.4 47.05V51.55H288.9C288.35 51.55 287.9 52 287.9 52.55V53.55C287.9 54.1 288.35 54.55 288.9 54.55H293.4V59.05C293.4 59.6 293.85 60.05 294.4 60.05H295.4C295.95 60.05 296.4 59.6 296.4 59.05V54.55H300.9C301.45 54.55 301.9 54.1 301.9 53.55V52.55C301.9 51.99 301.45 51.55 300.9 51.55Z" fill="#8E8EEF"/>
<path d="M14.3198 218.58H9.81982V214.08C9.81982 213.53 9.36982 213.08 8.81982 213.08H7.81982C7.26982 213.08 6.81982 213.53 6.81982 214.08V218.58H2.31982C1.76982 218.58 1.31982 219.03 1.31982 219.58V220.58C1.31982 221.13 1.76982 221.58 2.31982 221.58H6.81982V226.08C6.81982 226.63 7.26982 227.08 7.81982 227.08H8.81982C9.36982 227.08 9.81982 226.63 9.81982 226.08V221.58H14.3198C14.8698 221.58 15.3198 221.13 15.3198 220.58V219.58C15.3198 219.03 14.8698 218.58 14.3198 218.58Z" fill="#8E8EEF"/>
<path d="M406.73 147.94H402.23V143.44C402.23 142.89 401.78 142.44 401.23 142.44H400.23C399.68 142.44 399.23 142.89 399.23 143.44V147.94H394.73C394.18 147.94 393.73 148.39 393.73 148.94V149.94C393.73 150.49 394.18 150.94 394.73 150.94H399.23V155.44C399.23 155.99 399.68 156.44 400.23 156.44H401.23C401.78 156.44 402.23 155.99 402.23 155.44V150.94H406.73C407.28 150.94 407.73 150.49 407.73 149.94V148.94C407.73 148.39 407.28 147.94 406.73 147.94Z" fill="#02CEAA"/>
<path d="M163.95 82.35H160.74V79.14C160.74 78.75 160.42 78.43 160.03 78.43H159.32C158.92 78.43 158.61 78.75 158.61 79.14V82.35H155.4C155.01 82.35 154.69 82.67 154.69 83.06V83.77C154.69 84.16 155.01 84.48 155.4 84.48H158.61V87.69C158.61 88.08 158.93 88.4 159.32 88.4H160.03C160.43 88.4 160.74 88.08 160.74 87.69V84.5H163.95C164.34 84.5 164.66 84.18 164.66 83.79V83.08C164.66 82.67 164.34 82.35 163.95 82.35Z" fill="#FFAB48"/>
<path d="M394.23 239.31C396.163 239.31 397.73 237.743 397.73 235.81C397.73 233.877 396.163 232.31 394.23 232.31C392.297 232.31 390.73 233.877 390.73 235.81C390.73 237.743 392.297 239.31 394.23 239.31Z" fill="#FFAB48"/>
<path d="M37.7002 109.47C39.6332 109.47 41.2002 107.903 41.2002 105.97C41.2002 104.037 39.6332 102.47 37.7002 102.47C35.7672 102.47 34.2002 104.037 34.2002 105.97C34.2002 107.903 35.7672 109.47 37.7002 109.47Z" fill="#02CEAA"/>
<path d="M183.46 363.42C185.393 363.42 186.96 361.853 186.96 359.92C186.96 357.987 185.393 356.42 183.46 356.42C181.527 356.42 179.96 357.987 179.96 359.92C179.96 361.853 181.527 363.42 183.46 363.42Z" fill="#8E8EEF"/>
<path d="M2.74023 166.86L29.2002 206.17L94.1802 162.47L67.7202 123.16L2.74023 166.86Z" fill="#C6F9EC" stroke="black" stroke-width="3" stroke-miterlimit="10" stroke-linecap="round" stroke-linejoin="round"/>
<path d="M56.8002 158.29C58.4302 160.71 59.0202 163.62 58.4602 166.47C57.8902 169.34 56.2602 171.8 53.8402 173.43C48.8502 176.79 42.0502 175.46 38.6902 170.46C36.9802 167.92 36.4802 164.92 37.0702 162.13C37.6302 159.44 39.2002 156.97 41.6602 155.32C44.0802 153.69 46.9902 153.1 49.8502 153.66C52.7102 154.23 55.1802 155.87 56.8002 158.29Z" stroke="black" stroke-width="3" stroke-miterlimit="10"/>
<path d="M66.0804 128.88L14.1404 163.81C14.1004 163.83 14.0704 163.86 14.0304 163.89L8.64043 167.51C8.30043 167.74 8.21043 168.21 8.44043 168.56L29.7804 200.26C29.8904 200.43 30.0704 200.54 30.2604 200.58C30.4504 200.62 30.6604 200.58 30.8204 200.47L88.2504 161.85C88.4104 161.74 88.5304 161.57 88.5704 161.38C88.5704 161.37 88.5704 161.37 88.5704 161.37C88.6104 161.18 88.5704 160.97 88.4604 160.81L67.1204 129.11C66.8904 128.74 66.4204 128.64 66.0804 128.88ZM10.1104 168.33L14.6604 165.27C15.5804 165.53 16.3804 166.09 16.9204 166.89C17.5204 167.78 17.7404 168.85 17.5304 169.9C17.5304 169.92 17.5204 169.93 17.5204 169.95C17.1204 171.87 15.3404 173.25 13.3804 173.14C13.3704 173.14 13.3704 173.14 13.3604 173.14L10.1104 168.33ZM30.6104 198.78L27.3304 193.9C27.9204 191.92 29.9004 190.71 31.9404 191.11C33.0004 191.31 33.9104 191.92 34.5004 192.81C35.0804 193.67 35.3004 194.71 35.1204 195.74L30.6104 198.78ZM86.7904 161L82.2304 164.06C82.1704 164.03 82.1104 163.99 82.0504 163.98C81.0004 163.78 80.0804 163.17 79.4904 162.28C78.8904 161.39 78.6704 160.32 78.8804 159.27C79.0904 158.22 79.6904 157.3 80.5804 156.71C81.4404 156.13 82.4704 155.91 83.4804 156.09L86.7904 161ZM82.4404 154.54C81.4804 154.6 80.5504 154.92 79.7404 155.46C78.5404 156.27 77.7104 157.49 77.4204 158.91C77.4204 158.93 77.4104 158.96 77.4104 158.98C77.1304 160.43 77.4304 161.9 78.2504 163.12C78.8604 164.02 79.6904 164.7 80.6704 165.12L36.6804 194.7C36.5204 192.26 34.7404 190.13 32.2304 189.64C29.8004 189.17 27.4404 190.35 26.3204 192.42L14.3304 174.6C16.5904 174.29 18.5004 172.57 18.9804 170.26C18.9804 170.24 18.9904 170.21 19.0004 170.19C19.2804 168.74 18.9804 167.27 18.1604 166.04C17.6404 165.27 16.9604 164.66 16.1604 164.24L60.5004 134.42C60.6604 136.85 62.4404 138.98 64.9504 139.47C67.2204 139.91 69.4704 138.89 70.6604 137.02L82.4404 154.54ZM69.7204 135.64C68.9904 137.37 67.1304 138.39 65.2504 138.02C63.1104 137.6 61.7004 135.54 62.0704 133.41L66.3004 130.56L69.7204 135.64Z" fill="black" stroke="black" stroke-miterlimit="10"/>
<path d="M85.7202 264.79L53.2002 321.72L147.27 375.52L179.79 318.59L85.7202 264.79Z" fill="#C6F9EC" stroke="black" stroke-width="3" stroke-miterlimit="10" stroke-linecap="round" stroke-linejoin="round"/>
<path d="M129.52 326.59C127.52 330.09 124.27 332.61 120.39 333.67C116.48 334.72 112.43 334.21 108.93 332.21C101.7 328.08 99.1903 318.83 103.31 311.6C105.41 307.92 108.83 305.46 112.64 304.48C116.32 303.53 120.35 303.95 123.9 305.99C127.4 307.99 129.92 311.24 130.98 315.13C132.04 319.02 131.53 323.1 129.52 326.59Z" stroke="black" stroke-width="3" stroke-miterlimit="10"/>
<path d="M171.7 320.06L96.52 277.07C96.47 277.03 96.42 277.01 96.36 276.98L88.57 272.52C88.07 272.24 87.44 272.41 87.15 272.91L60.92 318.82C60.78 319.06 60.75 319.35 60.82 319.61C60.89 319.87 61.07 320.1 61.31 320.24L144.44 367.78C144.68 367.91 144.95 367.95 145.22 367.89C145.23 367.89 145.23 367.89 145.24 367.89C145.5 367.82 145.73 367.64 145.87 367.41L172.1 321.5C172.37 320.98 172.2 320.34 171.7 320.06ZM88.43 274.84L95.01 278.61C95.26 279.91 95.05 281.24 94.38 282.4C93.64 283.69 92.45 284.61 91.02 285.01C91 285.02 90.97 285.02 90.95 285.03C88.32 285.71 85.53 284.35 84.45 281.85C84.45 281.84 84.44 281.84 84.44 281.83L88.43 274.84ZM63.23 318.95L67.27 311.89C70.08 311.4 72.8 313.12 73.56 315.9C73.96 317.34 73.76 318.83 73.02 320.12C72.31 321.38 71.15 322.28 69.77 322.69L63.23 318.95ZM144.56 365.46L137.97 361.69C137.97 361.6 137.98 361.5 137.95 361.41C137.56 359.98 137.75 358.47 138.49 357.19C139.23 355.9 140.42 354.98 141.85 354.58C143.28 354.19 144.78 354.38 146.07 355.12C147.32 355.83 148.21 356.97 148.62 358.34L144.56 365.46ZM149.9 356.1C149.23 354.95 148.28 353.99 147.09 353.31C145.35 352.31 143.33 352.04 141.39 352.55C141.36 352.56 141.32 352.57 141.29 352.58C139.32 353.12 137.68 354.39 136.67 356.16C135.93 357.46 135.59 358.92 135.68 360.39L72.02 323.98C74.95 322.28 76.5 318.77 75.57 315.36C74.67 312.06 71.76 309.86 68.5 309.73L83.24 283.94C85.02 286.56 88.32 287.86 91.47 287.05C91.5 287.04 91.54 287.03 91.57 287.02C93.54 286.48 95.18 285.21 96.2 283.44C96.84 282.33 97.17 281.1 97.21 279.86L161.4 316.56C158.48 318.26 156.93 321.76 157.86 325.17C158.7 328.25 161.35 330.42 164.4 330.75L149.9 356.1ZM165.55 328.72C162.95 328.88 160.55 327.19 159.86 324.63C159.07 321.72 160.75 318.71 163.63 317.85L169.76 321.36L165.55 328.72Z" fill="black" stroke="black" stroke-miterlimit="10"/>
<path d="M342.23 73.91L322.21 107.51L377.73 140.62L397.75 107.02L342.23 73.91Z" fill="#C6F9EC" stroke="black" stroke-width="2.4764" stroke-miterlimit="10" stroke-linecap="round" stroke-linejoin="round"/>
<path d="M367.69 111.24C366.46 113.31 364.5 114.77 362.17 115.36C359.82 115.94 357.41 115.6 355.35 114.36C351.09 111.82 349.68 106.28 352.22 102.01C353.51 99.84 355.58 98.41 357.86 97.86C360.07 97.33 362.47 97.63 364.56 98.88C366.63 100.11 368.09 102.08 368.68 104.41C369.27 106.76 368.92 109.18 367.69 111.24Z" stroke="black" stroke-width="2.4764" stroke-miterlimit="10"/>
<path d="M392.91 107.81L348.54 81.35C348.51 81.33 348.48 81.31 348.45 81.3L343.85 78.55C343.56 78.38 343.18 78.47 343 78.77L326.86 105.87C326.77 106.01 326.75 106.18 326.79 106.34C326.83 106.5 326.93 106.64 327.07 106.72L376.14 135.98C376.28 136.06 376.44 136.09 376.6 136.05C376.6 136.05 376.6 136.05 376.61 136.05C376.77 136.01 376.91 135.91 376.99 135.77L393.13 108.67C393.3 108.36 393.2 107.98 392.91 107.81ZM343.74 79.93L347.63 82.25C347.76 83.03 347.62 83.82 347.21 84.51C346.76 85.27 346.03 85.81 345.18 86.03C345.17 86.03 345.15 86.04 345.14 86.04C343.56 86.42 341.91 85.58 341.3 84.07L341.29 84.06L343.74 79.93ZM328.23 105.96L330.71 101.79C332.39 101.53 334 102.58 334.42 104.25C334.64 105.11 334.51 106 334.05 106.76C333.61 107.5 332.91 108.03 332.09 108.26L328.23 105.96ZM376.23 134.59L372.34 132.27C372.34 132.22 372.35 132.16 372.33 132.1C372.11 131.24 372.24 130.35 372.7 129.59C373.15 128.83 373.88 128.29 374.73 128.07C375.59 127.86 376.48 127.98 377.24 128.44C377.98 128.88 378.5 129.57 378.73 130.39L376.23 134.59ZM379.52 129.06C379.13 128.37 378.57 127.78 377.88 127.37C376.85 126.75 375.65 126.57 374.49 126.85C374.47 126.85 374.45 126.86 374.43 126.86C373.25 127.16 372.26 127.9 371.63 128.94C371.17 129.71 370.95 130.57 370.99 131.45L333.42 109.04C335.18 108.06 336.15 105.98 335.63 103.94C335.13 101.96 333.42 100.62 331.47 100.51L340.54 85.29C341.57 86.87 343.53 87.68 345.42 87.23C345.44 87.23 345.46 87.22 345.48 87.22C346.66 86.92 347.65 86.18 348.28 85.14C348.67 84.48 348.89 83.76 348.92 83.02L386.8 105.61C385.04 106.59 384.08 108.67 384.6 110.71C385.07 112.56 386.62 113.88 388.44 114.11L379.52 129.06ZM389.15 112.9C387.6 112.97 386.19 111.94 385.8 110.4C385.36 108.65 386.4 106.88 388.12 106.4L391.74 108.56L389.15 112.9Z" fill="black" stroke="black" stroke-width="0.8255" stroke-miterlimit="10"/>
<path d="M192.53 85.26L215.57 102.68L244.37 64.61L221.33 47.19L192.53 85.26Z" fill="#C6F9EC" stroke="black" stroke-width="1.8286" stroke-miterlimit="10" stroke-linecap="round" stroke-linejoin="round"/>
<path d="M222 69.6C223.42 70.67 224.33 72.23 224.58 73.99C224.82 75.76 224.37 77.5 223.3 78.91C221.09 81.83 216.91 82.41 213.98 80.2C212.49 79.08 211.61 77.44 211.39 75.72C211.18 74.06 211.59 72.32 212.68 70.88C213.75 69.46 215.31 68.55 217.07 68.3C218.84 68.07 220.59 68.53 222 69.6Z" fill="#C6F9EC" stroke="black" stroke-width="1.8286" stroke-miterlimit="10"/>
<path d="M221.52 50.81L198.5 81.23C198.48 81.25 198.47 81.27 198.45 81.29L196.06 84.44C195.91 84.64 195.95 84.93 196.15 85.08L214.73 99.13C214.83 99.2 214.95 99.23 215.07 99.22C215.19 99.21 215.3 99.14 215.37 99.04L240.82 65.4C240.89 65.3 240.92 65.19 240.91 65.07C240.91 65.07 240.91 65.07 240.91 65.06C240.9 64.94 240.83 64.83 240.73 64.76L222.15 50.71C221.96 50.57 221.67 50.61 221.52 50.81ZM197.08 84.64L199.1 81.98C199.68 81.94 200.25 82.11 200.72 82.47C201.24 82.86 201.58 83.44 201.67 84.08C201.67 84.09 201.67 84.1 201.67 84.11C201.82 85.3 201.07 86.44 199.91 86.77H199.9L197.08 84.64ZM214.93 98.13L212.07 95.97C212.02 94.71 212.92 93.62 214.18 93.45C214.83 93.36 215.47 93.53 215.99 93.92C216.5 94.3 216.83 94.86 216.93 95.48L214.93 98.13ZM239.83 65.22L237.81 67.89C237.77 67.88 237.73 67.88 237.69 67.88C237.04 67.97 236.4 67.8 235.88 67.41C235.36 67.02 235.02 66.44 234.93 65.8C234.84 65.15 235.01 64.51 235.4 63.99C235.78 63.49 236.33 63.16 236.95 63.06L239.83 65.22ZM236.04 62.36C235.5 62.59 235.03 62.95 234.66 63.43C234.13 64.13 233.9 65 234 65.88C234 65.89 234 65.91 234.01 65.92C234.14 66.81 234.6 67.6 235.31 68.14C235.84 68.54 236.45 68.77 237.1 68.81L217.61 94.57C217.03 93.2 215.59 92.32 214.04 92.53C212.55 92.74 211.42 93.89 211.18 95.3L200.74 87.41C201.98 86.78 202.74 85.41 202.56 83.99C202.56 83.98 202.56 83.96 202.55 83.95C202.42 83.06 201.96 82.27 201.25 81.73C200.8 81.39 200.28 81.17 199.74 81.09L219.39 55.11C219.97 56.48 221.41 57.35 222.95 57.14C224.34 56.94 225.44 55.91 225.76 54.6L236.04 62.36ZM224.96 53.98C224.88 55.12 224.01 56.08 222.85 56.24C221.53 56.42 220.31 55.52 220.1 54.21L221.98 51.73L224.96 53.98Z" fill="black" stroke="black" stroke-width="0.6095" stroke-miterlimit="10"/>
<path d="M179.79 46.79C186.417 46.79 191.79 41.4174 191.79 34.79C191.79 28.1626 186.417 22.79 179.79 22.79C173.163 22.79 167.79 28.1626 167.79 34.79C167.79 41.4174 173.163 46.79 179.79 46.79Z" fill="#FFD29C" stroke="black" stroke-width="2" stroke-miterlimit="10" stroke-linecap="round" stroke-linejoin="round"/>
<path d="M183.45 36.62C183.45 34.71 182.02 34.16 180.48 33.85L179.66 33.69C178.45 33.47 178.36 33.13 178.36 32.69C178.36 32.11 178.91 31.77 179.83 31.77C180.92 31.77 181.2 32.29 181.32 32.67L181.33 32.7C181.47 33.04 181.79 33.24 182.18 33.24C182.28 33.24 182.38 33.23 182.44 33.21C182.87 33.13 183.16 32.81 183.16 32.43C183.16 32.34 183.14 32.24 183.11 32.15C182.89 31.49 182.28 30.44 180.57 30.21V29.07C180.57 28.12 179 28.12 179 29.07V30.21C177.17 30.48 176.5 31.65 176.5 32.68C176.5 34.54 177.87 35.06 179.22 35.32L180.11 35.5C181.37 35.74 181.59 36.05 181.59 36.61C181.59 37.3 180.97 37.71 179.94 37.71C178.6 37.71 178.33 37.14 178.14 36.5C178.03 36.15 177.69 35.92 177.28 35.92C177.19 35.92 177.12 35.93 177.03 35.95H177C176.57 36.05 176.28 36.37 176.28 36.75C176.28 36.82 176.29 36.88 176.3 36.93L176.31 36.99C176.5 37.61 176.93 38.96 179.07 39.26V40.45C179.07 40.92 179.47 41.17 179.86 41.17C180.25 41.17 180.65 40.92 180.65 40.45V39.3C182.35 39.09 183.46 38.07 183.45 36.62Z" fill="black"/>
<path d="M177.5 6.5V14.82" stroke="black" stroke-width="2" stroke-miterlimit="10" stroke-linecap="round" stroke-linejoin="round"/>
<path d="M183.34 17.64V1" stroke="black" stroke-width="2" stroke-miterlimit="10" stroke-linecap="round" stroke-linejoin="round"/>
<path d="M49.7002 266.66C56.3276 266.66 61.7002 261.287 61.7002 254.66C61.7002 248.033 56.3276 242.66 49.7002 242.66C43.0728 242.66 37.7002 248.033 37.7002 254.66C37.7002 261.287 43.0728 266.66 49.7002 266.66Z" fill="#FFD29C" stroke="black" stroke-width="2" stroke-miterlimit="10" stroke-linecap="round" stroke-linejoin="round"/>
<path d="M53.3604 256.5C53.3604 254.59 51.9304 254.04 50.3904 253.73L49.5704 253.57C48.3604 253.35 48.2704 253.01 48.2704 252.57C48.2704 251.99 48.8204 251.65 49.7404 251.65C50.8304 251.65 51.1104 252.17 51.2304 252.55L51.2404 252.58C51.3804 252.92 51.7004 253.12 52.0904 253.12C52.1904 253.12 52.2904 253.11 52.3504 253.09C52.7804 253.01 53.0704 252.69 53.0704 252.31C53.0704 252.22 53.0504 252.12 53.0204 252.03C52.8004 251.37 52.1904 250.32 50.4804 250.09V248.95C50.4804 248 48.9104 248 48.9104 248.95V250.09C47.0804 250.36 46.4104 251.53 46.4104 252.56C46.4104 254.42 47.7804 254.94 49.1304 255.2L50.0204 255.38C51.2804 255.62 51.5004 255.93 51.5004 256.49C51.5004 257.18 50.8804 257.59 49.8504 257.59C48.5104 257.59 48.2404 257.02 48.0504 256.38C47.9404 256.03 47.6004 255.8 47.1904 255.8C47.1004 255.8 47.0304 255.81 46.9404 255.83H46.9104C46.4804 255.93 46.1904 256.25 46.1904 256.63C46.1904 256.7 46.2004 256.76 46.2104 256.81L46.2204 256.87C46.4104 257.49 46.8404 258.84 48.9804 259.14V260.33C48.9804 260.8 49.3804 261.05 49.7704 261.05C50.1604 261.05 50.5604 260.8 50.5604 260.33V259.16C52.2604 258.97 53.3704 257.94 53.3604 256.5Z" fill="black"/>
<path d="M47.4102 230.05V235.62" stroke="black" stroke-width="2" stroke-miterlimit="10" stroke-linecap="round" stroke-linejoin="round"/>
<path d="M53.25 237.51V226.37" stroke="black" stroke-width="2" stroke-miterlimit="10" stroke-linecap="round" stroke-linejoin="round"/>
<path d="M392.74 304.14C399.368 304.14 404.74 298.767 404.74 292.14C404.74 285.513 399.368 280.14 392.74 280.14C386.113 280.14 380.74 285.513 380.74 292.14C380.74 298.767 386.113 304.14 392.74 304.14Z" fill="#FFD29C" stroke="black" stroke-width="2" stroke-miterlimit="10" stroke-linecap="round" stroke-linejoin="round"/>
<path d="M396.4 293.97C396.4 292.06 394.97 291.51 393.43 291.2L392.61 291.04C391.4 290.82 391.31 290.48 391.31 290.04C391.31 289.46 391.86 289.12 392.78 289.12C393.87 289.12 394.15 289.64 394.27 290.02L394.28 290.05C394.42 290.39 394.74 290.59 395.13 290.59C395.23 290.59 395.33 290.58 395.39 290.56C395.82 290.48 396.11 290.16 396.11 289.78C396.11 289.69 396.09 289.59 396.06 289.5C395.84 288.84 395.23 287.79 393.52 287.56V286.42C393.52 285.47 391.95 285.47 391.95 286.42V287.56C390.12 287.83 389.45 289 389.45 290.03C389.45 291.89 390.82 292.41 392.17 292.67L393.06 292.85C394.32 293.09 394.54 293.4 394.54 293.96C394.54 294.65 393.92 295.06 392.89 295.06C391.55 295.06 391.28 294.49 391.09 293.85C390.98 293.5 390.64 293.27 390.23 293.27C390.14 293.27 390.07 293.28 389.98 293.3H389.95C389.52 293.4 389.23 293.72 389.23 294.1C389.23 294.17 389.24 294.23 389.25 294.28L389.26 294.34C389.45 294.96 389.88 296.31 392.02 296.61V297.8C392.02 298.27 392.42 298.52 392.81 298.52C393.2 298.52 393.6 298.27 393.6 297.8V296.63C395.3 296.44 396.4 295.42 396.4 293.97Z" fill="black"/>
<path d="M390.45 267.53V273.1" stroke="black" stroke-width="2" stroke-miterlimit="10" stroke-linecap="round" stroke-linejoin="round"/>
<path d="M396.29 274.99V263.85" stroke="black" stroke-width="2" stroke-miterlimit="10" stroke-linecap="round" stroke-linejoin="round"/>
<path d="M114.6 163.43V154.96C113.02 156.17 111.96 156.77 111.42 156.77C111.16 156.77 110.93 156.67 110.73 156.46C110.53 156.25 110.43 156.01 110.43 155.74C110.43 155.42 110.53 155.19 110.73 155.04C110.93 154.89 111.28 154.7 111.78 154.46C112.53 154.11 113.13 153.73 113.58 153.34C114.03 152.95 114.43 152.51 114.78 152.03C115.13 151.55 115.35 151.25 115.46 151.14C115.57 151.03 115.76 150.97 116.06 150.97C116.39 150.97 116.65 151.1 116.85 151.35C117.05 151.6 117.15 151.95 117.15 152.4V163.05C117.15 164.3 116.73 164.92 115.88 164.92C115.5 164.92 115.2 164.79 114.97 164.54C114.72 164.31 114.6 163.93 114.6 163.43Z" fill="black" stroke="black" stroke-miterlimit="10"/>
<path d="M130.96 158.02C130.96 159.04 130.9 159.91 130.77 160.64C130.65 161.37 130.42 162.04 130.08 162.63C129.66 163.36 129.11 163.93 128.44 164.32C127.77 164.72 127.03 164.92 126.21 164.92C125.27 164.92 124.42 164.65 123.67 164.12C122.92 163.59 122.36 162.85 121.98 161.91C121.79 161.4 121.65 160.83 121.56 160.2C121.47 159.58 121.43 158.9 121.43 158.18C121.43 157.24 121.48 156.4 121.58 155.65C121.68 154.9 121.83 154.25 122.04 153.71C122.41 152.82 122.94 152.14 123.64 151.67C124.34 151.2 125.17 150.97 126.14 150.97C126.78 150.97 127.36 151.07 127.88 151.28C128.4 151.49 128.86 151.79 129.25 152.19C129.64 152.59 129.98 153.08 130.25 153.67C130.73 154.7 130.96 156.15 130.96 158.02ZM128.42 157.83C128.42 156.7 128.35 155.77 128.21 155.04C128.07 154.32 127.84 153.77 127.52 153.4C127.2 153.03 126.75 152.85 126.18 152.85C125.36 152.85 124.79 153.26 124.47 154.09C124.15 154.91 123.99 156.19 123.99 157.9C123.99 159.07 124.06 160.02 124.2 160.77C124.34 161.52 124.57 162.08 124.89 162.46C125.21 162.84 125.65 163.03 126.2 163.03C126.77 163.03 127.22 162.83 127.54 162.44C127.86 162.04 128.09 161.48 128.22 160.74C128.35 160 128.42 159.03 128.42 157.83Z" fill="black" stroke="black" stroke-miterlimit="10"/>
<path d="M141.63 158.6C141.22 159.08 140.76 159.45 140.26 159.69C139.75 159.94 139.19 160.06 138.58 160.06C138 160.06 137.45 159.95 136.95 159.72C136.45 159.49 136.01 159.18 135.64 158.77C135.27 158.36 134.99 157.89 134.79 157.35C134.59 156.81 134.49 156.24 134.49 155.64C134.49 155 134.6 154.39 134.82 153.82C135.04 153.25 135.36 152.75 135.78 152.33C136.2 151.91 136.69 151.58 137.26 151.34C137.83 151.1 138.47 150.99 139.16 150.99C139.96 150.99 140.67 151.14 141.3 151.43C141.93 151.72 142.45 152.14 142.88 152.7C143.31 153.26 143.64 153.95 143.87 154.8C144.1 155.64 144.21 156.6 144.21 157.67C144.21 158.86 144.09 159.91 143.85 160.82C143.61 161.73 143.26 162.49 142.79 163.11C142.32 163.73 141.77 164.19 141.13 164.49C140.48 164.79 139.75 164.94 138.93 164.94C138.12 164.94 137.42 164.79 136.83 164.48C136.23 164.17 135.78 163.79 135.47 163.34C135.16 162.88 135.01 162.45 135.01 162.02C135.01 161.76 135.11 161.53 135.3 161.32C135.49 161.12 135.74 161.01 136.04 161.01C136.31 161.01 136.56 161.09 136.77 161.24C136.99 161.39 137.15 161.62 137.26 161.92C137.4 162.29 137.62 162.59 137.94 162.82C138.26 163.05 138.61 163.16 139.01 163.16C139.36 163.16 139.7 163.07 140.01 162.89C140.33 162.71 140.6 162.46 140.82 162.13C141.27 161.45 141.54 160.28 141.63 158.6ZM141.41 155.75C141.41 155.33 141.35 154.94 141.24 154.58C141.13 154.22 140.96 153.91 140.76 153.65C140.56 153.39 140.3 153.19 140.02 153.04C139.73 152.89 139.42 152.82 139.08 152.82C138.49 152.82 137.99 153.07 137.58 153.58C137.17 154.09 136.97 154.75 136.97 155.58C136.97 156.41 137.17 157.06 137.58 157.55C137.99 158.04 138.51 158.29 139.13 158.29C139.51 158.29 139.88 158.19 140.23 157.99C140.58 157.79 140.87 157.5 141.09 157.11C141.3 156.72 141.41 156.27 141.41 155.75Z" fill="black" stroke="black" stroke-miterlimit="10"/>
<path d="M154.95 158.6C154.54 159.08 154.08 159.45 153.58 159.69C153.07 159.94 152.51 160.06 151.9 160.06C151.32 160.06 150.77 159.95 150.27 159.72C149.77 159.49 149.33 159.18 148.96 158.77C148.59 158.36 148.31 157.89 148.11 157.35C147.91 156.81 147.81 156.24 147.81 155.64C147.81 155 147.92 154.39 148.14 153.82C148.36 153.25 148.68 152.75 149.1 152.33C149.52 151.91 150.01 151.58 150.58 151.34C151.15 151.1 151.79 150.99 152.48 150.99C153.28 150.99 153.99 151.14 154.62 151.43C155.25 151.72 155.77 152.14 156.2 152.7C156.63 153.26 156.96 153.95 157.19 154.8C157.42 155.64 157.53 156.6 157.53 157.67C157.53 158.86 157.41 159.91 157.17 160.82C156.93 161.73 156.58 162.49 156.11 163.11C155.64 163.73 155.09 164.19 154.45 164.49C153.8 164.79 153.07 164.94 152.25 164.94C151.44 164.94 150.74 164.79 150.15 164.48C149.55 164.17 149.1 163.79 148.79 163.34C148.48 162.88 148.33 162.45 148.33 162.02C148.33 161.76 148.43 161.53 148.62 161.32C148.81 161.12 149.06 161.01 149.36 161.01C149.63 161.01 149.88 161.09 150.09 161.24C150.31 161.39 150.47 161.62 150.58 161.92C150.72 162.29 150.94 162.59 151.26 162.82C151.58 163.05 151.93 163.16 152.33 163.16C152.68 163.16 153.02 163.07 153.33 162.89C153.65 162.71 153.92 162.46 154.14 162.13C154.59 161.45 154.86 160.28 154.95 158.6ZM154.73 155.75C154.73 155.33 154.67 154.94 154.56 154.58C154.45 154.22 154.28 153.91 154.08 153.65C153.88 153.39 153.62 153.19 153.34 153.04C153.05 152.89 152.74 152.82 152.4 152.82C151.81 152.82 151.31 153.07 150.9 153.58C150.49 154.09 150.29 154.75 150.29 155.58C150.29 156.41 150.49 157.06 150.9 157.55C151.31 158.04 151.83 158.29 152.45 158.29C152.83 158.29 153.2 158.19 153.55 157.99C153.9 157.79 154.19 157.5 154.41 157.11C154.62 156.72 154.73 156.27 154.73 155.75Z" fill="black" stroke="black" stroke-miterlimit="10"/>
</g>
<defs>
<clipPath id="clip0">
<rect width="420.18" height="377.02" fill="white"/>
</clipPath>
</defs>
</svg>
