<svg width="99" height="64" viewBox="0 0 99 64" fill="none" xmlns="http://www.w3.org/2000/svg">
<path d="M69.75 36.5714C64.35 36.5714 55.935 38.1257 49.5 41.1429C43.065 38.08 34.65 36.5714 29.25 36.5714C19.485 36.5714 0 41.5086 0 51.4286V64H99V51.4286C99 41.5086 79.515 36.5714 69.75 36.5714ZM51.75 57.1429H6.75V51.4286C6.75 48.96 18.27 43.4286 29.25 43.4286C40.23 43.4286 51.75 48.96 51.75 51.4286V57.1429ZM92.25 57.1429H58.5V51.4286C58.5 49.3257 57.6 47.4971 56.16 45.8514C60.12 44.48 64.98 43.4286 69.75 43.4286C80.73 43.4286 92.25 48.96 92.25 51.4286V57.1429ZM29.25 32C37.935 32 45 24.8229 45 16C45 7.17714 37.935 0 29.25 0C20.565 0 13.5 7.17714 13.5 16C13.5 24.8229 20.565 32 29.25 32ZM29.25 6.85714C34.2 6.85714 38.25 10.9714 38.25 16C38.25 21.0286 34.2 25.1429 29.25 25.1429C24.3 25.1429 20.25 21.0286 20.25 16C20.25 10.9714 24.3 6.85714 29.25 6.85714ZM69.75 32C78.435 32 85.5 24.8229 85.5 16C85.5 7.17714 78.435 0 69.75 0C61.065 0 54 7.17714 54 16C54 24.8229 61.065 32 69.75 32ZM69.75 6.85714C74.7 6.85714 78.75 10.9714 78.75 16C78.75 21.0286 74.7 25.1429 69.75 25.1429C64.8 25.1429 60.75 21.0286 60.75 16C60.75 10.9714 64.8 6.85714 69.75 6.85714Z" fill="black"/>
</svg>
