<svg width="32" height="20" viewBox="0 0 32 20" fill="none" xmlns="http://www.w3.org/2000/svg">
<path d="M0.75 19.2609V19.5109H1H31H31.25V19.2609V15.6739C31.25 14.8704 30.8289 14.1889 30.1967 13.6301C29.5658 13.0726 28.7048 12.618 27.7671 12.2594C25.8917 11.5422 23.6455 11.1848 22.1364 11.1848C20.4968 11.1848 17.9713 11.6191 16.0007 12.4661C14.0286 11.6062 11.5022 11.1848 9.86364 11.1848C8.35452 11.1848 6.10827 11.5422 4.23286 12.2594C3.29519 12.618 2.43415 13.0726 1.80326 13.6301C1.17107 14.1889 0.75 14.8704 0.75 15.6739V19.2609ZM3.29545 17.0543V15.6739C3.29545 15.6754 3.29546 15.6754 3.29596 15.6738C3.29829 15.6663 3.31146 15.6236 3.38574 15.5431C3.4683 15.4535 3.59896 15.3471 3.77934 15.2296C4.13856 14.9956 4.66102 14.7398 5.2945 14.5026C6.56114 14.0282 8.23578 13.6413 9.86364 13.6413C11.4915 13.6413 13.1661 14.0282 14.4328 14.5026C15.0663 14.7398 15.5887 14.9956 15.9479 15.2296C16.1283 15.3471 16.259 15.4535 16.3415 15.5431C16.4158 15.6236 16.429 15.6663 16.4313 15.6738C16.4318 15.6754 16.4318 15.6754 16.4318 15.6739V17.0543H3.29545ZM28.7045 17.0543H18.9773V15.6739C18.9773 15.1223 18.7735 14.6382 18.4511 14.2096C19.5605 13.8803 20.8617 13.6413 22.1364 13.6413C23.7642 13.6413 25.4389 14.0282 26.7055 14.5026C27.339 14.7398 27.8614 14.9956 28.2207 15.2296C28.401 15.3471 28.5317 15.4535 28.6143 15.5431C28.6885 15.6236 28.7017 15.6663 28.704 15.6738C28.7045 15.6754 28.7045 15.6754 28.7045 15.6739V17.0543ZM9.86364 10.3804C12.6229 10.3804 14.8864 8.23104 14.8864 5.56522C14.8864 2.8994 12.6229 0.75 9.86364 0.75C7.10434 0.75 4.84091 2.8994 4.84091 5.56522C4.84091 8.23104 7.10434 10.3804 9.86364 10.3804ZM9.86364 3.20652C11.2362 3.20652 12.3409 4.27886 12.3409 5.56522C12.3409 6.85157 11.2362 7.92391 9.86364 7.92391C8.49112 7.92391 7.38636 6.85157 7.38636 5.56522C7.38636 4.27886 8.49112 3.20652 9.86364 3.20652ZM22.1364 10.3804C24.8957 10.3804 27.1591 8.23104 27.1591 5.56522C27.1591 2.8994 24.8957 0.75 22.1364 0.75C19.3771 0.75 17.1136 2.8994 17.1136 5.56522C17.1136 8.23104 19.3771 10.3804 22.1364 10.3804ZM22.1364 3.20652C23.5089 3.20652 24.6136 4.27886 24.6136 5.56522C24.6136 6.85157 23.5089 7.92391 22.1364 7.92391C20.7638 7.92391 19.6591 6.85157 19.6591 5.56522C19.6591 4.27886 20.7638 3.20652 22.1364 3.20652Z" fill="black" stroke="black" stroke-width="0.5"/>
</svg>
