<svg width="37" height="28" viewBox="0 0 37 28" fill="none" xmlns="http://www.w3.org/2000/svg">
<path fill-rule="evenodd" clip-rule="evenodd" d="M3.08333 0H33.9167C35.6125 0 37 1.3875 37 3.08333L36.9846 24.6667C36.9846 26.3625 35.6125 27.75 33.9167 27.75H3.08333C1.3875 27.75 0 26.3625 0 24.6667V3.08333C0 1.3875 1.3875 0 3.08333 0ZM13.875 10.7916C13.875 9.08551 12.4978 7.70829 10.7917 7.70829C9.08556 7.70829 7.70833 9.08551 7.70833 10.7916C7.70833 12.4977 9.08556 13.875 10.7917 13.875C12.4978 13.875 13.875 12.4977 13.875 10.7916ZM16.9583 20.0416V19.0138C16.9583 16.9583 12.8472 15.8277 10.7917 15.8277C8.73611 15.8277 4.625 16.9583 4.625 19.0138V20.0416H16.9583ZM32.375 16.9583H18.5V15.4167H32.375V16.9583ZM32.375 13.875H18.5V12.3333H32.375V13.875ZM18.5 10.7917V9.25H32.375V10.7917H18.5Z" fill="black"/>
</svg>
