<svg width="50" height="18" viewBox="0 0 50 18" fill="none" xmlns="http://www.w3.org/2000/svg">
<g clip-path="url(#clip0)">
<path d="M2.50673 0.00300953H1.63625C0.550404 0.00300953 0 0.331048 0 0.975088V16.9196C0 17.5636 0.550404 17.8917 1.63625 17.8917H2.50673C3.59258 17.8917 4.14299 17.5636 4.14299 16.9196V0.975088C4.14299 0.331048 3.59258 0.00300953 2.50673 0.00300953Z" fill="white"/>
<path d="M17.8492 15.9355C17.8492 14.0334 19.0847 12.4233 20.7927 11.8696C20.9871 10.9818 21.0888 10.0037 21.0888 8.9353C21.0859 3.17505 18.1962 0 12.9524 0H7.35866C6.57792 0 6.21298 0.367163 6.21298 1.15265V16.724C6.21298 17.5094 6.57792 17.8766 7.35866 17.8766H12.9524C14.9506 17.8766 16.6078 17.4131 17.8941 16.5223C17.8672 16.3297 17.8492 16.1341 17.8492 15.9355ZM12.9524 14.2892H10.3769V3.58435H12.9524C16.1741 3.58435 16.8501 6.49457 16.8501 8.9383C16.8501 11.379 16.1741 14.2892 12.9524 14.2892Z" fill="white"/>
<path d="M49.6949 13.1968C49.638 13.1727 49.5782 13.1577 49.5154 13.1577C49.2492 13.1487 49.0697 13.254 48.9111 13.5128C48.8154 13.6693 48.7227 13.8258 48.63 13.9853C48.277 14.5872 47.915 15.2132 47.3856 15.6586C46.6676 16.2635 45.6297 16.5494 44.7382 16.3839C44.2088 16.2876 43.8289 15.8994 43.6045 15.5954C43.1917 15.0326 42.9913 14.2742 43.0242 13.4015C44.3344 13.2901 48.2889 12.7032 48.603 9.68769C48.6629 9.10384 48.4983 8.57417 48.1244 8.15584C47.6488 7.62617 46.892 7.33424 45.9946 7.33424C43.3592 7.33424 40.7538 10.109 40.4247 13.272C40.335 14.1388 40.4427 14.9423 40.7448 15.6556C40.5205 15.8663 40.3051 16.0167 40.0957 16.1161C39.8743 16.2214 39.6829 16.2425 39.5423 16.1793C39.3688 16.098 39.297 15.8933 39.2701 15.7369C39.1654 15.159 39.3 14.4909 39.4585 13.8047C39.5513 13.4015 39.6679 12.9801 39.7726 12.6099C40.0927 11.4663 40.4218 10.2836 40.3111 9.0888C40.2124 7.99333 39.4466 7.31618 38.3189 7.31618C36.7364 7.31618 35.6955 8.45379 35.0194 9.42587C35.0045 8.70057 34.834 8.1739 34.4959 7.82179C34.1759 7.48773 33.7032 7.31618 33.096 7.31618C31.5435 7.31618 30.5145 8.40864 29.8414 9.36267C29.8504 9.27539 29.8594 9.1851 29.8684 9.09482C29.9102 8.68552 29.9312 8.09866 29.6051 7.73752C29.4107 7.52083 29.1205 7.41249 28.7406 7.41249C28.4056 7.41249 28.3218 7.4155 27.9599 7.47268C27.9569 7.47268 27.6069 7.5419 27.4753 7.66529C27.242 7.87897 27.3168 8.17691 27.3586 8.34544C27.3646 8.36651 27.3676 8.38758 27.3706 8.40263C27.3945 8.56514 27.4035 8.75173 27.3945 8.96842C27.3467 10.1181 27.1343 11.2647 26.9339 12.2368C26.8262 12.7604 26.7035 13.2931 26.5809 13.8198C26.3117 14.9875 26.0335 16.1913 25.8929 17.4041C25.8779 17.5335 25.9138 17.6539 25.9946 17.7472C26.0754 17.8405 26.192 17.8917 26.3177 17.8917H26.4014C27.2539 17.9037 28.0915 17.8676 28.2889 17.377C28.5073 16.8383 28.627 16.1793 28.7346 15.5984L28.7825 15.3396C29.0368 14.0034 29.2581 13.0463 29.7008 11.8154C29.9312 11.1804 30.35 10.6086 30.688 10.1843C31.0978 9.66663 31.5405 9.16103 32.0401 9.14899C32.2465 9.13695 32.3811 9.20015 32.4828 9.33558C32.9674 9.98865 32.3631 12.0893 32.1059 12.9891C32.049 13.1818 32.0042 13.3473 31.9743 13.4677L31.7978 14.1599C31.5375 15.1711 31.2653 16.2184 31.1277 17.2747C31.1128 17.3831 31.1008 17.4914 31.0888 17.6028L31.0769 17.7502L31.1875 17.8345C31.4089 18.006 32.9793 17.7653 32.9913 17.7623C33.5716 17.5666 33.6973 17.0159 33.7391 16.8353C33.8468 16.3689 33.9425 15.8933 34.0353 15.4299L34.0413 15.3968C34.2148 14.53 34.3942 13.6302 34.6605 12.7664C35.1839 11.0811 35.8809 9.93147 36.7305 9.34762C37.0954 9.09783 37.4693 9.07074 37.6398 9.28141C37.933 9.64556 37.7475 10.6327 37.6667 11.051C37.5561 11.6349 37.4155 12.2307 37.2809 12.8056L37.2749 12.8357C37.1881 13.2028 37.1014 13.567 37.0206 13.9341C36.7723 15.0717 36.5659 16.4832 37.2031 17.2958C37.5262 17.7111 38.0287 17.9218 38.6928 17.9218C39.3987 17.9218 40.0598 17.684 40.7807 17.1784C40.9781 17.037 41.1786 16.8745 41.4119 16.6788C42.2195 17.6058 43.1409 18 44.466 18C47.4663 18 48.8752 15.9957 49.6769 14.4879C49.7786 14.2983 49.8893 14.0756 49.9581 13.889C50.0658 13.6091 49.9461 13.3052 49.6949 13.1968ZM46.0185 9.38674C46.0215 9.43489 46.0275 9.48004 46.0275 9.52819C46.0275 9.59741 46.0245 9.66663 46.0185 9.74187C45.9916 9.99166 45.9467 10.2234 45.8839 10.4341C45.4562 11.8305 44.2507 12.0773 43.2097 12.1134C43.3503 11.5055 43.5597 10.9126 43.8169 10.3889C44.3254 9.35063 44.9596 8.70358 45.4801 8.70358C45.5279 8.70358 45.5728 8.7096 45.6207 8.72465C45.6416 8.73066 45.6596 8.73969 45.6895 8.75474L45.7104 8.76377C45.7194 8.76678 45.7284 8.76979 45.7343 8.77581C45.7553 8.79085 45.7762 8.80891 45.7972 8.82697L45.8151 8.84202C45.8211 8.84804 45.8301 8.85406 45.8361 8.86007C45.851 8.87512 45.863 8.89619 45.8749 8.91425L45.8899 8.93832C45.9019 8.95337 45.9108 8.97143 45.9198 8.98948C45.9258 9.00152 45.9288 9.01356 45.9437 9.04667C45.9587 9.07977 45.9707 9.11588 45.9826 9.152L45.9916 9.19413C46.0036 9.23927 46.0125 9.28442 46.0185 9.33257V9.38674Z" fill="white"/>
<path d="M22.0937 17.8887C23.1659 17.8887 24.0351 17.0142 24.0351 15.9355C24.0351 14.8568 23.1659 13.9823 22.0937 13.9823C21.0215 13.9823 20.1523 14.8568 20.1523 15.9355C20.1523 17.0142 21.0215 17.8887 22.0937 17.8887Z" fill="#4DBA76"/>
</g>
<defs>
<clipPath id="clip0">
<rect width="50" height="18" fill="white"/>
</clipPath>
</defs>
</svg>
