<svg width="20" height="16" viewBox="0 0 20 16" fill="none" xmlns="http://www.w3.org/2000/svg">
  <path fill-rule="evenodd" clip-rule="evenodd" d="M18 0C19.1046 0 20 0.89543 20 2V14C20 15.1046 19.1046 16 18 16H2C0.89543 16 0 15.1046 0 14V2C0 0.89543 0.89543 0 2 0H18ZM11 3H2V13H11V3ZM18 11H13V13H18V11ZM6.5 9C7.33 9 9 9.38 9 10.14V11H4V10.14C4 9.38 5.67 9 6.5 9ZM18 7H13V9H18V7ZM6.5 5C7.32843 5 8 5.67157 8 6.5C8 7.32843 7.32843 8 6.5 8C5.67157 8 5 7.32843 5 6.5C5 5.67157 5.67157 5 6.5 5ZM18 3H13V5H18V3Z" fill="black"/>
</svg>
