<svg width="33" height="30" viewBox="0 0 33 30" fill="none" xmlns="http://www.w3.org/2000/svg">
<path d="M15.6316 17.8845L10.4211 23.1111L15.6316 28.4445H0V24.8889C0 20.16 9.25737 17.7778 13.8947 17.7778C14.4505 17.7778 14.9542 17.8133 15.6316 17.8845Z" fill="black"/>
<path d="M20.8421 7.11111C20.8421 11.04 17.7332 14.2222 13.8947 14.2222C10.0563 14.2222 6.94737 11.04 6.94737 7.11111C6.94737 3.18222 10.0563 0 13.8947 0C17.7332 0 20.8421 3.18222 20.8421 7.11111Z" fill="black"/>
<path d="M15.6316 23.1111L21.6584 29.3333L33 17.6178L30.5684 15.1111L21.6584 24.3022L18.0632 20.6044L15.6316 23.1111Z" fill="black"/>
</svg>
