<svg width="39" height="64" viewBox="0 0 39 64" fill="none" xmlns="http://www.w3.org/2000/svg">
<path d="M20.9941 28.0889C12.2976 25.9911 9.50098 23.8222 9.50098 20.4444C9.50098 16.5689 13.3703 13.8667 19.8448 13.8667C26.664 13.8667 29.1925 16.8889 29.4224 21.3333H37.889C37.6208 15.2178 33.5982 9.6 25.5914 7.78667V0H14.0982V7.68C6.66601 9.17333 0.689587 13.6533 0.689587 20.5156C0.689587 28.7289 8.00688 32.8178 18.6955 35.2C28.2731 37.3333 30.1886 40.4622 30.1886 43.7689C30.1886 46.2222 28.3114 50.1333 19.8448 50.1333C11.9528 50.1333 8.84971 46.8622 8.42829 42.6667H0C0.459725 50.4533 6.74263 54.8267 14.0982 56.2844V64H25.5914V56.3556C33.0619 55.04 39 51.0222 39 43.7333C39 33.6356 29.6906 30.1867 20.9941 28.0889Z" fill="black"/>
</svg>
