<svg width="40" height="40" viewBox="0 0 40 40" fill="none" xmlns="http://www.w3.org/2000/svg">
<path d="M20 40C8.97471 40 0 31.0253 0 20C0 8.97471 8.97471 0 20 0C31.0253 0 40 8.97471 40 20C40 31.0253 31.0345 40 20 40ZM20 2.75862C10.492 2.75862 2.75862 10.492 2.75862 20C2.75862 29.508 10.492 37.2414 20 37.2414C29.508 37.2414 37.2414 29.508 37.2414 20C37.2414 10.492 29.508 2.75862 20 2.75862Z" fill="black"/>
<path d="M26.8318 23.4299C26.8318 19.7885 24.11 18.7495 21.1675 18.1609L19.6043 17.8667C17.2962 17.4437 17.1215 16.8092 17.1215 15.9632C17.1215 14.869 18.1698 14.2161 19.9261 14.2161C22.0043 14.2161 22.5376 15.2 22.7583 15.9357L22.7767 16C23.0341 16.6437 23.641 17.0299 24.4043 17.0299C24.5974 17.0299 24.7813 17.0023 24.91 16.9747C25.7192 16.8184 26.2893 16.2115 26.2893 15.4943C26.2893 15.3196 26.2525 15.1357 26.1882 14.9609C25.7744 13.7012 24.5974 11.715 21.3606 11.2552V9.09428C21.3606 7.29198 18.3629 7.29198 18.3629 9.09428V11.2736C14.8778 11.7885 13.5997 14.023 13.5997 15.9724C13.5997 19.5127 16.2204 20.5058 18.7767 21.0023L20.4594 21.3426C22.8594 21.8023 23.2824 22.3908 23.2824 23.4667C23.2824 24.7724 22.1146 25.554 20.1468 25.554C17.5997 25.554 17.0755 24.469 16.7261 23.2552C16.5238 22.5839 15.8801 22.1518 15.0801 22.1518C14.9054 22.1518 14.7675 22.1701 14.602 22.1977L14.5468 22.1885C13.7192 22.3724 13.1675 22.9793 13.1675 23.7058C13.1675 23.8437 13.1951 23.9632 13.2135 24.0552L13.241 24.1655C13.6089 25.3426 14.4273 27.9173 18.5008 28.4966V30.7586C18.5008 31.6598 19.2548 32.1288 19.9997 32.1288C20.7445 32.1288 21.4985 31.6598 21.4985 30.7586V28.5334C24.7353 28.1288 26.8318 26.1793 26.8318 23.4299Z" fill="black"/>
</svg>
