<svg width="179" height="173" viewBox="0 0 179 173" fill="none" xmlns="http://www.w3.org/2000/svg">
<path fill-rule="evenodd" clip-rule="evenodd" d="M64.9832 69.9267C65.0788 69.8902 65.1744 69.8442 65.27 69.7982C65.4824 69.696 65.6949 69.5937 65.9073 69.5963C67.2149 69.6119 68.5226 69.6244 69.8304 69.6368C74.3687 69.6802 78.9073 69.7235 83.4392 69.8973C85.5733 69.9781 87.5792 70.7638 89.1963 72.3535C93.7434 76.8217 92.5076 83.8012 86.6661 86.3418C86.0543 86.6085 85.4204 86.8217 84.6918 87.0668L84.6914 87.0669C84.3065 87.1964 83.8951 87.3348 83.4465 87.4947C84.4128 88.7572 85.3644 90.0166 86.3108 91.2691C88.6972 94.4274 91.051 97.5424 93.527 100.558C94.1879 101.363 95.1742 101.897 96.1603 102.432C96.6132 102.677 97.0661 102.922 97.4874 103.194C97.656 103.062 97.8247 102.929 97.9971 102.801V93.0679C98.105 93.0386 98.2138 93.0084 98.3226 92.9782C98.432 92.9479 98.5414 92.9175 98.6498 92.888C98.721 93.0629 98.7998 93.236 98.8786 93.409C99.0513 93.7883 99.224 94.1676 99.3172 94.5659C100.648 100.249 104.202 103.054 109.863 102.863C112.713 102.768 115.019 101.175 115.778 98.7844C116.508 96.4934 115.599 93.9785 113.101 92.352C111.339 91.2041 109.532 90.1242 107.725 89.0443L107.723 89.0435C105.872 87.9374 104.021 86.8311 102.218 85.6516C99.0018 83.5478 97.0803 80.6364 97.7807 76.5684C98.5324 72.2177 102.082 68.9354 106.482 68.8693C108.675 68.8363 110.945 69.2879 113.061 69.9194C113.301 69.9914 113.538 70.0711 113.77 70.1493C115.29 70.6612 116.622 71.1097 117.509 68.9281C117.53 68.8744 117.658 68.8637 117.834 68.849C117.936 68.8405 118.054 68.8307 118.177 68.8106V80.574L117.648 80.7612C117.569 80.5133 117.484 80.2665 117.4 80.0198L117.398 80.0147C117.216 79.4811 117.034 78.9477 116.897 78.4041C115.764 73.947 112.68 71.1236 108.338 70.9914C106.911 70.9474 105.276 71.3769 104.066 72.1259C101.187 73.9029 100.879 77.3835 103.545 79.5202C105.385 80.9933 107.432 82.2111 109.476 83.4276L109.477 83.4281L109.477 83.4284C110.26 83.8944 111.043 84.3603 111.814 84.8402C112.428 85.2235 113.056 85.5837 113.684 85.9438C114.536 86.4321 115.387 86.9201 116.2 87.4653C119.816 89.8958 121.385 93.7178 120.428 97.5508C119.497 101.274 115.888 104.266 111.913 104.861C108.653 105.349 105.65 104.468 102.621 103.546C102.474 103.502 102.327 103.453 102.179 103.404C101.073 103.038 99.9581 102.669 99.0458 104.071C98.9067 104.286 98.3779 104.282 97.9294 104.277C97.8345 104.276 97.7431 104.276 97.6597 104.277C97.1765 104.281 96.693 104.291 96.2094 104.3C94.678 104.33 93.1464 104.36 91.6275 104.229C90.7988 104.159 89.75 103.675 89.266 103.029C86.0794 98.7954 82.9148 94.5365 79.9628 90.1381C78.6648 88.2069 77.2126 87.6011 75.0308 88.24C75.0308 89.418 75.0183 90.5982 75.0058 91.7795V91.7828C74.9754 94.6539 74.945 97.5315 75.0931 100.4C75.1994 102.493 76.1088 102.937 78.4704 103.12C78.7826 103.146 79.0845 103.304 79.3867 103.463C79.5246 103.535 79.6625 103.608 79.8015 103.667C79.668 103.733 79.5345 103.815 79.4008 103.898C79.1124 104.077 78.8234 104.256 78.5327 104.259C74.3854 104.303 70.238 104.299 66.0907 104.259C65.8445 104.256 65.5983 104.073 65.3532 103.89C65.2406 103.806 65.1282 103.722 65.0162 103.656C65.1198 103.598 65.2219 103.528 65.3242 103.457C65.5442 103.305 65.7649 103.153 66.0026 103.12C69.0352 102.717 69.7723 102.382 69.82 99.5701C69.963 91.034 69.919 82.4941 69.71 73.958C69.644 71.2337 68.7932 70.7932 65.9697 70.5986C65.7534 70.5838 65.5404 70.5245 65.3263 70.4649C65.221 70.4356 65.1153 70.4062 65.0089 70.382C65.0052 70.2241 64.9942 70.0736 64.9832 69.9267ZM74.8548 71.9607V81.6864C74.8511 86.9439 75.2031 87.223 80.3699 85.8425C81.1803 85.6259 81.9944 85.2955 82.7094 84.8586C85.3093 83.2798 86.4094 80.8677 86.105 77.9048C85.808 74.997 84.2899 72.695 81.4076 72.0452C80.0097 71.733 78.5255 71.8092 76.9918 71.8879C76.2887 71.9241 75.5752 71.9607 74.8548 71.9607Z" fill="black"/>
<path d="M61.9909 70.2792C60.9789 69.2769 48.1224 69.2512 46.8537 70.393C47.0091 70.4269 47.138 70.4586 47.2499 70.4862C47.4651 70.5392 47.6172 70.5767 47.7741 70.5839C51.364 70.8115 51.9984 71.4687 51.9984 74.997C52.0021 82.8686 52.0021 90.7439 51.9984 98.6192C51.9948 102.147 51.4924 102.695 48.0381 103.106C47.8008 103.133 47.5804 103.282 47.3598 103.43C47.2565 103.5 47.1532 103.57 47.048 103.627C47.1569 103.695 47.2658 103.78 47.3748 103.865C47.6145 104.053 47.8547 104.241 48.0968 104.244C52.3615 104.288 56.6298 104.288 60.8982 104.248C61.1418 104.245 61.3838 104.067 61.6264 103.889C61.7416 103.804 61.8569 103.719 61.9726 103.653C61.852 103.593 61.7328 103.52 61.6137 103.446C61.36 103.29 61.1066 103.134 60.8396 103.109C57.7959 102.816 57.1395 102.14 57.1359 99.1149C57.1304 93.2051 57.1311 87.2934 57.1317 81.3811C57.132 79.4183 57.1322 77.4555 57.1322 75.4927C57.1322 71.3439 57.5062 70.9327 61.5839 70.5582C61.6787 70.5507 61.7666 70.4719 61.8582 70.39C61.9013 70.3514 61.9452 70.3121 61.9909 70.2792Z" fill="black"/>
<path d="M58.0112 60.3467L58.0134 60.3478C58.9408 60.817 59.8683 61.2862 60.7809 61.7761C60.9422 61.6072 61.1036 61.4383 61.2649 61.2731C61.0417 60.6188 60.8254 59.9616 60.6092 59.3044C60.09 57.7268 59.5708 56.1489 58.9547 54.6093C58.5073 53.4969 58.5623 52.781 59.4277 51.8704C62.2513 48.9039 64.9429 45.8456 65.1629 41.3994C65.2443 39.7647 65.4297 38.1353 65.6153 36.5051L65.6159 36.4987L65.6166 36.4924C65.6981 35.7763 65.7797 35.0599 65.8523 34.3429C65.6323 34.2474 65.4159 34.152 65.1959 34.0565C63.6196 35.4468 62.0419 36.837 60.4405 38.2482L60.3796 38.3019C59.3113 39.2434 58.2322 40.1943 57.1359 41.1608C57.1403 41.0584 57.1446 40.9568 57.1488 40.856C57.154 40.7306 57.1589 40.6064 57.1638 40.483L57.1666 40.4144C57.1858 39.9313 57.2044 39.4611 57.2312 38.9909C57.4329 35.5802 59.5378 33.2488 61.9396 31.2515C66.076 27.8224 66.8974 23.1559 67.3484 17.6487C65.4615 18.7868 63.6771 19.862 61.9361 20.9109L61.8955 20.9353C60.5615 21.7391 59.2527 22.5276 57.9426 23.3175C57.5869 19.1834 59.9338 16.5216 63.4137 15.0273C67.5318 13.2613 71.8111 11.7964 76.1345 10.6142C81.6937 9.09421 84.9316 5.36401 87.4398 0C86.5566 0.0730696 85.7376 0.140075 84.9565 0.203982L84.9278 0.206327L84.9259 0.206478L84.9227 0.206747C83.7932 0.299138 82.7422 0.38511 81.69 0.473619C78.364 0.752651 75.8082 2.16984 74.2937 5.29425C73.871 6.16883 73.2585 6.95634 72.6528 7.73507L72.6339 7.7594C72.5315 7.89114 72.4292 8.02266 72.3282 8.15432C71.0667 9.79914 69.5706 11.1282 67.9095 11.477C68.6155 9.75543 69.3393 7.99364 70.0878 6.1719L70.1532 6.01272C70.7409 4.5824 71.3437 3.11491 71.9652 1.60076C64.8072 2.20655 61.705 4.93078 60.4655 11.187C60.1795 12.6152 59.8531 14.047 59.3911 15.4238C59.1699 16.0881 58.8247 16.711 58.4795 17.3338L58.4792 17.3343L58.479 17.3349C58.3206 17.6205 58.1623 17.9062 58.0159 18.1958C57.9625 18.178 57.9096 18.1597 57.8569 18.1413C57.8224 18.1292 57.788 18.1171 57.7537 18.105C57.6894 18.0824 57.6253 18.0598 57.5612 18.0379C57.5368 16.9735 57.5764 15.904 57.6163 14.8237C57.7202 12.0175 57.8266 9.13853 56.8205 6.08729C56.1631 6.4836 55.5115 6.85385 54.8725 7.21698L54.8711 7.21777L54.8695 7.21867C53.4316 8.03572 52.0571 8.81675 50.8213 9.77711C49.1492 11.0805 48.5735 13.1475 49.4792 15.0677C50.2823 16.7712 51.4484 18.4454 52.8492 19.6901C56.8242 23.222 57.4292 25.1202 55.6287 29.7719C53.318 26.9816 50.9429 24.1145 48.5624 21.2409L47.8951 20.4354L47.059 20.7217C47.114 21.7714 47.1546 22.8227 47.1953 23.8739V23.8748C47.2956 26.4705 47.396 29.0658 47.7117 31.637C47.8731 32.9551 48.8558 34.3062 49.7799 35.3672C50.5168 36.2133 51.3462 36.9786 52.1756 37.7439L52.1763 37.7445C53.0059 38.51 53.8356 39.2755 54.5726 40.1218C55.3611 41.0249 56.0651 42.2879 56.1531 43.4408C56.2272 44.4405 55.9758 45.467 55.7172 46.5226C55.6045 46.9828 55.4905 47.4485 55.4014 47.9199C53.1792 44.7955 50.6087 42.0162 46.7033 39.7032C46.8801 41.0141 47.03 42.2847 47.1763 43.5239V43.5248C47.518 46.4223 47.8394 49.1476 48.4378 51.8117C48.8375 53.5703 49.9852 55.586 51.419 56.5993C53.4723 58.0506 55.7417 59.1986 58.0108 60.3465L58.0112 60.3467Z" fill="black"/>
<path fill-rule="evenodd" clip-rule="evenodd" d="M86.9577 18.6326C87.3213 18.6653 87.6818 18.6978 88.0375 18.7171C88.5875 20.8277 89.1466 22.9214 89.703 25.0053L89.7032 25.0059C91.0536 30.0633 92.3887 35.0631 93.5417 40.1071C94.1761 42.9047 95.8996 43.5876 98.6755 44.1016C99.2777 41.813 99.878 39.5308 100.477 37.2528C101.501 33.3585 102.523 29.4761 103.545 25.5938C103.622 25.5809 103.7 25.569 103.778 25.557L103.849 25.5462L103.908 25.537L103.945 25.5312C103.967 25.5276 103.989 25.524 104.011 25.5203C104.073 25.8323 104.163 26.1482 104.253 26.4643C104.449 27.1529 104.645 27.8425 104.557 28.4942C103.344 37.4893 101.627 46.3853 98.9799 55.0793C98.8807 55.4044 98.8184 55.7429 98.75 56.1151L98.7498 56.1161L98.7497 56.1168L98.7489 56.1214C98.7163 56.298 98.6824 56.4823 98.6425 56.6764C101.125 56.3717 103.039 55.9458 103.96 53.2289C106.354 46.154 107.788 38.8992 108.683 31.5158C108.947 29.324 108.859 27.1652 106.398 26.2032L106.913 25.0024C107.505 23.6195 108.068 22.3034 108.628 21.0008C110.472 21.4402 110.442 22.8264 110.415 24.0341C110.413 24.1181 110.411 24.2012 110.41 24.2831C110.399 25.0129 110.395 25.7451 110.391 26.4783C110.376 29.3483 110.362 32.2315 109.9 35.0331C108.891 41.17 107.707 47.2757 106.522 53.3814L106.522 53.3838L106.52 53.391L106.52 53.3936L106.52 53.3942C106.026 55.9377 105.533 58.4813 105.052 61.0271C104.979 61.4154 104.919 61.8067 104.855 62.2135C104.839 62.3183 104.823 62.4241 104.806 62.5312C104.786 62.657 104.766 62.7846 104.744 62.9142C108.063 62.5103 109.9 61.1115 110.769 57.877C113.633 47.226 115.236 36.4466 115.184 25.4175C115.177 23.8829 114.66 22.6272 113.219 21.9994C112.115 21.5185 112.093 20.9127 112.364 19.8443C112.749 18.3279 112.984 16.7309 112.984 15.1668C112.98 12.8795 111.877 12.0497 109.563 12.2774C109.239 12.3083 108.916 12.3609 108.655 12.4034L108.651 12.4042C108.541 12.422 108.443 12.4381 108.36 12.4499L108.454 13.6859L108.456 13.7117L108.469 13.8875C108.539 14.8024 108.606 15.6833 108.672 16.5546C108.024 16.3757 107.43 16.2115 106.862 16.0544L105.696 15.7321C105.315 15.6267 104.937 15.5224 104.554 15.4165C104.493 15.0515 104.438 14.681 104.383 14.3076C104.264 13.5017 104.143 12.6826 103.96 11.8772C103.23 8.63896 101.649 7.91568 98.7782 9.27412C99.0538 10.6878 99.3241 12.0779 99.5927 13.4598L99.9333 15.2109C99.8073 15.2579 99.6827 15.3061 99.5586 15.3542C99.4693 15.3887 99.3804 15.4231 99.2915 15.4569C98.861 14.8833 98.4236 14.3144 97.9863 13.7457L97.9859 13.7452L97.9856 13.7448C96.9928 12.4537 96.0003 11.163 95.0891 9.81749C94.3753 8.76202 94.99 7.93443 95.594 7.12109C95.7254 6.94422 95.8563 6.76801 95.9729 6.59028C96.5633 5.69077 97.1647 5.25754 98.3638 5.6614C102.163 6.94641 105.973 8.2094 109.838 9.27045C113.142 10.181 114.532 12.4499 115.008 15.5744C115.026 15.6872 115.046 15.8001 115.065 15.913C115.097 16.1012 115.13 16.2894 115.155 16.4775C116.079 23.6038 116.765 30.7412 116.167 37.9409C115.668 43.9401 115.162 49.9393 114.638 55.9348C114.582 56.5645 114.483 57.1894 114.364 57.9381C114.305 58.3112 114.242 58.7151 114.176 59.1656C114.488 58.9703 114.799 58.7816 115.106 58.5956L115.109 58.5937C117.567 57.1022 119.739 55.7851 119.856 52.6525C119.945 50.2908 120.062 47.9284 120.179 45.566C120.454 40.025 120.73 34.4836 120.637 28.9495C120.573 25.1941 120.035 21.4487 119.498 17.7021C119.239 15.8995 118.98 14.0965 118.774 12.2921C118.437 9.34021 116.746 7.51549 114.062 6.58293C113.366 6.34105 112.669 6.09789 111.973 5.85468C108.082 4.49579 104.187 3.13537 100.234 1.98626C94.9352 0.447919 94.2824 0.833424 91.4258 5.6357C91.3212 5.81323 91.2312 5.99935 91.1412 6.18533L91.1409 6.18576C91.0449 6.38415 90.9489 6.5827 90.8355 6.77018C89.684 8.66833 89.871 10.4196 91.2572 12.1452L91.276 12.1686C93.2865 14.6758 95.3003 17.1869 97.1647 19.8002C97.9164 20.8539 98.8185 22.2344 98.7121 23.3762C98.4653 26.039 97.9918 28.6825 97.5182 31.3263C97.3375 32.3351 97.1568 33.3439 96.9887 34.3539C96.787 34.3355 96.5816 34.3172 96.3799 34.2988C95.5091 30.7277 94.6394 27.1566 93.7421 23.4718C93.0979 20.8263 92.4394 18.1222 91.7559 15.3174C91.05 15.3174 90.3164 15.3028 89.5638 15.288C87.693 15.251 85.7053 15.2117 83.7362 15.3871C82.2437 15.5193 80.3149 15.9599 79.4825 16.9915C78.2907 18.4675 76.9963 18.7428 75.3901 19.0072C73.0213 19.3963 72.4052 20.2041 72.5739 22.6272C72.6334 23.5049 72.8533 24.3734 73.0563 25.1749C73.1411 25.51 73.223 25.8334 73.2889 26.1408C74.7594 25.9426 76.0025 25.7773 77.2456 25.6121C78.4337 25.4543 78.8664 25.9609 78.8408 27.1652C78.7967 29.1933 78.8058 31.2234 78.8149 33.2539C78.8186 34.0941 78.8224 34.9344 78.8224 35.7747V41.2856C78.0289 41.2856 77.2579 41.2904 76.503 41.2951H76.5026C74.6938 41.3063 72.9774 41.3169 71.2648 41.2599C70.1133 41.2232 69.5596 41.583 69.1599 42.7028C67.8754 46.2881 66.5313 49.8535 65.1876 53.4181C64.7054 54.6974 64.2232 55.9766 63.7438 57.2565C63.1094 58.949 62.4713 60.6379 61.8003 62.4112C62.0889 62.5397 62.3768 62.6691 62.664 62.7981C67.2513 64.8595 71.6732 66.8465 76.5562 64.0927C79.5375 62.4112 82.3281 62.4332 85.2946 64.0964C90.2979 66.8996 94.7707 64.8369 99.3247 62.7368L99.5847 62.6169C99.7338 62.5482 99.8829 62.4796 100.032 62.4112C99.5671 61.172 99.1046 59.9378 98.6439 58.7079L98.6145 58.6295L98.6135 58.6271L98.6116 58.6222C96.544 53.1037 94.5085 47.6714 92.4123 42.2659C92.2326 41.7996 91.3525 41.3554 90.7841 41.3333C88.9258 41.2607 87.0635 41.2709 85.108 41.2815C84.3933 41.2853 83.6661 41.2893 82.9221 41.2893V25.5717H86.8824L86.0585 23.8987C85.3471 22.454 84.6859 21.1113 83.9488 19.6166H81.5947C83.3382 18.3066 85.1852 18.473 86.9577 18.6326ZM78.6503 55.3939C77.4429 52.0245 76.2638 48.7336 75.0491 45.3389C76.4022 45.3389 77.484 45.3389 78.8261 45.3352C78.3054 48.3826 79.0571 50.5377 82.9111 50.1816V45.383H86.7468C85.7819 48.0654 84.8263 50.7181 83.8544 53.4161L83.8296 53.4852C82.874 56.138 81.9024 58.8351 80.8906 61.6475C80.124 59.507 79.3819 57.436 78.6503 55.3939ZM86.6729 58.2396C87.7866 54.7494 88.863 51.3755 90.047 47.674C91.6385 52.2559 93.065 56.3606 94.5978 60.7664H85.8667L86.6729 58.2396ZM75.9805 60.7738H67.2311C68.2754 57.7456 69.2677 54.8738 70.3033 51.8763L70.3363 51.7808C70.7957 50.4515 71.2637 49.0968 71.7488 47.6923C72.9474 51.4 74.0485 54.8029 75.1931 58.3402L75.9805 60.7738ZM78.034 21.3496C80.8649 20.8172 82.5884 21.4413 83.1458 23.3211H76.7212C76.1198 21.8709 76.9706 21.5515 78.034 21.3496ZM102.215 19.478L102.209 19.4693C101.662 18.5471 101.069 17.5484 100.362 16.36C100.83 16.3945 101.349 16.4079 101.833 16.4204C102.797 16.4454 103.627 16.4669 103.659 16.6427C103.872 17.7529 103.845 18.908 103.817 20.0623V20.0637C103.808 20.4551 103.798 20.8464 103.798 21.2357C103.714 21.2468 103.63 21.2569 103.547 21.267C103.502 21.2724 103.457 21.2779 103.411 21.2835C103.373 21.2883 103.335 21.2931 103.296 21.2982L102.215 19.478Z" fill="black"/>
<path d="M41.7792 127.18C43.6992 127.18 44.9442 126.265 45.7242 124.675L43.8642 123.595C43.5492 124.45 42.9042 125.155 41.7792 125.155C40.4442 125.155 39.5592 124.255 39.5592 122.605V120.925C39.5592 119.275 40.4442 118.375 41.7792 118.375C42.9042 118.375 43.4592 118.96 43.7292 119.83L45.6942 118.81C44.9292 117.13 43.6992 116.35 41.7792 116.35C38.9592 116.35 37.1442 118.3 37.1442 121.84C37.1442 125.38 38.9592 127.18 41.7792 127.18ZM56.4447 127V124.975H51.5997V122.71H55.7547V120.7H51.5997V118.555H56.4447V116.53H49.3197V127H56.4447ZM62.7111 123.16H64.3461L66.1761 127H68.7111L66.6561 122.89C67.9311 122.41 68.5611 121.285 68.5611 119.875C68.5611 117.88 67.3311 116.53 65.3961 116.53H60.4311V127H62.7111V123.16ZM62.7111 121.24V118.51H65.1111C65.7861 118.51 66.2061 118.87 66.2061 119.545V120.205C66.2061 120.88 65.7861 121.24 65.1111 121.24H62.7111ZM79.3723 118.555V116.53H71.4223V118.555H74.2573V127H76.5373V118.555H79.3723ZM87.4484 127V125.185H86.0984V118.345H87.4484V116.53H82.4684V118.345H83.8184V125.185H82.4684V127H87.4484ZM93.6281 127V122.71H97.6031V120.7H93.6281V118.555H98.2931V116.53H91.3481V127H93.6281ZM106.697 127V125.185H105.347V118.345H106.697V116.53H101.717V118.345H103.067V125.185H101.717V127H106.697ZM117.722 127V124.975H112.877V122.71H117.032V120.7H112.877V118.555H117.722V116.53H110.597V127H117.722ZM121.708 127H125.653C128.428 127 130.258 125.245 130.258 121.765C130.258 118.285 128.428 116.53 125.653 116.53H121.708V127ZM123.988 124.975V118.555H125.653C127.003 118.555 127.843 119.29 127.843 120.955V122.575C127.843 124.24 127.003 124.975 125.653 124.975H123.988ZM33.2529 145L36.6579 134.53H34.4229L32.8629 139.555L32.0679 142.84H32.0229L31.1979 139.555L29.6379 134.53H27.3279L30.7029 145H33.2529ZM43.76 145.18C46.535 145.18 48.365 143.32 48.365 139.765C48.365 136.21 46.535 134.35 43.76 134.35C40.985 134.35 39.155 136.21 39.155 139.765C39.155 143.32 40.985 145.18 43.76 145.18ZM43.76 143.155C42.395 143.155 41.57 142.21 41.57 140.545V138.985C41.57 137.32 42.395 136.375 43.76 136.375C45.125 136.375 45.95 137.32 45.95 138.985V140.545C45.95 142.21 45.125 143.155 43.76 143.155ZM58.538 145V142.975H54.548V134.53H52.268V145H58.538ZM61.664 134.53V140.71C61.664 143.8 62.774 145.18 65.774 145.18C68.774 145.18 69.884 143.8 69.884 140.71V134.53H67.664V140.95C67.664 142.42 67.124 143.155 65.774 143.155C64.424 143.155 63.884 142.42 63.884 140.95V134.53H61.664ZM80.1991 145H82.6891V134.53H80.5441V141.58H80.4991L79.4941 139.48L76.6291 134.53H74.1391V145H76.2841V137.95H76.3291L77.3341 140.05L80.1991 145ZM94.1936 136.555V134.53H86.2436V136.555H89.0786V145H91.3586V136.555H94.1936ZM104.878 145V142.975H100.033V140.71H104.188V138.7H100.033V136.555H104.878V134.53H97.7533V145H104.878ZM115.99 145V142.975H111.145V140.71H115.3V138.7H111.145V136.555H115.99V134.53H108.865V145H115.99ZM122.256 141.16H123.891L125.721 145H128.256L126.201 140.89C127.476 140.41 128.106 139.285 128.106 137.875C128.106 135.88 126.876 134.53 124.941 134.53H119.976V145H122.256V141.16ZM122.256 139.24V136.51H124.656C125.331 136.51 125.751 136.87 125.751 137.545V138.205C125.751 138.88 125.331 139.24 124.656 139.24H122.256ZM135.473 145.18C138.083 145.18 139.553 143.785 139.553 141.775C139.553 139.975 138.518 139.015 136.373 138.67L135.338 138.505C134.468 138.37 134.093 138.1 134.093 137.38C134.093 136.75 134.588 136.36 135.608 136.36C136.688 136.36 137.363 136.765 137.858 137.35L139.373 135.82C138.518 134.875 137.318 134.35 135.743 134.35C133.283 134.35 131.813 135.655 131.813 137.53C131.813 139.285 132.818 140.365 135.023 140.65L136.058 140.785C137.033 140.92 137.273 141.34 137.273 141.91C137.273 142.675 136.733 143.17 135.623 143.17C134.603 143.17 133.703 142.765 132.998 141.97L131.498 143.485C132.398 144.475 133.643 145.18 135.473 145.18Z" fill="black"/>
<path d="M161.987 22.3031L156.036 21.3825L153.376 15.6418C153.303 15.4846 153.184 15.3574 153.036 15.28C152.666 15.0854 152.216 15.2476 152.031 15.6418L149.37 21.3825L143.42 22.3031C143.256 22.328 143.106 22.4103 142.991 22.5351C142.852 22.687 142.775 22.8914 142.778 23.1033C142.781 23.3152 142.862 23.5173 143.005 23.6653L147.31 28.1335L146.293 34.443C146.269 34.5898 146.285 34.7408 146.337 34.8788C146.39 35.0168 146.478 35.1363 146.591 35.2239C146.704 35.3114 146.838 35.3634 146.978 35.374C147.117 35.3846 147.257 35.3534 147.381 35.2838L152.703 32.305L158.026 35.2838C158.171 35.3661 158.34 35.3936 158.502 35.3637C158.91 35.2888 159.184 34.8772 159.113 34.443L158.096 28.1335L162.402 23.6653C162.519 23.543 162.596 23.3833 162.62 23.2087C162.683 22.7721 162.397 22.3679 161.987 22.3031Z" fill="#FFAB48"/>
<path d="M12.0055 112.673L8.28631 112.098L6.62371 108.51C6.5783 108.412 6.50359 108.332 6.41131 108.284C6.17986 108.162 5.89861 108.264 5.78289 108.51L4.12029 112.098L0.401051 112.673C0.298512 112.689 0.204762 112.74 0.132985 112.818C0.0462101 112.913 -0.0016068 113.041 4.12294e-05 113.173C0.00168926 113.306 0.0526674 113.432 0.141774 113.525L2.83269 116.317L2.19695 120.261C2.18204 120.353 2.19158 120.447 2.22448 120.533C2.25738 120.619 2.31232 120.694 2.38309 120.749C2.45385 120.804 2.53759 120.836 2.62483 120.843C2.71207 120.849 2.7993 120.83 2.87664 120.786L6.2033 118.924L9.52996 120.786C9.62078 120.838 9.72625 120.855 9.82732 120.836C10.0822 120.789 10.2536 120.532 10.2096 120.261L9.5739 116.317L12.2648 113.525C12.3381 113.448 12.3864 113.348 12.4011 113.239C12.4406 112.966 12.2619 112.714 12.0055 112.673Z" fill="#FFAB48"/>
<circle cx="175.203" cy="7.5" r="3.5" fill="#C6F9EC"/>
<circle cx="71.2033" cy="169.5" r="3.5" fill="#8E8EEF"/>
</svg>
