<svg width="177" height="139" viewBox="0 0 177 139" fill="none" xmlns="http://www.w3.org/2000/svg">
  <path d="M47.0759 94.18C48.9959 94.18 50.2409 93.265 51.0209 91.675L49.1609 90.595C48.8459 91.45 48.2009 92.155 47.0759 92.155C45.7409 92.155 44.8559 91.255 44.8559 89.605V87.925C44.8559 86.275 45.7409 85.375 47.0759 85.375C48.2009 85.375 48.7559 85.96 49.0259 86.83L50.9909 85.81C50.2259 84.13 48.9959 83.35 47.0759 83.35C44.2559 83.35 42.4409 85.3 42.4409 88.84C42.4409 92.38 44.2559 94.18 47.0759 94.18ZM61.7414 94V91.975H56.8964V89.71H61.0514V87.7H56.8964V85.555H61.7414V83.53H54.6164V94H61.7414ZM68.0078 90.16H69.6428L71.4728 94H74.0078L71.9528 89.89C73.2278 89.41 73.8578 88.285 73.8578 86.875C73.8578 84.88 72.6278 83.53 70.6928 83.53H65.7278V94H68.0078V90.16ZM68.0078 88.24V85.51H70.4078C71.0828 85.51 71.5028 85.87 71.5028 86.545V87.205C71.5028 87.88 71.0828 88.24 70.4078 88.24H68.0078ZM84.669 85.555V83.53H76.719V85.555H79.554V94H81.834V85.555H84.669ZM92.7451 94V92.185H91.3951V85.345H92.7451V83.53H87.7651V85.345H89.1151V92.185H87.7651V94H92.7451ZM98.9247 94V89.71H102.9V87.7H98.9247V85.555H103.59V83.53H96.6447V94H98.9247ZM111.994 94V92.185H110.644V85.345H111.994V83.53H107.014V85.345H108.364V92.185H107.014V94H111.994ZM123.019 94V91.975H118.174V89.71H122.329V87.7H118.174V85.555H123.019V83.53H115.894V94H123.019ZM127.005 94H130.95C133.725 94 135.555 92.245 135.555 88.765C135.555 85.285 133.725 83.53 130.95 83.53H127.005V94ZM129.285 91.975V85.555H130.95C132.3 85.555 133.14 86.29 133.14 87.955V89.575C133.14 91.24 132.3 91.975 130.95 91.975H129.285ZM38.5496 112L41.9546 101.53H39.7196L38.1596 106.555L37.3646 109.84H37.3196L36.4946 106.555L34.9346 101.53H32.6246L35.9996 112H38.5496ZM49.0567 112.18C51.8317 112.18 53.6617 110.32 53.6617 106.765C53.6617 103.21 51.8317 101.35 49.0567 101.35C46.2817 101.35 44.4517 103.21 44.4517 106.765C44.4517 110.32 46.2817 112.18 49.0567 112.18ZM49.0567 110.155C47.6917 110.155 46.8667 109.21 46.8667 107.545V105.985C46.8667 104.32 47.6917 103.375 49.0567 103.375C50.4217 103.375 51.2467 104.32 51.2467 105.985V107.545C51.2467 109.21 50.4217 110.155 49.0567 110.155ZM63.8347 112V109.975H59.8447V101.53H57.5647V112H63.8347ZM66.9607 101.53V107.71C66.9607 110.8 68.0707 112.18 71.0707 112.18C74.0707 112.18 75.1807 110.8 75.1807 107.71V101.53H72.9607V107.95C72.9607 109.42 72.4207 110.155 71.0707 110.155C69.7207 110.155 69.1807 109.42 69.1807 107.95V101.53H66.9607ZM85.4958 112H87.9858V101.53H85.8408V108.58H85.7958L84.7908 106.48L81.9258 101.53H79.4358V112H81.5808V104.95H81.6258L82.6308 107.05L85.4958 112ZM99.4903 103.555V101.53H91.5403V103.555H94.3753V112H96.6553V103.555H99.4903ZM110.175 112V109.975H105.33V107.71H109.485V105.7H105.33V103.555H110.175V101.53H103.05V112H110.175ZM121.286 112V109.975H116.441V107.71H120.596V105.7H116.441V103.555H121.286V101.53H114.161V112H121.286ZM127.553 108.16H129.188L131.018 112H133.553L131.498 107.89C132.773 107.41 133.403 106.285 133.403 104.875C133.403 102.88 132.173 101.53 130.238 101.53H125.273V112H127.553V108.16ZM127.553 106.24V103.51H129.953C130.628 103.51 131.048 103.87 131.048 104.545V105.205C131.048 105.88 130.628 106.24 129.953 106.24H127.553ZM140.77 112.18C143.38 112.18 144.85 110.785 144.85 108.775C144.85 106.975 143.815 106.015 141.67 105.67L140.635 105.505C139.765 105.37 139.39 105.1 139.39 104.38C139.39 103.75 139.885 103.36 140.905 103.36C141.985 103.36 142.66 103.765 143.155 104.35L144.67 102.82C143.815 101.875 142.615 101.35 141.04 101.35C138.58 101.35 137.11 102.655 137.11 104.53C137.11 106.285 138.115 107.365 140.32 107.65L141.355 107.785C142.33 107.92 142.57 108.34 142.57 108.91C142.57 109.675 142.03 110.17 140.92 110.17C139.9 110.17 139 109.765 138.295 108.97L136.795 110.485C137.695 111.475 138.94 112.18 140.77 112.18Z" fill="black"/>
  <path d="M60.449 72V65.345H55.499V40.265H60.449V33.61H42.189V40.265H47.139V65.345H42.189V72H60.449ZM77.7742 57.92H83.7692L90.4792 72H99.7742L92.2392 56.93C96.9142 55.17 99.2242 51.045 99.2242 45.875C99.2242 38.56 94.7142 33.61 87.6192 33.61H69.4142V72H77.7742V57.92ZM77.7742 50.88V40.87H86.5742C89.0492 40.87 90.5892 42.19 90.5892 44.665V47.085C90.5892 49.56 89.0492 50.88 86.5742 50.88H77.7742ZM120.905 72.66C130.475 72.66 135.865 67.545 135.865 60.175C135.865 53.575 132.07 50.055 124.205 48.79L120.41 48.185C117.22 47.69 115.845 46.7 115.845 44.06C115.845 41.75 117.66 40.32 121.4 40.32C125.36 40.32 127.835 41.805 129.65 43.95L135.205 38.34C132.07 34.875 127.67 32.95 121.895 32.95C112.875 32.95 107.485 37.735 107.485 44.61C107.485 51.045 111.17 55.005 119.255 56.05L123.05 56.545C126.625 57.04 127.505 58.58 127.505 60.67C127.505 63.475 125.525 65.29 121.455 65.29C117.715 65.29 114.415 63.805 111.83 60.89L106.33 66.445C109.63 70.075 114.195 72.66 120.905 72.66Z" fill="black"/>
  <path d="M112.209 7.30306L106.258 6.38246L103.598 0.641787C103.525 0.484611 103.406 0.357373 103.258 0.280032C102.888 0.0854334 102.438 0.247599 102.253 0.641787L99.5925 6.38246L93.6417 7.30306C93.4776 7.32801 93.3276 7.41034 93.2128 7.53508C93.0739 7.68699 92.9974 7.89135 93.0001 8.10327C93.0027 8.31519 93.0843 8.51732 93.2268 8.66526L97.5323 13.1335L96.5151 19.443C96.4913 19.5898 96.5065 19.7408 96.5592 19.8788C96.6118 20.0168 96.6997 20.1363 96.8129 20.2239C96.9262 20.3114 97.0602 20.3634 97.1997 20.374C97.3393 20.3846 97.4789 20.3534 97.6026 20.2838L102.925 17.305L108.248 20.2838C108.393 20.3661 108.562 20.3936 108.724 20.3637C109.132 20.2888 109.406 19.8772 109.335 19.443L108.318 13.1335L112.624 8.66526C112.741 8.54301 112.818 8.38334 112.842 8.2087C112.905 7.7721 112.619 7.36793 112.209 7.30306V7.30306Z" fill="#FFAB48"/>
  <path d="M12.0055 78.6733L8.28631 78.0979L6.62371 74.51C6.5783 74.4117 6.50359 74.3322 6.41131 74.2839C6.17986 74.1623 5.89861 74.2636 5.78289 74.51L4.12029 78.0979L0.401051 78.6733C0.298512 78.6889 0.204762 78.7403 0.132985 78.8183C0.0462101 78.9132 -0.0016068 79.041 4.12294e-05 79.1734C0.00168926 79.3059 0.0526674 79.4322 0.141774 79.5247L2.83269 82.3174L2.19695 86.2608C2.18204 86.3525 2.19158 86.4469 2.22448 86.5331C2.25738 86.6194 2.31232 86.6941 2.38309 86.7488C2.45385 86.8035 2.53759 86.836 2.62483 86.8427C2.71207 86.8493 2.7993 86.8298 2.87664 86.7863L6.2033 84.9245L9.52996 86.7863C9.62078 86.8378 9.72625 86.8549 9.82732 86.8362C10.0822 86.7894 10.2536 86.5321 10.2096 86.2608L9.5739 82.3174L12.2648 79.5247C12.3381 79.4483 12.3864 79.3485 12.4011 79.2393C12.4406 78.9664 12.2619 78.7138 12.0055 78.6733V78.6733Z" fill="#FFAB48"/>
  <circle cx="173.5" cy="68.5" r="3.5" fill="#C6F9EC"/>
  <circle cx="71.2034" cy="135.5" r="3.5" fill="#8E8EEF"/>
</svg>
