<svg width="76" height="82" viewBox="0 0 76 82" fill="none" xmlns="http://www.w3.org/2000/svg">
<path fill-rule="evenodd" clip-rule="evenodd" d="M76 16.4V73.8C76 78.31 72.2 82 67.5556 82H8.44444C3.75778 82 0 78.31 0 73.8L0.0422222 16.4C0.0422222 11.89 3.75778 8.2 8.44444 8.2H12.6667V0H21.1111V8.2H54.8889V0H63.3333V8.2H67.5556C72.2 8.2 76 11.89 76 16.4ZM67.5555 73.8002V32.8002H8.44441V73.8002H67.5555ZM67.5555 24.5998H8.44441V16.3998H67.5555V24.5998Z" fill="black"/>
<path d="M16.8889 36.9006H25.3333V45.1006H16.8889V36.9006Z" fill="black"/>
<path d="M50.6666 45.1006H59.1111V36.9006H50.6666V45.1006Z" fill="black"/>
<path d="M42.2223 45.1006H33.7778V36.9006H42.2223V45.1006Z" fill="black"/>
</svg>
