<svg width="14" height="18" viewBox="0 0 14 18" fill="none" xmlns="http://www.w3.org/2000/svg">
  <path d="M13.6666 9C13.6666 8.08084 12.9191 7.33334 11.9999 7.33334H11.1666V4.83334C11.1666 2.53584 9.29742 0.666672 6.99992 0.666672C4.70242 0.666672 2.83325 2.53584 2.83325 4.83334V7.33334H1.99992C1.08075 7.33334 0.333252 8.08084 0.333252 9V15.6667C0.333252 16.5858 1.08075 17.3333 1.99992 17.3333H11.9999C12.9191 17.3333 13.6666 16.5858 13.6666 15.6667V9ZM4.49992 4.83334C4.49992 3.455 5.62158 2.33334 6.99992 2.33334C8.37825 2.33334 9.49992 3.455 9.49992 4.83334V7.33334H4.49992V4.83334Z" fill="#D73D02"/>
</svg>
