<svg width="334" height="290" viewBox="18.5 38.5 334 290" fill="none" xmlns="http://www.w3.org/2000/svg">
  <path d="M320.476 281.014C290.65 316.894 240.811 333.57 201.041 326.304C161.252 318.966 131.533 287.686 95.7866 253.463C59.9686 219.259 18.1432 182.184 19.0811 146.011C20.0716 109.747 63.8972 74.3653 109.849 55.2546C155.8 36.1438 203.787 33.2513 247.518 49.2665C291.25 65.2817 330.727 100.205 345.467 145.155C360.227 190.177 350.375 245.116 320.476 281.014Z" fill="#F1B630" fill-opacity="0.19"/>
  <g transform="translate(80,100)">
    <path d="M0.25177 134.416H230.252V164.286H0.25177V134.416Z" fill="#02CE9D"/>
    <path d="M0.25177 0H230.252V134.416H0.25177V0Z" fill="#02CE9D"/>
    <path d="M7.91846 7.46754H222.581V126.948H7.91846V7.46754Z" fill="#02CE9D"/>
    <path d="M200.919 14.9351H29.5767C27.2562 21.2981 22.1172 26.305 15.5851 28.567V105.852C22.1163 108.114 27.2552 113.119 29.5767 119.481H200.915C203.238 113.12 208.377 108.115 214.907 105.852V28.567C208.376 26.305 203.238 21.2979 200.919 14.9351V14.9351Z" fill="#07E4AF"/>
    <path d="M0.25177 149.351H230.252V156.818H0.25177V149.351Z" fill="#03AC84"/>
    <path fill-rule="evenodd" clip-rule="evenodd" d="M76.9184 67.2153C76.9184 126.941 153.585 126.941 153.585 67.2153C153.585 7.46379 76.9184 7.46379 76.9184 67.2153ZM168.918 67.2115C168.918 87.1237 199.577 87.1237 199.577 67.2115C199.577 47.2919 168.918 47.2919 168.918 67.2115Z" fill="#02CE9D"/>
    <path d="M84.5851 81.1795C96.9667 112.334 133.529 112.334 145.918 81.1795C138.52 62.5518 91.9872 62.5518 84.5851 81.1795Z" fill="#02CE9D"/>
    <path fill-rule="evenodd" clip-rule="evenodd" d="M46.2518 63.474C42.0181 63.474 38.5858 60.1315 38.5851 56.0078C38.5844 51.884 42.0156 48.5403 46.2492 48.539C50.4829 48.5376 53.9163 51.8791 53.9185 56.0028H61.5851C61.5851 49.0692 56.6785 43.2744 50.0851 41.6016V37.3377H42.4185V41.6016C35.8213 43.2744 30.9185 49.0692 30.9185 56.0028C30.9269 64.2484 37.7863 70.9313 46.2518 70.9416C50.48 70.9416 53.9185 74.287 53.9185 78.4091C53.9185 82.5312 50.48 85.8766 46.2518 85.8766C42.0236 85.8766 38.5851 82.5312 38.5851 78.4091H30.9185C30.9185 85.3427 35.8213 91.145 42.4185 92.8065V97.0779H50.0851V92.8028C56.6823 91.1413 61.5851 85.339 61.5851 78.4054C61.5746 70.1618 54.7152 63.4823 46.2518 63.474ZM80.7518 104.545H149.752V112.013H80.7518V104.545ZM207.244 89.6104H161.252V97.0779H207.244V89.6104Z" fill="#02CE9D"/>
    <path d="M0.25177 134.416H230.252V141.883H0.25177V134.416Z" fill="#03AC84"/>
    <path d="M96.0851 134.416H134.418V164.286H96.0851V134.416Z" fill="#747474"/>
    <path fill-rule="evenodd" clip-rule="evenodd" d="M99.9184 134.416H92.2518V164.286H99.9184V134.416ZM138.252 134.416H130.585V164.286H138.252V134.416Z" fill="#F59E01"/>
    <path d="M96.0851 0H134.418V134.416H96.0851V0Z" fill="#A6A6A6"/>
    <path fill-rule="evenodd" clip-rule="evenodd" d="M138.252 0H130.585V134.416H138.252V0ZM99.9184 4.35965e-06H92.2518V134.416H99.9184V4.35965e-06Z" fill="#F9C802"/>
  </g>
</svg>