<svg width="40" height="40" viewBox="0 0 40 40" fill="none" xmlns="http://www.w3.org/2000/svg">
<path d="M14 24H26V27H14V24ZM27 12C25.34 12 24 13.34 24 15C24 16.66 25.34 18 27 18C28.66 18 30 16.66 30 15C30 13.34 28.66 12 27 12ZM16 15C16 13.34 14.66 12 13 12C11.34 12 10 13.34 10 15C10 16.66 11.34 18 13 18C14.66 18 16 16.66 16 15ZM19.98 0C8.94 0 0 8.96 0 20C0 31.04 8.94 40 19.98 40C31.04 40 40 31.04 40 20C40 8.96 31.04 0 19.98 0ZM20 36C11.16 36 4 28.84 4 20C4 11.16 11.16 4 20 4C28.84 4 36 11.16 36 20C36 28.84 28.84 36 20 36Z" fill="#EC7100"/>
</svg>
