<svg width="86" height="82" viewBox="0 0 86 82" fill="none" xmlns="http://www.w3.org/2000/svg">
<path d="M78.317 17.1053C85.9971 27.661 86.9119 42.1957 81.9762 52.3185C77.0192 62.4413 66.9808 69.9106 50.4725 72.9814C33.9642 76.0522 35.3692 82.535 21.6709 81.5114C7.97251 80.4878 2.47299 70.956 0.600821 57.2871C-1.27134 43.6183 1.47308 30.5679 9.11066 20.0122C16.7482 9.45648 29.279 1.39537 42.7458 0.673786C56.2339 -0.0477974 70.6368 6.52891 78.317 17.1053Z" fill="#02CE9D" fill-opacity="0.3"/>
<path d="M67.5751 24.7249C66.913 22.4835 65.5386 20.5179 63.6594 19.1245C61.7801 17.7311 59.4979 16.9855 57.157 17.0002C54.444 17.0026 51.83 18.018 49.8289 19.8467C47.8278 21.6753 46.5843 24.1851 46.3429 26.8825H39.6604C39.4157 24.1823 38.1681 21.671 36.1627 19.8423C34.1574 18.0137 31.5393 16.9999 28.8232 17.0002C26.4854 16.9888 24.2072 17.7359 22.3317 19.1292C20.4563 20.5224 19.0852 22.4862 18.4249 24.7249L10.1386 52.29C10.0478 52.597 10.0012 52.9153 10 53.2354V56.5295C10.0052 60.8967 11.7458 65.0835 14.8397 68.1713C17.9336 71.2591 22.1283 72.9956 26.5033 73C29.7098 72.9945 32.8454 72.0571 35.527 70.3022C38.2087 68.5472 40.3203 66.0508 41.6041 63.1177H44.3959C45.6797 66.0508 47.7913 68.5472 50.473 70.3022C53.1546 72.0571 56.2902 72.9945 59.4967 73C63.8723 72.9956 68.0674 71.2586 71.1615 68.1701C74.2555 65.0816 75.9956 60.894 76 56.5262V53.2354C76 52.9125 75.9505 52.5963 75.8614 52.29L67.5751 24.7249ZM26.5033 66.4118C23.8784 66.4083 21.362 65.3661 19.5056 63.5137C17.6493 61.6612 16.6044 59.1497 16.6 56.5295C16.6 56.2791 16.6561 56.0452 16.6726 55.7982C16.8532 53.3171 17.966 50.9956 19.7883 49.2987C21.6107 47.6018 24.0079 46.6547 26.5 46.6472C29.1256 46.6472 31.6437 47.6883 33.5004 49.5416C35.357 51.3949 36.4 53.9085 36.4 56.5295V56.5591C36.3887 59.1733 35.3415 61.6768 33.4872 63.5228C31.6329 65.3689 29.1222 66.4075 26.5033 66.4118ZM59.4967 66.4118C56.8778 66.4075 54.3671 65.3689 52.5128 63.5228C50.6585 61.6768 49.6113 59.1733 49.6 56.5591V56.5295C49.5998 55.2317 49.8556 53.9466 50.353 52.7476C50.8503 51.5485 51.5793 50.459 52.4985 49.5411C54.3548 47.6875 56.8727 46.6459 59.4984 46.6455C62.124 46.6451 64.6423 47.6858 66.4992 49.5388C68.3561 51.3918 69.3996 53.9052 69.4 56.5262C69.3965 59.1469 68.352 61.6594 66.4955 63.5125C64.6391 65.3657 62.1221 66.4083 59.4967 66.4118Z" fill="black"/>
</svg>
