<svg width="94" height="94" viewBox="0 0 94 94" fill="none" xmlns="http://www.w3.org/2000/svg">
<rect width="94" height="94" fill="white"/>
<path d="M31.9361 46V34.8H30.1281C30.0641 35.2267 29.9307 35.584 29.7281 35.872C29.5254 36.16 29.2747 36.3947 28.9761 36.576C28.6881 36.7467 28.3574 36.8693 27.9841 36.944C27.6214 37.008 27.2427 37.0347 26.8481 37.024V38.736H29.6641V46H31.9361ZM37.1627 40.352C37.1627 40.16 37.1627 39.9307 37.1627 39.664C37.1734 39.3867 37.1947 39.104 37.2267 38.816C37.2587 38.528 37.312 38.2453 37.3867 37.968C37.4614 37.68 37.5627 37.424 37.6907 37.2C37.8294 36.976 38 36.7947 38.2027 36.656C38.416 36.5173 38.6774 36.448 38.9867 36.448C39.296 36.448 39.5574 36.5173 39.7707 36.656C39.984 36.7947 40.16 36.976 40.2987 37.2C40.4374 37.424 40.5387 37.68 40.6027 37.968C40.6774 38.2453 40.7307 38.528 40.7627 38.816C40.8054 39.104 40.8267 39.3867 40.8267 39.664C40.8374 39.9307 40.8427 40.16 40.8427 40.352C40.8427 40.672 40.832 41.0613 40.8107 41.52C40.7894 41.968 40.72 42.4053 40.6027 42.832C40.496 43.248 40.3147 43.6053 40.0587 43.904C39.8134 44.2027 39.456 44.352 38.9867 44.352C38.528 44.352 38.176 44.2027 37.9307 43.904C37.6854 43.6053 37.504 43.248 37.3867 42.832C37.28 42.4053 37.216 41.968 37.1947 41.52C37.1734 41.0613 37.1627 40.672 37.1627 40.352ZM34.8907 40.352C34.8907 41.472 34.9974 42.4107 35.2107 43.168C35.4347 43.9147 35.7334 44.512 36.1067 44.96C36.48 45.408 36.912 45.728 37.4027 45.92C37.904 46.112 38.432 46.208 38.9867 46.208C39.552 46.208 40.08 46.112 40.5707 45.92C41.072 45.728 41.5094 45.408 41.8827 44.96C42.2667 44.512 42.5654 43.9147 42.7787 43.168C43.0027 42.4107 43.1147 41.472 43.1147 40.352C43.1147 39.264 43.0027 38.352 42.7787 37.616C42.5654 36.8693 42.2667 36.272 41.8827 35.824C41.5094 35.376 41.072 35.056 40.5707 34.864C40.08 34.672 39.552 34.576 38.9867 34.576C38.432 34.576 37.904 34.672 37.4027 34.864C36.912 35.056 36.48 35.376 36.1067 35.824C35.7334 36.272 35.4347 36.8693 35.2107 37.616C34.9974 38.352 34.8907 39.264 34.8907 40.352ZM46.0533 40.352C46.0533 40.16 46.0533 39.9307 46.0533 39.664C46.064 39.3867 46.0853 39.104 46.1173 38.816C46.1493 38.528 46.2026 38.2453 46.2773 37.968C46.352 37.68 46.4533 37.424 46.5813 37.2C46.72 36.976 46.8906 36.7947 47.0933 36.656C47.3066 36.5173 47.568 36.448 47.8773 36.448C48.1866 36.448 48.448 36.5173 48.6613 36.656C48.8746 36.7947 49.0506 36.976 49.1893 37.2C49.328 37.424 49.4293 37.68 49.4933 37.968C49.568 38.2453 49.6213 38.528 49.6533 38.816C49.696 39.104 49.7173 39.3867 49.7173 39.664C49.728 39.9307 49.7333 40.16 49.7333 40.352C49.7333 40.672 49.7226 41.0613 49.7013 41.52C49.68 41.968 49.6106 42.4053 49.4933 42.832C49.3866 43.248 49.2053 43.6053 48.9493 43.904C48.704 44.2027 48.3466 44.352 47.8773 44.352C47.4186 44.352 47.0666 44.2027 46.8213 43.904C46.576 43.6053 46.3946 43.248 46.2773 42.832C46.1706 42.4053 46.1066 41.968 46.0853 41.52C46.064 41.0613 46.0533 40.672 46.0533 40.352ZM43.7813 40.352C43.7813 41.472 43.888 42.4107 44.1013 43.168C44.3253 43.9147 44.624 44.512 44.9973 44.96C45.3706 45.408 45.8026 45.728 46.2933 45.92C46.7946 46.112 47.3226 46.208 47.8773 46.208C48.4426 46.208 48.9706 46.112 49.4613 45.92C49.9626 45.728 50.4 45.408 50.7733 44.96C51.1573 44.512 51.456 43.9147 51.6693 43.168C51.8933 42.4107 52.0053 41.472 52.0053 40.352C52.0053 39.264 51.8933 38.352 51.6693 37.616C51.456 36.8693 51.1573 36.272 50.7733 35.824C50.4 35.376 49.9626 35.056 49.4613 34.864C48.9706 34.672 48.4426 34.576 47.8773 34.576C47.3226 34.576 46.7946 34.672 46.2933 34.864C45.8026 35.056 45.3706 35.376 44.9973 35.824C44.624 36.272 44.3253 36.8693 44.1013 37.616C43.888 38.352 43.7813 39.264 43.7813 40.352ZM63.4239 43.088C63.4239 42.9067 63.4293 42.704 63.4399 42.48C63.4613 42.256 63.5093 42.048 63.5839 41.856C63.6586 41.664 63.7653 41.504 63.9039 41.376C64.0533 41.248 64.2559 41.184 64.5119 41.184C64.7466 41.184 64.9279 41.2587 65.0559 41.408C65.1946 41.5467 65.2959 41.7173 65.3599 41.92C65.4239 42.112 65.4613 42.32 65.4719 42.544C65.4933 42.7573 65.5039 42.944 65.5039 43.104C65.5039 43.2747 65.4933 43.472 65.4719 43.696C65.4613 43.9093 65.4186 44.1173 65.3439 44.32C65.2799 44.512 65.1733 44.6773 65.0239 44.816C64.8853 44.9547 64.6933 45.024 64.4479 45.024C64.1919 45.024 63.9946 44.9547 63.8559 44.816C63.7173 44.6773 63.6159 44.512 63.5519 44.32C63.4879 44.1173 63.4506 43.904 63.4399 43.68C63.4293 43.456 63.4239 43.2587 63.4239 43.088ZM61.7919 43.072C61.7919 43.5093 61.8346 43.92 61.9199 44.304C62.0159 44.688 62.1653 45.024 62.3679 45.312C62.5813 45.5893 62.8533 45.808 63.1839 45.968C63.5253 46.128 63.9413 46.208 64.4319 46.208C64.9013 46.208 65.3066 46.1333 65.6479 45.984C65.9893 45.824 66.2666 45.6053 66.4799 45.328C66.7039 45.0507 66.8693 44.7253 66.9759 44.352C67.0826 43.9787 67.1359 43.5733 67.1359 43.136C67.1359 42.6987 67.0933 42.288 67.0079 41.904C66.9226 41.52 66.7733 41.1893 66.5599 40.912C66.3573 40.624 66.0906 40.4 65.7599 40.24C65.4293 40.0693 65.0133 39.984 64.5119 39.984C64.0426 39.984 63.6373 40.064 63.2959 40.224C62.9546 40.384 62.6719 40.6027 62.4479 40.88C62.2239 41.1573 62.0586 41.4827 61.9519 41.856C61.8453 42.2293 61.7919 42.6347 61.7919 43.072ZM63.0239 34.448L56.3999 46.336H57.7919L64.3839 34.448H63.0239ZM55.1679 37.776C55.1679 37.5947 55.1733 37.3867 55.1839 37.152C55.2053 36.9173 55.2533 36.6987 55.3279 36.496C55.4026 36.2933 55.5093 36.1227 55.6479 35.984C55.7973 35.8453 55.9999 35.776 56.2559 35.776C56.4906 35.776 56.6719 35.8507 56.7999 36C56.9386 36.1493 57.0399 36.3307 57.1039 36.544C57.1679 36.7573 57.2053 36.9813 57.2159 37.216C57.2373 37.44 57.2479 37.632 57.2479 37.792C57.2479 37.9627 57.2373 38.1547 57.2159 38.368C57.2053 38.5707 57.1626 38.768 57.0879 38.96C57.0239 39.1413 56.9173 39.296 56.7679 39.424C56.6293 39.552 56.4373 39.616 56.1919 39.616C55.9359 39.616 55.7386 39.552 55.5999 39.424C55.4613 39.296 55.3599 39.1413 55.2959 38.96C55.2319 38.768 55.1946 38.5653 55.1839 38.352C55.1733 38.1387 55.1679 37.9467 55.1679 37.776ZM53.5359 37.744C53.5359 38.1813 53.5786 38.592 53.6639 38.976C53.7599 39.3493 53.9093 39.6747 54.1119 39.952C54.3253 40.2187 54.5973 40.432 54.9279 40.592C55.2693 40.7413 55.6853 40.816 56.1759 40.816C56.6453 40.816 57.0506 40.7413 57.3919 40.592C57.7333 40.4427 58.0106 40.2347 58.2239 39.968C58.4479 39.7013 58.6133 39.3867 58.7199 39.024C58.8266 38.6507 58.8799 38.2453 58.8799 37.808C58.8799 37.3707 58.8373 36.9547 58.7519 36.56C58.6666 36.1653 58.5173 35.824 58.3039 35.536C58.1013 35.2373 57.8346 35.0027 57.5039 34.832C57.1733 34.6613 56.7573 34.576 56.2559 34.576C55.7866 34.576 55.3813 34.6613 55.0399 34.832C54.6986 34.992 54.4159 35.216 54.1919 35.504C53.9679 35.792 53.8026 36.128 53.6959 36.512C53.5893 36.896 53.5359 37.3067 53.5359 37.744ZM26.9308 55.315H28.4598C28.4378 54.9483 28.3498 54.633 28.1958 54.369C28.0418 54.0977 27.8402 53.874 27.5908 53.698C27.3488 53.5147 27.0702 53.379 26.7548 53.291C26.4468 53.203 26.1242 53.159 25.7868 53.159C25.3248 53.159 24.9142 53.236 24.5548 53.39C24.1955 53.544 23.8912 53.7603 23.6418 54.039C23.3925 54.3103 23.2018 54.6367 23.0698 55.018C22.9452 55.392 22.8828 55.799 22.8828 56.239C22.8828 56.6643 22.9525 57.0567 23.0918 57.416C23.2312 57.768 23.4255 58.0723 23.6748 58.329C23.9242 58.5857 24.2248 58.7873 24.5768 58.934C24.9362 59.0733 25.3285 59.143 25.7538 59.143C26.5092 59.143 27.1288 58.945 27.6128 58.549C28.0968 58.153 28.3902 57.5773 28.4928 56.822H26.9858C26.9345 57.174 26.8062 57.4563 26.6008 57.669C26.4028 57.8743 26.1168 57.977 25.7428 57.977C25.5008 57.977 25.2955 57.922 25.1268 57.812C24.9582 57.702 24.8225 57.5627 24.7198 57.394C24.6245 57.218 24.5548 57.0237 24.5108 56.811C24.4668 56.5983 24.4448 56.3893 24.4448 56.184C24.4448 55.9713 24.4668 55.7587 24.5108 55.546C24.5548 55.326 24.6282 55.128 24.7308 54.952C24.8408 54.7687 24.9802 54.622 25.1488 54.512C25.3175 54.3947 25.5265 54.336 25.7758 54.336C26.4432 54.336 26.8282 54.6623 26.9308 55.315ZM30.7612 56.162C30.7612 55.9347 30.7832 55.711 30.8272 55.491C30.8712 55.271 30.9446 55.0767 31.0472 54.908C31.1572 54.7393 31.3002 54.6037 31.4762 54.501C31.6522 54.391 31.8722 54.336 32.1362 54.336C32.4002 54.336 32.6202 54.391 32.7962 54.501C32.9796 54.6037 33.1226 54.7393 33.2252 54.908C33.3352 55.0767 33.4122 55.271 33.4562 55.491C33.5002 55.711 33.5222 55.9347 33.5222 56.162C33.5222 56.3893 33.5002 56.613 33.4562 56.833C33.4122 57.0457 33.3352 57.24 33.2252 57.416C33.1226 57.5847 32.9796 57.7203 32.7962 57.823C32.6202 57.9257 32.4002 57.977 32.1362 57.977C31.8722 57.977 31.6522 57.9257 31.4762 57.823C31.3002 57.7203 31.1572 57.5847 31.0472 57.416C30.9446 57.24 30.8712 57.0457 30.8272 56.833C30.7832 56.613 30.7612 56.3893 30.7612 56.162ZM29.1992 56.162C29.1992 56.6167 29.2689 57.0273 29.4082 57.394C29.5476 57.7607 29.7456 58.076 30.0022 58.34C30.2589 58.5967 30.5669 58.7947 30.9262 58.934C31.2856 59.0733 31.6889 59.143 32.1362 59.143C32.5836 59.143 32.9869 59.0733 33.3462 58.934C33.7129 58.7947 34.0246 58.5967 34.2812 58.34C34.5379 58.076 34.7359 57.7607 34.8752 57.394C35.0146 57.0273 35.0842 56.6167 35.0842 56.162C35.0842 55.7073 35.0146 55.2967 34.8752 54.93C34.7359 54.556 34.5379 54.2407 34.2812 53.984C34.0246 53.72 33.7129 53.5183 33.3462 53.379C32.9869 53.2323 32.5836 53.159 32.1362 53.159C31.6889 53.159 31.2856 53.2323 30.9262 53.379C30.5669 53.5183 30.2589 53.72 30.0022 53.984C29.7456 54.2407 29.5476 54.556 29.4082 54.93C29.2689 55.2967 29.1992 55.7073 29.1992 56.162ZM36.1439 53.313V59H37.7059V55.7C37.7059 55.4213 37.7462 55.1977 37.8269 55.029C37.9075 54.853 38.0029 54.721 38.1129 54.633C38.2302 54.5377 38.3475 54.4753 38.4649 54.446C38.5895 54.4093 38.6885 54.391 38.7619 54.391C39.0112 54.391 39.1982 54.435 39.3229 54.523C39.4549 54.6037 39.5465 54.7137 39.5979 54.853C39.6565 54.9923 39.6895 55.1463 39.6969 55.315C39.7042 55.4763 39.7079 55.6413 39.7079 55.81V59H41.2699V55.832C41.2699 55.656 41.2809 55.4837 41.3029 55.315C41.3322 55.139 41.3835 54.985 41.4569 54.853C41.5375 54.7137 41.6439 54.6037 41.7759 54.523C41.9152 54.435 42.0949 54.391 42.3149 54.391C42.5349 54.391 42.7072 54.4277 42.8319 54.501C42.9639 54.5743 43.0629 54.6733 43.1289 54.798C43.1949 54.9227 43.2352 55.0693 43.2499 55.238C43.2645 55.4067 43.2719 55.5863 43.2719 55.777V59H44.8339V55.194C44.8339 54.8273 44.7825 54.5157 44.6799 54.259C44.5772 53.995 44.4342 53.7823 44.2509 53.621C44.0675 53.4597 43.8475 53.3423 43.5909 53.269C43.3342 53.1957 43.0555 53.159 42.7549 53.159C42.3589 53.159 42.0142 53.2543 41.7209 53.445C41.4349 53.6357 41.2075 53.8557 41.0389 54.105C40.8849 53.753 40.6575 53.5073 40.3569 53.368C40.0635 53.2287 39.7372 53.159 39.3779 53.159C39.0039 53.159 38.6702 53.2397 38.3769 53.401C38.0909 53.5623 37.8452 53.7897 37.6399 54.083H37.6179V53.313H36.1439ZM48.9396 57.977C48.6903 57.977 48.4776 57.9257 48.3016 57.823C48.1256 57.7203 47.9826 57.5883 47.8726 57.427C47.7699 57.2583 47.6929 57.064 47.6416 56.844C47.5976 56.624 47.5756 56.4003 47.5756 56.173C47.5756 55.9383 47.5976 55.711 47.6416 55.491C47.6856 55.271 47.7589 55.0767 47.8616 54.908C47.9716 54.7393 48.1109 54.6037 48.2796 54.501C48.4556 54.391 48.6719 54.336 48.9286 54.336C49.1779 54.336 49.3869 54.391 49.5556 54.501C49.7316 54.6037 49.8746 54.743 49.9846 54.919C50.0946 55.0877 50.1716 55.282 50.2156 55.502C50.2669 55.722 50.2926 55.9457 50.2926 56.173C50.2926 56.4003 50.2706 56.624 50.2266 56.844C50.1826 57.064 50.1056 57.2583 49.9956 57.427C49.8929 57.5883 49.7536 57.7203 49.5776 57.823C49.4089 57.9257 49.1963 57.977 48.9396 57.977ZM46.0686 53.313V60.991H47.6306V58.296H47.6526C47.8433 58.5747 48.0853 58.7873 48.3786 58.934C48.6793 59.0733 49.0056 59.143 49.3576 59.143C49.7756 59.143 50.1386 59.0623 50.4466 58.901C50.7619 58.7397 51.0223 58.5233 51.2276 58.252C51.4403 57.9807 51.5979 57.669 51.7006 57.317C51.8033 56.965 51.8546 56.5983 51.8546 56.217C51.8546 55.8137 51.8033 55.4287 51.7006 55.062C51.5979 54.688 51.4403 54.3617 51.2276 54.083C51.0149 53.8043 50.7473 53.5807 50.4246 53.412C50.1019 53.2433 49.7169 53.159 49.2696 53.159C48.9176 53.159 48.5949 53.2287 48.3016 53.368C48.0083 53.5073 47.7663 53.731 47.5756 54.039H47.5536V53.313H46.0686ZM52.8372 51.146V59H54.3992V51.146H52.8372ZM59.4572 55.546H56.9162C56.9235 55.436 56.9455 55.3113 56.9822 55.172C57.0262 55.0327 57.0958 54.9007 57.1912 54.776C57.2938 54.6513 57.4258 54.5487 57.5872 54.468C57.7558 54.38 57.9648 54.336 58.2142 54.336C58.5955 54.336 58.8778 54.4387 59.0612 54.644C59.2518 54.8493 59.3838 55.15 59.4572 55.546ZM56.9162 56.536H61.0192C61.0485 56.096 61.0118 55.6743 60.9092 55.271C60.8065 54.8677 60.6378 54.5083 60.4032 54.193C60.1758 53.8777 59.8825 53.6283 59.5232 53.445C59.1638 53.2543 58.7422 53.159 58.2582 53.159C57.8255 53.159 57.4295 53.236 57.0702 53.39C56.7182 53.544 56.4138 53.7567 56.1572 54.028C55.9005 54.292 55.7025 54.6073 55.5632 54.974C55.4238 55.3407 55.3542 55.7367 55.3542 56.162C55.3542 56.602 55.4202 57.0053 55.5522 57.372C55.6915 57.7387 55.8858 58.054 56.1352 58.318C56.3845 58.582 56.6888 58.7873 57.0482 58.934C57.4075 59.0733 57.8108 59.143 58.2582 59.143C58.9035 59.143 59.4535 58.9963 59.9082 58.703C60.3628 58.4097 60.7002 57.922 60.9202 57.24H59.5452C59.4938 57.416 59.3545 57.5847 59.1272 57.746C58.8998 57.9 58.6285 57.977 58.3132 57.977C57.8732 57.977 57.5358 57.8633 57.3012 57.636C57.0665 57.4087 56.9382 57.042 56.9162 56.536ZM63.9256 53.313V51.608H62.3636V53.313H61.4176V54.358H62.3636V57.713C62.3636 57.999 62.4112 58.23 62.5066 58.406C62.6019 58.582 62.7302 58.7177 62.8916 58.813C63.0602 58.9083 63.2509 58.9707 63.4636 59C63.6836 59.0367 63.9146 59.055 64.1566 59.055C64.3106 59.055 64.4682 59.0513 64.6296 59.044C64.7909 59.0367 64.9376 59.022 65.0696 59V57.79C64.9962 57.8047 64.9192 57.8157 64.8386 57.823C64.7579 57.8303 64.6736 57.834 64.5856 57.834C64.3216 57.834 64.1456 57.79 64.0576 57.702C63.9696 57.614 63.9256 57.438 63.9256 57.174V54.358H65.0696V53.313H63.9256ZM69.6407 55.546H67.0997C67.1071 55.436 67.1291 55.3113 67.1657 55.172C67.2097 55.0327 67.2794 54.9007 67.3747 54.776C67.4774 54.6513 67.6094 54.5487 67.7707 54.468C67.9394 54.38 68.1484 54.336 68.3977 54.336C68.7791 54.336 69.0614 54.4387 69.2447 54.644C69.4354 54.8493 69.5674 55.15 69.6407 55.546ZM67.0997 56.536H71.2027C71.2321 56.096 71.1954 55.6743 71.0927 55.271C70.9901 54.8677 70.8214 54.5083 70.5867 54.193C70.3594 53.8777 70.0661 53.6283 69.7067 53.445C69.3474 53.2543 68.9257 53.159 68.4417 53.159C68.0091 53.159 67.6131 53.236 67.2537 53.39C66.9017 53.544 66.5974 53.7567 66.3407 54.028C66.0841 54.292 65.8861 54.6073 65.7467 54.974C65.6074 55.3407 65.5377 55.7367 65.5377 56.162C65.5377 56.602 65.6037 57.0053 65.7357 57.372C65.8751 57.7387 66.0694 58.054 66.3187 58.318C66.5681 58.582 66.8724 58.7873 67.2317 58.934C67.5911 59.0733 67.9944 59.143 68.4417 59.143C69.0871 59.143 69.6371 58.9963 70.0917 58.703C70.5464 58.4097 70.8837 57.922 71.1037 57.24H69.7287C69.6774 57.416 69.5381 57.5847 69.3107 57.746C69.0834 57.9 68.8121 57.977 68.4967 57.977C68.0567 57.977 67.7194 57.8633 67.4847 57.636C67.2501 57.4087 67.1217 57.042 67.0997 56.536Z" fill="black"/>
<circle cx="47.5" cy="47.5" r="37.5" stroke="#07866C" stroke-width="10"/>
</svg>
