<svg width="94" height="94" viewBox="0 0 94 94" fill="none" xmlns="http://www.w3.org/2000/svg">
<rect width="94" height="94" fill="white"/>
<path d="M31.7014 40.104H33.8774C33.8774 39.8053 33.904 39.5067 33.9574 39.208C34.0214 38.8987 34.1227 38.6213 34.2614 38.376C34.4 38.12 34.5814 37.9173 34.8054 37.768C35.04 37.608 35.3227 37.528 35.6534 37.528C36.144 37.528 36.544 37.6827 36.8534 37.992C37.1734 38.2907 37.3334 38.712 37.3334 39.256C37.3334 39.5973 37.2534 39.9013 37.0934 40.168C36.944 40.4347 36.752 40.6747 36.5174 40.888C36.2934 41.1013 36.0427 41.2987 35.7654 41.48C35.488 41.6507 35.2267 41.8213 34.9814 41.992C34.5014 42.3227 34.0427 42.648 33.6054 42.968C33.1787 43.288 32.8054 43.64 32.4854 44.024C32.1654 44.3973 31.9094 44.824 31.7174 45.304C31.536 45.784 31.4454 46.3493 31.4454 47H39.6694V45.048H34.3734C34.6507 44.664 34.9707 44.328 35.3334 44.04C35.696 43.752 36.0694 43.4853 36.4534 43.24C36.8374 42.984 37.216 42.728 37.5894 42.472C37.9734 42.216 38.3147 41.9333 38.6134 41.624C38.912 41.304 39.152 40.9413 39.3334 40.536C39.5147 40.1307 39.6054 39.6453 39.6054 39.08C39.6054 38.536 39.4987 38.0453 39.2854 37.608C39.0827 37.1707 38.8054 36.8027 38.4534 36.504C38.1014 36.2053 37.6907 35.976 37.2214 35.816C36.7627 35.656 36.2774 35.576 35.7654 35.576C35.0934 35.576 34.496 35.6933 33.9734 35.928C33.4614 36.152 33.0347 36.472 32.6934 36.888C32.352 37.2933 32.096 37.7733 31.9254 38.328C31.7547 38.872 31.68 39.464 31.7014 40.104ZM48 37.672V35.8H41.744L40.64 41.992H42.688C42.912 41.6827 43.152 41.4587 43.408 41.32C43.664 41.1707 43.9947 41.096 44.4 41.096C44.7093 41.096 44.9813 41.1493 45.216 41.256C45.4507 41.3627 45.6533 41.512 45.824 41.704C45.9947 41.896 46.1227 42.12 46.208 42.376C46.2933 42.632 46.336 42.904 46.336 43.192C46.336 43.4693 46.288 43.7413 46.192 44.008C46.1067 44.264 45.9787 44.4933 45.808 44.696C45.648 44.888 45.4453 45.048 45.2 45.176C44.9653 45.2933 44.6987 45.352 44.4 45.352C43.888 45.352 43.4667 45.2027 43.136 44.904C42.8053 44.5947 42.6133 44.184 42.56 43.672H40.288C40.2987 44.2587 40.416 44.776 40.64 45.224C40.8747 45.6613 41.184 46.0293 41.568 46.328C41.952 46.6267 42.3893 46.8507 42.88 47C43.3813 47.1387 43.904 47.208 44.448 47.208C45.0133 47.2187 45.5467 47.128 46.048 46.936C46.5493 46.7333 46.9867 46.4507 47.36 46.088C47.744 45.7253 48.048 45.2987 48.272 44.808C48.496 44.3067 48.608 43.768 48.608 43.192C48.608 42.6693 48.528 42.1787 48.368 41.72C48.2187 41.2507 47.9947 40.8453 47.696 40.504C47.408 40.1627 47.0507 39.8907 46.624 39.688C46.1973 39.4853 45.7067 39.384 45.152 39.384C44.704 39.384 44.304 39.4533 43.952 39.592C43.6 39.72 43.2693 39.9387 42.96 40.248L42.928 40.216L43.376 37.672H48ZM59.9786 44.088C59.9786 43.9067 59.984 43.704 59.9946 43.48C60.016 43.256 60.064 43.048 60.1386 42.856C60.2133 42.664 60.32 42.504 60.4586 42.376C60.608 42.248 60.8106 42.184 61.0666 42.184C61.3013 42.184 61.4826 42.2587 61.6106 42.408C61.7493 42.5467 61.8506 42.7173 61.9146 42.92C61.9786 43.112 62.016 43.32 62.0266 43.544C62.048 43.7573 62.0586 43.944 62.0586 44.104C62.0586 44.2747 62.048 44.472 62.0266 44.696C62.016 44.9093 61.9733 45.1173 61.8986 45.32C61.8346 45.512 61.728 45.6773 61.5786 45.816C61.44 45.9547 61.248 46.024 61.0026 46.024C60.7466 46.024 60.5493 45.9547 60.4106 45.816C60.272 45.6773 60.1706 45.512 60.1066 45.32C60.0426 45.1173 60.0053 44.904 59.9946 44.68C59.984 44.456 59.9786 44.2587 59.9786 44.088ZM58.3466 44.072C58.3466 44.5093 58.3893 44.92 58.4746 45.304C58.5706 45.688 58.72 46.024 58.9226 46.312C59.136 46.5893 59.408 46.808 59.7386 46.968C60.08 47.128 60.496 47.208 60.9866 47.208C61.456 47.208 61.8613 47.1333 62.2026 46.984C62.544 46.824 62.8213 46.6053 63.0346 46.328C63.2586 46.0507 63.424 45.7253 63.5306 45.352C63.6373 44.9787 63.6906 44.5733 63.6906 44.136C63.6906 43.6987 63.648 43.288 63.5626 42.904C63.4773 42.52 63.328 42.1893 63.1146 41.912C62.912 41.624 62.6453 41.4 62.3146 41.24C61.984 41.0693 61.568 40.984 61.0666 40.984C60.5973 40.984 60.192 41.064 59.8506 41.224C59.5093 41.384 59.2266 41.6027 59.0026 41.88C58.7786 42.1573 58.6133 42.4827 58.5066 42.856C58.4 43.2293 58.3466 43.6347 58.3466 44.072ZM59.5786 35.448L52.9546 47.336H54.3466L60.9386 35.448H59.5786ZM51.7226 38.776C51.7226 38.5947 51.728 38.3867 51.7386 38.152C51.76 37.9173 51.808 37.6987 51.8826 37.496C51.9573 37.2933 52.064 37.1227 52.2026 36.984C52.352 36.8453 52.5546 36.776 52.8106 36.776C53.0453 36.776 53.2266 36.8507 53.3546 37C53.4933 37.1493 53.5946 37.3307 53.6586 37.544C53.7226 37.7573 53.76 37.9813 53.7706 38.216C53.792 38.44 53.8026 38.632 53.8026 38.792C53.8026 38.9627 53.792 39.1547 53.7706 39.368C53.76 39.5707 53.7173 39.768 53.6426 39.96C53.5786 40.1413 53.472 40.296 53.3226 40.424C53.184 40.552 52.992 40.616 52.7466 40.616C52.4906 40.616 52.2933 40.552 52.1546 40.424C52.016 40.296 51.9146 40.1413 51.8506 39.96C51.7866 39.768 51.7493 39.5653 51.7386 39.352C51.728 39.1387 51.7226 38.9467 51.7226 38.776ZM50.0906 38.744C50.0906 39.1813 50.1333 39.592 50.2186 39.976C50.3146 40.3493 50.464 40.6747 50.6666 40.952C50.88 41.2187 51.152 41.432 51.4826 41.592C51.824 41.7413 52.24 41.816 52.7306 41.816C53.2 41.816 53.6053 41.7413 53.9466 41.592C54.288 41.4427 54.5653 41.2347 54.7786 40.968C55.0026 40.7013 55.168 40.3867 55.2746 40.024C55.3813 39.6507 55.4346 39.2453 55.4346 38.808C55.4346 38.3707 55.392 37.9547 55.3066 37.56C55.2213 37.1653 55.072 36.824 54.8586 36.536C54.656 36.2373 54.3893 36.0027 54.0586 35.832C53.728 35.6613 53.312 35.576 52.8106 35.576C52.3413 35.576 51.936 35.6613 51.5946 35.832C51.2533 35.992 50.9706 36.216 50.7466 36.504C50.5226 36.792 50.3573 37.128 50.2506 37.512C50.144 37.896 50.0906 38.3067 50.0906 38.744ZM27.9308 56.315H29.4598C29.4378 55.9483 29.3498 55.633 29.1958 55.369C29.0418 55.0977 28.8402 54.874 28.5908 54.698C28.3488 54.5147 28.0702 54.379 27.7548 54.291C27.4468 54.203 27.1242 54.159 26.7868 54.159C26.3248 54.159 25.9142 54.236 25.5548 54.39C25.1955 54.544 24.8912 54.7603 24.6418 55.039C24.3925 55.3103 24.2018 55.6367 24.0698 56.018C23.9452 56.392 23.8828 56.799 23.8828 57.239C23.8828 57.6643 23.9525 58.0567 24.0918 58.416C24.2312 58.768 24.4255 59.0723 24.6748 59.329C24.9242 59.5857 25.2248 59.7873 25.5768 59.934C25.9362 60.0733 26.3285 60.143 26.7538 60.143C27.5092 60.143 28.1288 59.945 28.6128 59.549C29.0968 59.153 29.3902 58.5773 29.4928 57.822H27.9858C27.9345 58.174 27.8062 58.4563 27.6008 58.669C27.4028 58.8743 27.1168 58.977 26.7428 58.977C26.5008 58.977 26.2955 58.922 26.1268 58.812C25.9582 58.702 25.8225 58.5627 25.7198 58.394C25.6245 58.218 25.5548 58.0237 25.5108 57.811C25.4668 57.5983 25.4448 57.3893 25.4448 57.184C25.4448 56.9713 25.4668 56.7587 25.5108 56.546C25.5548 56.326 25.6282 56.128 25.7308 55.952C25.8408 55.7687 25.9802 55.622 26.1488 55.512C26.3175 55.3947 26.5265 55.336 26.7758 55.336C27.4432 55.336 27.8282 55.6623 27.9308 56.315ZM31.7612 57.162C31.7612 56.9347 31.7832 56.711 31.8272 56.491C31.8712 56.271 31.9446 56.0767 32.0472 55.908C32.1572 55.7393 32.3002 55.6037 32.4762 55.501C32.6522 55.391 32.8722 55.336 33.1362 55.336C33.4002 55.336 33.6202 55.391 33.7962 55.501C33.9796 55.6037 34.1226 55.7393 34.2252 55.908C34.3352 56.0767 34.4122 56.271 34.4562 56.491C34.5002 56.711 34.5222 56.9347 34.5222 57.162C34.5222 57.3893 34.5002 57.613 34.4562 57.833C34.4122 58.0457 34.3352 58.24 34.2252 58.416C34.1226 58.5847 33.9796 58.7203 33.7962 58.823C33.6202 58.9257 33.4002 58.977 33.1362 58.977C32.8722 58.977 32.6522 58.9257 32.4762 58.823C32.3002 58.7203 32.1572 58.5847 32.0472 58.416C31.9446 58.24 31.8712 58.0457 31.8272 57.833C31.7832 57.613 31.7612 57.3893 31.7612 57.162ZM30.1992 57.162C30.1992 57.6167 30.2689 58.0273 30.4082 58.394C30.5476 58.7607 30.7456 59.076 31.0022 59.34C31.2589 59.5967 31.5669 59.7947 31.9262 59.934C32.2856 60.0733 32.6889 60.143 33.1362 60.143C33.5836 60.143 33.9869 60.0733 34.3462 59.934C34.7129 59.7947 35.0246 59.5967 35.2812 59.34C35.5379 59.076 35.7359 58.7607 35.8752 58.394C36.0146 58.0273 36.0842 57.6167 36.0842 57.162C36.0842 56.7073 36.0146 56.2967 35.8752 55.93C35.7359 55.556 35.5379 55.2407 35.2812 54.984C35.0246 54.72 34.7129 54.5183 34.3462 54.379C33.9869 54.2323 33.5836 54.159 33.1362 54.159C32.6889 54.159 32.2856 54.2323 31.9262 54.379C31.5669 54.5183 31.2589 54.72 31.0022 54.984C30.7456 55.2407 30.5476 55.556 30.4082 55.93C30.2689 56.2967 30.1992 56.7073 30.1992 57.162ZM37.1439 54.313V60H38.7059V56.7C38.7059 56.4213 38.7462 56.1977 38.8269 56.029C38.9075 55.853 39.0029 55.721 39.1129 55.633C39.2302 55.5377 39.3475 55.4753 39.4649 55.446C39.5895 55.4093 39.6885 55.391 39.7619 55.391C40.0112 55.391 40.1982 55.435 40.3229 55.523C40.4549 55.6037 40.5465 55.7137 40.5979 55.853C40.6565 55.9923 40.6895 56.1463 40.6969 56.315C40.7042 56.4763 40.7079 56.6413 40.7079 56.81V60H42.2699V56.832C42.2699 56.656 42.2809 56.4837 42.3029 56.315C42.3322 56.139 42.3835 55.985 42.4569 55.853C42.5375 55.7137 42.6439 55.6037 42.7759 55.523C42.9152 55.435 43.0949 55.391 43.3149 55.391C43.5349 55.391 43.7072 55.4277 43.8319 55.501C43.9639 55.5743 44.0629 55.6733 44.1289 55.798C44.1949 55.9227 44.2352 56.0693 44.2499 56.238C44.2645 56.4067 44.2719 56.5863 44.2719 56.777V60H45.8339V56.194C45.8339 55.8273 45.7825 55.5157 45.6799 55.259C45.5772 54.995 45.4342 54.7823 45.2509 54.621C45.0675 54.4597 44.8475 54.3423 44.5909 54.269C44.3342 54.1957 44.0555 54.159 43.7549 54.159C43.3589 54.159 43.0142 54.2543 42.7209 54.445C42.4349 54.6357 42.2075 54.8557 42.0389 55.105C41.8849 54.753 41.6575 54.5073 41.3569 54.368C41.0635 54.2287 40.7372 54.159 40.3779 54.159C40.0039 54.159 39.6702 54.2397 39.3769 54.401C39.0909 54.5623 38.8452 54.7897 38.6399 55.083H38.6179V54.313H37.1439ZM49.9396 58.977C49.6903 58.977 49.4776 58.9257 49.3016 58.823C49.1256 58.7203 48.9826 58.5883 48.8726 58.427C48.7699 58.2583 48.6929 58.064 48.6416 57.844C48.5976 57.624 48.5756 57.4003 48.5756 57.173C48.5756 56.9383 48.5976 56.711 48.6416 56.491C48.6856 56.271 48.7589 56.0767 48.8616 55.908C48.9716 55.7393 49.1109 55.6037 49.2796 55.501C49.4556 55.391 49.6719 55.336 49.9286 55.336C50.1779 55.336 50.3869 55.391 50.5556 55.501C50.7316 55.6037 50.8746 55.743 50.9846 55.919C51.0946 56.0877 51.1716 56.282 51.2156 56.502C51.2669 56.722 51.2926 56.9457 51.2926 57.173C51.2926 57.4003 51.2706 57.624 51.2266 57.844C51.1826 58.064 51.1056 58.2583 50.9956 58.427C50.8929 58.5883 50.7536 58.7203 50.5776 58.823C50.4089 58.9257 50.1963 58.977 49.9396 58.977ZM47.0686 54.313V61.991H48.6306V59.296H48.6526C48.8433 59.5747 49.0853 59.7873 49.3786 59.934C49.6793 60.0733 50.0056 60.143 50.3576 60.143C50.7756 60.143 51.1386 60.0623 51.4466 59.901C51.7619 59.7397 52.0223 59.5233 52.2276 59.252C52.4403 58.9807 52.5979 58.669 52.7006 58.317C52.8033 57.965 52.8546 57.5983 52.8546 57.217C52.8546 56.8137 52.8033 56.4287 52.7006 56.062C52.5979 55.688 52.4403 55.3617 52.2276 55.083C52.0149 54.8043 51.7473 54.5807 51.4246 54.412C51.1019 54.2433 50.7169 54.159 50.2696 54.159C49.9176 54.159 49.5949 54.2287 49.3016 54.368C49.0083 54.5073 48.7663 54.731 48.5756 55.039H48.5536V54.313H47.0686ZM53.8372 52.146V60H55.3992V52.146H53.8372ZM60.4572 56.546H57.9162C57.9235 56.436 57.9455 56.3113 57.9822 56.172C58.0262 56.0327 58.0958 55.9007 58.1912 55.776C58.2938 55.6513 58.4258 55.5487 58.5872 55.468C58.7558 55.38 58.9648 55.336 59.2142 55.336C59.5955 55.336 59.8778 55.4387 60.0612 55.644C60.2518 55.8493 60.3838 56.15 60.4572 56.546ZM57.9162 57.536H62.0192C62.0485 57.096 62.0118 56.6743 61.9092 56.271C61.8065 55.8677 61.6378 55.5083 61.4032 55.193C61.1758 54.8777 60.8825 54.6283 60.5232 54.445C60.1638 54.2543 59.7422 54.159 59.2582 54.159C58.8255 54.159 58.4295 54.236 58.0702 54.39C57.7182 54.544 57.4138 54.7567 57.1572 55.028C56.9005 55.292 56.7025 55.6073 56.5632 55.974C56.4238 56.3407 56.3542 56.7367 56.3542 57.162C56.3542 57.602 56.4202 58.0053 56.5522 58.372C56.6915 58.7387 56.8858 59.054 57.1352 59.318C57.3845 59.582 57.6888 59.7873 58.0482 59.934C58.4075 60.0733 58.8108 60.143 59.2582 60.143C59.9035 60.143 60.4535 59.9963 60.9082 59.703C61.3628 59.4097 61.7002 58.922 61.9202 58.24H60.5452C60.4938 58.416 60.3545 58.5847 60.1272 58.746C59.8998 58.9 59.6285 58.977 59.3132 58.977C58.8732 58.977 58.5358 58.8633 58.3012 58.636C58.0665 58.4087 57.9382 58.042 57.9162 57.536ZM64.9256 54.313V52.608H63.3636V54.313H62.4176V55.358H63.3636V58.713C63.3636 58.999 63.4112 59.23 63.5066 59.406C63.6019 59.582 63.7302 59.7177 63.8916 59.813C64.0602 59.9083 64.2509 59.9707 64.4636 60C64.6836 60.0367 64.9146 60.055 65.1566 60.055C65.3106 60.055 65.4682 60.0513 65.6296 60.044C65.7909 60.0367 65.9376 60.022 66.0696 60V58.79C65.9962 58.8047 65.9192 58.8157 65.8386 58.823C65.7579 58.8303 65.6736 58.834 65.5856 58.834C65.3216 58.834 65.1456 58.79 65.0576 58.702C64.9696 58.614 64.9256 58.438 64.9256 58.174V55.358H66.0696V54.313H64.9256ZM70.6407 56.546H68.0997C68.1071 56.436 68.1291 56.3113 68.1657 56.172C68.2097 56.0327 68.2794 55.9007 68.3747 55.776C68.4774 55.6513 68.6094 55.5487 68.7707 55.468C68.9394 55.38 69.1484 55.336 69.3977 55.336C69.7791 55.336 70.0614 55.4387 70.2447 55.644C70.4354 55.8493 70.5674 56.15 70.6407 56.546ZM68.0997 57.536H72.2027C72.2321 57.096 72.1954 56.6743 72.0927 56.271C71.9901 55.8677 71.8214 55.5083 71.5867 55.193C71.3594 54.8777 71.0661 54.6283 70.7067 54.445C70.3474 54.2543 69.9257 54.159 69.4417 54.159C69.0091 54.159 68.6131 54.236 68.2537 54.39C67.9017 54.544 67.5974 54.7567 67.3407 55.028C67.0841 55.292 66.8861 55.6073 66.7467 55.974C66.6074 56.3407 66.5377 56.7367 66.5377 57.162C66.5377 57.602 66.6037 58.0053 66.7357 58.372C66.8751 58.7387 67.0694 59.054 67.3187 59.318C67.5681 59.582 67.8724 59.7873 68.2317 59.934C68.5911 60.0733 68.9944 60.143 69.4417 60.143C70.0871 60.143 70.6371 59.9963 71.0917 59.703C71.5464 59.4097 71.8837 58.922 72.1037 58.24H70.7287C70.6774 58.416 70.5381 58.5847 70.3107 58.746C70.0834 58.9 69.8121 58.977 69.4967 58.977C69.0567 58.977 68.7194 58.8633 68.4847 58.636C68.2501 58.4087 68.1217 58.042 68.0997 57.536Z" fill="black"/>
<path d="M85 47C85 67.4345 68.2107 84 47.5 84C26.7893 84 10 67.4345 10 47C10 26.5655 26.7893 10 47.5 10" stroke="#DEDEDE" stroke-width="10" stroke-linecap="round" stroke-linejoin="round"/>
<path d="M48 10C68.4345 10 85 26.5655 85 47" stroke="#07866C" stroke-width="10" stroke-linecap="round" stroke-linejoin="round"/>
</svg>
