<svg width="94" height="94" viewBox="0 0 94 94" fill="none" xmlns="http://www.w3.org/2000/svg">
<rect width="94" height="94" fill="white"/>
<path d="M32.8614 37.84C32.8614 37.584 32.904 37.36 32.9894 37.168C33.0854 36.976 33.2134 36.816 33.3734 36.688C33.5334 36.56 33.7147 36.464 33.9174 36.4C34.1307 36.3253 34.3494 36.288 34.5734 36.288C34.9254 36.288 35.208 36.3413 35.4214 36.448C35.6454 36.5547 35.816 36.688 35.9334 36.848C36.0614 37.008 36.1467 37.1787 36.1894 37.36C36.232 37.5307 36.2534 37.6907 36.2534 37.84C36.2534 38.32 36.0934 38.688 35.7734 38.944C35.4534 39.1893 35.0534 39.312 34.5734 39.312C34.1147 39.312 33.7147 39.1893 33.3734 38.944C33.032 38.688 32.8614 38.32 32.8614 37.84ZM30.7974 37.632C30.7974 38.1867 30.936 38.672 31.2134 39.088C31.4907 39.504 31.9014 39.7867 32.4454 39.936V39.968C31.7734 40.128 31.2507 40.448 30.8774 40.928C30.5147 41.408 30.3334 42.0053 30.3334 42.72C30.3334 43.328 30.4507 43.8507 30.6854 44.288C30.9307 44.7253 31.2507 45.088 31.6454 45.376C32.0507 45.664 32.504 45.872 33.0054 46C33.5174 46.1387 34.0454 46.208 34.5894 46.208C35.112 46.208 35.624 46.1387 36.1254 46C36.6267 45.8507 37.0747 45.632 37.4694 45.344C37.864 45.056 38.1787 44.6933 38.4134 44.256C38.6587 43.8187 38.7814 43.3013 38.7814 42.704C38.7814 42 38.6 41.408 38.2374 40.928C37.8747 40.4373 37.3574 40.1173 36.6854 39.968V39.936C37.2294 39.7547 37.6347 39.456 37.9014 39.04C38.1787 38.624 38.3174 38.1387 38.3174 37.584C38.3174 37.3067 38.2534 36.9973 38.1254 36.656C37.9974 36.304 37.784 35.9787 37.4854 35.68C37.1974 35.3707 36.8134 35.1093 36.3334 34.896C35.8534 34.6827 35.2667 34.576 34.5734 34.576C34.1147 34.576 33.6614 34.64 33.2134 34.768C32.7654 34.896 32.36 35.088 31.9974 35.344C31.6454 35.6 31.3574 35.92 31.1334 36.304C30.9094 36.688 30.7974 37.1307 30.7974 37.632ZM32.6054 42.608C32.6054 42.032 32.7974 41.5947 33.1814 41.296C33.5654 40.9867 34.0347 40.832 34.5894 40.832C34.856 40.832 35.1014 40.8747 35.3254 40.96C35.56 41.0453 35.7627 41.168 35.9334 41.328C36.1147 41.488 36.2534 41.68 36.3494 41.904C36.456 42.1173 36.5094 42.3573 36.5094 42.624C36.5094 42.9013 36.4614 43.1573 36.3654 43.392C36.2694 43.6267 36.1307 43.8293 35.9494 44C35.7787 44.16 35.576 44.288 35.3414 44.384C35.1174 44.4693 34.8667 44.512 34.5894 44.512C34.3227 44.512 34.0667 44.4693 33.8214 44.384C33.576 44.288 33.3627 44.16 33.1814 44C33.0107 43.8293 32.872 43.6267 32.7654 43.392C32.6587 43.1573 32.6054 42.896 32.6054 42.608ZM41.608 40.352C41.608 40.16 41.608 39.9307 41.608 39.664C41.6187 39.3867 41.64 39.104 41.672 38.816C41.704 38.528 41.7573 38.2453 41.832 37.968C41.9067 37.68 42.008 37.424 42.136 37.2C42.2747 36.976 42.4453 36.7947 42.648 36.656C42.8613 36.5173 43.1227 36.448 43.432 36.448C43.7413 36.448 44.0027 36.5173 44.216 36.656C44.4293 36.7947 44.6053 36.976 44.744 37.2C44.8827 37.424 44.984 37.68 45.048 37.968C45.1227 38.2453 45.176 38.528 45.208 38.816C45.2507 39.104 45.272 39.3867 45.272 39.664C45.2827 39.9307 45.288 40.16 45.288 40.352C45.288 40.672 45.2773 41.0613 45.256 41.52C45.2347 41.968 45.1653 42.4053 45.048 42.832C44.9413 43.248 44.76 43.6053 44.504 43.904C44.2587 44.2027 43.9013 44.352 43.432 44.352C42.9733 44.352 42.6213 44.2027 42.376 43.904C42.1307 43.6053 41.9493 43.248 41.832 42.832C41.7253 42.4053 41.6613 41.968 41.64 41.52C41.6187 41.0613 41.608 40.672 41.608 40.352ZM39.336 40.352C39.336 41.472 39.4427 42.4107 39.656 43.168C39.88 43.9147 40.1787 44.512 40.552 44.96C40.9253 45.408 41.3573 45.728 41.848 45.92C42.3493 46.112 42.8773 46.208 43.432 46.208C43.9973 46.208 44.5253 46.112 45.016 45.92C45.5173 45.728 45.9547 45.408 46.328 44.96C46.712 44.512 47.0107 43.9147 47.224 43.168C47.448 42.4107 47.56 41.472 47.56 40.352C47.56 39.264 47.448 38.352 47.224 37.616C47.0107 36.8693 46.712 36.272 46.328 35.824C45.9547 35.376 45.5173 35.056 45.016 34.864C44.5253 34.672 43.9973 34.576 43.432 34.576C42.8773 34.576 42.3493 34.672 41.848 34.864C41.3573 35.056 40.9253 35.376 40.552 35.824C40.1787 36.272 39.88 36.8693 39.656 37.616C39.4427 38.352 39.336 39.264 39.336 40.352ZM58.9786 43.088C58.9786 42.9067 58.984 42.704 58.9946 42.48C59.016 42.256 59.064 42.048 59.1386 41.856C59.2133 41.664 59.32 41.504 59.4586 41.376C59.608 41.248 59.8106 41.184 60.0666 41.184C60.3013 41.184 60.4826 41.2587 60.6106 41.408C60.7493 41.5467 60.8506 41.7173 60.9146 41.92C60.9786 42.112 61.016 42.32 61.0266 42.544C61.048 42.7573 61.0586 42.944 61.0586 43.104C61.0586 43.2747 61.048 43.472 61.0266 43.696C61.016 43.9093 60.9733 44.1173 60.8986 44.32C60.8346 44.512 60.728 44.6773 60.5786 44.816C60.44 44.9547 60.248 45.024 60.0026 45.024C59.7466 45.024 59.5493 44.9547 59.4106 44.816C59.272 44.6773 59.1706 44.512 59.1066 44.32C59.0426 44.1173 59.0053 43.904 58.9946 43.68C58.984 43.456 58.9786 43.2587 58.9786 43.088ZM57.3466 43.072C57.3466 43.5093 57.3893 43.92 57.4746 44.304C57.5706 44.688 57.72 45.024 57.9226 45.312C58.136 45.5893 58.408 45.808 58.7386 45.968C59.08 46.128 59.496 46.208 59.9866 46.208C60.456 46.208 60.8613 46.1333 61.2026 45.984C61.544 45.824 61.8213 45.6053 62.0346 45.328C62.2586 45.0507 62.424 44.7253 62.5306 44.352C62.6373 43.9787 62.6906 43.5733 62.6906 43.136C62.6906 42.6987 62.648 42.288 62.5626 41.904C62.4773 41.52 62.328 41.1893 62.1146 40.912C61.912 40.624 61.6453 40.4 61.3146 40.24C60.984 40.0693 60.568 39.984 60.0666 39.984C59.5973 39.984 59.192 40.064 58.8506 40.224C58.5093 40.384 58.2266 40.6027 58.0026 40.88C57.7786 41.1573 57.6133 41.4827 57.5066 41.856C57.4 42.2293 57.3466 42.6347 57.3466 43.072ZM58.5786 34.448L51.9546 46.336H53.3466L59.9386 34.448H58.5786ZM50.7226 37.776C50.7226 37.5947 50.728 37.3867 50.7386 37.152C50.76 36.9173 50.808 36.6987 50.8826 36.496C50.9573 36.2933 51.064 36.1227 51.2026 35.984C51.352 35.8453 51.5546 35.776 51.8106 35.776C52.0453 35.776 52.2266 35.8507 52.3546 36C52.4933 36.1493 52.5946 36.3307 52.6586 36.544C52.7226 36.7573 52.76 36.9813 52.7706 37.216C52.792 37.44 52.8026 37.632 52.8026 37.792C52.8026 37.9627 52.792 38.1547 52.7706 38.368C52.76 38.5707 52.7173 38.768 52.6426 38.96C52.5786 39.1413 52.472 39.296 52.3226 39.424C52.184 39.552 51.992 39.616 51.7466 39.616C51.4906 39.616 51.2933 39.552 51.1546 39.424C51.016 39.296 50.9146 39.1413 50.8506 38.96C50.7866 38.768 50.7493 38.5653 50.7386 38.352C50.728 38.1387 50.7226 37.9467 50.7226 37.776ZM49.0906 37.744C49.0906 38.1813 49.1333 38.592 49.2186 38.976C49.3146 39.3493 49.464 39.6747 49.6666 39.952C49.88 40.2187 50.152 40.432 50.4826 40.592C50.824 40.7413 51.24 40.816 51.7306 40.816C52.2 40.816 52.6053 40.7413 52.9466 40.592C53.288 40.4427 53.5653 40.2347 53.7786 39.968C54.0026 39.7013 54.168 39.3867 54.2746 39.024C54.3813 38.6507 54.4346 38.2453 54.4346 37.808C54.4346 37.3707 54.392 36.9547 54.3066 36.56C54.2213 36.1653 54.072 35.824 53.8586 35.536C53.656 35.2373 53.3893 35.0027 53.0586 34.832C52.728 34.6613 52.312 34.576 51.8106 34.576C51.3413 34.576 50.936 34.6613 50.5946 34.832C50.2533 34.992 49.9706 35.216 49.7466 35.504C49.5226 35.792 49.3573 36.128 49.2506 36.512C49.144 36.896 49.0906 37.3067 49.0906 37.744ZM26.9308 55.315H28.4598C28.4378 54.9483 28.3498 54.633 28.1958 54.369C28.0418 54.0977 27.8402 53.874 27.5908 53.698C27.3488 53.5147 27.0702 53.379 26.7548 53.291C26.4468 53.203 26.1242 53.159 25.7868 53.159C25.3248 53.159 24.9142 53.236 24.5548 53.39C24.1955 53.544 23.8912 53.7603 23.6418 54.039C23.3925 54.3103 23.2018 54.6367 23.0698 55.018C22.9452 55.392 22.8828 55.799 22.8828 56.239C22.8828 56.6643 22.9525 57.0567 23.0918 57.416C23.2312 57.768 23.4255 58.0723 23.6748 58.329C23.9242 58.5857 24.2248 58.7873 24.5768 58.934C24.9362 59.0733 25.3285 59.143 25.7538 59.143C26.5092 59.143 27.1288 58.945 27.6128 58.549C28.0968 58.153 28.3902 57.5773 28.4928 56.822H26.9858C26.9345 57.174 26.8062 57.4563 26.6008 57.669C26.4028 57.8743 26.1168 57.977 25.7428 57.977C25.5008 57.977 25.2955 57.922 25.1268 57.812C24.9582 57.702 24.8225 57.5627 24.7198 57.394C24.6245 57.218 24.5548 57.0237 24.5108 56.811C24.4668 56.5983 24.4448 56.3893 24.4448 56.184C24.4448 55.9713 24.4668 55.7587 24.5108 55.546C24.5548 55.326 24.6282 55.128 24.7308 54.952C24.8408 54.7687 24.9802 54.622 25.1488 54.512C25.3175 54.3947 25.5265 54.336 25.7758 54.336C26.4432 54.336 26.8282 54.6623 26.9308 55.315ZM30.7612 56.162C30.7612 55.9347 30.7832 55.711 30.8272 55.491C30.8712 55.271 30.9446 55.0767 31.0472 54.908C31.1572 54.7393 31.3002 54.6037 31.4762 54.501C31.6522 54.391 31.8722 54.336 32.1362 54.336C32.4002 54.336 32.6202 54.391 32.7962 54.501C32.9796 54.6037 33.1226 54.7393 33.2252 54.908C33.3352 55.0767 33.4122 55.271 33.4562 55.491C33.5002 55.711 33.5222 55.9347 33.5222 56.162C33.5222 56.3893 33.5002 56.613 33.4562 56.833C33.4122 57.0457 33.3352 57.24 33.2252 57.416C33.1226 57.5847 32.9796 57.7203 32.7962 57.823C32.6202 57.9257 32.4002 57.977 32.1362 57.977C31.8722 57.977 31.6522 57.9257 31.4762 57.823C31.3002 57.7203 31.1572 57.5847 31.0472 57.416C30.9446 57.24 30.8712 57.0457 30.8272 56.833C30.7832 56.613 30.7612 56.3893 30.7612 56.162ZM29.1992 56.162C29.1992 56.6167 29.2689 57.0273 29.4082 57.394C29.5476 57.7607 29.7456 58.076 30.0022 58.34C30.2589 58.5967 30.5669 58.7947 30.9262 58.934C31.2856 59.0733 31.6889 59.143 32.1362 59.143C32.5836 59.143 32.9869 59.0733 33.3462 58.934C33.7129 58.7947 34.0246 58.5967 34.2812 58.34C34.5379 58.076 34.7359 57.7607 34.8752 57.394C35.0146 57.0273 35.0842 56.6167 35.0842 56.162C35.0842 55.7073 35.0146 55.2967 34.8752 54.93C34.7359 54.556 34.5379 54.2407 34.2812 53.984C34.0246 53.72 33.7129 53.5183 33.3462 53.379C32.9869 53.2323 32.5836 53.159 32.1362 53.159C31.6889 53.159 31.2856 53.2323 30.9262 53.379C30.5669 53.5183 30.2589 53.72 30.0022 53.984C29.7456 54.2407 29.5476 54.556 29.4082 54.93C29.2689 55.2967 29.1992 55.7073 29.1992 56.162ZM36.1439 53.313V59H37.7059V55.7C37.7059 55.4213 37.7462 55.1977 37.8269 55.029C37.9075 54.853 38.0029 54.721 38.1129 54.633C38.2302 54.5377 38.3475 54.4753 38.4649 54.446C38.5895 54.4093 38.6885 54.391 38.7619 54.391C39.0112 54.391 39.1982 54.435 39.3229 54.523C39.4549 54.6037 39.5465 54.7137 39.5979 54.853C39.6565 54.9923 39.6895 55.1463 39.6969 55.315C39.7042 55.4763 39.7079 55.6413 39.7079 55.81V59H41.2699V55.832C41.2699 55.656 41.2809 55.4837 41.3029 55.315C41.3322 55.139 41.3835 54.985 41.4569 54.853C41.5375 54.7137 41.6439 54.6037 41.7759 54.523C41.9152 54.435 42.0949 54.391 42.3149 54.391C42.5349 54.391 42.7072 54.4277 42.8319 54.501C42.9639 54.5743 43.0629 54.6733 43.1289 54.798C43.1949 54.9227 43.2352 55.0693 43.2499 55.238C43.2645 55.4067 43.2719 55.5863 43.2719 55.777V59H44.8339V55.194C44.8339 54.8273 44.7825 54.5157 44.6799 54.259C44.5772 53.995 44.4342 53.7823 44.2509 53.621C44.0675 53.4597 43.8475 53.3423 43.5909 53.269C43.3342 53.1957 43.0555 53.159 42.7549 53.159C42.3589 53.159 42.0142 53.2543 41.7209 53.445C41.4349 53.6357 41.2075 53.8557 41.0389 54.105C40.8849 53.753 40.6575 53.5073 40.3569 53.368C40.0635 53.2287 39.7372 53.159 39.3779 53.159C39.0039 53.159 38.6702 53.2397 38.3769 53.401C38.0909 53.5623 37.8452 53.7897 37.6399 54.083H37.6179V53.313H36.1439ZM48.9396 57.977C48.6903 57.977 48.4776 57.9257 48.3016 57.823C48.1256 57.7203 47.9826 57.5883 47.8726 57.427C47.7699 57.2583 47.6929 57.064 47.6416 56.844C47.5976 56.624 47.5756 56.4003 47.5756 56.173C47.5756 55.9383 47.5976 55.711 47.6416 55.491C47.6856 55.271 47.7589 55.0767 47.8616 54.908C47.9716 54.7393 48.1109 54.6037 48.2796 54.501C48.4556 54.391 48.6719 54.336 48.9286 54.336C49.1779 54.336 49.3869 54.391 49.5556 54.501C49.7316 54.6037 49.8746 54.743 49.9846 54.919C50.0946 55.0877 50.1716 55.282 50.2156 55.502C50.2669 55.722 50.2926 55.9457 50.2926 56.173C50.2926 56.4003 50.2706 56.624 50.2266 56.844C50.1826 57.064 50.1056 57.2583 49.9956 57.427C49.8929 57.5883 49.7536 57.7203 49.5776 57.823C49.4089 57.9257 49.1963 57.977 48.9396 57.977ZM46.0686 53.313V60.991H47.6306V58.296H47.6526C47.8433 58.5747 48.0853 58.7873 48.3786 58.934C48.6793 59.0733 49.0056 59.143 49.3576 59.143C49.7756 59.143 50.1386 59.0623 50.4466 58.901C50.7619 58.7397 51.0223 58.5233 51.2276 58.252C51.4403 57.9807 51.5979 57.669 51.7006 57.317C51.8033 56.965 51.8546 56.5983 51.8546 56.217C51.8546 55.8137 51.8033 55.4287 51.7006 55.062C51.5979 54.688 51.4403 54.3617 51.2276 54.083C51.0149 53.8043 50.7473 53.5807 50.4246 53.412C50.1019 53.2433 49.7169 53.159 49.2696 53.159C48.9176 53.159 48.5949 53.2287 48.3016 53.368C48.0083 53.5073 47.7663 53.731 47.5756 54.039H47.5536V53.313H46.0686ZM52.8372 51.146V59H54.3992V51.146H52.8372ZM59.4572 55.546H56.9162C56.9235 55.436 56.9455 55.3113 56.9822 55.172C57.0262 55.0327 57.0958 54.9007 57.1912 54.776C57.2938 54.6513 57.4258 54.5487 57.5872 54.468C57.7558 54.38 57.9648 54.336 58.2142 54.336C58.5955 54.336 58.8778 54.4387 59.0612 54.644C59.2518 54.8493 59.3838 55.15 59.4572 55.546ZM56.9162 56.536H61.0192C61.0485 56.096 61.0118 55.6743 60.9092 55.271C60.8065 54.8677 60.6378 54.5083 60.4032 54.193C60.1758 53.8777 59.8825 53.6283 59.5232 53.445C59.1638 53.2543 58.7422 53.159 58.2582 53.159C57.8255 53.159 57.4295 53.236 57.0702 53.39C56.7182 53.544 56.4138 53.7567 56.1572 54.028C55.9005 54.292 55.7025 54.6073 55.5632 54.974C55.4238 55.3407 55.3542 55.7367 55.3542 56.162C55.3542 56.602 55.4202 57.0053 55.5522 57.372C55.6915 57.7387 55.8858 58.054 56.1352 58.318C56.3845 58.582 56.6888 58.7873 57.0482 58.934C57.4075 59.0733 57.8108 59.143 58.2582 59.143C58.9035 59.143 59.4535 58.9963 59.9082 58.703C60.3628 58.4097 60.7002 57.922 60.9202 57.24H59.5452C59.4938 57.416 59.3545 57.5847 59.1272 57.746C58.8998 57.9 58.6285 57.977 58.3132 57.977C57.8732 57.977 57.5358 57.8633 57.3012 57.636C57.0665 57.4087 56.9382 57.042 56.9162 56.536ZM63.9256 53.313V51.608H62.3636V53.313H61.4176V54.358H62.3636V57.713C62.3636 57.999 62.4112 58.23 62.5066 58.406C62.6019 58.582 62.7302 58.7177 62.8916 58.813C63.0602 58.9083 63.2509 58.9707 63.4636 59C63.6836 59.0367 63.9146 59.055 64.1566 59.055C64.3106 59.055 64.4682 59.0513 64.6296 59.044C64.7909 59.0367 64.9376 59.022 65.0696 59V57.79C64.9962 57.8047 64.9192 57.8157 64.8386 57.823C64.7579 57.8303 64.6736 57.834 64.5856 57.834C64.3216 57.834 64.1456 57.79 64.0576 57.702C63.9696 57.614 63.9256 57.438 63.9256 57.174V54.358H65.0696V53.313H63.9256ZM69.6407 55.546H67.0997C67.1071 55.436 67.1291 55.3113 67.1657 55.172C67.2097 55.0327 67.2794 54.9007 67.3747 54.776C67.4774 54.6513 67.6094 54.5487 67.7707 54.468C67.9394 54.38 68.1484 54.336 68.3977 54.336C68.7791 54.336 69.0614 54.4387 69.2447 54.644C69.4354 54.8493 69.5674 55.15 69.6407 55.546ZM67.0997 56.536H71.2027C71.2321 56.096 71.1954 55.6743 71.0927 55.271C70.9901 54.8677 70.8214 54.5083 70.5867 54.193C70.3594 53.8777 70.0661 53.6283 69.7067 53.445C69.3474 53.2543 68.9257 53.159 68.4417 53.159C68.0091 53.159 67.6131 53.236 67.2537 53.39C66.9017 53.544 66.5974 53.7567 66.3407 54.028C66.0841 54.292 65.8861 54.6073 65.7467 54.974C65.6074 55.3407 65.5377 55.7367 65.5377 56.162C65.5377 56.602 65.6037 57.0053 65.7357 57.372C65.8751 57.7387 66.0694 58.054 66.3187 58.318C66.5681 58.582 66.8724 58.7873 67.2317 58.934C67.5911 59.0733 67.9944 59.143 68.4417 59.143C69.0871 59.143 69.6371 58.9963 70.0917 58.703C70.5464 58.4097 70.8837 57.922 71.1037 57.24H69.7287C69.6774 57.416 69.5381 57.5847 69.3107 57.746C69.0834 57.9 68.8121 57.977 68.4967 57.977C68.0567 57.977 67.7194 57.8633 67.4847 57.636C67.2501 57.4087 67.1217 57.042 67.0997 56.536Z" fill="black"/>
<path d="M11.8353 35.9119C16.8556 20.461 31.254 10 47.4999 10" stroke="#DEDEDE" stroke-width="10" stroke-linecap="round"/>
<path d="M47.5 10C68.2107 10 85 26.7893 85 47.5C85 68.2107 68.2107 85 47.5 85C26.7893 85 10 68.2107 10 47.5C10 43.5649 10.6194 39.6543 11.8354 35.9119" stroke="#07866C" stroke-width="10" stroke-linecap="round"/>
</svg>
