<svg width="40" height="44" fill="none" xmlns="http://www.w3.org/2000/svg"><path d="M27.886 30.102c-5.273 5.532-12.04 6.042-17.261 0C5.544 30.102 0 35.174 0 40.072V44h38.652v-3.928c0-4.886-5.685-9.97-10.766-9.97z" fill="#fff" stroke="#000" stroke-width="3" stroke-linejoin="round"/><path d="M8.078 20.867c0 8.825 5.017 13.723 11.19 13.723 6.033 0 11.255-4.898 11.255-13.723 0-2.947-1.016-4.898-1.016-4.898-3.061-2.946-7.113-6.489-7.113-6.489-4.077 2.946-7.113 4.525-13.235 5.507-.013-.013-1.08.97-1.08 5.88z" fill="#fff" stroke="#000" stroke-width="3" stroke-linejoin="round"/><path d="M30.24 23.825c.18-1.057.282-2.064.282-3.282 0-2.958-1.016-4.922-1.016-4.922-3.061-2.959-7.139-6.514-7.139-6.514-4.077 2.958-7.139 4.55-13.261 5.532 0 0-1.08.982-1.08 5.904 0 1.107 0 2.362.154 3.344-3.152-.709-3.152-5.109-3.152-8.266 0-6.887 4.078-13.774 14.29-13.774 10.214 0 14.291 6.887 14.291 13.774-.026 2.486.09 7.644-3.37 8.204z" fill="#000" stroke="#000" stroke-width="3" stroke-linejoin="round"/></svg>