<svg width="76" height="73" viewBox="0 0 76 73" fill="none" xmlns="http://www.w3.org/2000/svg">
<path fill-rule="evenodd" clip-rule="evenodd" d="M8.44444 0H67.5556C72.2 0 76 3.65 76 8.11111V64.8889C76 69.35 72.2 73 67.5556 73H8.44444C3.75778 73 0 69.35 0 64.8889V8.11111C0 3.65 3.75778 0 8.44444 0ZM67.5556 64.8891V8.11131H8.44445V64.8891H67.5556Z" fill="black"/>
<path fill-rule="evenodd" clip-rule="evenodd" d="M25.3333 24.3336C25.3333 31.0253 31.0333 36.5003 38 36.5003C44.9667 36.5003 50.6667 31.0253 50.6667 24.3336C50.6667 17.642 44.9667 12.167 38 12.167C31.0333 12.167 25.3333 17.642 25.3333 24.3336ZM33.7778 24.3332C33.7778 22.1027 35.6778 20.2777 38 20.2777C40.3222 20.2777 42.2222 22.1027 42.2222 24.3332C42.2222 26.5638 40.3222 28.3888 38 28.3888C35.6778 28.3888 33.7778 26.5638 33.7778 24.3332Z" fill="black"/>
<path fill-rule="evenodd" clip-rule="evenodd" d="M12.6667 54.6283V60.8333H63.3333V54.6283C63.3333 44.4894 46.5711 40.1094 38 40.1094C29.4289 40.1094 12.6667 44.4894 12.6667 54.6283ZM38 48.1799C43.5311 48.1799 50.6667 50.451 53.58 52.7221H22.42C25.2911 50.451 32.4689 48.1799 38 48.1799Z" fill="black"/>
</svg>
