<svg width="40" height="50" fill="none" xmlns="http://www.w3.org/2000/svg"><g clip-path="url(#clip0)" stroke="#000" stroke-width="3" stroke-linejoin="round"><path d="M27.523 36.108c-4.868 4.734-11.112 5.17-15.932 0-4.69 0-8.726 4.34-8.726 8.531V48H37.46v-3.36c0-4.181-5.248-8.532-9.937-8.532z" fill="#fff"/><path d="M9.352 27.434c0 8.36 4.832 12.998 10.78 12.998 5.81 0 10.841-4.639 10.841-12.998 0-2.79-.979-4.64-.979-4.64-2.949-2.79-6.852-6.146-6.852-6.146-3.927 2.79-6.852 4.286-12.75 5.216-.012-.011-1.04.919-1.04 5.57z" fill="#fff"/><path d="M30.902 29.56c.177-1.036.278-2.024.278-3.219 0-2.902-.999-4.829-.999-4.829-3.01-2.902-7.02-6.39-7.02-6.39-4.01 2.902-7.021 4.463-13.043 5.427 0 0-1.062.963-1.062 5.792 0 1.085 0 2.317.152 3.28-3.1-.694-3.1-5.011-3.1-8.109C6.108 14.756 10.118 8 20.163 8c10.043 0 14.054 6.756 14.054 13.512-.026 2.439.088 7.5-3.315 8.049z" fill="#000"/></g><defs><clipPath id="clip0"><path fill="#fff" d="M0 0h40v50H0z"/></clipPath></defs></svg>