<svg width="40" height="40" fill="none" xmlns="http://www.w3.org/2000/svg"><path d="M36.29 40C16.276 40 0 23.637 0 3.517A3.508 3.508 0 013.499 0h7.172c1.887 0 3.426 1.51 3.499 3.389l1.136 7.164a3.502 3.502 0 01-.898 3.443l-2.17 2.201c2.655 4.807 6.676 8.849 11.458 11.51l2.17-2.191a3.473 3.473 0 013.426-.903l7.126 1.142c1.869.065 3.371 1.62 3.371 3.518v7.21A3.508 3.508 0 0136.29 40zM3.5 2.91a.606.606 0 00-.605.607c0 18.509 14.985 33.573 33.396 33.573a.6.6 0 00.605-.608v-7.21a.6.6 0 00-.605-.607 1.92 1.92 0 01-.229-.019l-7.318-1.178a1.42 1.42 0 01-.211-.046.596.596 0 00-.614.147l-2.922 2.956a1.43 1.43 0 01-1.676.267c-6.045-3.085-11.065-8.13-14.142-14.208a1.46 1.46 0 01.265-1.685l2.922-2.965a.623.623 0 00.147-.626c-.018-.074-.037-.139-.046-.212l-1.172-7.358c-.019-.064-.019-.147-.019-.22a.6.6 0 00-.604-.608H3.499z" fill="#000"/><path d="M19.831 19.613a1.461 1.461 0 01-1.447-1.436L18.19 4.033C18.191 1.805 19.987 0 22.185 0h13.822C38.205 0 40 1.805 40 4.015v7.864c0 2.21-1.795 4.014-3.993 4.014h-11.88l-3.28 3.297a1.432 1.432 0 01-1.016.423zM22.185 2.91c-.605 0-1.1.497-1.1 1.105l.147 10.681 1.274-1.28a1.437 1.437 0 011.025-.423h12.476c.604 0 1.099-.498 1.099-1.105V4.015c0-.608-.495-1.105-1.1-1.105H22.186z" fill="#000"/><path d="M25.308 7.486h7.85c.797 0 1.447-.654 1.447-1.455 0-.8-.65-1.455-1.447-1.455h-7.85c-.796 0-1.447.654-1.447 1.455s.65 1.455 1.447 1.455zM33.158 8.48h-7.85c-.796 0-1.447.654-1.447 1.456 0 .8.65 1.454 1.447 1.454h7.85c.797 0 1.447-.653 1.447-1.454 0-.802-.64-1.455-1.447-1.455z" fill="#8E8EEF"/></svg>
