<svg width="30" height="30" viewBox="0 0 30 30" fill="none" xmlns="http://www.w3.org/2000/svg">
<path d="M6.04167 12.9917C8.44167 17.7083 12.3 21.5667 17.025 23.9667L20.6917 20.2917C21.15 19.8333 21.8083 19.7 22.3833 19.8833C24.25 20.5 26.2583 20.8333 28.3333 20.8333C29.2583 20.8333 30 21.575 30 22.5V28.3333C30 29.2583 29.2583 30 28.3333 30C12.6833 30 0 17.3167 0 1.66667C0 0.741667 0.75 0 1.66667 0H7.5C8.425 0 9.16667 0.741667 9.16667 1.66667C9.16667 3.74167 9.5 5.75 10.1167 7.61667C10.3 8.19167 10.1667 8.85 9.70833 9.30833L6.04167 12.9917Z" fill="black"/>
</svg>
