<svg width="116" height="117" viewBox="0 0 116 117" fill="none" xmlns="http://www.w3.org/2000/svg">
<path d="M95.1886 78.0771C89.8871 90.0061 77.7571 98.0658 66.5227 98.8527C55.2776 99.6212 43.7897 94.6623 32.8762 81.9011C21.9627 69.14 17.0509 73.5981 11.0882 61.2232C5.12545 48.8483 10.6305 39.3196 21.532 30.8638C32.4335 22.4081 45.1076 18.2597 58.068 19.5961C71.0283 20.9326 84.2748 27.754 91.6331 39.0558C99.0021 50.3761 100.508 66.1377 95.1886 78.0771Z" fill="#C6F9EC"/>
<path d="M72.64 57.497L72.64 75.1362L32.96 75.1362L32.96 36.2258L66.7181 36.2258L72.6292 31.362L28 31.362L28 80L77.6 80L77.6 53.4158L72.64 57.497Z" fill="black"/>
<path d="M43.9108 51.4625L51.4571 58.9465L85.1169 30.6785C86.3189 29.6691 88.1175 29.804 89.1543 30.9628L89.2911 31.1157C90.3432 32.2916 90.2029 34.0225 89.0119 35.0197L53.2138 64.9922C52.0488 65.9676 50.1679 65.9157 49.0707 64.8277L39.5807 55.416C38.4775 54.3219 38.5262 52.5888 39.6759 51.5314L39.8276 51.392C40.9942 50.3191 42.8054 50.3662 43.9108 51.4625Z" fill="black"/>
</svg>
