<svg width="20" height="17" viewBox="0 0 20 17" fill="none" xmlns="http://www.w3.org/2000/svg">
<path d="M18 2.22437H10L8 0.224365H2C0.895 0.224365 0.00999999 1.11937 0.00999999 2.22437L0 14.2244C0 15.3294 0.895 16.2244 2 16.2244H18C19.105 16.2244 20 15.3294 20 14.2244V4.22437C20 3.11937 19.105 2.22437 18 2.22437ZM13 5.22437C14.105 5.22437 15 6.11937 15 7.22437C15 8.32936 14.105 9.22437 13 9.22437C11.895 9.22437 11 8.32936 11 7.22437C11 6.11937 11.895 5.22437 13 5.22437ZM17 13.2244H9V12.2244C9 10.8894 11.665 10.2244 13 10.2244C14.335 10.2244 17 10.8894 17 12.2244V13.2244Z" fill="white"/>
</svg>
