<svg width="295" height="305" viewBox="0 0 295 305" fill="none" xmlns="http://www.w3.org/2000/svg">
<path d="M236.193 169.028L236.544 174.489C236.764 177.969 234.117 180.97 230.629 181.2C227.14 181.42 224.132 178.779 223.902 175.299L223.551 169.838C223.33 166.357 225.977 163.357 229.466 163.127C232.955 162.907 235.972 165.547 236.193 169.028Z" fill="#F7F5F4" stroke="black" stroke-width="4.4945" stroke-linejoin="round"/>
<path d="M146.136 173.329C126.497 194.652 101.344 196.592 81.8949 173.329C62.9975 173.329 42.3457 192.882 42.3457 211.735V226.837H186.176V211.735C186.176 192.882 165.043 173.329 146.136 173.329Z" fill="#F7F5F4" stroke="black" stroke-width="4" stroke-linejoin="round"/>
<path d="M76.4114 150.955C61.2734 150.955 61.2734 132.072 61.2734 118.859C61.2734 92.425 76.4114 65.9907 114.266 65.9907C152.121 65.9907 167.259 92.425 167.259 118.859C167.259 128.911 167.259 150.955 152.121 150.955" fill="#F7F5F4"/>
<path d="M76.4114 150.955C61.2734 150.955 61.2734 132.072 61.2734 118.859C61.2734 92.425 76.4114 65.9907 114.266 65.9907C152.121 65.9907 167.259 92.425 167.259 118.859C167.259 128.911 167.259 150.955 152.121 150.955" stroke="black" stroke-width="4" stroke-linejoin="round"/>
<path d="M72.3906 137.733C72.3906 171.718 91.0775 190.601 114.025 190.601C136.491 190.601 155.9 171.718 155.9 137.733C155.9 126.401 152.111 118.85 152.111 118.85C140.752 107.518 125.614 93.8555 125.614 93.8555C110.476 105.187 99.1177 111.298 76.4107 115.069C76.4107 115.079 72.3906 118.86 72.3906 137.733Z" fill="#F7F5F4"/>
<path d="M132 135C132 136.06 131.576 137.078 130.827 137.827C130.078 138.576 129.06 139 128 139C126.94 139 125.922 138.576 125.173 137.827C124.424 137.078 124 136.06 124 135C124 133.94 124.424 132.922 125.173 132.173C125.922 131.424 126.94 131 128 131C129.06 131 130.078 131.424 130.827 132.173C131.576 132.922 132 133.94 132 135Z" fill="black"/>
<path d="M105 135C105 136.06 104.576 137.078 103.827 137.827C103.078 138.576 102.06 139 101 139C99.9399 139 98.9223 138.576 98.1731 137.827C97.424 137.078 97 136.06 97 135C97 133.94 97.424 132.922 98.1731 132.173C98.9223 131.424 99.9399 131 101 131C102.06 131 103.078 131.424 103.827 132.173C104.576 132.922 105 133.94 105 135Z" fill="black"/>
<path d="M72.3906 137.733C72.3906 171.718 91.0775 190.601 114.025 190.601C136.491 190.601 155.9 171.718 155.9 137.733C155.9 126.401 152.111 118.85 152.111 118.85C140.752 107.518 125.614 93.8555 125.614 93.8555C110.476 105.187 99.1177 111.298 76.4107 115.069C76.4107 115.079 72.3906 118.86 72.3906 137.733Z" stroke="black" stroke-width="4" stroke-linejoin="round"/>
<path d="M103 159.486C109.306 165.776 119.491 165.686 125.707 159.486" stroke="black" stroke-width="4" stroke-linecap="round" stroke-linejoin="round"/>
<path d="M142.508 232.018C142.508 236.689 146.287 240.479 150.949 240.479H235.331C239.992 240.479 243.772 236.689 243.772 232.018V181.29C243.772 176.249 239.682 172.168 234.629 172.168H151.661C146.608 172.168 142.518 176.249 142.518 181.29V232.018H142.508Z" fill="#C6F9EC" stroke="black" stroke-width="4" stroke-linejoin="round"/>
<path d="M176.493 211.945C172.393 216.395 167.13 216.805 163.069 211.945C159.119 211.945 154.809 216.025 154.809 219.966V223.126H184.864V219.966C184.854 216.035 180.443 211.945 176.493 211.945Z" fill="#C6F9EC" stroke="black" stroke-width="4" stroke-linejoin="round"/>
<path d="M161.916 207.274C158.748 207.274 158.748 203.333 158.748 200.563C158.748 195.042 161.916 189.521 169.816 189.521C177.726 189.521 180.884 195.042 180.884 200.563C180.884 202.663 180.884 207.274 177.716 207.274" fill="#C6F9EC"/>
<path d="M161.916 207.274C158.748 207.274 158.748 203.333 158.748 200.563C158.748 195.042 161.916 189.521 169.816 189.521C177.726 189.521 180.884 195.042 180.884 200.563C180.884 202.663 180.884 207.274 177.716 207.274" stroke="black" stroke-width="4" stroke-linejoin="round"/>
<path d="M161.084 204.513C161.084 211.614 164.984 215.554 169.786 215.554C174.478 215.554 178.538 211.614 178.538 204.513C178.538 202.142 177.746 200.572 177.746 200.572C175.37 198.202 172.212 195.351 172.212 195.351C169.044 197.721 166.678 198.992 161.926 199.782C161.916 199.772 161.084 200.562 161.084 204.513Z" fill="#C6F9EC"/>
<path d="M161.084 204.513C161.084 211.614 164.984 215.554 169.786 215.554C174.478 215.554 178.538 211.614 178.538 204.513C178.538 202.142 177.746 200.572 177.746 200.572C175.37 198.202 172.212 195.351 172.212 195.351C169.044 197.721 166.678 198.992 161.926 199.782C161.916 199.772 161.084 200.562 161.084 204.513Z" fill="#C6F9EC" stroke="black" stroke-width="4" stroke-linejoin="round"/>
<path d="M193.626 197.142H217.335" stroke="black" stroke-width="4" stroke-linecap="round" stroke-linejoin="round"/>
<path d="M193.626 205.724H217.335" stroke="black" stroke-width="4" stroke-linecap="round" stroke-linejoin="round"/>
<path d="M193.626 213.755H217.335" stroke="black" stroke-width="4" stroke-linecap="round" stroke-linejoin="round"/>
<path d="M246.98 203.964H234.318C230.288 203.964 227.02 200.703 227.02 196.682C227.02 192.662 230.288 189.401 234.318 189.401H246.98C251.01 189.401 254.278 192.662 254.278 196.682C254.288 200.693 251.01 203.964 246.98 203.964Z" fill="#F7F5F4" stroke="black" stroke-width="4" stroke-linejoin="round"/>
<path d="M246.98 189.421H234.318C230.288 189.421 227.02 186.161 227.02 182.14C227.02 178.119 230.288 174.859 234.318 174.859H246.98C251.01 174.859 254.278 178.119 254.278 182.14C254.288 186.161 251.01 189.421 246.98 189.421Z" fill="#F7F5F4" stroke="black" stroke-width="4" stroke-linejoin="round"/>
<path d="M246.98 218.436H234.318C230.288 218.436 227.02 215.175 227.02 211.154C227.02 207.134 230.288 203.873 234.318 203.873H246.98C251.01 203.873 254.278 207.134 254.278 211.154C254.288 215.175 251.01 218.436 246.98 218.436Z" fill="#F7F5F4" stroke="black" stroke-width="4" stroke-linejoin="round"/>
<path d="M246.98 233.218H234.318C230.288 233.218 227.02 229.958 227.02 225.937C227.02 221.916 230.288 218.656 234.318 218.656H246.98C251.01 218.656 254.278 221.916 254.278 225.937C254.288 229.958 251.01 233.218 246.98 233.218Z" fill="#F7F5F4" stroke="black" stroke-width="4" stroke-linejoin="round"/>
<path d="M13 52.4278V18H47.5087" fill="white"/>
<path d="M13 52.4278V18H47.5087" stroke="black" stroke-width="4" stroke-linecap="round" stroke-linejoin="round"/>
<path d="M47.5087 288.102H13V253.674" fill="white"/>
<path d="M47.5087 288.102H13V253.674" stroke="black" stroke-width="4" stroke-linecap="round" stroke-linejoin="round"/>
<path d="M273.99 253.674V288.102H239.481" fill="white"/>
<path d="M273.99 253.674V288.102H239.481" stroke="black" stroke-width="4" stroke-linecap="round" stroke-linejoin="round"/>
<path d="M239.481 18H273.99V52.4278" fill="white"/>
<path d="M239.481 18H273.99V52.4278" stroke="black" stroke-width="4" stroke-linecap="round" stroke-linejoin="round"/>
</svg>
