<svg width="104" height="101" viewBox="0 0 104 101" fill="none" xmlns="http://www.w3.org/2000/svg">
<path d="M10.9104 64.6248C6.224 52.441 9.10223 38.1647 16.4897 29.6643C23.8978 21.1694 35.5274 16.5528 52.2679 17.8593C69.0085 19.1657 69.3292 12.5402 82.2959 17.0743C95.2626 21.6084 98.1077 32.2389 96.3783 45.9265C94.6489 59.6142 88.6203 71.5095 78.5109 79.7288C68.4016 87.9481 54.2114 92.4913 41.0167 89.7029C27.8015 86.9089 15.5915 76.8285 10.9104 64.6248Z" fill="#02CE9D" fill-opacity="0.3"/>
<path d="M48.0042 44H56.0002V61.5H48.0042V44ZM48.0002 65H55.9962V72H48.0002V65Z" fill="black"/>
<path d="M58.2453 22.8052C57.0158 20.4583 54.6206 19 51.9993 19C49.3779 19 46.9827 20.4583 45.7533 22.8088L19.8296 72.4802C19.2544 73.571 18.9694 74.795 19.0029 76.0315C19.0363 77.2681 19.387 78.4744 20.0204 79.5316C20.6446 80.5935 21.5312 81.472 22.5925 82.0802C23.6537 82.6885 24.8531 83.0055 26.0721 82.9999H77.9265C80.4277 82.9999 82.6922 81.7029 83.9817 79.5316C84.614 78.474 84.9641 77.2678 84.9976 76.0315C85.031 74.7951 84.7467 73.5713 84.1724 72.4802L58.2453 22.8052ZM26.0721 75.8339L51.9993 26.1625L77.9441 75.8339H26.0721Z" fill="black"/>
</svg>