<svg width="45" height="52" viewBox="0 0 45 52" fill="none" xmlns="http://www.w3.org/2000/svg">
<path d="M32.2741 41.8677L30.4103 40.0772C29.9726 39.6567 29.2807 39.6575 28.844 40.079C28.3831 40.5237 28.3841 41.2623 28.846 41.7059L31.3472 44.1077C31.8662 44.6061 32.6862 44.6056 33.2047 44.1067L39.1545 38.3809C39.6161 37.9367 39.6161 37.1978 39.1545 36.7536C38.7172 36.3328 38.0256 36.3328 37.5884 36.7536L32.2741 41.8677Z" fill="#02CEAA"/>
<path d="M33.5 29C27.1589 29 22 34.1589 22 40.5C22 46.8411 27.1589 52 33.5 52C39.8411 52 45 46.8411 45 40.5C45 34.1589 39.8411 29 33.5 29ZM33.5 49.7C28.4274 49.7 24.3 45.5726 24.3 40.5C24.3 35.4274 28.4274 31.3 33.5 31.3C38.5726 31.3 42.7 35.4274 42.7 40.5C42.7 45.5726 38.5726 49.7 33.5 49.7Z" fill="#02CEAA"/>
<path d="M30.8298 13.5321V10.7798C30.8298 10.5275 30.6287 10.3211 30.383 10.3211H8.93617C8.69043 10.3211 8.48936 10.5275 8.48936 10.7798V13.5321C8.48936 13.7844 8.69043 13.9908 8.93617 13.9908H30.383C30.6287 13.9908 30.8298 13.7844 30.8298 13.5321ZM8.93617 18.578C8.69043 18.578 8.48936 18.7844 8.48936 19.0367V21.789C8.48936 22.0413 8.69043 22.2477 8.93617 22.2477H19.2128C19.4585 22.2477 19.6596 22.0413 19.6596 21.789V19.0367C19.6596 18.7844 19.4585 18.578 19.2128 18.578H8.93617ZM16.9787 44.4954H4.02128V4.12844H35.2979V23.8532C35.2979 24.1055 35.4989 24.3119 35.7447 24.3119H38.8723C39.1181 24.3119 39.3191 24.1055 39.3191 23.8532V1.83486C39.3191 0.819954 38.5205 0 37.5319 0H1.78723C0.79867 0 0 0.819954 0 1.83486V46.789C0 47.8039 0.79867 48.6239 1.78723 48.6239H16.9787C17.2245 48.6239 17.4255 48.4174 17.4255 48.1651V44.9541C17.4255 44.7018 17.2245 44.4954 16.9787 44.4954Z" fill="#3D3DE1"/>
</svg>
