<svg width="58" height="60" viewBox="0 0 58 60" fill="none" xmlns="http://www.w3.org/2000/svg">
<path fill-rule="evenodd" clip-rule="evenodd" d="M28.9415 5.52255C38.0198 4.29655 47.849 7.19762 53.5078 14.4097C59.1295 21.5743 58.7996 31.5216 56.1897 40.2498C53.807 48.2186 48.0796 54.6501 40.4741 57.9988C33.1964 61.2031 25.1207 60.2955 17.8202 57.1438C10.0331 53.7821 1.59874 48.9668 0.167838 40.5984C-1.21725 32.498 6.27367 26.4358 11.4835 20.0849C16.5412 13.9194 21.044 6.58909 28.9415 5.52255Z" fill="#89DDEF"/>
<path d="M46.3135 26.3015H15.4517C15.0577 26.3015 14.7294 26.4323 14.4667 26.6938C14.2041 26.9553 14.0728 27.2822 14.0728 27.6745V44.4119C14.0728 44.8477 14.2041 45.1964 14.4667 45.458C14.7294 45.7195 15.0577 45.8502 15.4517 45.8502H46.3135C46.7075 45.8502 47.0358 45.7195 47.2984 45.458C47.5611 45.1964 47.6924 44.8477 47.6924 44.4119V27.6745C47.6924 27.2822 47.5611 26.9553 47.2984 26.6938C47.0358 26.4323 46.7075 26.3015 46.3135 26.3015ZM16.8963 29.1129H18.2752C18.2752 29.5052 18.1439 29.8321 17.8812 30.0936C17.6186 30.3551 17.2903 30.4859 16.8963 30.4859V29.1129ZM16.8963 43.0389V41.6659C17.8156 41.6659 18.2752 42.1236 18.2752 43.0389H16.8963ZM25.9578 43.0389H21.0987C21.0987 41.862 20.6938 40.8704 19.884 40.0641C19.0741 39.2577 18.0782 38.8545 16.8963 38.8545V33.2972C18.0782 33.2972 19.0741 32.894 19.884 32.0877C20.6938 31.2813 21.0987 30.2897 21.0987 29.1129H25.9578C24.557 31.0743 23.8566 33.3844 23.8566 36.0432C23.8566 38.6584 24.557 40.9903 25.9578 43.0389ZM30.8826 43.0389C29.7444 43.0389 28.7595 42.3415 27.9277 40.9467C27.096 39.5519 26.6801 37.9174 26.6801 36.0432C26.6801 34.1689 27.096 32.5453 27.9277 31.1723C28.7595 29.7994 29.7444 29.1129 30.8826 29.1129C32.0207 29.1129 33.0057 29.7994 33.8374 31.1723C34.6692 32.5453 35.085 34.1689 35.085 36.0432C35.085 37.961 34.6801 39.6064 33.8703 40.9794C33.0604 42.3524 32.0645 43.0389 30.8826 43.0389ZM44.8689 43.0389H43.4899C43.4899 42.1236 43.9496 41.6659 44.8689 41.6659V43.0389ZM44.8689 38.8545C43.6869 38.8545 42.691 39.2577 41.8812 40.0641C41.0713 40.8704 40.6664 41.862 40.6664 43.0389H35.9387C37.3395 40.9903 38.0399 38.6584 38.0399 36.0432C38.0399 33.3844 37.3395 31.0743 35.9387 29.1129H40.6664C40.6664 30.2897 41.0713 31.2813 41.8812 32.0877C42.691 32.894 43.6869 33.2972 44.8689 33.2972V38.8545ZM44.8689 30.4859C44.4749 30.4859 44.1466 30.3551 43.8839 30.0936C43.6213 29.8321 43.4899 29.5052 43.4899 29.1129H44.8689V30.4859ZM44.8689 50.0346H37.0549C37.624 49.25 37.9086 48.3129 37.9086 47.2232H35.085C35.085 47.3104 35.0741 47.4194 35.0522 47.5501C35.0303 47.6809 34.9428 47.9097 34.7896 48.2366C34.6363 48.5635 34.4284 48.8468 34.1657 49.0866C33.9031 49.3263 33.4872 49.5442 32.9181 49.7404C32.3491 49.9365 31.6705 50.0346 30.8826 50.0346C29.7006 50.0346 28.7595 49.8057 28.0591 49.3481C27.3586 48.8904 26.9537 48.4872 26.8443 48.1386C26.7348 47.7899 26.6801 47.4847 26.6801 47.2232H23.8566C23.8566 48.0514 24.1411 48.9885 24.7102 50.0346H16.8963V47.2232H14.0728V50.0346C14.0728 50.7756 14.3464 51.4185 14.8935 51.9633C15.4407 52.5081 16.1083 52.7806 16.8963 52.7806H44.8689C45.6568 52.7806 46.3244 52.5081 46.8716 51.9633C47.4188 51.4185 47.6924 50.7756 47.6924 50.0346V47.2232H44.8689V50.0346ZM44.8689 56.9649H37.0549C37.624 56.1803 37.9086 55.265 37.9086 54.2189H35.085C35.085 54.4804 35.0413 54.7638 34.9537 55.0689C34.8662 55.374 34.4831 55.7663 33.8046 56.2457C33.1261 56.7252 32.1521 56.9649 30.8826 56.9649C29.7006 56.9649 28.7595 56.747 28.0591 56.3111C27.3586 55.8752 26.9537 55.4829 26.8443 55.1342C26.7348 54.7856 26.6801 54.4804 26.6801 54.2189H23.8566C23.8566 55.0035 24.1411 55.9188 24.7102 56.9649H16.8963V54.2189H14.0728V56.9649C14.0728 57.7495 14.3464 58.4142 14.8935 58.959C15.4407 59.5038 16.1083 59.7763 16.8963 59.7763H44.8689C45.6568 59.7763 46.3244 59.5038 46.8716 58.959C47.4188 58.4142 47.6924 57.7495 47.6924 56.9649V54.2189H44.8689V56.9649Z" fill="black"/>
<path fill-rule="evenodd" clip-rule="evenodd" d="M22.4319 10.7899C22.5439 10.6795 22.677 10.592 22.8235 10.5323C22.9699 10.4725 23.127 10.4418 23.2856 10.4418C23.4442 10.4418 23.6012 10.4725 23.7477 10.5323C23.8942 10.592 24.0273 10.6795 24.1393 10.7899L30.5204 17.063L36.9015 10.7899C37.128 10.5674 37.435 10.4424 37.7552 10.4424C38.0754 10.4424 38.3825 10.5674 38.609 10.7899C38.8354 11.0124 38.9626 11.3142 38.9626 11.6288C38.9626 11.9435 38.8354 12.2453 38.609 12.4678L31.3741 19.5774C31.2621 19.6878 31.1291 19.7753 30.9826 19.8351C30.8361 19.8948 30.679 19.9256 30.5204 19.9256C30.3618 19.9256 30.2048 19.8948 30.0583 19.8351C29.9118 19.7753 29.7787 19.6878 29.6667 19.5774L22.4319 12.4678C22.3196 12.3577 22.2305 12.2269 22.1697 12.083C22.1089 11.939 22.0776 11.7847 22.0776 11.6288C22.0776 11.473 22.1089 11.3186 22.1697 11.1747C22.2305 11.0307 22.3196 10.9 22.4319 10.7899V10.7899Z" fill="black"/>
<path fill-rule="evenodd" clip-rule="evenodd" d="M30.5203 0C30.8401 0 31.1468 0.124842 31.3729 0.347062C31.599 0.569282 31.7261 0.870677 31.7261 1.18494V16.3684C31.7261 16.6827 31.599 16.9841 31.3729 17.2063C31.1468 17.4285 30.8401 17.5534 30.5203 17.5534C30.2005 17.5534 29.8938 17.4285 29.6676 17.2063C29.4415 16.9841 29.3145 16.6827 29.3145 16.3684V1.18494C29.3145 0.870677 29.4415 0.569282 29.6676 0.347062C29.8938 0.124842 30.2005 0 30.5203 0Z" fill="black"/>
</svg>
