<svg width="283" height="251" viewBox="0 0 283 251" fill="none" xmlns="http://www.w3.org/2000/svg">
<g clip-path="url(#clip0)">
<path fill-rule="evenodd" clip-rule="evenodd" d="M251.055 101.24C258.888 130.127 240.144 157.842 221.487 181.536C203.235 204.711 180.787 228.824 151.017 228.298C122.224 227.799 103.911 201.289 86.0558 179.119C69.2178 158.228 48.3252 135.233 55.2018 109.382C61.8629 84.3235 92.4475 77.4796 116.122 66.0954C138.685 55.2637 160.783 40.6705 185.016 46.9884C214.22 54.5779 243.276 72.5465 251.055 101.24Z" fill="#C2C2FF"/>
<path d="M180.154 59.7442H179.487V59.2049C179.487 58.7522 179.116 58.386 178.658 58.386C178.2 58.386 177.83 58.7522 177.83 59.2049V59.7442H177.163C176.705 59.7442 176.335 60.1103 176.335 60.563C176.335 61.0157 176.705 61.3819 177.163 61.3819H177.83V61.9211C177.83 62.3739 178.2 62.74 178.658 62.74C179.116 62.74 179.487 62.3739 179.487 61.9211V61.3819H180.154C180.612 61.3819 180.982 61.0157 180.982 60.563C180.982 60.1103 180.612 59.7442 180.154 59.7442Z" fill="#231F20"/>
<path d="M134.159 213.578H133.492V213.039C133.492 212.586 133.121 212.22 132.663 212.22C132.205 212.22 131.835 212.586 131.835 213.039V213.578H131.168C130.71 213.578 130.34 213.945 130.34 214.397C130.34 214.85 130.71 215.216 131.168 215.216H131.835V215.755C131.835 216.208 132.205 216.574 132.663 216.574C133.121 216.574 133.492 216.208 133.492 215.755V215.216H134.159C134.617 215.216 134.987 214.85 134.987 214.397C134.987 213.945 134.617 213.578 134.159 213.578Z" fill="#231F20"/>
<path d="M256.985 158.233H256.318V157.694C256.318 157.241 255.947 156.875 255.489 156.875C255.031 156.875 254.661 157.241 254.661 157.694V158.233H253.994C253.536 158.233 253.166 158.599 253.166 159.052C253.166 159.505 253.536 159.871 253.994 159.871H254.661V160.41C254.661 160.863 255.031 161.229 255.489 161.229C255.947 161.229 256.318 160.863 256.318 160.41V159.871H256.985C257.443 159.871 257.813 159.505 257.813 159.052C257.813 158.599 257.443 158.233 256.985 158.233Z" fill="#231F20"/>
<path d="M224.242 198.805H56.7441C53.693 198.805 51.2212 196.362 51.2212 193.346V87.0664C51.2212 84.0506 53.693 81.6073 56.7441 81.6073H224.242C227.293 81.6073 229.765 84.0506 229.765 87.0664V193.346C229.765 196.362 227.293 198.805 224.242 198.805Z" fill="white" stroke="black" stroke-width="3" stroke-linecap="round" stroke-linejoin="round"/>
<path d="M78.487 107.11C77.5557 107.11 76.683 106.934 75.869 106.582C75.781 106.545 75.7077 106.487 75.649 106.406C75.5903 106.318 75.561 106.226 75.561 106.131C75.561 106.006 75.6013 105.9 75.682 105.812C75.77 105.717 75.88 105.669 76.012 105.669C76.0853 105.669 76.155 105.684 76.221 105.713C76.8957 106.014 77.618 106.164 78.388 106.164C79.6713 106.164 80.313 105.742 80.313 104.899C80.313 104.679 80.2287 104.496 80.06 104.349C79.8987 104.202 79.697 104.089 79.455 104.008C79.213 103.92 78.8683 103.817 78.421 103.7C77.827 103.546 77.3467 103.399 76.98 103.26C76.6133 103.113 76.298 102.897 76.034 102.611C75.77 102.325 75.638 101.944 75.638 101.467C75.638 101.049 75.748 100.671 75.968 100.334C76.188 99.9893 76.5107 99.718 76.936 99.52C77.3687 99.3147 77.8857 99.212 78.487 99.212C79.2937 99.212 80.0233 99.333 80.676 99.575C80.8813 99.6483 80.984 99.795 80.984 100.015C80.984 100.132 80.9437 100.239 80.863 100.334C80.7823 100.429 80.676 100.477 80.544 100.477C80.5 100.477 80.4413 100.462 80.368 100.433C79.796 100.235 79.2057 100.136 78.597 100.136C78.0177 100.136 77.5447 100.246 77.178 100.466C76.8187 100.686 76.639 100.994 76.639 101.39C76.639 101.654 76.7233 101.87 76.892 102.039C77.068 102.2 77.2843 102.329 77.541 102.424C77.805 102.512 78.1607 102.607 78.608 102.71C79.1873 102.849 79.653 102.989 80.005 103.128C80.3643 103.267 80.6687 103.484 80.918 103.777C81.1747 104.07 81.303 104.466 81.303 104.965C81.303 105.376 81.1857 105.746 80.951 106.076C80.7163 106.399 80.3863 106.652 79.961 106.835C79.5357 107.018 79.0443 107.11 78.487 107.11ZM85.7141 107.055C85.5748 107.055 85.4575 107.007 85.3621 106.912C85.2668 106.817 85.2191 106.699 85.2191 106.56V100.257H82.9751C82.8431 100.257 82.7331 100.213 82.6451 100.125C82.5571 100.037 82.5131 99.927 82.5131 99.795C82.5131 99.663 82.5571 99.553 82.6451 99.465C82.7331 99.3697 82.8431 99.322 82.9751 99.322H88.4531C88.5851 99.322 88.6951 99.3697 88.7831 99.465C88.8785 99.553 88.9261 99.663 88.9261 99.795C88.9261 99.927 88.8785 100.037 88.7831 100.125C88.6951 100.213 88.5851 100.257 88.4531 100.257H86.2201V106.56C86.2201 106.699 86.1688 106.817 86.0661 106.912C85.9708 107.007 85.8535 107.055 85.7141 107.055ZM91.6352 107.055C91.4959 107.055 91.3786 107.007 91.2832 106.912C91.1879 106.817 91.1402 106.699 91.1402 106.56V99.773C91.1402 99.6337 91.1879 99.5163 91.2832 99.421C91.3786 99.3183 91.4959 99.267 91.6352 99.267C91.7746 99.267 91.8919 99.3183 91.9872 99.421C92.0899 99.5163 92.1412 99.6337 92.1412 99.773V106.56C92.1412 106.699 92.0899 106.817 91.9872 106.912C91.8919 107.007 91.7746 107.055 91.6352 107.055ZM95.772 107.055C95.6326 107.055 95.5153 107.007 95.42 106.912C95.3246 106.817 95.277 106.699 95.277 106.56V99.993C95.277 99.795 95.3466 99.6263 95.486 99.487C95.6253 99.3403 95.794 99.267 95.992 99.267H96.355C96.5016 99.267 96.6336 99.311 96.751 99.399C96.8756 99.487 96.9673 99.597 97.026 99.729L99.523 105.955L102.02 99.729C102.079 99.597 102.167 99.487 102.284 99.399C102.409 99.311 102.544 99.267 102.691 99.267H103.054C103.252 99.267 103.421 99.3403 103.56 99.487C103.699 99.6263 103.769 99.795 103.769 99.993V106.56C103.769 106.699 103.721 106.817 103.626 106.912C103.531 107.007 103.413 107.055 103.274 107.055C103.135 107.055 103.014 107.007 102.911 106.912C102.816 106.817 102.768 106.699 102.768 106.56V100.312L100.227 106.593C100.168 106.732 100.073 106.846 99.941 106.934C99.8163 107.015 99.677 107.055 99.523 107.055C99.369 107.055 99.226 107.015 99.094 106.934C98.9693 106.846 98.8776 106.732 98.819 106.593L96.278 100.312V106.56C96.278 106.699 96.2266 106.817 96.124 106.912C96.0286 107.007 95.9113 107.055 95.772 107.055ZM110.003 107.11C109.482 107.11 108.98 107 108.496 106.78C108.012 106.56 107.616 106.226 107.308 105.779C107 105.324 106.846 104.771 106.846 104.118V99.773C106.846 99.6337 106.894 99.5163 106.989 99.421C107.084 99.3183 107.202 99.267 107.341 99.267C107.48 99.267 107.598 99.3183 107.693 99.421C107.796 99.5163 107.847 99.6337 107.847 99.773V104.151C107.847 104.591 107.946 104.965 108.144 105.273C108.349 105.581 108.617 105.812 108.947 105.966C109.277 106.12 109.629 106.197 110.003 106.197C110.377 106.197 110.729 106.12 111.059 105.966C111.389 105.812 111.653 105.581 111.851 105.273C112.056 104.965 112.159 104.591 112.159 104.151V99.773C112.159 99.6337 112.207 99.5163 112.302 99.421C112.397 99.3183 112.515 99.267 112.654 99.267C112.793 99.267 112.911 99.3183 113.006 99.421C113.109 99.5163 113.16 99.6337 113.16 99.773V104.118C113.16 104.771 113.006 105.324 112.698 105.779C112.39 106.226 111.994 106.56 111.51 106.78C111.026 107 110.524 107.11 110.003 107.11ZM116.93 107C116.739 107 116.574 106.934 116.435 106.802C116.303 106.663 116.237 106.498 116.237 106.307V99.773C116.237 99.6337 116.285 99.5163 116.38 99.421C116.475 99.3183 116.593 99.267 116.732 99.267C116.871 99.267 116.989 99.3183 117.084 99.421C117.187 99.5163 117.238 99.6337 117.238 99.773V105.999H120.835C120.974 105.999 121.092 106.05 121.187 106.153C121.29 106.248 121.341 106.366 121.341 106.505C121.341 106.644 121.29 106.762 121.187 106.857C121.092 106.952 120.974 107 120.835 107H116.93ZM126.462 107.11C125.941 107.11 125.439 107 124.955 106.78C124.471 106.56 124.075 106.226 123.767 105.779C123.459 105.324 123.305 104.771 123.305 104.118V99.773C123.305 99.6337 123.353 99.5163 123.448 99.421C123.543 99.3183 123.661 99.267 123.8 99.267C123.939 99.267 124.057 99.3183 124.152 99.421C124.255 99.5163 124.306 99.6337 124.306 99.773V104.151C124.306 104.591 124.405 104.965 124.603 105.273C124.808 105.581 125.076 105.812 125.406 105.966C125.736 106.12 126.088 106.197 126.462 106.197C126.836 106.197 127.188 106.12 127.518 105.966C127.848 105.812 128.112 105.581 128.31 105.273C128.515 104.965 128.618 104.591 128.618 104.151V99.773C128.618 99.6337 128.666 99.5163 128.761 99.421C128.856 99.3183 128.974 99.267 129.113 99.267C129.252 99.267 129.37 99.3183 129.465 99.421C129.568 99.5163 129.619 99.6337 129.619 99.773V104.118C129.619 104.771 129.465 105.324 129.157 105.779C128.849 106.226 128.453 106.56 127.969 106.78C127.485 107 126.983 107.11 126.462 107.11ZM135.116 107.11C134.185 107.11 133.312 106.934 132.498 106.582C132.41 106.545 132.337 106.487 132.278 106.406C132.219 106.318 132.19 106.226 132.19 106.131C132.19 106.006 132.23 105.9 132.311 105.812C132.399 105.717 132.509 105.669 132.641 105.669C132.714 105.669 132.784 105.684 132.85 105.713C133.525 106.014 134.247 106.164 135.017 106.164C136.3 106.164 136.942 105.742 136.942 104.899C136.942 104.679 136.858 104.496 136.689 104.349C136.528 104.202 136.326 104.089 136.084 104.008C135.842 103.92 135.497 103.817 135.05 103.7C134.456 103.546 133.976 103.399 133.609 103.26C133.242 103.113 132.927 102.897 132.663 102.611C132.399 102.325 132.267 101.944 132.267 101.467C132.267 101.049 132.377 100.671 132.597 100.334C132.817 99.9893 133.14 99.718 133.565 99.52C133.998 99.3147 134.515 99.212 135.116 99.212C135.923 99.212 136.652 99.333 137.305 99.575C137.51 99.6483 137.613 99.795 137.613 100.015C137.613 100.132 137.573 100.239 137.492 100.334C137.411 100.429 137.305 100.477 137.173 100.477C137.129 100.477 137.07 100.462 136.997 100.433C136.425 100.235 135.835 100.136 135.226 100.136C134.647 100.136 134.174 100.246 133.807 100.466C133.448 100.686 133.268 100.994 133.268 101.39C133.268 101.654 133.352 101.87 133.521 102.039C133.697 102.2 133.913 102.329 134.17 102.424C134.434 102.512 134.79 102.607 135.237 102.71C135.816 102.849 136.282 102.989 136.634 103.128C136.993 103.267 137.298 103.484 137.547 103.777C137.804 104.07 137.932 104.466 137.932 104.965C137.932 105.376 137.815 105.746 137.58 106.076C137.345 106.399 137.015 106.652 136.59 106.835C136.165 107.018 135.673 107.11 135.116 107.11Z" fill="black"/>
<path d="M75.869 106.582L76.0675 106.123L76.0613 106.12L75.869 106.582ZM75.649 106.406L75.233 106.683L75.2386 106.692L75.2446 106.7L75.649 106.406ZM75.682 105.812L75.3146 105.473L75.3134 105.474L75.682 105.812ZM76.221 105.713L76.4245 105.256L76.4241 105.256L76.221 105.713ZM80.06 104.349L79.7236 104.719L79.7319 104.726L80.06 104.349ZM79.455 104.008L79.2841 104.478L79.2969 104.482L79.455 104.008ZM78.421 103.7L78.5479 103.216L78.5465 103.216L78.421 103.7ZM76.98 103.26L76.7943 103.724L76.8024 103.727L76.98 103.26ZM76.034 102.611L75.6666 102.95L76.034 102.611ZM75.968 100.334L76.3868 100.607L76.3895 100.603L75.968 100.334ZM76.936 99.52L77.147 99.9733L77.1504 99.9717L76.936 99.52ZM80.676 99.575L80.5022 100.044L80.5078 100.046L80.676 99.575ZM80.863 100.334L81.2447 100.657L81.2447 100.657L80.863 100.334ZM80.368 100.433L80.5537 99.9688L80.5427 99.9644L80.5316 99.9605L80.368 100.433ZM77.178 100.466L76.9207 100.037L76.9169 100.04L77.178 100.466ZM76.892 102.039L76.5384 102.393L76.5461 102.4L76.5541 102.408L76.892 102.039ZM77.541 102.424L77.3669 102.893L77.3748 102.896L77.3829 102.898L77.541 102.424ZM78.608 102.71L78.7249 102.224L78.7198 102.223L78.608 102.71ZM80.005 103.128L79.821 103.593L79.8242 103.594L80.005 103.128ZM80.918 103.777L80.537 104.101L80.5417 104.106L80.918 103.777ZM80.951 106.076L81.3554 106.37L81.3585 106.366L80.951 106.076ZM79.961 106.835L80.1589 107.294L79.961 106.835ZM78.487 106.61C77.6204 106.61 76.8157 106.447 76.0675 106.123L75.6705 107.041C76.5503 107.421 77.4909 107.61 78.487 107.61V106.61ZM76.0613 106.12C76.0603 106.12 76.06 106.12 76.0601 106.12C76.0602 106.12 76.0604 106.12 76.0603 106.12C76.0603 106.12 76.0598 106.12 76.0587 106.119C76.0577 106.117 76.0558 106.115 76.0534 106.112L75.2446 106.7C75.3547 106.851 75.5 106.97 75.6767 107.044L76.0613 106.12ZM76.065 106.129C76.0589 106.12 76.0584 106.116 76.0592 106.119C76.0596 106.12 76.0601 106.122 76.0605 106.124C76.0608 106.127 76.061 106.129 76.061 106.131H75.061C75.061 106.336 75.1258 106.523 75.233 106.683L76.065 106.129ZM76.061 106.131C76.061 106.127 76.0613 106.126 76.0611 106.127C76.0609 106.128 76.0602 106.131 76.0587 106.135C76.0573 106.139 76.0554 106.143 76.0535 106.146C76.0516 106.149 76.0504 106.15 76.0506 106.15L75.3134 105.474C75.1442 105.659 75.061 105.887 75.061 106.131H76.061ZM76.0494 106.151C76.0502 106.15 76.0488 106.152 76.0449 106.155C76.0409 106.158 76.0356 106.161 76.0293 106.164C76.0231 106.166 76.0176 106.168 76.0138 106.169C76.01 106.169 76.0092 106.169 76.012 106.169V105.169C75.7432 105.169 75.4991 105.273 75.3146 105.473L76.0494 106.151ZM76.012 106.169C76.0136 106.169 76.0147 106.169 76.0153 106.169C76.0159 106.169 76.0162 106.169 76.0162 106.169C76.0163 106.169 76.0164 106.169 76.0166 106.169C76.0167 106.169 76.0172 106.17 76.0179 106.17L76.4241 105.256C76.2931 105.198 76.1542 105.169 76.012 105.169V106.169ZM76.0175 106.17C76.7589 106.5 77.5509 106.664 78.388 106.664V105.664C77.6851 105.664 77.0324 105.527 76.4245 105.256L76.0175 106.17ZM78.388 106.664C79.0685 106.664 79.6658 106.555 80.1063 106.266C80.5835 105.952 80.813 105.469 80.813 104.899H79.813C79.813 105.172 79.7217 105.322 79.5572 105.43C79.356 105.562 78.9908 105.664 78.388 105.664V106.664ZM80.813 104.899C80.813 104.532 80.664 104.212 80.3881 103.972L79.7319 104.726C79.7934 104.78 79.813 104.826 79.813 104.899H80.813ZM80.3963 103.979C80.1755 103.778 79.91 103.633 79.6131 103.534L79.2969 104.482C79.484 104.545 79.6218 104.626 79.7237 104.719L80.3963 103.979ZM79.6259 103.538C79.3624 103.442 79.0004 103.335 78.5479 103.216L78.2941 104.184C78.7363 104.3 79.0636 104.398 79.2841 104.478L79.6259 103.538ZM78.5465 103.216C77.9615 103.064 77.5005 102.923 77.1576 102.793L76.8024 103.727C77.1928 103.876 77.6925 104.028 78.2955 104.184L78.5465 103.216ZM77.1657 102.796C76.8671 102.676 76.6141 102.502 76.4014 102.272L75.6666 102.95C75.9819 103.292 76.3596 103.55 76.7943 103.724L77.1657 102.796ZM76.4014 102.272C76.2408 102.098 76.138 101.848 76.138 101.467H75.138C75.138 102.04 75.2992 102.552 75.6666 102.95L76.4014 102.272ZM76.138 101.467C76.138 101.142 76.2219 100.86 76.3868 100.607L75.5492 100.061C75.2741 100.483 75.138 100.956 75.138 101.467H76.138ZM76.3895 100.603C76.5511 100.35 76.7949 100.137 77.147 99.9733L76.725 99.0667C76.2264 99.2988 75.8249 99.6288 75.5465 100.065L76.3895 100.603ZM77.1504 99.9717C77.5012 99.8052 77.9414 99.712 78.487 99.712V98.712C77.8299 98.712 77.2361 98.8241 76.7216 99.0683L77.1504 99.9717ZM78.487 99.712C79.2436 99.712 79.9132 99.8254 80.5022 100.044L80.8498 99.1062C80.1335 98.8406 79.3437 98.712 78.487 98.712V99.712ZM80.5078 100.046C80.5221 100.051 80.5245 100.054 80.5201 100.051C80.5151 100.047 80.5061 100.039 80.4974 100.027C80.4887 100.014 80.4847 100.004 80.4833 99.9986C80.4821 99.9943 80.484 99.9987 80.484 100.015H81.484C81.484 99.8262 81.4391 99.6282 81.3166 99.4533C81.1939 99.278 81.0228 99.1679 80.8442 99.1041L80.5078 100.046ZM80.484 100.015C80.484 100.016 80.484 100.014 80.4844 100.012C80.4848 100.01 80.4855 100.008 80.4863 100.005C80.487 100.003 80.4876 100.003 80.4872 100.003C80.4868 100.004 80.4851 100.007 80.4813 100.011L81.2447 100.657C81.3964 100.478 81.484 100.259 81.484 100.015H80.484ZM80.4813 100.011C80.4858 100.006 80.4983 99.9939 80.5182 99.985C80.5374 99.9764 80.5489 99.977 80.544 99.977V100.977C80.8135 100.977 81.063 100.872 81.2447 100.657L80.4813 100.011ZM80.544 99.977C80.5604 99.977 80.5724 99.9783 80.579 99.9793C80.5857 99.9802 80.5889 99.9811 80.5883 99.9809C80.5877 99.9808 80.5845 99.9799 80.5784 99.9779C80.5723 99.9759 80.5641 99.9729 80.5537 99.9688L80.1823 100.897C80.2753 100.934 80.4045 100.977 80.544 100.977V99.977ZM80.5316 99.9605C79.9067 99.7442 79.261 99.636 78.597 99.636V100.636C79.1503 100.636 79.6853 100.726 80.2044 100.905L80.5316 99.9605ZM78.597 99.636C77.9581 99.636 77.388 99.7569 76.9208 100.037L77.4352 100.895C77.7013 100.735 78.0773 100.636 78.597 100.636V99.636ZM76.9169 100.04C76.4207 100.343 76.139 100.807 76.139 101.39H77.139C77.139 101.181 77.2167 101.029 77.4391 100.892L76.9169 100.04ZM76.139 101.39C76.139 101.771 76.2656 102.12 76.5384 102.393L77.2456 101.685C77.1811 101.621 77.139 101.537 77.139 101.39H76.139ZM76.5541 102.408C76.7842 102.618 77.0585 102.778 77.3669 102.893L77.7151 101.955C77.5102 101.879 77.3518 101.782 77.2299 101.67L76.5541 102.408ZM77.3829 102.898C77.6686 102.994 78.0418 103.093 78.4962 103.197L78.7198 102.223C78.2795 102.122 77.9414 102.03 77.6991 101.95L77.3829 102.898ZM78.4911 103.196C79.0589 103.333 79.4995 103.466 79.821 103.593L80.189 102.663C79.8065 102.512 79.3157 102.366 78.7249 102.224L78.4911 103.196ZM79.8242 103.594C80.1061 103.703 80.3416 103.871 80.537 104.101L81.299 103.453C80.9957 103.096 80.6225 102.831 80.1858 102.662L79.8242 103.594ZM80.5417 104.106C80.6984 104.285 80.803 104.553 80.803 104.965H81.803C81.803 104.38 81.651 103.855 81.2943 103.448L80.5417 104.106ZM80.803 104.965C80.803 105.273 80.7171 105.542 80.5435 105.786L81.3585 106.366C81.6542 105.95 81.803 105.478 81.803 104.965H80.803ZM80.5466 105.782C80.3727 106.021 80.1195 106.222 79.7631 106.376L80.1589 107.294C80.6532 107.081 81.06 106.776 81.3554 106.37L80.5466 105.782ZM79.7631 106.376C79.4116 106.527 78.9898 106.61 78.487 106.61V107.61C79.0988 107.61 79.6597 107.509 80.1589 107.294L79.7631 106.376ZM85.3621 106.912L85.0086 107.266L85.3621 106.912ZM85.2191 100.257H85.7191V99.757H85.2191V100.257ZM82.6451 100.125L82.2916 100.479L82.2916 100.479L82.6451 100.125ZM82.6451 99.465L82.9987 99.8186L83.0057 99.8115L83.0125 99.8041L82.6451 99.465ZM88.7831 99.465L88.4157 99.8041L88.4293 99.8188L88.444 99.8324L88.7831 99.465ZM88.7831 100.125L88.444 99.7576L88.4366 99.7644L88.4296 99.7714L88.7831 100.125ZM86.2201 100.257V99.757H85.7201V100.257H86.2201ZM86.0661 106.912L85.7259 106.546L85.7191 106.552L85.7126 106.558L86.0661 106.912ZM85.7141 106.555C85.7079 106.555 85.7051 106.554 85.705 106.554C85.705 106.554 85.7055 106.555 85.7064 106.555C85.7073 106.555 85.7085 106.555 85.7098 106.556C85.7127 106.557 85.7151 106.559 85.7167 106.56C85.7183 106.561 85.7179 106.561 85.7157 106.558L85.0086 107.266C85.2011 107.458 85.4471 107.555 85.7141 107.555V106.555ZM85.7157 106.558C85.7135 106.556 85.7134 106.556 85.7145 106.557C85.7156 106.559 85.7169 106.561 85.7181 106.564C85.7186 106.566 85.719 106.567 85.7193 106.568C85.7196 106.569 85.7197 106.569 85.7196 106.569C85.7196 106.569 85.7191 106.566 85.7191 106.56H84.7191C84.7191 106.827 84.816 107.073 85.0086 107.266L85.7157 106.558ZM85.7191 106.56V100.257H84.7191V106.56H85.7191ZM85.2191 99.757H82.9751V100.757H85.2191V99.757ZM82.9751 99.757C82.9699 99.757 82.9684 99.7566 82.9697 99.7568C82.9711 99.7571 82.9746 99.7579 82.9793 99.7598C82.9841 99.7617 82.9887 99.7641 82.9926 99.7667C82.9965 99.7693 82.9985 99.7712 82.9987 99.7714L82.2916 100.479C82.4795 100.666 82.7194 100.757 82.9751 100.757V99.757ZM82.9987 99.7714C82.9989 99.7717 83.0008 99.7737 83.0034 99.7775C83.006 99.7815 83.0084 99.786 83.0104 99.7908C83.0122 99.7955 83.013 99.799 83.0133 99.8004C83.0135 99.8018 83.0131 99.8002 83.0131 99.795H82.0131C82.0131 100.051 82.1037 100.291 82.2916 100.479L82.9987 99.7714ZM83.0131 99.795C83.0131 99.7898 83.0135 99.7882 83.0133 99.7896C83.013 99.791 83.0122 99.7945 83.0104 99.7992C83.0084 99.804 83.006 99.8085 83.0034 99.8125C83.0008 99.8163 82.9989 99.8183 82.9987 99.8186L82.2916 99.1114C82.1037 99.2993 82.0131 99.5393 82.0131 99.795H83.0131ZM83.0125 99.8041C83.0133 99.8033 83.0119 99.805 83.008 99.8078C83.004 99.8107 82.9987 99.8138 82.9924 99.8165C82.9862 99.8192 82.9807 99.8208 82.9769 99.8215C82.9732 99.8222 82.9723 99.822 82.9751 99.822V98.822C82.7063 98.822 82.4622 98.926 82.2777 99.1259L83.0125 99.8041ZM82.9751 99.822H88.4531V98.822H82.9751V99.822ZM88.4531 99.822C88.4559 99.822 88.4551 99.8222 88.4514 99.8215C88.4475 99.8208 88.4421 99.8192 88.4358 99.8165C88.4295 99.8138 88.4242 99.8107 88.4202 99.8078C88.4163 99.805 88.4149 99.8033 88.4157 99.8041L89.1505 99.1259C88.966 98.926 88.7219 98.822 88.4531 98.822V99.822ZM88.444 99.8324C88.4448 99.8332 88.4432 99.8318 88.4403 99.8279C88.4375 99.8239 88.4343 99.8186 88.4316 99.8123C88.4289 99.8061 88.4274 99.8006 88.4266 99.7968C88.4259 99.793 88.4261 99.7922 88.4261 99.795H89.4261C89.4261 99.5262 89.3221 99.2821 89.1223 99.0976L88.444 99.8324ZM88.4261 99.795C88.4261 99.7978 88.4259 99.797 88.4266 99.7932C88.4274 99.7894 88.4289 99.7839 88.4316 99.7777C88.4343 99.7714 88.4375 99.7661 88.4403 99.7621C88.4432 99.7582 88.4448 99.7568 88.444 99.7576L89.1223 100.492C89.3221 100.308 89.4261 100.064 89.4261 99.795H88.4261ZM88.4296 99.7714C88.4298 99.7712 88.4318 99.7693 88.4356 99.7667C88.4396 99.7641 88.4441 99.7617 88.4489 99.7598C88.4537 99.7579 88.4571 99.7571 88.4586 99.7568C88.4599 99.7566 88.4583 99.757 88.4531 99.757V100.757C88.7088 100.757 88.9488 100.666 89.1367 100.479L88.4296 99.7714ZM88.4531 99.757H86.2201V100.757H88.4531V99.757ZM85.7201 100.257V106.56H86.7201V100.257H85.7201ZM85.7201 106.56C85.7201 106.564 85.7198 106.565 85.7202 106.562C85.7207 106.56 85.7217 106.556 85.7235 106.552C85.7254 106.548 85.7273 106.545 85.7285 106.543C85.7296 106.542 85.7292 106.543 85.7259 106.546L86.4063 107.278C86.6103 107.089 86.7201 106.839 86.7201 106.56H85.7201ZM85.7126 106.558C85.7104 106.561 85.71 106.561 85.7115 106.56C85.7131 106.559 85.7155 106.557 85.7184 106.556C85.7198 106.555 85.721 106.555 85.7219 106.555C85.7228 106.555 85.7232 106.554 85.7232 106.554C85.7232 106.554 85.7204 106.555 85.7141 106.555V107.555C85.9811 107.555 86.2271 107.458 86.4197 107.266L85.7126 106.558ZM91.2832 106.912L91.6368 106.558L91.2832 106.912ZM91.2832 99.421L91.6368 99.7746L91.6433 99.768L91.6496 99.7612L91.2832 99.421ZM91.9872 99.421L91.6208 99.7612L91.6334 99.7748L91.647 99.7874L91.9872 99.421ZM91.9872 106.912L91.647 106.546L91.6402 106.552L91.6337 106.558L91.9872 106.912ZM91.6352 106.555C91.629 106.555 91.6262 106.554 91.6262 106.554C91.6261 106.554 91.6266 106.555 91.6275 106.555C91.6284 106.555 91.6296 106.555 91.6309 106.556C91.6338 106.557 91.6363 106.559 91.6379 106.56C91.6394 106.561 91.639 106.561 91.6368 106.558L90.9297 107.266C91.1222 107.458 91.3683 107.555 91.6352 107.555V106.555ZM91.6368 106.558C91.6346 106.556 91.6346 106.556 91.6356 106.557C91.6367 106.559 91.6381 106.561 91.6392 106.564C91.6398 106.566 91.6402 106.567 91.6404 106.568C91.6407 106.569 91.6408 106.569 91.6408 106.569C91.6408 106.569 91.6402 106.566 91.6402 106.56H90.6402C90.6402 106.827 90.7371 107.073 90.9297 107.266L91.6368 106.558ZM91.6402 106.56V99.773H90.6402V106.56H91.6402ZM91.6402 99.773C91.6402 99.7667 91.6408 99.7639 91.6408 99.7639C91.6408 99.7639 91.6407 99.7643 91.6404 99.7653C91.6402 99.7662 91.6398 99.7673 91.6392 99.7687C91.6381 99.7716 91.6367 99.774 91.6356 99.7756C91.6346 99.7772 91.6346 99.7768 91.6368 99.7746L90.9297 99.0674C90.7371 99.26 90.6402 99.506 90.6402 99.773H91.6402ZM91.6496 99.7612C91.6527 99.7579 91.6537 99.7575 91.6521 99.7586C91.6505 99.7598 91.6474 99.7617 91.6432 99.7636C91.6389 99.7654 91.6352 99.7665 91.6329 99.7669C91.6307 99.7674 91.6312 99.767 91.6352 99.767V98.767C91.356 98.767 91.1062 98.8769 90.9168 99.0808L91.6496 99.7612ZM91.6352 99.767C91.6393 99.767 91.6398 99.7674 91.6376 99.7669C91.6352 99.7665 91.6316 99.7654 91.6273 99.7636C91.6231 99.7617 91.62 99.7598 91.6184 99.7586C91.6168 99.7575 91.6177 99.7579 91.6208 99.7612L92.3536 99.0808C92.1643 98.8769 91.9145 98.767 91.6352 98.767V99.767ZM91.647 99.7874C91.6504 99.7905 91.6508 99.7914 91.6496 99.7899C91.6485 99.7882 91.6465 99.7851 91.6447 99.7809C91.6428 99.7767 91.6418 99.773 91.6413 99.7707C91.6409 99.7685 91.6412 99.769 91.6412 99.773H92.6412C92.6412 99.4938 92.5314 99.2439 92.3275 99.0546L91.647 99.7874ZM91.6412 99.773V106.56H92.6412V99.773H91.6412ZM91.6412 106.56C91.6412 106.564 91.6409 106.565 91.6413 106.562C91.6418 106.56 91.6428 106.556 91.6447 106.552C91.6465 106.548 91.6485 106.545 91.6496 106.543C91.6508 106.542 91.6504 106.543 91.647 106.546L92.3275 107.278C92.5314 107.089 92.6412 106.839 92.6412 106.56H91.6412ZM91.6337 106.558C91.6315 106.561 91.6311 106.561 91.6326 106.56C91.6342 106.559 91.6367 106.557 91.6396 106.556C91.6409 106.555 91.6421 106.555 91.643 106.555C91.6439 106.555 91.6444 106.554 91.6443 106.554C91.6443 106.554 91.6415 106.555 91.6352 106.555V107.555C91.9022 107.555 92.1482 107.458 92.3408 107.266L91.6337 106.558ZM95.42 106.912L95.7735 106.558L95.42 106.912ZM95.486 99.487L95.8396 99.8407L95.8485 99.8314L95.486 99.487ZM96.751 99.399L96.451 99.799L96.4567 99.8033L96.4626 99.8075L96.751 99.399ZM97.026 99.729L97.49 99.5429L97.4866 99.5343L97.4829 99.5259L97.026 99.729ZM99.523 105.955L99.0589 106.141L99.523 107.298L99.987 106.141L99.523 105.955ZM102.02 99.729L101.563 99.5259L101.559 99.5343L101.556 99.5429L102.02 99.729ZM102.284 99.399L101.996 98.9905L101.99 98.9947L101.984 98.999L102.284 99.399ZM103.56 99.487L103.197 99.8315L103.206 99.8406L103.56 99.487ZM103.626 106.912L103.98 107.266V107.266L103.626 106.912ZM102.911 106.912L102.557 107.266L102.564 107.272L102.571 107.278L102.911 106.912ZM102.768 100.312H103.268L102.304 100.124L102.768 100.312ZM100.227 106.593L100.688 106.787L100.69 106.781L100.227 106.593ZM99.941 106.934L100.213 107.354L100.218 107.35L99.941 106.934ZM99.094 106.934L98.8056 107.342L98.8191 107.352L98.8332 107.361L99.094 106.934ZM98.819 106.593L98.3554 106.781L98.3581 106.787L98.819 106.593ZM96.278 100.312L96.7415 100.124L95.778 100.312H96.278ZM96.124 106.912L95.7837 106.546L95.777 106.552L95.7704 106.558L96.124 106.912ZM95.772 106.555C95.7657 106.555 95.7629 106.554 95.7629 106.554C95.7628 106.554 95.7633 106.555 95.7642 106.555C95.7651 106.555 95.7663 106.555 95.7676 106.556C95.7705 106.557 95.773 106.559 95.7746 106.56C95.7761 106.561 95.7757 106.561 95.7735 106.558L95.0664 107.266C95.259 107.458 95.505 107.555 95.772 107.555V106.555ZM95.7735 106.558C95.7713 106.556 95.7713 106.556 95.7723 106.557C95.7734 106.559 95.7748 106.561 95.7759 106.564C95.7765 106.566 95.7769 106.567 95.7772 106.568C95.7774 106.569 95.7775 106.569 95.7775 106.569C95.7775 106.569 95.777 106.566 95.777 106.56H94.777C94.777 106.827 94.8739 107.073 95.0664 107.266L95.7735 106.558ZM95.777 106.56V99.993H94.777V106.56H95.777ZM95.777 99.993C95.777 99.9269 95.7945 99.8856 95.8395 99.8406L95.1324 99.1334C94.8988 99.3671 94.777 99.6631 94.777 99.993H95.777ZM95.8485 99.8314C95.8957 99.7816 95.9343 99.767 95.992 99.767V98.767C95.6536 98.767 95.3549 98.899 95.1235 99.1426L95.8485 99.8314ZM95.992 99.767H96.355V98.767H95.992V99.767ZM96.355 99.767C96.3934 99.767 96.4202 99.7759 96.451 99.799L97.051 98.999C96.8471 98.8461 96.6098 98.767 96.355 98.767V99.767ZM96.4626 99.8075C96.5179 99.8465 96.5491 99.8872 96.5691 99.9321L97.4829 99.5259C97.3855 99.3068 97.2333 99.1275 97.0393 98.9905L96.4626 99.8075ZM96.5619 99.9151L99.0589 106.141L99.987 105.769L97.49 99.5429L96.5619 99.9151ZM99.987 106.141L102.484 99.9151L101.556 99.5429L99.0589 105.769L99.987 106.141ZM102.477 99.9321C102.5 99.8793 102.534 99.8366 102.584 99.799L101.984 98.999C101.799 99.1374 101.657 99.3147 101.563 99.5259L102.477 99.9321ZM102.572 99.8075C102.616 99.7765 102.652 99.767 102.691 99.767V98.767C102.437 98.767 102.201 98.8455 101.996 98.9905L102.572 99.8075ZM102.691 99.767H103.054V98.767H102.691V99.767ZM103.054 99.767C103.112 99.767 103.15 99.7816 103.197 99.8314L103.922 99.1426C103.691 98.899 103.392 98.767 103.054 98.767V99.767ZM103.206 99.8406C103.251 99.8856 103.269 99.9269 103.269 99.993H104.269C104.269 99.6631 104.147 99.3671 103.914 99.1334L103.206 99.8406ZM103.269 99.993V106.56H104.269V99.993H103.269ZM103.269 106.56C103.269 106.566 103.268 106.569 103.268 106.569C103.268 106.569 103.269 106.569 103.269 106.568C103.269 106.567 103.269 106.566 103.27 106.564C103.271 106.561 103.273 106.559 103.274 106.557C103.275 106.556 103.275 106.556 103.272 106.558L103.98 107.266C104.172 107.073 104.269 106.827 104.269 106.56H103.269ZM103.272 106.558C103.27 106.561 103.27 106.561 103.271 106.56C103.273 106.559 103.275 106.557 103.278 106.556C103.28 106.555 103.281 106.555 103.282 106.555C103.283 106.555 103.283 106.554 103.283 106.554C103.283 106.554 103.28 106.555 103.274 106.555V107.555C103.541 107.555 103.787 107.458 103.98 107.266L103.272 106.558ZM103.274 106.555C103.268 106.555 103.264 106.554 103.263 106.554C103.262 106.554 103.262 106.554 103.262 106.554C103.262 106.554 103.262 106.554 103.261 106.553C103.259 106.552 103.256 106.55 103.251 106.546L102.571 107.278C102.765 107.459 103.008 107.555 103.274 107.555V106.555ZM103.265 106.558C103.262 106.556 103.262 106.556 103.263 106.557C103.264 106.559 103.266 106.561 103.267 106.564C103.267 106.566 103.268 106.567 103.268 106.568C103.268 106.569 103.269 106.569 103.268 106.569C103.268 106.569 103.268 106.566 103.268 106.56H102.268C102.268 106.827 102.365 107.073 102.557 107.266L103.265 106.558ZM103.268 106.56V100.312H102.268V106.56H103.268ZM102.304 100.124L99.7635 106.405L100.69 106.781L103.231 100.5L102.304 100.124ZM99.7661 106.399C99.7475 106.443 99.7183 106.482 99.6636 106.518L100.218 107.35C100.428 107.21 100.589 107.021 100.688 106.787L99.7661 106.399ZM99.6693 106.514C99.6287 106.541 99.5844 106.555 99.523 106.555V107.555C99.7696 107.555 100.004 107.489 100.213 107.354L99.6693 106.514ZM99.523 106.555C99.4614 106.555 99.4086 106.54 99.3547 106.507L98.8332 107.361C99.0434 107.489 99.2765 107.555 99.523 107.555V106.555ZM99.3823 106.526C99.3333 106.491 99.3018 106.451 99.2798 106.399L98.3581 106.787C98.4535 107.013 98.6053 107.201 98.8056 107.342L99.3823 106.526ZM99.2825 106.405L96.7415 100.124L95.8145 100.5L98.3555 106.781L99.2825 106.405ZM95.778 100.312V106.56H96.778V100.312H95.778ZM95.778 106.56C95.778 106.564 95.7776 106.565 95.778 106.562C95.7785 106.56 95.7795 106.556 95.7814 106.552C95.7832 106.548 95.7852 106.545 95.7864 106.543C95.7875 106.542 95.7871 106.543 95.7837 106.546L96.4642 107.278C96.6681 107.089 96.778 106.839 96.778 106.56H95.778ZM95.7704 106.558C95.7682 106.561 95.7678 106.561 95.7693 106.56C95.7709 106.559 95.7734 106.557 95.7763 106.556C95.7776 106.555 95.7788 106.555 95.7797 106.555C95.7806 106.555 95.7811 106.554 95.781 106.554C95.781 106.554 95.7782 106.555 95.772 106.555V107.555C96.0389 107.555 96.285 107.458 96.4775 107.266L95.7704 106.558ZM108.496 106.78L108.289 107.235L108.496 106.78ZM107.308 105.779L106.894 106.059L106.896 106.063L107.308 105.779ZM106.989 99.421L107.343 99.7746L107.349 99.768L107.355 99.7612L106.989 99.421ZM107.693 99.421L107.327 99.7612L107.339 99.7748L107.353 99.7874L107.693 99.421ZM108.144 105.273L107.723 105.543L107.728 105.55L108.144 105.273ZM108.947 105.966L109.158 105.513L108.947 105.966ZM111.059 105.966L111.27 106.419L111.059 105.966ZM111.851 105.273L111.435 104.996L111.43 105.003L111.851 105.273ZM112.302 99.421L112.656 99.7746L112.662 99.768L112.668 99.7612L112.302 99.421ZM113.006 99.421L112.64 99.7612L112.652 99.7748L112.666 99.7874L113.006 99.421ZM112.698 105.779L113.11 106.063L113.112 106.059L112.698 105.779ZM111.51 106.78L111.717 107.235L111.51 106.78ZM110.003 106.61C109.555 106.61 109.123 106.516 108.703 106.325L108.289 107.235C108.837 107.484 109.409 107.61 110.003 107.61V106.61ZM108.703 106.325C108.303 106.143 107.978 105.87 107.72 105.495L106.896 106.063C107.254 106.583 107.721 106.977 108.289 107.235L108.703 106.325ZM107.722 105.499C107.48 105.141 107.346 104.69 107.346 104.118H106.346C106.346 104.851 106.52 105.507 106.894 106.059L107.722 105.499ZM107.346 104.118V99.773H106.346V104.118H107.346ZM107.346 99.773C107.346 99.7667 107.347 99.7639 107.347 99.7639C107.347 99.7639 107.346 99.7643 107.346 99.7653C107.346 99.7662 107.346 99.7673 107.345 99.7687C107.344 99.7716 107.342 99.774 107.341 99.7756C107.34 99.7772 107.34 99.7768 107.343 99.7746L106.635 99.0674C106.443 99.26 106.346 99.506 106.346 99.773H107.346ZM107.355 99.7612C107.358 99.7579 107.359 99.7575 107.358 99.7586C107.356 99.7598 107.353 99.7617 107.349 99.7636C107.345 99.7654 107.341 99.7665 107.339 99.7669C107.336 99.7674 107.337 99.767 107.341 99.767V98.767C107.062 98.767 106.812 98.8769 106.623 99.0808L107.355 99.7612ZM107.341 99.767C107.345 99.767 107.346 99.7674 107.343 99.7669C107.341 99.7665 107.337 99.7654 107.333 99.7636C107.329 99.7617 107.326 99.7598 107.324 99.7586C107.323 99.7575 107.323 99.7579 107.327 99.7612L108.059 99.0808C107.87 98.8769 107.62 98.767 107.341 98.767V99.767ZM107.353 99.7874C107.356 99.7905 107.357 99.7914 107.355 99.7899C107.354 99.7882 107.352 99.7851 107.35 99.7809C107.349 99.7767 107.348 99.773 107.347 99.7707C107.347 99.7685 107.347 99.769 107.347 99.773H108.347C108.347 99.4938 108.237 99.2439 108.033 99.0546L107.353 99.7874ZM107.347 99.773V104.151H108.347V99.773H107.347ZM107.347 104.151C107.347 104.667 107.464 105.14 107.723 105.543L108.565 105.003C108.428 104.79 108.347 104.515 108.347 104.151H107.347ZM107.728 105.55C107.983 105.933 108.321 106.226 108.736 106.419L109.158 105.513C108.913 105.398 108.715 105.229 108.56 104.996L107.728 105.55ZM108.736 106.419C109.134 106.605 109.558 106.697 110.003 106.697V105.697C109.7 105.697 109.42 105.635 109.158 105.513L108.736 106.419ZM110.003 106.697C110.448 106.697 110.872 106.605 111.27 106.419L110.848 105.513C110.586 105.635 110.306 105.697 110.003 105.697V106.697ZM111.27 106.419C111.686 106.225 112.023 105.93 112.272 105.543L111.43 105.003C111.283 105.232 111.091 105.399 110.848 105.513L111.27 106.419ZM112.267 105.55C112.537 105.146 112.659 104.671 112.659 104.151H111.659C111.659 104.511 111.576 104.784 111.435 104.996L112.267 105.55ZM112.659 104.151V99.773H111.659V104.151H112.659ZM112.659 99.773C112.659 99.7667 112.66 99.7639 112.66 99.7639C112.66 99.7639 112.659 99.7643 112.659 99.7653C112.659 99.7662 112.659 99.7673 112.658 99.7687C112.657 99.7716 112.655 99.774 112.654 99.7756C112.653 99.7772 112.653 99.7768 112.656 99.7746L111.948 99.0674C111.756 99.26 111.659 99.506 111.659 99.773H112.659ZM112.668 99.7612C112.671 99.7579 112.672 99.7575 112.671 99.7586C112.669 99.7598 112.666 99.7617 112.662 99.7636C112.658 99.7654 112.654 99.7665 112.652 99.7669C112.649 99.7674 112.65 99.767 112.654 99.767V98.767C112.375 98.767 112.125 98.8769 111.936 99.0808L112.668 99.7612ZM112.654 99.767C112.658 99.767 112.659 99.7674 112.656 99.7669C112.654 99.7665 112.65 99.7654 112.646 99.7636C112.642 99.7617 112.639 99.7598 112.637 99.7586C112.636 99.7575 112.636 99.7579 112.64 99.7612L113.372 99.0808C113.183 98.8769 112.933 98.767 112.654 98.767V99.767ZM112.666 99.7874C112.669 99.7905 112.67 99.7914 112.668 99.7899C112.667 99.7882 112.665 99.7851 112.663 99.7809C112.662 99.7767 112.661 99.773 112.66 99.7707C112.66 99.7685 112.66 99.769 112.66 99.773H113.66C113.66 99.4938 113.55 99.2439 113.346 99.0546L112.666 99.7874ZM112.66 99.773V104.118H113.66V99.773H112.66ZM112.66 104.118C112.66 104.69 112.526 105.141 112.284 105.499L113.112 106.059C113.486 105.507 113.66 104.851 113.66 104.118H112.66ZM112.286 105.495C112.028 105.87 111.703 106.143 111.303 106.325L111.717 107.235C112.285 106.977 112.752 106.583 113.11 106.063L112.286 105.495ZM111.303 106.325C110.883 106.516 110.451 106.61 110.003 106.61V107.61C110.597 107.61 111.169 107.484 111.717 107.235L111.303 106.325ZM116.435 106.802L116.072 107.146L116.081 107.156L116.091 107.165L116.435 106.802ZM116.38 99.421L116.733 99.7746L116.74 99.768L116.746 99.7612L116.38 99.421ZM117.084 99.421L116.718 99.7612L116.73 99.7748L116.744 99.7874L117.084 99.421ZM117.238 105.999H116.738V106.499H117.238V105.999ZM121.187 106.153L120.821 106.493L120.833 106.507L120.847 106.519L121.187 106.153ZM121.187 106.857L120.847 106.491L120.84 106.497L120.833 106.503L121.187 106.857ZM116.93 106.5C116.868 106.5 116.826 106.484 116.779 106.439L116.091 107.165C116.323 107.384 116.61 107.5 116.93 107.5V106.5ZM116.798 106.458C116.753 106.411 116.737 106.369 116.737 106.307H115.737C115.737 106.627 115.853 106.914 116.072 107.146L116.798 106.458ZM116.737 106.307V99.773H115.737V106.307H116.737ZM116.737 99.773C116.737 99.7667 116.737 99.7639 116.737 99.7639C116.737 99.7639 116.737 99.7643 116.737 99.7653C116.737 99.7662 116.736 99.7673 116.736 99.7687C116.735 99.7716 116.733 99.774 116.732 99.7756C116.731 99.7772 116.731 99.7768 116.733 99.7746L116.026 99.0674C115.834 99.26 115.737 99.506 115.737 99.773H116.737ZM116.746 99.7612C116.749 99.7579 116.75 99.7575 116.749 99.7586C116.747 99.7598 116.744 99.7617 116.74 99.7636C116.736 99.7654 116.732 99.7665 116.73 99.7669C116.727 99.7674 116.728 99.767 116.732 99.767V98.767C116.453 98.767 116.203 98.8769 116.014 99.0808L116.746 99.7612ZM116.732 99.767C116.736 99.767 116.736 99.7674 116.734 99.7669C116.732 99.7665 116.728 99.7654 116.724 99.7636C116.72 99.7617 116.717 99.7598 116.715 99.7586C116.713 99.7575 116.714 99.7579 116.718 99.7612L117.45 99.0808C117.261 98.8769 117.011 98.767 116.732 98.767V99.767ZM116.744 99.7874C116.747 99.7905 116.747 99.7914 116.746 99.7899C116.745 99.7882 116.743 99.7851 116.741 99.7809C116.739 99.7767 116.738 99.773 116.738 99.7707C116.738 99.7685 116.738 99.769 116.738 99.773H117.738C117.738 99.4938 117.628 99.2439 117.424 99.0546L116.744 99.7874ZM116.738 99.773V105.999H117.738V99.773H116.738ZM117.238 106.499H120.835V105.499H117.238V106.499ZM120.835 106.499C120.839 106.499 120.839 106.499 120.837 106.499C120.835 106.498 120.831 106.497 120.827 106.496C120.823 106.494 120.82 106.492 120.818 106.491C120.816 106.489 120.817 106.49 120.821 106.493L121.553 105.813C121.364 105.609 121.114 105.499 120.835 105.499V106.499ZM120.847 106.519C120.85 106.522 120.85 106.523 120.849 106.522C120.848 106.52 120.846 106.517 120.844 106.513C120.842 106.509 120.841 106.505 120.841 106.503C120.841 106.5 120.841 106.501 120.841 106.505H121.841C121.841 106.226 121.731 105.976 121.527 105.787L120.847 106.519ZM120.841 106.505C120.841 106.509 120.841 106.51 120.841 106.507C120.841 106.505 120.842 106.501 120.844 106.497C120.846 106.493 120.848 106.49 120.849 106.488C120.85 106.487 120.85 106.488 120.847 106.491L121.527 107.223C121.731 107.034 121.841 106.784 121.841 106.505H120.841ZM120.833 106.503C120.831 106.506 120.831 106.506 120.832 106.505C120.834 106.504 120.836 106.502 120.839 106.501C120.841 106.5 120.842 106.5 120.843 106.5C120.844 106.5 120.844 106.499 120.844 106.499C120.844 106.499 120.841 106.5 120.835 106.5V107.5C121.102 107.5 121.348 107.403 121.54 107.211L120.833 106.503ZM120.835 106.5H116.93V107.5H120.835V106.5ZM124.955 106.78L124.748 107.235L124.955 106.78ZM123.767 105.779L123.353 106.059L123.355 106.063L123.767 105.779ZM123.448 99.421L123.802 99.7746L123.808 99.768L123.814 99.7612L123.448 99.421ZM124.152 99.421L123.786 99.7612L123.798 99.7748L123.812 99.7874L124.152 99.421ZM124.603 105.273L124.182 105.543L124.187 105.55L124.603 105.273ZM125.406 105.966L125.617 105.513L125.406 105.966ZM127.518 105.966L127.729 106.419L127.518 105.966ZM128.31 105.273L127.894 104.996L127.889 105.003L128.31 105.273ZM128.761 99.421L129.115 99.7746L129.121 99.768L129.127 99.7612L128.761 99.421ZM129.465 99.421L129.099 99.7612L129.111 99.7748L129.125 99.7874L129.465 99.421ZM129.157 105.779L129.569 106.063L129.571 106.059L129.157 105.779ZM127.969 106.78L128.176 107.235L127.969 106.78ZM126.462 106.61C126.014 106.61 125.582 106.516 125.162 106.325L124.748 107.235C125.296 107.484 125.868 107.61 126.462 107.61V106.61ZM125.162 106.325C124.762 106.143 124.436 105.87 124.179 105.495L123.355 106.063C123.713 106.583 124.18 106.977 124.748 107.235L125.162 106.325ZM124.181 105.499C123.939 105.141 123.805 104.69 123.805 104.118H122.805C122.805 104.851 122.979 105.507 123.353 106.059L124.181 105.499ZM123.805 104.118V99.773H122.805V104.118H123.805ZM123.805 99.773C123.805 99.7667 123.805 99.7639 123.806 99.7639C123.806 99.7639 123.805 99.7643 123.805 99.7653C123.805 99.7662 123.805 99.7673 123.804 99.7687C123.803 99.7716 123.801 99.774 123.8 99.7756C123.799 99.7772 123.799 99.7768 123.802 99.7746L123.094 99.0674C122.902 99.26 122.805 99.506 122.805 99.773H123.805ZM123.814 99.7612C123.817 99.7579 123.818 99.7575 123.817 99.7586C123.815 99.7598 123.812 99.7617 123.808 99.7636C123.804 99.7654 123.8 99.7665 123.798 99.7669C123.795 99.7674 123.796 99.767 123.8 99.767V98.767C123.521 98.767 123.271 98.8769 123.082 99.0808L123.814 99.7612ZM123.8 99.767C123.804 99.767 123.804 99.7674 123.802 99.7669C123.8 99.7665 123.796 99.7654 123.792 99.7636C123.788 99.7617 123.785 99.7598 123.783 99.7586C123.782 99.7575 123.782 99.7579 123.786 99.7612L124.518 99.0808C124.329 98.8769 124.079 98.767 123.8 98.767V99.767ZM123.812 99.7874C123.815 99.7905 123.815 99.7914 123.814 99.7899C123.813 99.7882 123.811 99.7851 123.809 99.7809C123.808 99.7767 123.807 99.773 123.806 99.7707C123.806 99.7685 123.806 99.769 123.806 99.773H124.806C124.806 99.4938 124.696 99.2439 124.492 99.0546L123.812 99.7874ZM123.806 99.773V104.151H124.806V99.773H123.806ZM123.806 104.151C123.806 104.667 123.923 105.14 124.182 105.543L125.024 105.003C124.887 104.79 124.806 104.515 124.806 104.151H123.806ZM124.187 105.55C124.442 105.933 124.78 106.226 125.195 106.419L125.617 105.513C125.372 105.398 125.174 105.229 125.019 104.996L124.187 105.55ZM125.195 106.419C125.593 106.605 126.017 106.697 126.462 106.697V105.697C126.159 105.697 125.879 105.635 125.617 105.513L125.195 106.419ZM126.462 106.697C126.907 106.697 127.331 106.605 127.729 106.419L127.307 105.513C127.045 105.635 126.765 105.697 126.462 105.697V106.697ZM127.729 106.419C128.145 106.225 128.482 105.93 128.731 105.543L127.889 105.003C127.742 105.232 127.55 105.399 127.307 105.513L127.729 106.419ZM128.726 105.55C128.996 105.146 129.118 104.671 129.118 104.151H128.118C128.118 104.511 128.035 104.784 127.894 104.996L128.726 105.55ZM129.118 104.151V99.773H128.118V104.151H129.118ZM129.118 99.773C129.118 99.7667 129.118 99.7639 129.118 99.7639C129.119 99.7639 129.118 99.7643 129.118 99.7653C129.118 99.7662 129.118 99.7673 129.117 99.7687C129.116 99.7716 129.114 99.774 129.113 99.7756C129.112 99.7772 129.112 99.7768 129.115 99.7746L128.407 99.0674C128.215 99.26 128.118 99.506 128.118 99.773H129.118ZM129.127 99.7612C129.13 99.7579 129.131 99.7575 129.13 99.7586C129.128 99.7598 129.125 99.7617 129.121 99.7636C129.117 99.7654 129.113 99.7665 129.111 99.7669C129.108 99.7674 129.109 99.767 129.113 99.767V98.767C128.834 98.767 128.584 98.8769 128.395 99.0808L129.127 99.7612ZM129.113 99.767C129.117 99.767 129.117 99.7674 129.115 99.7669C129.113 99.7665 129.109 99.7654 129.105 99.7636C129.101 99.7617 129.098 99.7598 129.096 99.7586C129.095 99.7575 129.095 99.7579 129.099 99.7612L129.831 99.0808C129.642 98.8769 129.392 98.767 129.113 98.767V99.767ZM129.125 99.7874C129.128 99.7905 129.128 99.7914 129.127 99.7899C129.126 99.7882 129.124 99.7851 129.122 99.7809C129.121 99.7767 129.12 99.773 129.119 99.7707C129.119 99.7685 129.119 99.769 129.119 99.773H130.119C130.119 99.4938 130.009 99.2439 129.805 99.0546L129.125 99.7874ZM129.119 99.773V104.118H130.119V99.773H129.119ZM129.119 104.118C129.119 104.69 128.985 105.141 128.743 105.499L129.571 106.059C129.945 105.507 130.119 104.851 130.119 104.118H129.119ZM128.745 105.495C128.487 105.87 128.162 106.143 127.762 106.325L128.176 107.235C128.744 106.977 129.21 106.583 129.569 106.063L128.745 105.495ZM127.762 106.325C127.342 106.516 126.91 106.61 126.462 106.61V107.61C127.056 107.61 127.628 107.484 128.176 107.235L127.762 106.325ZM132.498 106.582L132.696 106.123L132.69 106.12L132.498 106.582ZM132.278 106.406L131.862 106.683L131.868 106.692L131.874 106.7L132.278 106.406ZM132.311 105.812L131.944 105.473L131.942 105.474L132.311 105.812ZM132.85 105.713L133.053 105.256L133.053 105.256L132.85 105.713ZM136.689 104.349L136.352 104.719L136.361 104.726L136.689 104.349ZM136.084 104.008L135.913 104.478L135.926 104.482L136.084 104.008ZM135.05 103.7L135.177 103.216L135.175 103.216L135.05 103.7ZM133.609 103.26L133.423 103.724L133.431 103.727L133.609 103.26ZM132.663 102.611L132.296 102.95L132.663 102.611ZM132.597 100.334L133.016 100.607L133.018 100.603L132.597 100.334ZM133.565 99.52L133.776 99.9733L133.779 99.9717L133.565 99.52ZM137.305 99.575L137.131 100.044L137.137 100.046L137.305 99.575ZM137.492 100.334L137.874 100.657V100.657L137.492 100.334ZM136.997 100.433L137.183 99.9688L137.172 99.9644L137.16 99.9605L136.997 100.433ZM133.807 100.466L133.55 100.037L133.546 100.04L133.807 100.466ZM133.521 102.039L133.167 102.393L133.175 102.4L133.183 102.408L133.521 102.039ZM134.17 102.424L133.996 102.893L134.004 102.896L134.012 102.898L134.17 102.424ZM135.237 102.71L135.354 102.224L135.349 102.223L135.237 102.71ZM136.634 103.128L136.45 103.593L136.453 103.594L136.634 103.128ZM137.547 103.777L137.166 104.101L137.171 104.106L137.547 103.777ZM137.58 106.076L137.984 106.37L137.987 106.366L137.58 106.076ZM136.59 106.835L136.788 107.294L136.59 106.835ZM135.116 106.61C134.249 106.61 133.445 106.447 132.696 106.123L132.299 107.041C133.179 107.421 134.12 107.61 135.116 107.61V106.61ZM132.69 106.12C132.689 106.12 132.689 106.12 132.689 106.12C132.689 106.12 132.689 106.12 132.689 106.12C132.689 106.12 132.689 106.12 132.688 106.119C132.687 106.117 132.685 106.115 132.682 106.112L131.874 106.7C131.984 106.851 132.129 106.97 132.306 107.044L132.69 106.12ZM132.694 106.129C132.688 106.12 132.687 106.116 132.688 106.119C132.688 106.12 132.689 106.122 132.689 106.124C132.69 106.127 132.69 106.129 132.69 106.131H131.69C131.69 106.336 131.755 106.523 131.862 106.683L132.694 106.129ZM132.69 106.131C132.69 106.127 132.69 106.126 132.69 106.127C132.69 106.128 132.689 106.131 132.688 106.135C132.686 106.139 132.684 106.143 132.682 106.146C132.681 106.149 132.679 106.15 132.679 106.15L131.942 105.474C131.773 105.659 131.69 105.887 131.69 106.131H132.69ZM132.678 106.151C132.679 106.15 132.678 106.152 132.674 106.155C132.67 106.158 132.664 106.161 132.658 106.164C132.652 106.166 132.646 106.168 132.643 106.169C132.639 106.169 132.638 106.169 132.641 106.169V105.169C132.372 105.169 132.128 105.273 131.944 105.473L132.678 106.151ZM132.641 106.169C132.643 106.169 132.644 106.169 132.644 106.169C132.645 106.169 132.645 106.169 132.645 106.169C132.645 106.169 132.645 106.169 132.645 106.169C132.646 106.169 132.646 106.17 132.647 106.17L133.053 105.256C132.922 105.198 132.783 105.169 132.641 105.169V106.169ZM132.646 106.17C133.388 106.5 134.18 106.664 135.017 106.664V105.664C134.314 105.664 133.661 105.527 133.053 105.256L132.646 106.17ZM135.017 106.664C135.697 106.664 136.295 106.555 136.735 106.266C137.212 105.952 137.442 105.469 137.442 104.899H136.442C136.442 105.172 136.351 105.322 136.186 105.43C135.985 105.562 135.62 105.664 135.017 105.664V106.664ZM137.442 104.899C137.442 104.532 137.293 104.212 137.017 103.972L136.361 104.726C136.422 104.78 136.442 104.826 136.442 104.899H137.442ZM137.025 103.979C136.804 103.778 136.539 103.633 136.242 103.534L135.926 104.482C136.113 104.545 136.251 104.626 136.353 104.719L137.025 103.979ZM136.255 103.538C135.991 103.442 135.629 103.335 135.177 103.216L134.923 104.184C135.365 104.3 135.693 104.398 135.913 104.478L136.255 103.538ZM135.175 103.216C134.59 103.064 134.129 102.923 133.787 102.793L133.431 103.727C133.822 103.876 134.321 104.028 134.924 104.184L135.175 103.216ZM133.795 102.796C133.496 102.676 133.243 102.502 133.03 102.272L132.296 102.95C132.611 103.292 132.988 103.55 133.423 103.724L133.795 102.796ZM133.03 102.272C132.87 102.098 132.767 101.848 132.767 101.467H131.767C131.767 102.04 131.928 102.552 132.296 102.95L133.03 102.272ZM132.767 101.467C132.767 101.142 132.851 100.86 133.016 100.607L132.178 100.061C131.903 100.483 131.767 100.956 131.767 101.467H132.767ZM133.018 100.603C133.18 100.35 133.424 100.137 133.776 99.9733L133.354 99.0667C132.855 99.2988 132.454 99.6288 132.175 100.065L133.018 100.603ZM133.779 99.9717C134.13 99.8052 134.57 99.712 135.116 99.712V98.712C134.459 98.712 133.865 98.8241 133.351 99.0683L133.779 99.9717ZM135.116 99.712C135.873 99.712 136.542 99.8254 137.131 100.044L137.479 99.1062C136.762 98.8406 135.973 98.712 135.116 98.712V99.712ZM137.137 100.046C137.151 100.051 137.153 100.054 137.149 100.051C137.144 100.047 137.135 100.039 137.126 100.027C137.118 100.014 137.114 100.004 137.112 99.9986C137.111 99.9943 137.113 99.9987 137.113 100.015H138.113C138.113 99.8262 138.068 99.6282 137.946 99.4533C137.823 99.278 137.652 99.1679 137.473 99.1041L137.137 100.046ZM137.113 100.015C137.113 100.016 137.113 100.014 137.113 100.012C137.114 100.01 137.114 100.008 137.115 100.005C137.116 100.003 137.116 100.003 137.116 100.003C137.116 100.004 137.114 100.007 137.11 100.011L137.874 100.657C138.025 100.478 138.113 100.259 138.113 100.015H137.113ZM137.11 100.011C137.115 100.006 137.127 99.9939 137.147 99.985C137.166 99.9764 137.178 99.977 137.173 99.977V100.977C137.442 100.977 137.692 100.872 137.874 100.657L137.11 100.011ZM137.173 99.977C137.189 99.977 137.201 99.9783 137.208 99.9793C137.215 99.9802 137.218 99.9811 137.217 99.9809C137.217 99.9808 137.213 99.9799 137.207 99.9779C137.201 99.9759 137.193 99.9729 137.183 99.9688L136.811 100.897C136.904 100.934 137.033 100.977 137.173 100.977V99.977ZM137.16 99.9605C136.536 99.7442 135.89 99.636 135.226 99.636V100.636C135.779 100.636 136.314 100.726 136.833 100.905L137.16 99.9605ZM135.226 99.636C134.587 99.636 134.017 99.7569 133.55 100.037L134.064 100.895C134.33 100.735 134.706 100.636 135.226 100.636V99.636ZM133.546 100.04C133.05 100.343 132.768 100.807 132.768 101.39H133.768C133.768 101.181 133.846 101.029 134.068 100.892L133.546 100.04ZM132.768 101.39C132.768 101.771 132.894 102.12 133.167 102.393L133.874 101.685C133.81 101.621 133.768 101.537 133.768 101.39H132.768ZM133.183 102.408C133.413 102.618 133.687 102.778 133.996 102.893L134.344 101.955C134.139 101.879 133.981 101.782 133.859 101.67L133.183 102.408ZM134.012 102.898C134.298 102.994 134.671 103.093 135.125 103.197L135.349 102.223C134.908 102.122 134.57 102.03 134.328 101.95L134.012 102.898ZM135.12 103.196C135.688 103.333 136.128 103.466 136.45 103.593L136.818 102.663C136.435 102.512 135.945 102.366 135.354 102.224L135.12 103.196ZM136.453 103.594C136.735 103.703 136.971 103.871 137.166 104.101L137.928 103.453C137.625 103.096 137.251 102.831 136.815 102.662L136.453 103.594ZM137.171 104.106C137.327 104.285 137.432 104.553 137.432 104.965H138.432C138.432 104.38 138.28 103.855 137.923 103.448L137.171 104.106ZM137.432 104.965C137.432 105.273 137.346 105.542 137.172 105.786L137.987 106.366C138.283 105.95 138.432 105.478 138.432 104.965H137.432ZM137.176 105.782C137.002 106.021 136.748 106.222 136.392 106.376L136.788 107.294C137.282 107.081 137.689 106.776 137.984 106.37L137.176 105.782ZM136.392 106.376C136.041 106.527 135.619 106.61 135.116 106.61V107.61C135.728 107.61 136.289 107.509 136.788 107.294L136.392 106.376Z" fill="black"/>
<path d="M74.9629 135.619H104.167" stroke="black" stroke-width="3" stroke-miterlimit="10" stroke-linecap="round" stroke-linejoin="round"/>
<path d="M113.387 135.619H182.389" stroke="black" stroke-width="3" stroke-miterlimit="10" stroke-linecap="round" stroke-linejoin="round"/>
<path d="M74.9629 144.507H104.167" stroke="black" stroke-width="3" stroke-miterlimit="10" stroke-linecap="round" stroke-linejoin="round"/>
<path d="M113.387 144.507H182.389" stroke="black" stroke-width="3" stroke-miterlimit="10" stroke-linecap="round" stroke-linejoin="round"/>
<path d="M182.39 162.396H138.732" stroke="black" stroke-width="3" stroke-miterlimit="10" stroke-linecap="round" stroke-linejoin="round"/>
<path d="M128.669 162.396H74.9629" stroke="black" stroke-width="3" stroke-miterlimit="10" stroke-linecap="round" stroke-linejoin="round"/>
<path d="M182.39 170.351H138.732" stroke="black" stroke-width="3" stroke-miterlimit="10" stroke-linecap="round" stroke-linejoin="round"/>
<path d="M128.669 170.351H74.9629" stroke="black" stroke-width="3" stroke-miterlimit="10" stroke-linecap="round" stroke-linejoin="round"/>
<path d="M74.9492 126.725H182.389" stroke="black" stroke-width="3" stroke-miterlimit="10" stroke-linecap="round" stroke-linejoin="round"/>
<path d="M74.9492 153.395H182.389" stroke="black" stroke-width="3" stroke-miterlimit="10" stroke-linecap="round" stroke-linejoin="round"/>
<path d="M74.9492 179.246H182.389" stroke="black" stroke-width="3" stroke-miterlimit="10" stroke-linecap="round" stroke-linejoin="round"/>
<path d="M74.9492 117.837H182.389" stroke="black" stroke-width="3" stroke-miterlimit="10" stroke-linecap="round" stroke-linejoin="round"/>
<path d="M243.161 63.0463H198.5V213.139H243.161V63.0463Z" fill="white" stroke="black" stroke-width="3" stroke-miterlimit="10" stroke-linecap="round" stroke-linejoin="round"/>
<path d="M208.987 79.9895H231.449" stroke="black" stroke-width="3" stroke-miterlimit="10" stroke-linecap="round" stroke-linejoin="round"/>
<path d="M208.987 96.0141H231.449" stroke="black" stroke-width="3" stroke-miterlimit="10" stroke-linecap="round" stroke-linejoin="round"/>
<path d="M208.987 112.039H224.714" stroke="black" stroke-width="3" stroke-miterlimit="10" stroke-linecap="round" stroke-linejoin="round"/>
<path d="M208.987 128.056H231.449" stroke="black" stroke-width="3" stroke-miterlimit="10" stroke-linecap="round" stroke-linejoin="round"/>
<path d="M208.987 143.655H217.978" stroke="black" stroke-width="3" stroke-miterlimit="10" stroke-linecap="round" stroke-linejoin="round"/>
<path d="M208.987 159.679H231.449" stroke="black" stroke-width="3" stroke-miterlimit="10" stroke-linecap="round" stroke-linejoin="round"/>
<path d="M208.987 173.8H217.891" stroke="black" stroke-width="3" stroke-miterlimit="10" stroke-linecap="round" stroke-linejoin="round"/>
<path d="M225.825 173.8H231.361" stroke="black" stroke-width="3" stroke-miterlimit="10" stroke-linecap="round" stroke-linejoin="round"/>
<path d="M225.165 195.47C225.165 193.187 223.441 192.534 221.575 192.168L220.585 191.982C219.123 191.715 219.009 191.316 219.009 190.79C219.009 190.104 219.676 189.691 220.787 189.691C222.107 189.691 222.444 190.31 222.585 190.77L222.599 190.81C222.767 191.216 223.151 191.456 223.629 191.456C223.75 191.456 223.865 191.436 223.953 191.422C224.471 191.329 224.828 190.943 224.828 190.49C224.828 190.377 224.808 190.264 224.761 190.157C224.498 189.365 223.75 188.12 221.696 187.834V186.476C221.696 185.344 219.797 185.344 219.797 186.476V187.841C217.588 188.16 216.773 189.565 216.773 190.783C216.773 193.007 218.436 193.626 220.06 193.939L221.13 194.152C222.653 194.438 222.922 194.811 222.922 195.483C222.922 196.302 222.181 196.795 220.928 196.795C219.312 196.795 218.982 196.116 218.76 195.35C218.632 194.931 218.221 194.658 217.716 194.658C217.608 194.658 217.52 194.671 217.413 194.691L217.379 194.698C216.854 194.811 216.503 195.197 216.503 195.65C216.503 195.736 216.517 195.81 216.53 195.869L216.544 195.936C216.78 196.675 217.298 198.293 219.884 198.652V200.077C219.884 200.643 220.363 200.943 220.834 200.943C221.306 200.943 221.784 200.643 221.784 200.077V198.679C223.838 198.419 225.165 197.201 225.165 195.47Z" fill="black"/>
<path d="M210.273 221.7H147.07C146.289 221.7 145.656 221.075 145.656 220.302V151.464C145.656 150.692 146.289 150.066 147.07 150.066H210.273C211.055 150.066 211.688 150.692 211.688 151.464V220.302C211.681 221.075 211.055 221.7 210.273 221.7Z" fill="white" stroke="black" stroke-width="3" stroke-miterlimit="10" stroke-linecap="round" stroke-linejoin="round"/>
<path d="M203.525 158.368H153.819V169.872H203.525V158.368Z" fill="#FFD29C" stroke="black" stroke-width="3" stroke-miterlimit="10" stroke-linecap="round" stroke-linejoin="round"/>
<path d="M165.457 178.713H153.819V190.217H165.457V178.713Z" fill="white" stroke="black" stroke-width="3" stroke-miterlimit="10" stroke-linecap="round" stroke-linejoin="round"/>
<path d="M184.491 178.713H172.853V190.217H184.491V178.713Z" fill="white" stroke="black" stroke-width="3" stroke-miterlimit="10" stroke-linecap="round" stroke-linejoin="round"/>
<path d="M203.525 178.713H191.886V190.217H203.525V178.713Z" fill="white" stroke="black" stroke-width="3" stroke-miterlimit="10" stroke-linecap="round" stroke-linejoin="round"/>
<path d="M165.457 196.881H153.819V208.386H165.457V196.881Z" fill="white" stroke="black" stroke-width="3" stroke-miterlimit="10" stroke-linecap="round" stroke-linejoin="round"/>
<path d="M184.491 196.881H172.853V208.386H184.491V196.881Z" fill="white" stroke="black" stroke-width="3" stroke-miterlimit="10" stroke-linecap="round" stroke-linejoin="round"/>
<path d="M203.525 196.881H191.886V208.386H203.525V196.881Z" fill="white" stroke="black" stroke-width="3" stroke-miterlimit="10" stroke-linecap="round" stroke-linejoin="round"/>
<path d="M202.662 34.3193H199.631V31.3234C199.631 30.9572 199.328 30.6576 198.958 30.6576H198.284C197.914 30.6576 197.611 30.9572 197.611 31.3234V34.3193H194.58C194.21 34.3193 193.906 34.6188 193.906 34.985V35.6508C193.906 36.0169 194.21 36.3165 194.58 36.3165H197.611V39.3124C197.611 39.6785 197.914 39.9781 198.284 39.9781H198.958C199.328 39.9781 199.631 39.6785 199.631 39.3124V36.3165H202.662C203.033 36.3165 203.336 36.0169 203.336 35.6508V34.985C203.336 34.6122 203.033 34.3193 202.662 34.3193Z" fill="#8E8EEF"/>
<path d="M273.941 98.4906H270.91V95.4948C270.91 95.1286 270.607 94.829 270.237 94.829H269.563C269.193 94.829 268.89 95.1286 268.89 95.4948V98.4906H265.859C265.488 98.4906 265.185 98.7902 265.185 99.1564V99.8221C265.185 100.188 265.488 100.488 265.859 100.488H268.89V103.484C268.89 103.85 269.193 104.149 269.563 104.149H270.237C270.607 104.149 270.91 103.85 270.91 103.484V100.488H273.941C274.312 100.488 274.615 100.188 274.615 99.8221V99.1564C274.615 98.7902 274.312 98.4906 273.941 98.4906Z" fill="#C6F9EC"/>
<path d="M77.3693 64.0183C78.6712 64.0183 79.7266 62.9751 79.7266 61.6882C79.7266 60.4013 78.6712 59.3581 77.3693 59.3581C76.0674 59.3581 75.012 60.4013 75.012 61.6882C75.012 62.9751 76.0674 64.0183 77.3693 64.0183Z" fill="#FFD29C"/>
<path d="M123.564 241.946C124.866 241.946 125.921 240.903 125.921 239.616C125.921 238.329 124.866 237.286 123.564 237.286C122.262 237.286 121.207 238.329 121.207 239.616C121.207 240.903 122.262 241.946 123.564 241.946Z" fill="#8E8EEF"/>
<path d="M57.7342 176.283L35.8313 214.184L99.1894 250.001L121.092 212.1L57.7342 176.283Z" fill="#C6F9EC" stroke="black" stroke-width="3" stroke-miterlimit="10" stroke-linecap="round" stroke-linejoin="round"/>
<path d="M87.2345 217.426C85.8875 219.756 83.6985 221.434 81.0853 222.14C78.4518 222.839 75.7241 222.499 73.3667 221.168C68.4972 218.418 66.8066 212.26 69.5815 207.447C70.9959 204.997 73.2994 203.359 75.8655 202.707C78.3441 202.074 81.0583 202.354 83.4493 203.712C85.8067 205.043 87.5039 207.207 88.2179 209.797C88.9318 212.387 88.5883 215.103 87.2345 217.426Z" stroke="black" stroke-width="3" stroke-miterlimit="10"/>
<path d="M115.643 213.079L65.0081 184.459C64.9744 184.432 64.9408 184.419 64.9004 184.399L59.6536 181.429C59.3169 181.243 58.8926 181.356 58.6972 181.689L41.0308 212.254C40.9365 212.413 40.9163 212.606 40.9634 212.779C41.0106 212.953 41.1318 213.106 41.2935 213.199L97.2832 244.848C97.4449 244.935 97.6267 244.962 97.8086 244.922C97.8153 244.922 97.8153 244.922 97.8221 244.922C97.9972 244.875 98.1521 244.755 98.2464 244.602L115.913 214.038C116.095 213.692 115.98 213.265 115.643 213.079ZM59.5593 182.974L63.9911 185.484C64.1595 186.349 64.018 187.235 63.5668 188.007C63.0684 188.866 62.2669 189.478 61.3038 189.745C61.2903 189.751 61.2701 189.751 61.2566 189.758C59.4853 190.211 57.6061 189.305 56.8787 187.641C56.8787 187.634 56.872 187.634 56.872 187.628L59.5593 182.974ZM42.5866 212.34L45.3076 207.64C47.2002 207.314 49.0322 208.459 49.5441 210.31C49.8135 211.268 49.6788 212.26 49.1804 213.119C48.7022 213.958 47.9209 214.557 46.9914 214.83L42.5866 212.34ZM97.3641 243.304L92.9256 240.794C92.9256 240.734 92.9323 240.668 92.9121 240.608C92.6494 239.656 92.7774 238.65 93.2758 237.798C93.7742 236.939 94.5757 236.327 95.5388 236.061C96.502 235.801 97.5122 235.927 98.3811 236.42C99.223 236.893 99.8224 237.652 100.099 238.564L97.3641 243.304ZM100.961 237.073C100.509 236.307 99.8696 235.668 99.0681 235.215C97.8961 234.549 96.5356 234.37 95.229 234.709C95.2088 234.716 95.1819 234.722 95.1616 234.729C93.8348 235.089 92.7302 235.934 92.05 237.113C91.5516 237.978 91.3226 238.95 91.3832 239.929L48.5069 215.689C50.4803 214.557 51.5242 212.22 50.8979 209.95C50.2917 207.753 48.3318 206.288 46.1361 206.202L56.0638 189.032C57.2626 190.777 59.4853 191.642 61.6068 191.103C61.6271 191.096 61.654 191.089 61.6742 191.083C63.001 190.723 64.1056 189.878 64.7926 188.699C65.2237 187.96 65.4459 187.142 65.4729 186.316L108.706 210.749C106.739 211.881 105.696 214.211 106.322 216.481C106.888 218.532 108.672 219.976 110.727 220.196L100.961 237.073ZM111.501 218.844C109.75 218.951 108.134 217.826 107.669 216.122C107.137 214.184 108.268 212.18 110.208 211.608L114.337 213.944L111.501 218.844Z" fill="black" stroke="black" stroke-miterlimit="10"/>
<path d="M230.499 49.2054L217.015 71.5745L254.409 93.6174L267.893 71.2483L230.499 49.2054Z" fill="#C6F9EC" stroke="black" stroke-width="2" stroke-miterlimit="10" stroke-linecap="round" stroke-linejoin="round"/>
<path d="M247.647 74.0577C246.818 75.4358 245.498 76.4078 243.929 76.8006C242.346 77.1867 240.723 76.9604 239.336 76.1348C236.466 74.4439 235.517 70.7556 237.227 67.9129C238.096 66.4682 239.49 65.5162 241.026 65.15C242.515 64.7972 244.131 64.9969 245.539 65.8291C246.933 66.6479 247.916 67.9595 248.314 69.5107C248.711 71.0752 248.475 72.6863 247.647 74.0577Z" stroke="black" stroke-width="2.4764" stroke-miterlimit="10"/>
<path d="M264.633 71.7742L234.749 54.1585C234.729 54.1452 234.709 54.1319 234.688 54.1252L231.59 52.2944C231.395 52.1813 231.139 52.2412 231.018 52.4409L220.147 70.4827C220.086 70.5759 220.073 70.689 220.1 70.7955C220.127 70.9021 220.194 70.9953 220.288 71.0485L253.338 90.5283C253.432 90.5816 253.54 90.6015 253.648 90.5749C253.648 90.5749 253.648 90.5749 253.655 90.5749C253.762 90.5483 253.857 90.4817 253.911 90.3885L264.781 72.3467C264.896 72.1404 264.828 71.8874 264.633 71.7742ZM231.516 53.2132L234.136 54.7577C234.224 55.277 234.129 55.8029 233.853 56.2623C233.55 56.7683 233.058 57.1278 232.486 57.2742C232.479 57.2742 232.466 57.2809 232.459 57.2809C231.395 57.5339 230.284 56.9746 229.873 55.9694L229.866 55.9627L231.516 53.2132ZM221.07 70.5426L222.74 67.7664C223.872 67.5933 224.956 68.2923 225.239 69.4041C225.387 69.9767 225.299 70.5692 224.99 71.0752C224.693 71.5678 224.222 71.9207 223.67 72.0738L221.07 70.5426ZM253.399 89.6029L250.779 88.0584C250.779 88.0251 250.785 87.9851 250.772 87.9452C250.624 87.3727 250.711 86.7801 251.021 86.2742C251.324 85.7682 251.816 85.4087 252.388 85.2622C252.968 85.1224 253.567 85.2023 254.079 85.5086C254.577 85.8015 254.928 86.2609 255.083 86.8068L253.399 89.6029ZM255.615 85.9213C255.352 85.462 254.975 85.0692 254.51 84.7962C253.816 84.3835 253.008 84.2636 252.227 84.45C252.213 84.45 252.2 84.4567 252.186 84.4567C251.392 84.6564 250.725 85.1491 250.301 85.8414C249.991 86.3541 249.843 86.9266 249.87 87.5125L224.565 72.5931C225.751 71.9406 226.404 70.5559 226.054 69.1978C225.717 67.8796 224.565 66.9875 223.252 66.9142L229.361 56.7816C230.055 57.8335 231.375 58.3727 232.648 58.0731C232.661 58.0731 232.675 58.0665 232.688 58.0665C233.483 57.8667 234.15 57.3741 234.574 56.6817C234.837 56.2423 234.985 55.763 235.005 55.2703L260.518 70.3096C259.332 70.962 258.686 72.3467 259.036 73.7049C259.353 74.9365 260.397 75.8153 261.622 75.9684L255.615 85.9213ZM262.101 75.1629C261.057 75.2095 260.107 74.5237 259.844 73.4985C259.548 72.3334 260.248 71.1551 261.407 70.8355L263.845 72.2735L262.101 75.1629Z" fill="black" stroke="black" stroke-width="0.8255" stroke-miterlimit="10"/>
<path d="M129.673 56.7616L145.191 68.3589L164.588 43.0139L149.07 31.4166L129.673 56.7616Z" fill="#C6F9EC" stroke="black" stroke-miterlimit="10" stroke-linecap="round" stroke-linejoin="round"/>
<path d="M149.522 46.336C150.478 47.0484 151.091 48.087 151.259 49.2587C151.421 50.437 151.118 51.5954 150.397 52.5342C148.909 54.4781 146.093 54.8643 144.12 53.393C143.116 52.6473 142.524 51.5555 142.376 50.4104C142.234 49.3053 142.51 48.1469 143.244 47.1882C143.965 46.2428 145.016 45.637 146.201 45.4706C147.393 45.3174 148.572 45.6237 149.522 46.336Z" fill="#C6F9EC" stroke="black" stroke-width="1.8286" stroke-miterlimit="10"/>
<path d="M149.198 33.8266L133.694 54.0787C133.68 54.092 133.674 54.1053 133.66 54.1186L132.05 56.2157C131.949 56.3489 131.976 56.5419 132.111 56.6418L144.625 65.9955C144.692 66.0421 144.773 66.0621 144.854 66.0554C144.935 66.0488 145.009 66.0022 145.056 65.9356L162.197 43.5399C162.244 43.4733 162.265 43.4001 162.258 43.3202C162.258 43.3202 162.258 43.3202 162.258 43.3135C162.251 43.2336 162.204 43.1604 162.137 43.1138L149.623 33.7601C149.495 33.6669 149.299 33.6935 149.198 33.8266ZM132.737 56.3489L134.098 54.578C134.489 54.5513 134.872 54.6645 135.189 54.9042C135.539 55.1638 135.768 55.55 135.829 55.976C135.829 55.9827 135.829 55.9894 135.829 55.996C135.93 56.7882 135.425 57.5472 134.643 57.7669H134.637L132.737 56.3489ZM144.76 65.3298L142.833 63.8918C142.8 63.0529 143.406 62.3273 144.255 62.2141C144.692 62.1542 145.123 62.2673 145.474 62.527C145.817 62.78 146.039 63.1528 146.107 63.5656L144.76 65.3298ZM161.53 43.42L160.17 45.1976C160.143 45.1909 160.116 45.1909 160.089 45.1909C159.651 45.2508 159.22 45.1377 158.87 44.878C158.52 44.6184 158.291 44.2323 158.23 43.8062C158.17 43.3734 158.284 42.9474 158.547 42.6012C158.803 42.2683 159.173 42.0486 159.591 41.982L161.53 43.42ZM158.978 41.516C158.614 41.6691 158.298 41.9088 158.048 42.2284C157.691 42.6944 157.536 43.2736 157.604 43.8594C157.604 43.8661 157.604 43.8794 157.611 43.8861C157.698 44.4786 158.008 45.0045 158.486 45.364C158.843 45.6303 159.254 45.7834 159.692 45.8101L146.565 62.9597C146.174 62.0476 145.204 61.4618 144.16 61.6016C143.157 61.7414 142.396 62.507 142.234 63.4457L135.202 58.193C136.038 57.7736 136.55 56.8615 136.428 55.9161C136.428 55.9095 136.428 55.8961 136.422 55.8895C136.334 55.297 136.024 54.771 135.546 54.4115C135.243 54.1852 134.893 54.0387 134.529 53.9854L147.764 36.6893C148.154 37.6014 149.124 38.1806 150.161 38.0408C151.098 37.9077 151.838 37.2219 152.054 36.3498L158.978 41.516ZM151.515 35.9371C151.461 36.696 150.875 37.3351 150.094 37.4416C149.205 37.5615 148.383 36.9623 148.242 36.0902L149.508 34.4391L151.515 35.9371Z" fill="black" stroke="black" stroke-width="0.6095" stroke-miterlimit="10"/>
<path d="M32.8022 148.931C37.2659 148.931 40.8845 145.354 40.8845 140.942C40.8845 136.53 37.2659 132.953 32.8022 132.953C28.3385 132.953 24.72 136.53 24.72 140.942C24.72 145.354 28.3385 148.931 32.8022 148.931Z" fill="#FFD29C" stroke="black" stroke-width="2" stroke-miterlimit="10" stroke-linecap="round" stroke-linejoin="round"/>
<path d="M35.2671 142.16C35.2671 140.889 34.304 140.523 33.2668 140.316L32.7145 140.21C31.8995 140.063 31.8389 139.837 31.8389 139.544C31.8389 139.158 32.2093 138.932 32.829 138.932C33.5631 138.932 33.7517 139.278 33.8325 139.531L33.8393 139.551C33.9335 139.777 34.1491 139.91 34.4117 139.91C34.4791 139.91 34.5465 139.904 34.5869 139.89C34.8765 139.837 35.0718 139.624 35.0718 139.371C35.0718 139.311 35.0583 139.244 35.0381 139.185C34.8899 138.745 34.4791 138.046 33.3274 137.893V137.134C33.3274 136.502 32.27 136.502 32.27 137.134V137.893C31.0374 138.073 30.5862 138.852 30.5862 139.537C30.5862 140.776 31.5089 141.122 32.4181 141.295L33.0176 141.415C33.8662 141.575 34.0144 141.781 34.0144 142.154C34.0144 142.613 33.5968 142.886 32.9031 142.886C32.0006 142.886 31.8187 142.507 31.6907 142.081C31.6166 141.847 31.3876 141.694 31.1115 141.694C31.0509 141.694 31.0037 141.701 30.9431 141.714H30.9229C30.6333 141.781 30.438 141.994 30.438 142.247C30.438 142.294 30.4447 142.333 30.4515 142.367L30.4582 142.407C30.5862 142.819 30.8758 143.718 32.3171 143.918V144.71C32.3171 145.023 32.5865 145.19 32.8492 145.19C33.1118 145.19 33.3813 145.023 33.3813 144.71V143.931C34.5262 143.805 35.2671 143.126 35.2671 142.16Z" fill="black"/>
<path d="M31.2598 124.558V128.266" stroke="black" stroke-width="2" stroke-miterlimit="10" stroke-linecap="round" stroke-linejoin="round"/>
<path d="M35.1931 129.525V122.108" stroke="black" stroke-width="2" stroke-miterlimit="10" stroke-linecap="round" stroke-linejoin="round"/>
</g>
<defs>
<clipPath id="clip0">
<rect width="283" height="251" fill="white"/>
</clipPath>
</defs>
</svg>
