<svg width="42" height="34" viewBox="0 0 42 34" fill="none" xmlns="http://www.w3.org/2000/svg">
<path d="M15.9274 0C11.0483 0 7.07885 3.96946 7.07885 8.84856C7.07885 13.7277 11.0483 17.6971 15.9274 17.6971C20.8065 17.6971 24.776 13.7277 24.776 8.84856C24.776 3.96946 20.8065 0 15.9274 0ZM15.9274 14.1577C13.0003 14.1577 10.6183 11.7757 10.6183 8.84856C10.6183 5.92145 13.0003 3.53942 15.9274 3.53942C18.8545 3.53942 21.2365 5.92145 21.2365 8.84856C21.2365 11.7757 18.8545 14.1577 15.9274 14.1577ZM30.0851 33.6245C31.0625 33.6245 31.8548 32.8322 31.8548 31.8548C31.8548 25.0255 26.2961 19.4668 19.4668 19.4668H12.388C5.55689 19.4668 0 25.0255 0 31.8548C0 32.8322 0.792327 33.6245 1.76971 33.6245C2.7471 33.6245 3.53942 32.8322 3.53942 31.8548C3.53942 26.9757 7.50889 23.0062 12.388 23.0062H19.4668C24.3459 23.0062 28.3154 26.9757 28.3154 31.8548C28.3154 32.8322 29.1077 33.6245 30.0851 33.6245Z" fill="#3D3DE1"/>
<path d="M35.2633 18.4754C35.3286 18.3827 35.3995 18.2941 35.4756 18.21C35.6401 18.0441 35.8359 17.9125 36.0515 17.8226C36.2672 17.7328 36.4985 17.6865 36.7321 17.6865C36.9657 17.6865 37.197 17.7328 37.4127 17.8226C37.6283 17.9125 37.824 18.0441 37.9886 18.21C38.1526 18.3754 38.2823 18.5715 38.3704 18.7871C38.4585 19.0027 38.5031 19.2336 38.5018 19.4665C38.5102 19.6954 38.4742 19.9238 38.3956 20.1389C38.3161 20.3585 38.1893 20.558 38.0242 20.7231C37.859 20.8883 37.6596 21.0151 37.44 21.0946C37.2281 21.1882 36.9991 21.2365 36.7675 21.2365C36.5359 21.2365 36.3068 21.1882 36.095 21.0946C35.8754 21.0151 35.676 20.8883 35.5108 20.7231C35.3457 20.558 35.2189 20.3585 35.1394 20.1389C35.0403 19.9289 34.9918 19.6986 34.9978 19.4665C34.9891 19.3486 34.9891 19.2303 34.9978 19.1125C35.0172 19.0017 35.053 18.8943 35.104 18.794C35.1427 18.6812 35.1963 18.5741 35.2633 18.4754Z" fill="#02CEAA"/>
<path d="M34.0757 4.24985C34.8834 3.78386 35.7996 3.53883 36.7321 3.53943C37.9771 3.54909 39.1792 3.99603 40.1281 4.80212C41.077 5.60821 41.7124 6.72216 41.9232 7.94925C42.1341 9.17635 41.9069 10.4385 41.2815 11.5151C40.6561 12.5917 39.6722 13.4142 38.5018 13.8389V14.1575C38.5018 14.6268 38.3153 15.0769 37.9834 15.4088C37.6516 15.7407 37.2014 15.9271 36.7321 15.9271C36.2628 15.9271 35.8126 15.7407 35.4808 15.4088C35.1489 15.0769 34.9624 14.6268 34.9624 14.1575V12.3878C34.9624 11.9184 35.1489 11.4683 35.4808 11.1364C35.8126 10.8046 36.2628 10.6181 36.7321 10.6181C37.2014 10.6181 37.6516 10.4317 37.9834 10.0998C38.3153 9.76791 38.5018 9.31779 38.5018 8.84844C38.5018 8.37909 38.3153 7.92897 37.9834 7.5971C37.6516 7.26522 37.2014 7.07877 36.7321 7.07877C36.4203 7.07753 36.1136 7.15872 35.8433 7.3141C35.5729 7.46948 35.3484 7.69355 35.1925 7.96361C35.0819 8.17509 34.9296 8.36201 34.7448 8.51312C34.5601 8.66423 34.3467 8.77641 34.1175 8.84291C33.8883 8.90941 33.6479 8.92886 33.411 8.90008C33.1741 8.8713 32.9454 8.79489 32.7388 8.67545C32.5321 8.556 32.3518 8.396 32.2086 8.20505C32.0654 8.0141 31.9623 7.79616 31.9055 7.56434C31.8488 7.33252 31.8395 7.09161 31.8782 6.8561C31.9169 6.62059 32.0029 6.39536 32.131 6.19393C32.5972 5.38636 33.2679 4.71584 34.0757 4.24985Z" fill="#02CEAA"/>
</svg>
