<svg width="42" height="75" viewBox="0 0 42 75" fill="none" xmlns="http://www.w3.org/2000/svg">
<path d="M40.2773 33H1.72266C1.23047 33 0.820312 33.1641 0.492188 33.4922C0.164062 33.8203 0 34.2305 0 34.7227V55.7227C0 56.2695 0.164062 56.707 0.492188 57.0352C0.820312 57.3633 1.23047 57.5273 1.72266 57.5273H40.2773C40.7695 57.5273 41.1797 57.3633 41.5078 57.0352C41.8359 56.707 42 56.2695 42 55.7227V34.7227C42 34.2305 41.8359 33.8203 41.5078 33.4922C41.1797 33.1641 40.7695 33 40.2773 33ZM3.52734 36.5273H5.25C5.25 37.0195 5.08594 37.4297 4.75781 37.7578C4.42969 38.0859 4.01953 38.25 3.52734 38.25V36.5273ZM3.52734 54V52.2773C4.67578 52.2773 5.25 52.8516 5.25 54H3.52734ZM14.8477 54H8.77734C8.77734 52.5234 8.27148 51.2793 7.25977 50.2676C6.24805 49.2559 5.00391 48.75 3.52734 48.75V41.7773C5.00391 41.7773 6.24805 41.2715 7.25977 40.2598C8.27148 39.248 8.77734 38.0039 8.77734 36.5273H14.8477C13.0977 38.9883 12.2227 41.8867 12.2227 45.2227C12.2227 48.5039 13.0977 51.4297 14.8477 54ZM21 54C19.5781 54 18.3477 53.125 17.3086 51.375C16.2695 49.625 15.75 47.5742 15.75 45.2227C15.75 42.8711 16.2695 40.834 17.3086 39.1113C18.3477 37.3887 19.5781 36.5273 21 36.5273C22.4219 36.5273 23.6523 37.3887 24.6914 39.1113C25.7305 40.834 26.25 42.8711 26.25 45.2227C26.25 47.6289 25.7441 49.6934 24.7324 51.416C23.7207 53.1387 22.4766 54 21 54ZM38.4727 54H36.75C36.75 52.8516 37.3242 52.2773 38.4727 52.2773V54ZM38.4727 48.75C36.9961 48.75 35.752 49.2559 34.7402 50.2676C33.7285 51.2793 33.2227 52.5234 33.2227 54H27.3164C29.0664 51.4297 29.9414 48.5039 29.9414 45.2227C29.9414 41.8867 29.0664 38.9883 27.3164 36.5273H33.2227C33.2227 38.0039 33.7285 39.248 34.7402 40.2598C35.752 41.2715 36.9961 41.7773 38.4727 41.7773V48.75ZM38.4727 38.25C37.9805 38.25 37.5703 38.0859 37.2422 37.7578C36.9141 37.4297 36.75 37.0195 36.75 36.5273H38.4727V38.25ZM38.4727 62.7773H28.7109C29.4219 61.793 29.7773 60.6172 29.7773 59.25H26.25C26.25 59.3594 26.2363 59.4961 26.209 59.6602C26.1816 59.8242 26.0723 60.1113 25.8809 60.5215C25.6895 60.9316 25.4297 61.2871 25.1016 61.5879C24.7734 61.8887 24.2539 62.1621 23.543 62.4082C22.832 62.6543 21.9844 62.7773 21 62.7773C19.5234 62.7773 18.3477 62.4902 17.4727 61.916C16.5977 61.3418 16.0918 60.8359 15.9551 60.3984C15.8184 59.9609 15.75 59.5781 15.75 59.25H12.2227C12.2227 60.2891 12.5781 61.4648 13.2891 62.7773H3.52734V59.25H0V62.7773C0 63.707 0.341797 64.5137 1.02539 65.1973C1.70898 65.8809 2.54297 66.2227 3.52734 66.2227H38.4727C39.457 66.2227 40.291 65.8809 40.9746 65.1973C41.6582 64.5137 42 63.707 42 62.7773V59.25H38.4727V62.7773ZM38.4727 71.4727H28.7109C29.4219 70.4883 29.7773 69.3398 29.7773 68.0273H26.25C26.25 68.3555 26.1953 68.7109 26.0859 69.0938C25.9766 69.4766 25.498 69.9688 24.6504 70.5703C23.8027 71.1719 22.5859 71.4727 21 71.4727C19.5234 71.4727 18.3477 71.1992 17.4727 70.6523C16.5977 70.1055 16.0918 69.6133 15.9551 69.1758C15.8184 68.7383 15.75 68.3555 15.75 68.0273H12.2227C12.2227 69.0117 12.5781 70.1602 13.2891 71.4727H3.52734V68.0273H0V71.4727C0 72.457 0.341797 73.291 1.02539 73.9746C1.70898 74.6582 2.54297 75 3.52734 75H38.4727C39.457 75 40.291 74.6582 40.9746 73.9746C41.6582 73.291 42 72.457 42 71.4727V68.0273H38.4727V71.4727Z" fill="#3D3DE1"/>
<path fill-rule="evenodd" clip-rule="evenodd" d="M10.4426 13.5377C10.5825 13.3993 10.7487 13.2894 10.9317 13.2145C11.1147 13.1395 11.3109 13.101 11.5091 13.101C11.7072 13.101 11.9034 13.1395 12.0864 13.2145C12.2694 13.2894 12.4357 13.3993 12.5756 13.5377L20.5473 21.4084L28.519 13.5377C28.8019 13.2586 29.1855 13.1017 29.5856 13.1017C29.9856 13.1017 30.3692 13.2586 30.6521 13.5377C30.9349 13.8169 31.0938 14.1955 31.0938 14.5903C31.0938 14.9851 30.9349 15.3638 30.6521 15.6429L21.6138 24.5633C21.4739 24.7017 21.3077 24.8116 21.1247 24.8865C20.9416 24.9615 20.7455 25 20.5473 25C20.3492 25 20.153 24.9615 19.97 24.8865C19.787 24.8116 19.6207 24.7017 19.4808 24.5633L10.4426 15.6429C10.3023 15.5048 10.191 15.3408 10.115 15.1601C10.0391 14.9795 10 14.7859 10 14.5903C10 14.3948 10.0391 14.2011 10.115 14.0205C10.191 13.8399 10.3023 13.6758 10.4426 13.5377Z" fill="#02CEAA"/>
<path fill-rule="evenodd" clip-rule="evenodd" d="M20.5464 0C20.9459 0 21.3291 0.156637 21.6116 0.435451C21.8941 0.714266 22.0528 1.09242 22.0528 1.48672V20.5371C22.0528 20.9314 21.8941 21.3096 21.6116 21.5884C21.3291 21.8672 20.9459 22.0238 20.5464 22.0238C20.1469 22.0238 19.7637 21.8672 19.4812 21.5884C19.1987 21.3096 19.04 20.9314 19.04 20.5371V1.48672C19.04 1.09242 19.1987 0.714266 19.4812 0.435451C19.7637 0.156637 20.1469 0 20.5464 0Z" fill="#02CEAA"/>
</svg>
