<svg width="53" height="53" viewBox="0 0 53 53" fill="none" xmlns="http://www.w3.org/2000/svg">
<path fill-rule="evenodd" clip-rule="evenodd" d="M25.9226 0.0624219C34.6197 -0.139055 44.4881 -0.266057 49.8559 6.65603C55.195 13.5412 52.5899 23.1402 50.3779 31.5989C48.2948 39.5644 45.515 48.1054 38.1146 51.5539C30.8157 54.9551 22.5198 51.7974 15.4924 47.8549C9.06002 44.2463 4.38717 38.5339 2.23076 31.4227C-0.180378 23.4714 -1.66679 14.3429 3.32614 7.73394C8.4006 1.01703 17.5655 0.256024 25.9226 0.0624219Z" fill="#89DDEF"/>
<path d="M31.1883 37.32L30.0602 36.2692C29.6703 35.9059 29.0657 35.9066 28.6766 36.2707C28.2477 36.672 28.2486 37.3526 28.6784 37.7528L30.411 39.3662C30.8499 39.7749 31.5302 39.7745 31.9686 39.3654L36.0721 35.5361C36.5016 35.1353 36.5016 34.4544 36.0721 34.0536C35.6826 33.6901 35.0782 33.6901 34.6886 34.0536L31.1883 37.32Z" fill="black" stroke="black" stroke-width="0.5"/>
<path d="M32.375 27.5C27.4811 27.5 23.5 31.4811 23.5 36.375C23.5 41.2689 27.4811 45.25 32.375 45.25C37.2689 45.25 41.25 41.2689 41.25 36.375C41.25 31.4811 37.2689 27.5 32.375 27.5ZM32.375 43.025C28.7086 43.025 25.725 40.0414 25.725 36.375C25.725 32.7086 28.7086 29.725 32.375 29.725C36.0414 29.725 39.025 32.7086 39.025 36.375C39.025 40.0414 36.0414 43.025 32.375 43.025Z" fill="black" stroke="black" stroke-width="0.5"/>
<path d="M30.3723 16.1491V14.0849C30.3723 13.8956 30.2215 13.7408 30.0372 13.7408H13.9521C13.7678 13.7408 13.617 13.8956 13.617 14.0849V16.1491C13.617 16.3383 13.7678 16.4931 13.9521 16.4931H30.0372C30.2215 16.4931 30.3723 16.3383 30.3723 16.1491ZM13.9521 19.9335C13.7678 19.9335 13.617 20.0883 13.617 20.2775V22.3417C13.617 22.531 13.7678 22.6858 13.9521 22.6858H21.6596C21.8439 22.6858 21.9947 22.531 21.9947 22.3417V20.2775C21.9947 20.0883 21.8439 19.9335 21.6596 19.9335H13.9521ZM19.984 39.3716H10.266V9.09633H33.7234V23.8899C33.7234 24.0791 33.8742 24.2339 34.0585 24.2339H36.4043C36.5886 24.2339 36.7394 24.0791 36.7394 23.8899V7.37615C36.7394 6.61497 36.1404 6 35.3989 6H8.59043C7.849 6 7.25 6.61497 7.25 7.37615V41.0917C7.25 41.8529 7.849 42.4679 8.59043 42.4679H19.984C20.1684 42.4679 20.3191 42.3131 20.3191 42.1239V39.7156C20.3191 39.5264 20.1684 39.3716 19.984 39.3716Z" fill="black"/>
</svg>
