<svg width="22" height="20" viewBox="0 0 22 20" fill="none" xmlns="http://www.w3.org/2000/svg">
<path d="M2.85714 2.85714V0H4.7619V2.85714H7.61905V4.7619H4.7619V7.61905H2.85714V4.7619H0V2.85714H2.85714ZM5.71429 8.57143V5.71429H8.57143V2.85714H15.2381L16.981 4.7619H20C21.0476 4.7619 21.9048 5.61905 21.9048 6.66667V18.0952C21.9048 19.1429 21.0476 20 20 20H4.7619C3.71429 20 2.85714 19.1429 2.85714 18.0952V8.57143H5.71429ZM12.381 17.1429C15.0095 17.1429 17.1429 15.0095 17.1429 12.381C17.1429 9.75238 15.0095 7.61905 12.381 7.61905C9.75238 7.61905 7.61905 9.75238 7.61905 12.381C7.61905 15.0095 9.75238 17.1429 12.381 17.1429ZM9.33333 12.381C9.33333 14.0667 10.6952 15.4286 12.381 15.4286C14.0667 15.4286 15.4286 14.0667 15.4286 12.381C15.4286 10.6952 14.0667 9.33333 12.381 9.33333C10.6952 9.33333 9.33333 10.6952 9.33333 12.381Z" fill="black"/>
</svg>
