<svg width="100" height="41" viewBox="0 0 100 41" fill="none" xmlns="http://www.w3.org/2000/svg">
<path fill-rule="evenodd" clip-rule="evenodd" d="M12.6047 5.08278C11.7155 3.99032 10.3816 3.30753 8.95886 3.30753C5.89102 3.30753 4.11255 6.22076 4.11255 9.08846C4.11255 11.9562 5.93548 14.7328 8.86994 14.7328C10.2482 14.7328 11.5821 14.0045 12.5158 12.9576V16.8722C11.3153 17.4185 10.1149 17.8737 8.82548 17.8737C4.24594 17.8737 0.777939 13.7769 0.777939 9.22502C0.777939 4.44551 4.02363 0.257751 8.86994 0.257751C10.1593 0.257751 11.4042 0.621905 12.5158 1.25917V5.21934H12.6047V5.08278Z" fill="white"/>
<path fill-rule="evenodd" clip-rule="evenodd" d="M25.2763 17.8282C20.2521 17.8282 17.1843 13.9135 17.1843 8.95194C17.1843 3.99035 20.3855 0.166748 25.2763 0.166748C30.167 0.166748 33.3683 3.99035 33.3683 8.95194C33.4127 13.9135 30.3004 17.8282 25.2763 17.8282ZM25.2762 3.39856C22.2529 3.39856 20.5189 6.12971 20.5189 8.86085C20.5189 11.4554 21.8082 14.6418 25.2762 14.6418C28.8332 14.6418 30.0336 11.501 30.0336 8.86085C30.0781 6.12971 28.2996 3.39856 25.2762 3.39856Z" fill="white"/>
<path fill-rule="evenodd" clip-rule="evenodd" d="M38.2145 0.621887H42.7496C47.4625 0.621887 50.6638 4.26342 50.6638 9.04292C50.6638 13.7314 47.4181 17.4184 42.7496 17.4184H38.2145V0.621887ZM41.3713 14.5508H41.9049C45.8175 14.5508 47.3292 12.3203 47.3292 9.04295C47.3292 5.40142 45.5063 3.53514 41.9049 3.53514H41.3713V14.5508Z" fill="white"/>
<path fill-rule="evenodd" clip-rule="evenodd" d="M58.6669 3.44407V7.13112H63.78V9.95331H58.6669V14.5507H64.002V17.4184H55.5546V0.621887H64.002V3.44407H58.6669Z" fill="white"/>
<path fill-rule="evenodd" clip-rule="evenodd" d="M3.9347 36.8552L2.28962 40.588H0.333313L7.26931 25.0203L14.2053 40.5423H12.249L10.6039 36.8095L3.9347 36.8552ZM7.26929 29.117L4.64606 35.1255H9.8036L7.26929 29.117Z" fill="white"/>
<path fill-rule="evenodd" clip-rule="evenodd" d="M20.8301 30.7102H20.7412L19.0516 40.5423H17.1842L20.1632 25.0203L25.1873 36.7642L30.1225 25.0203L33.1015 40.5423H31.2785L29.5001 30.7102L25.1873 40.8609L20.8301 30.7102Z" fill="white"/>
<path fill-rule="evenodd" clip-rule="evenodd" d="M37.6365 25.6119H45.4173V27.3872H39.4595V31.5294H45.3284V33.1681H39.4595V38.8125H45.4173V40.5422H37.6365V25.6119Z" fill="white"/>
<path fill-rule="evenodd" clip-rule="evenodd" d="M59.6451 40.5422H57.4664L53.1537 34.2151H52.4421V40.5422H50.6191V25.6119H52.798C54.0871 25.6119 55.4654 25.6119 56.6217 26.2947C57.8221 27.0233 58.578 28.3888 58.578 29.8452C58.578 31.9391 57.1997 33.7599 55.0655 33.9875L59.6451 40.5422ZM52.3976 32.713H53.02C54.8874 32.713 56.8882 32.3486 56.8882 29.9818C56.8882 27.6148 54.7096 27.2962 52.9756 27.2962H52.4865V32.6675L52.3976 32.713Z" fill="white"/>
<rect x="63.9576" y="25.6119" width="1.82292" height="14.9303" fill="white"/>
<path fill-rule="evenodd" clip-rule="evenodd" d="M81.9645 28.4795C80.9421 27.5691 79.4746 26.9776 78.141 26.9776C74.8951 26.9776 72.4055 29.7541 72.4055 33.0317C72.4055 36.309 74.8953 39.0857 78.0963 39.0857C79.5636 39.0857 80.8978 38.5395 81.9645 37.5381V39.723C80.8976 40.4058 79.4304 40.7697 78.141 40.7697C73.9616 40.7697 70.5826 37.3558 70.5826 33.077C70.5826 28.6616 74.0505 25.2021 78.3189 25.2021C79.6082 25.2021 80.8529 25.5208 82.0092 26.2036L81.9645 28.4795Z" fill="white"/>
<path fill-rule="evenodd" clip-rule="evenodd" d="M89.0341 36.8551L87.3888 40.5879H85.4323L92.3683 25.0659L99.3043 40.5879H97.3035L95.6582 36.8551H89.0341ZM92.3685 29.1169L89.7455 35.1254H94.9473L92.3685 29.1169Z" fill="white"/>
<path fill-rule="evenodd" clip-rule="evenodd" d="M77.2518 10.9548C76.7627 11.7741 76.2294 12.6845 75.7401 13.6404C75.251 14.5963 74.7172 15.5522 74.1837 16.5081C73.6504 17.4185 73.0275 18.3744 72.361 19.2392C71.6939 20.1041 71.0269 20.8324 70.2266 21.5152C69.4263 22.1982 68.5818 22.6989 67.6925 23.1086C66.8031 23.4727 65.6916 23.7456 64.5356 23.7456C64.1799 23.7456 63.7352 23.7001 63.3351 23.6091C62.8905 23.5638 62.4903 23.3815 62.1346 23.1539C61.7789 22.972 61.4675 22.6987 61.2454 22.3345C61.0229 22.0159 60.8897 21.6062 60.8897 21.1055C60.8897 20.7414 60.934 20.3772 61.112 20.1041C61.2899 19.7855 61.4677 19.5579 61.7792 19.3758C62.0015 19.1937 62.3125 19.0116 62.6682 18.9206C63.0241 18.7841 63.3353 18.7385 63.6908 18.7385C63.8686 18.7385 64.0465 18.7385 64.1799 18.7385C64.3132 18.7385 64.4911 18.7841 64.6245 18.7841V18.9661C64.002 19.0117 63.5574 19.1937 63.1126 19.6489C62.7569 20.1041 62.5792 20.5593 62.5792 21.1966C62.5792 21.8794 62.7569 22.4256 63.1126 22.7897C63.4685 23.1539 64.0907 23.427 64.9355 23.427C65.7358 23.427 66.4474 23.2449 67.1141 22.7897C67.7808 22.3345 68.448 21.7885 69.1149 21.1055C69.782 20.4227 70.4043 19.6034 70.9376 18.7385C71.4713 17.8737 72.0938 16.9633 72.5829 16.0074C73.1162 15.097 73.6053 14.1411 74.0946 13.2762C74.5839 12.4114 74.9838 11.592 75.4286 10.9092H73.5166L73.6944 10.5451H75.5618C75.9173 9.86231 76.3621 9.17952 76.8954 8.36017C77.3845 7.54083 77.9625 6.81252 78.585 6.12974C79.2521 5.44695 79.919 4.90072 80.7193 4.40001C81.5196 3.94482 82.2757 3.71722 83.1203 3.71722C83.3426 3.71722 83.6536 3.76274 83.9206 3.85378C84.1429 3.8993 84.4096 4.03586 84.5877 4.17242C84.7656 4.30897 84.9432 4.49105 85.0768 4.67313C85.21 4.8552 85.2546 5.12832 85.2546 5.40143C85.2546 5.90214 85.0768 6.22078 84.7656 6.44837C84.4096 6.67597 84.0537 6.81252 83.6093 6.81252C83.4762 6.81252 83.387 6.81252 83.2534 6.76701C83.387 6.53941 83.476 6.2663 83.5651 6.0387C83.6536 5.8111 83.6983 5.49247 83.6983 5.17384C83.6983 4.80968 83.6536 4.49105 83.476 4.30897C83.2981 4.1269 83.12 3.99034 82.8533 3.99034C82.542 3.99034 82.1866 4.1269 81.8309 4.35449C81.4752 4.58209 81.1195 4.99176 80.7638 5.35591C80.4083 5.8111 80.0971 6.22078 79.7414 6.72149C79.3857 7.2222 79.0743 7.72291 78.8522 8.22362C78.5409 8.72433 78.3188 9.134 78.0519 9.58919C77.8296 10.0444 77.607 10.3175 77.5185 10.5906H82.4091L82.1868 10.9548H77.2958H77.2518Z" fill="white"/>
<path fill-rule="evenodd" clip-rule="evenodd" d="M89.7008 12.3658C89.4785 12.73 89.1675 13.0486 88.8116 13.2762C88.4561 13.5038 88.1002 13.7314 87.6558 13.7314C87.3446 13.7314 87.122 13.6859 86.8555 13.5493C86.5885 13.4128 86.4107 13.2307 86.2328 13.0031C86.0554 13.6859 85.7884 14.3231 85.4325 14.8694C85.077 15.4156 84.6322 15.9618 84.1431 16.417C83.654 16.8722 83.0763 17.2364 82.4536 17.464C81.8313 17.6916 81.1642 17.8281 80.4975 17.8281C79.7857 17.8281 79.2081 17.646 78.8079 17.1908C78.3631 16.7356 78.1408 16.1894 78.1408 15.4611C78.1408 14.7783 78.3187 14.0955 78.6741 13.4583C79.03 12.821 79.4744 12.2748 80.0082 11.7741C80.5415 11.2734 81.164 10.9092 81.8309 10.5906C82.498 10.2719 83.1645 10.1354 83.8317 10.1354C84.4988 10.1354 85.1211 10.3175 85.477 10.6816C85.9214 11.0458 86.1441 11.5465 86.1883 12.0472C86.2326 12.4113 86.3662 12.7755 86.6327 12.9576C86.8553 13.1852 87.1665 13.3217 87.522 13.3217C87.8779 13.3217 88.1891 13.1852 88.5001 13.0031C88.8114 12.821 89.1673 12.4569 89.4783 12.0927L89.7008 12.3658ZM81.7422 17.2819C82.0534 17.0543 82.3644 16.7812 82.6314 16.417C82.9427 16.0529 83.1648 15.6887 83.4764 15.2335C83.6987 14.7783 83.9655 14.3686 84.1431 13.8679C84.321 13.4127 84.4544 13.0031 84.588 12.5479C84.7211 12.0927 84.7658 11.8196 84.7658 11.5009C84.7658 11.1823 84.7211 10.9547 84.588 10.7726C84.4544 10.5906 84.232 10.545 83.9208 10.545C83.6096 10.545 83.2537 10.6816 82.9427 10.8637C82.6314 11.0913 82.3204 11.3644 82.0534 11.7285C81.7422 12.0927 81.5201 12.4568 81.2089 12.912C80.9866 13.3672 80.7198 13.7769 80.5417 14.2776C80.3639 14.7328 80.2305 15.1425 80.0973 15.5977C79.9637 16.0529 79.9195 16.326 79.9195 16.6446C79.9195 16.9632 79.9637 17.1908 80.0973 17.3729C80.2305 17.555 80.4528 17.6005 80.764 17.6005C81.0753 17.6005 81.4312 17.5095 81.7422 17.2819Z" fill="white"/>
<path fill-rule="evenodd" clip-rule="evenodd" d="M85.9216 17.5095C86.5887 16.326 87.2556 15.2336 87.9223 14.0501C88.5895 12.9576 89.2564 11.7741 89.9235 10.5906L92.1022 10.5451L89.5676 14.1866L89.6119 14.2321C90.101 13.5949 90.5011 13.1397 90.9459 12.73C91.3014 12.3659 91.6573 12.0472 91.9241 11.8196C92.2353 11.592 92.4574 11.3644 92.6355 11.2734C92.8133 11.1824 92.9914 11.0458 93.0799 10.9548C93.2135 10.8182 93.3915 10.7272 93.5247 10.5906C93.6579 10.5451 93.747 10.4541 93.9691 10.4085C94.147 10.363 94.325 10.363 94.5918 10.363C94.8141 10.363 95.1251 10.363 95.481 10.3175C95.2585 10.6817 94.9919 11.0458 94.8139 11.41C94.636 11.7741 94.5026 12.2293 94.5026 12.639C94.5026 13.1852 94.8139 13.5038 95.3472 13.5038C95.525 13.5038 95.7031 13.4583 95.881 13.3673C96.0584 13.3218 96.2364 13.1852 96.37 13.0487C96.5474 12.9121 96.6813 12.8211 96.8144 12.6845C96.9476 12.5479 97.0367 12.4569 97.1703 12.3203L97.2146 12.4569C96.8587 12.9121 96.4143 13.2762 95.9252 13.5494C95.4361 13.868 94.9028 14.0046 94.3688 14.0046C93.8355 14.0046 93.4796 13.868 93.1684 13.5494C92.8571 13.3218 92.724 12.8666 92.724 12.3203C92.724 11.9562 92.8571 11.6376 93.0352 11.3189L92.991 11.2734C92.4572 11.6376 91.9681 12.0928 91.4346 12.5935C90.9455 13.0942 90.4564 13.5949 90.0563 14.1411C89.6114 14.6873 89.256 15.2336 88.9001 15.8253C88.5446 16.3715 88.2334 16.9178 87.9219 17.5095H85.9216Z" fill="white"/>
</svg>
