<svg width="33" height="35" viewBox="0 0 33 35" fill="none" xmlns="http://www.w3.org/2000/svg">
<path d="M2.86 35C1.32 35 0.44 34.3438 0.22 33.25C-0.44 31.5 1.32 30.4062 1.98 29.9688C3.3 29.0938 3.96 28.4375 4.18 27.7812C4.18 27.3438 3.96 26.9063 3.52 26.25C3.52 26.25 3.52 26.0312 3.3 26.0312C1.1 23.1875 0 19.6875 0 16.1875C0 7.21875 7.48 0 16.5 0C25.52 0 33 7.21875 33 16.1875C33 25.1563 25.52 32.375 16.5 32.375C15.4 32.375 14.3 32.1563 13.2 31.9375C7.48 34.7813 3.3 35 3.3 35C3.08 35 3.08 35 2.86 35ZM7.26 23.8438C8.36 25.375 8.8 27.125 8.58 28.6563C8.58 28.875 8.36 29.3125 8.36 29.5313C9.46 29.0938 10.56 28.6563 11.88 28C12.32 27.7813 12.76 27.5625 13.2 27.7812H13.42C14.3 28 15.4 28.2188 16.5 28.2188C23.1 28.2188 28.6 22.9688 28.6 16.4062C28.6 9.84375 23.1 4.375 16.5 4.375C9.9 4.375 4.4 9.625 4.4 16.1875C4.4 18.8125 5.28 21.4375 7.04 23.4062C7.04 23.625 7.26 23.625 7.26 23.8438Z" fill="black"/>
</svg>
