<svg width="80" height="80" viewBox="0 0 80 80" fill="none" xmlns="http://www.w3.org/2000/svg">
  <path fill-rule="evenodd" clip-rule="evenodd" d="M40.5296 0.000116339C49.9889 -0.0315226 58.1112 6.39378 64.7095 14.7681C72.5145 24.6737 82.0193 36.1123 79.623 49.6157C77.2168 63.1748 64.5863 68.3542 54.2398 73.7654C44.7675 78.7193 34.8099 82.3903 25.1223 78.1191C13.9746 73.2042 2.19879 64.3753 0.234104 49.9547C-1.66891 35.9867 8.42026 24.9621 16.5132 14.9293C23.1688 6.6783 31.1011 0.0316518 40.5296 0.000116339Z" fill="#FFD29C"/>
  <path fill-rule="evenodd" clip-rule="evenodd" d="M26.8964 13.4122C31.6695 12.1441 36.7354 10.9999 39.7695 10.9999C42.799 10.9999 47.8695 12.1441 52.6425 13.4122C56.8998 14.5599 61.1295 15.8086 65.3279 17.1571C67.7442 17.929 69.5656 20.0197 69.9179 22.5974C72.5401 41.8821 66.4583 56.1721 59.0859 65.6284C55.9442 69.6866 52.2143 73.2489 48.0205 76.1966C46.5622 77.2222 45.0207 78.1229 43.4122 78.8892C42.1766 79.4589 40.8586 79.923 39.7695 79.923C38.6803 79.923 37.3623 79.4589 36.1267 78.8892C34.5179 78.1235 32.9763 77.2228 31.5184 76.1966C27.3263 73.2485 23.5979 69.6862 20.4576 65.6284C13.0761 56.1721 6.99879 41.8821 9.621 22.5974C9.79632 21.3479 10.3205 20.1738 11.1328 19.211C11.9451 18.2483 13.0123 17.5361 14.211 17.1571C18.4095 15.8086 22.6391 14.56 26.8964 13.4122Z" fill="white"/>
  <path fill-rule="evenodd" clip-rule="evenodd" d="M28.068 17.8509C23.8829 18.9806 19.725 20.2093 15.5977 21.536C15.2242 21.6517 14.8908 21.871 14.6358 22.1685C14.3808 22.4659 14.2146 22.8296 14.1562 23.2177C11.717 41.1239 17.3458 54.1917 24.0592 62.7979C27.4274 67.1171 31.0746 70.3151 34.1133 72.415C35.6372 73.4626 36.978 74.2254 38.0351 74.7124C38.566 74.956 38.9962 75.1214 39.3257 75.2179C39.4709 75.2648 39.6193 75.3016 39.7696 75.3281C39.8016 75.3236 39.9434 75.3052 40.2134 75.2225C40.5429 75.1214 40.9731 74.956 41.504 74.7124C42.5565 74.2254 43.9065 73.4626 45.4258 72.415C49.2361 69.7307 52.625 66.4892 55.4799 62.7979C62.1933 54.1917 67.8221 41.1239 65.3829 23.2177C65.3246 22.8296 65.1583 22.4659 64.9033 22.1685C64.6483 21.871 64.3149 21.6517 63.9414 21.536C61.0767 20.617 56.2441 19.1191 51.4711 17.8509C46.5928 16.5597 42.1035 15.5948 39.7696 15.5948C37.4357 15.5948 32.9509 16.5597 28.068 17.8509ZM26.8965 13.4122C31.6696 12.1441 36.7355 10.9999 39.7696 10.9999C42.799 10.9999 47.8695 12.1441 52.6426 13.4122C56.8999 14.5599 61.1295 15.8086 65.328 17.1571C67.7443 17.929 69.5656 20.0197 69.918 22.5974C72.5402 41.8821 66.4584 56.1721 59.086 65.6284C55.9443 69.6866 52.2144 73.2489 48.0206 76.1966C46.5623 77.2222 45.0208 78.1229 43.4123 78.8892C42.1767 79.4589 40.8587 79.923 39.7696 79.923C38.6804 79.923 37.3624 79.4589 36.1268 78.8892C34.518 78.1235 32.9764 77.2228 31.5185 76.1966C27.3264 73.2485 23.598 69.6862 20.4577 65.6284C13.0762 56.1721 6.99888 41.8821 9.62109 22.5974C9.79641 21.3479 10.3206 20.1738 11.1329 19.211C11.9452 18.2483 13.0124 17.5361 14.2111 17.1571C18.4096 15.8086 22.6392 14.56 26.8965 13.4122Z" fill="black"/>
  <path fill-rule="evenodd" clip-rule="evenodd" d="M52.4451 37.0196C52.6582 37.233 52.8273 37.4865 52.9426 37.7656C53.058 38.0447 53.1174 38.344 53.1174 38.6461C53.1174 38.9483 53.058 39.2476 52.9426 39.5267C52.8273 39.8058 52.6582 40.0593 52.4451 40.2727L38.7163 54.0573C38.5038 54.2713 38.2513 54.441 37.9733 54.5569C37.6953 54.6727 37.3973 54.7323 37.0963 54.7323C36.7954 54.7323 36.4974 54.6727 36.2194 54.5569C35.9414 54.441 35.6889 54.2713 35.4763 54.0573L28.6119 47.165C28.3992 46.9514 28.2304 46.6978 28.1153 46.4188C28.0002 46.1397 27.9409 45.8405 27.9409 45.5385C27.9409 45.2364 28.0002 44.9372 28.1153 44.6582C28.2304 44.3791 28.3992 44.1255 28.6119 43.9119C28.8247 43.6983 29.0772 43.5288 29.3552 43.4132C29.6332 43.2976 29.9311 43.2381 30.2319 43.2381C30.5328 43.2381 30.8307 43.2976 31.1087 43.4132C31.3866 43.5288 31.6392 43.6983 31.8519 43.9119L37.0963 49.1822L49.2051 37.0196C49.4177 36.8056 49.6702 36.6359 49.9482 36.52C50.2262 36.4042 50.5242 36.3446 50.8251 36.3446C51.1261 36.3446 51.4241 36.4042 51.7021 36.52C51.9801 36.6359 52.2326 36.8056 52.4451 37.0196Z" fill="black"/>
</svg>
