<svg width="118" height="119" viewBox="0 0 118 119" fill="none" xmlns="http://www.w3.org/2000/svg">
<path d="M100.973 67.8217C98.94 80.7164 89.3092 91.6409 78.6613 95.3087C67.9983 98.9614 55.6184 97.1448 41.7739 87.6431C27.9294 78.1414 24.3388 83.7189 15.3764 73.3089C6.41405 62.8989 9.26535 52.2701 17.6069 41.2809C25.9484 30.2918 37.117 23.0044 49.9816 20.941C62.8462 18.8775 77.4068 22.038 87.4395 31.0503C97.4873 40.0776 103.021 54.9124 100.973 67.8217Z" fill="#02CE9D" fill-opacity="0.3"/>
<path d="M95.9705 39.5385V53.1538C95.9705 54.4303 95.5313 55.5058 94.6529 56.3804C93.7746 57.255 92.6944 57.6923 91.4124 57.6923H86.8544V91.7308C86.8544 92.3454 86.6289 92.8772 86.1778 93.3263C85.7268 93.7754 85.1926 94 84.5754 94H80.0173C79.4001 94 78.8659 93.7754 78.4149 93.3263C77.9638 92.8772 77.7383 92.3454 77.7383 91.7308V75.8462H41.2739V91.7308C41.2739 92.3454 41.0484 92.8772 40.5973 93.3263C40.1463 93.7754 39.6121 94 38.9949 94H34.4369C33.8196 94 33.2855 93.7754 32.8344 93.3263C32.3834 92.8772 32.1578 92.3454 32.1578 91.7308V57.6923H27.5998C26.3178 57.6923 25.2377 57.255 24.3593 56.3804C23.4809 55.5058 23.0417 54.4303 23.0417 53.1538V39.5385C23.0417 38.262 23.4809 37.1865 24.3593 36.3119C25.2377 35.4373 26.3178 35 27.5998 35H91.4124C92.6944 35 93.7746 35.4373 94.6529 36.3119C95.5313 37.1865 95.9705 38.262 95.9705 39.5385ZM41.2739 71.3077H77.7383V57.6923H41.2739V71.3077ZM27.5998 39.5385V44.0769L32.1578 39.5385H27.5998ZM27.5998 53.1538H36.7159L50.39 39.5385H41.2739L27.5998 53.1538ZM59.5061 39.5385L45.832 53.1538H54.9481L68.6222 39.5385H59.5061ZM77.7383 39.5385L64.0642 53.1538H73.1803L86.8544 39.5385H77.7383ZM91.4124 44.0769L82.2964 53.1538H91.4124V44.0769Z" fill="black"/>
</svg>