<svg width="40" height="50" fill="none" xmlns="http://www.w3.org/2000/svg"><path d="M33.388 0H9.286c-2.47 0-4.49 2.06-4.502 4.593h-.27C2.03 4.593 0 6.663 0 9.22v36.153C0 47.918 2.02 50 4.513 50h26.2c2.483 0 4.492-2.06 4.503-4.593h.27c2.483 0 4.514-2.07 4.514-4.627V6.768C40 3.03 37.032 0 33.388 0zm-1.219 45.36c0 .822-.654 1.493-1.455 1.493h-26.2c-.802 0-1.456-.67-1.456-1.492V9.209c0-.822.654-1.493 1.455-1.493h20.469v5.981c0 .868.688 1.562 1.523 1.562h5.653v30.102h.011zm-4.13-33.224v-2.14l2.031 2.14h-2.03zm8.903 28.632c0 .822-.654 1.492-1.455 1.492h-.271V13.698c0-.034-.011-.057-.023-.092a1.517 1.517 0 00-.079-.394.657.657 0 00-.045-.138 1.469 1.469 0 00-.293-.452L27.588 5.08a1.515 1.515 0 00-.451-.313c-.045-.023-.09-.034-.147-.058a1.268 1.268 0 00-.406-.08c-.034 0-.056-.024-.09-.024H7.842c.023-.81.654-1.457 1.456-1.457h24.101c1.963 0 3.554 1.63 3.554 3.644v33.977h-.01z" fill="#000"/><path d="M18.064 43.683c-3.881 0-7.04-3.239-7.04-7.218V17.503c0-2.73 2.166-4.951 4.829-4.951s4.83 2.221 4.83 4.951v15.919c0 1.47-1.174 2.672-2.607 2.672-1.433 0-2.607-1.203-2.607-2.672V19.019c0-.636.508-1.157 1.129-1.157.62 0 1.128.52 1.128 1.157v14.403c0 .197.158.359.35.359.191 0 .35-.162.35-.359V17.503c0-1.446-1.151-2.637-2.573-2.637-1.41 0-2.573 1.18-2.573 2.637v18.962c0 2.707 2.144 4.905 4.784 4.905 2.64 0 4.785-2.198 4.785-4.905V19.018c0-.636.507-1.157 1.128-1.157.62 0 1.128.52 1.128 1.157v17.434c0 3.991-3.16 7.23-7.04 7.23z" fill="#89DDEF"/></svg>
