<svg width="17" height="30" viewBox="0 0 17 30" fill="none" xmlns="http://www.w3.org/2000/svg">
<path d="M16.5 21.75C16.5 26.31 12.8025 30 8.25 30C3.6975 30 -1.61295e-07 26.31 -3.60619e-07 21.75L-1.04907e-06 6C-1.19398e-06 2.685 2.685 -1.17365e-07 6 -2.62268e-07C9.315 -4.07172e-07 12 2.685 12 6L12 18.75C12 20.82 10.32 22.5 8.25 22.5C6.18 22.5 4.5 20.82 4.5 18.75L4.5 7.5L6.75 7.5L6.75 18.75C6.75 19.575 7.4175 20.25 8.25 20.25C9.0825 20.25 9.75 19.575 9.75 18.75L9.75 6C9.75 3.93 8.07 2.25 6 2.25C3.93 2.25 2.25 3.93 2.25 6L2.25 21.75C2.25 25.065 4.935 27.75 8.25 27.75C11.565 27.75 14.25 25.065 14.25 21.75L14.25 7.5L16.5 7.5L16.5 21.75Z" fill="black"/>
</svg>
