<svg width="31" height="35" viewBox="0 0 31 35" fill="none" xmlns="http://www.w3.org/2000/svg">
<path fill-rule="evenodd" clip-rule="evenodd" d="M2 18C0.89543 18 4.82823e-08 17.1046 0 16C-3.83234e-07 7.23262 6.87165 3.77157e-07 15.5 0C24.1283 -3.77157e-07 31 7.23262 31 16C31 17.1046 30.1046 18 29 18C27.8954 18 27 17.1046 27 16C27 9.3034 21.7833 4 15.5 4C9.21666 4 4 9.3034 4 16C4 17.1046 3.10457 18 2 18Z" fill="#02CEAA"/>
<path d="M0 15.478H2.3587C4.77794 15.478 6.73913 17.4392 6.73913 19.8585C6.73913 22.2777 4.77794 24.2389 2.3587 24.2389H0.612648C0.274292 24.2389 0 23.9646 0 23.6262V15.478Z" fill="#02CEAA"/>
<path d="M31 23.627C31 23.9654 30.7257 24.2397 30.3874 24.2397H28.6413C26.2221 24.2397 24.2609 22.2785 24.2609 19.8592C24.2609 17.44 26.2221 15.4788 28.6413 15.4788H30.3874C30.7257 15.4788 31 15.7531 31 16.0915V23.627Z" fill="#02CEAA"/>
<path fill-rule="evenodd" clip-rule="evenodd" d="M27.9671 18.3583C28.7955 18.3583 29.4671 19.0299 29.4671 19.8583V22.3257C29.4671 28.677 24.3184 33.8257 17.9671 33.8257H14.1519C13.3235 33.8257 12.6519 33.1541 12.6519 32.3257C12.6519 31.4973 13.3235 30.8257 14.1519 30.8257H17.9671C22.6615 30.8257 26.4671 27.0201 26.4671 22.3257V19.8583C26.4671 19.0299 27.1387 18.3583 27.9671 18.3583Z" fill="#02CEAA"/>
<path d="M19 31C19 33.2091 17.2091 35 15 35C12.7909 35 11 33.2091 11 31C11 28.7909 12.7909 27 15 27C17.2091 27 19 28.7909 19 31Z" fill="#02CEAA"/>
</svg>
