<svg width="21" height="18" viewBox="0 0 21 18" fill="none" xmlns="http://www.w3.org/2000/svg">
<mask id="mask0_11310_7903" style="mask-type:luminance" maskUnits="userSpaceOnUse" x="0" y="-1" width="21" height="19">
<path d="M18.0961 1.99988H3.32085C3.10315 1.99988 2.89436 2.08636 2.74042 2.2403C2.58648 2.39424 2.5 2.60302 2.5 2.82073V14.3126C2.5 14.5303 2.58648 14.7391 2.74042 14.8931C2.89436 15.047 3.10315 15.1335 3.32085 15.1335H18.0961C18.3138 15.1335 18.5226 15.047 18.6766 14.8931C18.8305 14.7391 18.917 14.5303 18.917 14.3126V2.82073C18.917 2.60302 18.8305 2.39424 18.6766 2.2403C18.5226 2.08636 18.3138 1.99988 18.0961 1.99988Z" fill="white" stroke="white" stroke-width="4" stroke-linejoin="round"/>
<path fill-rule="evenodd" clip-rule="evenodd" d="M13.8688 4.23254C13.2116 4.23254 12.6788 4.76535 12.6788 5.42261V7.90191C12.6788 8.55916 13.2116 9.09197 13.8688 9.09197H16.3481C17.0054 9.09197 17.5382 8.55916 17.5382 7.90191V5.42261C17.5382 4.76535 17.0054 4.23254 16.3481 4.23254H13.8688Z" fill="black"/>
<path fill-rule="evenodd" clip-rule="evenodd" d="M4.79865 5.09936C4.79865 4.62063 5.20185 4.23254 5.69923 4.23254H8.401C8.89838 4.23254 9.30159 4.62063 9.30159 5.09936C9.30159 5.57809 8.89838 5.96618 8.401 5.96618H5.69923C5.20185 5.96618 4.79865 5.57809 4.79865 5.09936ZM4.79865 8.56663C4.79865 8.0879 5.20185 7.69981 5.69923 7.69981H8.401C8.89838 7.69981 9.30159 8.0879 9.30159 8.56663C9.30159 9.04536 8.89838 9.43345 8.401 9.43345H5.69923C5.20185 9.43345 4.79865 9.04536 4.79865 8.56663ZM4.79865 12.0339C4.79865 11.5552 5.20185 11.1671 5.69923 11.1671H16.5063C17.0037 11.1671 17.4069 11.5552 17.4069 12.0339C17.4069 12.5126 17.0037 12.9007 16.5063 12.9007H5.69923C5.20185 12.9007 4.79865 12.5126 4.79865 12.0339Z" fill="black"/>
</mask>
<g mask="url(#mask0_11310_7903)">
<path d="M0.858582 -1.28345H20.559V18.4169H0.858582V-1.28345Z" fill="black"/>
</g>
</svg>
