<svg width="114" height="91" viewBox="0 0 114 91" fill="none" xmlns="http://www.w3.org/2000/svg">
<path d="M15.0759 70.18C16.9959 70.18 18.2409 69.265 19.0209 67.675L17.1609 66.595C16.8459 67.45 16.2009 68.155 15.0759 68.155C13.7409 68.155 12.8559 67.255 12.8559 65.605V63.925C12.8559 62.275 13.7409 61.375 15.0759 61.375C16.2009 61.375 16.7559 61.96 17.0259 62.83L18.9909 61.81C18.2259 60.13 16.9959 59.35 15.0759 59.35C12.2559 59.35 10.4409 61.3 10.4409 64.84C10.4409 68.38 12.2559 70.18 15.0759 70.18ZM29.7414 70V67.975H24.8964V65.71H29.0514V63.7H24.8964V61.555H29.7414V59.53H22.6164V70H29.7414ZM36.0078 66.16H37.6428L39.4728 70H42.0078L39.9528 65.89C41.2278 65.41 41.8578 64.285 41.8578 62.875C41.8578 60.88 40.6278 59.53 38.6928 59.53H33.7278V70H36.0078V66.16ZM36.0078 64.24V61.51H38.4078C39.0828 61.51 39.5028 61.87 39.5028 62.545V63.205C39.5028 63.88 39.0828 64.24 38.4078 64.24H36.0078ZM52.669 61.555V59.53H44.719V61.555H47.554V70H49.834V61.555H52.669ZM60.7451 70V68.185H59.3951V61.345H60.7451V59.53H55.7651V61.345H57.1151V68.185H55.7651V70H60.7451ZM66.9247 70V65.71H70.8997V63.7H66.9247V61.555H71.5897V59.53H64.6447V70H66.9247ZM79.9942 70V68.185H78.6442V61.345H79.9942V59.53H75.0142V61.345H76.3642V68.185H75.0142V70H79.9942ZM91.0188 70V67.975H86.1738V65.71H90.3288V63.7H86.1738V61.555H91.0188V59.53H83.8938V70H91.0188ZM95.0051 70H98.9501C101.725 70 103.555 68.245 103.555 64.765C103.555 61.285 101.725 59.53 98.9501 59.53H95.0051V70ZM97.2851 67.975V61.555H98.9501C100.3 61.555 101.14 62.29 101.14 63.955V65.575C101.14 67.24 100.3 67.975 98.9501 67.975H97.2851ZM6.54955 88L9.95455 77.53H7.71955L6.15955 82.555L5.36455 85.84H5.31955L4.49455 82.555L2.93455 77.53H0.624551L3.99955 88H6.54955ZM17.0567 88.18C19.8317 88.18 21.6617 86.32 21.6617 82.765C21.6617 79.21 19.8317 77.35 17.0567 77.35C14.2817 77.35 12.4517 79.21 12.4517 82.765C12.4517 86.32 14.2817 88.18 17.0567 88.18ZM17.0567 86.155C15.6917 86.155 14.8667 85.21 14.8667 83.545V81.985C14.8667 80.32 15.6917 79.375 17.0567 79.375C18.4217 79.375 19.2467 80.32 19.2467 81.985V83.545C19.2467 85.21 18.4217 86.155 17.0567 86.155ZM31.8347 88V85.975H27.8447V77.53H25.5647V88H31.8347ZM34.9607 77.53V83.71C34.9607 86.8 36.0707 88.18 39.0707 88.18C42.0707 88.18 43.1807 86.8 43.1807 83.71V77.53H40.9607V83.95C40.9607 85.42 40.4207 86.155 39.0707 86.155C37.7207 86.155 37.1807 85.42 37.1807 83.95V77.53H34.9607ZM53.4958 88H55.9858V77.53H53.8408V84.58H53.7958L52.7908 82.48L49.9258 77.53H47.4358V88H49.5808V80.95H49.6258L50.6308 83.05L53.4958 88ZM67.4903 79.555V77.53H59.5403V79.555H62.3753V88H64.6553V79.555H67.4903ZM78.175 88V85.975H73.33V83.71H77.485V81.7H73.33V79.555H78.175V77.53H71.05V88H78.175ZM89.2863 88V85.975H84.4413V83.71H88.5963V81.7H84.4413V79.555H89.2863V77.53H82.1613V88H89.2863ZM95.5527 84.16H97.1877L99.0177 88H101.553L99.4977 83.89C100.773 83.41 101.403 82.285 101.403 80.875C101.403 78.88 100.173 77.53 98.2377 77.53H93.2727V88H95.5527V84.16ZM95.5527 82.24V79.51H97.9527C98.6277 79.51 99.0477 79.87 99.0477 80.545V81.205C99.0477 81.88 98.6277 82.24 97.9527 82.24H95.5527ZM108.77 88.18C111.38 88.18 112.85 86.785 112.85 84.775C112.85 82.975 111.815 82.015 109.67 81.67L108.635 81.505C107.765 81.37 107.39 81.1 107.39 80.38C107.39 79.75 107.885 79.36 108.905 79.36C109.985 79.36 110.66 79.765 111.155 80.35L112.67 78.82C111.815 77.875 110.615 77.35 109.04 77.35C106.58 77.35 105.11 78.655 105.11 80.53C105.11 82.285 106.115 83.365 108.32 83.65L109.355 83.785C110.33 83.92 110.57 84.34 110.57 84.91C110.57 85.675 110.03 86.17 108.92 86.17C107.9 86.17 107 85.765 106.295 84.97L104.795 86.485C105.695 87.475 106.94 88.18 108.77 88.18Z" fill="black"/>
<path d="M28.449 48V41.345H23.499V16.265H28.449V9.61H10.189V16.265H15.139V41.345H10.189V48H28.449ZM45.7742 33.92H51.7692L58.4792 48H67.7742L60.2392 32.93C64.9142 31.17 67.2242 27.045 67.2242 21.875C67.2242 14.56 62.7142 9.61 55.6192 9.61H37.4142V48H45.7742V33.92ZM45.7742 26.88V16.87H54.5742C57.0492 16.87 58.5892 18.19 58.5892 20.665V23.085C58.5892 25.56 57.0492 26.88 54.5742 26.88H45.7742ZM88.9047 48.66C98.4747 48.66 103.865 43.545 103.865 36.175C103.865 29.575 100.07 26.055 92.2047 24.79L88.4097 24.185C85.2197 23.69 83.8447 22.7 83.8447 20.06C83.8447 17.75 85.6597 16.32 89.3997 16.32C93.3597 16.32 95.8347 17.805 97.6497 19.95L103.205 14.34C100.07 10.875 95.6697 8.95 89.8947 8.95C80.8747 8.95 75.4847 13.735 75.4847 20.61C75.4847 27.045 79.1697 31.005 87.2547 32.05L91.0497 32.545C94.6247 33.04 95.5047 34.58 95.5047 36.67C95.5047 39.475 93.5247 41.29 89.4547 41.29C85.7147 41.29 82.4147 39.805 79.8297 36.89L74.3297 42.445C77.6297 46.075 82.1947 48.66 88.9047 48.66Z" fill="black"/>
</svg>
