<svg width="60" height="57" viewBox="0 0 60 57" fill="none" xmlns="http://www.w3.org/2000/svg">
<path d="M33.7736 2.97716C36.352 -0.743692 42.2514 1.14626 42.1234 5.66022C42.038 8.84108 45.2054 11.1107 48.2277 10.0476C52.5307 8.53734 56.1677 13.49 53.3844 17.0675C51.4208 19.5902 52.6331 23.2689 55.7152 24.1632C60.0949 25.4373 60.0949 31.5627 55.7152 32.8368C52.6331 33.7311 51.4208 37.4182 53.3844 39.9325C56.1677 43.51 52.5221 48.4627 48.2277 46.9524C45.1969 45.8893 42.0294 48.1589 42.1234 51.3398C42.2514 55.8453 36.352 57.7437 33.7736 54.0228C31.9551 51.3988 28.0449 51.3988 26.2264 54.0228C23.648 57.7437 17.7486 55.8537 17.8766 51.3398C17.962 48.1589 14.7946 45.8893 11.7723 46.9524C7.46935 48.4627 3.83234 43.51 6.61559 39.9325C8.57923 37.4098 7.3669 33.7311 4.28483 32.8368C-0.0949438 31.5627 -0.0949438 25.4373 4.28483 24.1632C7.3669 23.2689 8.57923 19.5818 6.61559 17.0675C3.83234 13.49 7.47788 8.53734 11.7723 10.0476C14.8031 11.1107 17.9706 8.84108 17.8766 5.66022C17.7486 1.1547 23.648 -0.743692 26.2264 2.97716C28.0449 5.60116 31.9551 5.60116 33.7736 2.97716Z" fill="#FFD29C" stroke="black" stroke-width="2" stroke-miterlimit="10" stroke-linecap="round" stroke-linejoin="round"/>
<path d="M29.8214 14C26.2202 14 23.2738 17.2143 23.2738 21.1429V24.7143H22C20.8954 24.7143 20 25.6097 20 26.7143V37C20 38.1046 20.8954 39 22 39H37.6429C38.7474 39 39.6429 38.1046 39.6429 37V26.7143C39.6429 25.6097 38.7474 24.7143 37.6429 24.7143H36.3691V21.1429C36.3691 17.2143 33.4226 14 29.8214 14ZM29.8214 17.5714C31.6548 17.5714 33.0952 19.1429 33.0952 21.1429V24.7143H26.5476V21.1429C26.5476 19.1429 27.9881 17.5714 29.8214 17.5714Z" fill="black"/>
</svg>
