<svg width="201" height="168" viewBox="0 0 201 168" fill="none" xmlns="http://www.w3.org/2000/svg">
<path d="M175.032 32.9355L112.591 20.9586L92.8038 124.205L155.245 136.182L175.032 32.9355Z" fill="white" stroke="#231F20" stroke-width="2.5541" stroke-miterlimit="10" stroke-linecap="round" stroke-linejoin="round"/>
<path d="M138.001 61.811C128.975 60.0792 120.23 66.0155 118.499 75.0447C117.675 79.3475 118.544 83.7033 120.948 87.3558C120.985 87.4163 121.031 87.4843 121.076 87.5448C123.571 91.2276 127.358 93.7231 131.727 94.5625C136.096 95.4019 140.533 94.4869 144.222 91.9838C147.903 89.4883 150.398 85.6997 151.237 81.3288C152.96 72.2921 147.026 63.5427 138.001 61.811ZM132.105 92.5737C128.265 91.8401 124.939 89.6471 122.739 86.4105C120.547 83.1437 119.738 79.2719 120.479 75.4303C121.998 67.4977 129.693 62.2798 137.623 63.7998C141.659 64.5711 144.985 66.9456 147.087 70.1293C149.113 73.2071 149.989 77.0486 149.249 80.9431C148.515 84.7847 146.323 88.112 143.088 90.3126C139.845 92.5056 135.945 93.3072 132.105 92.5737Z" fill="#231F20"/>
<path d="M151.35 129.227L167.171 46.7094C167.186 46.6489 167.201 46.596 167.201 46.5355L168.842 37.9827C168.947 37.4307 168.592 36.9013 168.04 36.803L117.675 27.1311C117.41 27.0782 117.138 27.1386 116.919 27.2899C116.699 27.4411 116.541 27.6756 116.495 27.9402L99.0038 119.192C98.9509 119.449 99.0038 119.722 99.155 119.941L99.1625 119.949C99.3137 120.168 99.548 120.327 99.8126 120.372L150.178 130.036C150.715 130.135 151.244 129.772 151.35 129.227ZM166.665 38.5877L165.281 45.8095C164.163 46.4447 162.878 46.664 161.6 46.422C160.187 46.1498 158.962 45.3482 158.153 44.1534C158.138 44.1307 158.123 44.1156 158.115 44.0929C156.664 41.8848 157.034 38.9053 158.992 37.1282C159 37.1206 159 37.1206 159.007 37.1131L166.665 38.5877ZM118.287 29.309L126.027 30.7911C127.358 33.2186 126.64 36.2586 124.327 37.8315C123.132 38.6406 121.696 38.9355 120.282 38.6633C118.907 38.3986 117.712 37.6273 116.904 36.4854L118.287 29.309ZM101.173 118.572L102.564 111.335C102.647 111.305 102.73 111.282 102.814 111.229C104.008 110.42 105.437 110.125 106.858 110.398C108.271 110.67 109.496 111.471 110.305 112.666C111.106 113.861 111.408 115.29 111.136 116.712C110.871 118.081 110.108 119.268 108.982 120.07L101.173 118.572ZM111.438 120.538C112.285 119.563 112.867 118.391 113.116 117.09C113.487 115.177 113.094 113.241 112.028 111.615C112.013 111.585 111.99 111.562 111.975 111.532C110.864 109.891 109.178 108.787 107.236 108.409C105.807 108.136 104.363 108.288 103.048 108.825L116.442 38.9507C118.914 41.1059 122.626 41.431 125.468 39.5027C128.212 37.6349 129.323 34.2773 128.408 31.2449L156.702 36.6745C154.865 39.1322 154.699 42.5729 156.437 45.2045C156.452 45.2348 156.475 45.2575 156.49 45.2877C157.601 46.9287 159.287 48.0328 161.23 48.4109C162.447 48.6453 163.679 48.5697 164.828 48.2143L151.32 118.663C148.848 116.515 145.144 116.198 142.309 118.118C139.747 119.858 138.59 122.966 139.24 125.87L111.438 120.538ZM141.478 126.301C140.518 123.964 141.312 121.234 143.436 119.79C145.862 118.149 149.15 118.754 150.844 121.121L149.551 127.851L141.478 126.301Z" fill="#231F20"/>
<path d="M139.66 24.9583L76.5262 32.4637L88.9263 136.856L152.06 129.351L139.66 24.9583Z" fill="white" stroke="#231F20" stroke-width="2.5541" stroke-miterlimit="10" stroke-linecap="round" stroke-linejoin="round"/>
<path d="M113.101 63.6939C103.978 64.7753 97.4315 73.0861 98.52 82.2135C99.034 86.5618 101.188 90.4562 104.582 93.2013C104.643 93.2467 104.703 93.2996 104.756 93.345C108.256 96.0976 112.61 97.3302 117.032 96.8009C121.454 96.2791 125.4 94.0558 128.159 90.5621C130.91 87.0609 132.143 82.7051 131.613 78.2812C130.532 69.1538 122.225 62.605 113.101 63.6939ZM116.798 94.7969C112.912 95.2582 109.08 94.1768 106.011 91.7569C102.934 89.3068 100.992 85.8585 100.531 81.9791C99.5783 73.9557 105.331 66.6583 113.343 65.7054C117.425 65.2215 121.31 66.4692 124.281 68.874C127.146 71.1955 129.142 74.5834 129.61 78.5308C130.071 82.4177 128.99 86.2517 126.572 89.3219C124.153 92.3846 120.683 94.3356 116.798 94.7969Z" fill="#231F20"/>
<path d="M146.24 123.896L136.33 40.4631C136.33 40.4026 136.323 40.3421 136.308 40.2892L135.28 31.6381C135.211 31.0861 134.713 30.6853 134.153 30.7533L83.2281 36.803C82.9635 36.8333 82.7216 36.9694 82.5553 37.1811C82.3966 37.3929 82.321 37.6575 82.3512 37.9222L93.3043 130.188C93.3345 130.452 93.4706 130.687 93.6747 130.853L93.6822 130.861C93.8939 131.027 94.1584 131.103 94.4306 131.072L145.356 125.023C145.908 124.955 146.301 124.456 146.24 123.896ZM133.397 32.8783L134.267 40.1833C133.397 41.1285 132.233 41.726 130.948 41.8848C129.52 42.0587 128.106 41.6579 126.98 40.7656C126.965 40.7504 126.942 40.7353 126.927 40.7202C124.871 39.0565 124.327 36.1073 125.657 33.8235C125.657 33.816 125.664 33.8084 125.664 33.8084L133.397 32.8783ZM84.4753 38.686L92.3065 37.7558C94.3096 39.6691 94.5515 42.7771 92.8129 44.9777C91.921 46.112 90.6435 46.8228 89.2148 46.9968C87.824 47.1631 86.4558 46.785 85.3371 45.9456L84.4753 38.686ZM95.194 128.947L94.3247 121.627C94.3928 121.574 94.4684 121.529 94.5288 121.453C95.4208 120.319 96.6983 119.608 98.1269 119.434C99.5556 119.26 100.969 119.661 102.095 120.553C103.222 121.446 103.94 122.724 104.114 124.153C104.28 125.537 103.91 126.898 103.078 128.01L95.194 128.947ZM105.573 127.715C106.079 126.528 106.283 125.234 106.124 123.919C105.898 121.983 104.938 120.251 103.433 119.033C103.411 119.011 103.38 118.988 103.35 118.973C101.793 117.748 99.8579 117.203 97.8926 117.438C96.4488 117.612 95.1184 118.187 94.0299 119.102L85.6394 48.4562C88.6479 49.7645 92.2838 48.9478 94.4079 46.2481C96.4639 43.6392 96.4942 40.1001 94.7103 37.4836L123.321 34.0882C122.308 36.9845 123.2 40.3118 125.649 42.3007C125.672 42.3234 125.702 42.3385 125.725 42.3612C127.282 43.5862 129.217 44.1307 131.183 43.8963C132.415 43.7526 133.564 43.3064 134.554 42.6183L143.012 113.853C140.004 112.56 136.376 113.369 134.259 116.069C132.339 118.504 132.18 121.816 133.685 124.387L105.573 127.715ZM135.945 124.108C134.32 122.172 134.252 119.328 135.839 117.309C137.653 115.01 140.971 114.587 143.3 116.334L144.108 123.14L135.945 124.108Z" fill="#231F20"/>
<path d="M98.4328 30.2183L42.3625 60.2016L91.8998 152.915L147.97 122.931L98.4328 30.2183Z" fill="white" stroke="#231F20" stroke-width="2.5541" stroke-miterlimit="10" stroke-linecap="round" stroke-linejoin="round"/>
<path d="M87.7937 75.9521C79.6905 80.2852 76.6291 90.4109 80.9604 98.5175C83.024 102.382 86.4407 105.217 90.6057 106.541C90.6737 106.564 90.7493 106.586 90.8249 106.609C95.0882 107.902 99.5934 107.456 103.517 105.361C107.44 103.259 110.312 99.7576 111.605 95.5002C112.897 91.2427 112.451 86.7281 110.357 82.8034C106.019 74.6892 95.897 71.619 87.7937 75.9521ZM102.557 103.577C99.1096 105.422 95.1487 105.815 91.3994 104.673C87.6426 103.516 84.5812 101.013 82.7368 97.5571C78.927 90.4336 81.6256 81.5405 88.7462 77.7292C92.367 75.7933 96.4488 75.5362 100.085 76.6932C103.6 77.8124 106.691 80.2398 108.566 83.7411C110.41 87.1894 110.803 91.152 109.662 94.9028C108.536 98.6536 106.011 101.731 102.557 103.577Z" fill="#231F20"/>
<path d="M140.571 119.956L100.977 45.8549C100.954 45.8019 100.924 45.749 100.894 45.6961L96.789 38.013C96.5244 37.5214 95.9121 37.3324 95.4208 37.597L50.1876 61.7883C49.9533 61.9168 49.7719 62.1285 49.6963 62.3857C49.6207 62.6428 49.6434 62.9226 49.7719 63.157L93.5613 145.093C93.6822 145.327 93.8939 145.501 94.1433 145.577C94.1509 145.577 94.1509 145.577 94.1584 145.584C94.4155 145.66 94.6951 145.637 94.9295 145.508L140.155 121.317C140.646 121.06 140.835 120.448 140.571 119.956ZM95.4813 39.8657L98.9433 46.354C98.4747 47.5488 97.6129 48.5319 96.4715 49.1444C95.2016 49.825 93.7427 49.9687 92.367 49.5527C92.3443 49.5452 92.3216 49.5376 92.2989 49.5301C89.7818 48.7285 88.1944 46.18 88.6026 43.5635C88.6026 43.556 88.6026 43.5484 88.6026 43.5409L95.4813 39.8657ZM52.032 63.0965L58.9863 59.3759C61.5413 60.4271 62.9019 63.2402 62.0931 65.9172C61.6773 67.2935 60.7476 68.4278 59.4776 69.1084C58.2455 69.7663 56.832 69.9175 55.4865 69.5394L52.032 63.0965ZM94.869 143.255L91.3918 136.752C91.4372 136.676 91.4901 136.608 91.5204 136.517C91.9361 135.141 92.8659 134.006 94.1358 133.326C95.4057 132.645 96.8646 132.502 98.2403 132.918C99.6161 133.341 100.75 134.264 101.43 135.534C102.088 136.759 102.239 138.166 101.869 139.497L94.869 143.255ZM104.083 138.324C104.129 137.039 103.842 135.753 103.214 134.589C102.3 132.872 100.773 131.609 98.9282 131.019C98.898 131.012 98.8602 130.997 98.8299 130.989C96.9326 130.414 94.9295 130.611 93.1833 131.549C91.8983 132.237 90.8703 133.258 90.19 134.506L56.6657 71.7627C59.9463 71.8837 63.0304 69.7965 64.0282 66.5146C64.9882 63.3385 63.7334 60.0263 61.118 58.2416L86.5238 44.6525C86.6372 47.7227 88.6782 50.498 91.6866 51.4508C91.7169 51.4584 91.7471 51.4735 91.7774 51.4811C93.6747 52.0558 95.6778 51.8592 97.4239 50.9215C98.52 50.3392 99.4271 49.5074 100.1 48.5016L133.904 111.766C130.631 111.653 127.547 113.732 126.556 117.014C125.657 119.986 126.715 123.125 129.051 124.977L104.083 138.324ZM131.054 123.896C128.839 122.686 127.736 120.062 128.484 117.604C129.331 114.799 132.271 113.196 135.075 113.974L138.303 120.017L131.054 123.896Z" fill="#231F20"/>
<path d="M67.3269 47.1234L22.9678 92.69L98.2511 166.038L142.61 120.472L67.3269 47.1234Z" fill="white" stroke="#231F20" stroke-width="2.5541" stroke-miterlimit="10" stroke-linecap="round" stroke-linejoin="round"/>
<path d="M71.0354 93.9424C64.6253 100.529 64.769 111.101 71.3453 117.521C74.4823 120.576 78.602 122.247 82.9635 122.247C83.0391 122.247 83.1147 122.247 83.1903 122.247C87.6426 122.187 91.8 120.402 94.9068 117.211C98.0136 114.02 99.6917 109.808 99.6312 105.361C99.5707 100.907 97.7868 96.7479 94.5969 93.6399C88.0205 87.2121 77.4455 87.3558 71.0354 93.9424ZM93.463 115.789C90.7342 118.595 87.0756 120.168 83.1676 120.221C79.2369 120.259 75.5557 118.799 72.7589 116.069C66.9762 110.435 66.8553 101.142 72.4867 95.3489C75.3516 92.4073 79.1613 90.9251 82.9787 90.9251C86.6675 90.9251 90.3487 92.3014 93.1909 95.0767C95.9953 97.8066 97.5676 101.467 97.6205 105.376C97.6658 109.293 96.1918 112.991 93.463 115.789Z" fill="#231F20"/>
<path d="M134.652 119.888L74.4823 61.2665C74.4445 61.2211 74.3992 61.1833 74.3538 61.1455L68.1176 55.0655C67.717 54.6799 67.082 54.6874 66.689 55.0882L30.9121 91.8401C30.7231 92.0292 30.6248 92.2938 30.6248 92.5585C30.6248 92.8232 30.7382 93.0803 30.9272 93.2694L97.4617 158.092C97.6507 158.273 97.9002 158.379 98.1647 158.379C98.1723 158.379 98.1723 158.379 98.1798 158.379C98.4444 158.379 98.7014 158.266 98.8904 158.077L134.667 121.325C135.06 120.916 135.053 120.274 134.652 119.888ZM67.4297 57.2132L72.6984 62.3479C72.6152 63.6334 72.0937 64.8282 71.1866 65.7584C70.1812 66.7944 68.8357 67.3691 67.3995 67.3918C67.3768 67.3918 67.3541 67.3918 67.3315 67.3918C64.6934 67.3918 62.403 65.4408 62.0024 62.8243C62.0024 62.8167 61.9948 62.8092 61.9948 62.8016L67.4297 57.2132ZM33.0589 92.5207L38.5618 86.8718C41.3209 87.0987 43.4601 89.3673 43.4979 92.1653C43.5205 93.6097 42.9763 94.9708 41.9709 95.9993C40.9958 97.0051 39.6957 97.5722 38.2973 97.6251L33.0589 92.5207ZM98.1496 155.937L92.8734 150.794C92.8961 150.711 92.9263 150.62 92.9263 150.53C92.9037 149.093 93.4479 147.724 94.4533 146.696C95.4586 145.66 96.8041 145.085 98.2403 145.062C99.6765 145.047 101.045 145.584 102.073 146.59C103.071 147.558 103.637 148.851 103.69 150.235L98.1496 155.937ZM105.437 148.443C105.089 147.202 104.424 146.068 103.479 145.145C102.088 143.784 100.251 143.043 98.3083 143.043C98.2781 143.043 98.2403 143.043 98.2101 143.043C96.2296 143.073 94.3777 143.867 93.0019 145.282C91.989 146.325 91.3162 147.611 91.0441 149.01L40.0963 99.372C43.256 98.4872 45.569 95.5682 45.5237 92.135C45.4783 88.8153 43.2787 86.04 40.2475 85.1325L60.3469 64.4879C61.3825 67.3767 64.1642 69.4033 67.3239 69.4033C67.3541 69.4033 67.3919 69.4033 67.4222 69.4033C69.4026 69.3731 71.2546 68.5791 72.6379 67.1649C73.5072 66.2726 74.1195 65.2063 74.4521 64.0493L125.823 114.095C122.671 114.98 120.366 117.899 120.411 121.325C120.456 124.425 122.414 127.102 125.196 128.153L105.437 148.443ZM126.776 126.528C124.296 126.044 122.452 123.881 122.422 121.31C122.384 118.383 124.697 115.963 127.607 115.857L132.513 120.637L126.776 126.528Z" fill="#231F20"/>
<path d="M58 148.5L53.5 148.5L53.5 144C53.5 143.448 53.0522 143 52.5 143L51.5 143C50.9478 143 50.5 143.448 50.5 144L50.5 148.5L46 148.5C45.4478 148.5 45 148.948 45 149.5L45 150.5C45 151.052 45.4478 151.5 46 151.5L50.5 151.5L50.5 156C50.5 156.552 50.9478 157 51.5 157L52.5 157C53.0522 157 53.5 156.552 53.5 156L53.5 151.5L58 151.5C58.5522 151.5 59 151.052 59 150.5L59 149.5C59 148.948 58.5522 148.5 58 148.5Z" fill="#8E8EEF"/>
<path d="M41.0776 33.5787C41.0776 30.895 39.0713 30.1255 36.9009 29.6923L35.7505 29.4727C34.0493 29.1574 33.9181 28.6922 33.9181 28.0695C33.9181 27.2615 34.6905 26.7786 35.9844 26.7786C37.5166 26.7786 37.9092 27.5042 38.0721 28.0493L38.0877 28.0945C38.2804 28.5699 38.7282 28.8534 39.287 28.8534C39.4317 28.8534 39.5618 28.8326 39.659 28.814C40.2587 28.7015 40.6763 28.2515 40.6763 27.7185C40.6763 27.5863 40.651 27.4553 40.6 27.3279C40.2927 26.3963 39.4293 24.9302 37.0369 24.5955L37.0369 22.998C37.0369 21.6673 34.8262 21.6673 34.8262 22.998L34.8262 24.605C32.2563 24.9842 31.31 26.6323 31.31 28.069C31.31 30.6829 33.2408 31.4116 35.1269 31.7784L36.3713 32.0276C38.1434 32.3673 38.4558 32.803 38.4558 33.5922C38.4558 34.5566 37.5909 35.1315 36.141 35.1315C34.2588 35.1315 33.8751 34.3325 33.6185 33.4355C33.4685 32.9391 32.9926 32.6194 32.4058 32.6194C32.2778 32.6194 32.1752 32.6354 32.0513 32.6554L32.0141 32.6621C31.4072 32.7979 31 33.2485 31 33.7826C31 33.8841 31.0191 33.9705 31.0346 34.0402L31.0537 34.1201C31.3267 34.99 31.9293 36.8899 34.9351 37.3138L34.9351 38.9858C34.9351 39.6515 35.4906 40 36.0401 40C36.5897 40 37.1458 39.6515 37.1458 38.9858L37.1458 37.343C39.5325 37.0499 41.08 35.6124 41.08 33.579" fill="#02CEAA"/>
<path d="M188.286 78.9286L185.071 78.9286L185.071 75.7143C185.071 75.3199 184.752 75 184.357 75L183.643 75C183.248 75 182.929 75.3199 182.929 75.7143L182.929 78.9286L179.714 78.9286C179.32 78.9286 179 79.2484 179 79.6429L179 80.3571C179 80.7516 179.32 81.0714 179.714 81.0714L182.929 81.0714L182.929 84.2857C182.929 84.6801 183.248 85 183.643 85L184.357 85C184.752 85 185.071 84.6801 185.071 84.2857L185.071 81.0714L188.286 81.0714C188.68 81.0714 189 80.7516 189 80.3571L189 79.6429C189 79.2484 188.68 78.9286 188.286 78.9286Z" fill="#FFAB48"/>
<circle cx="195.5" cy="151.5" r="5.5" fill="#C6F9EC"/>
<circle cx="3.5" cy="130.5" r="3.5" fill="#FFAB48"/>
<circle cx="171.5" cy="3.5" r="3.5" fill="#8E8EEF"/>
<circle cx="62.5" cy="7.5" r="3.5" fill="#C6F9EC"/>
</svg>
