<svg width="273" height="255" viewBox="0 0 273 255" fill="none" xmlns="http://www.w3.org/2000/svg">
<path d="M213.532 192.578C193.658 217.201 160.451 228.645 133.953 223.659C107.441 218.623 87.6396 197.156 63.8222 173.67C39.9568 150.197 12.0888 124.754 12.7137 99.929C13.3737 75.0418 42.5744 50.7602 73.1917 37.645C103.809 24.5298 135.782 22.5447 164.92 33.5355C194.058 44.5263 220.362 68.493 230.183 99.341C240.017 130.239 233.453 167.942 213.532 192.578Z" fill="#02CE9D" fill-opacity="0.3"/>
<path d="M80.5811 61.9172V161.904H261.566V61.9172L80.5811 61.9172Z" fill="white" stroke="black" stroke-width="2" stroke-miterlimit="10" stroke-linecap="round" stroke-linejoin="round"/>
<path d="M83.856 65.1916V165.179H264.841V65.1916L83.856 65.1916Z" fill="white" stroke="black" stroke-width="2" stroke-miterlimit="10" stroke-linecap="round" stroke-linejoin="round"/>
<path d="M87.2095 68.5514V168.539H268.194V68.5514L87.2095 68.5514Z" fill="white" stroke="black" stroke-width="2" stroke-miterlimit="10" stroke-linecap="round" stroke-linejoin="round"/>
<path d="M90.4203 71.7577V171.745H271.405V71.7577L90.4203 71.7577Z" fill="white" stroke="black" stroke-width="2" stroke-miterlimit="10" stroke-linecap="round" stroke-linejoin="round"/>
<path d="M253.893 81.4318V162.079H107.914V81.4318H253.893Z" stroke="black" stroke-width="2" stroke-miterlimit="10" stroke-linecap="round" stroke-linejoin="round"/>
<path d="M90.4109 171.741L80.9998 162.331" stroke="black" stroke-width="2" stroke-miterlimit="10" stroke-linecap="round" stroke-linejoin="round"/>
<path d="M90.4109 71.7541L80.9871 62.3305" stroke="black" stroke-width="2" stroke-miterlimit="10" stroke-linecap="round" stroke-linejoin="round"/>
<path d="M271.411 71.7541L261.5 61.843" stroke="black" stroke-width="2" stroke-miterlimit="10" stroke-linecap="round" stroke-linejoin="round"/>
<path d="M158.073 71.766V171.753H206.15V71.766H158.073Z" fill="black" stroke="black" stroke-width="2" stroke-miterlimit="10" stroke-linecap="round" stroke-linejoin="round"/>
<path d="M198 62.3304L206.149 70.4192H158.072L149.922 62.3304H198Z" fill="black" stroke="black" stroke-width="2" stroke-miterlimit="10" stroke-linecap="round" stroke-linejoin="round"/>
<path d="M178.91 134.318C175.749 134.238 173.224 133.761 171.35 132.919V128.009C172.477 128.47 173.7 128.867 175.019 129.169C176.337 129.471 177.639 129.63 178.894 129.661V122.431L178.402 122.272C175.622 121.509 173.669 120.54 172.541 119.38C171.413 118.22 170.841 116.631 170.841 114.581C170.841 112.435 171.524 110.719 172.89 109.432C174.256 108.145 176.257 107.366 178.894 107.048V103.791H182.976V106.969C185.533 107.128 187.582 107.493 189.122 108.049V112.96C187.058 112.213 185.009 111.8 182.976 111.72V118.585C185.867 119.412 187.868 120.476 189.011 121.764C190.139 123.051 190.711 124.703 190.711 126.674C190.711 128.692 190.06 130.345 188.773 131.648C187.471 132.951 185.549 133.793 182.992 134.143V137.496H178.91V134.318ZM178.91 111.959C177.306 112.324 176.512 113.182 176.512 114.565C176.512 115.28 176.686 115.836 177.02 116.233C177.353 116.631 177.989 117.012 178.894 117.362V111.959H178.91ZM184.532 128.422C184.866 127.993 185.025 127.405 185.025 126.658C185.025 125.943 184.866 125.371 184.564 124.926C184.262 124.481 183.738 124.084 182.992 123.734V129.36C183.691 129.169 184.199 128.851 184.532 128.422Z" fill="white"/>
<path d="M122.145 82.7349C126.068 86.66 126.068 93.0323 122.145 96.9734C118.222 100.914 111.853 100.898 107.914 96.9734" stroke="black" stroke-width="2" stroke-miterlimit="10" stroke-linecap="round" stroke-linejoin="round"/>
<path d="M107.914 147.031C111.837 143.105 118.206 143.105 122.145 147.031C126.068 150.956 126.068 157.328 122.145 161.269" stroke="black" stroke-width="2" stroke-miterlimit="10" stroke-linecap="round" stroke-linejoin="round"/>
<path d="M239.424 161.253C235.501 157.328 235.501 150.956 239.424 147.015C243.347 143.09 249.716 143.09 253.655 147.015" stroke="black" stroke-width="2" stroke-miterlimit="10" stroke-linecap="round" stroke-linejoin="round"/>
<path d="M253.655 96.9734C249.732 100.898 243.363 100.898 239.424 96.9734C235.501 93.0482 235.501 86.6759 239.424 82.7349" stroke="black" stroke-width="2" stroke-miterlimit="10" stroke-linecap="round" stroke-linejoin="round"/>
</svg>
