<svg width="149" height="149" viewBox="0 0 149 149" fill="none" xmlns="http://www.w3.org/2000/svg">
<path d="M127.468 84.5945C124.901 100.873 112.743 114.664 99.3012 119.294C85.8403 123.905 70.2122 121.612 52.7351 109.617C35.258 97.6219 30.7252 104.663 19.4112 91.5215C8.09721 78.38 11.6967 64.9624 22.2269 51.0898C32.7571 37.2173 46.8562 28.0178 63.0963 25.4129C79.3364 22.808 97.7176 26.7978 110.383 38.1748C123.067 49.5707 130.053 68.298 127.468 84.5945Z" fill="#02CE9D" fill-opacity="0.3"/>
<path d="M52.3333 105.583C55.6667 97.0417 63.9583 91 73.6667 91C83.375 91 91.6667 97.0417 95 105.583H88.0417C85.125 100.625 79.8333 97.25 73.6667 97.25C67.5 97.25 62.1667 100.625 59.2917 105.583H52.3333Z" fill="black"/>
<path d="M59.083 78.5C62.5348 78.5 65.333 75.7018 65.333 72.25C65.333 68.7982 62.5348 66 59.083 66C55.6312 66 52.833 68.7982 52.833 72.25C52.833 75.7018 55.6312 78.5 59.083 78.5Z" fill="black"/>
<path d="M88.25 78.5C91.7018 78.5 94.5 75.7018 94.5 72.25C94.5 68.7982 91.7018 66 88.25 66C84.7982 66 82 68.7982 82 72.25C82 75.7018 84.7982 78.5 88.25 78.5Z" fill="black"/>
<path fill-rule="evenodd" clip-rule="evenodd" d="M32 82.6667C32 59.6667 50.625 41 73.625 41C96.6667 41 115.333 59.6667 115.333 82.6667C115.333 105.667 96.6667 124.333 73.625 124.333C50.625 124.333 32 105.667 32 82.6667ZM40.3333 82.6667C40.3333 101.083 55.25 116 73.6667 116C92.0833 116 107 101.083 107 82.6667C107 64.25 92.0833 49.3333 73.6667 49.3333C55.25 49.3333 40.3333 64.25 40.3333 82.6667Z" fill="black"/>
</svg>
