<svg width="149" height="149" viewBox="0 0 149 149" fill="none" xmlns="http://www.w3.org/2000/svg">
<path d="M127.468 84.5945C124.901 100.873 112.743 114.664 99.3012 119.294C85.8403 123.905 70.2122 121.612 52.7351 109.617C35.258 97.6219 30.7252 104.663 19.4112 91.5215C8.09721 78.38 11.6967 64.9624 22.2269 51.0898C32.7571 37.2173 46.8562 28.0178 63.0963 25.4129C79.3364 22.808 97.7176 26.7978 110.383 38.1748C123.067 49.5707 130.053 68.298 127.468 84.5945Z" fill="#02CE9D" fill-opacity="0.3"/>
<path d="M110.734 30H51.6232C46.9576 30 43.1787 33.4095 43.1787 37.619V90.9524C43.1787 95.1619 46.9576 98.5714 51.6232 98.5714H68.512L81.1787 110L93.8454 98.5714H110.734C115.4 98.5714 119.179 95.1619 119.179 90.9524V37.619C119.179 33.4095 115.4 30 110.734 30ZM85.4009 90.9524H76.9565V83.3333H85.4009V90.9524ZM94.1198 61.4476L90.3409 64.9524C87.3009 67.6952 85.4009 70 85.4009 75.7143H76.9565V73.8095C76.9565 69.6 78.8565 65.7905 81.8965 63.0286L87.1532 58.2286C88.6732 56.8571 89.6232 54.9524 89.6232 52.8571C89.6232 48.6476 85.8443 45.2381 81.1787 45.2381C76.5132 45.2381 72.7343 48.6476 72.7343 52.8571H64.2898C64.2898 44.4381 71.8476 37.619 81.1787 37.619C90.5098 37.619 98.0676 44.4381 98.0676 52.8571C98.0676 56.2095 96.5687 59.2381 94.1198 61.4476Z" fill="black"/>
</svg>
