<svg width="100" height="75" fill="none" xmlns="http://www.w3.org/2000/svg"><path fill-rule="evenodd" clip-rule="evenodd" d="M77.361 41.049c-.898 9.702-.402 20.36-7.85 26.655-7.637 6.455-18.494 6.018-28.266 3.873-9.896-2.172-19.175-6.772-24.409-15.435-5.92-9.798-9.456-22.033-4.448-32.325 4.994-10.264 17.096-13.495 28.15-16.389C52.261 4.36 66.151-.764 75.095 7.402c8.74 7.98 3.357 21.87 2.266 33.647z" fill="#FFD29C"/><path d="M75.959 55.507l.027-35.267c0-2.31-2.233-4.182-4.995-4.182L23.037 16c-2.762-.006-5.008 1.867-5.008 4.177L18 55.45h4.995l45.991.057h6.973z" fill="#fff" stroke="#000" stroke-width="3" stroke-miterlimit="10" stroke-linecap="round" stroke-linejoin="round"/><path d="M12.75 55h66.5a.75.75 0 01.75.75A4.25 4.25 0 0175.75 60h-59.5A4.25 4.25 0 0112 55.75a.75.75 0 01.75-.75z" fill="#fff" stroke="#000" stroke-width="2" stroke-linecap="round" stroke-linejoin="round"/><path d="M67.304 56.607c10.108 0 18.303-8.195 18.303-18.303C85.607 28.194 77.412 20 67.304 20 57.194 20 49 28.195 49 38.304c0 10.108 8.195 18.303 18.304 18.303z" fill="#89DDEF" stroke="#000" stroke-width="3" stroke-miterlimit="10" stroke-linecap="round" stroke-linejoin="round"/><path stroke="#000" stroke-width="3" stroke-linecap="round" stroke-linejoin="round" d="M77.47 53.871l12.722 15.267"/></svg>
