<svg width="40" height="50" fill="none" xmlns="http://www.w3.org/2000/svg"><path d="M30.32 31.61H10.844c-.96 0-1.734-.771-1.734-1.725 0-.954.775-1.724 1.734-1.724h19.478c.96 0 1.734.77 1.734 1.724s-.775 1.724-1.734 1.724zM30.32 37.529H10.844c-.96 0-1.734-.77-1.734-1.724s.775-1.725 1.734-1.725h19.478c.96 0 1.734.77 1.734 1.725 0 .954-.775 1.724-1.734 1.724z" fill="#000"/><path d="M39.972 9.724v-.023a1.586 1.586 0 00-.138-.414c-.012-.034-.035-.069-.047-.092a1.976 1.976 0 00-.265-.367L31.36.518a1.476 1.476 0 00-.37-.277c-.035-.023-.07-.034-.093-.057a1.513 1.513 0 00-.416-.15A1.774 1.774 0 0030.135 0H5.121C2.3 0 0 2.287 0 5.092v39.816C0 47.713 2.3 50 5.12 50h29.755c2.82 0 5.12-2.287 5.12-5.092V10.023a.85.85 0 00-.023-.299zm-8.126-3.781l.567.574 1.733 1.77h-2.312V5.943h.012zm3.04 40.597H5.121a1.648 1.648 0 01-1.653-1.643V5.08c0-.908.74-1.643 1.653-1.643h23.257v6.586c0 .954.775 1.724 1.734 1.724h6.427v33.15c0 .908-.751 1.643-1.653 1.643z" fill="#000"/><path d="M22.818 9.782c.74.413 1.364 1 1.792 1.712.428.713.659 1.518.67 2.334 0 .816-.23 1.62-.658 2.333a4.824 4.824 0 01-1.792 1.713 5.05 5.05 0 01-2.45.632c-.428 0-.845-.173-1.157-.46-.3-.299-.473-.69-.473-1.103 0-.414.161-.817.473-1.104a1.69 1.69 0 011.156-.448c.44 0 .844-.172 1.156-.46.3-.299.474-.69.474-1.103 0-.414-.162-.816-.474-1.104a1.65 1.65 0 00-1.156-.46c-.289 0-.566.07-.82.207a1.52 1.52 0 00-.602.575 1.58 1.58 0 01-.982.724 1.708 1.708 0 01-1.237-.15 1.65 1.65 0 01-.485-.401 1.443 1.443 0 01-.29-.54 1.541 1.541 0 01-.046-.61c.035-.195.104-.39.208-.575a4.739 4.739 0 011.792-1.712 5.05 5.05 0 012.45-.632c.856 0 1.7.218 2.451.632zM20.368 20.08a1.629 1.629 0 011.156.46c.3.288.473.69.473 1.092.012.207-.034.426-.127.61-.08.183-.196.356-.346.494a2.072 2.072 0 01-.544.345c-.346.137-.74.149-1.098.046a1.613 1.613 0 01-.878-.621 1.54 1.54 0 01-.266-1.023c.046-.356.208-.69.474-.943.15-.15.335-.264.531-.345a1.88 1.88 0 01.625-.114z" fill="#02CEAA"/></svg>
