<svg width="101" height="75" fill="none" xmlns="http://www.w3.org/2000/svg"><path fill-rule="evenodd" clip-rule="evenodd" d="M82.861 41.049c-.898 9.702-.402 20.36-7.85 26.655-7.637 6.455-18.494 6.018-28.266 3.873-9.896-2.172-19.175-6.772-24.409-15.435-5.92-9.798-9.456-22.033-4.448-32.325 4.994-10.264 17.096-13.495 28.15-16.389C57.761 4.36 71.651-.764 80.595 7.402c8.74 7.98 3.357 21.87 2.266 33.647z" fill="#FFD29C"/><path d="M81.459 55.507l.027-35.267c0-2.31-2.233-4.182-4.995-4.182L28.537 16c-2.762-.006-5.008 1.867-5.008 4.177L23.5 55.45h4.995l45.991.057h6.973z" fill="#fff" stroke="#000" stroke-width="3" stroke-miterlimit="10" stroke-linecap="round" stroke-linejoin="round"/><path d="M18.25 55h66.5a.75.75 0 01.75.75A4.25 4.25 0 0181.25 60h-59.5a4.25 4.25 0 01-4.25-4.25.75.75 0 01.75-.75z" fill="#fff" stroke="#000" stroke-width="2" stroke-linecap="round" stroke-linejoin="round"/><path d="M41.027 35.844h22M41.027 45.844h22" stroke="#000" stroke-width="3" stroke-miterlimit="10" stroke-linecap="round" stroke-linejoin="round"/><path d="M36.636 34h-3.609v3.628h3.61V34zM36.636 44h-3.609v3.628h3.61V44z" fill="#fff" stroke="#89DDEF" stroke-width="2" stroke-miterlimit="10" stroke-linecap="round" stroke-linejoin="round"/><path d="M41.027 26h22" stroke="#000" stroke-width="3" stroke-miterlimit="10" stroke-linecap="round" stroke-linejoin="round"/><path d="M36.636 24h-3.609v3.628h3.61V24z" fill="#fff" stroke="#89DDEF" stroke-width="2" stroke-miterlimit="10" stroke-linecap="round" stroke-linejoin="round"/><path d="M67.81 36.92c.083-.712.883-1.153 1.526-.843l8.333 4.028c.711.343.704 1.334-.012 1.747l-9.44 5.45c-.733.424-1.61-.1-1.515-.905l1.107-9.477z" fill="#000"/><path d="M76.693 48.082l-2.457-4.255-2.722 1.572 2.457 4.255c.406.703 1.345.922 2.096.488.752-.434 1.032-1.356.626-2.06z" fill="#000"/></svg>
