<svg width="19" height="15" viewBox="0 0 19 15" fill="none" xmlns="http://www.w3.org/2000/svg">
  <path d="M0.666668 8.375L2.375 8.375C2.44444 8.84723 2.56945 9.30917 2.75 9.76084C2.93056 10.2125 3.16667 10.6394 3.45833 11.0417L2.25 12.2083C1.80555 11.625 1.44806 11.0139 1.1775 10.375C0.906946 9.73611 0.736667 9.06945 0.666668 8.375ZM0.666668 6.70834C0.916668 4.79167 1.74667 3.20139 3.15667 1.9375C4.56667 0.673615 6.22278 0.0416712 8.125 0.0416713C9.16667 0.0416714 10.1425 0.239727 11.0525 0.635838C11.9625 1.03195 12.7542 1.56667 13.4275 2.24001C14.1003 2.91334 14.6344 3.70473 15.03 4.61417C15.4256 5.52362 15.6236 6.49917 15.6242 7.54084L15.6242 7.66584L16.9167 6.375L18.125 7.54167L14.7917 10.875L11.4583 7.54167L12.625 6.375L13.9583 7.70834L13.9583 7.54167C13.9583 5.91667 13.3922 4.53806 12.26 3.40584C11.1278 2.27362 9.74944 1.70778 8.125 1.70834C6.68056 1.70834 5.41306 2.18056 4.3225 3.125C3.23194 4.06945 2.58278 5.26389 2.375 6.70834L0.666668 6.70834ZM3.45833 13.4167L4.625 12.2083C5.02778 12.5 5.455 12.7361 5.90667 12.9167C6.35833 13.0972 6.82 13.2222 7.29167 13.2917L7.29167 15C6.59722 14.9306 5.93056 14.7606 5.29167 14.49C4.65278 14.2194 4.04167 13.8617 3.45833 13.4167ZM8.95833 15L8.95833 13.2917C9.43056 13.2222 9.8925 13.0972 10.3442 12.9167C10.7958 12.7361 11.2228 12.5 11.625 12.2083L12.7917 13.4167C12.25 13.8611 11.6528 14.2153 11 14.4792C10.3472 14.7431 9.66667 14.9167 8.95833 15Z" fill="black"/>
</svg>
