<svg width="345" height="270" viewBox="0 0 345 270" fill="none" xmlns="http://www.w3.org/2000/svg">
<path d="M342.274 2.72656H2.72656V267.273H342.274V2.72656Z" fill="#FFD29C" stroke="black" stroke-width="4" stroke-linecap="round" stroke-linejoin="round"/>
<path d="M199.483 221.998C195.162 221.998 195.162 216.627 195.162 212.851C195.162 205.325 199.483 197.8 210.252 197.8C221.035 197.8 225.342 205.325 225.342 212.851C225.342 215.714 225.342 221.998 221.021 221.998" fill="#C6F9EC"/>
<path d="M198.353 218.236C198.353 227.915 203.669 233.287 210.212 233.287C216.605 233.287 222.14 227.915 222.14 218.236C222.14 215.005 221.063 212.864 221.063 212.864C217.818 209.633 213.524 205.748 213.524 205.748C209.203 208.979 205.986 210.71 199.498 211.787C199.484 211.774 198.353 212.851 198.353 218.236Z" fill="#C6F9EC"/>
<path d="M177.973 175.728C151.2 204.794 116.917 207.438 90.4039 175.728C64.6403 175.728 36.4912 202.381 36.4912 228.092V267.273H232.553V228.079C232.553 202.381 203.736 175.728 177.973 175.728Z" fill="#8E8EEF" stroke="black" stroke-width="4" stroke-linejoin="round"/>
<path d="M84.8418 237.213V267.273" stroke="black" stroke-width="4" stroke-linecap="round" stroke-linejoin="round"/>
<path d="M300.724 169.866L301.201 177.31C301.501 182.054 297.889 186.144 293.131 186.457C288.374 186.757 284.271 183.158 283.957 178.414L283.48 170.97C283.18 166.226 286.793 162.136 291.55 161.823C296.321 161.509 300.424 165.108 300.724 169.866Z" fill="#F7F5F4" stroke="black" stroke-width="4.4945" stroke-linejoin="round"/>
<path d="M173.024 255.74C173.024 262.107 178.177 267.273 184.529 267.273H299.552C305.904 267.273 311.057 262.107 311.057 255.74V186.58C311.057 179.709 305.482 174.147 298.598 174.147H185.497C178.613 174.147 173.038 179.709 173.038 186.58V255.74H173.024Z" fill="white" stroke="black" stroke-width="4" stroke-linejoin="round"/>
<path d="M232.553 193.887H188.864V246.551H232.553V193.887Z" fill="#02CE9D" fill-opacity="0.3"/>
<path d="M219.344 231.092C213.755 237.158 206.585 237.717 201.051 231.092C195.666 231.092 189.791 236.654 189.791 242.025V246.333H230.754V242.025C230.754 236.667 224.729 231.092 219.344 231.092Z" fill="white" stroke="black" stroke-width="4" stroke-linejoin="round"/>
<path d="M198.352 220.962C198.352 230.642 203.668 236.013 210.211 236.013C216.604 236.013 222.139 230.642 222.139 220.962C222.139 217.731 221.062 215.591 221.062 215.591C217.817 212.36 213.523 208.475 213.523 208.475C209.202 211.706 205.985 213.437 199.497 214.514C199.483 214.5 198.352 215.577 198.352 220.962Z" fill="white" stroke="black" stroke-width="4" stroke-linejoin="round"/>
<path d="M221.839 224.207C222.03 223.048 222.139 221.944 222.139 220.608C222.139 217.363 221.062 215.209 221.062 215.209C217.818 211.965 213.496 208.066 213.496 208.066C209.175 211.31 205.931 213.055 199.442 214.132C199.442 214.132 198.297 215.209 198.297 220.608C198.297 221.821 198.297 223.198 198.461 224.275C195.121 223.498 195.121 218.672 195.121 215.209C195.121 207.657 199.442 200.104 210.266 200.104C221.089 200.104 225.41 207.657 225.41 215.209C225.383 217.936 225.506 223.594 221.839 224.207Z" fill="black" stroke="black" stroke-width="3" stroke-linejoin="round"/>
<path d="M246.798 202.735H279.118H246.798Z" fill="white"/>
<path d="M246.798 202.735H279.118" stroke="black" stroke-width="4" stroke-linecap="round" stroke-linejoin="round"/>
<path d="M246.798 219.517H279.118H246.798Z" fill="white"/>
<path d="M246.798 219.517H279.118" stroke="black" stroke-width="4" stroke-linecap="round" stroke-linejoin="round"/>
<path d="M246.798 236.286H279.118H246.798Z" fill="white"/>
<path d="M246.798 236.286H279.118" stroke="black" stroke-width="4" stroke-linecap="round" stroke-linejoin="round"/>
<path d="M318.159 217.486H300.901C295.408 217.486 290.95 213.042 290.95 207.561C290.95 202.081 295.408 197.636 300.901 197.636H318.159C323.652 197.636 328.11 202.081 328.11 207.561C328.123 213.028 323.652 217.486 318.159 217.486Z" fill="#F7F5F4" stroke="black" stroke-width="4" stroke-linejoin="round"/>
<path d="M318.159 197.664H300.901C295.408 197.664 290.95 193.219 290.95 187.739C290.95 182.259 295.408 177.814 300.901 177.814H318.159C323.652 177.814 328.11 182.259 328.11 187.739C328.123 193.219 323.652 197.664 318.159 197.664Z" fill="#F7F5F4" stroke="black" stroke-width="4" stroke-linejoin="round"/>
<path d="M318.159 237.213H300.901C295.408 237.213 290.95 232.768 290.95 227.288C290.95 221.808 295.408 217.363 300.901 217.363H318.159C323.652 217.363 328.11 221.808 328.11 227.288C328.123 232.768 323.652 237.213 318.159 237.213Z" fill="#F7F5F4" stroke="black" stroke-width="4" stroke-linejoin="round"/>
<path d="M318.159 257.376H300.901C295.408 257.376 290.95 252.932 290.95 247.451C290.95 241.971 295.408 237.526 300.901 237.526H318.159C323.652 237.526 328.11 241.971 328.11 247.451C328.123 252.932 323.652 257.376 318.159 257.376Z" fill="#F7F5F4" stroke="black" stroke-width="4" stroke-linejoin="round"/>
<path d="M77.4404 127.195C77.4404 173.534 102.918 199.273 134.188 199.273C164.818 199.273 191.277 173.534 191.277 127.195C191.277 111.749 186.111 101.456 186.111 101.456C170.625 86.0103 149.987 67.3877 149.987 67.3877C129.349 82.8338 113.864 91.1635 82.9203 96.3031C82.9203 96.3168 77.4404 101.47 77.4404 127.195Z" fill="#F7F5F4" stroke="black" stroke-width="4" stroke-linejoin="round"/>
<path d="M190.05 144.1C190.977 138.565 191.481 133.275 191.481 126.963C191.481 111.517 186.315 101.225 186.315 101.225C170.83 85.7784 150.191 67.1558 150.191 67.1558C129.553 82.6019 114.068 90.9317 83.1244 96.0713C83.1244 96.0849 77.6446 101.238 77.6446 126.963C77.6446 132.757 77.6718 139.342 78.4216 144.482C62.4863 140.787 62.4863 117.761 62.4863 101.238C62.4863 65.2063 83.1244 29.1609 134.72 29.1609C186.315 29.1609 206.953 65.1927 206.953 101.238C206.967 114.203 207.539 141.169 190.05 144.1Z" fill="black" stroke="black" stroke-width="4" stroke-linejoin="round"/>
<path d="M119.166 157.828C127.768 166.403 141.644 166.281 150.123 157.828" stroke="black" stroke-width="4" stroke-linecap="round" stroke-linejoin="round"/>
<path d="M103.217 124.946C103.217 124.946 105.425 118.865 113.986 118.865C122.546 118.865 124.755 124.946 124.755 124.946" stroke="black" stroke-width="4" stroke-linecap="round" stroke-linejoin="round"/>
<path d="M145.188 124.946C145.188 124.946 147.397 118.865 155.957 118.865C164.518 118.865 166.726 124.946 166.726 124.946" stroke="black" stroke-width="4" stroke-linecap="round" stroke-linejoin="round"/>
<path d="M135.933 126.977L139.709 146.09L129.758 146.322" stroke="black" stroke-width="4" stroke-linecap="round" stroke-linejoin="round"/>
</svg>
