<svg width="20" height="20" viewBox="0 0 20 20" fill="none" xmlns="http://www.w3.org/2000/svg">
<path fill-rule="evenodd" clip-rule="evenodd" d="M18 0C19.1 0 20 0.9 20 2V14C20 15.1 19.1 16 18 16H6C4.9 16 4 15.1 4 14V2C4 0.9 4.9 0 6 0H18ZM0 18V4H2V18H16V20H2C0.9 20 0 19.1 0 18ZM11.9999 8C13.1044 8 13.9999 7.10457 13.9999 6C13.9999 4.89543 13.1044 4 11.9999 4C10.8953 4 9.99985 4.89543 9.99985 6C9.99985 7.10457 10.8953 8 11.9999 8ZM14.78 9.58022C13.9031 9.19753 12.9567 9 12 9C11.0433 9 10.0969 9.19753 9.22 9.58022C8.85771 9.73507 8.54893 9.99299 8.33202 10.3219C8.11511 10.6508 7.99966 11.0362 8 11.4302V12.0002H16V11.4302C16 10.6202 15.52 9.90022 14.78 9.58022Z" fill="black"/>
</svg>
