<svg width="31" height="35" viewBox="0 0 31 35" fill="none" xmlns="http://www.w3.org/2000/svg">
<path fill-rule="evenodd" clip-rule="evenodd" d="M10.6548 7.46665C8.92889 7.46665 7.58084 8.80527 7.58084 10.3954C7.58084 11.9855 8.92889 13.3242 10.6548 13.3242C12.3807 13.3242 13.7287 11.9855 13.7287 10.3954C13.7287 8.80527 12.3807 7.46665 10.6548 7.46665ZM4.03796 10.3954C4.03796 6.83595 7.02862 4 10.6548 4C14.281 4 17.2716 6.83595 17.2716 10.3954C17.2716 13.9549 14.281 16.7908 10.6548 16.7908C7.02862 16.7908 4.03796 13.9549 4.03796 10.3954ZM30.4916 12.2881C31.1776 12.9707 31.1682 14.0681 30.4706 14.7393L25.6252 19.4014C24.9359 20.0646 23.8304 20.0646 23.1411 19.4014L20.7185 17.0703C20.0209 16.3991 20.0114 15.3017 20.6974 14.6191C21.3833 13.9366 22.5049 13.9273 23.2025 14.5985L24.3832 15.7345L27.9865 12.2675C28.6841 11.5963 29.8057 11.6055 30.4916 12.2881ZM1.92861 20.8295C3.1792 19.5216 4.90157 18.7632 6.72451 18.7632H15.3924C17.2153 18.7632 18.9377 19.5216 20.1883 20.8295C21.4352 22.1336 22.1169 23.8789 22.1169 25.6766V28.2667C22.1169 29.224 21.3238 30 20.3455 30C19.3671 30 18.574 29.224 18.574 28.2667V25.6766C18.574 24.7266 18.2121 23.8369 17.6012 23.198C16.994 22.563 16.1967 22.2299 15.3924 22.2299H6.72451C5.92017 22.2299 5.12288 22.563 4.51571 23.198C3.90482 23.8369 3.54288 24.7266 3.54288 25.6766V28.2667C3.54288 29.224 2.74978 30 1.77144 30C0.7931 30 0 29.224 0 28.2667V25.6766C0 23.8789 0.68174 22.1336 1.92861 20.8295Z" fill="#8E8EEF"/>
</svg>
