<svg width="142" height="23" viewBox="0 0 142 23" fill="none" xmlns="http://www.w3.org/2000/svg">
<path d="M22.7026 7.82644L15.6695 6.81241L12.5255 0.489162C12.4396 0.316035 12.2983 0.175885 12.1238 0.0906956C11.6862 -0.123652 11.1543 0.0549711 10.9355 0.489162L7.7915 6.81241L0.758392 7.82644C0.564489 7.85392 0.387207 7.9446 0.251476 8.082C0.0873837 8.24932 -0.00303847 8.47443 7.79651e-05 8.70785C0.0031944 8.94127 0.0995944 9.16392 0.268096 9.32687L5.35665 14.2486L4.15445 21.1984C4.12626 21.3601 4.14429 21.5264 4.20651 21.6784C4.26872 21.8304 4.37262 21.9621 4.50644 22.0585C4.64025 22.1549 4.79861 22.2122 4.96358 22.2239C5.12854 22.2355 5.2935 22.2011 5.43975 22.1245L11.7305 18.8433L18.0212 22.1245C18.193 22.2152 18.3924 22.2454 18.5836 22.2124C19.0655 22.13 19.3896 21.6766 19.3065 21.1984L18.1043 14.2486L23.1929 9.32687C23.3314 9.19221 23.4228 9.01634 23.4505 8.82398C23.5253 8.34307 23.1873 7.89789 22.7026 7.82644Z" fill="#F59E01"/>
<path d="M81.9722 7.82644L74.939 6.81241L71.7951 0.489162C71.7092 0.316035 71.5679 0.175885 71.3934 0.0906956C70.9557 -0.123652 70.4239 0.0549711 70.2051 0.489162L67.0611 6.81241L60.028 7.82644C59.8341 7.85392 59.6568 7.9446 59.521 8.082C59.3569 8.24932 59.2665 8.47443 59.2696 8.70785C59.2728 8.94127 59.3692 9.16392 59.5377 9.32687L64.6262 14.2486L63.424 21.1984C63.3958 21.3601 63.4139 21.5264 63.4761 21.6784C63.5383 21.8304 63.6422 21.9621 63.776 22.0585C63.9098 22.1549 64.0682 22.2122 64.2331 22.2239C64.3981 22.2355 64.5631 22.2011 64.7093 22.1245L71.0001 18.8433L77.2908 22.1245C77.4625 22.2152 77.662 22.2454 77.8531 22.2124C78.3351 22.13 78.6592 21.6766 78.5761 21.1984L77.3739 14.2486L82.4625 9.32687C82.601 9.19221 82.6924 9.01634 82.7201 8.82398C82.7949 8.34307 82.4569 7.89789 81.9722 7.82644Z" fill="#F59E01"/>
<path d="M52.3374 7.82644L45.3043 6.81241L42.1603 0.489162C42.0744 0.316035 41.9331 0.175885 41.7586 0.0906956C41.321 -0.123652 40.7891 0.0549711 40.5703 0.489162L37.4263 6.81241L30.3932 7.82644C30.1993 7.85392 30.022 7.9446 29.8863 8.082C29.7222 8.24932 29.6317 8.47443 29.6349 8.70785C29.638 8.94127 29.7344 9.16392 29.9029 9.32687L34.9914 14.2486L33.7892 21.1984C33.761 21.3601 33.7791 21.5264 33.8413 21.6784C33.9035 21.8304 34.0074 21.9621 34.1412 22.0585C34.275 22.1549 34.4334 22.2122 34.5984 22.2239C34.7633 22.2355 34.9283 22.2011 35.0745 22.1245L41.3653 18.8433L47.656 22.1245C47.8278 22.2152 48.0272 22.2454 48.2183 22.2124C48.7003 22.13 49.0244 21.6766 48.9413 21.1984L47.7391 14.2486L52.8277 9.32687C52.9662 9.19221 53.0576 9.01634 53.0853 8.82398C53.1601 8.34307 52.8221 7.89789 52.3374 7.82644Z" fill="#F59E01"/>
<path d="M111.607 7.82644L104.574 6.81241L101.43 0.489162C101.344 0.316035 101.203 0.175885 101.028 0.0906956C100.591 -0.123652 100.059 0.0549711 99.8398 0.489162L96.6958 6.81241L89.6627 7.82644C89.4688 7.85392 89.2915 7.9446 89.1558 8.082C88.9917 8.24932 88.9013 8.47443 88.9044 8.70785C88.9075 8.94127 89.0039 9.16392 89.1724 9.32687L94.261 14.2486L93.0588 21.1984C93.0306 21.3601 93.0486 21.5264 93.1108 21.6784C93.1731 21.8304 93.277 21.9621 93.4108 22.0585C93.5446 22.1549 93.703 22.2122 93.8679 22.2239C94.0329 22.2355 94.1978 22.2011 94.3441 22.1245L100.635 18.8433L106.926 22.1245C107.097 22.2152 107.297 22.2454 107.488 22.2124C107.97 22.13 108.294 21.6766 108.211 21.1984L107.009 14.2486L112.097 9.32687C112.236 9.19221 112.327 9.01634 112.355 8.82398C112.43 8.34307 112.092 7.89789 111.607 7.82644Z" fill="#F59E01"/>
<mask id="mask0" mask-type="alpha" maskUnits="userSpaceOnUse" x="118" y="0" width="24" height="23">
<path d="M141.242 7.82644L134.209 6.81241L131.065 0.489162C130.979 0.316035 130.837 0.175885 130.663 0.0906956C130.225 -0.123652 129.693 0.0549711 129.475 0.489162L126.331 6.81241L119.298 7.82644C119.104 7.85392 118.926 7.9446 118.791 8.08201C118.627 8.24932 118.536 8.47443 118.539 8.70785C118.542 8.94127 118.639 9.16392 118.807 9.32687L123.896 14.2486L122.694 21.1984C122.665 21.3601 122.683 21.5264 122.746 21.6784C122.808 21.8304 122.912 21.9621 123.046 22.0585C123.179 22.1549 123.338 22.2122 123.503 22.2239C123.668 22.2355 123.833 22.2011 123.979 22.1245L130.27 18.8433L136.56 22.1245C136.732 22.2152 136.932 22.2454 137.123 22.2124C137.605 22.13 137.929 21.6766 137.846 21.1984L136.643 14.2486L141.732 9.32687C141.871 9.19222 141.962 9.01634 141.99 8.82398C142.064 8.34307 141.726 7.89789 141.242 7.82644Z" fill="#F59E01"/>
</mask>
<g mask="url(#mask0)">
<rect x="118.539" y="-1.85214" width="11.7304" height="27.1652" fill="#F59E01"/>
</g>
</svg>
