<svg width="57" height="48" viewBox="0 0 57 48" fill="none" xmlns="http://www.w3.org/2000/svg">
<path d="M1.48083 31.4057C-1.55633 23.6085 0.294335 14.4777 5.06335 9.04485C9.84565 3.61551 17.3591 0.669947 28.1798 1.51687C39.0005 2.36379 39.2034 -1.87444 47.5872 1.03473C55.9709 3.94389 57.8169 10.7462 56.7084 19.5012C55.5999 28.2562 51.7115 35.8617 45.183 41.113C38.6546 46.3642 29.4862 49.2611 20.9562 47.4685C12.413 45.6723 4.51455 39.2157 1.48083 31.4057Z" fill="#89DDEF"/>
<path d="M25.2679 6.33966C20.8535 6.33966 17.2621 9.93465 17.2621 14.3534C17.2621 18.7723 20.8535 22.3672 25.2679 22.3672C29.6823 22.3672 33.2738 18.7723 33.2738 14.3534C33.2738 9.93465 29.6823 6.33966 25.2679 6.33966ZM25.2679 19.1617C22.6196 19.1617 20.4644 17.0044 20.4644 14.3534C20.4644 11.7025 22.6196 9.54518 25.2679 9.54518C27.9163 9.54518 30.0714 11.7025 30.0714 14.3534C30.0714 17.0044 27.9163 19.1617 25.2679 19.1617ZM38.0773 36.7921C38.9616 36.7921 39.6784 36.0736 39.6784 35.1893V35.1893C39.6784 29.0043 34.6492 23.97 28.4703 23.97H22.0656C15.8851 23.97 10.8574 29.0043 10.8574 35.1893V35.1893C10.8574 36.0736 11.5743 36.7921 12.4586 36.7921V36.7921C13.3429 36.7921 14.0598 36.0736 14.0598 35.1893V35.1893C14.0598 30.7705 17.6512 27.1755 22.0656 27.1755H28.4703C32.8847 27.1755 36.4761 30.7705 36.4761 35.1893V35.1893C36.4761 36.0736 37.193 36.7921 38.0773 36.7921V36.7921Z" fill="black"/>
<path d="M42.7621 23.072C42.8212 22.988 42.8854 22.9078 42.9543 22.8316C43.1031 22.6814 43.2802 22.5621 43.4753 22.4808C43.6704 22.3994 43.8797 22.3575 44.0911 22.3575C44.3024 22.3575 44.5117 22.3994 44.7068 22.4808C44.9019 22.5621 45.079 22.6814 45.2279 22.8316C45.3763 22.9814 45.4937 23.159 45.5734 23.3542C45.653 23.5495 45.6934 23.7586 45.6922 23.9695C45.6999 24.1768 45.6672 24.3837 45.5961 24.5786C45.5242 24.7774 45.4095 24.9581 45.2601 25.1076C45.1107 25.2572 44.9302 25.372 44.7315 25.444C44.5399 25.5288 44.3326 25.5726 44.1231 25.5726C43.9136 25.5726 43.7063 25.5288 43.5147 25.444C43.316 25.372 43.1355 25.2572 42.9861 25.1076C42.8367 24.9581 42.722 24.7774 42.6501 24.5786C42.5604 24.3883 42.5166 24.1798 42.522 23.9695C42.5141 23.8628 42.5141 23.7557 42.522 23.649C42.5395 23.5486 42.5719 23.4513 42.618 23.3605C42.6531 23.2584 42.7015 23.1613 42.7621 23.072Z" fill="black"/>
<path d="M41.6876 10.1884C42.4184 9.76641 43.2474 9.5445 44.0911 9.54504C45.2175 9.55379 46.3051 9.95857 47.1636 10.6886C48.0222 11.4187 48.5971 12.4275 48.7878 13.5388C48.9786 14.6502 48.7731 15.7933 48.2072 16.7683C47.6413 17.7433 46.7511 18.4883 45.6922 18.8729V19.1614C45.6922 19.5864 45.5235 19.9941 45.2232 20.2947C44.923 20.5952 44.5157 20.7641 44.0911 20.7641C43.6664 20.7641 43.2592 20.5952 42.9589 20.2947C42.6586 19.9941 42.4899 19.5864 42.4899 19.1614V17.5586C42.4899 17.1336 42.6586 16.7259 42.9589 16.4254C43.2592 16.1248 43.6664 15.9559 44.0911 15.9559C44.5157 15.9559 44.923 15.7871 45.2232 15.4865C45.5235 15.1859 45.6922 14.7783 45.6922 14.3532C45.6922 13.9281 45.5235 13.5205 45.2232 13.2199C44.923 12.9193 44.5157 12.7505 44.0911 12.7505C43.8089 12.7494 43.5315 12.8229 43.2869 12.9636C43.0423 13.1043 42.8392 13.3073 42.6981 13.5518C42.598 13.7434 42.4602 13.9127 42.2931 14.0495C42.1259 14.1864 41.9329 14.288 41.7255 14.3482C41.5181 14.4084 41.3007 14.426 41.0863 14.4C40.8719 14.3739 40.665 14.3047 40.4781 14.1965C40.2911 14.0884 40.128 13.9434 39.9984 13.7705C39.8688 13.5976 39.7756 13.4002 39.7242 13.1902C39.6728 12.9803 39.6644 12.7621 39.6995 12.5488C39.7345 12.3355 39.8123 12.1315 39.9281 11.9491C40.35 11.2177 40.9568 10.6105 41.6876 10.1884Z" fill="black"/>
</svg>
