<svg width="134" height="133" viewBox="0 0 134 133" fill="none" xmlns="http://www.w3.org/2000/svg">
<path fill-rule="evenodd" clip-rule="evenodd" d="M105.339 96.3762C94.5787 107.338 77.4845 106.375 62.1892 104.401C47.2253 102.469 30.7648 98.946 23.3198 85.789C16.1199 73.065 18.1215 61.7923 23.3198 48.2042C28.2234 35.3864 39.2396 24.4426 52.4509 20.7042C65.2508 17.0821 78.8109 20.3216 89.9511 27.7042C100.569 34.7406 108.848 41.1002 112.307 53.3422C116.476 68.0943 116.025 85.4894 105.339 96.3762Z" fill="#FFD29C"/>
<path d="M43.1925 59.8684C42.6134 60.4262 42.2535 61.159 42.1741 61.9424C42.0947 62.7258 42.3006 63.5114 42.7569 64.1657C43.2131 64.82 43.8915 65.3026 44.6768 65.5315C45.4621 65.7604 46.3058 65.7214 47.0646 65.4212C47.4963 65.2361 47.8925 64.9827 48.2368 64.6718C48.5564 64.3578 48.8097 63.9877 48.9828 63.5816C49.1859 63.1666 49.2833 62.7113 49.267 62.2531C49.2631 61.3594 48.8931 60.5029 48.2368 59.8684C47.9066 59.5491 47.5137 59.2957 47.0808 59.1227C46.6479 58.9498 46.1836 58.8607 45.7147 58.8607C45.2457 58.8607 44.7814 58.9498 44.3485 59.1227C43.9156 59.2957 43.5227 59.5491 43.1925 59.8684ZM45.7147 41.8133C46.6568 41.8133 47.5604 42.1722 48.2266 42.811C48.8927 43.4499 49.267 44.3164 49.267 45.2199C49.267 46.1234 48.8927 46.9899 48.2266 47.6287C47.5604 48.2676 46.6568 48.6265 45.7147 48.6265C44.7725 48.6265 43.869 48.9854 43.2028 49.6243C42.5366 50.2632 42.1623 51.1297 42.1623 52.0332C42.1623 52.9367 42.5366 53.8031 43.2028 54.442C43.869 55.0809 44.7725 55.4398 45.7147 55.4398C47.5851 55.4386 49.4222 54.9654 51.0415 54.0677C52.6608 53.17 54.0052 51.8794 54.9397 50.3256C55.8741 48.7718 56.3656 47.0095 56.3649 45.2158C56.3641 43.4221 55.8711 41.6602 54.9354 40.1071C53.9997 38.554 52.6542 37.2644 51.0341 36.368C49.4141 35.4715 47.5765 34.9997 45.7061 35C43.8357 35.0003 41.9983 35.4726 40.3786 36.3696C38.7588 37.2666 37.4137 38.5566 36.4785 40.1099C36.2437 40.4988 36.0913 40.9283 36.0303 41.3738C35.9692 41.8193 36.0007 42.272 36.1229 42.7058C36.245 43.1396 36.4555 43.546 36.7421 43.9014C37.0287 44.2569 37.3859 44.5545 37.7929 44.777C38.6086 45.2212 39.5743 45.3379 40.4794 45.1018C41.3845 44.8656 42.1555 44.2958 42.6241 43.5166C42.9371 42.9967 43.3878 42.5654 43.9305 42.2663C44.4732 41.9672 45.0887 41.8109 45.7147 41.8133ZM88.3429 45.2199H67.0288C66.0866 45.2199 65.1831 45.5788 64.5169 46.2177C63.8507 46.8565 63.4764 47.723 63.4764 48.6265C63.4764 49.53 63.8507 50.3965 64.5169 51.0354C65.1831 51.6742 66.0866 52.0332 67.0288 52.0332H88.3429C89.2851 52.0332 90.1886 52.3921 90.8548 53.0309C91.521 53.6698 91.8953 54.5363 91.8953 55.4398V88.5523L86.3181 83.6127C85.6629 83.0244 84.7999 82.6958 83.9025 82.6929H52.8194C51.8772 82.6929 50.9737 82.334 50.3075 81.6951C49.6413 81.0562 49.267 80.1897 49.267 79.2862V75.8796C49.267 74.9761 48.8927 74.1096 48.2266 73.4707C47.5604 72.8319 46.6568 72.473 45.7147 72.473C44.7725 72.473 43.869 72.8319 43.2028 73.4707C42.5366 74.1096 42.1623 74.9761 42.1623 75.8796V79.2862C42.1623 81.9967 43.2851 84.5962 45.2837 86.5128C47.2823 88.4294 49.9929 89.5061 52.8194 89.5061H82.5171L93.1741 98.8062C93.793 99.3635 94.5995 99.6898 95.4476 99.726C95.9348 99.7209 96.4168 99.6285 96.8686 99.4535C97.504 99.1876 98.0444 98.7491 98.4231 98.1922C98.8019 97.6353 99.0024 96.9843 99 96.3194V55.4398C99 52.7293 97.8772 50.1298 95.8786 48.2132C93.88 46.2966 91.1693 45.2199 88.3429 45.2199Z" fill="black"/>
</svg>
