<svg width="657" height="412" viewBox="0 0 657 412" fill="none" xmlns="http://www.w3.org/2000/svg">
<path d="M318.814 412C317.14 410.61 315.918 409.593 314.291 408.24C313.423 408.24 312.16 408.226 310.896 408.244C303.938 408.347 298.491 405.641 295.041 399.497C293.194 396.207 290.937 393.151 290.568 389.097C290.2 385.094 287.173 382.346 284.655 379.51C280.113 374.378 276.387 368.639 274.592 362.131C272.862 355.86 268.543 352.048 263.647 349.095C259.674 346.702 254.675 346.072 249.848 346.539C247.778 346.739 246.229 347.859 245.129 349.832C243.366 353 241.748 356.35 237.998 358.79C232.076 355.034 225.972 351.162 220.157 347.476C218.925 342.498 217.834 338.099 216.729 333.624C209.165 326.015 201.578 318.382 193.31 310.064C195.32 309.821 196.304 309.541 197.259 309.616C200.524 309.872 203.77 310.292 207.034 310.577C215.013 311.277 222.987 312.037 230.98 312.56C234.972 312.821 238.996 312.606 243.562 312.606C243.982 309.541 244.588 306.546 244.765 303.527C245.273 294.962 245.525 286.377 246.029 277.811C246.7 266.343 247.502 254.885 248.272 243.427C248.304 242.913 248.589 242.414 248.948 241.332C260.625 242.004 272.381 242.68 284.595 243.693C284.8 245.129 285.215 246.515 285.164 247.877C284.893 254.992 284.487 262.103 284.17 269.217C284.091 271.028 284.156 272.847 284.156 274.242C286.791 277.639 290.074 277.765 293.562 277.583C297.978 281.712 303.075 284.096 309.674 282.939C310.905 283.918 312.309 285.038 313.437 285.934C316.669 286.428 319.542 287.189 322.424 287.212C325.11 287.231 327.801 286.466 330.305 286.078C331.634 286.965 332.678 287.665 333.308 288.085C337.524 287.417 341.273 286.666 345.06 286.265C349.135 285.831 352.917 286.391 356.457 289.06C358.327 290.473 361.162 290.604 364.151 291.49C364.212 292.242 364.408 293.637 364.426 295.036C364.478 298.335 364.753 301.675 364.384 304.932C363.354 314.053 366.767 321.741 371.566 329.076C371.762 329.374 371.883 329.724 372.2 330.382C371.24 332.281 370.176 334.385 368.964 336.774C370.438 340.641 370.503 344.738 367.938 349.688C365.793 350.835 362.78 352.454 359.497 354.213C358.495 352.678 357.627 351.349 356.438 349.529C354.633 350.565 353.001 351.507 351.224 352.529C351.588 354.647 351.887 356.397 352.199 358.226C350.143 360.708 348.053 363.227 345.526 366.283C343.623 366.283 341.268 366.246 338.918 366.288C331.82 366.418 326.793 370.085 323.492 376.015C321.281 379.981 319.486 384.231 317.975 388.519C317.303 390.427 317.588 392.76 317.779 394.873C318.203 399.58 318.875 404.265 319.36 408.967C319.425 409.765 319.071 410.605 318.814 412Z" fill="#F7F5F4"/>
<path d="M40.9162 161.095C42.581 163.866 44.2878 166.875 46.1531 169.782C61.4256 193.608 76.7913 217.379 91.9425 241.285C94.2462 244.919 95.5659 249.179 97.5385 253.588C95.4633 255.23 93.598 256.705 91.9938 257.974C91.7047 260.138 91.4902 261.743 91.243 263.595C90.0119 264.911 88.6409 266.376 87.475 267.622C86.2766 271.079 87.1066 273.841 90.2591 276.23C83.4832 278.609 78.0131 276.122 72.5057 275.758C67.0962 275.399 61.7474 274.153 55.7969 273.206C55.3632 271.578 54.4259 269.689 54.4632 267.818C54.5332 264.491 53.386 261.673 51.6279 259.107C49.3708 255.818 47.9019 251.992 44.5956 249.366C43.481 248.479 43.1733 246.576 42.4971 245.134C40.0954 242.979 37.0876 243.226 33.9445 243.105C32.9559 238.766 29.6589 236.62 25.8676 234.963C22.8364 233.638 19.8285 232.262 17.7114 228.525C18.1731 227.223 18.8119 225.436 19.7166 222.894C16.1352 214.295 12.2133 204.885 8.17018 195.19C10.1847 193.66 13.3185 192.694 12.0081 188.35C10.8236 187.347 9.03757 185.84 7.10694 184.208C7.10694 181.786 7.10694 179.267 7.10694 176.271C8.3334 176.631 9.28006 176.906 10.5112 177.265C13.5983 174.587 12.7169 171.69 10.8236 168.592C9.06088 167.458 6.42609 170.402 4.76594 166.992C4.87786 162.751 4.99911 157.894 0.382398 154.703C0.382398 150.929 0.382398 147.285 0.382398 142.913C0.769455 142.297 1.53891 141.089 2.36898 139.773C2.36898 137.674 2.36898 135.481 2.36898 132.98C-0.17254 130.596 -0.181867 127.382 0.153894 125.52C3.27367 120.752 5.63799 117.141 7.66188 114.053C8.2448 109.648 8.73911 105.869 9.29871 101.638C24.1048 107.148 38.6918 112.578 53.6052 118.126C49.3895 132.393 45.1971 146.594 40.9162 161.095Z" fill="#F7F5F4"/>
<path d="M125.808 44.1822C125.383 39.1061 124.964 34.0394 124.633 30.1251C126.325 26.2527 127.538 23.4674 128.974 20.1736C133.045 21.13 137.536 22.2777 142.069 23.2295C152.729 25.4689 163.38 27.7597 174.087 29.7518C184.976 31.772 195.898 33.6195 206.852 35.2431C216.202 36.6288 225.622 37.5432 234.995 38.7656C239.831 39.3954 244.639 40.2305 249.815 41.0283C249.815 43.2071 249.913 45.1853 249.797 47.1541C249.568 50.9658 249.018 54.7682 248.957 58.5799C248.827 66.4272 247.852 74.1766 246.896 81.954C246.057 88.8076 245.791 95.7358 245.259 102.823C218.841 101.792 193.086 96.6456 167.078 91.3596C166.369 93.0345 165.689 94.6441 164.882 96.5476C158.759 97.0422 152.636 97.5367 146.989 97.9939C140.786 91.285 139.788 83.4096 138.949 75.5809C136.888 74.2233 134.99 74.5732 132.789 75.4923C131.525 69.1472 136.296 64.7243 137.876 59.1631C135.498 57.4695 133.143 55.7899 130.625 53.9984C130.499 51.8569 130.368 49.6921 130.219 47.1821C129.053 46.3796 127.734 45.4885 125.808 44.1822Z" fill="#F7F5F4"/>
<path d="M171.928 226.188C197.371 228.88 221.929 231.478 246.462 234.077C246.584 234.478 246.798 234.823 246.77 235.145C246.089 243.492 245.38 251.834 244.681 260.176C244.648 260.54 244.63 260.908 244.611 261.272C244.177 270.025 243.804 278.782 243.296 287.529C242.872 294.794 242.289 302.044 241.748 309.737C233.564 311.375 225.491 308.925 217.382 308.888C209.221 308.851 201.069 307.708 192.699 307.036C192.12 308.076 191.551 309.112 190.922 310.246C186.156 309.196 181.558 308.179 176.605 307.087C175.421 307.493 173.887 308.02 172.525 308.487C171.667 310.316 170.902 311.939 170.221 313.39C167.199 313.39 164.481 313.39 161.613 313.39C165.064 284.194 168.491 255.254 171.928 226.188Z" fill="#F7F5F4"/>
<path d="M95.8644 243.002C98.7323 237.525 96.5312 231.74 97.4313 226.122C99.9448 225.59 100.327 228.184 102.771 229.178C104.011 228.912 106.021 228.478 107.863 228.082C108.357 223.379 108.787 219.273 109.253 214.818C116.514 214.916 122.884 217.188 129.45 218.144C136.272 219.138 143.039 220.533 149.815 221.83C156.353 223.08 162.872 224.433 169.475 225.758C166.034 254.801 162.662 283.265 159.244 312.107C157.486 312.7 155.555 312.41 153.625 312.061C148.271 311.095 142.955 309.728 137.559 309.271C133.679 308.944 130.522 307.353 127.417 305.515C114.704 297.994 102.071 290.343 89.4243 282.71C88.375 282.075 87.447 281.236 86.2579 280.335C88.1605 279.71 89.6528 279.215 90.716 278.87C94.4094 274.895 88.3424 272.558 90.0305 268.616C91.0052 267.58 92.3715 266.124 93.8078 264.599C93.9617 262.989 94.1156 261.375 94.2742 259.737C96.2514 257.992 98.1634 256.303 100.304 254.418C98.9142 250.849 97.4779 247.154 95.8644 243.002Z" fill="#F7F5F4"/>
<path d="M105.065 226.309C102.356 227.321 101.801 224.368 99.7909 223.645C98.0934 223.645 96.1628 223.645 94.4467 223.645C94.4467 229.024 94.4467 234.072 94.4467 239.204C94.456 239.2 94.3348 239.33 94.2135 239.33C94.041 239.326 93.8265 239.26 93.7146 239.144C93.2156 238.612 92.6606 238.103 92.2736 237.492C76.0358 211.953 59.812 186.4 43.5556 160.805C47.6733 146.986 51.8237 133.078 56.0674 118.835C78.4468 124.13 100.677 129.388 123.276 134.735C117.684 165.354 109.775 195.321 105.065 226.309Z" fill="#F7F5F4"/>
<path d="M260.611 231.847C251.947 232.318 243.818 231.432 235.704 230.125C231.936 229.519 228.107 229.271 224.302 228.912C219.401 228.455 214.491 228.124 209.594 227.601C204.357 227.041 199.143 226.248 193.906 225.698C188.651 225.142 183.367 224.802 178.107 224.284C176.19 224.097 174.302 223.668 172.343 223.342C175.398 202.706 178.368 182.645 181.329 162.63C208.391 165.219 235.485 167.808 263.143 170.454C262.812 176.472 263.54 182.047 262.588 187.693C262.047 190.912 262.253 194.252 262.108 197.541C261.623 208.832 261.129 220.122 260.611 231.847Z" fill="#F7F5F4"/>
<path d="M168.211 94.4575C172.175 95.0687 175.598 95.4932 178.979 96.1417C189.654 98.1899 200.291 100.406 210.979 102.384C214.542 103.042 218.193 103.243 221.812 103.551C227.254 104.012 232.71 104.311 238.143 104.829C240.26 105.029 242.34 105.631 244.723 106.112C244.159 112.294 243.678 118.079 243.082 123.855C242.522 129.271 241.683 134.665 241.24 140.091C240.675 146.991 240.428 153.919 239.929 160.829C239.813 162.415 239.225 163.964 238.843 165.574C233.797 165.004 228.961 164.374 224.102 163.927C218.478 163.413 212.812 163.264 207.206 162.606C192.619 160.894 177.883 160.199 163.576 156.452C161.506 155.911 159.37 155.617 156.977 155.155C160.731 134.865 164.416 114.967 168.211 94.4575Z" fill="#F7F5F4"/>
<path d="M35.9217 39.2414C39.8482 38.9848 40.4311 42.9085 42.9727 44.4014C42.3338 46.5476 41.7788 48.4231 41.2099 50.3499C43.1639 52.8926 45.6494 54.129 48.8018 54.0963C52.4532 54.059 55.8761 54.4462 59.4576 55.8552C63.0577 57.2689 67.3246 57.0589 71.3165 57.3902C73.6855 57.5861 76.0871 57.5675 78.4654 57.4322C83.6743 57.1242 88.4823 58.146 93.3555 60.1801C97.6457 61.9717 102.435 62.5689 107.989 63.9405C108.269 64.3184 109.239 65.6201 110.036 66.6932C110.638 70.3882 109.267 72.9822 106.879 75.315C103.48 78.6415 100.243 82.1313 96.5918 85.9056C97.1141 87.2027 97.4359 88.6023 98.182 89.7313C99.5157 91.7562 99.8375 94.0516 98.9468 96.0064C95.9576 102.566 95.6545 109.756 93.7005 116.549C93.0057 118.965 92.6699 121.48 92.1803 123.887C63.8085 119.698 37.7544 109.065 11.4204 98.6657C11.4204 96.193 11.5277 94.0049 11.3925 91.8355C11.2479 89.5214 11.8215 87.5012 13.2485 85.7004C21.7498 74.9697 26.609 62.2703 32.3869 50.084C33.9957 46.6689 34.7652 42.8572 35.9217 39.2414Z" fill="#F7F5F4"/>
<path d="M126.582 135.542C136.454 137.702 146.312 139.862 156.506 142.092C155.686 147.275 154.958 151.885 154.179 156.826C161.977 159.756 170.389 159.438 178.573 162.49C177.739 169.194 176.983 175.992 176.027 182.766C175.09 189.41 174.055 196.049 172.865 202.655C171.653 209.387 171.406 216.292 169.508 223.146C149.409 219.367 129.683 215.653 109.733 211.902C115.031 186.895 120.31 161.967 125.616 137.044C125.719 136.554 126.181 136.144 126.582 135.542Z" fill="#F7F5F4"/>
<path d="M332.837 102.006C331.186 100.182 329.852 98.6984 328.3 96.9815C329.465 95.5026 330.561 94.1076 331.587 92.8059C332.417 86.5402 330.188 80.8389 329.018 74.9977C327.913 69.4925 326.22 64.0805 325.492 58.5332C324.905 54.0544 325.371 49.4355 325.371 44.5648C333.145 44.5648 340.76 44.5648 348.809 44.5648C351.299 46.2443 354.149 48.2132 357.044 50.1074C359.078 51.437 361.083 52.1695 363.722 51.3157C365.891 50.6159 368.372 50.8772 371.114 50.6859C372.196 52.1695 373.278 53.6438 374.355 55.1228C375.856 54.7449 376.864 54.4929 378.179 54.1663C381.704 56.4804 385.598 57.0496 389.907 55.4353C391.199 54.9501 393.027 55.6826 394.552 56.0792C396.422 56.5691 398.226 57.2922 400.092 57.9221C392.402 61.5331 386.992 68.0602 381.592 74.6012C381.359 74.8811 381.14 75.1937 380.856 75.413C376.379 78.8981 374.737 83.4749 375.875 89.0642C374.434 90.1559 373.147 91.131 371.72 92.2134C371.258 93.669 370.773 95.2133 370.582 95.8152C371.394 101.722 372.079 106.728 372.853 112.354C375.096 113.259 377.908 114.039 380.329 115.476C382.651 116.852 384.679 118.797 386.633 120.701C388.643 122.656 391.665 124.135 390.672 128.184C389.422 128.287 388.023 128.474 386.615 128.511C370.536 128.968 354.452 129.393 338.372 129.873C336.754 129.92 335.145 130.284 333.219 130.545C332.399 125.889 332.944 121.172 332.846 116.497C332.758 111.734 332.837 106.97 332.837 102.006Z" fill="#F7F5F4"/>
<path d="M265.046 186.634C269.555 185.836 273.696 186.078 277.837 186.648C278.915 186.797 279.983 187.086 281.06 187.119C295.498 187.585 309.94 187.982 324.378 188.467C331.489 188.705 338.601 189.041 345.708 189.461C347.088 189.54 348.431 190.207 349.872 190.632C349.098 192.461 348.473 193.944 348.021 195.022C347.914 199.165 351.024 200.611 353.328 202.855C353.328 212.998 353.328 223.225 353.328 233.83C351.989 233.937 350.586 234.147 349.187 234.147C333.97 234.17 318.749 234.385 303.542 234.072C294.639 233.886 285.756 232.813 276.858 232.197C274.303 232.019 271.728 232.043 269.164 232.001C267.373 231.973 265.587 231.996 263.232 231.996C263.847 216.563 264.444 201.689 265.046 186.634Z" fill="#F7F5F4"/>
<path d="M121.956 29.0287C122.469 34.4687 122.996 40.0766 123.532 45.8105C124.894 46.7949 126.199 47.742 127.72 48.8384C127.832 50.5179 127.953 52.3188 128.121 54.8428C129.911 56.3778 132.089 58.244 134.454 60.2641C133.637 65.4848 128.554 69.6324 130.326 76.4534C130.807 77.1485 131.809 78.5948 132.938 80.2184C133.973 79.0754 134.78 78.1796 135.885 76.9573C138.133 81.856 137.834 86.8574 138.669 89.9786C141.178 94.1403 142.904 97.0002 144.927 100.359C151.321 100.061 157.826 99.7575 164.761 99.4309C162.144 112.681 159.538 125.903 156.81 139.722C135.848 134.945 115.222 130.246 94.3161 125.483C96.1301 116.759 97.7483 108.463 99.6556 100.233C100.089 98.3672 101.53 96.7389 102.617 94.8121C101.633 92.1854 100.621 89.4748 99.4878 86.4422C102.039 83.8109 104.771 81.1189 107.355 78.2963C110.47 74.8951 113.45 71.3773 112.494 65.7088C111.277 64.2485 109.766 62.4336 107.812 60.0822C111.356 46.2863 115.007 32.0893 118.71 17.6869C121.009 18.2328 123.094 18.732 125.127 19.2172C125.463 23.864 125.463 23.864 121.956 29.0287Z" fill="#F7F5F4"/>
<path d="M329.964 144.583C327.25 143.119 325.059 141.933 322.839 140.734C317.746 142.115 312.78 142.633 308.103 139.475C307.245 138.896 306.093 138.56 305.048 138.49C298.683 138.061 292.317 137.693 285.942 137.403C276.28 136.96 266.608 136.685 256.95 136.158C252.791 135.929 248.654 135.248 244.373 134.758C245.828 120.393 247.297 105.855 248.831 90.6924C250.59 90.6505 252.534 90.4732 254.46 90.5898C257.906 90.7951 261.334 91.3223 264.78 91.4669C275.907 91.9428 287.043 92.26 298.17 92.7313C307.641 93.1325 317.108 93.6644 326.574 94.1356C326.22 94.7841 325.805 95.5492 325.142 96.7529C326.695 98.7264 328.37 100.845 329.96 102.86C329.964 116.595 329.964 130.246 329.964 144.583Z" fill="#F7F5F4"/>
<path d="M265.703 168.405C257.146 167.426 249.587 166.558 241.85 165.676C242.559 156.532 243.263 147.523 243.991 138.159C246.7 137.315 249.596 137.809 252.436 137.935C255.519 138.075 258.582 138.64 261.665 138.794C270.973 139.265 280.286 139.559 289.589 140.067C295.05 140.366 300.492 140.935 306.76 141.448C310.849 145.139 316.319 145.078 321.911 143.319C324.657 144.639 327.274 145.894 329.824 147.122C334.292 156.187 336.185 166.017 337.967 175.842C338.703 179.906 339.506 183.741 344.304 186.718C337.892 186.685 332.744 187.375 327.581 186.228C326.173 185.915 324.671 185.966 323.212 185.943C318.259 185.864 313.307 185.924 308.359 185.756C298.864 185.439 289.37 185.103 279.889 184.581C275.366 184.333 270.861 183.638 265.699 183.074C265.703 178.483 265.703 173.649 265.703 168.405Z" fill="#F7F5F4"/>
<path d="M252.376 40.8557C260.7 41.5602 268.124 42.2693 275.562 42.7872C279.582 43.0671 283.629 42.9831 287.659 43.1371C299.149 43.5803 310.635 44.0655 322.424 44.5461C322.531 45.1899 322.778 45.8711 322.732 46.5336C322.055 56.1398 324.256 65.3588 326.476 74.5778C327.372 78.2869 328.323 81.9866 329.041 85.7283C329.34 87.2913 329.092 88.9615 329.092 91.117C302.418 91.3596 276.084 89.6613 249.428 87.9631C249.2 84.0768 249.596 80.7829 250.109 77.3445C251.019 71.2327 251.107 64.9949 251.471 58.8085C251.802 53.0279 252.054 47.2334 252.376 40.8557Z" fill="#F7F5F4"/>
<path d="M391.819 180.111C391.963 183.013 392.103 185.742 392.267 189.004C394.239 190.94 396.464 193.091 398.66 195.269C400.717 197.304 403.211 199.016 403.468 202.076C405.007 202.534 406.201 202.883 407.665 203.317C407.516 206.308 407.371 209.187 407.203 212.513C407.814 213.441 408.719 214.804 409.773 216.399C411.433 216.703 413.205 217.025 415.089 217.37C418.195 219.777 418.293 223.71 419.505 227.06C420.41 229.556 421.296 231.833 423.781 232.677C424.971 236.676 421.552 238.01 419.808 240.744C419.724 241.579 419.757 242.881 419.426 244.084C419.104 245.255 418.409 246.328 417.817 247.574C413.933 245.806 416.19 242.839 416.269 240.007C412.403 240.007 408.789 239.895 405.184 240.049C402.848 240.147 400.535 240.828 398.198 240.912C386.498 241.327 374.798 241.64 363.093 241.971C361.297 242.022 359.497 241.98 357.212 241.98C356.82 238.313 356.196 234.926 356.144 231.53C356.004 221.816 356.093 212.093 356.093 202.31C354.116 200.243 352.162 198.204 350.217 196.165C351.136 193.86 351.859 192.041 352.6 190.179C348.72 186.676 343.231 184.912 341.38 178.94C342.966 178.786 344.183 178.567 345.395 178.562C358.42 178.539 371.449 178.586 384.474 178.516C387.09 178.502 389.511 178.87 391.819 180.111Z" fill="#F7F5F4"/>
<path d="M354.144 236.918C355.03 253.756 359.19 269.805 357.669 286.788C356.699 286.316 355.795 285.938 354.955 285.453C354.167 284.996 353.444 284.427 352.628 283.862C346.627 283.442 340.625 283.4 335.57 285.229C332.669 284.646 330.296 283.456 328.295 283.909C323.692 284.949 319.295 284.707 314.202 283.26C313.489 282.649 312.244 281.59 310.723 280.293C304.88 281.166 299.2 280.573 295.241 275.399C292.368 275.059 289.738 274.751 286.698 274.387C286.945 268.564 286.497 263.348 287.229 258.044C287.994 252.506 288.796 246.804 285.989 241.178C274.275 240.38 262.509 239.582 250.506 238.77C250.506 237.254 250.506 236.237 250.506 234.898C251.457 234.772 252.497 234.515 253.532 234.515C260.504 234.529 267.485 234.376 274.438 234.707C283.536 235.136 292.616 235.98 301.709 236.606C303.537 236.732 305.375 236.694 307.212 236.694C320.969 236.699 334.73 236.69 348.487 236.708C350.255 236.713 352.031 236.834 354.144 236.918Z" fill="#F7F5F4"/>
<path d="M48.8905 27.9369C50.7279 28.3009 52.4627 28.6414 54.2674 28.996C56.3332 25.091 58.2592 21.4612 60.1805 17.8268C60.4836 17.8782 60.7821 17.9295 61.0852 17.9808C60.7354 15.3121 60.3857 12.6435 60.1758 11.0106C61.0759 6.76029 61.78 3.4338 62.5122 0C71.0601 2.8926 80.0137 6.07913 89.0653 8.92975C98.0749 11.7664 107.192 14.2671 116.225 16.9031C112.536 31.4501 108.885 45.8431 105.261 60.1381C101.591 60.852 98.5039 59.7556 95.4914 58.4166C89.7368 55.8599 83.8377 54.5629 77.4396 54.7775C72.0021 54.9595 66.3081 54.9688 61.1365 53.5551C56.1374 52.1882 51.2455 51.479 46.1578 51.297C45.5656 51.2784 44.9966 50.5226 44.2458 49.986C44.7215 48.0079 45.1738 46.1137 45.6542 44.1215C43.8448 41.9567 42.1054 39.8759 40.282 37.6972C38.5472 37.1886 36.6726 36.6381 34.3642 35.9616C36.8824 30.9135 36.528 25.8281 36.6679 20.7614C36.8125 15.4848 37.3161 10.2128 37.8151 4.95475C37.9037 4.04498 38.7617 3.20519 39.5732 1.79621C44.4464 6.30774 49.175 10.2314 52.7052 15.4848C50.5507 19.2218 47.5988 22.5017 48.8905 27.9369Z" fill="#F7F5F4"/>
<path d="M493.363 322.353C488.234 318.317 490.388 312.219 488.14 307.745C488.984 305.142 489.768 302.734 490.635 300.056C485.347 286.886 479.112 273.911 476.156 259.788C476.09 259.476 476.337 259.103 476.524 258.468C485.286 255.426 494.445 255.02 504.075 255.645C504.35 259.812 506.174 262.592 510.403 262.317C514.712 266.479 518.709 270.44 522.817 274.279C525.349 276.645 528.129 278.744 530.656 281.119C532.61 282.957 534.531 284.683 535.595 287.492C536.495 289.876 539.013 291.649 540.547 293.394C541.219 296.954 538.962 298.918 537.46 301.587C537.46 305.823 537.46 310.381 537.46 315.219C535.352 315.448 533.412 315.662 531.206 315.905C530.544 317.487 529.854 319.129 529.005 321.154C527.546 321.154 525.927 321.102 524.314 321.163C514.106 321.536 503.893 321.942 493.363 322.353Z" fill="#F7F5F4"/>
<path d="M437.249 209.019C437.249 211.711 437.249 214.085 437.249 216.432C435.608 219.343 433.999 222.189 432.227 225.324C430.604 225.455 428.823 225.595 426.808 225.758C425.955 226.701 425.008 227.741 423.884 228.978C423.283 228.315 422.63 227.886 422.397 227.293C420.946 223.589 419.589 219.847 418.19 216.087C415.42 215.177 413.042 214.393 410.309 213.497C410.309 209.76 410.309 205.986 410.309 202.16C408.449 201.153 406.872 200.303 405.366 199.487C402.936 194.7 398.469 191.966 394.822 188.374C394.622 185.341 394.417 182.267 394.141 178.1C395.783 175.161 397.961 171.261 400.162 167.314C399.411 166.334 398.875 165.63 398.296 164.874C400.605 162.961 403.221 161.314 405.133 159.065C407.105 156.751 409.027 154.031 407.157 149.953C406.331 148.974 405.04 147.443 403.529 145.652C413.005 144.933 422.191 144.234 431.84 143.501C433.458 146.305 435.365 149.184 436.806 152.282C437.697 154.19 438.299 156.434 438.285 158.519C438.252 164.925 439.385 171.149 440.173 177.461C440.807 182.523 442.393 187.8 440.686 193.044C440.472 193.706 440.397 194.612 440.672 195.213C443.153 200.597 440.364 204.703 437.249 209.019Z" fill="#F7F5F4"/>
<path d="M390.868 131.068C390.961 132.486 391.133 133.377 391.059 134.249C390.695 138.369 392.201 141.392 396.095 143.025C400.194 144.742 402.204 148.619 405.226 151.353C405.38 155.683 403.333 158.543 399.98 160.442C397.839 161.655 395.881 162.816 395.317 165.634C395.699 166.623 396.147 167.776 396.632 169.031C394.892 171.643 393.195 174.191 391.614 176.556C388.988 176.383 386.484 176.085 383.98 176.076C369.883 176.029 355.785 176.052 341.795 176.052C338.526 173.943 339.356 170.295 338.811 167.524C337.687 161.785 336.087 156.257 334.082 150.812C331.923 144.952 333.084 139.004 332.926 132.78C334.889 132.593 336.297 132.355 337.706 132.337C346.128 132.239 354.554 132.309 362.972 132.094C370.806 131.898 378.636 131.408 386.47 131.068C387.734 131.021 389.007 131.068 390.868 131.068Z" fill="#F7F5F4"/>
<path d="M568.163 399.954C565.855 400.542 564.102 400.989 562.166 401.484C557.494 400.635 555.404 396.455 552.103 393.053C550.876 392.881 549.272 392.652 547.365 392.382C546.456 389.932 545.714 387.32 544.534 384.926C543.438 382.701 541.871 380.709 540.067 377.919C539.703 377.821 538.523 377.508 537.133 377.139C536.308 375.959 535.371 374.62 534.536 373.43C533.944 369.908 535.361 366.185 532.302 363.101C530.721 362.998 528.935 362.882 526.576 362.728C527.933 357.6 530.339 352.636 528.166 348.568C522.146 343.861 516.988 339.82 511.826 335.794C508.906 333.517 505.525 333.139 501.543 333.419C499.043 336.204 496.353 339.2 493.928 341.901C491.941 341.901 490.705 341.901 489.348 341.901C487.683 339.186 486.075 336.564 484.377 333.797C476.03 330.821 467.51 330.429 458.659 333.004C457.74 330.988 456.854 329.034 455.735 326.566C461.298 324.587 466.666 324.317 471.987 323.706C477.396 323.085 482.773 322.213 488.234 321.438C489.581 322.525 490.845 323.547 492.491 324.872C505.246 324.377 518.345 323.874 531.724 323.356C532.036 321.653 532.321 320.085 532.643 318.331C534.363 318.331 535.958 318.331 537.763 318.331C537.936 318.616 538.304 319.026 538.458 319.511C539.614 323.15 540.57 326.864 541.909 330.433C542.66 332.439 543.905 334.296 545.145 336.069C546.819 338.458 548.703 340.702 550.499 343.007C552.802 345.965 554.546 349.123 553.912 353.089C558.622 359.672 563.29 366.19 568.159 372.992C568.028 381.842 571.185 391.01 568.163 399.954Z" fill="#F7F5F4"/>
<path d="M431.886 140.389C429.704 140.954 428.319 141.542 426.901 141.64C420.172 142.115 413.41 142.209 406.714 142.927C401.5 143.482 397.452 141.747 393.54 137.833C393.54 134.935 393.516 131.66 393.544 128.38C393.572 125.086 392.411 122.422 389.907 120.178C385.565 116.287 381.583 111.916 375.287 110.796C374.597 105.995 373.907 101.19 373.007 94.9194C373.058 93.3144 376.061 92.7172 378.141 90.8511C378.141 87.8978 378.141 84.8232 378.141 81.912C382.884 78.2496 387.673 76.9386 393.176 78.7021C394.892 79.2526 396.729 79.4113 398.884 79.8218C400.493 81.6227 402.307 83.6569 403.622 85.1312C407.73 86.1342 411.214 87.1327 414.763 87.7952C417.076 88.2244 419.477 88.1637 422.438 88.3643C423.679 89.4981 425.288 90.9677 426.915 92.4513C427.615 95.8664 428.305 99.2443 429.009 102.692C426.775 106.41 426.775 106.41 427.848 112.102C429.704 110.427 431.42 108.879 433.547 106.956C434.311 110.162 433.388 113.087 432.25 115.303C429.513 120.64 430.776 126.024 430.972 131.422C431.08 134.291 431.546 137.156 431.886 140.389Z" fill="#F7F5F4"/>
<path d="M357.613 244.546C359.772 244.546 361.596 244.588 363.419 244.542C376.374 244.192 389.329 243.93 402.274 243.394C405.65 243.254 408.947 241.705 411.955 242.498C413.266 245.61 414.422 248.358 415.779 251.587C412.739 254.432 414.455 258.687 413.681 263.26C413.41 263.456 412.725 264.095 411.923 264.501C409.484 265.742 408.542 267.818 408.77 270.365C409.05 273.51 407.973 276.066 406.019 278.408C405.324 279.244 404.886 280.289 404.2 281.133C401.934 283.918 401.551 286.942 402.484 290.38C402.992 292.26 402.908 294.299 403.109 296.478C398.133 297 393.488 297.761 388.82 297.919C381.728 298.162 374.616 297.98 367.08 297.98C367.08 294.742 367.08 291.887 367.08 288.71C364.8 288.374 362.902 288.089 361.255 287.847C360.048 273.505 358.854 259.289 357.613 244.546Z" fill="#F7F5F4"/>
<path d="M485.73 306.821C486.522 311.263 487.157 314.809 487.865 318.788C476.286 321.093 464.693 321.886 452.69 323.902C453.767 327.317 454.77 330.513 455.767 333.676C452.904 336.125 449.719 337.156 445.732 336.368C445.606 335.663 445.382 334.819 445.312 333.96C444.575 325.255 443.843 316.544 443.167 307.829C443.027 306.005 443.111 304.162 443.102 302.328C443.036 293.525 443.078 284.721 442.869 275.922C442.775 271.942 442.197 267.976 441.819 263.787C452.349 262.247 462.548 260.759 473.19 259.205C474.048 262.205 474.953 265.49 475.936 268.751C478.413 276.957 481.351 284.987 485.072 292.727C487.324 297.42 489.134 302.188 485.73 306.821Z" fill="#F7F5F4"/>
<path d="M411.218 268.317C412.827 267.02 414.24 265.877 415.994 264.463C423.324 264.463 430.996 264.463 439.171 264.463C439.558 267.822 440.215 271.363 440.332 274.923C440.556 282.061 440.355 289.214 440.565 296.352C440.812 304.558 441.213 312.76 441.745 320.948C442.094 326.384 442.789 331.796 443.349 337.413C442.444 339.671 440.481 340.1 438.075 340.007C435.999 339.923 433.663 339.33 431.98 342.046C428.571 336.993 425.022 332.29 424.024 325.903C416.521 327.237 409.208 328.324 401.202 327.55C401.598 322.637 401.691 317.883 405.51 314.053C408.057 311.496 407.959 311.398 409.013 307.05C408.038 305.445 406.914 303.597 405.967 302.044C405.473 296.123 405.002 290.506 404.55 285.052C406.788 281.679 408.901 278.488 411.228 274.979C411.218 272.922 411.218 270.561 411.218 268.317Z" fill="#F7F5F4"/>
<path d="M523.423 225.754C529.938 224.559 535.655 223.533 541.368 222.455C552.429 220.365 563.439 217.944 574.561 216.269C579.873 215.471 584.751 213.558 589.839 212.214C590.86 211.944 591.881 211.664 593.224 211.3C594.283 216.553 589.12 216.259 587.148 218.844C587.204 219.353 587.283 220.034 587.348 220.636C590.986 222.628 595.798 219.306 598.848 223.836C596.358 228.264 590.804 226.211 587.558 228.922C587.498 232.537 591.065 233.848 592.576 236.993C589.703 238.817 586.775 240.427 584.14 242.419C581.519 244.402 579.192 246.772 577.331 248.437C577 251.111 576.805 252.711 576.599 254.334C574.753 255.062 572.967 255.543 571.409 256.425C568.303 258.183 565.808 257.241 563.472 255.048C562.134 253.793 560.828 252.51 559.49 251.26C554.574 246.669 546.502 245.815 540.762 249.286C540.025 249.734 539.349 250.285 538.728 250.733C537.539 248.447 536.495 246.45 535.622 244.766C531.883 245.022 528.8 245.596 525.778 245.372C519.59 244.915 514.166 246.935 509.303 250.285C506.383 252.296 503.506 253.112 500.092 252.925C497.378 252.781 494.65 252.897 491.321 252.897C492.939 249.202 495.429 247.35 498.358 245.932C499.654 245.302 501.249 245.003 502.238 244.061C507.568 238.99 514.372 236.116 520.219 231.828C522.267 230.317 524.016 228.964 523.423 225.754Z" fill="#F7F5F4"/>
<path d="M371.151 349.52C372.126 345.046 373.651 341.136 371.347 337.333C372.597 335.117 373.744 333.074 375.157 330.569C369.234 321.737 364.935 312.242 367.616 300.513C371.016 300.513 374.625 300.611 378.23 300.495C386.242 300.229 394.249 299.856 402.022 299.538C403.449 302.202 404.783 304.694 406.457 307.81C405.963 308.734 405.529 310.479 404.419 311.482C398.945 316.446 398.595 322.856 398.627 329.841C406.639 331.394 414.348 329.491 422.294 329.062C422.499 330.065 422.704 330.918 422.849 331.786C422.97 332.5 423.021 333.223 423.012 333.158C425.81 337.32 428.179 340.856 430.823 344.789C430.231 345.811 429.322 346.963 428.869 348.274C428.417 349.58 428.412 351.05 428.179 352.692C430.912 353.555 433.304 354.311 436.018 355.17C435.883 356.089 435.734 357.064 435.575 358.156C430.609 357.932 428.184 353.415 423.772 351.927C423.297 353.471 422.9 354.759 422.364 356.499C420.023 356.196 417.738 355.897 415.075 355.552C414.613 355.753 413.788 356.121 412.953 356.476C408.994 358.16 407.063 357.647 404.415 354.428C402.708 352.347 400.847 350.392 399.388 348.755C395.279 350.024 391.866 351.073 388.191 352.207C383.285 348.512 377.381 350.224 371.151 349.52Z" fill="#F7F5F4"/>
<path d="M520.485 139.33C522.957 136.881 525.032 134.828 527.093 132.789C527.312 133.778 527.574 134.935 527.909 136.428C535.87 134.492 543.518 132.183 551.338 130.867C557.717 129.794 563.579 127.722 569.46 125.217C572.999 123.71 576.972 124.041 580.88 125.562C581.608 126.943 582.358 128.376 583.305 130.172C584.541 130.573 586.061 131.063 587.903 131.66C587.283 133.666 586.658 135.691 586.043 137.679C586.467 140.025 586.887 142.344 587.353 144.938C588.551 146.23 589.909 147.705 591.513 149.44C589.428 152.216 587.372 154.95 585.408 157.563C570.737 161.375 556.351 165.261 541.881 168.783C537.53 169.842 532.936 169.894 528.609 170.388C525.578 164.762 525.498 158.809 524.785 153.145C524.146 148.125 522.756 143.599 520.485 139.33Z" fill="#F7F5F4"/>
<path d="M575.415 74.6898C580.106 73.2948 583.912 72.1705 587.838 71.0041C589.317 77.2418 590.771 83.3676 592.427 90.3379C594.404 91.5649 595.346 94.2849 595.915 97.4387C596.349 99.8601 597.673 102.118 599.063 105.594C599.021 113.441 598.266 122.646 602.7 131.725C596.218 131.875 591.028 128.823 585.287 128.348C584.616 126.682 584.014 125.194 583.361 123.579C581.505 123.062 579.626 122.25 577.681 122.063C574.039 121.709 570.299 121.606 566.946 123.398C562.064 126.006 556.855 127.345 551.445 128.352C545.574 129.444 539.82 131.152 534.005 132.551C532.955 132.803 531.855 132.859 530.721 133.018C528.94 130.508 530.302 128.889 532.079 127.396C534.005 125.777 535.958 124.195 537.912 122.59C536.779 119.045 535.795 115.951 534.751 112.676C541.111 111.958 547.817 113.474 553.6 110.278C557.368 108.197 560.553 105.062 563.836 102.524C563.836 99.4262 563.836 96.8882 563.836 94.1169C563.006 93.1558 562.059 92.0641 561.015 90.8604C565.906 85.3598 570.761 79.9152 575.415 74.6898Z" fill="#F7F5F4"/>
<path d="M513.36 182.724C513.173 184.212 513.01 185.463 512.81 187.058C507.661 188.089 509.158 193.357 507.032 196.515C503.515 197.499 502.797 193.473 499.831 192.633C495.639 197.35 490.556 193.487 485.468 193.538C484.727 192.713 483.883 191.775 482.95 190.744C481.234 190.221 479.369 189.657 477.499 189.088C475.615 176.388 473.777 164.011 471.907 151.39C476.832 149.702 482.003 148.955 487.259 148.694C488.145 148.647 489.176 148.726 489.922 149.137C496.898 152.991 503.054 149.814 509.079 146.776C512.138 145.232 514.819 142.941 517.753 140.94C520.565 142.549 521.017 145.465 521.577 147.966C523.176 155.132 523.638 162.457 522.901 169.768C522.472 174.046 520.868 177.904 516.834 180.265C515.594 180.979 514.479 181.921 513.36 182.724Z" fill="#F7F5F4"/>
<path d="M426.808 237.207C426.552 231.721 426.552 231.721 427.904 228.329C429.564 228.194 431.355 228.044 433.677 227.853C435.976 224.144 438.448 220.16 440.793 216.381C445.611 215.826 450.111 215.219 454.625 214.822C457.241 214.594 458.715 213.474 458.663 210.689C461.97 212.69 461.97 212.69 464.978 211.645C466.834 208.015 468.634 204.479 470.476 200.873C472.998 200.191 475.782 200.126 477.121 196.846C477.181 195.736 477.27 194.108 477.363 192.465C480.427 191.98 482.32 193.776 483.855 195.797C489.423 196.459 494.692 198.727 500.298 196.123C501.464 197.098 502.704 198.134 504.131 199.328C504.434 204.964 508.505 207.955 513.215 210.665C509.638 215.896 505.287 220.034 500.759 223.967C498.847 225.628 496.586 226.906 494.408 228.231C493.335 228.884 492.132 229.537 490.92 229.701C484.251 230.582 477.513 231.021 470.895 232.155C460.711 233.9 450.325 234.147 440.266 237.012C436.219 238.169 431.574 237.207 426.808 237.207Z" fill="#F7F5F4"/>
<path d="M474.104 113.637C474.486 116.661 475.358 119.138 479.238 119.665C481.933 116.642 484.825 113.404 488.038 109.798C488.807 110.885 489.698 111.617 489.889 112.504C490.747 116.427 491.815 120.23 493.55 123.901C495.247 127.484 494.79 131.007 491.871 133.993C490.211 135.691 488.621 137.464 486.886 139.321C486.886 141.308 486.886 143.305 486.886 145.629C484.13 146.202 481.514 146.748 478.898 147.28C478.543 147.35 478.123 147.229 477.806 147.359C471.338 150.037 464.507 149.184 457.791 149.562C455.171 149.711 452.592 150.639 449.467 151.33C453.767 141.906 455.245 132.878 448.511 124.419C448.535 119.74 447.723 115.228 450.087 110.843C451.043 109.07 450.647 106.569 450.899 104.054C452.321 103.774 453.86 103.476 455.716 103.112C457.819 98.6657 459.456 93.9209 459.871 88.7656C462.054 86.8667 464.054 86.6335 466.773 88.2244C470.033 90.1326 473.74 91.2849 477.582 92.9039C476.762 96.9862 481.672 100.033 479.056 106.117C478.049 107.656 476.039 110.698 474.104 113.637Z" fill="#F7F5F4"/>
<path d="M416.665 261.823C416.665 259.261 416.665 257.274 416.665 255.291C416.833 255.361 416.996 255.431 417.164 255.501C419.146 250.663 421.123 245.82 423.278 240.567C424.141 240.455 425.386 240.081 426.589 240.179C434.521 240.833 442.169 239.172 449.85 237.581C453.93 236.736 458.094 236.298 462.231 235.738C469.795 234.711 477.359 233.699 484.932 232.752C487.469 232.435 490.034 232.351 492.776 232.15C496.856 228.077 502.536 229.113 507.615 228.058C511.849 227.181 516.2 226.859 521.138 226.211C520.383 227.335 520.01 228.296 519.315 228.852C516.484 231.1 513.812 233.531 510.315 234.917C508.356 235.691 506.803 237.45 505.017 238.696C502.489 240.459 500.111 242.638 497.318 243.786C492.944 245.582 490.206 248.596 488.243 253.243C465.015 258.146 441.446 262.499 416.665 261.823Z" fill="#F7F5F4"/>
<path d="M541.914 192.204C548.601 187.912 553.656 182.043 556.403 173.892C558.137 174.755 559.527 175.446 560.921 176.136C565.184 174.872 565.184 174.872 570.346 177.027C570.257 178.016 570.229 179.085 570.043 180.125C569.889 180.993 569.544 181.833 569.301 182.621C571.899 187.436 577.537 187.38 581.16 190.683C580.964 191.257 580.745 191.892 580.396 192.909C581.263 194.364 582.261 196.044 583.259 197.719C582.695 198.866 582.135 200.005 581.403 201.502C582.667 202.874 583.991 204.311 585.143 205.557C590.249 206.075 590.249 206.075 592.604 208.123C587.885 210.74 582.937 212.247 577.882 213.227C564.899 215.742 551.874 218.07 538.854 220.393C531.011 221.793 523.144 223.057 515.281 224.354C510.828 225.091 506.365 225.772 502.401 226.402C506.561 221.97 510.888 217.36 515.398 212.546C519.977 216.082 524.752 215.471 529.5 212.681C532.158 211.118 534.788 209.508 537.521 207.862C537.521 205.3 537.521 202.949 537.521 201.279C539.106 198.022 540.361 195.423 541.914 192.204Z" fill="#F7F5F4"/>
<path d="M446.18 156.28C453.482 150.845 461.48 152.006 469.841 152.165C470.807 167.477 475.479 181.856 474.71 196.991C473.348 197.364 472.514 197.663 471.656 197.803C470.765 197.952 469.846 197.943 468.927 198.008C466.908 201.922 464.936 205.757 462.795 209.91C460.921 209.634 459.307 206.607 456.448 208.585C456.215 209.518 455.921 210.698 455.567 212.107C450.433 212.732 445.396 213.343 440.225 213.969C439.101 211.659 439.744 209.406 441.148 207.507C443.951 203.723 445.284 199.823 443.284 195.246C443.074 194.77 442.957 194.061 443.158 193.636C445.485 188.789 442.584 184.002 442.99 179.15C443.209 176.519 442.556 173.691 441.745 171.121C440.266 166.427 441.143 161.739 440.938 156.662C442.752 156.532 444.333 156.415 446.18 156.28Z" fill="#F7F5F4"/>
<path d="M627.104 87.0673C621.489 80.9649 619.311 73.8593 617.105 66.7725C616.676 65.3915 616.495 63.9218 615.996 62.5689C614.503 58.5612 614.685 54.7822 617.124 51.1617C618.341 49.3562 617.889 47.4154 617.637 45.3625C616.695 37.7578 615.678 30.0877 619.274 22.7956C619.512 22.315 619.861 21.8858 620.416 21.046C621.843 21.2886 623.396 21.5592 625.36 21.8951C626.968 20.7288 628.885 19.3431 631.072 17.7662C632.037 17.8688 633.273 18.0041 634.369 18.1207C637.428 22.6369 639.042 27.4051 639.811 32.5231C640.357 36.1249 641.639 39.2228 645.822 40.0205C648.322 40.5011 648.984 42.8152 650.206 44.882C652.113 45.7498 654.202 46.7015 657 47.9799C652.925 52.748 648.975 56.7277 644.591 60.2175C642.092 62.2143 639.793 63.9778 639.485 67.5376C639.373 68.8253 638.17 70.113 637.246 71.2187C635.838 72.9029 634.257 74.4472 632.709 76.0101C628.255 80.5077 628.251 80.503 627.104 87.0673Z" fill="#F7F5F4"/>
<path d="M507.479 258.991C507.265 257.661 507.074 256.448 506.859 255.114C509.046 253.583 510.982 251.796 513.253 250.751C516.68 249.174 520.094 247.416 524.193 247.835C527.611 248.185 531.095 247.905 534.839 247.905C535.086 249.594 535.31 251.143 535.576 252.949C537.25 253.037 538.663 253.112 540.034 253.182C541.279 252.146 542.398 251.213 543.732 250.103C547.197 250.103 550.839 250.103 554.57 250.103C556.608 252.039 558.524 254.008 560.604 255.795C562.535 257.451 564.638 258.907 566.755 260.521C565.226 262.597 563.607 264.794 561.751 267.323C561.654 268.588 561.528 270.216 561.383 272.115C560.688 272.637 559.732 273.192 558.986 273.953C556.734 276.244 553.679 277.961 553.754 281.908C553.768 282.747 552.499 283.61 551.734 284.567C550.135 284.739 548.521 284.907 546.353 285.141C545.448 287.385 544.469 289.815 543.401 292.456C540.78 289.54 538.183 286.928 536.271 283.452C534.662 280.527 531.664 278.273 529.015 276.029C524.011 271.783 518.392 268.196 514.722 262.578C513.024 259.98 510.268 259.709 507.479 258.991Z" fill="#F7F5F4"/>
<path d="M519.1 211.832C515.472 207.787 507.918 207.017 506.724 199.272C510.8 197.621 510.193 193.338 512.017 190.156C513.043 189.713 514.181 189.228 515.379 188.71C515.519 187.147 515.645 185.714 515.803 183.9C519.987 181.016 524.874 178.334 524.738 171.569C529.63 174.648 534.21 170.981 539.116 172.105C539.96 174.639 540.86 177.326 541.83 180.242C542.562 179.925 543.163 179.859 543.411 179.528C546.143 175.861 549.025 172.688 553.684 171.037C557.415 169.712 557.191 169.077 560.651 172.688C557.265 171.139 554.659 172.026 551.791 173.332C552.061 174.779 552.318 176.141 552.593 177.583C548.559 182.411 545.43 188.215 539.409 190.525C538.229 193.38 537.012 195.82 536.22 198.391C535.483 200.775 535.203 203.299 534.606 206.369C530.516 209.019 526.548 213.558 519.1 211.832Z" fill="#F7F5F4"/>
<path d="M454.49 80.3397C449.63 81.982 446.254 83.1203 442.426 84.408C440.863 85.6537 438.788 87.3006 435.762 89.708C434.745 91.201 433.006 93.753 431.052 96.6223C430.138 92.7173 428.45 89.5447 425.181 87.4919C424.108 86.8154 423.003 85.9476 421.814 85.747C416.283 84.8139 410.72 84.0814 405.1 83.2696C404.13 81.9446 403.179 80.6476 402.064 79.1313C405.66 77.3071 409.246 75.9401 412.3 73.808C415.206 71.7832 417.561 68.9606 421.138 65.5594C419.692 69.1892 417.155 71.2607 419.216 74.5078C421.357 76.1688 423.735 73.92 426.547 73.9807C428.011 75.1797 429.69 76.556 431.625 78.1469C434.824 78.1469 438.28 78.1469 440.332 78.1469C445.681 75.5902 449.892 73.5841 454.112 71.5686C454.728 72.8936 455.105 73.7007 455.74 75.0677C458.78 74.8904 461.988 74.7038 465.57 74.4985C466.582 75.7209 467.547 77.3725 465.962 79.7192C461.881 80.433 457.679 81.3754 454.49 80.3397Z" fill="#F7F5F4"/>
<path d="M596.745 89.6894C595.742 89.1761 594.959 88.7796 594.716 88.6536C593.173 82.2712 591.737 76.3461 590.328 70.5235C598.452 66.7351 600.891 66.1333 606.487 66.4925C607.993 68.8673 608.38 71.2653 607.196 74.1253C606.319 76.2481 606.025 78.6508 605.713 80.9602C605.298 84.0115 604.924 87.0907 604.892 90.1652C604.873 92.1201 605.47 94.0889 605.871 96.0344C606.16 97.4341 606.589 98.8057 607.032 100.481C604.896 101.162 603.059 101.745 601.24 102.324C597.379 98.7871 597.939 94.1169 596.745 89.6894Z" fill="#F7F5F4"/>
<path d="M625.336 93.8416C619.983 95.9831 614.96 97.9939 609.691 100.103C608.795 96.8369 607.988 93.8836 607.419 91.8028C607.741 87.8652 608.082 84.7999 608.212 81.7254C608.329 78.9914 608.264 76.3461 609.728 73.7847C610.451 72.5157 610.334 70.6308 610.213 69.0492C610.031 66.7445 609.504 64.4677 609.136 62.247C610.362 61.1226 611.262 60.2968 612.134 59.499C612.6 59.8816 613.015 60.0495 613.09 60.3108C614.242 64.3184 615.417 68.3168 616.452 72.3524C617.791 77.5544 620.234 82.1733 623.349 86.5075C625.569 89.596 625.476 89.666 625.336 93.8416Z" fill="#F7F5F4"/>
<path d="M578.064 166.787C576.236 171.709 576.986 175.324 579.071 183.148C576.697 183.9 574.501 183.755 572.132 182.057C572.393 180.867 572.999 179.505 572.892 178.203C572.78 176.822 571.997 175.497 571.554 174.275C566.722 172.973 561.873 172.161 560.091 166.805C568 164.757 575.9 162.714 584.299 160.539C586.714 166.619 586.999 173.001 588.589 179.309C590.832 179.505 592.958 179.687 595.379 179.897C595.379 181.119 595.379 182.313 595.379 183.788C593.961 184.357 592.492 184.949 591.312 185.421C583.79 181.53 582.121 173.552 578.064 166.787Z" fill="#F7F5F4"/>
<path d="M601.921 113.315C601.921 110.465 601.921 107.969 601.921 105.025C605.885 103.742 610.101 102.282 614.377 101.026C618.644 99.7761 622.393 96.7389 627.439 97.0468C627.574 98.6517 627.691 100.056 627.864 102.142C630.41 104.278 633.32 106.718 636.164 109.107C638.039 109.107 639.671 109.107 642.087 109.107C640.054 110.838 638.524 112.14 637.078 113.371C637.172 114.412 637.242 115.238 637.414 117.169C635.763 115.653 634.835 114.804 634.812 114.78C630.466 112.182 627.113 110.171 623.513 108.02C616.676 109.7 609.485 111.463 601.921 113.315Z" fill="#F7F5F4"/>
<path d="M601.959 135.029C600.233 137.403 599.1 138.957 598.018 140.445C603.633 149.52 602.071 157.847 596.255 166.166C594.903 165.331 593.723 164.533 592.483 163.852C591.378 163.245 590.207 162.77 588.747 162.093C588.444 161.258 588.02 160.101 587.614 158.977C589.993 155.655 592.31 152.417 594.698 149.076C593.047 147.322 591.55 145.736 589.955 144.042C589.475 142.069 588.967 139.969 588.412 137.683C589.107 135.999 589.843 134.203 590.753 131.991C594.399 132.98 597.813 133.904 601.959 135.029Z" fill="#F7F5F4"/>
<path d="M601.879 116.017C607.657 114.673 613.412 113.334 619.432 111.934C620.174 115.345 620.785 118.149 621.461 121.265C614.816 122.674 610.567 127.736 604.556 130.596C603.693 125.674 600.835 121.41 601.879 116.017Z" fill="#F7F5F4"/>
<path d="M589.288 169.87C591.965 172.278 594.241 174.326 597.095 176.897C594.693 177.009 593.01 177.088 590.902 177.186C590.356 174.718 589.848 172.413 589.288 169.87Z" fill="#F7F5F4"/>
<path d="M621.54 111.118C627.052 112.793 627.775 114.855 624.66 118.671C621.862 117.085 623.042 113.903 621.54 111.118Z" fill="#F7F5F4"/>
<path fill-rule="evenodd" clip-rule="evenodd" d="M8 166.494C8 162.351 11.3536 159 15.5 159C19.6464 159 23 162.351 23 166.494C23 172.115 15.5 180.411 15.5 180.411C15.5 180.411 8 172.115 8 166.494ZM12.8214 166.494C12.8214 165.016 14.0207 163.818 15.5 163.818C16.457 163.818 17.3412 164.328 17.8197 165.156C18.2982 165.984 18.2982 167.004 17.8197 167.832C17.3412 168.66 16.457 169.17 15.5 169.17C14.0207 169.17 12.8214 167.972 12.8214 166.494Z" fill="black"/>
<path fill-rule="evenodd" clip-rule="evenodd" d="M119.607 231.555C119.607 227.412 122.961 224.061 127.107 224.061C131.254 224.061 134.607 227.412 134.607 231.555C134.607 237.176 127.107 245.473 127.107 245.473C127.107 245.473 119.607 237.176 119.607 231.555ZM124.429 231.555C124.429 230.077 125.628 228.879 127.107 228.879C128.064 228.879 128.948 229.389 129.427 230.217C129.905 231.045 129.905 232.065 129.427 232.893C128.948 233.721 128.064 234.232 127.107 234.232C125.628 234.232 124.429 233.033 124.429 231.555Z" fill="black"/>
<path fill-rule="evenodd" clip-rule="evenodd" d="M72 157.494C72 153.351 75.3536 150 79.5 150C83.6464 150 87 153.351 87 157.494C87 163.115 79.5 171.411 79.5 171.411C79.5 171.411 72 163.115 72 157.494ZM76.8214 157.494C76.8214 156.016 78.0207 154.818 79.5 154.818C80.457 154.818 81.3412 155.328 81.8197 156.156C82.2982 156.984 82.2982 158.004 81.8197 158.832C81.3412 159.66 80.457 160.17 79.5 160.17C78.0207 160.17 76.8214 158.972 76.8214 157.494Z" fill="black"/>
<path fill-rule="evenodd" clip-rule="evenodd" d="M498 275.494C498 271.351 501.354 268 505.5 268C509.646 268 513 271.351 513 275.494C513 281.115 505.5 289.411 505.5 289.411C505.5 289.411 498 281.115 498 275.494ZM502.821 275.494C502.821 274.016 504.021 272.818 505.5 272.818C506.457 272.818 507.341 273.328 507.82 274.156C508.298 274.984 508.298 276.004 507.82 276.832C507.341 277.66 506.457 278.17 505.5 278.17C504.021 278.17 502.821 276.972 502.821 275.494Z" fill="black"/>
<path fill-rule="evenodd" clip-rule="evenodd" d="M364 253.494C364 249.351 367.354 246 371.5 246C375.646 246 379 249.351 379 253.494C379 259.115 371.5 267.411 371.5 267.411C371.5 267.411 364 259.115 364 253.494ZM368.821 253.494C368.821 252.016 370.021 250.818 371.5 250.818C372.457 250.818 373.341 251.328 373.82 252.156C374.298 252.984 374.298 254.004 373.82 254.832C373.341 255.66 372.457 256.17 371.5 256.17C370.021 256.17 368.821 254.972 368.821 253.494Z" fill="black"/>
<path fill-rule="evenodd" clip-rule="evenodd" d="M451 280.494C451 276.351 454.354 273 458.5 273C462.646 273 466 276.351 466 280.494C466 286.115 458.5 294.411 458.5 294.411C458.5 294.411 451 286.115 451 280.494ZM455.821 280.494C455.821 279.016 457.021 277.818 458.5 277.818C459.457 277.818 460.341 278.328 460.82 279.156C461.298 279.984 461.298 281.004 460.82 281.832C460.341 282.66 459.457 283.17 458.5 283.17C457.021 283.17 455.821 281.972 455.821 280.494Z" fill="black"/>
<path fill-rule="evenodd" clip-rule="evenodd" d="M530 328.494C530 324.351 533.354 321 537.5 321C541.646 321 545 324.351 545 328.494C545 334.115 537.5 342.411 537.5 342.411C537.5 342.411 530 334.115 530 328.494ZM534.821 328.494C534.821 327.016 536.021 325.818 537.5 325.818C538.457 325.818 539.341 326.328 539.82 327.156C540.298 327.984 540.298 329.004 539.82 329.832C539.341 330.66 538.457 331.17 537.5 331.17C536.021 331.17 534.821 329.972 534.821 328.494Z" fill="black"/>
<path fill-rule="evenodd" clip-rule="evenodd" d="M542 131.494C542 127.351 545.354 124 549.5 124C553.646 124 557 127.351 557 131.494C557 137.115 549.5 145.411 549.5 145.411C549.5 145.411 542 137.115 542 131.494ZM546.821 131.494C546.821 130.016 548.021 128.818 549.5 128.818C550.457 128.818 551.341 129.328 551.82 130.156C552.298 130.984 552.298 132.004 551.82 132.832C551.341 133.66 550.457 134.17 549.5 134.17C548.021 134.17 546.821 132.972 546.821 131.494Z" fill="black"/>
<path fill-rule="evenodd" clip-rule="evenodd" d="M546.018 182.07C546.018 177.927 549.371 174.576 553.518 174.576C557.664 174.576 561.018 177.927 561.018 182.07C561.018 187.691 553.518 195.988 553.518 195.988C553.518 195.988 546.018 187.691 546.018 182.07ZM550.839 182.07C550.839 180.592 552.038 179.394 553.518 179.394C554.475 179.394 555.359 179.904 555.838 180.732C556.316 181.56 556.316 182.581 555.838 183.409C555.359 184.237 554.475 184.747 553.518 184.747C552.038 184.747 550.839 183.549 550.839 182.07Z" fill="black"/>
<path fill-rule="evenodd" clip-rule="evenodd" d="M565 152.494C565 148.351 568.354 145 572.5 145C576.646 145 580 148.351 580 152.494C580 158.115 572.5 166.411 572.5 166.411C572.5 166.411 565 158.115 565 152.494ZM569.821 152.494C569.821 151.016 571.021 149.818 572.5 149.818C573.457 149.818 574.341 150.328 574.82 151.156C575.298 151.984 575.298 153.004 574.82 153.832C574.341 154.66 573.457 155.17 572.5 155.17C571.021 155.17 569.821 153.972 569.821 152.494Z" fill="black"/>
<path fill-rule="evenodd" clip-rule="evenodd" d="M530 247.494C530 243.351 533.354 240 537.5 240C541.646 240 545 243.351 545 247.494C545 253.115 537.5 261.411 537.5 261.411C537.5 261.411 530 253.115 530 247.494ZM534.821 247.494C534.821 246.016 536.021 244.818 537.5 244.818C538.457 244.818 539.341 245.328 539.82 246.156C540.298 246.984 540.298 248.004 539.82 248.832C539.341 249.66 538.457 250.17 537.5 250.17C536.021 250.17 534.821 248.972 534.821 247.494Z" fill="black"/>
<path fill-rule="evenodd" clip-rule="evenodd" d="M456 220.494C456 216.351 459.354 213 463.5 213C467.646 213 471 216.351 471 220.494C471 226.115 463.5 234.411 463.5 234.411C463.5 234.411 456 226.115 456 220.494ZM460.821 220.494C460.821 219.016 462.021 217.818 463.5 217.818C464.457 217.818 465.341 218.328 465.82 219.156C466.298 219.984 466.298 221.004 465.82 221.832C465.341 222.66 464.457 223.17 463.5 223.17C462.021 223.17 460.821 221.972 460.821 220.494Z" fill="black"/>
<path fill-rule="evenodd" clip-rule="evenodd" d="M486 152.494C486 148.351 489.354 145 493.5 145C497.646 145 501 148.351 501 152.494C501 158.115 493.5 166.411 493.5 166.411C493.5 166.411 486 158.115 486 152.494ZM490.821 152.494C490.821 151.016 492.021 149.818 493.5 149.818C494.457 149.818 495.341 150.328 495.82 151.156C496.298 151.984 496.298 153.004 495.82 153.832C495.341 154.66 494.457 155.17 493.5 155.17C492.021 155.17 490.821 153.972 490.821 152.494Z" fill="black"/>
<path fill-rule="evenodd" clip-rule="evenodd" d="M205 180.494C205 176.351 208.354 173 212.5 173C216.646 173 220 176.351 220 180.494C220 186.115 212.5 194.411 212.5 194.411C212.5 194.411 205 186.115 205 180.494ZM209.821 180.494C209.821 179.016 211.021 177.818 212.5 177.818C213.457 177.818 214.341 178.328 214.82 179.156C215.298 179.984 215.298 181.004 214.82 181.832C214.341 182.66 213.457 183.17 212.5 183.17C211.021 183.17 209.821 181.972 209.821 180.494Z" fill="black"/>
<path fill-rule="evenodd" clip-rule="evenodd" d="M193 112.494C193 108.351 196.354 105 200.5 105C204.646 105 208 108.351 208 112.494C208 118.115 200.5 126.411 200.5 126.411C200.5 126.411 193 118.115 193 112.494ZM197.821 112.494C197.821 111.016 199.021 109.818 200.5 109.818C201.457 109.818 202.341 110.328 202.82 111.156C203.298 111.984 203.298 113.004 202.82 113.832C202.341 114.66 201.457 115.17 200.5 115.17C199.021 115.17 197.821 113.972 197.821 112.494Z" fill="black"/>
<path fill-rule="evenodd" clip-rule="evenodd" d="M63 14.494C63 10.3509 66.3536 7 70.5 7C74.6464 7 78 10.3509 78 14.494C78 20.1145 70.5 28.4115 70.5 28.4115C70.5 28.4115 63 20.1145 63 14.494ZM67.8214 14.494C67.8214 13.0159 69.0207 11.8176 70.5 11.8176C71.457 11.8176 72.3412 12.3277 72.8197 13.1558C73.2982 13.9839 73.2982 15.0041 72.8197 15.8322C72.3412 16.6603 71.457 17.1704 70.5 17.1704C69.0207 17.1704 67.8214 15.9722 67.8214 14.494Z" fill="black"/>
<path fill-rule="evenodd" clip-rule="evenodd" d="M276 96.494C276 92.3509 279.354 89 283.5 89C287.646 89 291 92.3509 291 96.494C291 102.115 283.5 110.411 283.5 110.411C283.5 110.411 276 102.115 276 96.494ZM280.821 96.494C280.821 95.0159 282.021 93.8176 283.5 93.8176C284.457 93.8176 285.341 94.3277 285.82 95.1558C286.298 95.9839 286.298 97.0041 285.82 97.8322C285.341 98.6603 284.457 99.1704 283.5 99.1704C282.021 99.1704 280.821 97.9722 280.821 96.494Z" fill="black"/>
<path fill-rule="evenodd" clip-rule="evenodd" d="M194 248.494C194 244.351 197.354 241 201.5 241C205.646 241 209 244.351 209 248.494C209 254.115 201.5 262.411 201.5 262.411C201.5 262.411 194 254.115 194 248.494ZM198.821 248.494C198.821 247.016 200.021 245.818 201.5 245.818C202.457 245.818 203.341 246.328 203.82 247.156C204.298 247.984 204.298 249.004 203.82 249.832C203.341 250.66 202.457 251.17 201.5 251.17C200.021 251.17 198.821 249.972 198.821 248.494Z" fill="black"/>
<path fill-rule="evenodd" clip-rule="evenodd" d="M299 196.494C299 192.351 302.354 189 306.5 189C310.646 189 314 192.351 314 196.494C314 202.115 306.5 210.411 306.5 210.411C306.5 210.411 299 202.115 299 196.494ZM303.821 196.494C303.821 195.016 305.021 193.818 306.5 193.818C307.457 193.818 308.341 194.328 308.82 195.156C309.298 195.984 309.298 197.004 308.82 197.832C308.341 198.66 307.457 199.17 306.5 199.17C305.021 199.17 303.821 197.972 303.821 196.494Z" fill="black"/>
<path fill-rule="evenodd" clip-rule="evenodd" d="M287 147.494C287 143.351 290.354 140 294.5 140C298.646 140 302 143.351 302 147.494C302 153.115 294.5 161.411 294.5 161.411C294.5 161.411 287 153.115 287 147.494ZM291.821 147.494C291.821 146.016 293.021 144.818 294.5 144.818C295.457 144.818 296.341 145.328 296.82 146.156C297.298 146.984 297.298 148.004 296.82 148.832C296.341 149.66 295.457 150.17 294.5 150.17C293.021 150.17 291.821 148.972 291.821 147.494Z" fill="black"/>
<path fill-rule="evenodd" clip-rule="evenodd" d="M287 313.494C287 309.351 290.354 306 294.5 306C298.646 306 302 309.351 302 313.494C302 319.115 294.5 327.411 294.5 327.411C294.5 327.411 287 319.115 287 313.494ZM291.821 313.494C291.821 312.016 293.021 310.818 294.5 310.818C295.457 310.818 296.341 311.328 296.82 312.156C297.298 312.984 297.298 314.004 296.82 314.832C296.341 315.66 295.457 316.17 294.5 316.17C293.021 316.17 291.821 314.972 291.821 313.494Z" fill="black"/>
</svg>
