<svg width="101" height="76" fill="none" xmlns="http://www.w3.org/2000/svg"><g clip-path="url(#clip0)"><path fill-rule="evenodd" clip-rule="evenodd" d="M51.754 3.327c10.52.963 22.075.431 28.9 8.411 7 8.183 6.527 19.815 4.2 30.285C82.5 52.626 77.513 62.567 68.12 68.176 57.496 74.518 44.23 78.307 33.07 72.94c-11.128-5.35-14.632-18.317-17.77-30.16-3.327-12.56-8.882-27.443-.028-37.026C23.926-3.61 38.986 2.16 51.754 3.327z" fill="#C6F9EC"/><path d="M55.164 65.675H16.903c-2.409 0-4.352-1.98-4.352-4.419V8.973c0-2.446 1.95-4.419 4.352-4.419h32.12l10.486 10.91v45.785c.015 2.445-1.936 4.426-4.345 4.426z" fill="#fff"/><path d="M49.031 15.464V4.554l10.493 10.91H49.031z" fill="#fff"/><path d="M55.164 65.675H16.903c-2.409 0-4.352-1.98-4.352-4.419V8.973c0-2.446 1.95-4.419 4.352-4.419h32.12l10.486 10.91v45.785c.015 2.445-1.936 4.426-4.345 4.426z" stroke="#000" stroke-width="3" stroke-miterlimit="10" stroke-linecap="round" stroke-linejoin="round"/><path d="M49.031 15.464V4.554l10.493 10.91H49.031zM19.799 40.427h32.476M19.799 32.541h32.476M19.799 48.2h32.476" stroke="#000" stroke-width="3" stroke-miterlimit="10" stroke-linecap="round" stroke-linejoin="round"/><path d="M35.168 27.274c3.314 0 6-2.728 6-6.093 0-3.365-2.686-6.093-6-6.093s-6 2.728-6 6.093c0 3.365 2.686 6.093 6 6.093z" fill="#FFD29C" stroke="#000" stroke-width="2" stroke-miterlimit="10" stroke-linecap="round" stroke-linejoin="round"/><path d="M33.52 20.686a.946.946 0 00.939-.953.946.946 0 00-.939-.953.946.946 0 00-.938.953c0 .526.42.953.938.953zM36.89 20.686a.946.946 0 00.938-.953.946.946 0 00-.938-.953.946.946 0 00-.939.953c0 .526.42.953.939.953z" fill="#000"/><path d="M32.93 22.66c1.241 1.447 3.243 1.425 4.47 0M34.622 10.294c.51.15 1.227.495 1.22 1.403 0 .983-.77 1.53-1.397 1.508-.355-.015-.71-.292-.673-.787.037-.496.902-.683 1.3-.128.437.6.577 2.026.533 2.716M28.267 21.564c.498 0 .901-.41.901-.916a.908.908 0 00-.901-.915.909.909 0 00-.902.915c0 .506.404.916.902.916zM42.07 21.564c.497 0 .9-.41.9-.916a.908.908 0 00-.9-.915.908.908 0 00-.902.915c0 .506.404.916.901.916z" stroke="#000" stroke-width="2" stroke-linecap="round" stroke-linejoin="round"/><path d="M28.163 45.214l-.044 25.128 62.336.09.044-25.128-62.335-.09z" fill="#fff" stroke="#000" stroke-width="3" stroke-miterlimit="10" stroke-linecap="round" stroke-linejoin="round"/><path d="M34.68 54.18h24.495M34.68 60.716h33.126" stroke="#000" stroke-width="3" stroke-miterlimit="10" stroke-linecap="round" stroke-linejoin="round"/><path d="M84.83 59.455c0-1.695-1.248-2.183-2.593-2.453l-.716-.135c-1.057-.203-1.138-.496-1.138-.886 0-.51.48-.818 1.285-.818.954 0 1.197.458 1.3.803l.008.03c.118.3.4.48.746.48.09 0 .17-.015.23-.022.37-.068.635-.353.635-.69a.73.73 0 00-.044-.248c-.192-.585-.732-1.516-2.217-1.726v-1.013c0-.84-1.374-.84-1.374 0v1.013c-1.596.24-2.188 1.283-2.188 2.191 0 1.651 1.197 2.109 2.372 2.341l.776.158c1.101.217 1.293.488 1.293.99 0 .608-.54.976-1.44.976-1.168 0-1.412-.503-1.567-1.073-.096-.315-.392-.518-.754-.518-.081 0-.14.008-.222.023l-.022.007c-.377.083-.628.368-.628.705 0 .068.015.12.022.165l.015.053c.17.548.547 1.748 2.416 2.018v1.058c0 .42.348.638.688.638.34 0 .687-.218.687-.638V61.85c1.47-.203 2.43-1.11 2.43-2.394z" fill="#FF9214"/></g><defs><clipPath id="clip0"><path fill="#fff" transform="translate(.5 .5)" d="M0 0h100v75H0z"/></clipPath></defs></svg>