<svg width="100" height="75" fill="none" xmlns="http://www.w3.org/2000/svg"><path fill-rule="evenodd" clip-rule="evenodd" d="M74.794 65.823c-6.102 5.008-14.333 5.496-22.146 6.842-7.973 1.373-16.073 3.867-23.675 1.05-8.1-3-15.23-9-18.84-16.802-3.536-7.646-1.98-16.353-.297-24.572 1.61-7.862 3.773-15.96 9.708-21.383 5.813-5.313 14.017-6.584 21.881-7.49 7.577-.872 15.269-.764 22.216 2.41C70.8 9.15 76.615 14.65 80.635 21.383c4.224 7.077 7.216 15.131 6.147 23.264-1.084 8.244-5.548 15.89-11.988 21.176z" fill="#89DDEF"/><path d="M83.02 62H16V14" stroke="#000" stroke-width="3" stroke-miterlimit="10" stroke-linecap="round" stroke-linejoin="round"/><path d="M25.854 23.11l12.723 13.822 7.178-6.935L59.218 43.02" stroke="#000" stroke-width="3" stroke-miterlimit="10" stroke-linecap="round" stroke-linejoin="round"/><path d="M74.354 53.504c5.327 0 9.646-4.172 9.646-9.319 0-5.146-4.319-9.318-9.646-9.318-5.327 0-9.645 4.172-9.645 9.319 0 5.146 4.318 9.318 9.645 9.318z" fill="#FFD29C" stroke="#000" stroke-width="3" stroke-miterlimit="10" stroke-linecap="round" stroke-linejoin="round"/><path d="M71.404 42.757c0 1.483 1.15 1.91 2.388 2.15l.659.125c.972.17 1.045.435 1.045.777 0 .45-.442.714-1.182.714-.876 0-1.101-.404-1.198-.699l-.008-.023c-.112-.264-.37-.42-.683-.42-.08 0-.16.008-.209.024-.346.062-.579.31-.579.605 0 .07.016.148.04.218.177.512.668 1.328 2.042 1.506v.886c0 .737 1.262.737 1.262 0v-.886c1.471-.21 2.01-1.118 2.01-1.918 0-1.444-1.102-1.848-2.187-2.05l-.715-.14c-1.013-.186-1.19-.427-1.19-.862 0-.536.499-.854 1.326-.854 1.078 0 1.295.443 1.447.94.089.271.362.45.692.45a.89.89 0 00.2-.023h.025c.345-.078.578-.326.578-.621a.67.67 0 00-.016-.14l-.008-.047c-.153-.481-.498-1.53-2.218-1.763v-.924c0-.365-.322-.559-.635-.559-.314 0-.635.194-.635.56v.908c-1.367.147-2.25.94-2.25 2.066z" fill="#000"/><path d="M71.943 20.865v6.461m4.694 2.19V16.602" stroke="#000" stroke-width="3" stroke-miterlimit="10" stroke-linecap="round" stroke-linejoin="round"/></svg>