<svg width="100" height="75" fill="none" xmlns="http://www.w3.org/2000/svg"><g clip-path="url(#clip0)"><path fill-rule="evenodd" clip-rule="evenodd" d="M50.902 72.278c-12.812.246-27.346 7.166-36.482-2.06-9.697-9.792-8.31-26.064-4.7-39.528C13.111 18.036 20.892 6.52 32.786 1.715c11.053-4.466 22.785.57 33.327 6.19 10.015 5.34 18.992 12.587 22.531 23.59 4.014 12.48 5.887 27.83-2.93 37.357-8.45 9.13-22.55 3.191-34.813 3.426z" fill="#C6F9ED"/><path d="M57.642 65.299H19.355A4.356 4.356 0 0115 60.939V9.367a4.356 4.356 0 014.355-4.36h32.142L61.99 15.77v45.169a4.35 4.35 0 01-4.347 4.36z" fill="#fff"/><path d="M51.505 15.763V5l10.492 10.763H51.505z" fill="#fff"/><path d="M57.642 65.299H19.355A4.356 4.356 0 0115 60.939V9.367a4.356 4.356 0 014.355-4.36h32.142L61.99 15.77v45.169a4.35 4.35 0 01-4.347 4.36z" stroke="#000" stroke-width="3" stroke-miterlimit="10" stroke-linecap="round" stroke-linejoin="round"/><path d="M51.505 15.763V5l10.492 10.763H51.505z" stroke="#000" stroke-width="3" stroke-miterlimit="10" stroke-linecap="round" stroke-linejoin="round"/><path d="M45 16l-5.719 6.248-3.226-3.135L30 25" stroke="#8E8EEF" stroke-width="3" stroke-miterlimit="10" stroke-linecap="round" stroke-linejoin="round"/><path d="M22.254 40.39h32.49m-32.49-7.772h32.49M22.253 48.06h32.49" stroke="#000" stroke-width="3" stroke-miterlimit="10" stroke-linecap="round" stroke-linejoin="round"/><path d="M30.624 45.12l-.044 24.791L92.957 70 93 45.21l-62.377-.09z" fill="#fff" stroke="#000" stroke-width="3" stroke-miterlimit="10" stroke-linecap="round" stroke-linejoin="round"/><path d="M37.139 53.966H61.65M37.139 60.407h33.155" stroke="#000" stroke-width="3" stroke-miterlimit="10" stroke-linecap="round" stroke-linejoin="round"/><path d="M87.321 59.17c0-1.673-1.25-2.154-2.595-2.42l-.717-.133c-1.058-.2-1.139-.49-1.139-.874 0-.503.48-.807 1.287-.807.954 0 1.198.452 1.301.792l.008.03c.118.296.399.474.746.474.089 0 .17-.015.23-.023.37-.066.635-.348.635-.68a.71.71 0 00-.044-.245c-.192-.577-.732-1.495-2.218-1.703v-1.006c0-.83-1.376-.83-1.376 0v1c-1.597.236-2.188 1.265-2.188 2.16 0 1.63 1.198 2.08 2.373 2.31l.777.156c1.101.214 1.294.48 1.294.977 0 .6-.54.962-1.442.962-1.168 0-1.412-.496-1.568-1.059-.096-.31-.392-.51-.754-.51-.081 0-.14.007-.222.022l-.022.007c-.377.082-.628.363-.628.696 0 .067.014.119.022.163l.015.052c.17.54.547 1.724 2.417 1.991v1.044c0 .414.348.629.688.629.34 0 .688-.215.688-.63v-1.02c1.471-.193 2.432-1.089 2.432-2.355z" fill="#02CEAA"/></g><defs><clipPath id="clip0"><path fill="#fff" d="M0 0h100v75H0z"/></clipPath></defs></svg>