<svg width="100" height="75" fill="none" xmlns="http://www.w3.org/2000/svg"><path fill-rule="evenodd" clip-rule="evenodd" d="M9.074 36.666c.55-7.571 5.426-13.868 10.333-19.634 4.554-5.35 9.896-10.11 16.627-12.045 6.579-1.89 13.56-.892 19.966 1.527 6.182 2.336 10.85 6.95 15.349 11.814 5.152 5.568 11.771 10.77 12.55 18.338.801 7.803-3.233 15.51-8.475 21.318-4.913 5.443-12.165 7.563-19.245 9.389-6.649 1.715-13.373 2.247-20.074.753-7.31-1.63-14.817-3.924-19.713-9.622-5.119-5.957-7.89-13.984-7.318-21.838z" fill="#C2C2FF"/><path d="M11.058 21L11 52.727l80.942.114L92 21.114 11.058 21z" fill="#fff" stroke="#000" stroke-width="3" stroke-miterlimit="10" stroke-linecap="round" stroke-linejoin="round"/><path d="M19.52 32.321h31.797M19.52 40.563h43.013" stroke="#000" stroke-width="3" stroke-miterlimit="10" stroke-linecap="round" stroke-linejoin="round"/><path d="M84.63 38.981c0-2.141-1.62-2.757-3.367-3.098l-.93-.17c-1.373-.256-1.478-.626-1.478-1.118 0-.644.623-1.033 1.67-1.033 1.237 0 1.553.578 1.688 1.014l.01.038c.153.379.518.606.969.606.115 0 .22-.019.297-.028.48-.086.825-.446.825-.872a.899.899 0 00-.057-.313c-.25-.739-.95-1.913-2.879-2.179V30.56c0-1.061-1.784-1.061-1.784 0v1.279c-2.073.303-2.84 1.62-2.84 2.766 0 2.084 1.554 2.662 3.08 2.956l1.007.199c1.43.275 1.679.616 1.679 1.25 0 .768-.7 1.232-1.871 1.232-1.516 0-1.833-.635-2.034-1.355-.125-.398-.509-.653-.979-.653-.105 0-.182.01-.288.028l-.028-.01c-.49.105-.816.465-.816.891 0 .085.02.152.029.209l.019.066c.22.691.71 2.207 3.137 2.548v1.336c0 .53.451.805.893.805.441 0 .892-.274.892-.805v-1.307c1.91-.247 3.157-1.393 3.157-3.013z" fill="#FF9214"/><path d="M59.5 62C66.404 62 72 56.404 72 49.5S66.404 37 59.5 37 47 42.596 47 49.5 52.596 62 59.5 62z" fill="#89DDEF" stroke="#000" stroke-width="3" stroke-miterlimit="10" stroke-linecap="round" stroke-linejoin="round"/><path stroke="#000" stroke-width="3" stroke-linecap="round" stroke-linejoin="round" d="M67.113 60.192l8.079 9.695"/></svg>