<svg width="76" height="68" fill="none" xmlns="http://www.w3.org/2000/svg"><path fill-rule="evenodd" clip-rule="evenodd" d="M49.565 4.68c7.948 3.722 16.293 7.424 20.19 15.338 4.708 9.565 8.242 21.734 2.501 30.753-5.665 8.901-18.338 7.694-28.533 10.144-9.676 2.326-19.686 8.197-28.478 3.56-8.948-4.72-11.932-15.857-13.818-25.87C-.3 29.431.057 19.607 5.347 11.912 10.318 4.686 19.143 1.75 27.74.342c7.62-1.245 14.84 1.066 21.826 4.338z" fill="#FFD29C"/><path d="M55.885 55.147H15l-8.5-9.131V11.078c0-2.415 1.539-4.364 3.444-4.364h45.941c1.905 0 3.444 1.958 3.444 4.364v39.705c0 2.406-1.548 4.364-3.444 4.364z" fill="#fff"/><path d="M15.343 55.147L6.5 46.016h8.843v9.131z" fill="#fff"/><path d="M6.5 46.016l8.5 9.131h40.885c1.896 0 3.444-1.958 3.444-4.364V11.078c0-2.406-1.54-4.364-3.444-4.364H9.944c-1.905 0-3.444 1.95-3.444 4.364v34.938zm0 0l8.843 9.131v-9.131H6.5z" stroke="#000" stroke-width="3" stroke-miterlimit="10" stroke-linecap="round" stroke-linejoin="round"/><path d="M59.329 17.365H6.5v-6.26c0-2.415 1.896-4.365 4.226-4.365h44.377c2.338 0 4.226 1.959 4.226 4.364v6.26z" fill="#C6F9EC" stroke="#000" stroke-width="3" stroke-miterlimit="10" stroke-linecap="round" stroke-linejoin="round"/><path d="M18.396 12.053V3m29.48 9.053V3" stroke="#000" stroke-width="3" stroke-miterlimit="10" stroke-linecap="round" stroke-linejoin="round"/><path d="M58.377 66c7.8 0 14.124-6.53 14.124-14.584 0-8.055-6.324-14.585-14.124-14.585-7.8 0-14.123 6.53-14.123 14.585C44.254 59.47 50.577 66 58.377 66z" fill="#fff" stroke="#000" stroke-width="3" stroke-miterlimit="10" stroke-linecap="round" stroke-linejoin="round"/><path d="M65.758 53.242h-8.281v-7.094" fill="#fff"/><path d="M65.758 53.242h-8.281v-7.094" stroke="#8E8EEF" stroke-width="3" stroke-miterlimit="10" stroke-linecap="round" stroke-linejoin="round"/></svg>