<svg width="100" height="76" viewBox="0 0 100 76" fill="none" xmlns="http://www.w3.org/2000/svg">
  <path fill-rule="evenodd" clip-rule="evenodd" d="M27.9973 60.21C21.212 54.5099 14.0342 48.7238 12.2817 40.0207C10.1634 29.5011 9.8643 16.7633 17.79 9.52038C25.6129 2.37136 37.6539 6.87323 48.2244 7.1742C58.2581 7.45988 69.532 4.3928 76.9037 11.2035C84.4063 18.135 84.4373 29.7269 83.6876 39.9383C83.0006 49.2952 80.114 58.7351 72.968 64.8113C66.2572 70.5175 56.8959 71.0487 48.1521 70.1541C40.4023 69.3611 33.9616 65.2204 27.9973 60.21Z" fill="#C2C2FF"/>
  <circle cx="48" cy="38.5" r="23.5" fill="white" stroke="black" stroke-width="3"/>
  <path d="M63.3003 39.1627C62.8496 39.1627 62.4173 38.9872 62.0985 38.6747C61.7798 38.3622 61.6007 37.9385 61.6007 37.4966L61.6007 33.1814L50.9099 43.6778C50.7519 43.834 50.5639 43.9579 50.3568 44.0425C50.1497 44.1271 49.9275 44.1706 49.7031 44.1706C49.4788 44.1706 49.2566 44.1271 49.0495 44.0425C48.8424 43.9579 48.6544 43.834 48.4964 43.6778L42.9045 38.1797L33.9134 47.01C33.5933 47.3237 33.1592 47.5 32.7066 47.5C32.254 47.5 31.8199 47.3237 31.4999 47.01C31.1798 46.6963 31 46.2708 31 45.8271C31 45.3834 31.1798 44.9579 31.4999 44.6442L41.6978 34.6476C41.8558 34.4914 42.0438 34.3675 42.2509 34.2829C42.458 34.1983 42.6801 34.1547 42.9045 34.1547C43.1289 34.1547 43.3511 34.1983 43.5582 34.2829C43.7653 34.3675 43.9533 34.4914 44.1113 34.6476L49.7031 40.1457L59.2042 30.8322L54.8021 30.8322C54.3513 30.8322 53.919 30.6567 53.6003 30.3442C53.2815 30.0318 53.1024 29.608 53.1024 29.1661C53.1024 28.7242 53.2815 28.3004 53.6003 27.988C53.919 27.6755 54.3513 27.5 54.8021 27.5L63.3003 27.5C63.5225 27.5026 63.7419 27.5479 63.9462 27.6333C64.3615 27.8024 64.6916 28.1259 64.864 28.533C64.9511 28.7333 64.9973 28.9484 65 29.1661L65 37.4966C65 37.9385 64.8209 38.3622 64.5022 38.6747C64.1834 38.9872 63.7511 39.1627 63.3003 39.1627Z" fill="#FF9214"/>
</svg>
