<svg width="101" height="75" fill="none" xmlns="http://www.w3.org/2000/svg"><path fill-rule="evenodd" clip-rule="evenodd" d="M78.294 64.823c-6.102 5.008-14.333 5.496-22.146 6.842-7.973 1.373-16.073 3.867-23.675 1.05-8.1-3-15.23-9-18.84-16.802-3.536-7.646-1.98-16.353-.297-24.572 1.61-7.862 3.773-15.96 9.708-21.383 5.813-5.313 14.017-6.584 21.881-7.49 7.577-.872 15.269-.764 22.216 2.41C74.3 8.15 80.115 13.65 84.135 20.383c4.224 7.077 7.216 15.131 6.147 23.264-1.084 8.244-5.548 15.89-11.988 21.176z" fill="#89DDEF"/><path d="M50.812 66.72c15.283 0 27.673-12.354 27.673-27.593s-12.39-27.592-27.673-27.592c-15.284 0-27.673 12.353-27.673 27.592 0 15.239 12.39 27.592 27.673 27.592z" fill="#fff" stroke="#000" stroke-width="3" stroke-miterlimit="10" stroke-linecap="round" stroke-linejoin="round"/><path d="M56.94 53.844c0 3.236-2.628 5.857-5.875 5.857-3.246 0-5.874-2.62-5.874-5.857s2.628-5.857 5.874-5.857c3.247 0 5.875 2.62 5.875 5.857z" fill="#000"/><path d="M51.065 53.844c10.11.709 20.797-8.477 20.797-8.477l-20.797 8.477z" fill="#000"/><path d="M51.17 52.347a1.5 1.5 0 00-.21 2.993l.21-2.993zm21.67-5.843a1.5 1.5 0 00-1.956-2.275l1.956 2.275zm-17.4 7.34a4.363 4.363 0 01-4.375 4.357v3c4.07 0 7.375-3.288 7.375-7.357h-3zM51.065 58.2a4.363 4.363 0 01-4.374-4.357h-3c0 4.07 3.304 7.357 7.374 7.357v-3zm-4.374-4.357a4.363 4.363 0 014.374-4.357v-3c-4.07 0-7.374 3.288-7.374 7.357h3zm4.374-4.357a4.363 4.363 0 014.375 4.357h3c0-4.07-3.304-7.357-7.375-7.357v3zm-.104 5.853c5.496.386 11.01-1.907 15.028-4.16A49.045 49.045 0 0070.92 48a41.611 41.611 0 001.777-1.377 13.23 13.23 0 00.14-.117v-.001c.001 0 .002 0-.976-1.138l-.977-1.138-.004.003-.019.016-.081.068a38.512 38.512 0 01-1.633 1.265 46.026 46.026 0 01-4.627 2.982c-3.854 2.162-8.738 4.108-13.35 3.784l-.21 2.993z" fill="#000"/><path d="M20.654 38.579C20.654 21.82 33.824 8 50.364 8s29.71 13.82 29.71 30.579" stroke="#000" stroke-width="6" stroke-miterlimit="10" stroke-linecap="round" stroke-linejoin="round"/><path d="M18.5 33.965h4.132c4.246 0 7.688 3.432 7.688 7.666 0 4.233-3.442 7.665-7.688 7.665h-3.06a1.07 1.07 0 01-1.072-1.069V33.966zM81.65 48.217a1.07 1.07 0 01-1.072 1.069h-3.06c-4.246 0-7.688-3.432-7.688-7.666 0-4.233 3.442-7.665 7.688-7.665h3.06a1.07 1.07 0 011.072 1.069v13.193z" fill="#C2C2FF" stroke="#000" stroke-width="3" stroke-miterlimit="10" stroke-linecap="round" stroke-linejoin="round"/><path d="M37.35 34.767s.803-2.199 3.905-2.199 3.906 2.199 3.906 2.199M54.98 34.767s.804-2.199 3.906-2.199c3.102 0 3.906 2.199 3.906 2.199" stroke="#000" stroke-width="3" stroke-linecap="round" stroke-linejoin="round"/></svg>
