<svg width="100" height="75" fill="none" xmlns="http://www.w3.org/2000/svg"><path fill-rule="evenodd" clip-rule="evenodd" d="M33.636 66.429c-6.11-3.033-12.884-5.666-16.425-11.523-3.63-6.005-3.463-13.448-2.909-20.46.561-7.104 1.612-14.52 6.107-20.031C24.867 8.947 31.9 6.669 38.624 4.619 45.127 2.637 51.974.944 58.508 2.8c6.426 1.825 11.36 6.763 15.647 11.912 4.081 4.9 6.637 10.665 8.297 16.839 1.77 6.587 3.768 13.524 1.605 19.996-2.21 6.61-7.567 11.705-13.44 15.409-5.662 3.57-12.308 5.134-18.985 5.039-6.407-.092-12.252-2.715-17.995-5.567z" fill="#C2C2FF"/><path d="M53.45 66.411H14.438c-2.455 0-4.438-1.959-4.438-4.367v-51.67c0-2.415 1.99-4.367 4.438-4.367h32.76L57.894 16.79v45.253c-.008 2.408-1.998 4.367-4.445 4.367z" fill="#fff"/><path d="M47.19 16.784V6l10.698 10.784H47.19z" fill="#fff"/><path d="M53.45 66.411H14.438c-2.455 0-4.438-1.959-4.438-4.367v-51.67c0-2.415 1.99-4.367 4.438-4.367h32.76L57.894 16.79v45.253c-.008 2.408-1.998 4.367-4.445 4.367z" stroke="#000" stroke-width="3" stroke-miterlimit="10" stroke-linecap="round" stroke-linejoin="round"/><path d="M47.19 16.784V6l10.698 10.784H47.19zM17.385 41.895h33.111M17.385 49.578h33.111" stroke="#000" stroke-width="3" stroke-miterlimit="10" stroke-linecap="round" stroke-linejoin="round"/><path d="M33.245 17.787c1.262 0 2.286-1.007 2.286-2.25 0-1.242-1.024-2.249-2.286-2.249-1.263 0-2.286 1.008-2.286 2.25s1.023 2.25 2.286 2.25zM31.367 36.206c3.193 0 5.781-2.548 5.781-5.69 0-3.142-2.588-5.69-5.78-5.69-3.194 0-5.782 2.548-5.782 5.69 0 3.142 2.588 5.69 5.781 5.69z" fill="#fff"/><path d="M38.26 23.5h-2.322v-3.726c0-.941-.773-1.703-1.73-1.703h-2.327c-.957 0-1.73.762-1.73 1.703v5.053h6.64c.943 0 1.71 1.232 1.71 2.16v7.495m.5 0h2.295M29.89 24.82l-3.22-5.953m8.86-3.33c0 1.243-1.023 2.25-2.285 2.25-1.263 0-2.286-1.007-2.286-2.25 0-1.242 1.023-2.249 2.286-2.249 1.262 0 2.286 1.008 2.286 2.25zm1.618 14.98c0 3.141-2.588 5.689-5.78 5.689-3.194 0-5.782-2.548-5.782-5.69 0-3.142 2.588-5.69 5.781-5.69 3.193 0 5.781 2.548 5.781 5.69z" stroke="#FF9214" stroke-width="2.5" stroke-miterlimit="10" stroke-linecap="round" stroke-linejoin="round"/><path d="M30.67 45.737l-.043 23.18 59.33.083L90 45.82l-59.33-.083z" fill="#fff" stroke="#000" stroke-width="3" stroke-miterlimit="10" stroke-linecap="round" stroke-linejoin="round"/><path d="M36.873 54.008h23.314M36.873 60.03h31.529" stroke="#000" stroke-width="3" stroke-miterlimit="10" stroke-linecap="round" stroke-linejoin="round"/><path d="M84.605 58.874c0-1.565-1.188-2.015-2.468-2.264l-.682-.124c-1.006-.187-1.084-.457-1.084-.817 0-.47.458-.754 1.224-.754.907 0 1.14.422 1.238.74l.007.028c.113.277.38.443.71.443.085 0 .162-.014.219-.02.351-.063.604-.326.604-.638a.656.656 0 00-.042-.228c-.183-.54-.696-1.398-2.11-1.592v-.928c0-.775-1.308-.775-1.308 0v.935c-1.519.221-2.082 1.183-2.082 2.021 0 1.523 1.14 1.945 2.258 2.16l.738.145c1.048.2 1.231.45 1.231.913 0 .561-.513.9-1.371.9-1.111 0-1.344-.463-1.491-.99-.092-.29-.373-.477-.718-.477-.077 0-.133.007-.21.02l-.022.008c-.358.076-.598.339-.598.65 0 .063.014.111.022.152l.014.049c.161.505.52 1.613 2.3 1.862v.976c0 .387.33.588.653.588.324 0 .654-.2.654-.588v-.955c1.4-.194 2.314-1.032 2.314-2.215z" fill="#02CEAA"/></svg>
