<svg width="104" height="62" viewBox="0 0 104 62" fill="none" xmlns="http://www.w3.org/2000/svg">
<g clip-path="url(#clip0_7044_6354)">
<path d="M68.3252 0.0274823L34.6336 0C31.8857 0 29.6575 2.23288 29.6575 4.99479L29.5891 52.9502C29.5823 55.7122 31.8106 57.9588 34.5584 57.9588L71.5446 57.9863C74.2924 57.9863 76.5208 55.7534 76.5208 52.9915L76.5891 8.46434L68.3252 0.0274823Z" fill="white"/>
<path d="M68.3252 8.4652L68.3252 0.0274823L76.5208 8.4652H68.3252Z" fill="white"/>
<path d="M68.3252 0.0274823L34.6336 0C31.8857 0 29.6575 2.23288 29.6575 4.99479L29.5891 52.9502C29.5823 55.7121 31.8106 57.9588 34.5584 57.9588L71.5446 57.9863C74.2924 57.9863 76.5208 55.7534 76.5208 52.9915L76.5891 8.46434L68.3252 0.0274823ZM68.3252 0.0274823L68.3252 8.4652H76.5208L68.3252 0.0274823Z" stroke="black" stroke-width="3" stroke-miterlimit="10" stroke-linecap="round" stroke-linejoin="round"/>
<path d="M46.5891 28.8374H68.5891" stroke="black" stroke-width="3" stroke-miterlimit="10" stroke-linecap="round" stroke-linejoin="round"/>
<path d="M46.5891 38.8374H68.5891" stroke="black" stroke-width="3" stroke-miterlimit="10" stroke-linecap="round" stroke-linejoin="round"/>
<path d="M42.1982 26.9937H38.5891V30.6212H42.1982V26.9937Z" fill="white" stroke="black" stroke-width="2" stroke-miterlimit="10" stroke-linecap="round" stroke-linejoin="round"/>
<path d="M42.1982 36.9937H38.5891V40.6212H42.1982V36.9937Z" fill="white" stroke="black" stroke-width="2" stroke-miterlimit="10" stroke-linecap="round" stroke-linejoin="round"/>
<path d="M46.5891 18.9937H68.5891" stroke="black" stroke-width="3" stroke-miterlimit="10" stroke-linecap="round" stroke-linejoin="round"/>
<path d="M42.1982 16.9937H38.5891V20.6212H42.1982V16.9937Z" fill="white" stroke="black" stroke-width="2" stroke-miterlimit="10" stroke-linecap="round" stroke-linejoin="round"/>
<rect x="60.0891" y="33.4937" width="27" height="27" rx="3.5" fill="#C6F9EC" stroke="black" stroke-width="3" stroke-linejoin="round"/>
<path d="M66.5303 47.3402L70.8394 51.8465L81.5303 41.6995" stroke="black" stroke-width="4" stroke-linecap="round" stroke-linejoin="round"/>
<path d="M25.3388 21.0354L22.0761 18.835L22.0069 15.0028C22.0051 14.8979 21.9679 14.7956 21.9011 14.7119C21.7339 14.5016 21.4267 14.459 21.215 14.6166L18.1526 16.9213L14.4099 15.705C14.3068 15.6712 14.197 15.6722 14.0969 15.7059C13.9756 15.7472 13.8773 15.8345 13.8236 15.9485C13.7699 16.0626 13.7652 16.194 13.8106 16.314L15.18 19.9384L12.9364 23.0189C12.8841 23.0905 12.8537 23.1756 12.8487 23.2644C12.8437 23.3533 12.8643 23.4425 12.9081 23.5217C12.9519 23.601 13.0172 23.6673 13.0966 23.713C13.176 23.7588 13.2663 23.7821 13.3573 23.7805L17.2669 23.7163L19.6233 26.8366C19.6874 26.9224 19.7796 26.9855 19.8825 27.0159C20.1421 27.093 20.4108 26.9517 20.4826 26.6994L21.5288 23.0349L25.2279 21.8826C25.3288 21.8509 25.4159 21.7878 25.4752 21.7012C25.6263 21.486 25.5634 21.1878 25.3388 21.0354Z" fill="#FFD29C" stroke="black" stroke-width="2" stroke-linecap="round" stroke-linejoin="round"/>
<path d="M90.1878 16.0459L87.4512 17.1518L85.0394 15.5876C84.9735 15.5448 84.8943 15.525 84.8142 15.5314C84.6133 15.5471 84.458 15.7203 84.4672 15.918L84.6159 18.7888L82.2899 20.6058C82.2257 20.6557 82.1802 20.7243 82.1592 20.8007C82.134 20.8935 82.1471 20.9912 82.1954 21.0724C82.2438 21.1537 82.3236 21.2117 82.4172 21.2338L85.2451 21.9024L86.2195 24.5894C86.2421 24.6519 86.2823 24.7065 86.3354 24.7469C86.3886 24.7873 86.4527 24.8118 86.5203 24.8178C86.588 24.8239 86.6566 24.811 86.7184 24.7809C86.7801 24.7507 86.8325 24.7043 86.8696 24.6471L88.4694 22.1893L91.3978 22.0327C91.478 22.0288 91.5559 21.998 91.618 21.9467C91.7748 21.8177 91.7996 21.5913 91.6729 21.4409L89.8331 19.2535L90.668 16.4702C90.6906 16.3942 90.6879 16.3136 90.6589 16.2403C90.5885 16.0562 90.3767 15.9703 90.1878 16.0459Z" fill="#FF9214" stroke="black" stroke-width="2" stroke-linecap="round" stroke-linejoin="round"/>
</g>
<defs>
<clipPath id="clip0_7044_6354">
<rect width="102.752" height="61.9936" fill="white" transform="translate(0.624023)"/>
</clipPath>
</defs>
</svg>
