<svg width="100" height="75" fill="none" xmlns="http://www.w3.org/2000/svg"><path fill-rule="evenodd" clip-rule="evenodd" d="M46.951 70.361c-9.702-.898-20.36-.402-26.655-7.85-6.455-7.637-6.018-18.494-3.873-28.266 2.172-9.896 6.773-19.175 15.435-24.409C41.656 3.916 53.891.38 64.183 5.388c10.264 4.994 13.495 17.096 16.389 28.15 3.069 11.723 8.192 25.613.026 34.557-7.98 8.74-21.87 3.357-33.647 2.266z" fill="#C2C2FF"/><path d="M70.956 5.027L34.044 5c-2.747 0-4.976 2.233-4.976 4.995L29 57.95c-.007 2.762 2.221 5.009 4.97 5.009l36.986.027c2.747 0 4.976-2.233 4.976-4.994L76 9.995s0-4.968-5.044-4.968z" fill="#fff" stroke="#000" stroke-width="3" stroke-miterlimit="10" stroke-linecap="round" stroke-linejoin="round"/><path d="M55.79 52.468c0-1.553-1.156-2-2.4-2.247l-.663-.123c-.977-.186-1.052-.454-1.052-.81 0-.468.444-.75 1.19-.75.88 0 1.106.42 1.202.735l.007.028c.11.275.37.44.69.44.082 0 .157-.014.212-.021.342-.062.588-.323.588-.632a.662.662 0 00-.041-.227c-.178-.536-.677-1.388-2.05-1.58v-.92c0-.77-1.272-.77-1.272 0v.927c-1.476.22-2.023 1.175-2.023 2.006 0 1.512 1.107 1.93 2.194 2.144l.718.144c1.018.2 1.196.446 1.196.907 0 .556-.5.893-1.333.893-1.08 0-1.306-.46-1.45-.983-.088-.288-.361-.474-.696-.474-.076 0-.13.007-.206.021l-.02.007c-.349.075-.581.336-.581.646 0 .062.014.11.02.15l.014.049c.157.501.506 1.6 2.235 1.848v.969c0 .384.322.584.636.584s.636-.2.636-.584v-.948c1.36-.193 2.249-1.024 2.249-2.199z" fill="#02CEAA"/><path d="M45 29.837h22M45 39.837h22" stroke="#000" stroke-width="3" stroke-miterlimit="10" stroke-linecap="round" stroke-linejoin="round"/><path d="M40.61 27.994H37v3.627h3.61v-3.627zM40.61 37.994H37v3.627h3.61v-3.627z" fill="#fff" stroke="#000" stroke-width="2" stroke-miterlimit="10" stroke-linecap="round" stroke-linejoin="round"/><path d="M45 19.994h22" stroke="#000" stroke-width="3" stroke-miterlimit="10" stroke-linecap="round" stroke-linejoin="round"/><path d="M40.61 17.994H37v3.627h3.61v-3.627z" fill="#fff" stroke="#000" stroke-width="2" stroke-miterlimit="10" stroke-linecap="round" stroke-linejoin="round"/><path d="M64.736 9.034l-33.692-.028c-2.747 0-4.976 2.233-4.976 4.995L26 61.957c-.007 2.762 2.221 5.008 4.97 5.008l36.986.028c2.747 0 4.976-2.233 4.976-4.995L73 17.47l-8.264-8.437z" fill="#fff"/><path d="M64.736 17.471V9.034l8.196 8.437h-8.196z" fill="#fff"/><path d="M64.736 9.034l-33.692-.028c-2.747 0-4.976 2.233-4.976 4.995L26 61.957c-.007 2.762 2.221 5.008 4.97 5.008l36.986.028c2.747 0 4.976-2.233 4.976-4.995L73 17.47l-8.264-8.437zm0 0v8.437h8.196l-8.196-8.437zM42 33.844h22M34 49h30M34 42h30M34 56h30" stroke="#000" stroke-width="3" stroke-miterlimit="10" stroke-linecap="round" stroke-linejoin="round"/><path d="M37.61 32H34v3.628h3.61V32z" fill="#fff" stroke="#000" stroke-width="2" stroke-miterlimit="10" stroke-linecap="round" stroke-linejoin="round"/><path d="M42 24h22" stroke="#000" stroke-width="3" stroke-miterlimit="10" stroke-linecap="round" stroke-linejoin="round"/><path d="M37.61 22H34v3.628h3.61V22z" fill="#fff" stroke="#000" stroke-width="2" stroke-miterlimit="10" stroke-linecap="round" stroke-linejoin="round"/></svg>