<svg width="96" height="95" viewBox="0 0 96 95" fill="none" xmlns="http://www.w3.org/2000/svg">
<path fill-rule="evenodd" clip-rule="evenodd" d="M51.6023 0.0337239C64.1018 -0.417598 76.8754 3.65002 85.3561 12.9018C93.5748 21.8678 93.989 34.6843 94.535 46.8702C95.119 59.9076 98.3181 75.4698 88.5434 84.0462C78.8938 92.5126 64.402 84.7858 51.6023 84.5392C39.2674 84.3015 25.9963 89.9936 16.0491 82.6495C5.2164 74.6515 -0.246417 60.3652 0.582096 46.8702C1.3734 33.9812 10.7065 23.9577 20.1867 15.2549C29.1129 7.06061 39.5279 0.469695 51.6023 0.0337239Z" fill="#C6F9EC"/>
<path d="M74.6351 2.5816L29.9645 2.54834C26.639 2.54834 23.9423 5.25063 23.9423 8.59315L23.8596 66.63C23.8514 69.9725 26.5481 72.6914 29.8735 72.6914L74.6351 72.7247C77.9606 72.7247 80.6574 70.0224 80.6574 66.6799L80.7401 8.59315C80.7401 8.59315 80.7401 2.5816 74.6351 2.5816Z" fill="white" stroke="black" stroke-width="3" stroke-miterlimit="10" stroke-linecap="round" stroke-linejoin="round"/>
<path d="M56.2804 59.9955C56.2804 58.1164 54.8824 57.5759 53.3768 57.2766L52.5744 57.1269C51.3915 56.9024 51.3005 56.5781 51.3005 56.1458C51.3005 55.5804 51.8382 55.2395 52.7398 55.2395C53.807 55.2395 54.08 55.7467 54.1958 56.1292L54.2041 56.1624C54.3364 56.495 54.6508 56.6946 55.0396 56.6946C55.1388 56.6946 55.2298 56.6779 55.296 56.6696C55.7096 56.5948 56.0074 56.2788 56.0074 55.9047C56.0074 55.8132 55.9909 55.7217 55.9578 55.6303C55.7427 54.9817 55.1388 53.9507 53.4761 53.7179V52.6037C53.4761 51.6725 51.9375 51.6725 51.9375 52.6037V53.7262C50.1506 53.9923 49.4888 55.148 49.4888 56.1541C49.4888 57.9833 50.829 58.4905 52.1443 58.7483L53.0128 58.9229C54.2454 59.164 54.4605 59.4634 54.4605 60.0205C54.4605 60.6939 53.8566 61.1014 52.8474 61.1014C51.5404 61.1014 51.2674 60.5443 51.0937 59.9124C50.9861 59.5631 50.6552 59.3386 50.2499 59.3386C50.1589 59.3386 50.0926 59.347 50.0017 59.3636L49.9769 59.3719C49.555 59.4634 49.2737 59.7793 49.2737 60.1535C49.2737 60.2283 49.2903 60.2865 49.2985 60.3364L49.3151 60.3946C49.5053 61.0016 49.9273 62.3319 52.0202 62.6313V63.8037C52.0202 64.2693 52.4089 64.5104 52.7894 64.5104C53.17 64.5104 53.5588 64.2693 53.5588 63.8037V62.6562C55.205 62.4234 56.2804 61.4173 56.2804 59.9955Z" fill="#02CEAA"/>
<path d="M43.2224 32.6074H69.8473" stroke="black" stroke-width="3" stroke-miterlimit="10" stroke-linecap="round" stroke-linejoin="round"/>
<path d="M43.2224 44.7095H69.8473" stroke="black" stroke-width="3" stroke-miterlimit="10" stroke-linecap="round" stroke-linejoin="round"/>
<path d="M37.9091 30.376H33.5413V34.7662H37.9091V30.376Z" fill="white" stroke="black" stroke-width="3" stroke-miterlimit="10" stroke-linecap="round" stroke-linejoin="round"/>
<path d="M37.9091 42.4783H33.5413V46.8684H37.9091V42.4783Z" fill="white" stroke="black" stroke-width="3" stroke-miterlimit="10" stroke-linecap="round" stroke-linejoin="round"/>
<path d="M43.2224 20.6943H69.8473" stroke="black" stroke-width="3" stroke-miterlimit="10" stroke-linecap="round" stroke-linejoin="round"/>
<path d="M37.9091 18.2737H33.5413V22.6639H37.9091V18.2737Z" fill="white" stroke="black" stroke-width="3" stroke-miterlimit="10" stroke-linecap="round" stroke-linejoin="round"/>
<path d="M67.108 7.43023L26.3337 7.39697C23.0082 7.39697 20.3115 10.0993 20.3115 13.4418L20.2288 71.4786C20.2205 74.8211 22.9172 77.54 26.2427 77.54L71.0043 77.5733C74.3298 77.5733 77.0266 74.871 77.0266 71.5285L77.1093 17.6407L67.108 7.43023Z" fill="white"/>
<path d="M67.108 17.6418L67.108 7.43023L77.0266 17.6418H67.108Z" fill="white"/>
<path d="M67.108 7.43023L26.3337 7.39697C23.0082 7.39697 20.3115 10.0993 20.3115 13.4418L20.2288 71.4786C20.2205 74.8211 22.9172 77.54 26.2427 77.54L71.0043 77.5733C74.3298 77.5733 77.0266 74.871 77.0266 71.5285L77.1093 17.6407L67.108 7.43023ZM67.108 7.43023L67.108 17.6418H77.0266L67.108 7.43023Z" stroke="black" stroke-width="3" stroke-miterlimit="10" stroke-linecap="round" stroke-linejoin="round"/>
<path d="M39.5923 37.4556H66.2172" stroke="black" stroke-width="3" stroke-miterlimit="10" stroke-linecap="round" stroke-linejoin="round"/>
<path d="M29.9114 55.7981L66.2181 55.7981" stroke="black" stroke-width="3" stroke-miterlimit="10" stroke-linecap="round" stroke-linejoin="round"/>
<path d="M29.9114 47.3264L66.2181 47.3264" stroke="black" stroke-width="3" stroke-miterlimit="10" stroke-linecap="round" stroke-linejoin="round"/>
<path d="M29.9114 64.2695L66.2181 64.2695" stroke="black" stroke-width="3" stroke-miterlimit="10" stroke-linecap="round" stroke-linejoin="round"/>
<path d="M34.2792 35.2244H29.9114V39.6145H34.2792V35.2244Z" fill="white" stroke="#8E8EEF" stroke-width="3" stroke-miterlimit="10" stroke-linecap="round" stroke-linejoin="round"/>
<path d="M39.5923 25.5425H66.2172" stroke="black" stroke-width="3" stroke-miterlimit="10" stroke-linecap="round" stroke-linejoin="round"/>
<path d="M34.2792 23.1218H29.9114V27.512H34.2792V23.1218Z" fill="white" stroke="#8E8EEF" stroke-width="3" stroke-miterlimit="10" stroke-linecap="round" stroke-linejoin="round"/>
<path d="M17.9014 82.982C17.9014 84.6727 19.2697 86.0448 20.9566 86.0448H51.5019C53.1888 86.0448 54.5572 84.6727 54.5572 82.982V64.616C54.5572 62.7913 53.0766 61.3142 51.2485 61.3142H21.2136C19.3856 61.3142 17.905 62.7913 17.905 64.616V82.982H17.9014Z" fill="white" stroke="black" stroke-width="3" stroke-linejoin="round"/>
<path d="M33.7104 66.5564H22.1084V80.5418H33.7104V66.5564Z" fill="#02CE9D" fill-opacity="0.3"/>
<path d="M30.2019 76.4363C28.7177 78.0473 26.8136 78.1958 25.3439 76.4363C23.914 76.4363 22.3538 77.9134 22.3538 79.3398V80.4838H33.2318V79.3398C33.2318 77.917 31.6317 76.4363 30.2019 76.4363Z" fill="white" stroke="black" stroke-width="3" stroke-linejoin="round"/>
<path d="M24.6277 73.7464C24.6277 76.3169 26.0395 77.7433 27.7771 77.7433C29.4748 77.7433 30.9445 76.3169 30.9445 73.7464C30.9445 72.8884 30.6586 72.32 30.6586 72.32C29.797 71.462 28.6567 70.4302 28.6567 70.4302C27.5092 71.2882 26.6549 71.748 24.9318 72.034C24.9281 72.0304 24.6277 72.3164 24.6277 73.7464Z" fill="white" stroke="black" stroke-width="3" stroke-linejoin="round"/>
<path d="M30.8649 74.608C30.9156 74.3003 30.9446 74.0071 30.9446 73.6523C30.9446 72.7906 30.6586 72.2186 30.6586 72.2186C29.797 71.357 28.6495 70.3216 28.6495 70.3216C27.502 71.1832 26.6404 71.6466 24.9173 71.9326C24.9173 71.9326 24.6132 72.2186 24.6132 73.6523C24.6132 73.9745 24.6132 74.3401 24.6567 74.6261C23.7698 74.4198 23.7698 73.1382 23.7698 72.2186C23.7698 70.2129 24.9173 68.2073 27.7916 68.2073C30.6658 68.2073 31.8133 70.2129 31.8133 72.2186C31.8061 72.9427 31.8387 74.4451 30.8649 74.608Z" fill="black" stroke="black" stroke-width="3" stroke-linejoin="round"/>
<path d="M37.5532 68.9243H49.7689H37.5532Z" fill="white"/>
<path d="M37.5532 68.9243H49.7689" stroke="black" stroke-width="3" stroke-linecap="round" stroke-linejoin="round"/>
<path d="M37.5532 73.4387H49.7689H37.5532Z" fill="white"/>
<path d="M37.5532 73.4387H49.7689" stroke="black" stroke-width="3" stroke-linecap="round" stroke-linejoin="round"/>
<path d="M37.5532 77.6877H49.7689H37.5532Z" fill="white"/>
<path d="M37.5532 77.6877H49.7689" stroke="black" stroke-width="3" stroke-linecap="round" stroke-linejoin="round"/>
<path d="M79.2999 68.2961H47.5022C45.2931 68.2961 43.5022 70.087 43.5022 72.2961V88.7334C43.5022 90.9425 45.2931 92.7334 47.5022 92.7334H79.2999C81.5091 92.7334 83.2999 90.9425 83.2999 88.7333V72.2961C83.2999 70.087 81.5091 68.2961 79.2999 68.2961Z" fill="white" stroke="black" stroke-width="3" stroke-miterlimit="10" stroke-linecap="round" stroke-linejoin="round"/>
<path d="M51.2151 81.9297H75.5874M51.2151 86.7997H75.5874" stroke="black" stroke-width="3" stroke-miterlimit="10" stroke-linecap="round" stroke-linejoin="round"/>
<path d="M47.6001 74.7869L49.5794 76.748M49.5935 74.7729L47.6142 76.734M51.3614 74.7869L53.3407 76.748M53.3548 74.773L51.3755 76.734M55.4442 74.7869L57.4235 76.748M57.4376 74.773L55.4584 76.734M69.3649 74.7869L71.3443 76.748M71.3583 74.773L69.379 76.734M73.1264 74.7869L75.1057 76.748M75.1198 74.773L73.1405 76.734M77.209 74.7869L79.1885 76.748M79.2026 74.773L77.2231 76.734M60.5202 74.7869L62.4995 76.748M62.5136 74.773L60.5344 76.734M64.6029 74.7869L66.5823 76.748M66.5965 74.773L64.617 76.734" stroke="#8E8EEF" stroke-width="2" stroke-miterlimit="10" stroke-linecap="round" stroke-linejoin="round"/>
</svg>
