<svg width="100" height="75" fill="none" xmlns="http://www.w3.org/2000/svg"><path fill-rule="evenodd" clip-rule="evenodd" d="M77.532 64.016c-6.077 5.024-14.276 5.513-22.059 6.863-7.942 1.378-16.01 3.879-23.582 1.053-8.068-3.01-15.17-9.027-18.766-16.854-3.522-7.669-1.973-16.403-.296-24.647 1.603-7.886 3.758-16.008 9.67-21.449C28.288 3.653 36.46 2.38 44.294 1.47 51.84.595 59.503.703 66.423 3.887c7.131 3.281 12.924 8.798 16.927 15.552 4.208 7.1 7.188 15.178 6.124 23.336-1.08 8.27-5.526 15.938-11.942 21.241z" fill="#89DDEF"/><path d="M71 27.223C71 15.296 60.283 5.775 47.616 7.128 38.186 8.131 30.474 15.36 29.2 24.404c-.832 5.888.988 11.35 4.448 15.472 2.679 3.194 3.967 7.29 3.954 11.4v4.259c0 1.892 1.6 3.433 3.563 3.433h17.636c1.964 0 3.563-1.541 3.563-3.433v-2.831c0-5.011 1.834-9.797 4.825-13.893C69.596 35.529 71 31.532 71 27.223z" fill="#fff" stroke="#000" stroke-width="3" stroke-miterlimit="10" stroke-linecap="round" stroke-linejoin="round"/><path d="M59.893 68H40.107C38.386 68 37 66.725 37 65.168V56h26v9.168C63 66.725 61.614 68 59.893 68z" fill="#000" stroke="#000" stroke-width="3" stroke-miterlimit="10" stroke-linecap="round" stroke-linejoin="round"/><path d="M55.16 20.809L44.845 30.73l9.585-.037-8.623 10.323" stroke="#FF9214" stroke-width="3" stroke-miterlimit="10" stroke-linecap="round" stroke-linejoin="round"/></svg>
