<svg width="100" height="75" fill="none" xmlns="http://www.w3.org/2000/svg"><path fill-rule="evenodd" clip-rule="evenodd" d="M67.003 15.29c6.785 5.7 13.963 11.486 15.715 20.19 2.119 10.519 2.418 23.257-5.508 30.5-7.823 7.149-19.864 2.647-30.434 2.346-10.034-.286-21.308 2.781-28.68-4.03-7.502-6.931-7.533-18.523-6.784-28.734.687-9.357 3.574-18.797 10.72-24.873 6.71-5.707 16.072-6.238 24.816-5.343 7.75.793 14.19 4.934 20.155 9.944z" fill="#FFD29C"/><mask id="a" fill="#fff"><path d="M73.306 62c3.857 0 6.261-4.181 4.322-7.514L54.826 15.294c-1.91-3.284-6.64-3.322-8.603-.07L22.576 54.418c-2.011 3.332.389 7.583 4.28 7.583h46.45z"/></mask><path d="M73.306 62c3.857 0 6.261-4.181 4.322-7.514L54.826 15.294c-1.91-3.284-6.64-3.322-8.603-.07L22.576 54.418c-2.011 3.332.389 7.583 4.28 7.583h46.45z" fill="#fff"/><path d="M26.857 62v-4 4zm-4.281-7.583L19.15 52.35l3.425 2.067zm55.052.069l-3.457 2.011 3.457-2.011zM73.306 62v-4 4zM46.223 15.225l-3.425-2.067 3.425 2.067zm5.145 2.08l22.803 39.192 6.914-4.023-22.802-39.192-6.915 4.023zM73.306 58h-46.45v8h46.45v-8zM26 56.483l23.648-39.192-6.85-4.133L19.151 52.35 26 56.483zM26.857 58A1 1 0 0126 56.483l-6.85-4.133C15.532 58.35 19.85 66 26.858 66v-8zm47.314-1.503A1 1 0 0173.306 58v8c6.942 0 11.27-7.526 7.78-13.526l-6.915 4.023zM58.283 13.282c-3.438-5.91-11.952-5.978-15.485-.124l6.85 4.133a1 1 0 011.72.014l6.915-4.023z" fill="#000" mask="url(#a)"/><path d="M50 43.667c.636 0 1.247-.246 1.697-.684.45-.437.703-1.03.703-1.65v-14c0-.618-.253-1.212-.703-1.65A2.435 2.435 0 0050 25c-.636 0-1.247.246-1.697.683a2.301 2.301 0 00-.703 1.65v14c0 .62.253 1.213.703 1.65.45.438 1.06.684 1.697.684zM50 53c.593 0 1.173-.171 1.667-.492.493-.32.878-.776 1.105-1.309.227-.532.286-1.119.17-1.685a2.893 2.893 0 00-.82-1.493 3.027 3.027 0 00-1.537-.798 3.08 3.08 0 00-1.733.166 2.983 2.983 0 00-1.346 1.074 2.86 2.86 0 00-.506 1.62c0 .774.316 1.516.879 2.063A3.044 3.044 0 0050 53z" fill="#D73D02"/></svg>