<svg width="100" height="75" viewBox="0 0 100 75" fill="none" xmlns="http://www.w3.org/2000/svg">
<path fill-rule="evenodd" clip-rule="evenodd" d="M67.0027 15.29C73.788 20.9901 80.9658 26.7762 82.7183 35.4793C84.8366 45.9989 85.1357 58.7367 77.21 65.9796C69.3871 73.1286 57.3462 68.6268 46.7756 68.3258C36.7419 68.0401 25.468 71.1072 18.0963 64.2965C10.5938 57.365 10.5627 45.7731 11.3124 35.5617C11.9994 26.2048 14.886 16.7649 22.032 10.6887C28.7428 4.9825 38.1041 4.45129 46.8479 5.34594C54.5977 6.13887 61.0384 10.2796 67.0027 15.29Z" fill="#FFD29C"/>
<mask id="path-2-inside-1_12706_2477" fill="white">
<path d="M73.3063 62C77.1627 62 79.5674 57.8189 77.6281 54.4856L54.8259 15.2936C52.9156 12.01 48.1857 11.9723 46.2231 15.2249L22.5755 54.4169C20.5648 57.7493 22.9645 62 26.8566 62L73.3063 62Z"/>
</mask>
<path d="M73.3063 62C77.1627 62 79.5674 57.8189 77.6281 54.4856L54.8259 15.2936C52.9156 12.01 48.1857 11.9723 46.2231 15.2249L22.5755 54.4169C20.5648 57.7493 22.9645 62 26.8566 62L73.3063 62Z" fill="white"/>
<path d="M26.8566 62L26.8566 58L26.8566 62ZM22.5755 54.4169L19.1506 52.3504L22.5755 54.4169ZM77.6281 54.4856L74.1707 56.4971L77.6281 54.4856ZM73.3063 62V58V62ZM46.2231 15.2249L42.7983 13.1584L46.2231 15.2249ZM51.3685 17.3051L74.1707 56.4971L81.0855 52.474L58.2834 13.2821L51.3685 17.3051ZM73.3063 58L26.8566 58L26.8566 66L73.3063 66V58ZM26.0003 56.4834L49.648 17.2914L42.7983 13.1584L19.1506 52.3504L26.0003 56.4834ZM26.8566 58C26.0782 58 25.5982 57.1499 26.0003 56.4834L19.1506 52.3504C15.5314 58.3487 19.8509 66 26.8566 66L26.8566 58ZM74.1707 56.4971C74.5585 57.1638 74.0776 58 73.3063 58V66C80.2478 66 84.5763 58.474 81.0855 52.474L74.1707 56.4971ZM58.2834 13.2821C54.8447 7.37166 46.3309 7.30369 42.7983 13.1584L49.648 17.2914C50.0405 16.6409 50.9865 16.6484 51.3685 17.3051L58.2834 13.2821Z" fill="black" mask="url(#path-2-inside-1_12706_2477)"/>
<path d="M50 43.6667C50.6365 43.6667 51.247 43.4208 51.6971 42.9832C52.1471 42.5457 52.4 41.9522 52.4 41.3333V27.3333C52.4 26.7145 52.1471 26.121 51.6971 25.6834C51.247 25.2458 50.6365 25 50 25C49.3635 25 48.753 25.2458 48.3029 25.6834C47.8529 26.121 47.6 26.7145 47.6 27.3333V41.3333C47.6 41.9522 47.8529 42.5457 48.3029 42.9832C48.753 43.4208 49.3635 43.6667 50 43.6667ZM50 53C50.5933 53 51.1734 52.8289 51.6667 52.5085C52.1601 52.188 52.5446 51.7324 52.7716 51.1995C52.9987 50.6665 53.0581 50.0801 52.9424 49.5143C52.8266 48.9485 52.5409 48.4288 52.1213 48.0209C51.7018 47.613 51.1672 47.3352 50.5853 47.2227C50.0033 47.1102 49.4001 47.1679 48.8519 47.3887C48.3038 47.6094 47.8352 47.9833 47.5056 48.4629C47.1759 48.9426 47 49.5065 47 50.0833C47 50.8569 47.3161 51.5987 47.8787 52.1457C48.4413 52.6927 49.2044 53 50 53Z" fill="#D73D02"/>
</svg>
