<svg width="100" height="75" fill="none" xmlns="http://www.w3.org/2000/svg"><path fill-rule="evenodd" clip-rule="evenodd" d="M10.08 38.179c.594-8.154 5.86-14.935 11.16-21.144 4.918-5.762 10.687-10.888 17.957-12.972 7.105-2.036 14.645-.961 21.563 1.645 6.676 2.515 11.717 7.485 16.576 12.722 5.565 5.996 12.714 11.599 13.554 19.749.866 8.404-3.49 16.703-9.152 22.957-5.306 5.862-13.139 8.145-20.784 10.112-7.181 1.847-14.443 2.42-21.68.81-7.895-1.754-16.003-4.225-21.29-10.362-5.529-6.415-8.521-15.06-7.904-23.517z" fill="#FFD29C"/><path d="M52.18 59.94H15.207c-2.323 0-4.206-1.777-4.206-3.972V8.972C11 6.778 12.883 5 15.206 5h31.048l10.14 9.809v41.159c-.007 2.188-1.89 3.972-4.213 3.972z" fill="#fff"/><path d="M46.254 14.809V5l10.133 9.809H46.254z" fill="#fff"/><path d="M46.254 5H15.206C12.883 5 11 6.778 11 8.972v46.996c0 2.195 1.883 3.972 4.206 3.972h36.975c2.324 0 4.206-1.783 4.213-3.972v-41.16L46.254 5zm0 0v9.809h10.133L46.254 5zM17.998 37.246h31.385M17.998 30.16h31.385M17.998 44.228h31.385" stroke="#000" stroke-width="3" stroke-miterlimit="10" stroke-linecap="round" stroke-linejoin="round"/><path d="M30.585 17.046c1.057 0 1.915-.81 1.915-1.808 0-1-.858-1.809-1.915-1.809-1.058 0-1.915.81-1.915 1.809 0 .998.857 1.808 1.915 1.808zM37.978 24.035c1.058 0 1.915-.81 1.915-1.809 0-.998-.857-1.808-1.915-1.808-1.057 0-1.915.81-1.915 1.808 0 .999.858 1.809 1.915 1.809z" fill="#fff"/><path d="M28.871 24.041l11.023-10.415M32.5 15.238c0 .998-.858 1.808-1.915 1.808-1.058 0-1.915-.81-1.915-1.808 0-1 .857-1.809 1.915-1.809 1.057 0 1.915.81 1.915 1.809zm7.393 6.988c0 .999-.857 1.809-1.915 1.809-1.057 0-1.915-.81-1.915-1.809 0-.998.858-1.808 1.915-1.808 1.058 0 1.915.81 1.915 1.808z" stroke="#8E8EEF" stroke-width="2" stroke-miterlimit="10" stroke-linecap="round" stroke-linejoin="round"/><path d="M40.01 33.74l-.047 29.046 50.833.133.048-29.046-50.834-.133z" fill="#fff" stroke="#000" stroke-width="2" stroke-miterlimit="10" stroke-linecap="round" stroke-linejoin="round"/><path d="M39.975 37.221l-.047 29.047 50.833.133.047-29.046-50.833-.134z" fill="#fff" stroke="#000" stroke-width="2" stroke-miterlimit="10" stroke-linecap="round" stroke-linejoin="round"/><path d="M39.944 40.6l-.047 29.045 50.833.134.047-29.046-50.833-.134z" fill="#fff" stroke="#000" stroke-width="2" stroke-miterlimit="10" stroke-linecap="round" stroke-linejoin="round"/><path d="M72.147 54.82c0 1.79-.745 3.464-2.078 4.724a7.265 7.265 0 01-5.012 1.945c-3.908-.008-7.074-3.022-7.075-6.707.007-1.876.824-3.574 2.15-4.785a7.24 7.24 0 014.94-1.884c1.896.007 3.67.706 5.004 1.972 1.342 1.266 2.07 2.95 2.07 4.735z" stroke="#000" stroke-width="3" stroke-miterlimit="10"/><path d="M87.822 43.073l-40.63-.106h-.084l-4.212-.011a.478.478 0 00-.49.462l-.04 23.425c-.002.122.05.239.14.325.09.087.213.137.343.138l44.926.117c.13 0 .247-.047.339-.127l.006-.006a.447.447 0 00.145-.324l.04-23.424a.47.47 0 00-.483-.47zm-44.44.806l3.558.012c.406.45.622 1.004.625 1.598.002.663-.275 1.274-.765 1.742l-.027.025c-.914.84-2.369.927-3.39.197 0 0-.006 0-.012-.007l.011-3.567zm-.04 22.504l.006-3.604a2.716 2.716 0 013.498.165c.496.47.764 1.084.76 1.74.002.638-.262 1.237-.726 1.7h-3.538zm43.953.117l-3.564-.013a.378.378 0 00-.07-.105 2.365 2.365 0 01.004-3.482 2.662 2.662 0 011.842-.716 2.632 2.632 0 011.787.68V66.5zm.007-4.776a3.736 3.736 0 00-1.788-.46 3.654 3.654 0 00-2.532.982c-.68.639-1.056 1.488-1.056 2.39.002.662.2 1.3.578 1.843L48.1 66.392c.801-1.294.618-2.987-.555-4.099-1.135-1.075-2.835-1.283-4.19-.618l.021-13.162c1.333.616 2.983.401 4.074-.603l.033-.03c.68-.64 1.056-1.489 1.055-2.39a3.233 3.233 0 00-.417-1.597l34.683.089c-.794 1.294-.611 2.981.556 4.093 1.058 1 2.64 1.256 3.961.72l-.019 12.93zm.02-13.971c-1.024.63-2.392.504-3.27-.33a2.368 2.368 0 01-.034-3.439l3.31.01-.006 3.759z" fill="#000" stroke="#000" stroke-miterlimit="10"/><path d="M69.355 33.844l-8.185-.076-.088 9.177 8.186.075.087-9.176zM69.265 43.412l-8.185-.075-.251 26.335 8.185.075.251-26.335z" fill="#89DDEF" stroke="#000" stroke-width="3" stroke-miterlimit="10" stroke-linecap="round" stroke-linejoin="round"/></svg>
