<svg width="100" height="75" fill="none" xmlns="http://www.w3.org/2000/svg"><path fill-rule="evenodd" clip-rule="evenodd" d="M70.003 15.29c6.785 5.7 13.963 11.486 15.715 20.19 2.119 10.519 2.418 23.257-5.508 30.5-7.823 7.149-19.864 2.647-30.434 2.346-10.034-.286-21.308 2.781-28.68-4.03-7.502-6.931-7.533-18.523-6.784-28.734.687-9.357 3.574-18.797 10.72-24.873 6.71-5.707 16.072-6.238 24.816-5.343 7.75.793 14.19 4.934 20.155 9.944z" fill="#89DDEF"/><path d="M72.727 13H27.283C22.703 13 19 16.813 19 21.507v24.59c0 4.705 3.712 8.507 8.283 8.507H55.55V63l8.174-8.396h8.994c4.58 0 8.283-3.813 8.283-8.507v-24.58C81.01 16.813 77.308 13 72.727 13z" fill="#fff" stroke="#000" stroke-width="3" stroke-miterlimit="10" stroke-linecap="round" stroke-linejoin="round"/><path d="M58 29a8 8 0 00-16 0 1.6 1.6 0 003.2 0 4.8 4.8 0 114.8 4.8 1.6 1.6 0 00-1.6 1.6v3.2a1.6 1.6 0 003.2 0v-1.76A8 8 0 0058 29zM50 46.6a1.6 1.6 0 100-3.2 1.6 1.6 0 000 3.2z" fill="#02CEAA"/></svg>