<svg width="100" height="75" fill="none" xmlns="http://www.w3.org/2000/svg"><g clip-path="url(#clip0)"><path fill-rule="evenodd" clip-rule="evenodd" d="M48.233 72.173c-10.395-.963-21.813-.431-28.558-8.411-6.917-8.182-6.449-19.815-4.15-30.285 2.327-10.603 7.256-20.544 16.538-26.153C42.56.982 55.669-2.807 66.696 2.56c10.997 5.35 14.46 18.317 17.56 30.16 3.287 12.56 8.776 27.443.027 37.026-8.55 9.365-23.432 3.596-36.05 2.428z" fill="#89DDEF"/><path d="M3 45.24c0 2.906 2.352 5.264 5.251 5.264h52.498c2.9 0 5.251-2.358 5.251-5.264V13.675A5.679 5.679 0 0060.313 8H8.693a5.679 5.679 0 00-5.687 5.675V45.24H3z" fill="#fff" stroke="#000" stroke-width="3" stroke-linejoin="round"/><path d="M30.17 17.01H10.23v24.036h19.94V17.01z" fill="#02CE9D" fill-opacity=".3"/><path d="M24.14 33.99c-2.55 2.77-5.823 3.024-8.349 0-2.457 0-5.139 2.539-5.139 4.99v1.967h18.696V38.98c0-2.445-2.75-4.99-5.207-4.99z" fill="#fff" stroke="#000" stroke-width="3" stroke-linejoin="round"/><path d="M14.56 29.367c0 4.418 2.427 6.87 5.413 6.87 2.918 0 5.444-2.452 5.444-6.87 0-1.475-.491-2.451-.491-2.451-1.481-1.475-3.44-3.248-3.44-3.248-1.973 1.474-3.441 2.264-6.403 2.756-.006-.006-.523.485-.523 2.943z" fill="#fff" stroke="#000" stroke-width="3" stroke-linejoin="round"/><path d="M25.28 30.848a9.692 9.692 0 00.137-1.643c0-1.48-.491-2.464-.491-2.464-1.481-1.48-3.453-3.26-3.453-3.26-1.973 1.48-3.453 2.277-6.415 2.769 0 0-.522.491-.522 2.955 0 .554 0 1.183.074 1.674-1.524-.354-1.524-2.557-1.524-4.138 0-3.447 1.972-6.894 6.912-6.894 4.94 0 6.912 3.447 6.912 6.894-.012 1.245.044 3.827-1.63 4.107z" fill="#000" stroke="#000" stroke-width="3" stroke-linejoin="round"/><path d="M36.775 21.08H57.77 36.775z" fill="#fff"/><path d="M36.775 21.08H57.77" stroke="#000" stroke-width="3" stroke-linecap="round" stroke-linejoin="round"/><path d="M36.775 28.838H57.77 36.775z" fill="#fff"/><path d="M36.775 28.838H57.77" stroke="#000" stroke-width="3" stroke-linecap="round" stroke-linejoin="round"/><path d="M36.775 36.141H57.77 36.775z" fill="#fff"/><path d="M36.775 36.141H57.77" stroke="#000" stroke-width="3" stroke-linecap="round" stroke-linejoin="round"/><path d="M92.4 28H32a4 4 0 00-4 4v34a4 4 0 004 4h60.4a4 4 0 004-4V32a4 4 0 00-4-4z" fill="#fff" stroke="#000" stroke-width="3" stroke-miterlimit="10" stroke-linecap="round" stroke-linejoin="round"/><path d="M41.256 51.432h41.888m-41.888 8.37h41.888" stroke="#000" stroke-width="3" stroke-miterlimit="10" stroke-linecap="round" stroke-linejoin="round"/><path d="M35.043 39.155l3.402 3.37m.024-3.394l-3.402 3.37m6.44-3.346l3.402 3.37m.025-3.394l-3.402 3.37m6.993-3.346l3.401 3.37m.025-3.394l-3.402 3.37m23.9-3.346l3.403 3.37m.024-3.394l-3.402 3.37m6.44-3.346l3.403 3.37m.024-3.394l-3.402 3.37m6.993-3.346l3.402 3.37m.024-3.394l-3.402 3.37m-28.707-3.346l3.401 3.37m.025-3.394l-3.402 3.37m6.992-3.346l3.403 3.37m.024-3.394l-3.402 3.37" stroke="#8E8EEF" stroke-width="2" stroke-miterlimit="10" stroke-linecap="round" stroke-linejoin="round"/></g><defs><clipPath id="clip0"><path fill="#fff" d="M0 0h100v75H0z"/></clipPath></defs></svg>
