<svg width="100" height="75" fill="none" xmlns="http://www.w3.org/2000/svg"><path fill-rule="evenodd" clip-rule="evenodd" d="M77.532 64.016c-6.077 5.024-14.276 5.513-22.059 6.863-7.942 1.378-16.01 3.879-23.582 1.053-8.068-3.01-15.17-9.027-18.766-16.854-3.522-7.669-1.973-16.403-.296-24.647 1.603-7.886 3.758-16.008 9.67-21.449C28.288 3.653 36.46 2.38 44.294 1.47 51.84.595 59.503.703 66.423 3.887c7.131 3.281 12.924 8.798 16.927 15.552 4.208 7.1 7.188 15.178 6.124 23.336-1.08 8.27-5.526 15.938-11.942 21.241z" fill="#89DDEF"/><path d="M90 16H10v43h80V16z" fill="#fff" stroke="#000" stroke-width="3" stroke-miterlimit="10" stroke-linecap="round" stroke-linejoin="round"/><path d="M43.59 37.745h35.579m-35.58 6.922h35.58" stroke="#000" stroke-width="3" stroke-miterlimit="10" stroke-linecap="round" stroke-linejoin="round"/><path d="M32.233 29.616a.437.437 0 01-.228-.06c-1.928-.962-3.593-1.367-5.59-1.367-1.99 0-3.874.456-5.591 1.368a.519.519 0 01-.684-.194.476.476 0 01.201-.659 12.966 12.966 0 016.073-1.486c2.139 0 4.005.456 6.047 1.478a.463.463 0 01.21.65.501.501 0 01-.438.27zM17.87 34.697a.602.602 0 01-.289-.084.469.469 0 01-.123-.675 10.333 10.333 0 013.76-3.174c3.146-1.57 7.186-1.579 10.34-.009a10.196 10.196 0 013.76 3.149.469.469 0 01-.123.675.508.508 0 01-.7-.118 9.31 9.31 0 00-3.401-2.845c-2.874-1.426-6.564-1.426-9.43.009a9.343 9.343 0 00-3.408 2.87c-.07.135-.22.203-.386.203zm6.275 11.7a.486.486 0 01-.35-.143c-.877-.844-1.35-1.385-2.016-2.558-.692-1.19-1.052-2.642-1.052-4.204 0-2.878 2.55-5.225 5.679-5.225 3.128 0 5.678 2.347 5.678 5.225 0 .27-.219.481-.5.481-.28 0-.499-.21-.499-.48 0-2.348-2.094-4.255-4.68-4.255-2.585 0-4.679 1.907-4.679 4.254 0 1.393.324 2.684.938 3.731.64 1.114 1.086 1.587 1.858 2.347a.486.486 0 010 .692.641.641 0 01-.377.135zm7.194-1.79c-1.191 0-2.252-.286-3.11-.86-1.5-.98-2.393-2.567-2.393-4.255 0-.27.22-.481.5-.481s.5.211.5.481c0 1.368.718 2.66 1.945 3.453.71.464 1.542.692 2.55.692.236 0 .64-.034 1.042-.093a.504.504 0 01.588.397c.052.261-.132.515-.412.565-.57.085-1.07.102-1.21.102zM29.324 46.6c-.044 0-.088-.009-.132-.017-1.595-.422-2.637-.996-3.733-2.035-1.402-1.35-2.173-3.14-2.173-5.056 0-1.57 1.385-2.845 3.093-2.845 1.71 0 3.094 1.284 3.094 2.845 0 1.038.938 1.883 2.085 1.883 1.157 0 2.086-.845 2.086-1.883 0-3.655-3.26-6.618-7.273-6.618-2.848 0-5.46 1.528-6.634 3.9-.386.785-.587 1.705-.587 2.71 0 .76.07 1.95.675 3.494a.475.475 0 01-.29.625c-.263.093-.552-.042-.64-.279a10.498 10.498 0 01-.736-3.84c0-1.165.228-2.22.684-3.14 1.332-2.702 4.294-4.457 7.537-4.457 4.565 0 8.28 3.401 8.28 7.588 0 1.57-1.384 2.853-3.093 2.853s-3.093-1.283-3.093-2.853c0-1.038-.929-1.882-2.086-1.882-1.157 0-2.086.844-2.086 1.882a6.03 6.03 0 001.876 4.373c.955.912 1.866 1.418 3.277 1.798.272.067.421.337.35.59a.508.508 0 01-.481.364z" fill="#000" stroke="#000" stroke-width=".5" stroke-miterlimit="10"/><path d="M43.59 28.478l2.375 2.296m.018-2.315l-2.375 2.296m6.52-2.277l2.383 2.296m.018-2.315l-2.383 2.296m6.527-2.277l2.384 2.296m.018-2.315l-2.383 2.296m6.519-2.277l2.383 2.296m.019-2.315l-2.384 2.296m6.528-2.277l2.384 2.296m.018-2.315l-2.384 2.296m6.52-2.277l2.383 2.296m.019-2.315l-2.384 2.296" stroke="#8E8EEF" stroke-width="2" stroke-miterlimit="10" stroke-linecap="round" stroke-linejoin="round"/></svg>