<svg width="100" height="75" fill="none" xmlns="http://www.w3.org/2000/svg"><path fill-rule="evenodd" clip-rule="evenodd" d="M82.361 41.049c-.898 9.702-.402 20.36-7.85 26.655-7.637 6.455-18.494 6.018-28.266 3.873-9.896-2.172-19.175-6.772-24.409-15.435-5.92-9.798-9.456-22.033-4.448-32.325 4.994-10.264 17.096-13.495 28.15-16.389C57.261 4.36 71.151-.764 80.095 7.402c8.74 7.98 3.357 21.87 2.266 33.647z" fill="#89DDEF"/><path d="M64.736 9.034l-33.692-.028c-2.747 0-4.976 2.233-4.976 4.995L26 61.957c-.007 2.762 2.221 5.008 4.97 5.008l36.986.028c2.747 0 4.976-2.233 4.976-4.995L73 17.47l-8.264-8.437z" fill="#fff"/><path d="M64.736 17.471V9.034l8.196 8.437h-8.196z" fill="#fff"/><path d="M64.736 9.034l-33.692-.028c-2.747 0-4.976 2.233-4.976 4.995L26 61.957c-.007 2.762 2.221 5.008 4.97 5.008l36.986.028c2.747 0 4.976-2.233 4.976-4.995L73 17.47l-8.264-8.437zm0 0v8.437h8.196l-8.196-8.437z" stroke="#000" stroke-width="3" stroke-miterlimit="10" stroke-linecap="round" stroke-linejoin="round"/><path d="M52.79 56.474c0-1.552-1.156-1.999-2.4-2.246l-.663-.124c-.977-.185-1.052-.453-1.052-.81 0-.468.444-.75 1.19-.75.88 0 1.106.42 1.202.736l.007.027c.11.275.37.44.69.44.082 0 .157-.014.212-.02.342-.063.588-.324.588-.633a.661.661 0 00-.041-.227c-.178-.535-.677-1.387-2.05-1.58v-.92c0-.77-1.272-.77-1.272 0v.927c-1.476.22-2.023 1.175-2.023 2.006 0 1.512 1.107 1.93 2.194 2.144l.718.144c1.018.2 1.196.447 1.196.907 0 .557-.5.893-1.333.893-1.08 0-1.306-.46-1.45-.982-.088-.289-.361-.474-.696-.474-.076 0-.13.007-.206.02l-.02.007c-.349.076-.581.337-.581.646 0 .062.014.11.02.151l.014.048c.157.502.506 1.601 2.235 1.848v.97c0 .384.322.583.636.583s.636-.2.636-.584v-.948c1.36-.192 2.249-1.024 2.249-2.199z" fill="#02CEAA"/><path d="M42 33.844h22M42 43.844h22" stroke="#000" stroke-width="3" stroke-miterlimit="10" stroke-linecap="round" stroke-linejoin="round"/><path d="M37.61 32H34v3.628h3.61V32zM37.61 42H34v3.628h3.61V42z" fill="#fff" stroke="#000" stroke-width="2" stroke-miterlimit="10" stroke-linecap="round" stroke-linejoin="round"/><path d="M42 24h22" stroke="#000" stroke-width="3" stroke-miterlimit="10" stroke-linecap="round" stroke-linejoin="round"/><path d="M37.61 22H34v3.628h3.61V22z" fill="#fff" stroke="#000" stroke-width="2" stroke-miterlimit="10" stroke-linecap="round" stroke-linejoin="round"/></svg>