<svg width="101" height="75" fill="none" xmlns="http://www.w3.org/2000/svg"><path fill-rule="evenodd" clip-rule="evenodd" d="M32.29 68.564c-6.157-3.04-12.985-5.678-16.554-11.547-3.659-6.018-3.49-13.477-2.931-20.503.565-7.12 1.624-14.55 6.154-20.073 4.493-5.479 11.582-7.763 18.359-9.817C43.87 4.638 50.77 2.942 57.357 4.802c6.476 1.83 11.448 6.778 15.77 11.937 4.112 4.91 6.688 10.688 8.361 16.874 1.785 6.601 3.798 13.553 1.618 20.038-2.227 6.624-7.627 11.73-13.546 15.442-5.706 3.578-12.404 5.145-19.133 5.05-6.457-.093-12.348-2.722-18.137-5.58z" fill="#C2C2FF"/><path d="M59.064 7.62H9.5v57.808h49.564V7.62z" fill="#fff" stroke="#000" stroke-width="3" stroke-miterlimit="10" stroke-linecap="round" stroke-linejoin="round"/><path d="M49.794 59.478H18.606a3.544 3.544 0 01-3.551-3.536v-41.79a3.544 3.544 0 013.55-3.536H49.83a3.51 3.51 0 013.515 3.5v41.819c0 1.96-1.59 3.543-3.55 3.543z" fill="#fff" stroke="#000" stroke-width="3" stroke-miterlimit="10" stroke-linecap="round" stroke-linejoin="round"/><path d="M20.965 42.417H47.44M20.965 36.112H47.44M20.965 48.622H47.44" stroke="#000" stroke-width="3" stroke-miterlimit="10" stroke-linecap="round" stroke-linejoin="round"/><path d="M34.286 24.809a3.164 3.164 0 00-3.173 3.16v2.172h6.346v-2.173a3.173 3.173 0 00-3.173-3.16z" fill="#C6F9EC"/><path d="M34.286 24.809a2.405 2.405 0 002.41-2.4c0-1.325-1.079-2.4-2.41-2.4a2.405 2.405 0 00-2.41 2.4c0 1.326 1.08 2.4 2.41 2.4z" fill="#C6F9EC"/><path d="M34.286 24.809a3.164 3.164 0 00-3.173 3.16v2.172h6.346v-2.173a3.173 3.173 0 00-3.173-3.16zm0 0a2.405 2.405 0 002.41-2.4c0-1.325-1.079-2.4-2.41-2.4a2.405 2.405 0 00-2.41 2.4c0 1.326 1.08 2.4 2.41 2.4z" stroke="#000" stroke-width="2" stroke-miterlimit="10" stroke-linecap="round" stroke-linejoin="round"/><path d="M44.212 12.781H24.353v-1.718c0-3.35 2.724-6.063 6.09-6.063h7.686c3.366 0 6.09 2.712 6.09 6.063v1.718h-.007z" fill="#FFD29C" stroke="#000" stroke-width="3" stroke-miterlimit="10" stroke-linecap="round" stroke-linejoin="round"/><path d="M31.348 46.137l-.043 23.778L91.457 70l.043-23.778-60.153-.085z" fill="#fff" stroke="#000" stroke-width="3" stroke-miterlimit="10" stroke-linecap="round" stroke-linejoin="round"/><path d="M37.637 54.621h23.637M37.637 60.806h31.966" stroke="#000" stroke-width="3" stroke-miterlimit="10" stroke-linecap="round" stroke-linejoin="round"/><path d="M86.032 59.613c0-1.605-1.205-2.066-2.503-2.322l-.692-.128c-1.02-.191-1.098-.468-1.098-.837 0-.483.464-.774 1.24-.774.92 0 1.156.433 1.256.76l.007.028c.114.284.385.454.72.454.086 0 .164-.014.221-.021.357-.064.613-.334.613-.653a.68.68 0 00-.042-.235c-.186-.553-.706-1.434-2.14-1.633v-.958c0-.795-1.326-.795-1.326 0v.958c-1.54.227-2.11 1.214-2.11 2.073 0 1.563 1.155 1.996 2.288 2.216l.75.149c1.062.206 1.247.461 1.247.937 0 .575-.52.923-1.39.923-1.127 0-1.362-.476-1.512-1.015-.093-.298-.378-.49-.727-.49-.079 0-.136.007-.214.021l-.022.007c-.363.078-.606.348-.606.668 0 .063.014.113.022.156l.014.05c.164.518.527 1.654 2.331 1.91v1c0 .398.336.604.664.604s.663-.206.663-.603v-.98c1.419-.192 2.346-1.051 2.346-2.265z" fill="#FF9214"/></svg>