<svg width="100" height="75" fill="none" xmlns="http://www.w3.org/2000/svg"><path fill-rule="evenodd" clip-rule="evenodd" d="M82.361 41.049c-.898 9.702-.402 20.36-7.85 26.655-7.637 6.455-18.494 6.018-28.266 3.873-9.896-2.172-19.175-6.772-24.409-15.435-5.92-9.798-9.456-22.033-4.448-32.325 4.994-10.264 17.096-13.495 28.15-16.389C57.261 4.36 71.151-.764 80.095 7.402c8.74 7.98 3.357 21.87 2.266 33.647z" fill="#89DDEF"/><path d="M76.846 34.36v30.737H22.563v-32L49.704 5l27.142 29.36z" fill="#fff"/><path d="M17 38.856L49.704 5m0 0l31.298 33.856M49.704 5L22.563 33.097v32h54.283V34.36L49.704 5z" stroke="#000" stroke-width="3" stroke-miterlimit="10" stroke-linecap="round" stroke-linejoin="round"/><path d="M55.748 38.855H42.264v26.25h13.484v-26.25z" stroke="#000" stroke-width="3" stroke-miterlimit="10" stroke-linecap="round" stroke-linejoin="round"/><path fill-rule="evenodd" clip-rule="evenodd" d="M68.307 8.838h-6.352v9.41l6.352 6.866V8.838z" fill="#fff" stroke="#000" stroke-width="3" stroke-miterlimit="10" stroke-linecap="round" stroke-linejoin="round"/></svg>
