<svg width="100" height="75" fill="none" xmlns="http://www.w3.org/2000/svg"><path fill-rule="evenodd" clip-rule="evenodd" d="M33.79 66.564c-6.157-3.04-12.985-5.678-16.554-11.547-3.659-6.018-3.49-13.477-2.931-20.503.565-7.12 1.624-14.55 6.154-20.073 4.493-5.479 11.582-7.763 18.359-9.817C45.37 2.638 52.27.942 58.857 2.802c6.476 1.83 11.448 6.778 15.77 11.937 4.112 4.91 6.688 10.688 8.361 16.874 1.785 6.601 3.798 13.553 1.618 20.038-2.227 6.624-7.627 11.73-13.546 15.442-5.706 3.578-12.404 5.145-19.133 5.05-6.457-.093-12.348-2.722-18.137-5.58z" fill="#C6F9EC"/><path d="M77.846 36.36v30.737H23.563v-32L50.704 7l27.142 29.36z" fill="#fff"/><path d="M18 40.856L50.704 7m0 0l31.298 33.856M50.704 7L23.563 35.097v32h54.283V36.36L50.704 7z" stroke="#000" stroke-width="3" stroke-miterlimit="10" stroke-linecap="round" stroke-linejoin="round"/><path d="M56.748 40.856H43.264v26.25h13.484v-26.25z" fill="#FFD29C" stroke="#000" stroke-width="3" stroke-miterlimit="10" stroke-linecap="round" stroke-linejoin="round"/><path fill-rule="evenodd" clip-rule="evenodd" d="M69.307 10.838h-6.352v9.41l6.352 6.866V10.838z" fill="#fff" stroke="#000" stroke-width="3" stroke-miterlimit="10" stroke-linecap="round" stroke-linejoin="round"/><path d="M67.657 72c8.534 0 15.453-6.889 15.453-15.387 0-8.497-6.919-15.386-15.453-15.386-8.535 0-15.454 6.889-15.454 15.386C52.203 65.111 59.122 72 67.657 72z" fill="#89DDEF" stroke="#000" stroke-width="3" stroke-miterlimit="10" stroke-linecap="round" stroke-linejoin="round"/><path d="M60.501 64.01l14.576-14.512m-9.771 2.247a2.524 2.524 0 01-2.53 2.519 2.525 2.525 0 01-2.53-2.52 2.525 2.525 0 012.53-2.518 2.524 2.524 0 012.53 2.519zm9.77 9.737a2.524 2.524 0 01-2.53 2.52 2.525 2.525 0 01-2.53-2.52 2.525 2.525 0 012.53-2.519 2.524 2.524 0 012.53 2.52z" stroke="#000" stroke-width="3" stroke-miterlimit="10" stroke-linecap="round" stroke-linejoin="round"/></svg>