<svg width="79" height="73" fill="none" xmlns="http://www.w3.org/2000/svg"><path fill-rule="evenodd" clip-rule="evenodd" d="M66.532 63.016c-6.077 5.024-14.276 5.513-22.059 6.863-7.942 1.378-16.01 3.879-23.582 1.053-8.068-3.01-15.17-9.027-18.766-16.854C-1.397 46.41.152 37.675 1.83 29.431c1.603-7.886 3.758-16.008 9.67-21.449C17.288 2.653 25.46 1.38 33.294.47c7.546-.875 15.208-.767 22.128 2.417 7.131 3.281 12.924 8.798 16.927 15.552 4.208 7.1 7.188 15.178 6.124 23.336-1.08 8.27-5.526 15.938-11.942 21.241z" fill="#C6F9EC"/><rect x="29.129" y="10.779" width="35.372" height="35.372" rx="3.5" fill="#89DDEF" stroke="#000" stroke-width="3" stroke-linejoin="round"/><path d="M37.787 28.909l5.512 5.763 13.674-12.978" stroke="#000" stroke-width="4" stroke-linecap="round" stroke-linejoin="round"/><path d="M29.068 33.944H15.955C13.22 33.944 11 36.1 11 38.76v22.96h23.023v-22.96c0-2.66-2.22-4.817-4.955-4.817z" fill="#fff"/><path d="M22.512 33.944c4.825 0 8.737-3.804 8.737-8.495 0-4.692-3.912-8.495-8.737-8.495-4.826 0-8.738 3.803-8.738 8.495 0 4.691 3.912 8.495 8.738 8.495z" fill="#fff"/><path d="M29.068 33.944H15.955C13.22 33.944 11 36.1 11 38.76v22.96h23.023v-22.96c0-2.66-2.22-4.817-4.955-4.817z" stroke="#000" stroke-width="3" stroke-miterlimit="10" stroke-linecap="round" stroke-linejoin="round"/><path d="M22.512 33.944c4.825 0 8.737-3.804 8.737-8.495 0-4.692-3.912-8.495-8.737-8.495-4.826 0-8.738 3.803-8.738 8.495 0 4.691 3.912 8.495 8.738 8.495z" stroke="#000" stroke-width="3" stroke-miterlimit="10" stroke-linecap="round" stroke-linejoin="round"/></svg>