<svg width="101" height="75" fill="none" xmlns="http://www.w3.org/2000/svg"><path fill-rule="evenodd" clip-rule="evenodd" d="M10.58 38.179c.594-8.154 5.86-14.935 11.16-21.144 4.918-5.762 10.687-10.888 17.957-12.972 7.105-2.036 14.645-.961 21.563 1.645 6.676 2.515 11.717 7.485 16.576 12.722 5.565 5.996 12.714 11.599 13.554 19.749.866 8.404-3.49 16.703-9.152 22.957-5.306 5.862-13.139 8.145-20.784 10.112-7.181 1.847-14.443 2.42-21.68.81-7.895-1.754-16.003-4.225-21.29-10.362-5.529-6.415-8.521-15.06-7.904-23.517z" fill="#C6F9EC"/><path d="M66.5 63V13a4 4 0 00-4-4h-23a4 4 0 00-4 4v50a4 4 0 004 4h23a4 4 0 004-4z" fill="#fff" stroke="#000" stroke-width="3" stroke-miterlimit="10" stroke-linecap="round" stroke-linejoin="round"/><path d="M66.5 66.66V56.486h-31v10.176h31z" fill="#000"/><ellipse cx="51.338" cy="61.573" rx="2.527" ry="2.544" fill="#fff"/><path stroke="#FF9214" stroke-width="3" stroke-linecap="round" stroke-linejoin="round" d="M43.57 29.547h14.691M43.57 36.33h14.691"/></svg>