<svg width="100" height="75" fill="none" xmlns="http://www.w3.org/2000/svg"><g clip-path="url(#clip0)"><path fill-rule="evenodd" clip-rule="evenodd" d="M78.937 63.003c-6.078 5.024-14.277 5.513-22.06 6.863-7.942 1.378-16.01 3.88-23.582 1.054-8.067-3.01-15.17-9.028-18.766-16.854-3.522-7.67-1.973-16.404-.296-24.648 1.603-7.886 3.758-16.008 9.67-21.448 5.79-5.33 13.962-6.604 21.796-7.513 7.546-.875 15.208-.767 22.129 2.417 7.13 3.281 12.923 8.798 16.927 15.553 4.208 7.099 7.188 15.178 6.123 23.335-1.08 8.27-5.526 15.938-11.941 21.241z" fill="#89DDEF"/><path d="M54.963 68h2.652c.774 0 1.397-1.211 1.397-2.696V31.093h-5.446v34.211c0 1.485.624 2.696 1.397 2.696zM59.012 27.305h-5.446v3.788h5.446v-3.788z" fill="#fff"/><path d="M59.012 31.093v34.211c0 1.485-.623 2.696-1.397 2.696h-2.652c-.773 0-1.397-1.211-1.397-2.696V31.093m5.446 0h-5.446m5.446 0v-3.788h-5.446v3.788" stroke="#000" stroke-width="3" stroke-miterlimit="10" stroke-linecap="round" stroke-linejoin="round"/><path d="M60.724 26.494c2.295-2.354 2.295-6.16 0-8.506-1.812-1.86-1.164-4.479 0-5.673-2.96-.427-6.202.7-8.289 2.832-3.051 3.14-3.051 8.208 0 11.347a5.746 5.746 0 008.29 0z" fill="#C2C2FF" stroke="#000" stroke-width="3" stroke-miterlimit="10" stroke-linecap="round" stroke-linejoin="round"/><path d="M60.725 12.315s-4.989 2.278-4.989 7.926" stroke="#000" stroke-width="3" stroke-miterlimit="10" stroke-linecap="round" stroke-linejoin="round"/><path d="M28.689 20.206h-5.787v44.5h5.787v-44.5zM28.697 20.206h-5.795l2.901-7.95 2.894 7.95zM22.902 24.208H20.1L20 40.639M27.4 64.707h-3.201v3.285h3.2v-3.285z" fill="#fff"/><path d="M22.902 20.206h5.787v44.5h-5.787v-44.5zm0 0h5.795l-2.894-7.95-2.901 7.95zm0 4.002H20.1L20 40.639m4.199 24.068h3.2v3.285h-3.2v-3.285z" stroke="#000" stroke-width="3" stroke-miterlimit="10" stroke-linecap="round" stroke-linejoin="round"/><path d="M44.32 24.071l-3.998-6.057-4 6.057v37.88h7.999v-37.88z" fill="#FFD29C" stroke="#000" stroke-width="3" stroke-miterlimit="10" stroke-linecap="round" stroke-linejoin="round"/><path d="M36.322 24.071l4 1.86m0 0l3.999-1.86m-4 1.86v36.02M38.9 20.172l1.422-2.15 1.422 2.15H38.9z" stroke="#000" stroke-width="3" stroke-miterlimit="10" stroke-linecap="round" stroke-linejoin="round"/><path d="M36.322 65.714c0 1.262.674 2.286 1.505 2.286h4.989c.831 0 1.505-1.024 1.505-2.286V61.95h-7.999v3.763z" fill="#fff" stroke="#000" stroke-width="3" stroke-miterlimit="10" stroke-linecap="round" stroke-linejoin="round"/><path d="M80 67.994V8H68.643v59.994H80z" fill="#C6F9EC"/><path d="M79.996 18.304h-4.64m4.64 9.845h-6.302m6.302 9.846h-4.64m4.64 9.845h-6.302m6.302 9.845h-4.64M80 8v59.994H68.643V8H80z" stroke="#000" stroke-width="3" stroke-miterlimit="10" stroke-linecap="round" stroke-linejoin="round"/></g><defs><clipPath id="clip0"><path fill="#fff" d="M0 0h100v75H0z"/></clipPath></defs></svg>