<svg width="100" height="75" fill="none" xmlns="http://www.w3.org/2000/svg"><path fill-rule="evenodd" clip-rule="evenodd" d="M77.794 64.823c-6.102 5.008-14.333 5.496-22.146 6.842-7.973 1.373-16.073 3.867-23.675 1.05-8.1-3-15.23-9-18.84-16.802-3.536-7.646-1.98-16.353-.297-24.572 1.61-7.862 3.773-15.96 9.708-21.383 5.813-5.313 14.017-6.584 21.881-7.49 7.577-.872 15.269-.764 22.216 2.41C73.8 8.15 79.615 13.65 83.635 20.383c4.224 7.077 7.216 15.131 6.147 23.264-1.084 8.244-5.548 15.89-11.988 21.176z" fill="#C6F9EC"/><path d="M67.92 68H32.08C29.827 68 28 66.023 28 63.586V11.414C28 8.977 29.827 7 32.08 7h35.84C70.173 7 72 8.977 72 11.414v52.172C72 66.023 70.173 68 67.92 68z" fill="#fff" stroke="#000" stroke-width="3" stroke-miterlimit="10" stroke-linecap="round" stroke-linejoin="round"/><path d="M49.041 16.741l8.382 9.068M59.439 31.623H42.486V15.731" stroke="#000" stroke-width="3" stroke-miterlimit="10" stroke-linecap="round" stroke-linejoin="round"/><path d="M46.657 22h-4.17v8.846h4.17V22z" fill="#C2C2FF" stroke="#000" stroke-width="3" stroke-miterlimit="10" stroke-linecap="round" stroke-linejoin="round"/><path d="M50.966 25.129h-4.31v5.717h4.31v-5.717z" fill="#FFD29C" stroke="#000" stroke-width="3" stroke-miterlimit="10" stroke-linecap="round" stroke-linejoin="round"/><path d="M37.734 41.373h-4.326v4.68h4.326v-4.68z" fill="#fff"/><path d="M42.421 41.373h22.787M42.42 49.13h22.787M42.42 57.31H59.08m-25.67-15.937h4.325v4.68h-4.326v-4.68z" stroke="#000" stroke-width="3" stroke-miterlimit="10" stroke-linecap="round" stroke-linejoin="round"/></svg>
