<svg width="100" height="75" fill="none" xmlns="http://www.w3.org/2000/svg"><path fill-rule="evenodd" clip-rule="evenodd" d="M69.47 15.355c6.842 5.736 14.08 11.558 15.847 20.316 2.136 10.586 2.438 23.404-5.554 30.692-7.888 7.194-20.03 2.664-30.689 2.361-10.117-.287-21.485 2.8-28.918-4.055-7.566-6.975-7.597-18.64-6.841-28.915.693-9.416 3.603-18.915 10.81-25.03C30.89 4.982 40.33 4.448 49.146 5.348c7.815.798 14.31 4.965 20.323 10.007z" fill="#FFD29C"/><path d="M67.92 65H32.08C29.828 65 28 63.218 28 61.02V13.98c0-2.198 1.827-3.98 4.08-3.98h30.096L72 19.814v41.198C72 63.218 70.173 65 67.92 65z" fill="#fff"/><path d="M62.176 19.814V10L72 19.814h-9.824z" fill="#fff"/><path d="M62.176 10H32.08C29.828 10 28 11.782 28 13.98v47.04c0 2.198 1.827 3.98 4.08 3.98h35.84c2.253 0 4.08-1.782 4.08-3.988V19.814M62.176 10L72 19.814M62.176 10v9.814H72M34.793 55.881h30.423m-30.423-7.089h30.423" stroke="#000" stroke-width="3" stroke-miterlimit="10" stroke-linecap="round" stroke-linejoin="round"/><path d="M53.473 40.177c0-1.806-1.384-2.325-2.876-2.613l-.794-.144c-1.172-.216-1.262-.527-1.262-.943 0-.543.532-.871 1.425-.871 1.057 0 1.328.487 1.442.855l.009.032c.13.32.442.511.827.511.099 0 .189-.015.254-.023.41-.072.705-.376.705-.736a.75.75 0 00-.05-.264c-.212-.623-.81-1.614-2.457-1.838v-1.07c0-.896-1.524-.896-1.524 0v1.078c-1.77.256-2.426 1.367-2.426 2.334 0 1.758 1.328 2.246 2.63 2.493l.86.168c1.222.232 1.435.52 1.435 1.055 0 .648-.599 1.04-1.598 1.04-1.295 0-1.565-.536-1.737-1.144-.107-.335-.434-.551-.836-.551-.09 0-.156.008-.246.024l-.024.008c-.418.088-.697.391-.697.751 0 .072.017.128.025.176l.016.056c.189.583.607 1.862 2.68 2.15v1.127c0 .447.385.679.762.679.376 0 .762-.232.762-.68v-1.102c1.63-.224 2.695-1.191 2.695-2.558z" fill="#02CEAA"/><path d="M50 27.838V16.56m-4.434 3.269L50 15.506l4.441 4.324" stroke="#3D3DE1" stroke-width="2" stroke-miterlimit="10" stroke-linecap="round" stroke-linejoin="round"/></svg>
