<svg width="100" height="75" fill="none" xmlns="http://www.w3.org/2000/svg"><path fill-rule="evenodd" clip-rule="evenodd" d="M82.361 41.049c-.898 9.702-.402 20.36-7.85 26.655-7.637 6.455-18.494 6.018-28.266 3.873-9.896-2.172-19.175-6.772-24.409-15.435-5.92-9.798-9.456-22.033-4.448-32.325 4.994-10.264 17.096-13.495 28.15-16.389C57.261 4.36 71.151-.764 80.095 7.402c8.74 7.98 3.357 21.87 2.266 33.647z" fill="#C2C2FF"/><path d="M76.846 34.36v30.737H22.563v-32L49.704 5l27.142 29.36z" fill="#fff"/><path d="M17 38.856L49.704 5m0 0l31.298 33.856M49.704 5L22.563 33.097v32h54.283V34.36L49.704 5z" stroke="#000" stroke-width="3" stroke-miterlimit="10" stroke-linecap="round" stroke-linejoin="round"/><path d="M55.748 38.856H42.264v26.25h13.484v-26.25z" stroke="#000" stroke-width="3" stroke-miterlimit="10" stroke-linecap="round" stroke-linejoin="round"/><path fill-rule="evenodd" clip-rule="evenodd" d="M68.307 8.838h-6.352v9.41l6.352 6.866V8.838z" fill="#fff" stroke="#000" stroke-width="3" stroke-miterlimit="10" stroke-linecap="round" stroke-linejoin="round"/><path d="M67.146 70C75.35 70 82 63.548 82 55.59c0-7.959-6.651-14.41-14.855-14.41S52.29 47.63 52.29 55.59c0 7.958 6.65 14.41 14.855 14.41z" fill="#C6F9EC" stroke="#000" stroke-width="3" stroke-miterlimit="10" stroke-linecap="round" stroke-linejoin="round"/><path d="M71.774 57.879c0-2.386-1.843-3.073-3.83-3.46l-1.052-.194c-1.561-.281-1.68-.695-1.68-1.25 0-.721.709-1.144 1.897-1.144 1.407 0 1.77.643 1.915 1.127l.018.044c.173.422.59.678 1.098.678.136 0 .254-.018.345-.035.554-.097.935-.502.935-.978a.896.896 0 00-.073-.343c-.281-.827-1.07-2.13-3.267-2.43v-1.417c0-1.188-2.023-1.188-2.023 0v1.426c-2.36.335-3.222 1.805-3.222 3.081 0 2.324 1.77 2.976 3.503 3.301l1.143.22c1.625.3 1.915.687 1.915 1.391 0 .854-.79 1.373-2.123 1.373-1.724 0-2.078-.712-2.314-1.505-.136-.44-.572-.722-1.116-.722-.118 0-.21.018-.327.036l-.036.008c-.554.124-.935.52-.935.995 0 .088.018.167.027.229l.018.07c.254.775.808 2.465 3.557 2.844v1.487c0 .59.509.907 1.017.907.508 0 1.016-.308 1.016-.907v-1.46c2.178-.283 3.594-1.559 3.594-3.372z" fill="#000"/></svg>
