<svg width="100" height="75" fill="none" xmlns="http://www.w3.org/2000/svg"><g clip-path="url(#clip0)"><path fill-rule="evenodd" clip-rule="evenodd" d="M42.32 70.248c-10.117-.937-21.231-.42-27.797-8.186-6.732-7.965-6.276-19.287-4.04-29.478 2.266-10.32 7.064-19.996 16.098-25.455C36.798.956 49.557-2.732 60.29 2.49 70.994 7.698 74.364 20.32 77.382 31.847c3.2 12.225 8.543 26.71.027 36.038-8.323 9.115-22.808 3.5-35.088 2.363z" fill="#C6F9EC"/><path d="M65.031 66.662H26.395C23.962 66.662 22 64.63 22 62.13V8.539c0-2.508 1.97-4.531 4.395-4.531H58.83l10.588 11.184v46.939c.007 2.5-1.962 4.53-4.388 4.53z" fill="#fff"/><path d="M58.838 15.185V4l10.588 11.185H58.838z" fill="#fff"/><path d="M65.031 66.662H26.395C23.962 66.662 22 64.63 22 62.13V8.539c0-2.508 1.97-4.531 4.395-4.531H58.83l10.588 11.184v46.939c.007 2.5-1.962 4.53-4.388 4.53z" stroke="#000" stroke-width="3" stroke-miterlimit="10" stroke-linecap="round" stroke-linejoin="round"/><path d="M58.838 15.185V4l10.588 11.185H58.838zM29.32 29.384h32.787M29.32 37.346h32.787M29.32 45.285h32.787" stroke="#000" stroke-width="3" stroke-miterlimit="10" stroke-linecap="round" stroke-linejoin="round"/><path d="M48.437 18.854c0-1.739-1.26-2.239-2.619-2.516l-.724-.138c-1.067-.208-1.149-.508-1.149-.908 0-.523.485-.838 1.299-.838.962 0 1.209.469 1.313.823l.007.03c.12.308.403.493.754.493.09 0 .172-.016.231-.023.373-.07.642-.362.642-.708a.76.76 0 00-.045-.254c-.194-.6-.738-1.554-2.238-1.769v-1.03c0-.862-1.388-.862-1.388 0v1.038c-1.612.246-2.209 1.315-2.209 2.246 0 1.692 1.209 2.162 2.395 2.4l.784.162c1.112.223 1.306.5 1.306 1.015 0 .623-.545 1-1.455 1-1.18 0-1.425-.515-1.582-1.1-.097-.323-.396-.53-.761-.53-.082 0-.142.007-.224.022l-.023.008c-.38.084-.634.377-.634.723 0 .07.015.123.023.17l.014.053c.172.562.553 1.792 2.44 2.07v1.084c0 .43.351.654.694.654.344 0 .694-.223.694-.654v-1.062c1.485-.207 2.455-1.138 2.455-2.461z" fill="#02CEAA"/><path d="M66.211 72c5.96 0 10.79-4.98 10.79-11.123 0-6.143-4.83-11.123-10.79-11.123-5.959 0-10.79 4.98-10.79 11.123C55.422 67.02 60.253 72 66.212 72z" fill="#FFD29C" stroke="#000" stroke-width="3" stroke-miterlimit="10" stroke-linecap="round" stroke-linejoin="round"/><path d="M58.988 68.254L73.3 53.5" stroke="#000" stroke-width="3" stroke-miterlimit="10" stroke-linecap="round" stroke-linejoin="round"/></g><defs><clipPath id="clip0"><path fill="#fff" d="M0 0h100v75H0z"/></clipPath></defs></svg>