<svg width="101" height="75" viewBox="0 0 101 75" fill="none" xmlns="http://www.w3.org/2000/svg">
  <path fill-rule="evenodd" clip-rule="evenodd" d="M67.5027 15.29C74.288 20.9901 81.4658 26.7762 83.2183 35.4793C85.3366 45.9989 85.6357 58.7367 77.71 65.9796C69.8871 73.1286 57.8462 68.6268 47.2756 68.3258C37.2419 68.0401 25.968 71.1072 18.5963 64.2965C11.0938 57.365 11.0627 45.7731 11.8124 35.5617C12.4994 26.2048 15.386 16.7649 22.532 10.6887C29.2428 4.9825 38.6041 4.45129 47.3479 5.34594C55.0977 6.13887 61.5384 10.2796 67.5027 15.29Z" fill="#FFD29C"/>
  <mask id="path-2-inside-1_10520_3953" fill="white">
    <path d="M73.8063 62C77.6627 62 80.0674 57.8189 78.1281 54.4856L55.3259 15.2936C53.4156 12.01 48.6857 11.9723 46.7231 15.2249L23.0755 54.4169C21.0648 57.7493 23.4645 62 27.3566 62L73.8063 62Z"/>
  </mask>
  <path d="M73.8063 62C77.6627 62 80.0674 57.8189 78.1281 54.4856L55.3259 15.2936C53.4156 12.01 48.6857 11.9723 46.7231 15.2249L23.0755 54.4169C21.0648 57.7493 23.4645 62 27.3566 62L73.8063 62Z" fill="white"/>
  <path d="M27.3566 62L27.3566 58L27.3566 62ZM23.0755 54.4169L19.6506 52.3504L23.0755 54.4169ZM78.1281 54.4856L74.6707 56.4971L78.1281 54.4856ZM73.8063 62V58V62ZM46.7231 15.2249L43.2983 13.1584L46.7231 15.2249ZM51.8685 17.3051L74.6707 56.4971L81.5855 52.474L58.7834 13.2821L51.8685 17.3051ZM73.8063 58L27.3566 58L27.3566 66L73.8063 66V58ZM26.5003 56.4834L50.148 17.2914L43.2983 13.1584L19.6506 52.3504L26.5003 56.4834ZM27.3566 58C26.5782 58 26.0982 57.1499 26.5003 56.4834L19.6506 52.3504C16.0314 58.3487 20.3509 66 27.3566 66L27.3566 58ZM74.6707 56.4971C75.0585 57.1638 74.5776 58 73.8063 58V66C80.7478 66 85.0763 58.474 81.5855 52.474L74.6707 56.4971ZM58.7834 13.2821C55.3447 7.37166 46.8309 7.30369 43.2983 13.1584L50.148 17.2914C50.5405 16.6409 51.4865 16.6484 51.8685 17.3051L58.7834 13.2821Z" fill="black" mask="url(#path-2-inside-1_10520_3953)"/>
  <path d="M50.5 43.6667C51.1365 43.6667 51.747 43.4208 52.1971 42.9832C52.6471 42.5457 52.9 41.9522 52.9 41.3333V27.3333C52.9 26.7145 52.6471 26.121 52.1971 25.6834C51.747 25.2458 51.1365 25 50.5 25C49.8635 25 49.253 25.2458 48.8029 25.6834C48.3529 26.121 48.1 26.7145 48.1 27.3333V41.3333C48.1 41.9522 48.3529 42.5457 48.8029 42.9832C49.253 43.4208 49.8635 43.6667 50.5 43.6667ZM50.5 53C51.0933 53 51.6734 52.8289 52.1667 52.5085C52.6601 52.188 53.0446 51.7324 53.2716 51.1995C53.4987 50.6665 53.5581 50.0801 53.4424 49.5143C53.3266 48.9485 53.0409 48.4288 52.6213 48.0209C52.2018 47.613 51.6672 47.3352 51.0853 47.2227C50.5033 47.1102 49.9001 47.1679 49.3519 47.3887C48.8038 47.6094 48.3352 47.9833 48.0056 48.4629C47.6759 48.9426 47.5 49.5065 47.5 50.0833C47.5 50.8569 47.8161 51.5987 48.3787 52.1457C48.9413 52.6927 49.7044 53 50.5 53Z" fill="#D73D02"/>
</svg>
