<svg width="24" height="19" viewBox="0 0 24 19" fill="none" xmlns="http://www.w3.org/2000/svg">
<path d="M22.2857 3.42857H17.1429V2.57143C17.1429 1.88944 16.8719 1.23539 16.3897 0.753154C15.9075 0.270918 15.2534 0 14.5714 0H9.42857C8.74659 0 8.09253 0.270918 7.6103 0.753154C7.12806 1.23539 6.85714 1.88944 6.85714 2.57143V3.42857H1.71429C1.25963 3.42857 0.823593 3.60918 0.502103 3.93067C0.180612 4.25217 0 4.6882 0 5.14286V8.14286C0 8.25652 0.045153 8.36553 0.125526 8.4459C0.205898 8.52628 0.314907 8.57143 0.428571 8.57143H5.14286V6.88607C5.13933 6.6645 5.21997 6.44984 5.36851 6.28539C5.51705 6.12095 5.72243 6.01896 5.94321 6C6.06046 5.99222 6.17805 6.00862 6.28869 6.0482C6.39933 6.08777 6.50065 6.14967 6.58636 6.23006C6.67207 6.31044 6.74033 6.40759 6.78691 6.51546C6.8335 6.62334 6.8574 6.73964 6.85714 6.85714V8.57143H17.1429V6.88607C17.1393 6.6645 17.22 6.44984 17.3685 6.28539C17.517 6.12095 17.7224 6.01896 17.9432 6C18.0605 5.99222 18.1781 6.00862 18.2887 6.0482C18.3993 6.08777 18.5007 6.14967 18.5864 6.23006C18.6721 6.31044 18.7403 6.40759 18.7869 6.51546C18.8335 6.62334 18.8574 6.73964 18.8571 6.85714V8.57143H23.5714C23.6851 8.57143 23.7941 8.52628 23.8745 8.4459C23.9548 8.36553 24 8.25652 24 8.14286V5.14286C24 4.6882 23.8194 4.25217 23.4979 3.93067C23.1764 3.60918 22.7404 3.42857 22.2857 3.42857ZM15.4286 3.42857H8.57143V2.57143C8.57143 2.3441 8.66173 2.12608 8.82248 1.96534C8.98323 1.80459 9.20124 1.71429 9.42857 1.71429H14.5714C14.7988 1.71429 15.0168 1.80459 15.1775 1.96534C15.3383 2.12608 15.4286 2.3441 15.4286 2.57143V3.42857ZM24 10.7143V17.1429C24 17.5975 23.8194 18.0335 23.4979 18.355C23.1764 18.6765 22.7404 18.8571 22.2857 18.8571H1.71429C1.25963 18.8571 0.823593 18.6765 0.502103 18.355C0.180612 18.0335 0 17.5975 0 17.1429V10.7143C0 10.6006 0.045153 10.4916 0.125526 10.4112C0.205898 10.3309 0.314907 10.2857 0.428571 10.2857H5.14286V12C5.1426 12.1175 5.1665 12.2338 5.21309 12.3417C5.25967 12.4496 5.32793 12.5467 5.41364 12.6271C5.49935 12.7075 5.60067 12.7694 5.71131 12.8089C5.82195 12.8485 5.93954 12.8649 6.05679 12.8571C6.27757 12.8382 6.48295 12.7362 6.63149 12.5717C6.78003 12.4073 6.86067 12.1926 6.85714 11.9711V10.2857H17.1429V12C17.1426 12.1175 17.1665 12.2338 17.2131 12.3417C17.2597 12.4496 17.3279 12.5467 17.4136 12.6271C17.4993 12.7075 17.6007 12.7694 17.7113 12.8089C17.8219 12.8485 17.9395 12.8649 18.0568 12.8571C18.2772 12.8382 18.4823 12.7365 18.6307 12.5725C18.7792 12.4085 18.8601 12.1944 18.8571 11.9732V10.2857H23.5714C23.6851 10.2857 23.7941 10.3309 23.8745 10.4112C23.9548 10.4916 24 10.6006 24 10.7143Z" fill="white"/>
</svg>
