<svg width="20" height="20" viewBox="0 0 20 20" fill="none" xmlns="http://www.w3.org/2000/svg">
<path d="M10 0C8.02219 0 6.08879 0.58649 4.4443 1.6853C2.79981 2.78412 1.51809 4.3459 0.761209 6.17317C0.00433284 8.00043 -0.193701 10.0111 0.192152 11.9509C0.578004 13.8907 1.53041 15.6725 2.92894 17.0711C4.32746 18.4696 6.10929 19.422 8.0491 19.8079C9.98891 20.1937 11.9996 19.9957 13.8268 19.2388C15.6541 18.4819 17.2159 17.2002 18.3147 15.5557C19.4135 13.9112 20 11.9778 20 10C20 8.68678 19.7413 7.38642 19.2388 6.17317C18.7363 4.95991 17.9997 3.85752 17.0711 2.92893C16.1425 2.00035 15.0401 1.26375 13.8268 0.761205C12.6136 0.258658 11.3132 0 10 0ZM10 18C8.41775 18 6.87104 17.5308 5.55544 16.6518C4.23985 15.7727 3.21447 14.5233 2.60897 13.0615C2.00347 11.5997 1.84504 9.99113 2.15372 8.43928C2.4624 6.88743 3.22433 5.46197 4.34315 4.34315C5.46197 3.22433 6.88743 2.4624 8.43928 2.15372C9.99113 1.84504 11.5997 2.00346 13.0615 2.60896C14.5233 3.21447 15.7727 4.23984 16.6518 5.55544C17.5308 6.87103 18 8.41775 18 10C18 12.1217 17.1572 14.1566 15.6569 15.6569C14.1566 17.1571 12.1217 18 10 18Z" fill="black"/>
<path d="M12.7 6.39L8.92 11.39L7.29 9.28C7.1269 9.07048 6.88724 8.93433 6.62375 8.90152C6.36026 8.8687 6.09453 8.94189 5.885 9.105C5.67548 9.26811 5.53934 9.50777 5.50652 9.77126C5.4737 10.0347 5.5469 10.3005 5.71 10.51L8.14001 13.62C8.23418 13.7392 8.35426 13.8353 8.49115 13.9012C8.62803 13.967 8.77811 14.0008 8.93001 14C9.08272 13.9996 9.23333 13.9643 9.37027 13.8967C9.50721 13.8291 9.62685 13.731 9.72001 13.61L14.29 7.61C14.4518 7.39783 14.5227 7.13008 14.487 6.86565C14.4514 6.60122 14.3122 6.36178 14.1 6.2C13.8878 6.03822 13.6201 5.96735 13.3557 6.00298C13.0912 6.03861 12.8518 6.17783 12.69 6.39H12.7Z" fill="black"/>
</svg>
