<svg width="25" height="25" viewBox="0 0 25 25" fill="none" xmlns="http://www.w3.org/2000/svg">
<path d="M12.5 0C5.6125 0 0 5.6125 0 12.5C0 19.3875 5.6125 25 12.5 25C19.3875 25 25 19.3875 25 12.5C25 5.6125 19.3875 0 12.5 0ZM11.25 10V6.25C11.25 5.5625 11.8125 5 12.5 5C13.1875 5 13.75 5.5625 13.75 6.25V10H15.9875C16.55 10 16.825 10.675 16.425 11.0625L12.9375 14.55C12.6875 14.8 12.3 14.8 12.05 14.55L8.5625 11.0625C8.47612 10.9744 8.41776 10.8627 8.39477 10.7414C8.37178 10.6202 8.38519 10.4949 8.43332 10.3812C8.48144 10.2676 8.56212 10.1708 8.66519 10.1029C8.76826 10.0351 8.88911 9.99928 9.0125 10H11.25ZM17.5 18.75H7.5C6.8125 18.75 6.25 18.1875 6.25 17.5C6.25 16.8125 6.8125 16.25 7.5 16.25H17.5C18.1875 16.25 18.75 16.8125 18.75 17.5C18.75 18.1875 18.1875 18.75 17.5 18.75Z" fill="black"/>
</svg>
