<svg width="20" height="21" viewBox="0 0 20 21" fill="none" xmlns="http://www.w3.org/2000/svg">
  <path d="M10 0.5C8.02219 0.5 6.08879 1.08649 4.4443 2.1853C2.79981 3.28412 1.51809 4.84591 0.761209 6.67317C0.00433286 8.50043 -0.1937 10.5111 0.192152 12.4509C0.578004 14.3907 1.53041 16.1725 2.92894 17.5711C4.32746 18.9696 6.10929 19.922 8.0491 20.3079C9.98891 20.6937 11.9996 20.4957 13.8268 19.7388C15.6541 18.9819 17.2159 17.7002 18.3147 16.0557C19.4135 14.4112 20 12.4778 20 10.5C20 7.84784 18.9464 5.3043 17.0711 3.42893C15.1957 1.55357 12.6522 0.5 10 0.5V0.5ZM8.75834 5.5C8.75834 5.16848 8.89003 4.85054 9.12445 4.61612C9.35887 4.3817 9.67682 4.25 10.0083 4.25C10.3399 4.25 10.6578 4.3817 10.8922 4.61612C11.1266 4.85054 11.2583 5.16848 11.2583 5.5V11.2417C11.2583 11.4058 11.226 11.5684 11.1632 11.72C11.1004 11.8717 11.0083 12.0095 10.8922 12.1256C10.7761 12.2416 10.6383 12.3337 10.4867 12.3965C10.335 12.4593 10.1725 12.4917 10.0083 12.4917C9.84418 12.4917 9.68164 12.4593 9.52998 12.3965C9.37832 12.3337 9.24052 12.2416 9.12445 12.1256C9.00838 12.0095 8.9163 11.8717 8.85349 11.72C8.79067 11.5684 8.75834 11.4058 8.75834 11.2417V5.5ZM10 16.75C9.71652 16.75 9.43939 16.6659 9.20368 16.5084C8.96797 16.3509 8.78426 16.1271 8.67578 15.8652C8.56729 15.6033 8.53891 15.3151 8.59421 15.037C8.64952 14.759 8.78603 14.5036 8.98648 14.3031C9.18694 14.1027 9.44233 13.9662 9.72037 13.9109C9.99841 13.8556 10.2866 13.884 10.5485 13.9924C10.8104 14.1009 11.0343 14.2846 11.1918 14.5204C11.3493 14.7561 11.4333 15.0332 11.4333 15.3167C11.4333 15.6968 11.2823 16.0614 11.0135 16.3302C10.7447 16.599 10.3801 16.75 10 16.75Z" fill="black"/>
</svg>