<svg width="30" height="25" viewBox="0 0 30 25" fill="none" xmlns="http://www.w3.org/2000/svg">
<path d="M21.1912 13.7485V22.5681H2.35458V3.1129H18.38L21.1861 0.681003H0V25H23.5458V11.7079L21.1912 13.7485Z" fill="white"/>
<path d="M7.55308 10.7313L11.1354 14.4733L27.1141 0.339263C27.6847 -0.165436 28.5385 -0.0980158 29.0307 0.481426L29.0957 0.55787C29.5951 1.14583 29.5285 2.01124 28.9631 2.50985L11.9693 17.4961C11.4163 17.9838 10.5234 17.9579 10.0026 17.4138L5.49751 12.708C4.97381 12.161 4.99692 11.2944 5.5427 10.7657L5.6147 10.696C6.1685 10.1596 7.02833 10.1831 7.55308 10.7313Z" fill="white"/>
</svg>
