<svg width="28" height="22" viewBox="0 0 28 22" fill="none" xmlns="http://www.w3.org/2000/svg">
<path d="M14.6406 7.60232C14.6406 8.61045 14.255 9.57729 13.5686 10.2901C12.8822 11.003 11.9512 11.4035 10.9805 11.4035C10.0097 11.4035 9.07875 11.003 8.39234 10.2901C7.70593 9.57729 7.32031 8.61045 7.32031 7.60232C7.32031 6.59419 7.70593 5.62735 8.39234 4.9145C9.07875 4.20164 10.0097 3.80116 10.9805 3.80116C11.9512 3.80116 12.8822 4.20164 13.5686 4.9145C14.255 5.62735 14.6406 6.59419 14.6406 7.60232ZM12.8105 7.60232C12.8105 7.09826 12.6177 6.61484 12.2745 6.25841C11.9313 5.90198 11.4658 5.70174 10.9805 5.70174C10.4951 5.70174 10.0296 5.90198 9.6864 6.25841C9.34319 6.61484 9.15038 7.09826 9.15038 7.60232C9.15038 8.10639 9.34319 8.58981 9.6864 8.94624C10.0296 9.30266 10.4951 9.5029 10.9805 9.5029C11.4658 9.5029 11.9313 9.30266 12.2745 8.94624C12.6177 8.58981 12.8105 8.10639 12.8105 7.60232ZM0 2.37573C0 1.06433 1.02484 0 2.2876 0H19.6733C20.9361 0 21.9609 1.06433 21.9609 2.37573V12.8289C21.9609 14.1403 20.9361 15.2046 19.6733 15.2046H2.2876C1.02484 15.2046 0 14.1403 0 12.8289V2.37573ZM2.2876 1.90058C2.16625 1.90058 2.04988 1.95064 1.96408 2.03975C1.87828 2.12885 1.83008 2.24971 1.83008 2.37573V3.80116H2.74511C2.9878 3.80116 3.22054 3.70104 3.39214 3.52283C3.56375 3.34461 3.66015 3.1029 3.66015 2.85087V1.90058H2.2876ZM1.83008 12.8289C1.83008 13.0912 2.03505 13.3041 2.2876 13.3041H3.66015V12.3538C3.66015 12.1017 3.56375 11.86 3.39214 11.6818C3.22054 11.5036 2.9878 11.4035 2.74511 11.4035H1.83008V12.8289ZM5.49023 12.3538V13.3041H16.4707V12.3538C16.4707 11.5977 16.7599 10.8725 17.2747 10.3379C17.7895 9.80326 18.4878 9.5029 19.2158 9.5029H20.1308V5.70174H19.2158C18.4878 5.70174 17.7895 5.40138 17.2747 4.86674C16.7599 4.3321 16.4707 3.60697 16.4707 2.85087V1.90058H5.49023V2.85087C5.49023 3.60697 5.20101 4.3321 4.6862 4.86674C4.1714 5.40138 3.47316 5.70174 2.74511 5.70174H1.83008V9.5029H2.74511C3.47316 9.5029 4.1714 9.80326 4.6862 10.3379C5.20101 10.8725 5.49023 11.5977 5.49023 12.3538ZM18.3008 13.3041H19.6733C19.7947 13.3041 19.911 13.254 19.9968 13.1649C20.0826 13.0758 20.1308 12.9549 20.1308 12.8289V11.4035H19.2158C18.9731 11.4035 18.7404 11.5036 18.5688 11.6818C18.3972 11.86 18.3008 12.1017 18.3008 12.3538V13.3041ZM20.1308 3.80116V2.37573C20.1308 2.24971 20.0826 2.12885 19.9968 2.03975C19.911 1.95064 19.7947 1.90058 19.6733 1.90058H18.3008V2.85087C18.3008 3.1029 18.3972 3.34461 18.5688 3.52283C18.7404 3.70104 18.9731 3.80116 19.2158 3.80116H20.1308Z" fill="black"/>
<path fill-rule="evenodd" clip-rule="evenodd" d="M24.157 7.21743C24.6624 7.21743 25.0721 7.62099 25.0721 8.11881V14.6087C25.0721 17.0978 23.0237 19.1156 20.4969 19.1156H4.39221C3.88684 19.1156 3.47717 18.7121 3.47717 18.2142C3.47717 17.7164 3.88684 17.3129 4.39221 17.3129H20.4969C22.013 17.3129 23.242 16.1022 23.242 14.6087V8.11881C23.242 7.62099 23.6517 7.21743 24.157 7.21743Z" fill="black"/>
<path fill-rule="evenodd" clip-rule="evenodd" d="M27.085 10.1018C27.5903 10.1018 28 10.5054 28 11.0032V15.3298C28 19.0137 24.9684 22 21.2287 22H7.32014C6.81477 22 6.4051 21.5964 6.4051 21.0986C6.4051 20.6008 6.81477 20.1972 7.32014 20.1972H21.2287C23.9577 20.1972 26.1699 18.018 26.1699 15.3298V11.0032C26.1699 10.5054 26.5796 10.1018 27.085 10.1018Z" fill="black"/>
</svg>
