<svg width="16" height="27" viewBox="0 0 16 27" fill="none" xmlns="http://www.w3.org/2000/svg">
<path d="M15.5 17.2433C15.5 13.2421 12.5145 12.0971 9.28821 11.4584L7.57853 11.133C5.05044 10.663 4.84576 9.976 4.84576 9.048C4.84576 7.84281 5.98948 7.11969 7.91565 7.11969C10.1909 7.11969 10.7809 8.20437 11.0217 9.01185L11.0458 9.08416C11.3347 9.79523 11.9968 10.217 12.8275 10.217C13.0442 10.217 13.2367 10.1809 13.3812 10.1568C14.2721 9.98806 14.8981 9.31315 14.8981 8.52977C14.8981 8.33694 14.8619 8.13206 14.7896 7.95128C14.3322 6.5653 13.0441 4.3839 9.48072 3.87772V1.49143C9.48072 -0.497143 6.19422 -0.497143 6.19422 1.49143V3.88977C2.36595 4.45621 0.957324 6.91481 0.957324 9.048C0.957324 12.9408 3.8348 14.0255 6.63978 14.5799L8.49348 14.9535C11.1299 15.4596 11.5995 16.1105 11.5995 17.2795C11.5995 18.7137 10.3113 19.5694 8.15636 19.5694C5.35138 19.5694 4.78572 18.3762 4.40048 17.0385C4.17175 16.3033 3.47351 15.8212 2.5947 15.8212C2.40208 15.8212 2.24565 15.8453 2.06507 15.8694L2.00482 15.8815C1.10193 16.0863 0.5 16.7492 0.5 17.5567C0.5 17.7134 0.524124 17.8339 0.548201 17.9424L0.572302 18.0629C0.981613 19.3645 1.87223 22.1846 6.35058 22.8234V25.3181C6.35058 26.3064 7.18138 26.8246 8 26.8246C8.81862 26.8246 9.64942 26.3064 9.64942 25.3181V22.8716C13.2008 22.4136 15.5 20.2684 15.5 17.2433Z" fill="black"/>
</svg>
