<svg width="26" height="26" viewBox="0 0 26 26" fill="none" xmlns="http://www.w3.org/2000/svg">
  <g clip-path="url(#clip0_11573_57)">
    <path d="M14 2C7.376 2 2 7.376 2 14C2 20.624 7.376 26 14 26C20.624 26 26 20.624 26 14C26 7.376 20.624 2 14 2ZM21.632 19.796C19.916 17.708 15.752 17 14 17C12.248 17 8.084 17.708 6.368 19.796C5.09318 18.1326 4.40157 16.0957 4.4 14C4.4 8.708 8.708 4.4 14 4.4C19.292 4.4 23.6 8.708 23.6 14C23.6 16.184 22.856 18.188 21.632 19.796ZM14 6.8C11.672 6.8 9.8 8.672 9.8 11C9.8 13.328 11.672 15.2 14 15.2C16.328 15.2 18.2 13.328 18.2 11C18.2 8.672 16.328 6.8 14 6.8Z" fill="white"/>
  </g>
  <defs>
    <clipPath id="clip0_11573_57">
      <rect width="24" height="24" fill="white" transform="translate(2 2)"/>
    </clipPath>
  </defs>
</svg>
