<svg width="24" height="24" viewBox="0 0 24 24" fill="none" xmlns="http://www.w3.org/2000/svg">
<path d="M23.5361 10.1921L23.5362 10.1921C23.7089 10.2203 23.8354 10.3693 23.835 10.5439V10.5442V13.414C23.835 13.5872 23.7108 13.7355 23.54 13.7655L23.54 13.7655L20.452 14.3076L20.3507 14.3254L20.3221 14.4243C20.1464 15.0315 19.9053 15.6161 19.6018 16.169L19.5516 16.2603L19.6125 16.3448L21.4377 18.8791L21.4378 18.8792C21.54 19.021 21.5242 19.2163 21.4005 19.3403L19.3721 21.3702C19.3721 21.3703 19.3721 21.3703 19.3721 21.3703C19.2488 21.4932 19.0563 21.5101 18.9149 21.4102L18.9145 21.4099L16.3551 19.6145L16.2705 19.5551L16.1801 19.6054C15.6264 19.9134 15.0382 20.1592 14.424 20.34L14.326 20.3689L14.3082 20.4695L13.7629 23.5428L13.7629 23.543C13.733 23.7129 13.5851 23.8371 13.4119 23.8371H10.5421C10.3674 23.8371 10.2191 23.711 10.191 23.5402L10.1909 23.5398L9.68167 20.4816L9.6646 20.3791L9.56473 20.3502C8.95183 20.1731 8.36047 19.9288 7.80087 19.6211L7.71085 19.5716L7.62671 19.6306L5.08562 21.4104L5.0854 21.4105C4.94413 21.5098 4.75106 21.4929 4.62854 21.3704L2.60018 19.3405C2.47666 19.2163 2.46095 19.0216 2.56206 18.8802L2.56209 18.8802L4.35755 16.3689L4.41809 16.2842L4.36773 16.1931C4.05691 15.6308 3.81013 15.0374 3.63146 14.4215L3.60287 14.323L3.50181 14.3051L0.459419 13.7656C0.289198 13.7352 0.165 13.5871 0.165 13.414V10.5442C0.165 10.3703 0.291361 10.221 0.463228 10.1925L0.463315 10.1925L3.50584 9.68585L3.60817 9.66881L3.63716 9.5692C3.8169 8.95163 4.06371 8.35818 4.37349 7.79751L4.42322 7.70749L4.3643 7.62319L2.59076 5.08575L2.59052 5.0854C2.49125 4.94416 2.50809 4.7516 2.63063 4.62906L4.65847 2.60123C4.65851 2.60119 4.65855 2.60115 4.65858 2.60111C4.78291 2.47761 4.97654 2.46155 5.11881 2.56317L7.63903 4.36333L7.72331 4.42353L7.81417 4.37379C8.3695 4.06977 8.9593 3.82758 9.5739 3.65088L9.67431 3.62201L9.69115 3.5189L10.19 0.464371L10.19 0.464358C10.2182 0.291656 10.3673 0.165 10.5421 0.165H13.4119C13.5851 0.165 13.7334 0.289778 13.7634 0.460596L14.3013 3.53173L14.3191 3.63298L14.4178 3.6617C15.0285 3.83934 15.6173 4.08405 16.1748 4.39225L16.2662 4.44276L16.3509 4.38183L18.8779 2.5655L18.8781 2.56535C19.0199 2.46311 19.2147 2.4789 19.3387 2.60262L21.3676 4.63046C21.4904 4.75362 21.5071 4.94683 21.4079 5.08801L21.4078 5.08811L19.6077 7.65373L19.5487 7.73781L19.5981 7.82787C19.9012 8.38038 20.1434 8.9641 20.3206 9.57139L20.3497 9.67124L20.4524 9.68801L23.5361 10.1921ZM8.18251 12.001C8.18251 14.1094 9.89165 15.8185 12 15.8185C14.1083 15.8185 15.8175 14.1094 15.8175 12.001C15.8175 9.8927 14.1083 8.18355 12 8.18355C9.89165 8.18355 8.18251 9.8927 8.18251 12.001ZM20.4806 14.4701L23.5685 13.928L20.4806 14.4701Z" fill="white" stroke="white" stroke-width="0.33"/>
</svg>
