<svg width="22" height="20" viewBox="0 0 22 20" fill="none" xmlns="http://www.w3.org/2000/svg">
<path d="M21.3988 18.0625L11.6488 1.1875C11.5035 0.936719 11.2527 0.8125 10.9996 0.8125C10.7465 0.8125 10.4934 0.936719 10.3504 1.1875L0.600399 18.0625C0.312117 18.5641 0.673055 19.1875 1.24962 19.1875H20.7496C21.3262 19.1875 21.6871 18.5641 21.3988 18.0625ZM10.2496 7.75C10.2496 7.64687 10.334 7.5625 10.4371 7.5625H11.5621C11.6652 7.5625 11.7496 7.64687 11.7496 7.75V12.0625C11.7496 12.1656 11.6652 12.25 11.5621 12.25H10.4371C10.334 12.25 10.2496 12.1656 10.2496 12.0625V7.75ZM10.9996 16C10.7052 15.994 10.4249 15.8728 10.2188 15.6625C10.0128 15.4522 9.89735 15.1695 9.89735 14.875C9.89735 14.5805 10.0128 14.2978 10.2188 14.0875C10.4249 13.8772 10.7052 13.756 10.9996 13.75C11.294 13.756 11.5743 13.8772 11.7804 14.0875C11.9865 14.2978 12.1019 14.5805 12.1019 14.875C12.1019 15.1695 11.9865 15.4522 11.7804 15.6625C11.5743 15.8728 11.294 15.994 10.9996 16Z" fill="black"/>
</svg>
