<svg width="40" height="50" viewBox="0 0 40 50" fill="none" xmlns="http://www.w3.org/2000/svg">
  <path d="M33.3879 0H9.28632C6.81523 0 4.79549 2.05923 4.7842 4.59278H4.5134C2.03103 4.59278 0 6.66358 0 9.22027V45.3725C0 47.9176 2.01975 50 4.5134 50H30.7137C33.196 50 35.2045 47.9408 35.2158 45.4072H35.4866C37.969 45.4072 40 43.3364 40 40.7797V6.7677C40 3.031 37.0324 0 33.3879 0ZM32.1693 45.3609C32.1693 46.1823 31.5148 46.8533 30.7137 46.8533H4.5134C3.71227 46.8533 3.05783 46.1823 3.05783 45.3609V9.2087C3.05783 8.38732 3.71227 7.71633 4.5134 7.71633H24.9817V13.6974C24.9817 14.565 25.67 15.2591 26.5049 15.2591H32.158V45.3609H32.1693ZM28.0395 12.1356V9.99537L30.0705 12.1356H28.0395ZM36.9422 40.7682C36.9422 41.5895 36.2877 42.2605 35.4866 42.2605H35.2158V13.6974C35.2158 13.6627 35.2045 13.6395 35.1932 13.6048C35.1819 13.466 35.1594 13.3387 35.1142 13.2115C35.103 13.1652 35.0917 13.1189 35.0691 13.0726C35.0014 12.9107 34.8999 12.7487 34.7757 12.6215L27.5882 5.07867C27.4528 4.93984 27.3061 4.84729 27.1368 4.76631C27.0917 4.74317 27.0465 4.73161 26.9901 4.70847C26.8547 4.66219 26.7193 4.62749 26.5839 4.62749C26.5501 4.62749 26.5275 4.60435 26.4937 4.60435H7.84203C7.8646 3.79454 8.49647 3.14669 9.2976 3.14669H33.3992C35.3625 3.14669 36.9535 4.77788 36.9535 6.79084V40.7682H36.9422Z" fill="black"/>
  <path d="M18.0643 43.6834C14.1828 43.6834 11.0234 40.4442 11.0234 36.4645V17.5034C11.0234 14.7732 13.1899 12.552 15.8528 12.552C18.5157 12.552 20.6821 14.7732 20.6821 17.5034V33.422C20.6821 34.8912 19.5086 36.0943 18.0756 36.0943C16.6426 36.0943 15.4691 34.8912 15.4691 33.422V19.0189C15.4691 18.3826 15.9769 17.862 16.5975 17.862C17.2181 17.862 17.7258 18.3826 17.7258 19.0189V33.422C17.7258 33.6186 17.8838 33.7806 18.0756 33.7806C18.2674 33.7806 18.4254 33.6186 18.4254 33.422V17.5034C18.4254 16.0573 17.2745 14.8657 15.8528 14.8657C14.4423 14.8657 13.2801 16.0458 13.2801 17.5034V36.4645C13.2801 39.1716 15.424 41.3697 18.0643 41.3697C20.7047 41.3697 22.8485 39.1716 22.8485 36.4645V19.0189C22.8485 18.3826 23.3563 17.862 23.9769 17.862C24.5975 17.862 25.1052 18.3826 25.1052 19.0189V36.453C25.1052 40.4442 21.9459 43.6834 18.0643 43.6834Z" fill="#89DDEF"/>
</svg>
