<svg width="80" height="80" viewBox="0 0 80 80" fill="none" xmlns="http://www.w3.org/2000/svg">
<path d="M2.29399 51.4205C-2.17786 38.2548 0.193185 23.0016 6.76444 14.0372C13.3545 5.07904 23.8504 0.368285 39.0961 2.1167C54.3419 3.8651 54.5193 -3.2349 66.3889 1.89728C78.2585 7.02946 81.0291 18.4908 79.6926 33.1364C78.3562 47.7821 73.0792 60.4162 64.0279 69.0227C54.9767 77.6292 42.1511 82.2082 30.1042 78.9437C18.0385 75.6728 6.76133 64.6074 2.29399 51.4205Z" fill="#C2C2FF"/>
<path d="M65.7661 23.761L41.1452 11.2746C40.3506 10.8745 39.4774 10.6665 38.5924 10.6665C37.7074 10.6665 36.8342 10.8745 36.0396 11.2746L11.4187 23.761C10.093 24.4213 8.97526 25.4516 8.19374 26.7339C7.41222 28.0162 6.9985 29.4986 7 31.0112V57.7373C7 62.2078 10.5852 65.8445 14.9926 65.8445H62.1922C66.5996 65.8445 70.1848 62.2078 70.1848 57.7373V31.0112C70.1863 29.4986 69.7726 28.0162 68.9911 26.7339C68.2096 25.4516 67.0919 24.4213 65.7661 23.761ZM38.0819 15.4179C38.2408 15.3379 38.4154 15.2963 38.5924 15.2963C38.7694 15.2963 38.9441 15.3379 39.103 15.4179L62.9919 27.5294L38.7335 39.8349C38.5745 39.915 38.3999 39.9566 38.2229 39.9566C38.0459 39.9566 37.8713 39.915 37.7123 39.8349L13.8192 27.722L38.0819 15.4179Z" fill="black"/>
<path d="M38.7732 15.2964C38.5962 15.2964 38.4216 15.338 38.2627 15.418L14 27.7221L37.8932 39.835C38.0521 39.9151 38.2267 39.9567 38.4037 39.9567C38.5807 39.9567 38.7554 39.9151 38.9143 39.835L63.1727 27.5295L39.2838 15.418C39.1249 15.338 38.9502 15.2964 38.7732 15.2964Z" fill="white"/>
</svg>
