<svg width="34" height="36" viewBox="0 0 34 36" fill="none" xmlns="http://www.w3.org/2000/svg">
  <path d="M17.3715 0H3.47431C2.55287 0 1.66916 0.354637 1.0176 0.985896C0.366042 1.61715 0 2.47332 0 3.36606V30.2945C0 31.1873 0.366042 32.0434 1.0176 32.6747C1.66916 33.306 2.55287 33.6606 3.47431 33.6606H15.6344C14.9222 33.2398 14.2447 32.7181 13.654 32.1459C12.5622 31.1734 11.6795 30.0014 11.0568 28.6972C10.434 27.3931 10.0835 25.9826 10.0254 24.5467C9.96731 23.1109 10.2027 21.6781 10.7181 20.3307C11.2335 18.9834 12.0188 17.748 13.0287 16.6957C16.833 12.6227 23.1563 12 27.7945 15.1473V10.0982L17.3715 0ZM15.6344 11.7812V2.52454L25.1887 11.7812H15.6344ZM28.333 28.4432C30.6434 24.892 29.5316 20.1964 25.901 17.9748C22.2356 15.7363 17.3715 16.8303 15.0959 20.331C12.7681 23.8822 13.8972 28.561 17.5279 30.7994C20.0641 32.3647 23.2952 32.3647 25.8489 30.8331L31.2688 36L33.6834 33.6606L28.333 28.4432ZM21.7144 28.6115C20.5626 28.6115 19.458 28.1682 18.6436 27.3791C17.8291 26.5901 17.3715 25.5198 17.3715 24.4039C17.3715 23.288 17.8291 22.2178 18.6436 21.4287C19.458 20.6397 20.5626 20.1964 21.7144 20.1964C22.8662 20.1964 23.9709 20.6397 24.7853 21.4287C25.5998 22.2178 26.0573 23.288 26.0573 24.4039C26.0573 25.5198 25.5998 26.5901 24.7853 27.3791C23.9709 28.1682 22.8662 28.6115 21.7144 28.6115Z" fill="#FF9214"/>
</svg>
