<svg xmlns="http://www.w3.org/2000/svg" width="480pt" height="290pt" viewBox="0 0 480 290" version="1.1" xmlns:xlink="http://www.w3.org/1999/xlink">
  <g id="surface2" transform="matrix(0.9999780064220969,0.006632244875498115,-0.006632244875498115,0.9999780064220969,5.622055238540156,-8.58306112249906)">
    <path style="stroke:none;fill-rule:evenodd;fill:rgb(34.509804%,34.901961%,35.686275%);fill-opacity:1" d="M 201.000000 92.648438 C 199.867188 86.214844 199.984375 80.000000 201.351562 74.000000 C 202.714844 68.000000 205.132812 62.500000 208.601562 57.500000 C 212.035156 52.500000 216.316406 48.300781 221.449219 44.898438 C 226.617188 41.535156 232.398438 39.234375 238.800781 38.000000 L 238.250000 34.898438 C 231.785156 36.101562 225.832031 38.199219 220.398438 41.199219 C 214.933594 44.199219 210.101562 47.917969 205.898438 52.351562 C 201.699219 56.785156 198.265625 61.750000 195.601562 67.250000 C 192.933594 72.750000 191.148438 78.566406 190.250000 84.699219 C 189.351562 90.867188 189.464844 97.183594 190.601562 103.648438 C 191.800781 110.117188 193.898438 116.066406 196.898438 121.500000 C 199.898438 126.964844 203.632812 131.800781 208.101562 136.000000 C 212.535156 140.199219 217.484375 143.632812 222.949219 146.300781 C 228.449219 148.964844 234.285156 150.750000 240.449219 151.648438 C 246.617188 152.550781 252.917969 152.433594 259.351562 151.300781 L 255.601562 130.449219 C 249.167969 131.582031 242.949219 131.464844 236.949219 130.101562 C 230.949219 128.734375 225.449219 126.316406 220.449219 122.851562 C 215.449219 119.417969 211.250000 115.117188 207.851562 109.949219 C 204.484375 104.816406 202.199219 99.050781 201.000000 92.648438 "/>
    <path style="stroke:none;fill-rule:evenodd;fill:rgb(42.745098%,43.137255%,44.313725%);fill-opacity:1" d="M 238.851562 38.000000 L 238.250000 34.898438 C 232.050781 36.066406 226.316406 38.050781 221.050781 40.851562 C 215.750000 43.683594 211.035156 47.199219 206.898438 51.398438 C 202.765625 55.566406 199.332031 60.234375 196.601562 65.398438 C 193.832031 70.601562 191.882812 76.117188 190.750000 81.949219 C 193.750000 83.449219 196.933594 84.765625 200.300781 85.898438 C 200.101562 80.132812 200.898438 74.601562 202.699219 69.300781 C 204.464844 64.035156 207.082031 59.250000 210.550781 54.949219 C 213.984375 50.617188 218.101562 46.984375 222.898438 44.050781 C 227.699219 41.117188 233.015625 39.101562 238.851562 38.000000 "/>
    <path style="stroke:none;fill-rule:evenodd;fill:rgb(26.666667%,57.647059%,23.529412%);fill-opacity:1" d="M 258.300781 113.000000 L 256.500000 104.101562 C 261.800781 101.867188 265.550781 98.648438 267.750000 94.449219 C 269.851562 90.351562 270.082031 85.515625 268.449219 79.949219 C 267.714844 77.351562 266.632812 75.250000 265.199219 73.648438 C 263.765625 72.082031 262.167969 70.816406 260.398438 69.851562 C 258.632812 68.882812 256.750000 68.132812 254.750000 67.601562 C 252.714844 67.101562 250.750000 66.683594 248.851562 66.351562 L 246.199219 53.199219 C 247.964844 53.035156 249.582031 52.984375 251.050781 53.050781 C 252.515625 53.117188 253.734375 53.234375 254.699219 53.398438 L 255.750000 45.898438 C 254.183594 45.699219 252.515625 45.601562 250.750000 45.601562 C 248.984375 45.601562 246.984375 45.765625 244.750000 46.101562 L 244.148438 43.148438 C 245.351562 43.050781 246.550781 43.000000 247.750000 43.000000 C 252.714844 43.035156 257.367188 43.964844 261.699219 45.800781 C 266.000000 47.632812 269.785156 50.183594 273.050781 53.449219 C 276.316406 56.714844 278.867188 60.515625 280.699219 64.851562 C 282.566406 69.148438 283.515625 73.785156 283.550781 78.750000 C 283.515625 84.148438 282.417969 89.167969 280.250000 93.800781 C 278.082031 98.398438 275.117188 102.367188 271.351562 105.699219 C 267.550781 109.000000 263.199219 111.433594 258.300781 113.000000 M 250.000000 93.699219 L 247.101562 77.601562 C 249.433594 78.101562 251.500000 78.785156 253.300781 79.648438 C 255.101562 80.484375 256.214844 81.851562 256.648438 83.750000 C 257.148438 85.984375 256.882812 87.949219 255.851562 89.648438 C 254.750000 91.417969 252.800781 92.765625 250.000000 93.699219 M 211.949219 78.750000 C 211.984375 73.449219 213.050781 68.535156 215.148438 64.000000 C 217.214844 59.464844 220.082031 55.550781 223.750000 52.250000 C 227.417969 48.949219 231.632812 46.484375 236.398438 44.851562 L 236.898438 47.949219 C 233.000000 49.316406 229.964844 51.234375 227.800781 53.699219 C 225.601562 56.199219 224.632812 59.449219 224.898438 63.449219 C 225.066406 65.648438 225.632812 67.500000 226.601562 69.000000 C 227.535156 70.535156 228.765625 71.800781 230.300781 72.800781 C 231.800781 73.765625 233.500000 74.535156 235.398438 75.101562 C 237.332031 75.632812 239.285156 76.101562 241.250000 76.500000 L 244.050781 94.949219 C 241.050781 95.285156 238.464844 95.351562 236.300781 95.148438 C 234.101562 94.917969 232.382812 94.566406 231.148438 94.101562 L 228.300781 106.750000 C 230.000000 107.351562 232.367188 107.714844 235.398438 107.851562 C 238.433594 107.984375 241.933594 107.714844 245.898438 107.050781 L 247.000000 114.500000 C 242.132812 114.367188 237.582031 113.367188 233.351562 111.500000 C 229.117188 109.632812 225.398438 107.066406 222.199219 103.800781 C 219.000000 100.566406 216.500000 96.816406 214.699219 92.550781 C 212.898438 88.285156 211.984375 83.683594 211.949219 78.750000 M 243.250000 65.300781 C 241.148438 64.867188 239.382812 64.300781 237.949219 63.601562 C 236.484375 62.898438 235.667969 61.851562 235.500000 60.449219 C 235.300781 59.015625 235.601562 57.734375 236.398438 56.601562 C 237.199219 55.464844 238.832031 54.601562 241.300781 54.000000 L 243.250000 65.300781 M 247.750000 40.699219 C 241.851562 40.734375 236.332031 41.851562 231.199219 44.050781 C 226.066406 46.250000 221.550781 49.285156 217.648438 53.148438 C 213.785156 57.050781 210.750000 61.566406 208.550781 66.699219 C 206.351562 71.800781 205.234375 77.316406 205.199219 83.250000 C 205.234375 89.148438 206.351562 94.667969 208.550781 99.800781 C 210.750000 104.933594 213.785156 109.449219 217.648438 113.351562 C 221.550781 117.214844 226.066406 120.250000 231.199219 122.449219 C 236.332031 124.648438 241.851562 125.765625 247.750000 125.800781 C 253.648438 125.765625 259.167969 124.648438 264.300781 122.449219 C 269.433594 120.250000 273.949219 117.214844 277.851562 113.351562 C 281.714844 109.449219 284.750000 104.933594 286.949219 99.800781 C 289.148438 94.667969 290.265625 89.148438 290.300781 83.250000 C 290.265625 77.351562 289.148438 71.832031 286.949219 66.699219 C 284.750000 61.566406 281.714844 57.050781 277.851562 53.148438 C 273.949219 49.285156 269.433594 46.250000 264.300781 44.050781 C 259.167969 41.851562 253.648438 40.734375 247.750000 40.699219 "/>
    <path style="stroke:none;fill-rule:evenodd;fill:rgb(21.960784%,40.784314%,19.607843%);fill-opacity:1" d="M 243.250000 65.300781 C 241.148438 64.867188 239.382812 64.300781 237.949219 63.601562 C 236.484375 62.898438 235.667969 61.851562 235.500000 60.449219 C 235.300781 59.015625 235.601562 57.734375 236.398438 56.601562 C 237.199219 55.464844 238.832031 54.601562 241.300781 54.000000 L 243.250000 65.300781 M 211.949219 78.750000 C 211.984375 73.449219 213.050781 68.535156 215.148438 64.000000 C 217.214844 59.464844 220.082031 55.550781 223.750000 52.250000 C 227.417969 48.949219 231.632812 46.484375 236.398438 44.851562 L 236.898438 47.949219 C 233.000000 49.316406 229.964844 51.234375 227.800781 53.699219 C 225.601562 56.199219 224.632812 59.449219 224.898438 63.449219 C 225.066406 65.648438 225.632812 67.500000 226.601562 69.000000 C 227.535156 70.535156 228.765625 71.800781 230.300781 72.800781 C 231.800781 73.765625 233.500000 74.535156 235.398438 75.101562 C 237.332031 75.632812 239.285156 76.101562 241.250000 76.500000 L 243.148438 89.050781 C 245.117188 88.714844 247.050781 88.332031 248.949219 87.898438 L 247.101562 77.601562 C 249.433594 78.101562 251.500000 78.785156 253.300781 79.648438 C 255.101562 80.484375 256.214844 81.851562 256.648438 83.750000 C 256.816406 84.382812 256.898438 85.015625 256.898438 85.648438 C 261.101562 84.183594 265.000000 82.449219 268.601562 80.449219 C 268.566406 80.285156 268.515625 80.117188 268.449219 79.949219 C 267.714844 77.351562 266.632812 75.250000 265.199219 73.648438 C 263.765625 72.082031 262.167969 70.816406 260.398438 69.851562 C 258.632812 68.882812 256.750000 68.132812 254.750000 67.601562 C 252.714844 67.101562 250.750000 66.683594 248.851562 66.351562 L 246.199219 53.199219 C 247.964844 53.035156 249.582031 52.984375 251.050781 53.050781 C 252.515625 53.117188 253.734375 53.234375 254.699219 53.398438 L 255.750000 45.898438 C 254.183594 45.699219 252.515625 45.601562 250.750000 45.601562 C 248.984375 45.601562 246.984375 45.765625 244.750000 46.101562 L 244.148438 43.148438 C 245.351562 43.050781 246.550781 43.000000 247.750000 43.000000 C 253.351562 43.035156 258.535156 44.214844 263.300781 46.550781 C 268.035156 48.851562 272.066406 52.015625 275.398438 56.050781 C 278.734375 60.082031 281.082031 64.714844 282.449219 69.949219 C 283.851562 68.417969 285.132812 66.851562 286.300781 65.250000 C 284.000000 60.382812 280.917969 56.117188 277.050781 52.449219 C 273.214844 48.785156 268.800781 45.917969 263.800781 43.851562 C 258.800781 41.785156 253.449219 40.734375 247.750000 40.699219 C 241.851562 40.734375 236.332031 41.851562 231.199219 44.050781 C 226.066406 46.250000 221.550781 49.285156 217.648438 53.148438 C 213.785156 57.050781 210.750000 61.566406 208.550781 66.699219 C 206.351562 71.800781 205.234375 77.316406 205.199219 83.250000 C 205.199219 84.648438 205.265625 86.035156 205.398438 87.398438 C 208.000000 88.066406 210.683594 88.617188 213.449219 89.050781 C 212.484375 85.785156 211.984375 82.351562 211.949219 78.750000 "/>
  </g>
  <g id="surface4">
    <text style="fill:rgb(88,89,91)" font-family="Audiowide" font-size="50" transform="matrix(1,0,0,1,10.849999999999994,204.25)" xml:space="preserve"><![CDATA[Desert Financial ]]></text>
    <text style="fill:rgb(56,104,50)" font-family="Audiowide" font-size="35" transform="matrix(1,0,0,1,117.25,256.25)" xml:space="preserve"><![CDATA[Tax Services]]></text>
    <text style="fill:rgb(88,89,91)" font-family="Audiowide" font-size="24" transform="matrix(1,0,0,1,220.5,226)" xml:space="preserve"><![CDATA[and]]></text>
  </g>
</svg>