<svg width="98" height="87" viewBox="0 0 98 87" fill="none" xmlns="http://www.w3.org/2000/svg">
<path d="M94.5387 64.2033C88.7475 77.2447 75.4971 86.0558 63.2251 86.9161C50.9414 87.7563 38.3925 82.335 26.471 68.3839C14.5495 54.4329 9.18398 59.3067 2.67055 45.7779C-3.84288 32.2491 2.17066 21.832 14.079 12.5877C25.9874 3.34354 39.8321 -1.19171 53.9895 0.269389C68.1468 1.73049 82.6168 9.18793 90.6548 21.5436C98.7043 33.9194 100.349 51.1507 94.5387 64.2033Z" fill="#89DDEF"/>
<path d="M15.7692 18C14.2434 18 13 19.2414 13 20.7647V59.4706C13 62.4952 15.5089 65 18.5385 65H73.732C74.4664 65 75.1708 64.7087 75.6901 64.1902C76.2095 63.6718 76.5012 62.9685 76.5012 62.2353C76.5012 61.502 76.2095 60.7988 75.6901 60.2804C75.1708 59.7619 74.4664 59.4706 73.732 59.4706H18.5385V31.8235H79.4615V59.4706H69.7692C69.0348 59.4706 68.3304 59.7619 67.8111 60.2804C67.2918 60.7988 67 61.502 67 62.2353C67 62.9685 67.2918 63.6718 67.8111 64.1902C68.3304 64.7087 69.0348 65 69.7692 65H79.4615C82.4911 65 85 62.4952 85 59.4706V20.7647C85 19.2414 83.7566 18 82.2308 18H15.7692ZM24.6834 37.3529C23.9489 37.456 23.2856 37.846 22.8392 38.4374C22.3928 39.0287 22.2 39.7728 22.3032 40.5061C22.4064 41.2393 22.7971 41.9016 23.3894 42.3473C23.9817 42.7929 24.7271 42.9854 25.4615 42.8824H47.6154C48.3498 42.8824 49.0542 42.5911 49.5735 42.0726C50.0929 41.5541 50.3846 40.8509 50.3846 40.1176C50.3846 39.3844 50.0929 38.6812 49.5735 38.1627C49.0542 37.6442 48.3498 37.3529 47.6154 37.3529H25.4615C25.3748 37.3489 25.288 37.3489 25.2012 37.3529C25.1154 37.349 25.0295 37.349 24.9437 37.3529C24.857 37.3489 24.7701 37.3489 24.6834 37.3529ZM60.6834 37.3529C59.9489 37.456 59.2856 37.846 58.8392 38.4374C58.3928 39.0287 58.2 39.7728 58.3032 40.5061C58.4064 41.2393 58.7971 41.9016 59.3894 42.3473C59.9817 42.7929 60.7271 42.9854 61.4615 42.8824H72.5385C73.2729 42.8824 73.9773 42.5911 74.4966 42.0726C75.0159 41.5541 75.3077 40.8509 75.3077 40.1176C75.3077 39.3844 75.0159 38.6812 74.4966 38.1627C73.9773 37.6442 73.2729 37.3529 72.5385 37.3529H61.4615C61.3748 37.3489 61.288 37.3489 61.2012 37.3529C61.1154 37.349 61.0295 37.349 60.9437 37.3529C60.857 37.3489 60.7701 37.3489 60.6834 37.3529ZM24.6834 45.6471C24.3197 45.6981 23.9697 45.8201 23.6533 46.0062C23.3368 46.1922 23.0602 46.4387 22.8392 46.7315C22.3928 47.3228 22.2 48.067 22.3032 48.8002C22.3543 49.1633 22.4765 49.5127 22.6629 49.8286C22.8493 50.1446 23.0962 50.4207 23.3894 50.6414C23.9817 51.087 24.7271 51.2795 25.4615 51.1765H47.6154C48.3498 51.1765 49.0542 50.8852 49.5735 50.3667C50.0929 49.8482 50.3846 49.145 50.3846 48.4118C50.3846 47.6785 50.0929 46.9753 49.5735 46.4568C49.0542 45.9383 48.3498 45.6471 47.6154 45.6471H25.4615C25.3748 45.643 25.288 45.643 25.2012 45.6471C25.1154 45.6431 25.0295 45.6431 24.9437 45.6471C24.857 45.643 24.7701 45.643 24.6834 45.6471Z" fill="black"/>
</svg>
