<svg width="23" height="19" viewBox="0 0 23 19" fill="none" xmlns="http://www.w3.org/2000/svg">
<path d="M6.14457 2.57778V4.13849H2.79457C2.26177 4.13849 1.75079 4.35015 1.37405 4.72689C0.997299 5.10364 0.785645 5.61462 0.785645 6.14742V9.5001H5.70172V8.38403C5.70172 8.20643 5.77227 8.0361 5.89785 7.91052C6.02343 7.78494 6.19376 7.71438 6.37136 7.71438C6.54896 7.71438 6.71929 7.78494 6.84487 7.91052C6.97045 8.0361 7.041 8.20643 7.041 8.38403V9.5001H15.9696V8.38403C15.9696 8.20643 16.0401 8.0361 16.1657 7.91052C16.2913 7.78494 16.4616 7.71438 16.6392 7.71438C16.8168 7.71438 16.9871 7.78494 17.1127 7.91052C17.2383 8.0361 17.3089 8.20643 17.3089 8.38403V9.5001H22.2169V6.14742C22.2169 5.61462 22.0052 5.10364 21.6285 4.72689C21.2517 4.35015 20.7408 4.13849 20.208 4.13849H16.8598V2.57778C16.8598 2.31396 16.8078 2.05273 16.7068 1.80899C16.6059 1.56526 16.4579 1.3438 16.2714 1.15725C16.0848 0.970703 15.8633 0.822726 15.6196 0.721768C15.3759 0.62081 15.1146 0.568848 14.8508 0.568848H8.15439C7.62159 0.568848 7.11062 0.780502 6.73387 1.15725C6.35712 1.534 6.14547 2.04498 6.14547 2.57778H6.14457ZM8.1535 1.90813H14.8508C15.0284 1.90813 15.1988 1.97868 15.3243 2.10427C15.4499 2.22985 15.5205 2.40018 15.5205 2.57778V4.13849H7.48475V2.57778C7.48475 2.40018 7.5553 2.22985 7.68089 2.10427C7.80647 1.97868 7.97679 1.90813 8.15439 1.90813H8.1535ZM22.2169 10.8394H17.3089V11.9555C17.3089 12.1331 17.2383 12.3034 17.1127 12.429C16.9871 12.5545 16.8168 12.6251 16.6392 12.6251C16.4616 12.6251 16.2913 12.5545 16.1657 12.429C16.0401 12.3034 15.9696 12.1331 15.9696 11.9555V10.8394H7.041V11.9555C7.041 12.1331 6.97045 12.3034 6.84487 12.429C6.71929 12.5545 6.54896 12.6251 6.37136 12.6251C6.19376 12.6251 6.02343 12.5545 5.89785 12.429C5.77227 12.3034 5.70172 12.1331 5.70172 11.9555V10.8394H0.785645V16.4153C0.785645 16.9481 0.997299 17.4591 1.37405 17.8358C1.75079 18.2126 2.26177 18.4242 2.79457 18.4242H20.208C20.7408 18.4242 21.2517 18.2126 21.6285 17.8358C22.0052 17.4591 22.2169 16.9481 22.2169 16.4153V10.8394Z" fill="white"/>
</svg>
