<svg width="13" height="15" viewBox="0 0 13 15" fill="none" xmlns="http://www.w3.org/2000/svg">
  <path d="M7.52598 0.714286V5.35714C7.52598 5.6413 7.63412 5.91383 7.8266 6.11476C8.01908 6.31569 8.28015 6.42857 8.55236 6.42857H13V13.5714C13 13.9503 12.8558 14.3137 12.5992 14.5816C12.3425 14.8495 11.9944 15 11.6315 15H3.42046C3.05751 15 2.70943 14.8495 2.45279 14.5816C2.19614 14.3137 2.05196 13.9503 2.05196 13.5714V7.01857C2.3077 7.11366 2.579 7.15474 2.85008 7.13942C3.12117 7.1241 3.38663 7.05269 3.63105 6.92934C3.87546 6.80599 4.09395 6.63316 4.27382 6.42089C4.45369 6.20862 4.59135 5.96115 4.6788 5.69286L4.76707 5.42286C4.80084 5.31942 4.85689 5.22545 4.93091 5.14818C5.00494 5.0709 5.09496 5.01239 5.19405 4.97714L5.45269 4.88429C5.85773 4.73964 6.20931 4.46643 6.45825 4.10289C6.70718 3.73935 6.84102 3.30366 6.84102 2.85679C6.84102 2.40992 6.70718 1.97423 6.45825 1.61068C6.20931 1.24714 5.85773 0.973929 5.45269 0.829286L5.19405 0.737143L5.13931 0.714286H7.52598ZM2.73621 0C2.87894 5.9448e-05 3.01808 0.0467101 3.13415 0.133421C3.25022 0.220132 3.33741 0.342562 3.38352 0.483571L3.47247 0.753572C3.67774 1.38143 4.14988 1.875 4.75202 2.08929L5.00998 2.18143C5.14491 2.2297 5.26202 2.32077 5.34494 2.44192C5.42785 2.56308 5.47242 2.70825 5.47242 2.85714C5.47242 3.00604 5.42785 3.15121 5.34494 3.27236C5.26202 3.39351 5.14491 3.48459 5.00998 3.53286L4.75134 3.62571C4.14988 3.84 3.67706 4.33286 3.47178 4.96143L3.38352 5.23071C3.33728 5.37157 3.25003 5.49382 3.13397 5.58037C3.01791 5.66692 2.87885 5.71345 2.73621 5.71345C2.59358 5.71345 2.45451 5.66692 2.33845 5.58037C2.22239 5.49382 2.13515 5.37157 2.08891 5.23071L1.99996 4.96071C1.89862 4.65081 1.73059 4.36928 1.50878 4.13773C1.28697 3.90619 1.01727 3.73078 0.720404 3.625L0.462441 3.53286C0.32751 3.48459 0.2104 3.39351 0.127487 3.27236C0.0445729 3.15121 0 3.00604 0 2.85714C0 2.70825 0.0445729 2.56308 0.127487 2.44192C0.2104 2.32077 0.32751 2.2297 0.462441 2.18143L0.721088 2.08857C1.32255 1.87429 1.79536 1.38143 2.00064 0.752857L2.08891 0.483571C2.20386 0.203571 2.42967 0 2.73621 0ZM8.89449 0.745714C9.15366 0.80291 9.39135 0.937398 9.57874 1.13286L12.599 4.28571C12.786 4.48141 12.9146 4.72953 12.9692 5H8.89449V0.745714Z" fill="currentColor"/>
</svg>
