<svg width="24" height="24" viewBox="0 0 24 24" fill="none" xmlns="http://www.w3.org/2000/svg">
<path d="M6.6 7.2C7.55478 7.2 8.47045 6.82072 9.14559 6.14558C9.82072 5.47045 10.2 4.55478 10.2 3.6C10.2 2.64522 9.82072 1.72955 9.14559 1.05442C8.47045 0.379285 7.55478 0 6.6 0C5.64522 0 4.72955 0.379285 4.05442 1.05442C3.37928 1.72955 3 2.64522 3 3.6C3 4.55478 3.37928 5.47045 4.05442 6.14558C4.72955 6.82072 5.64522 7.2 6.6 7.2ZM0 10.5216C0 9.348 0.9492 8.4 2.1216 8.4H7.842C7.42008 9.12938 7.1986 9.95738 7.2 10.8C7.19919 11.4811 7.34371 12.1545 7.6239 12.7753C7.90409 13.3961 8.3135 13.95 8.8248 14.4H7.5216C6.84528 14.4 6.18506 14.6064 5.62908 14.9915C5.0731 15.3765 4.64781 15.9221 4.41 16.5552C2.6124 16.116 1.4976 15.1356 0.8412 14.0436C0 12.6432 0 11.2032 0 10.9524V10.5216ZM16.8 10.8C16.8015 9.95737 16.58 9.12936 16.158 8.4H21.8784C23.052 8.4 24 9.3492 24 10.5216V10.9536C24 11.202 24 12.6432 23.16 14.0436C22.5024 15.1356 21.3876 16.116 19.59 16.5552C19.3523 15.922 18.9271 15.3764 18.3711 14.9912C17.8151 14.6061 17.1548 14.3999 16.4784 14.4H15.1752C15.6865 13.95 16.0959 13.3961 16.3761 12.7753C16.6563 12.1545 16.8008 11.4811 16.8 10.8ZM21 3.6C21 4.55478 20.6207 5.47045 19.9456 6.14558C19.2705 6.82072 18.3548 7.2 17.4 7.2C16.4452 7.2 15.5295 6.82072 14.8544 6.14558C14.1793 5.47045 13.8 4.55478 13.8 3.6C13.8 2.64522 14.1793 1.72955 14.8544 1.05442C15.5295 0.379285 16.4452 0 17.4 0C18.3548 0 19.2705 0.379285 19.9456 1.05442C20.6207 1.72955 21 2.64522 21 3.6ZM5.4 17.7216C5.4 16.548 6.3492 15.6 7.5216 15.6H16.4784C17.6508 15.6 18.6 16.5492 18.6 17.7216V18.1536C18.6 18.402 18.6 19.8432 17.76 21.2436C16.8684 22.7244 15.1356 24 12 24C8.8644 24 7.1304 22.7244 6.24 21.2436C5.4 19.8432 5.4 18.4032 5.4 18.1524V17.7216ZM12 14.4C12.4728 14.4 12.9409 14.3069 13.3777 14.126C13.8144 13.9451 14.2113 13.6799 14.5456 13.3456C14.8799 13.0113 15.1451 12.6144 15.326 12.1777C15.5069 11.7409 15.6 11.2728 15.6 10.8C15.6 10.3272 15.5069 9.85911 15.326 9.42234C15.1451 8.98557 14.8799 8.58871 14.5456 8.25442C14.2113 7.92012 13.8144 7.65495 13.3777 7.47403C12.9409 7.29312 12.4728 7.2 12 7.2C11.0452 7.2 10.1295 7.57928 9.45442 8.25442C8.77928 8.92955 8.4 9.84522 8.4 10.8C8.4 11.7548 8.77928 12.6705 9.45442 13.3456C10.1295 14.0207 11.0452 14.4 12 14.4Z" fill="white"/>
</svg>
