<svg width="20" height="20" viewBox="0 0 20 20" fill="none" xmlns="http://www.w3.org/2000/svg">
<path d="M5.5 6C6.29565 6 7.05871 5.68393 7.62132 5.12132C8.18393 4.55871 8.5 3.79565 8.5 3C8.5 2.20435 8.18393 1.44129 7.62132 0.87868C7.05871 0.316071 6.29565 0 5.5 0C4.70435 0 3.94129 0.316071 3.37868 0.87868C2.81607 1.44129 2.5 2.20435 2.5 3C2.5 3.79565 2.81607 4.55871 3.37868 5.12132C3.94129 5.68393 4.70435 6 5.5 6ZM0 8.768C0 7.79 0.791 7 1.768 7H6.535C6.1834 7.60782 5.99883 8.29782 6 9C5.99933 9.56759 6.11976 10.1288 6.35325 10.6461C6.58674 11.1635 6.92792 11.625 7.354 12H6.268C5.7044 12 5.15421 12.172 4.6909 12.4929C4.22758 12.8138 3.87318 13.2684 3.675 13.796C2.177 13.43 1.248 12.613 0.701 11.703C0 10.536 0 9.336 0 9.127V8.768ZM14 9C14.0012 8.29781 13.8166 7.6078 13.465 7H18.232C19.21 7 20 7.791 20 8.768V9.128C20 9.335 20 10.536 19.3 11.703C18.752 12.613 17.823 13.43 16.325 13.796C16.1269 13.2683 15.7726 12.8136 15.3092 12.4927C14.8459 12.1718 14.2956 11.9999 13.732 12H12.646C13.0721 11.625 13.4133 11.1635 13.6468 10.6461C13.8802 10.1288 14.0007 9.56759 14 9ZM17.5 3C17.5 3.79565 17.1839 4.55871 16.6213 5.12132C16.0587 5.68393 15.2956 6 14.5 6C13.7044 6 12.9413 5.68393 12.3787 5.12132C11.8161 4.55871 11.5 3.79565 11.5 3C11.5 2.20435 11.8161 1.44129 12.3787 0.87868C12.9413 0.316071 13.7044 0 14.5 0C15.2956 0 16.0587 0.316071 16.6213 0.87868C17.1839 1.44129 17.5 2.20435 17.5 3ZM4.5 14.768C4.5 13.79 5.291 13 6.268 13H13.732C14.709 13 15.5 13.791 15.5 14.768V15.128C15.5 15.335 15.5 16.536 14.8 17.703C14.057 18.937 12.613 20 10 20C7.387 20 5.942 18.937 5.2 17.703C4.5 16.536 4.5 15.336 4.5 15.127V14.768ZM10 12C10.394 12 10.7841 11.9224 11.1481 11.7716C11.512 11.6209 11.8427 11.3999 12.1213 11.1213C12.3999 10.8427 12.6209 10.512 12.7716 10.1481C12.9224 9.78407 13 9.39397 13 9C13 8.60603 12.9224 8.21593 12.7716 7.85195C12.6209 7.48797 12.3999 7.15726 12.1213 6.87868C11.8427 6.6001 11.512 6.37913 11.1481 6.22836C10.7841 6.0776 10.394 6 10 6C9.20435 6 8.44129 6.31607 7.87868 6.87868C7.31607 7.44129 7 8.20435 7 9C7 9.79565 7.31607 10.5587 7.87868 11.1213C8.44129 11.6839 9.20435 12 10 12Z" fill="white"/>
</svg>
