<svg width="24" height="24" viewBox="0 0 24 24" fill="none" xmlns="http://www.w3.org/2000/svg">
<path d="M15.2963 15.3965C16.4552 15.3965 17.3957 16.337 17.3957 17.496L17.3945 18.6501C17.5349 21.2774 15.5818 22.6055 12.0774 22.6055C8.5863 22.6055 6.59838 21.2978 6.59838 18.6957V17.496C6.59838 16.337 7.53895 15.3965 8.69787 15.3965H15.2963ZM15.2963 17.196H8.69787C8.61832 17.196 8.54204 17.2276 8.48579 17.2839C8.42954 17.3401 8.39794 17.4164 8.39794 17.496V18.6957C8.39794 20.1065 9.46208 20.8059 12.0774 20.8059C14.6784 20.8059 15.6706 20.1293 15.5962 18.6981V17.496C15.5962 17.4164 15.5646 17.3401 15.5083 17.2839C15.4521 17.2276 15.3758 17.196 15.2963 17.196ZM2.09949 9.39794H7.3494C7.19824 9.98524 7.15957 10.5958 7.23543 11.1975H2.09949C2.01994 11.1975 1.94365 11.2291 1.88741 11.2853C1.83116 11.3416 1.79956 11.4179 1.79956 11.4974V12.6971C1.79956 14.108 2.8637 14.8074 5.47906 14.8074C6.03332 14.8074 6.5144 14.7762 6.9271 14.715C6.24067 15.1499 5.7394 15.8234 5.51985 16.6058L5.47906 16.607C1.98791 16.607 0 15.2993 0 12.6971V11.4974C0 10.3385 0.940569 9.39794 2.09949 9.39794ZM21.8946 9.39794C23.0535 9.39794 23.9941 10.3385 23.9941 11.4974L23.9929 12.6515C24.1333 15.2789 22.1802 16.607 18.6758 16.607L18.4731 16.6046C18.2469 15.8008 17.7248 15.1125 17.0118 14.6778C17.4761 14.7642 18.028 14.8074 18.6758 14.8074C21.2768 14.8074 22.2689 14.1308 22.1946 12.6995V11.4974C22.1946 11.4179 22.163 11.3416 22.1067 11.2853C22.0505 11.2291 21.9742 11.1975 21.8946 11.1975H16.7599C16.8341 10.5957 16.7951 9.98535 16.6447 9.39794H21.8946ZM11.9971 6.99853C12.4697 6.99853 12.9377 7.09162 13.3744 7.2725C13.811 7.45337 14.2078 7.71848 14.542 8.05269C14.8762 8.3869 15.1413 8.78366 15.3222 9.22032C15.5031 9.65699 15.5962 10.125 15.5962 10.5976C15.5962 11.0703 15.5031 11.5383 15.3222 11.975C15.1413 12.4116 14.8762 12.8084 14.542 13.1426C14.2078 13.4768 13.811 13.7419 13.3744 13.9228C12.9377 14.1037 12.4697 14.1968 11.9971 14.1968C11.0425 14.1968 10.1271 13.8176 9.4521 13.1426C8.77713 12.4676 8.39794 11.5522 8.39794 10.5976C8.39794 9.6431 8.77713 8.72765 9.4521 8.05269C10.1271 7.37772 11.0425 6.99853 11.9971 6.99853ZM11.9971 8.79809C11.7607 8.79809 11.5267 8.84464 11.3084 8.93507C11.0901 9.02551 10.8917 9.15806 10.7246 9.32517C10.5575 9.49227 10.4249 9.69065 10.3345 9.90899C10.244 10.1273 10.1975 10.3613 10.1975 10.5976C10.1975 10.834 10.244 11.068 10.3345 11.2863C10.4249 11.5046 10.5575 11.703 10.7246 11.8701C10.8917 12.0372 11.0901 12.1698 11.3084 12.2602C11.5267 12.3507 11.7607 12.3972 11.9971 12.3972C12.4743 12.3972 12.9321 12.2076 13.2695 11.8701C13.607 11.5326 13.7966 11.0749 13.7966 10.5976C13.7966 10.1204 13.607 9.66265 13.2695 9.32517C12.9321 8.98768 12.4743 8.79809 11.9971 8.79809ZM5.39868 1C6.35322 1 7.26867 1.37919 7.94364 2.05416C8.6186 2.72912 8.9978 3.64457 8.9978 4.59912C8.9978 5.55366 8.6186 6.46911 7.94364 7.14408C7.26867 7.81904 6.35322 8.19824 5.39868 8.19824C4.44413 8.19824 3.52868 7.81904 2.85372 7.14408C2.17875 6.46911 1.79956 5.55366 1.79956 4.59912C1.79956 3.64457 2.17875 2.72912 2.85372 2.05416C3.52868 1.37919 4.44413 1 5.39868 1ZM18.5954 1C19.55 1 20.4654 1.37919 21.1404 2.05416C21.8154 2.72912 22.1946 3.64457 22.1946 4.59912C22.1946 5.55366 21.8154 6.46911 21.1404 7.14408C20.4654 7.81904 19.55 8.19824 18.5954 8.19824C17.6409 8.19824 16.7254 7.81904 16.0505 7.14408C15.3755 6.46911 14.9963 5.55366 14.9963 4.59912C14.9963 3.64457 15.3755 2.72912 16.0505 2.05416C16.7254 1.37919 17.6409 1 18.5954 1ZM5.39868 2.79956C4.9214 2.79956 4.46368 2.98915 4.1262 3.32664C3.78871 3.66412 3.59912 4.12185 3.59912 4.59912C3.59912 5.07639 3.78871 5.53412 4.1262 5.8716C4.46368 6.20908 4.9214 6.39868 5.39868 6.39868C5.87595 6.39868 6.33367 6.20908 6.67116 5.8716C7.00864 5.53412 7.19824 5.07639 7.19824 4.59912C7.19824 4.12185 7.00864 3.66412 6.67116 3.32664C6.33367 2.98915 5.87595 2.79956 5.39868 2.79956ZM18.5954 2.79956C18.1182 2.79956 17.6604 2.98915 17.323 3.32664C16.9855 3.66412 16.7959 4.12185 16.7959 4.59912C16.7959 5.07639 16.9855 5.53412 17.323 5.8716C17.6604 6.20908 18.1182 6.39868 18.5954 6.39868C19.0727 6.39868 19.5304 6.20908 19.8679 5.8716C20.2054 5.53412 20.395 5.07639 20.395 4.59912C20.395 4.12185 20.2054 3.66412 19.8679 3.32664C19.5304 2.98915 19.0727 2.79956 18.5954 2.79956Z" fill="white"/>
</svg>
