<svg width="24" height="17" viewBox="0 0 24 17" fill="none" xmlns="http://www.w3.org/2000/svg">
<path d="M16 8.43411C16 9.55255 15.5786 10.6252 14.8284 11.416C14.0783 12.2069 13.0609 12.6512 12 12.6512C10.9391 12.6512 9.92172 12.2069 9.17157 11.416C8.42143 10.6252 8 9.55255 8 8.43411C8 7.31568 8.42143 6.24306 9.17157 5.4522C9.92172 4.66135 10.9391 4.21706 12 4.21706C13.0609 4.21706 14.0783 4.66135 14.8284 5.4522C15.5786 6.24306 16 7.31568 16 8.43411ZM14 8.43411C14 7.8749 13.7893 7.33858 13.4142 6.94316C13.0391 6.54773 12.5304 6.32558 12 6.32558C11.4696 6.32558 10.9609 6.54773 10.5858 6.94316C10.2107 7.33858 10 7.8749 10 8.43411C10 8.99333 10.2107 9.52964 10.5858 9.92507C10.9609 10.3205 11.4696 10.5426 12 10.5426C12.5304 10.5426 13.0391 10.3205 13.4142 9.92507C13.7893 9.52964 14 8.99333 14 8.43411ZM0 2.63566C0 1.18078 1.12 0 2.5 0H21.5C22.88 0 24 1.18078 24 2.63566V14.2326C24 15.6874 22.88 16.8682 21.5 16.8682H2.5C1.12 16.8682 0 15.6874 0 14.2326V2.63566ZM2.5 2.10853C2.36739 2.10853 2.24021 2.16406 2.14645 2.26292C2.05268 2.36178 2 2.49586 2 2.63566V4.21706H3C3.26522 4.21706 3.51957 4.10598 3.70711 3.90827C3.89464 3.71056 4 3.4424 4 3.16279V2.10853H2.5ZM2 14.2326C2 14.5235 2.224 14.7597 2.5 14.7597H4V13.7054C4 13.4258 3.89464 13.1577 3.70711 12.96C3.51957 12.7622 3.26522 12.6512 3 12.6512H2V14.2326ZM6 13.7054V14.7597H18V13.7054C18 12.8666 18.3161 12.0621 18.8787 11.469C19.4413 10.8759 20.2044 10.5426 21 10.5426H22V6.32558H21C20.2044 6.32558 19.4413 5.99236 18.8787 5.39922C18.3161 4.80609 18 4.00162 18 3.16279V2.10853H6V3.16279C6 4.00162 5.68393 4.80609 5.12132 5.39922C4.55871 5.99236 3.79565 6.32558 3 6.32558H2V10.5426H3C3.79565 10.5426 4.55871 10.8759 5.12132 11.469C5.68393 12.0621 6 12.8666 6 13.7054ZM20 14.7597H21.5C21.6326 14.7597 21.7598 14.7042 21.8536 14.6053C21.9473 14.5064 22 14.3724 22 14.2326V12.6512H21C20.7348 12.6512 20.4804 12.7622 20.2929 12.96C20.1054 13.1577 20 13.4258 20 13.7054V14.7597ZM22 4.21706V2.63566C22 2.49586 21.9473 2.36178 21.8536 2.26292C21.7598 2.16406 21.6326 2.10853 21.5 2.10853H20V3.16279C20 3.4424 20.1054 3.71056 20.2929 3.90827C20.4804 4.10598 20.7348 4.21706 21 4.21706H22Z" fill="black"/>
</svg>
