<svg xmlns="http://www.w3.org/2000/svg" width="20" height="20" viewBox="0 0 20 20" fill="none">
  <path fill-rule="evenodd" clip-rule="evenodd" d="M10 0C4.477 0 0 4.477 0 10C0 15.523 4.477 20 10 20C15.523 20 20 15.523 20 10C20 4.477 15.523 0 10 0ZM2 10C2 7.87827 2.84285 5.84344 4.34315 4.34315C5.84344 2.84285 7.87827 2 10 2C12.1217 2 14.1566 2.84285 15.6569 4.34315C17.1571 5.84344 18 7.87827 18 10C18 12.1217 17.1571 14.1566 15.6569 15.6569C14.1566 17.1571 12.1217 18 10 18C7.87827 18 5.84344 17.1571 4.34315 15.6569C2.84285 14.1566 2 12.1217 2 10Z" fill="#065546"/>
  <path d="M13.8925 6.49309C14.283 6.10257 14.916 6.10256 15.3066 6.49309C15.6971 6.88361 15.6971 7.51663 15.3066 7.90715L9.30656 13.9071C8.91604 14.2977 8.28303 14.2977 7.8925 13.9071L4.8925 10.9071C4.50198 10.5166 4.50198 9.88361 4.8925 9.49309C5.28303 9.10256 5.91604 9.10256 6.30656 9.49309L8.59953 11.7861L13.8925 6.49309Z" fill="#065546"/>
</svg>