<svg width="27" height="27" viewBox="0 0 27 27" fill="none" xmlns="http://www.w3.org/2000/svg">
<path d="M1.13212 1.13212C1.30339 0.960422 1.50685 0.824195 1.73085 0.731246C1.95485 0.638297 2.19498 0.590454 2.4375 0.590454C2.68002 0.590454 2.92015 0.638297 3.14415 0.731246C3.36815 0.824195 3.57161 0.960422 3.74287 1.13212L13.5 10.8929L23.2571 1.13212C23.4285 0.9607 23.6321 0.824718 23.856 0.731944C24.08 0.63917 24.3201 0.591419 24.5625 0.591419C24.8049 0.591419 25.045 0.63917 25.269 0.731944C25.4929 0.824718 25.6965 0.9607 25.8679 1.13212C26.0393 1.30355 26.1753 1.50706 26.2681 1.73103C26.3608 1.95501 26.4086 2.19507 26.4086 2.4375C26.4086 2.67993 26.3608 2.91999 26.2681 3.14396C26.1753 3.36794 26.0393 3.57145 25.8679 3.74287L16.1071 13.5L25.8679 23.2571C26.0393 23.4285 26.1753 23.6321 26.2681 23.856C26.3608 24.08 26.4086 24.3201 26.4086 24.5625C26.4086 24.8049 26.3608 25.045 26.2681 25.269C26.1753 25.4929 26.0393 25.6965 25.8679 25.8679C25.6965 26.0393 25.4929 26.1753 25.269 26.2681C25.045 26.3608 24.8049 26.4086 24.5625 26.4086C24.3201 26.4086 24.08 26.3608 23.856 26.2681C23.6321 26.1753 23.4285 26.0393 23.2571 25.8679L13.5 16.1071L3.74287 25.8679C3.57145 26.0393 3.36794 26.1753 3.14396 26.2681C2.91999 26.3608 2.67993 26.4086 2.4375 26.4086C2.19507 26.4086 1.95501 26.3608 1.73103 26.2681C1.50706 26.1753 1.30355 26.0393 1.13212 25.8679C0.9607 25.6965 0.824718 25.4929 0.731944 25.269C0.63917 25.045 0.591419 24.8049 0.591419 24.5625C0.591419 24.3201 0.63917 24.08 0.731944 23.856C0.824718 23.6321 0.9607 23.4285 1.13212 23.2571L10.8929 13.5L1.13212 3.74287C0.960422 3.57161 0.824195 3.36815 0.731246 3.14415C0.638297 2.92015 0.590454 2.68002 0.590454 2.4375C0.590454 2.19498 0.638297 1.95485 0.731246 1.73085C0.824195 1.50685 0.960422 1.30339 1.13212 1.13212Z" fill="black"/>
</svg>
