<svg width="14" height="15" viewBox="0 0 14 15" fill="none" xmlns="http://www.w3.org/2000/svg">
  <path d="M0.293723 0.793723C0.386594 0.700617 0.496921 0.626747 0.618385 0.576345C0.739849 0.525943 0.870063 0.5 1.00157 0.5C1.13307 0.5 1.26329 0.525943 1.38475 0.576345C1.50622 0.626747 1.61654 0.700617 1.70941 0.793723L7.00026 6.08657L12.2911 0.793723C12.3841 0.700767 12.4944 0.627031 12.6159 0.576724C12.7373 0.526416 12.8675 0.500523 12.999 0.500523C13.1304 0.500523 13.2606 0.526416 13.382 0.576724C13.5035 0.627031 13.6138 0.700767 13.7068 0.793723C13.7998 0.886679 13.8735 0.997033 13.9238 1.11849C13.9741 1.23994 14 1.37011 14 1.50157C14 1.63303 13.9741 1.7632 13.9238 1.88465C13.8735 2.00611 13.7998 2.11646 13.7068 2.20941L8.41395 7.50026L13.7068 12.7911C13.7998 12.8841 13.8735 12.9944 13.9238 13.1159C13.9741 13.2373 14 13.3675 14 13.499C14 13.6304 13.9741 13.7606 13.9238 13.882C13.8735 14.0035 13.7998 14.1138 13.7068 14.2068C13.6138 14.2998 13.5035 14.3735 13.382 14.4238C13.2606 14.4741 13.1304 14.5 12.999 14.5C12.8675 14.5 12.7373 14.4741 12.6159 14.4238C12.4944 14.3735 12.3841 14.2998 12.2911 14.2068L7.00026 8.91395L1.70941 14.2068C1.61646 14.2998 1.50611 14.3735 1.38465 14.4238C1.2632 14.4741 1.13303 14.5 1.00157 14.5C0.87011 14.5 0.739938 14.4741 0.618485 14.4238C0.497033 14.3735 0.386679 14.2998 0.293723 14.2068C0.200767 14.1138 0.127031 14.0035 0.0767236 13.882C0.0264163 13.7606 0.000523453 13.6304 0.000523453 13.499C0.000523453 13.3675 0.0264163 13.2373 0.0767236 13.1159C0.127031 12.9944 0.200767 12.8841 0.293723 12.7911L5.58657 7.50026L0.293723 2.20941C0.200617 2.11654 0.126747 2.00622 0.076345 1.88475C0.0259431 1.76329 0 1.63307 0 1.50157C0 1.37006 0.0259431 1.23985 0.076345 1.11839C0.126747 0.996921 0.200617 0.886594 0.293723 0.793723Z" fill="#D73D02"/>
</svg>
