<svg xmlns="http://www.w3.org/2000/svg" width="20" height="20" viewBox="0 0 20 20" fill="none">
  <path d="M6.47638 6.47814C6.66391 6.29067 6.91822 6.18535 7.18338 6.18535C7.44855 6.18535 7.70285 6.29067 7.89038 6.47814L10.0444 8.63114L12.1974 6.47814C12.2896 6.38263 12.4 6.30645 12.522 6.25404C12.644 6.20163 12.7752 6.17404 12.908 6.17289C13.0408 6.17174 13.1724 6.19704 13.2953 6.24732C13.4182 6.2976 13.5299 6.37185 13.6238 6.46574C13.7177 6.55964 13.7919 6.67129 13.8422 6.79419C13.8925 6.91708 13.9178 7.04876 13.9166 7.18154C13.9155 7.31432 13.8879 7.44554 13.8355 7.56754C13.7831 7.68955 13.7069 7.79989 13.6114 7.89214L11.4584 10.0461L13.6114 12.1991C13.7935 12.3877 13.8943 12.6403 13.8921 12.9025C13.8898 13.1647 13.7846 13.4156 13.5992 13.601C13.4138 13.7864 13.163 13.8915 12.9008 13.8938C12.6386 13.8961 12.386 13.7953 12.1974 13.6131L10.0444 11.4601L7.89038 13.6131C7.70106 13.7909 7.44999 13.8881 7.1903 13.8841C6.93062 13.88 6.68269 13.7751 6.49897 13.5915C6.31526 13.4079 6.21018 13.1601 6.20596 12.9004C6.20175 12.6407 6.29873 12.3896 6.47638 12.2001L8.62938 10.0471L6.47638 7.89314C6.28891 7.70561 6.18359 7.4513 6.18359 7.18614C6.18359 6.92098 6.28891 6.66667 6.47638 6.47914" fill="#AD0011"/>
  <path fill-rule="evenodd" clip-rule="evenodd" d="M10 0C4.477 0 0 4.477 0 10C0 15.523 4.477 20 10 20C15.523 20 20 15.523 20 10C20 4.477 15.523 0 10 0ZM2 10C2 7.87827 2.84285 5.84344 4.34315 4.34315C5.84344 2.84285 7.87827 2 10 2C12.1217 2 14.1566 2.84285 15.6569 4.34315C17.1571 5.84344 18 7.87827 18 10C18 12.1217 17.1571 14.1566 15.6569 15.6569C14.1566 17.1571 12.1217 18 10 18C7.87827 18 5.84344 17.1571 4.34315 15.6569C2.84285 14.1566 2 12.1217 2 10Z" fill="#AD0011"/>
</svg>