<svg width="24" height="24" viewBox="0 0 24 24" fill="none" xmlns="http://www.w3.org/2000/svg">
<path d="M18.9495 0H5.05048C2.26518 0 0 2.26514 0 5.05048V18.9495C0 21.7334 2.26514 24 5.05048 24H18.9495C21.7334 24 24 21.7335 24 18.9495V5.05048C24 2.26518 21.7349 0 18.9495 0ZM5.05048 1.98165H18.9495C20.6422 1.98165 22.0183 3.35778 22.0183 5.05045V8.45367L1.98162 8.4523V5.05048C1.98162 3.35781 3.35782 1.98165 5.05048 1.98165ZM1.98169 18.9495V10.4367H7.96257V22.0184H5.05066C3.35799 22.0184 1.98169 20.6422 1.98169 18.9495ZM18.9496 22.0183H9.94282V10.4353H22.0184V18.9481C22.0184 20.6421 20.6422 22.0183 18.9496 22.0183Z" fill="#F7F7F7"/>
</svg>
