<svg width="24" height="24" viewBox="0 0 24 24" fill="none" xmlns="http://www.w3.org/2000/svg">
<path d="M12 0C9.62663 0 7.30655 0.703788 5.33316 2.02236C3.35977 3.34094 1.8217 5.21509 0.913451 7.4078C0.00519943 9.60051 -0.232441 12.0133 0.230582 14.3411C0.693605 16.6689 1.83649 18.8071 3.51472 20.4853C5.19295 22.1635 7.33115 23.3064 9.65892 23.7694C11.9867 24.2324 14.3995 23.9948 16.5922 23.0866C18.7849 22.1783 20.6591 20.6402 21.9776 18.6668C23.2962 16.6935 24 14.3734 24 12C24 8.8174 22.7357 5.76516 20.4853 3.51472C18.2348 1.26428 15.1826 0 12 0ZM10.51 6C10.51 5.60218 10.668 5.22064 10.9493 4.93934C11.2306 4.65804 11.6122 4.5 12.01 4.5C12.4078 4.5 12.7894 4.65804 13.0707 4.93934C13.352 5.22064 13.51 5.60218 13.51 6V12.89C13.51 13.087 13.4712 13.282 13.3958 13.464C13.3204 13.646 13.21 13.8114 13.0707 13.9507C12.9314 14.0899 12.766 14.2004 12.584 14.2758C12.402 14.3512 12.207 14.39 12.01 14.39C11.813 14.39 11.618 14.3512 11.436 14.2758C11.254 14.2004 11.0886 14.0899 10.9493 13.9507C10.8101 13.8114 10.6996 13.646 10.6242 13.464C10.5488 13.282 10.51 13.087 10.51 12.89V6ZM12 19.5C11.6598 19.5 11.3273 19.3991 11.0444 19.2101C10.7616 19.0211 10.5411 18.7525 10.4109 18.4382C10.2807 18.1239 10.2467 17.7781 10.3131 17.4444C10.3794 17.1108 10.5432 16.8043 10.7838 16.5638C11.0243 16.3232 11.3308 16.1594 11.6644 16.0931C11.9981 16.0267 12.3439 16.0607 12.6582 16.1909C12.9725 16.3211 13.2411 16.5416 13.4301 16.8244C13.6191 17.1073 13.72 17.4398 13.72 17.78C13.72 18.2362 13.5388 18.6737 13.2162 18.9962C12.8937 19.3188 12.4562 19.5 12 19.5Z" fill="#FF9214"/>
</svg>
