<svg width="58" height="57" viewBox="0 0 58 57" fill="none" xmlns="http://www.w3.org/2000/svg">
<path d="M38.1912 13.7485V22.5681H19.3546V3.1129H35.38L38.1861 0.681003H17V25H40.5458V11.7079L38.1912 13.7485Z" fill="white"/>
<path d="M24.5531 10.7313L28.1354 14.4733L44.1141 0.339263C44.6847 -0.165436 45.5385 -0.0980158 46.0307 0.481426L46.0957 0.55787C46.5951 1.14583 46.5285 2.01124 45.9631 2.50985L28.9693 17.4961C28.4163 17.9838 27.5234 17.9579 27.0026 17.4138L22.4975 12.708C21.9738 12.161 21.9969 11.2944 22.5427 10.7657L22.6147 10.696C23.1685 10.1596 24.0283 10.1831 24.5531 10.7313Z" fill="white"/>
<path d="M24.5531 10.7313L28.1354 14.4732L44.1141 0.339263C44.6847 -0.165436 45.5385 -0.0980158 46.0307 0.481426L46.0957 0.55787C46.5951 1.14583 46.5285 2.01124 45.9631 2.50985L28.9693 17.4961C28.4163 17.9838 27.5234 17.9579 27.0026 17.4138L22.4975 12.708C21.9738 12.161 21.9969 11.2944 22.5427 10.7657L22.6147 10.696C23.1685 10.1596 24.0283 10.1831 24.5531 10.7313Z" fill="white"/>
<rect y="34" width="58" height="23" rx="4" fill="#FFD70F"/>
<path d="M9.14 40.29H13.58C14.4 40.29 15.11 40.43 15.71 40.71C16.31 40.99 16.8 41.375 17.18 41.865C17.56 42.345 17.84 42.91 18.02 43.56C18.21 44.21 18.305 44.905 18.305 45.645C18.305 46.385 18.21 47.08 18.02 47.73C17.84 48.38 17.56 48.95 17.18 49.44C16.8 49.92 16.31 50.3 15.71 50.58C15.11 50.86 14.4 51 13.58 51H9.14V40.29ZM11.015 49.47H12.86C13.59 49.47 14.185 49.375 14.645 49.185C15.115 48.985 15.48 48.715 15.74 48.375C16.01 48.025 16.19 47.62 16.28 47.16C16.38 46.69 16.43 46.185 16.43 45.645C16.43 45.105 16.38 44.605 16.28 44.145C16.19 43.675 16.01 43.27 15.74 42.93C15.48 42.58 15.115 42.31 14.645 42.12C14.185 41.92 13.59 41.82 12.86 41.82H11.015V49.47ZM25.0502 46.44C25.0302 46.17 24.9702 45.91 24.8702 45.66C24.7802 45.41 24.6502 45.195 24.4802 45.015C24.3202 44.825 24.1202 44.675 23.8802 44.565C23.6502 44.445 23.3902 44.385 23.1002 44.385C22.8002 44.385 22.5252 44.44 22.2752 44.55C22.0352 44.65 21.8252 44.795 21.6452 44.985C21.4752 45.165 21.3352 45.38 21.2252 45.63C21.1252 45.88 21.0702 46.15 21.0602 46.44H25.0502ZM21.0602 47.565C21.0602 47.865 21.1002 48.155 21.1802 48.435C21.2702 48.715 21.4002 48.96 21.5702 49.17C21.7402 49.38 21.9552 49.55 22.2152 49.68C22.4752 49.8 22.7852 49.86 23.1452 49.86C23.6452 49.86 24.0452 49.755 24.3452 49.545C24.6552 49.325 24.8852 49 25.0352 48.57H26.6552C26.5652 48.99 26.4102 49.365 26.1902 49.695C25.9702 50.025 25.7052 50.305 25.3952 50.535C25.0852 50.755 24.7352 50.92 24.3452 51.03C23.9652 51.15 23.5652 51.21 23.1452 51.21C22.5352 51.21 21.9952 51.11 21.5252 50.91C21.0552 50.71 20.6552 50.43 20.3252 50.07C20.0052 49.71 19.7602 49.28 19.5902 48.78C19.4302 48.28 19.3502 47.73 19.3502 47.13C19.3502 46.58 19.4352 46.06 19.6052 45.57C19.7852 45.07 20.0352 44.635 20.3552 44.265C20.6852 43.885 21.0802 43.585 21.5402 43.365C22.0002 43.145 22.5202 43.035 23.1002 43.035C23.7102 43.035 24.2552 43.165 24.7352 43.425C25.2252 43.675 25.6302 44.01 25.9502 44.43C26.2702 44.85 26.5002 45.335 26.6402 45.885C26.7902 46.425 26.8302 46.985 26.7602 47.565H21.0602ZM28.0602 43.245H29.6802V44.325H29.7252C29.8552 44.135 29.9952 43.96 30.1452 43.8C30.2952 43.64 30.4602 43.505 30.6402 43.395C30.8302 43.285 31.0452 43.2 31.2852 43.14C31.5252 43.07 31.8002 43.035 32.1102 43.035C32.5802 43.035 33.0152 43.14 33.4152 43.35C33.8252 43.56 34.1152 43.885 34.2852 44.325C34.5752 43.925 34.9102 43.61 35.2902 43.38C35.6702 43.15 36.1452 43.035 36.7152 43.035C37.5352 43.035 38.1702 43.235 38.6202 43.635C39.0802 44.035 39.3102 44.705 39.3102 45.645V51H37.6002V46.47C37.6002 46.16 37.5902 45.88 37.5702 45.63C37.5502 45.37 37.4902 45.15 37.3902 44.97C37.3002 44.78 37.1602 44.635 36.9702 44.535C36.7802 44.435 36.5202 44.385 36.1902 44.385C35.6102 44.385 35.1902 44.565 34.9302 44.925C34.6702 45.285 34.5402 45.795 34.5402 46.455V51H32.8302V46.02C32.8302 45.48 32.7302 45.075 32.5302 44.805C32.3402 44.525 31.9852 44.385 31.4652 44.385C31.2452 44.385 31.0302 44.43 30.8202 44.52C30.6202 44.61 30.4402 44.74 30.2802 44.91C30.1302 45.08 30.0052 45.29 29.9052 45.54C29.8152 45.79 29.7702 46.075 29.7702 46.395V51H28.0602V43.245ZM44.6669 51.21C44.0469 51.21 43.4919 51.11 43.0019 50.91C42.5219 50.7 42.1119 50.415 41.7719 50.055C41.4419 49.695 41.1869 49.265 41.0069 48.765C40.8369 48.265 40.7519 47.715 40.7519 47.115C40.7519 46.525 40.8369 45.98 41.0069 45.48C41.1869 44.98 41.4419 44.55 41.7719 44.19C42.1119 43.83 42.5219 43.55 43.0019 43.35C43.4919 43.14 44.0469 43.035 44.6669 43.035C45.2869 43.035 45.8369 43.14 46.3169 43.35C46.8069 43.55 47.2169 43.83 47.5469 44.19C47.8869 44.55 48.1419 44.98 48.3119 45.48C48.4919 45.98 48.5819 46.525 48.5819 47.115C48.5819 47.715 48.4919 48.265 48.3119 48.765C48.1419 49.265 47.8869 49.695 47.5469 50.055C47.2169 50.415 46.8069 50.7 46.3169 50.91C45.8369 51.11 45.2869 51.21 44.6669 51.21ZM44.6669 49.86C45.0469 49.86 45.3769 49.78 45.6569 49.62C45.9369 49.46 46.1669 49.25 46.3469 48.99C46.5269 48.73 46.6569 48.44 46.7369 48.12C46.8269 47.79 46.8719 47.455 46.8719 47.115C46.8719 46.785 46.8269 46.455 46.7369 46.125C46.6569 45.795 46.5269 45.505 46.3469 45.255C46.1669 44.995 45.9369 44.785 45.6569 44.625C45.3769 44.465 45.0469 44.385 44.6669 44.385C44.2869 44.385 43.9569 44.465 43.6769 44.625C43.3969 44.785 43.1669 44.995 42.9869 45.255C42.8069 45.505 42.6719 45.795 42.5819 46.125C42.5019 46.455 42.4619 46.785 42.4619 47.115C42.4619 47.455 42.5019 47.79 42.5819 48.12C42.6719 48.44 42.8069 48.73 42.9869 48.99C43.1669 49.25 43.3969 49.46 43.6769 49.62C43.9569 49.78 44.2869 49.86 44.6669 49.86Z" fill="#2D2E2F"/>
</svg>
