<svg width="186" height="26" viewBox="0 0 186 26" fill="none" xmlns="http://www.w3.org/2000/svg">
<path d="M43.54 8.36H39.26V5.72H50.96V8.36H46.68V20H43.54V8.36ZM52.3066 5.72H55.1466V11.1H55.2066C55.5666 10.5 56.0266 10.0667 56.5866 9.8C57.1466 9.52 57.6932 9.38 58.2266 9.38C58.9866 9.38 59.6066 9.48667 60.0866 9.7C60.5799 9.9 60.9666 10.1867 61.2466 10.56C61.5266 10.92 61.7199 11.3667 61.8266 11.9C61.9466 12.42 62.0066 13 62.0066 13.64V20H59.1666V14.16C59.1666 13.3067 59.0332 12.6733 58.7666 12.26C58.4999 11.8333 58.0266 11.62 57.3466 11.62C56.5732 11.62 56.0132 11.8533 55.6666 12.32C55.3199 12.7733 55.1466 13.5267 55.1466 14.58V20H52.3066V5.72ZM71.122 13.72C70.9887 13 70.7487 12.4533 70.402 12.08C70.0687 11.7067 69.5554 11.52 68.862 11.52C68.4087 11.52 68.0287 11.6 67.722 11.76C67.4287 11.9067 67.1887 12.0933 67.002 12.32C66.8287 12.5467 66.702 12.7867 66.622 13.04C66.5554 13.2933 66.5154 13.52 66.502 13.72H71.122ZM66.502 15.52C66.542 16.44 66.7754 17.1067 67.202 17.52C67.6287 17.9333 68.242 18.14 69.042 18.14C69.6154 18.14 70.1087 18 70.522 17.72C70.9354 17.4267 71.1887 17.12 71.282 16.8H73.782C73.382 18.04 72.7687 18.9267 71.942 19.46C71.1154 19.9933 70.1154 20.26 68.942 20.26C68.1287 20.26 67.3954 20.1333 66.742 19.88C66.0887 19.6133 65.5354 19.24 65.082 18.76C64.6287 18.28 64.2754 17.7067 64.022 17.04C63.782 16.3733 63.662 15.64 63.662 14.84C63.662 14.0667 63.7887 13.3467 64.042 12.68C64.2954 12.0133 64.6554 11.44 65.122 10.96C65.5887 10.4667 66.142 10.08 66.782 9.8C67.4354 9.52 68.1554 9.38 68.942 9.38C69.822 9.38 70.5887 9.55333 71.242 9.9C71.8954 10.2333 72.4287 10.6867 72.842 11.26C73.2687 11.8333 73.5754 12.4867 73.762 13.22C73.9487 13.9533 74.0154 14.72 73.962 15.52H66.502ZM81.5128 5.72H84.6528V11.2H90.4328V5.72H93.5728V20H90.4328V13.84H84.6528V20H81.5128V5.72ZM105.737 20H103.037V18.56H102.977C102.617 19.16 102.15 19.5933 101.577 19.86C101.004 20.1267 100.417 20.26 99.817 20.26C99.057 20.26 98.4304 20.16 97.937 19.96C97.457 19.76 97.077 19.48 96.797 19.12C96.517 18.7467 96.317 18.3 96.197 17.78C96.0904 17.2467 96.037 16.66 96.037 16.02V9.66H98.877V15.5C98.877 16.3533 99.0104 16.9933 99.277 17.42C99.5437 17.8333 100.017 18.04 100.697 18.04C101.47 18.04 102.03 17.8133 102.377 17.36C102.724 16.8933 102.897 16.1333 102.897 15.08V9.66H105.737V20ZM115.473 14.84C115.473 14.4 115.426 13.98 115.333 13.58C115.239 13.18 115.093 12.8267 114.893 12.52C114.693 12.2133 114.439 11.9733 114.133 11.8C113.839 11.6133 113.479 11.52 113.053 11.52C112.639 11.52 112.279 11.6133 111.973 11.8C111.666 11.9733 111.413 12.2133 111.213 12.52C111.013 12.8267 110.866 13.18 110.773 13.58C110.679 13.98 110.633 14.4 110.633 14.84C110.633 15.2667 110.679 15.68 110.773 16.08C110.866 16.48 111.013 16.8333 111.213 17.14C111.413 17.4467 111.666 17.6933 111.973 17.88C112.279 18.0533 112.639 18.14 113.053 18.14C113.479 18.14 113.839 18.0533 114.133 17.88C114.439 17.6933 114.693 17.4467 114.893 17.14C115.093 16.8333 115.239 16.48 115.333 16.08C115.426 15.68 115.473 15.2667 115.473 14.84ZM107.893 5.72H110.733V10.92H110.773C111.119 10.3867 111.586 10 112.173 9.76C112.773 9.50667 113.393 9.38 114.033 9.38C114.553 9.38 115.066 9.48667 115.573 9.7C116.079 9.91333 116.533 10.24 116.933 10.68C117.346 11.12 117.679 11.6867 117.933 12.38C118.186 13.06 118.313 13.8733 118.313 14.82C118.313 15.7667 118.186 16.5867 117.933 17.28C117.679 17.96 117.346 18.52 116.933 18.96C116.533 19.4 116.079 19.7267 115.573 19.94C115.066 20.1533 114.553 20.26 114.033 20.26C113.273 20.26 112.593 20.14 111.993 19.9C111.393 19.66 110.939 19.2533 110.633 18.68H110.593V20H107.893V5.72Z" fill="white"/>
<path d="M21.1912 14.7485V23.5681H2.35458V4.1129H18.38L21.1861 1.681H0V26H23.5458V12.7079L21.1912 14.7485Z" fill="white"/>
<path d="M7.55308 11.7313L11.1354 15.4733L27.1141 1.33926C27.6847 0.834564 28.5385 0.901984 29.0307 1.48143L29.0957 1.55787C29.5951 2.14583 29.5285 3.01124 28.9631 3.50985L11.9693 18.4961C11.4163 18.9838 10.5234 18.9579 10.0026 18.4138L5.49751 13.708C4.97381 13.161 4.99692 12.2944 5.5427 11.7657L5.6147 11.696C6.1685 11.1596 7.02833 11.1831 7.55308 11.7313Z" fill="white"/>
<rect x="128" y="2" width="58" height="23" rx="4" fill="#FFD70F"/>
<path d="M137.14 8.29H141.58C142.4 8.29 143.11 8.43 143.71 8.71C144.31 8.99 144.8 9.375 145.18 9.865C145.56 10.345 145.84 10.91 146.02 11.56C146.21 12.21 146.305 12.905 146.305 13.645C146.305 14.385 146.21 15.08 146.02 15.73C145.84 16.38 145.56 16.95 145.18 17.44C144.8 17.92 144.31 18.3 143.71 18.58C143.11 18.86 142.4 19 141.58 19H137.14V8.29ZM139.015 17.47H140.86C141.59 17.47 142.185 17.375 142.645 17.185C143.115 16.985 143.48 16.715 143.74 16.375C144.01 16.025 144.19 15.62 144.28 15.16C144.38 14.69 144.43 14.185 144.43 13.645C144.43 13.105 144.38 12.605 144.28 12.145C144.19 11.675 144.01 11.27 143.74 10.93C143.48 10.58 143.115 10.31 142.645 10.12C142.185 9.92 141.59 9.82 140.86 9.82H139.015V17.47ZM153.05 14.44C153.03 14.17 152.97 13.91 152.87 13.66C152.78 13.41 152.65 13.195 152.48 13.015C152.32 12.825 152.12 12.675 151.88 12.565C151.65 12.445 151.39 12.385 151.1 12.385C150.8 12.385 150.525 12.44 150.275 12.55C150.035 12.65 149.825 12.795 149.645 12.985C149.475 13.165 149.335 13.38 149.225 13.63C149.125 13.88 149.07 14.15 149.06 14.44H153.05ZM149.06 15.565C149.06 15.865 149.1 16.155 149.18 16.435C149.27 16.715 149.4 16.96 149.57 17.17C149.74 17.38 149.955 17.55 150.215 17.68C150.475 17.8 150.785 17.86 151.145 17.86C151.645 17.86 152.045 17.755 152.345 17.545C152.655 17.325 152.885 17 153.035 16.57H154.655C154.565 16.99 154.41 17.365 154.19 17.695C153.97 18.025 153.705 18.305 153.395 18.535C153.085 18.755 152.735 18.92 152.345 19.03C151.965 19.15 151.565 19.21 151.145 19.21C150.535 19.21 149.995 19.11 149.525 18.91C149.055 18.71 148.655 18.43 148.325 18.07C148.005 17.71 147.76 17.28 147.59 16.78C147.43 16.28 147.35 15.73 147.35 15.13C147.35 14.58 147.435 14.06 147.605 13.57C147.785 13.07 148.035 12.635 148.355 12.265C148.685 11.885 149.08 11.585 149.54 11.365C150 11.145 150.52 11.035 151.1 11.035C151.71 11.035 152.255 11.165 152.735 11.425C153.225 11.675 153.63 12.01 153.95 12.43C154.27 12.85 154.5 13.335 154.64 13.885C154.79 14.425 154.83 14.985 154.76 15.565H149.06ZM156.06 11.245H157.68V12.325H157.725C157.855 12.135 157.995 11.96 158.145 11.8C158.295 11.64 158.46 11.505 158.64 11.395C158.83 11.285 159.045 11.2 159.285 11.14C159.525 11.07 159.8 11.035 160.11 11.035C160.58 11.035 161.015 11.14 161.415 11.35C161.825 11.56 162.115 11.885 162.285 12.325C162.575 11.925 162.91 11.61 163.29 11.38C163.67 11.15 164.145 11.035 164.715 11.035C165.535 11.035 166.17 11.235 166.62 11.635C167.08 12.035 167.31 12.705 167.31 13.645V19H165.6V14.47C165.6 14.16 165.59 13.88 165.57 13.63C165.55 13.37 165.49 13.15 165.39 12.97C165.3 12.78 165.16 12.635 164.97 12.535C164.78 12.435 164.52 12.385 164.19 12.385C163.61 12.385 163.19 12.565 162.93 12.925C162.67 13.285 162.54 13.795 162.54 14.455V19H160.83V14.02C160.83 13.48 160.73 13.075 160.53 12.805C160.34 12.525 159.985 12.385 159.465 12.385C159.245 12.385 159.03 12.43 158.82 12.52C158.62 12.61 158.44 12.74 158.28 12.91C158.13 13.08 158.005 13.29 157.905 13.54C157.815 13.79 157.77 14.075 157.77 14.395V19H156.06V11.245ZM172.667 19.21C172.047 19.21 171.492 19.11 171.002 18.91C170.522 18.7 170.112 18.415 169.772 18.055C169.442 17.695 169.187 17.265 169.007 16.765C168.837 16.265 168.752 15.715 168.752 15.115C168.752 14.525 168.837 13.98 169.007 13.48C169.187 12.98 169.442 12.55 169.772 12.19C170.112 11.83 170.522 11.55 171.002 11.35C171.492 11.14 172.047 11.035 172.667 11.035C173.287 11.035 173.837 11.14 174.317 11.35C174.807 11.55 175.217 11.83 175.547 12.19C175.887 12.55 176.142 12.98 176.312 13.48C176.492 13.98 176.582 14.525 176.582 15.115C176.582 15.715 176.492 16.265 176.312 16.765C176.142 17.265 175.887 17.695 175.547 18.055C175.217 18.415 174.807 18.7 174.317 18.91C173.837 19.11 173.287 19.21 172.667 19.21ZM172.667 17.86C173.047 17.86 173.377 17.78 173.657 17.62C173.937 17.46 174.167 17.25 174.347 16.99C174.527 16.73 174.657 16.44 174.737 16.12C174.827 15.79 174.872 15.455 174.872 15.115C174.872 14.785 174.827 14.455 174.737 14.125C174.657 13.795 174.527 13.505 174.347 13.255C174.167 12.995 173.937 12.785 173.657 12.625C173.377 12.465 173.047 12.385 172.667 12.385C172.287 12.385 171.957 12.465 171.677 12.625C171.397 12.785 171.167 12.995 170.987 13.255C170.807 13.505 170.672 13.795 170.582 14.125C170.502 14.455 170.462 14.785 170.462 15.115C170.462 15.455 170.502 15.79 170.582 16.12C170.672 16.44 170.807 16.73 170.987 16.99C171.167 17.25 171.397 17.46 171.677 17.62C171.957 17.78 172.287 17.86 172.667 17.86Z" fill="#2D2E2F"/>
</svg>
