<svg width="24" height="21" viewBox="0 0 24 21" fill="none" xmlns="http://www.w3.org/2000/svg">
<path d="M7.2 9.6C8.47304 9.6 9.69394 9.09429 10.5941 8.19411C11.4943 7.29394 12 6.07304 12 4.8C12 3.52696 11.4943 2.30606 10.5941 1.40589C9.69394 0.505713 8.47304 0 7.2 0C5.92696 0 4.70606 0.505713 3.80589 1.40589C2.90571 2.30606 2.4 3.52696 2.4 4.8C2.4 6.07304 2.90571 7.29394 3.80589 8.19411C4.70606 9.09429 5.92696 9.6 7.2 9.6ZM18 9.6C18.9548 9.6 19.8705 9.22072 20.5456 8.54558C21.2207 7.87045 21.6 6.95478 21.6 6C21.6 5.04522 21.2207 4.12955 20.5456 3.45442C19.8705 2.77928 18.9548 2.4 18 2.4C17.0452 2.4 16.1295 2.77928 15.4544 3.45442C14.7793 4.12955 14.4 5.04522 14.4 6C14.4 6.95478 14.7793 7.87045 15.4544 8.54558C16.1295 9.22072 17.0452 9.6 18 9.6ZM2.7 12C1.98392 12 1.29716 12.2845 0.790812 12.7908C0.284463 13.2972 0 13.9839 0 14.7V15C0 15 0 20.4 7.2 20.4C9.426 20.4 10.9632 19.884 12.0252 19.1712C12.0972 18.7152 12.3156 18.3084 12.63 18C12.4302 17.8047 12.2715 17.5713 12.1633 17.3137C12.0551 17.0561 11.9996 16.7794 12 16.5C12 15.912 12.2412 15.3816 12.63 15C12.4302 14.8047 12.2715 14.5713 12.1633 14.3137C12.0551 14.0561 11.9996 13.7794 12 13.5C12 12.9744 12.1932 12.492 12.5136 12.1248C12.2504 12.0419 11.976 11.9998 11.7 12H2.7ZM14.1 12.6C13.8613 12.6 13.6324 12.6948 13.4636 12.8636C13.2948 13.0324 13.2 13.2613 13.2 13.5C13.2 13.7387 13.2948 13.9676 13.4636 14.1364C13.6324 14.3052 13.8613 14.4 14.1 14.4H23.1C23.3387 14.4 23.5676 14.3052 23.7364 14.1364C23.9052 13.9676 24 13.7387 24 13.5C24 13.2613 23.9052 13.0324 23.7364 12.8636C23.5676 12.6948 23.3387 12.6 23.1 12.6H14.1ZM14.1 15.6C13.8613 15.6 13.6324 15.6948 13.4636 15.8636C13.2948 16.0324 13.2 16.2613 13.2 16.5C13.2 16.7387 13.2948 16.9676 13.4636 17.1364C13.6324 17.3052 13.8613 17.4 14.1 17.4H23.1C23.3387 17.4 23.5676 17.3052 23.7364 17.1364C23.9052 16.9676 24 16.7387 24 16.5C24 16.2613 23.9052 16.0324 23.7364 15.8636C23.5676 15.6948 23.3387 15.6 23.1 15.6H14.1ZM14.1 18.6C13.8613 18.6 13.6324 18.6948 13.4636 18.8636C13.2948 19.0324 13.2 19.2613 13.2 19.5C13.2 19.7387 13.2948 19.9676 13.4636 20.1364C13.6324 20.3052 13.8613 20.4 14.1 20.4H23.1C23.3387 20.4 23.5676 20.3052 23.7364 20.1364C23.9052 19.9676 24 19.7387 24 19.5C24 19.2613 23.9052 19.0324 23.7364 18.8636C23.5676 18.6948 23.3387 18.6 23.1 18.6H14.1Z" fill="white"/>
</svg>
