<svg width="22" height="18" viewBox="0 0 22 18" fill="none" xmlns="http://www.w3.org/2000/svg">
<path d="M4.25 4.59375C4.25 4.28596 4.31062 3.98119 4.42841 3.69684C4.54619 3.41248 4.71883 3.15411 4.93647 2.93647C5.15411 2.71883 5.41248 2.54619 5.69684 2.42841C5.98119 2.31062 6.28596 2.25 6.59375 2.25C6.90154 2.25 7.20631 2.31062 7.49066 2.42841C7.77502 2.54619 8.03339 2.71883 8.25103 2.93647C8.46867 3.15411 8.64131 3.41248 8.75909 3.69684C8.87688 3.98119 8.9375 4.28596 8.9375 4.59375C8.9375 5.21535 8.69057 5.81149 8.25103 6.25103C7.81149 6.69057 7.21535 6.9375 6.59375 6.9375C5.97215 6.9375 5.37601 6.69057 4.93647 6.25103C4.49693 5.81149 4.25 5.21535 4.25 4.59375ZM6.59375 0.6875C5.55775 0.6875 4.56418 1.09905 3.83161 1.83161C3.09905 2.56418 2.6875 3.55775 2.6875 4.59375C2.6875 5.62975 3.09905 6.62332 3.83161 7.35589C4.56418 8.08845 5.55775 8.5 6.59375 8.5C7.62975 8.5 8.62332 8.08845 9.35589 7.35589C10.0884 6.62332 10.5 5.62975 10.5 4.59375C10.5 3.55775 10.0884 2.56418 9.35589 1.83161C8.62332 1.09905 7.62975 0.6875 6.59375 0.6875ZM14.4062 5.375C14.4062 4.9606 14.5709 4.56317 14.8639 4.27015C15.1569 3.97712 15.5543 3.8125 15.9688 3.8125C16.3832 3.8125 16.7806 3.97712 17.0736 4.27015C17.3666 4.56317 17.5312 4.9606 17.5312 5.375C17.5312 5.7894 17.3666 6.18683 17.0736 6.47985C16.7806 6.77288 16.3832 6.9375 15.9688 6.9375C15.5543 6.9375 15.1569 6.77288 14.8639 6.47985C14.5709 6.18683 14.4062 5.7894 14.4062 5.375ZM15.9688 2.25C15.1399 2.25 14.3451 2.57924 13.759 3.16529C13.173 3.75134 12.8438 4.5462 12.8438 5.375C12.8438 6.2038 13.173 6.99866 13.759 7.58471C14.3451 8.17076 15.1399 8.5 15.9688 8.5C16.7976 8.5 17.5924 8.17076 18.1785 7.58471C18.7645 6.99866 19.0938 6.2038 19.0938 5.375C19.0938 4.5462 18.7645 3.75134 18.1785 3.16529C17.5924 2.57924 16.7976 2.25 15.9688 2.25ZM10.5 10.0625C10.5438 10.0625 10.5891 10.0625 10.6328 10.0656C10.4531 10.5745 10.4548 11.1297 10.6375 11.6375C10.5921 11.6294 10.5461 11.6252 10.5 11.625H2.6875C2.4803 11.625 2.28159 11.7073 2.13507 11.8538C1.98856 12.0003 1.90625 12.199 1.90625 12.4062V12.5578L1.9125 12.6344C1.97301 13.1181 2.15467 13.5787 2.44063 13.9734C2.95 14.6734 4.05938 15.5312 6.59375 15.5312C8.8 15.5312 9.92656 14.8813 10.5156 14.25C10.575 14.7406 10.7844 15.1828 11.0969 15.5312C10.9477 15.6976 10.823 15.8844 10.7266 16.0859C9.78125 16.6844 8.45 17.0938 6.59375 17.0938C3.65937 17.0938 2.03438 16.0719 1.17656 14.8922C0.729315 14.2746 0.447953 13.5527 0.359375 12.7953C0.351596 12.7242 0.346385 12.6528 0.34375 12.5813V12.4062C0.34375 11.7846 0.59068 11.1885 1.03022 10.749C1.46976 10.3094 2.0659 10.0625 2.6875 10.0625H10.5ZM12.8438 10.0625C12.6365 10.0625 12.4378 10.1448 12.2913 10.2913C12.1448 10.4378 12.0625 10.6365 12.0625 10.8438C12.0625 11.051 12.1448 11.2497 12.2913 11.3962C12.4378 11.5427 12.6365 11.625 12.8438 11.625H20.6562C20.8635 11.625 21.0622 11.5427 21.2087 11.3962C21.3552 11.2497 21.4375 11.051 21.4375 10.8438C21.4375 10.6365 21.3552 10.4378 21.2087 10.2913C21.0622 10.1448 20.8635 10.0625 20.6562 10.0625H12.8438ZM12.8438 13.1875C12.6365 13.1875 12.4378 13.2698 12.2913 13.4163C12.1448 13.5628 12.0625 13.7615 12.0625 13.9688C12.0625 14.176 12.1448 14.3747 12.2913 14.5212C12.4378 14.6677 12.6365 14.75 12.8438 14.75H20.6562C20.8635 14.75 21.0622 14.6677 21.2087 14.5212C21.3552 14.3747 21.4375 14.176 21.4375 13.9688C21.4375 13.7615 21.3552 13.5628 21.2087 13.4163C21.0622 13.2698 20.8635 13.1875 20.6562 13.1875H12.8438ZM12.8438 16.3125C12.6365 16.3125 12.4378 16.3948 12.2913 16.5413C12.1448 16.6878 12.0625 16.8865 12.0625 17.0938C12.0625 17.301 12.1448 17.4997 12.2913 17.6462C12.4378 17.7927 12.6365 17.875 12.8438 17.875H20.6562C20.8635 17.875 21.0622 17.7927 21.2087 17.6462C21.3552 17.4997 21.4375 17.301 21.4375 17.0938C21.4375 16.8865 21.3552 16.6878 21.2087 16.5413C21.0622 16.3948 20.8635 16.3125 20.6562 16.3125H12.8438Z" fill="white"/>
</svg>
