<svg width="22" height="18" viewBox="0 0 22 18" fill="none" xmlns="http://www.w3.org/2000/svg">
<path d="M10.5 4.59375C10.5 5.62975 10.0884 6.62332 9.35589 7.35589C8.62332 8.08845 7.62975 8.5 6.59375 8.5C5.55775 8.5 4.56418 8.08845 3.83161 7.35589C3.09905 6.62332 2.6875 5.62975 2.6875 4.59375C2.6875 3.55775 3.09905 2.56418 3.83161 1.83161C4.56418 1.09905 5.55775 0.6875 6.59375 0.6875C7.62975 0.6875 8.62332 1.09905 9.35589 1.83161C10.0884 2.56418 10.5 3.55775 10.5 4.59375ZM15.9688 8.5C16.7976 8.5 17.5924 8.17076 18.1785 7.58471C18.7645 6.99866 19.0938 6.2038 19.0938 5.375C19.0938 4.5462 18.7645 3.75134 18.1785 3.16529C17.5924 2.57924 16.7976 2.25 15.9688 2.25C15.1399 2.25 14.3451 2.57924 13.759 3.16529C13.173 3.75134 12.8438 4.5462 12.8438 5.375C12.8438 6.2038 13.173 6.99866 13.759 7.58471C14.3451 8.17076 15.1399 8.5 15.9688 8.5ZM10.5 10.8438C10.5 10.5719 10.5469 10.3094 10.6328 10.0656C10.5886 10.0634 10.5443 10.0623 10.5 10.0625H2.6875C2.0659 10.0625 1.46976 10.3094 1.03022 10.749C0.59068 11.1885 0.34375 11.7846 0.34375 12.4062V12.5234C0.34375 12.5234 0.34375 17.0938 6.59375 17.0938C8.48438 17.0938 9.80469 16.675 10.725 16.0906C10.8219 15.8875 10.9469 15.6984 11.0969 15.5312C10.7117 15.102 10.4991 14.5454 10.5 13.9688C10.5 13.3687 10.725 12.8203 11.0969 12.4062C10.7117 11.977 10.4991 11.4204 10.5 10.8438ZM12.8438 10.0625C12.6365 10.0625 12.4378 10.1448 12.2913 10.2913C12.1448 10.4378 12.0625 10.6365 12.0625 10.8438C12.0625 11.051 12.1448 11.2497 12.2913 11.3962C12.4378 11.5427 12.6365 11.625 12.8438 11.625H20.6562C20.8635 11.625 21.0622 11.5427 21.2087 11.3962C21.3552 11.2497 21.4375 11.051 21.4375 10.8438C21.4375 10.6365 21.3552 10.4378 21.2087 10.2913C21.0622 10.1448 20.8635 10.0625 20.6562 10.0625H12.8438ZM12.8438 13.1875C12.6365 13.1875 12.4378 13.2698 12.2913 13.4163C12.1448 13.5628 12.0625 13.7615 12.0625 13.9688C12.0625 14.176 12.1448 14.3747 12.2913 14.5212C12.4378 14.6677 12.6365 14.75 12.8438 14.75H20.6562C20.8635 14.75 21.0622 14.6677 21.2087 14.5212C21.3552 14.3747 21.4375 14.176 21.4375 13.9688C21.4375 13.7615 21.3552 13.5628 21.2087 13.4163C21.0622 13.2698 20.8635 13.1875 20.6562 13.1875H12.8438ZM12.8438 16.3125C12.6365 16.3125 12.4378 16.3948 12.2913 16.5413C12.1448 16.6878 12.0625 16.8865 12.0625 17.0938C12.0625 17.301 12.1448 17.4997 12.2913 17.6462C12.4378 17.7927 12.6365 17.875 12.8438 17.875H20.6562C20.8635 17.875 21.0622 17.7927 21.2087 17.6462C21.3552 17.4997 21.4375 17.301 21.4375 17.0938C21.4375 16.8865 21.3552 16.6878 21.2087 16.5413C21.0622 16.3948 20.8635 16.3125 20.6562 16.3125H12.8438Z" fill="white"/>
</svg>
