<svg width="40" height="40" viewBox="0 0 40 40" fill="none" xmlns="http://www.w3.org/2000/svg">
<path d="M20 3.33301C10.795 3.33301 3.33337 10.7947 3.33337 19.9997C3.33337 29.2047 10.795 36.6663 20 36.6663C29.205 36.6663 36.6667 29.2047 36.6667 19.9997C36.6667 10.7947 29.205 3.33301 20 3.33301Z" stroke="white" stroke-width="1.5" stroke-linecap="round" stroke-linejoin="round"/>
<path d="M7.11865 30.5763C7.11865 30.5763 10.8337 25.833 20.0003 25.833C29.167 25.833 32.8837 30.5763 32.8837 30.5763" stroke="white" stroke-width="1.5" stroke-linecap="round" stroke-linejoin="round"/>
<path d="M20 20C21.3261 20 22.5979 19.4732 23.5355 18.5355C24.4732 17.5979 25 16.3261 25 15C25 13.6739 24.4732 12.4021 23.5355 11.4645C22.5979 10.5268 21.3261 10 20 10C18.6739 10 17.4021 10.5268 16.4645 11.4645C15.5268 12.4021 15 13.6739 15 15C15 16.3261 15.5268 17.5979 16.4645 18.5355C17.4021 19.4732 18.6739 20 20 20V20Z" stroke="white" stroke-width="1.5" stroke-linecap="round" stroke-linejoin="round"/>
</svg>
