<svg width="21" height="25" viewBox="0 0 21 25" fill="none" xmlns="http://www.w3.org/2000/svg">
<path d="M18 8.75C17.8742 7.26447 17.2583 5.86285 16.2491 4.76546C15.24 3.66807 13.8948 2.93712 12.425 2.6875C12.5 1.825 12.4125 0 10.5 0C8.5875 0 8.5 1.825 8.575 2.6875C7.10519 2.93712 5.76 3.66807 4.75085 4.76546C3.74171 5.86285 3.12582 7.26447 3 8.75V16.25L0.5 18.75V20H20.5V18.75L18 16.25V8.75ZM10.5 25C11.4946 25 12.4484 24.6049 13.1517 23.9017C13.8549 23.1984 14.25 22.2446 14.25 21.25H6.75C6.75 22.2446 7.14509 23.1984 7.84835 23.9017C8.55161 24.6049 9.50544 25 10.5 25Z" fill="white"/>
</svg>
