<svg width="20" height="20" viewBox="0 0 20 20" fill="none" xmlns="http://www.w3.org/2000/svg">
  <path d="M17.14 10.9364C17.176 10.6364 17.2 10.3244 17.2 10.0004C17.2 9.67639 17.176 9.36439 17.128 9.06439L19.156 7.48039C19.336 7.33639 19.384 7.07239 19.276 6.86839L17.356 3.54439C17.236 3.32839 16.984 3.25639 16.768 3.32839L14.38 4.28839C13.876 3.90439 13.348 3.59239 12.76 3.35239L12.4 0.808391C12.364 0.568391 12.16 0.400391 11.92 0.400391H8.07998C7.83998 0.400391 7.64799 0.568391 7.61199 0.808391L7.25199 3.35239C6.66398 3.59239 6.12399 3.91639 5.63199 4.28839L3.24398 3.32839C3.02798 3.24439 2.77598 3.32839 2.65598 3.54439L0.735985 6.86839C0.615985 7.08439 0.663985 7.33639 0.855985 7.48039L2.88398 9.06439C2.83598 9.36439 2.79998 9.68839 2.79998 10.0004C2.79998 10.3124 2.82398 10.6364 2.87198 10.9364L0.843984 12.5204C0.663984 12.6644 0.615985 12.9284 0.723985 13.1324L2.64398 16.4564C2.76398 16.6724 3.01598 16.7444 3.23198 16.6724L5.61998 15.7124C6.12398 16.0964 6.65198 16.4084 7.23998 16.6484L7.59999 19.1924C7.64798 19.4324 7.83998 19.6004 8.07998 19.6004H11.92C12.16 19.6004 12.364 19.4324 12.388 19.1924L12.748 16.6484C13.336 16.4084 13.876 16.0844 14.368 15.7124L16.756 16.6724C16.972 16.7564 17.224 16.6724 17.344 16.4564L19.264 13.1324C19.384 12.9164 19.336 12.6644 19.144 12.5204L17.14 10.9364ZM9.99998 13.6004C8.01999 13.6004 6.39998 11.9804 6.39998 10.0004C6.39998 8.02039 8.01999 6.40039 9.99998 6.40039C11.98 6.40039 13.6 8.02039 13.6 10.0004C13.6 11.9804 11.98 13.6004 9.99998 13.6004Z" fill="white"/>
</svg>
