<svg width="24" height="24" viewBox="0 0 24 24" fill="none" xmlns="http://www.w3.org/2000/svg">
<path d="M19.4731 12.536C19.5091 12.236 19.5331 11.924 19.5331 11.6C19.5331 11.276 19.5091 10.964 19.4611 10.664L21.4891 9.08C21.6691 8.936 21.7171 8.672 21.6091 8.468L19.6891 5.144C19.5691 4.928 19.3171 4.856 19.1011 4.928L16.7131 5.888C16.2091 5.504 15.6811 5.192 15.0931 4.952L14.7331 2.408C14.6971 2.168 14.4931 2 14.2531 2H10.4131C10.1731 2 9.98112 2.168 9.94512 2.408L9.58511 4.952C8.99711 5.192 8.45712 5.516 7.96512 5.888L5.57711 4.928C5.36111 4.844 5.10911 4.928 4.98911 5.144L3.06911 8.468C2.94911 8.684 2.99711 8.936 3.18911 9.08L5.21711 10.664C5.16911 10.964 5.13311 11.288 5.13311 11.6C5.13311 11.912 5.15711 12.236 5.20511 12.536L3.17711 14.12C2.99711 14.264 2.94911 14.528 3.05711 14.732L4.97711 18.056C5.09711 18.272 5.34911 18.344 5.56511 18.272L7.95311 17.312C8.45711 17.696 8.98511 18.008 9.57311 18.248L9.93312 20.792C9.98111 21.032 10.1731 21.2 10.4131 21.2H14.2531C14.4931 21.2 14.6971 21.032 14.7211 20.792L15.0811 18.248C15.6691 18.008 16.2091 17.684 16.7011 17.312L19.0891 18.272C19.3051 18.356 19.5571 18.272 19.6771 18.056L21.5971 14.732C21.7171 14.516 21.6691 14.264 21.4771 14.12L19.4731 12.536ZM12.3331 15.2C10.3531 15.2 8.73311 13.58 8.73311 11.6C8.73311 9.62 10.3531 8 12.3331 8C14.3131 8 15.9331 9.62 15.9331 11.6C15.9331 13.58 14.3131 15.2 12.3331 15.2Z" fill="white"/>
</svg>
