<svg width="23" height="21" viewBox="0 0 23 21" fill="none" xmlns="http://www.w3.org/2000/svg">
<path d="M22.2363 8.46979C22.2146 8.35977 22.1694 8.25573 22.1038 8.16474C22.0383 8.07375 21.9539 7.99793 21.8564 7.94245L18.9434 6.28229L18.9316 2.99909C18.9313 2.88601 18.9064 2.77437 18.8587 2.67185C18.811 2.56934 18.7416 2.47841 18.6553 2.40534C17.5986 1.51149 16.3817 0.826494 15.0693 0.386781C14.966 0.351801 14.8565 0.338855 14.7478 0.348779C14.6392 0.358703 14.5338 0.391275 14.4385 0.444399L11.5 2.08698L8.5586 0.441469C8.46324 0.388046 8.35773 0.355228 8.24889 0.345135C8.14006 0.335042 8.03032 0.347899 7.92676 0.382875C6.61521 0.825412 5.39965 1.51306 4.34473 2.40924C4.25857 2.48221 4.18924 2.57298 4.14153 2.67532C4.09382 2.77765 4.06886 2.88911 4.06836 3.00202L4.05371 6.28815L1.14063 7.94831C1.04317 8.00379 0.958796 8.0796 0.893246 8.1706C0.827697 8.26159 0.782506 8.36563 0.760745 8.47565C0.49414 9.81538 0.49414 11.1945 0.760745 12.5342C0.782506 12.6443 0.827697 12.7483 0.893246 12.8393C0.958796 12.9303 1.04317 13.0061 1.14063 13.0616L4.05371 14.7217L4.06543 18.0059C4.06579 18.119 4.09068 18.2306 4.1384 18.3332C4.18611 18.4357 4.25551 18.5266 4.3418 18.5997C5.39851 19.4935 6.61539 20.1785 7.92774 20.6182C8.03108 20.6532 8.14061 20.6662 8.24927 20.6562C8.35792 20.6463 8.46329 20.6137 8.5586 20.5606L11.5 18.9131L14.4414 20.5587C14.5578 20.6235 14.689 20.6572 14.8223 20.6563C14.9076 20.6563 14.9923 20.6424 15.0732 20.6153C16.3845 20.173 17.6 19.486 18.6553 18.5909C18.7414 18.5179 18.8108 18.4271 18.8585 18.3248C18.9062 18.2225 18.9311 18.111 18.9316 17.9981L18.9463 14.712L21.8594 13.0518C21.9568 12.9963 22.0412 12.9205 22.1068 12.8295C22.1723 12.7385 22.2175 12.6345 22.2393 12.5245C22.5044 11.1858 22.5034 9.80806 22.2363 8.46979ZM11.5 14.4063C10.7274 14.4063 9.97219 14.1772 9.32981 13.748C8.68743 13.3188 8.18675 12.7087 7.8911 11.9949C7.59544 11.2811 7.51809 10.4957 7.66881 9.73799C7.81953 8.98025 8.19157 8.28423 8.73787 7.73793C9.28417 7.19163 9.98019 6.81959 10.7379 6.66887C11.4957 6.51815 12.2811 6.5955 12.9949 6.89116C13.7086 7.18681 14.3187 7.68749 14.7479 8.32987C15.1772 8.97225 15.4063 9.72748 15.4063 10.5001C15.4063 11.5361 14.9947 12.5296 14.2621 13.2622C13.5296 13.9948 12.536 14.4063 11.5 14.4063Z" fill="white"/>
</svg>
