<svg width="23" height="21" viewBox="0 0 23 21" fill="none" xmlns="http://www.w3.org/2000/svg">
<path d="M11.5 6.00789C10.6115 6.00789 9.74301 6.27136 9.00427 6.76496C8.26554 7.25857 7.68976 7.96016 7.34976 8.781C7.00976 9.60184 6.9208 10.5051 7.09413 11.3765C7.26746 12.2479 7.6953 13.0483 8.32354 13.6765C8.95179 14.3048 9.75222 14.7326 10.6236 14.906C11.495 15.0793 12.3982 14.9903 13.2191 14.6503C14.0399 14.3103 14.7415 13.7345 15.2351 12.9958C15.7287 12.2571 15.9922 11.3886 15.9922 10.5001C15.9906 9.30916 15.5169 8.16745 14.6747 7.32534C13.8326 6.48323 12.6909 6.00944 11.5 6.00789ZM11.5 13.8204C10.8433 13.8204 10.2014 13.6257 9.65533 13.2608C9.10931 12.896 8.68374 12.3774 8.43243 11.7707C8.18112 11.164 8.11537 10.4964 8.24348 9.85232C8.3716 9.20824 8.68783 8.61662 9.15218 8.15227C9.61654 7.68791 10.2082 7.37168 10.8522 7.24357C11.4963 7.11545 12.1639 7.18121 12.7706 7.43251C13.3773 7.68382 13.8959 8.10939 14.2607 8.65542C14.6256 9.20144 14.8203 9.84339 14.8203 10.5001C14.8203 11.3807 14.4705 12.2252 13.8478 12.8479C13.2251 13.4706 12.3806 13.8204 11.5 13.8204ZM22.0469 8.50789C22.0299 8.42624 21.9957 8.34915 21.9465 8.28179C21.8973 8.21442 21.8343 8.15833 21.7617 8.11727L18.7891 6.42L18.748 6.35067L18.7363 3.00008C18.7363 2.91545 18.718 2.83182 18.6826 2.75495C18.6472 2.67807 18.5956 2.60978 18.5312 2.55477C17.493 1.67691 16.2978 1.00389 15.0088 0.571371C14.9313 0.545317 14.8492 0.535767 14.7678 0.543336C14.6864 0.550904 14.6075 0.575423 14.5361 0.615317L11.5449 2.28329H11.4473L8.46387 0.613363C8.39218 0.573352 8.31289 0.548851 8.23113 0.541449C8.14937 0.534047 8.06696 0.543908 7.98926 0.570395C6.7004 1.00417 5.50571 1.6789 4.46875 2.55868C4.4042 2.6134 4.35227 2.68145 4.31653 2.75815C4.28079 2.83486 4.26209 2.91839 4.26172 3.00301L4.24609 6.35653C4.23242 6.37899 4.21875 6.40243 4.20605 6.42586L1.2373 8.11434C1.16435 8.15603 1.10121 8.21293 1.05218 8.28117C1.00314 8.34941 0.969362 8.4274 0.953124 8.50985C0.692383 9.82452 0.692383 11.1776 0.953124 12.4923C0.970115 12.5739 1.00434 12.651 1.05352 12.7184C1.1027 12.7857 1.16569 12.8418 1.23828 12.8829L4.20898 14.5753L4.25 14.6446L4.26172 17.9952C4.26124 18.0808 4.27953 18.1655 4.3153 18.2433C4.35107 18.321 4.40345 18.39 4.46875 18.4454C5.50697 19.3233 6.70223 19.9963 7.99121 20.4288C8.0687 20.4548 8.15079 20.4644 8.23219 20.4568C8.31359 20.4493 8.39251 20.4247 8.46387 20.3848L11.4531 18.7169H11.5508L14.5352 20.3868C14.6225 20.4351 14.7205 20.4606 14.8203 20.461C14.8844 20.4613 14.9482 20.4507 15.0088 20.4298C16.2959 19.9954 17.4889 19.3207 18.5244 18.4415C18.589 18.3868 18.6409 18.3187 18.6766 18.242C18.7124 18.1653 18.7311 18.0818 18.7314 17.9972L18.7471 14.6436C18.7607 14.6212 18.7744 14.5977 18.7871 14.5743L21.7578 12.8858C21.831 12.8442 21.8943 12.7874 21.9435 12.7191C21.9927 12.6509 22.0266 12.5728 22.043 12.4903C22.305 11.1759 22.3063 9.82282 22.0469 8.50789ZM20.9482 12.003L18.0742 13.6348C17.981 13.6882 17.9041 13.7658 17.8516 13.8595C17.7939 13.9571 17.7334 14.0655 17.6699 14.1661C17.6121 14.2587 17.5814 14.3656 17.5811 14.4747L17.5654 17.7179C16.7574 18.3652 15.8498 18.8774 14.8779 19.2345L11.9883 17.6173C11.9009 17.5681 11.8024 17.5423 11.7021 17.5421H11.3232C11.2185 17.5396 11.1149 17.5652 11.0234 17.6163L8.12598 19.2335C7.15288 18.8782 6.24392 18.3674 5.43457 17.7208L5.42285 14.4815C5.42254 14.3724 5.39177 14.2655 5.33398 14.1729C5.27148 14.0753 5.20996 13.9698 5.15234 13.8663C5.10038 13.7726 5.02371 13.6949 4.93066 13.6417L2.05664 12.004C1.88957 11.0087 1.88957 9.99247 2.05664 8.99715L4.92578 7.36532C5.02041 7.31256 5.09877 7.23487 5.15234 7.14071C5.20996 7.04305 5.27051 6.93465 5.33398 6.83407C5.39177 6.74148 5.42254 6.63461 5.42285 6.52547L5.43848 3.28231C6.24533 2.6353 7.15158 2.12315 8.12207 1.76571L11.0117 3.38289C11.1029 3.43488 11.2066 3.46057 11.3115 3.45711H11.6768C11.7815 3.45963 11.8851 3.434 11.9766 3.38289L14.8721 1.76571C15.8452 2.12095 16.7541 2.63183 17.5635 3.2784L17.5752 6.51766C17.5755 6.62679 17.6063 6.73367 17.6641 6.82625C17.7266 6.92391 17.7881 7.02938 17.8457 7.13289C17.8977 7.22663 17.9743 7.30432 18.0674 7.3575L20.9434 8.99618C21.1114 9.99133 21.1124 11.0075 20.9463 12.003H20.9482Z" fill="white"/>
</svg>
