<svg width="24" height="24" viewBox="0 0 24 24" fill="none" xmlns="http://www.w3.org/2000/svg">
<path d="M22 5.72035L17.4 1.86035L16.11 3.39035L20.71 7.25035L22 5.72035ZM7.88 3.39035L6.6 1.86035L2 5.71035L3.29 7.24035L7.88 3.39035ZM12.5 8.00035H11V14.0004L15.75 16.8504L16.5 15.6204L12.5 13.2504V8.00035ZM12 4.00035C7.03 4.00035 3 8.03035 3 13.0004C3 17.9704 7.02 22.0004 12 22.0004C16.97 22.0004 21 17.9704 21 13.0004C21 8.03035 16.97 4.00035 12 4.00035ZM12 20.0004C8.13 20.0004 5 16.8704 5 13.0004C5 9.13035 8.13 6.00035 12 6.00035C15.87 6.00035 19 9.13035 19 13.0004C19 16.8704 15.87 20.0004 12 20.0004Z" fill="white"/>
</svg>
