<svg width="24" height="24" viewBox="0 0 24 24" fill="none" xmlns="http://www.w3.org/2000/svg">
<path fill-rule="evenodd" clip-rule="evenodd" d="M0 12C0 18.624 5.376 24 12 24C18.624 24 24 18.624 24 12C24 5.376 18.624 0 12 0C5.376 0 0 5.376 0 12ZM6 10.2C5.004 10.2 4.2 11.004 4.2 12C4.2 12.996 5.004 13.8 6 13.8C6.996 13.8 7.8 12.996 7.8 12C7.8 11.004 6.996 10.2 6 10.2ZM18 10.2C17.004 10.2 16.2 11.004 16.2 12C16.2 12.996 17.004 13.8 18 13.8C18.996 13.8 19.8 12.996 19.8 12C19.8 11.004 18.996 10.2 18 10.2ZM12 10.2C11.004 10.2 10.2 11.004 10.2 12C10.2 12.996 11.004 13.8 12 13.8C12.996 13.8 13.8 12.996 13.8 12C13.8 11.004 12.996 10.2 12 10.2Z" fill="#FF9214"/>
</svg>
