<svg viewBox="0 0 24 24" fill="#dedede" xmlns="http://www.w3.org/2000/svg" class="css-bleycz"><path fill-rule="evenodd" d="M2,12 C2,17.52 6.48,22 12,22 C17.52,22 22,17.52 22,12 C22,6.48 17.52,2 12,2 C6.48,2 2,6.48 2,12 Z M7,10.5 C6.17,10.5 5.5,11.17 5.5,12 C5.5,12.83 6.17,13.5 7,13.5 C7.83,13.5 8.5,12.83 8.5,12 C8.5,11.17 7.83,10.5 7,10.5 Z M17,10.5 C16.17,10.5 15.5,11.17 15.5,12 C15.5,12.83 16.17,13.5 17,13.5 C17.83,13.5 18.5,12.83 18.5,12 C18.5,11.17 17.83,10.5 17,10.5 Z M12,10.5 C11.17,10.5 10.5,11.17 10.5,12 C10.5,12.83 11.17,13.5 12,13.5 C12.83,13.5 13.5,12.83 13.5,12 C13.5,11.17 12.83,10.5 12,10.5 Z"></path></svg>